<svg xmlns="http://www.w3.org/2000/svg" viewBox="0 0 175 251"><defs><style>.cls-1,.cls-4{fill:#f2d7c2;}.cls-1,.cls-13,.cls-4{stroke:#000;}.cls-1,.cls-13,.cls-2,.cls-3,.cls-4,.cls-6,.cls-7,.cls-9{stroke-miterlimit:10;}.cls-1,.cls-2,.cls-9{stroke-width:5px;}.cls-2,.cls-8{fill:#5c5c5c;}.cls-2,.cls-9{stroke:#020202;}.cls-3{fill:#f9f7f7;stroke:#231815;}.cls-3,.cls-4,.cls-7{stroke-width:6px;}.cls-5{fill:#3a5298;}.cls-10,.cls-13,.cls-6,.cls-7,.cls-9{fill:none;}.cls-6,.cls-7{stroke:#040000;}.cls-6{stroke-width:4px;}.cls-11{fill:#f49a9a;}.cls-12{fill:#020202;}.cls-13{stroke-width:3px;}.cls-14{fill:#231815;}</style></defs><g id="レイヤー_2" data-name="レイヤー 2"><g id="レイヤー_2-2" data-name="レイヤー 2"><circle class="cls-1" cx="128" cy="77" r="14.5"/><circle class="cls-1" cx="129" cy="131" r="10.5" transform="translate(-5.6 256.24) rotate(-88.38)"/><ellipse class="cls-2" cx="82.5" cy="164" rx="35.5" ry="39"/><polygon class="cls-3" points="83.64 178 108.64 139 61.64 139 83.64 178"/><circle class="cls-1" cx="27" cy="107" r="14.5"/><ellipse class="cls-4" cx="82.15" cy="98.13" rx="56.1" ry="49.66" transform="translate(-8.76 8.06) rotate(-5.33)"/><circle class="cls-5" cx="83.57" cy="153.62" r="4.36"/><ellipse class="cls-5" cx="83.57" cy="165.17" rx="4.36" ry="8.22"/><line class="cls-6" x1="51" y1="162" x2="67" y2="162"/><path class="cls-2" d="M121.77,136.65l18.35,10.21s-10.79,31.75-41.38,25Z"/><line class="cls-7" x1="51" y1="181" x2="113" y2="181"/><rect class="cls-8" x="56.5" y="215.5" width="25" height="14" rx="4"/><rect class="cls-9" x="56.5" y="215.5" width="25" height="14" rx="4"/><rect class="cls-8" x="85.5" y="215.5" width="25" height="14" rx="4"/><rect class="cls-9" x="85.5" y="215.5" width="25" height="14" rx="4"/><polygon class="cls-2" points="70.75 200.5 93.75 200.5 90.75 221.5 73.75 221.5 70.75 200.5"/><rect class="cls-10" width="175" height="251"/><circle class="cls-11" cx="112.5" cy="110.5" r="8.5"/><circle class="cls-11" cx="45.5" cy="117.5" r="8.5"/><circle class="cls-12" cx="61.71" cy="99.79" r="7.75"/><circle class="cls-12" cx="103.48" cy="90.79" r="7.75"/><circle class="cls-12" cx="82.5" cy="101.5" r="2.5"/><path class="cls-13" d="M96.57,67.59s3.88,7.71,14,4.63"/><path class="cls-13" d="M98.23,121.27s-13.56-10.19-28.71,4.07"/><circle class="cls-1" cx="96" cy="164" r="10.5" transform="translate(-77.2 242.19) rotate(-83.95)"/><path class="cls-2" d="M92.46,154.7l-2.21,20.88S56.8,178.07,51,147.29Z"/><path class="cls-12" d="M60,31.65S13.38,34.87,20.8,103.5l9.53-11.8s33.9-13.94,36-23.59-4.24,13.94-4.24,13.94L93.88,55.24,133,75.08S122.48,19.86,60,31.65Z"/><polygon class="cls-14" points="70.75 35.17 80 25 76 39 70.75 35.17"/><polygon class="cls-14" points="69.39 37.61 66.11 24.25 75.49 35.39 69.39 37.61"/></g></g></svg>