<svg xmlns="http://www.w3.org/2000/svg" viewBox="0 0 39.32 150"><defs><style>.cls-1{fill:#040000;}</style></defs><g id="レイヤー_2" data-name="レイヤー 2"><g id="_1" data-name="1"><path class="cls-1" d="M39.32,67.5S34,50.29,34,49.06s7.46-18.45,3.37-23.19a18.29,18.29,0,0,0-3.46-3.19c.55-.19,1.24-.52.94-.89-1.08.24-3.23-2.52-3-5.15.19-2.1-2.36-4.65-3.4-5.6a8.86,8.86,0,0,0,.05-1.7c-.24-3.46-1-6.58-5.62-8.49s-7.3,0-7.3,0C14,1.21,14,1,13.07,2.76S9.6,8.87,10.19,10.9A4.59,4.59,0,0,0,13,13.65s1.91,4.07,3.35,5.27a18.13,18.13,0,0,0,3.29,2.42c-1.39.66-5.1,1-6.23,2.42s-2.84,5.62-3.38,7S4.47,43.61,4.47,44.31s-1.78,6.85.36,7.91,6.75,1.23,6.75,1.23l-3.37,16,1.95.52s-.35,6.85-.89,12.83,1.54,17.3,1.54,17.3.14,5.82.07,6.72-4,29.28-4.44,31.28S3.07,146.09,1,147s-1,1.89,2.76,2.16,7.7-4.61,7.7-4.61a19.09,19.09,0,0,0,3.38-.21c.5-.24.93-2.76.93-2.76l-.74-3.28,2.41-.81,2.39-25.74S23,90.87,23.14,89.11s2.49,14.23,2.49,14.23,2.31,12.12,2,13.18a141.41,141.41,0,0,0-1.25,14.41c.18.52.18,4.51-.36,5.09-1.27,1.39-1.11,1.71-.76,2-.13,1.25-.53,5.14-.68,5.58a8.43,8.43,0,0,0,.71,4.75,3.25,3.25,0,0,0,4.45,1.22c1.6-1.05,2.49-2.63,2.13-4-.21-.85-.49-3.61-.68-5.67a3.07,3.07,0,0,0,2.66-1.53C34.7,136,37,117.4,37,116.52s-.18-14.58-.36-15.81,1.78-26.35.36-31.8A3.76,3.76,0,0,0,39.32,67.5ZM29.48,20.9l-1.21-.13c-.84-1.63-1.68-3.29-1.68-3.29s.22-.48.51-1.25A24.76,24.76,0,0,0,29.48,20.9Z"/></g></g></svg>