<svg xmlns="http://www.w3.org/2000/svg" viewBox="0 0 43.34 150"><defs><style>.cls-1{fill:#040000;}</style></defs><g id="レイヤー_2" data-name="レイヤー 2"><g id="_1" data-name="1"><path class="cls-1" d="M37.58,140.13l-1-4.79v-4.59l-1.46-2.29,1-3.55-.53-35.29,1.15-14.13L40.08,73,38.62,59.13c1.36-.52,4.94-1.53,4.71-4.83-.11-1.43-1.09-16.39-.85-20.81s-3.58-6.68-4.06-7.16-2.63-.95-3.1-1.19l-7.47-3.42L27.42,31l-1.63-.26L23,43l-1-11.35.76-1.77L22.19,27l-2.84.26-.78,2.23L19.35,31l.26,11.49-2.32-9.28-.1-.23L14.1,22.59l-1,.52a17.23,17.23,0,0,0,1-2.5l.73-1.31a6.1,6.1,0,0,0,.64,1c-.07.61-.13,1.23-.17,1.69l5.43,4.91L26,20.64l-.82-3.2a2.52,2.52,0,0,0,.19-.54c0-.19.11-.54.19-1a.87.87,0,0,0,.89-.56,20.54,20.54,0,0,1,1.07-3.22,2.26,2.26,0,0,0-.95-2.5,5,5,0,0,0,.95-4.06C27,3.42,22.19-2.19,17.66.91,16,1,14.43.08,12.17,3.06c-1.67,1.43-2.75.84-2.75.84a27.94,27.94,0,0,0,1.67,2.86,20.56,20.56,0,0,1,1.06,3.92,2.06,2.06,0,0,0-1,0,15.82,15.82,0,0,0-2.37,1.62s-1.31,3.15-1.23,4-.38,5.28-.38,5.28L7,22.82,6.08,27a5.1,5.1,0,0,0,4.85,1.14,7.53,7.53,0,0,1,.6-.77l.09,1L11,31.27s-4,.37-5.41-1a7,7,0,0,1-.6-.69l.6-1.75a9,9,0,0,0-.69.72C4.53,29,1.81,42,1.05,45.8,0,51,3.88,51.21,3.88,51.21a26.64,26.64,0,0,1,.89,3.64C4.89,56,5.89,55.53,6.32,56c.83,1-.34,1.47.24,1.81l0,.33-.84,3.76,1,.41L4.63,72.57A4.57,4.57,0,0,0,6.92,74V95.72s.41,22,.41,23.47-.82,11.14-.82,11.14l.2,4s-.41,2.29,0,3.12-1.87,3.76-1.87,3.76S.24,146,0,147s.73,3.35,2.56,2.95c5.93-1.28,11.6-5.41,11.6-5.41l.26-3.09.4-2.36v-2.71l2.7-18.65c.2-1.46.43-13.25.43-13.25L21.1,85.29s3.76,21.06,3.76,22.1,1.67,16.27,1.67,16.27,1.25,14,1.46,14.81a9.91,9.91,0,0,0,1.66,2.5s1.05,2.08,1.25,2.71,6.24,4.16,7.91,5,5.29.24,4-1.82C41.65,145,37.58,140.13,37.58,140.13ZM10.16,15.27c-.59-.11-.21-1.5-.21-1.5l1-1.43a6.08,6.08,0,0,1,1.38-.56c.24,1.08.67,2.93,1.24,4.7a3.09,3.09,0,0,0-1-.51A5.9,5.9,0,0,0,10.16,15.27Zm3.52,40.84a8.82,8.82,0,0,0,0-6.19l4.12-.52c.78,1.81.78,8,.78,8S14.45,58.43,13.68,56.11Z"/></g></g></svg>