<svg xmlns="http://www.w3.org/2000/svg" viewBox="0 0 121.26 369.41"><defs><style>.cls-1{fill:#040000;}</style></defs><g id="レイヤー_2" data-name="レイヤー 2"><g id="_1" data-name="1"><path class="cls-1" d="M121.25,73.07c-.2-5.2-2.8-17.59-2.8-18.38s.6-8.8,1.2-13.39-1.6-7.8-5.4-10.59-11.19-10.59-13.18-10.59h-3.2v-3.4c0-1.8-1-1.8-1.4-3.6a4.18,4.18,0,0,0-1.8-2.59s.6-2.2-1.8-.2c-.2-1.8-1.8-5.4-4.19-4a12.06,12.06,0,0,0-10-5.59c-2.4-.4-9.39-1.8-14.59.8s-12.19,12-14.78,12a8.07,8.07,0,0,0,3,1.4l-2,.4a4.05,4.05,0,0,0,1.8,1c1,.2-.4,2.4-.4,2.4l-3.4,2.2s-1-1.6-1.79-1.2-3.8,2-3.8,2l-1.8-.4S7.75,40.3,4.16,42.1s-5.4,9-3.2,11.79S23.05,70.8,31.33,73.67A21.11,21.11,0,0,1,44.52,86.06c.4.6.4,1.6,1.4,2s-5.4,33.57-6.6,42c-.65,4.54-6,39.56-6,39.56s6.39,3,8.39,3.6C39.25,176.1,40,190.34,40,195.73S36.92,237,36.92,241.51s-1.54,11.45-.37,17c2.62,12.52-2,75.91-1,81.07.63,3.32,3.33,4.81,7,5.19-2.33,2.47-6.3,5.5-13.24,8.9-4.21,2.06-5.1,3.3-3.9,6.29s8.09,3.9,14.69,2.7,14.38-5.39,14.38-5.39h2.4c2.4,0,12.59-3,12.59-3l.6-2.4s-.9-8.39-.9-10.19a11.7,11.7,0,0,0-.45-2.79l.68-.28-3.23-53.88V262.26c0-3.59,4.42-44.12,4.42-44.12s6.6,28.47,10.2,41.95,3.59,61.75,3.59,61.75,1.5,15.28.6,18c-.78,2.35-.82,2.71,5.69,2.76-.22,1-.43,1.84-.59,2.34-.6,1.79-1.5,7.49-16.79,15-4.2,2.06-5.09,3.3-3.89,6.3s8.09,3.89,14.68,2.69,14.39-5.39,14.39-5.39h2.4c2.39,0,12.58-3,12.58-3l.6-2.4s-.89-8.39-.89-10.19a14.71,14.71,0,0,0-.91-4.19l-.21-2.83c1.63-.27,2.61-.47,2.61-.47s-2.62-58.37-2.62-61.07l-.68-10.26c0-7.2-2.59-51.76-2.79-53.95s1.2-10.59,1.6-16-1.8-26.57-1.8-26.57.3,0,.79,0c1.51,0,4.8-.18,6.6-2.44-2.79-6.8,1-65.74,2.2-73.73S121.45,78.26,121.25,73.07ZM58.5,53.59c-2.39,0-16.18-1.8-18.88-2.4s-3.59-2.1-4.49-1.5-2.4-2.4-1.8-3.3,18-8.09,18-8.09l-.6-2.7,3-1.49,2.4-.61s-.9,3.6,0,5.7,3,8.09,3.29,9.29a3.6,3.6,0,0,0,4.8,2.4c3-.9,3,1.2,2.1,2.4S60.9,53.59,58.5,53.59Zm10,6.77a33.5,33.5,0,0,1,.8,4L68.89,78s-2.8-20.38-3.2-21.58,2-3.6,2-3.6l2.8,1.2S68.09,59.17,68.49,60.36ZM95.67,48.19c-.3,1.5-1.5,0-1.5,0L93,46.69s1.5,2.88,1.9,2.88C83.28,58.76,76.08,82.74,76.08,82.74l-.8-19.18L76.88,58l-2.39-4L93,46.69s-.6-3.59,1.2-3.29C95.06,43.54,96,46.69,95.67,48.19Z"/></g></g></svg>