<svg xmlns="http://www.w3.org/2000/svg" viewBox="0 0 196.25 153"><defs><style>.cls-1{fill:#040000;}</style></defs><g id="レイヤー_2" data-name="レイヤー 2"><g id="_1" data-name="1"><path class="cls-1" d="M45.44,84.7c.73-.49,1.79-4.25,2.36-4.74s2.37-5.55,2.37-5.55,1.14.16,1.47.16.82-4.73.82-4.73a3.14,3.14,0,0,0,1.63-2C54.34,66.41,53,47.14,53,47.14a3.32,3.32,0,0,0,.57-.9c.08-.33-1.3-5.55-1.88-5.55,0,0-.89-7.19-1.06-7.84s-4.9-3.35-4.9-3.35l-.24-.57s0-1-.49-1.06a17.33,17.33,0,0,0-2.21-.66c-.57,0-.9.82-1,1.07S39.07,27,39.07,27A5.88,5.88,0,0,0,38,24.84,2.11,2.11,0,0,0,36.62,24l.08-1.31.9-3.1s.73-.73,1-1.06a7,7,0,0,0,.73-2.78,1.56,1.56,0,0,0-.49-1l.32-1.68s.28-.63.07-1c.83-.9,2.49-2.42,2-4.08S37,2.62,30.85,3s-10,5.39-8.91,7.32,1,2.28,1,2.28a14.26,14.26,0,0,1-3.18,1.45c-1,.14-1.45,1-1.8,1.32a14.63,14.63,0,0,1-2.62,1.1l-.69-.34-.55.41s-.07-.48-.28-.41a3.85,3.85,0,0,0-.76.55S8.68,20,8.19,20.09a12.67,12.67,0,0,0-4,2.7,47.42,47.42,0,0,0-4,7.39c-.76,2,1,4.07,2.62,4.63s5.25,2.35,6,2.69,5.26,2.42,5.67,2.76.9,4.29,1.31,5.12a8,8,0,0,1,.28,3.24c-.07.21-1,.62-1,1.11s.21,2.69.21,2.9-1,.14-1.52.83A1.78,1.78,0,0,0,14,55.74a8.58,8.58,0,0,1,1.24,2c.28.9.41,4.15.62,4.56a9.28,9.28,0,0,0,2,1.45v1.8c0,.27-1.86.69-2.41,1.31a6.7,6.7,0,0,0-1.18,2.35c0,.28.69,6.91,1,7.32a7.29,7.29,0,0,0,1.63,1.06s2.7,19,2.67,21.09c-.1,6.71.82,25.8.82,25.8s.49,10.28-.17,12.41a8.8,8.8,0,0,0-.16,4.57,8.27,8.27,0,0,1,.49,2.61c-.16.49-2.77,4.57-4.73,5.23s-2.29,2-1.64,2.61a5.79,5.79,0,0,0,6,.49A22.89,22.89,0,0,0,25,149.62s2.78.17,2.94-.49.33-1.63.49-2.12a11.91,11.91,0,0,0-.33-2.78s1.8-1.79,1.8-2.45A14.58,14.58,0,0,0,28.76,138c-.33-.49,1.14-3.59,1.14-3.59s1.74-21.57,1.41-23.7-.65-8.65-.65-8.65A17.92,17.92,0,0,1,31,97.51c.49-2,1-7.51,1-7.51s3.11,17.31,2.78,18.78,1.31,24.66,1.31,25.15-1,3.43,0,4.41a5.51,5.51,0,0,1,1.14,2.94L37,144.06l1,1.14s-.33,2,.49,2.45a13.86,13.86,0,0,0,3.42.82s1-.66,1.48-.49,2.77,1.79,5.06,2.28,6-.81,5.06-1.79-6.37-4.9-6.53-5.39,1.3-3.27.32-3.92a13.8,13.8,0,0,1-2.45-3.27s-.26-25.46-.26-25.95.33-17,.5-25.2C45.18,84.79,45.28,84.8,45.44,84.7Zm-18.54-59a39.07,39.07,0,0,1-4.41.82,3.87,3.87,0,0,0-1.31-.82c-.49-.08-1.3-.32-1.71,0a31.32,31.32,0,0,1-4.41,2.21c-.49.08-.32-.66-1-.41a3.76,3.76,0,0,1-1.79-.08s5.87-5.72,6-6a8.89,8.89,0,0,0,0-1.48,8,8,0,0,0,2.12.25c1.71.08,3.26-2.21,3.76-2.7a.66.66,0,0,1,.89-.16s.17,2,.82,2.21.74.57.74.57a12.22,12.22,0,0,0,1.22,2.86L28,24.76A10.09,10.09,0,0,1,26.9,25.66ZM46.33,63.22l-.16,3.92.49,1.8L45.19,74,45,64.53Z"/><path class="cls-1" d="M149.52,11s-3.58-1.64-3.13-2.38S155,2.08,158.75,1.19s6.4,1.64,6.85,1.64-.15,2.53-.74,3,1.49,1.64,1.19,2.08a4.24,4.24,0,0,1-1.49.9s.15,2.38.15,3.12v5.37c0,1.63-.75,4.61-1.34,5.06a4.08,4.08,0,0,1-1.49.59l.74,1.05a18.23,18.23,0,0,0,3.28,1.34c.59,0,7.74,3.72,8.93,4.32a6.37,6.37,0,0,1,2.68,4.17c.3,1.63.45,7.44.45,7.44s1.19-.15.89,1.34a1.5,1.5,0,0,1,.9,1.64,1.2,1.2,0,0,1,.89,1.49,7.94,7.94,0,0,0,0,1.94L180.05,49s-.9,9.23-3.43,9.38a35.29,35.29,0,0,1-4.32,0c-.3,0,0,3.72,0,3.72s1.49-.74,1.94-.59a31.83,31.83,0,0,1,3.13,2.38S176.62,74.61,176,75.5s-3.13.45-3.13.45,4.26,23.66,5.16,26.19,3.27,7.3,3.27,8,6.51,19.92,6.51,21.26.45,2.53.15,3,3,2.39,3,3.13.29,3,.29,3a5.39,5.39,0,0,0,2.68,3.43c2.09.89,2.83,3,1.94,4s-3.72,1.78-6.11,1a19.94,19.94,0,0,1-3.87-1.64s-1.93,0-2.53-.59a9,9,0,0,1-1.19-2.54s-2.08-2.38-2.08-2.83S168.08,112,167.93,110c.34,4.46-9.67-18.26-9.78-18.15-.59.59-1.19,6.85-1.19,7.74s-1.34,4-1,5.36-.69,24.47-.39,26.7,1.78,6.79,1.63,7.24a9.71,9.71,0,0,0-.15,3c.15.59.75,1.19.15,2.23s-.15,3.28-.89,4.17a1.78,1.78,0,0,1-1.79.6,6.12,6.12,0,0,1-4.32,2.08c-2.83.15-5.06-1.64-4-3.27a31.07,31.07,0,0,0,1.79-3.28l.15-3.13s-2.24-2.23-2.24-2.83-.88-14.37-.88-15.71-1.25-18.08-1-19.27a64.28,64.28,0,0,0,.59-7.44c0-1.19-1.19-4.77-.89-5.66s.74-4.77.89-5.66,0-6.11,0-6.11-1.49,1.79-2.23.75A10,10,0,0,1,141,75.5a73.89,73.89,0,0,1,1.34-9.83c.3-1,1.49-2.08,2.53-1.78l1,.3.45-4.17s-1.64-2.24-.9-3.28,0-3.42,0-3.42-.29-4.77-.44-5.22-1.79-2.08-2.53-3.42-3.13-2.83-2.68-6.56,1-6.7,1-6.7,2.08-2.53,3.28-2.68l-.6-.59a7.79,7.79,0,0,1,2.38-.6l.45.15,2.08-.89L152.35,25a14.28,14.28,0,0,0,0-4.47A19.81,19.81,0,0,0,151,17.42s-1.94-1.93-1.34-3.42A5,5,0,0,1,149.52,11Z"/><path class="cls-1" d="M118.29,46.42c-.35-.7-3.17-15.48-4.23-16.19a10.51,10.51,0,0,0-1.42-.69c.11-.26.12-.51-.1-.6-.59-.23-4.46-2.11-5.28-2.23a1.15,1.15,0,0,0-.92.35l-.61-.23L102,24.25,100.71,23c.22-.42.44-.89.72-1.39a21.91,21.91,0,0,0,1.29-4.81,2.36,2.36,0,0,0,1.53-1.41c.47-1.17.7-2.58.12-2.93s-1.18.24-1.18.24-.35-1.65.24-1.77.47-1.4.47-1.4-.12-.94.35-1.06,3-2.93,2-4S103.19-.11,96,0,86.1,3.69,85.71,5.05c-.51,1.8,2.35,2.7,2.82,2.93l-.12.71h0v.66l.16.39,0,2.23s-.71.47-.71,1.06-.35,1.4,0,2.11a10.89,10.89,0,0,0,1.76,2.11,31.33,31.33,0,0,0,1.1,4.3,3.39,3.39,0,0,0,1,1.42,3.32,3.32,0,0,0-.11.58l-2.35,2-2.34.7s-.59-.7-1.18-.58-1.52.7-2.81,1.05-1.53.94-1.53.94a32.8,32.8,0,0,1-3.28,1.53c-.82.23-1.53,1.87-1.65,2.81S75,37.74,75,37.74s-.82.35-1.18,2.35a27.26,27.26,0,0,0-.35,4.1l.35,1.64s-.23,6.34-.58,7.87.7,4.92,2.11,6.33a50.56,50.56,0,0,0,4.07,3.4c-.07,5.56-.23,11.72-.55,13.34-.63,3.13-.63,5.63,1.88,6.57s3.12,16,2.81,17.21-.63,18.14-1.25,19.71-.94,17.83-.94,17.83-2.5,4.69-4.69,5.94-4.38,3.76-2.19,5.32,10,0,11-1.56,3.44-4.7,3.44-4.7,2.19-1.25,2.5-2.81.63-6.26.94-7.82,1.57-24.09,1.57-24.09l1.87-10.64s.63-8.13,1.57-6.57,1.56,16.58,2.19,18.15.94,11.88.94,14.07,2.18,13.46,2.18,13.46-.31,2.19.94,3.12,2.51,4.39,3.13,6.26,3.44,3.76,6.57,3.13,3.13-5.63,1.88-6.57-4.38-8.45-4.38-8.45,2.82-5.63,1.25-11-.94-13.76-.94-13.76l.32-28.47,2.81-.94s-.87-10.63-1.6-19.24c2.92-3.21,5.9-6.7,6-7.51A26.67,26.67,0,0,0,118.29,46.42Z"/></g></g></svg>