<svg xmlns="http://www.w3.org/2000/svg" viewBox="0 0 568.39 557.67"><defs><style>.cls-1{fill:#f9f9f9;}.cls-1,.cls-10,.cls-11,.cls-12,.cls-13,.cls-14,.cls-15,.cls-2,.cls-3,.cls-4{stroke:#000;}.cls-1,.cls-10,.cls-11,.cls-12,.cls-13,.cls-14,.cls-15,.cls-16,.cls-18,.cls-2,.cls-3,.cls-4,.cls-7,.cls-8,.cls-9{stroke-miterlimit:10;}.cls-1,.cls-11,.cls-18{stroke-width:5px;}.cls-2{fill:#dddbdb;}.cls-10,.cls-13,.cls-16,.cls-2,.cls-4,.cls-8{stroke-width:10px;}.cls-15,.cls-16,.cls-18,.cls-3,.cls-7,.cls-9{fill:none;}.cls-3,.cls-9{stroke-width:13px;}.cls-4{fill:#adadad;}.cls-5{fill:#f49a9a;opacity:0.69;}.cls-6{fill:#f90613;}.cls-7,.cls-9{stroke:#020202;}.cls-14,.cls-15,.cls-7{stroke-width:3px;}.cls-8{fill:#b0deed;}.cls-16,.cls-8{stroke:#7ca8d8;}.cls-10{fill:#515050;}.cls-11{fill:#506493;}.cls-13{fill:#5973e2;}.cls-14{fill:#dbd007;}.cls-17{fill:#fff;}.cls-18{stroke:#adbfe2;}.cls-19{font-size:41px;font-family:FranklinGothic-Medium, Franklin Gothic Medium;font-weight:500;letter-spacing:0.09em;}</style></defs><g id="レイヤー_2" data-name="レイヤー 2"><g id="レイヤー_2-2" data-name="レイヤー 2"><path class="cls-1" d="M84.07,394S4.66,413.17,2.66,425.17s15,29,45,45c3,0-10,44,29,17,4-1,24.33-39.76,12.67-37.88a48.75,48.75,0,0,0-19.67,7.88l-22-20,43-14Z"/><path class="cls-1" d="M484.33,394s79.41,19.17,81.41,31.17-15,29-45,45c-3,0,10,44-29,17-4-1-24.34-39.76-12.67-37.88a48.75,48.75,0,0,1,19.67,7.88l22-20-43-14Z"/><polygon class="cls-2" points="99.16 552.67 62.16 163.67 508.16 163.67 466.16 552.67 99.16 552.67"/><line class="cls-3" x1="335.66" y1="206.17" x2="384.66" y2="195.17"/><polygon class="cls-4" points="62.36 335.39 66.93 392.34 495.96 393.03 503.38 334.95 62.36 335.39"/><line class="cls-3" x1="212.66" y1="206.17" x2="176.66" y2="195.17"/><circle class="cls-5" cx="360.16" cy="280.67" r="20"/><circle class="cls-5" cx="190.16" cy="280.67" r="20"/><path class="cls-6" d="M83.66,345.17c0-6.6,3.15-12,7-12s7,5.4,7,12v31c0,6.6-3.15,12-7,12s-7-5.4-7-12Z"/><path class="cls-7" d="M83.66,345.17c0-6.6,3.15-12,7-12s7,5.4,7,12v31c0,6.6-3.15,12-7,12s-7-5.4-7-12Z"/><polygon class="cls-8" points="324.02 412.37 321.02 495.37 439.02 495.37 449.02 412.37 324.02 412.37"/><path class="cls-6" d="M464.65,349.47c.24-6.6,3.58-11.88,7.43-11.74s6.8,5.65,6.56,12.24l-1.11,31c-.24,6.6-3.58,11.88-7.43,11.74s-6.8-5.64-6.56-12.24Z"/><path class="cls-7" d="M464.65,349.47c.24-6.6,3.58-11.88,7.43-11.74s6.8,5.65,6.56,12.24l-1.11,31c-.24,6.6-3.58,11.88-7.43,11.74s-6.8-5.64-6.56-12.24Z"/><polygon class="cls-8" points="122.42 414.15 133.42 548.15 257.42 548.15 257.42 414.15 122.42 414.15"/><path class="cls-9" d="M238.49,301.15s67-13,90,4"/><path class="cls-9" d="M227.66,173.17s48,70,48,13c0,0,46,21,42-1"/><path class="cls-10" d="M184.1,152.56s59.61-49.06,197,0C409.1,162.56,199.1,170.56,184.1,152.56Z"/><path class="cls-11" d="M275.66,130.9l-91.56,6S44.66,108.17,185.66,22.17c82-33,167-23,222,19s74,74-25,96l-16,7Z"/><circle class="cls-12" cx="207.66" cy="246.17" r="20"/><circle class="cls-12" cx="359.66" cy="246.17" r="20"/><path class="cls-13" d="M188.16,144.67l-12-23s96-108,209-3l-18,26S279.16,113.67,188.16,144.67Z"/><polygon class="cls-14" points="276.94 79.07 253.23 96.3 262.28 124.17 291.59 124.17 300.64 96.3 276.94 79.07"/><circle class="cls-14" cx="276.66" cy="104.17" r="6"/><line class="cls-15" x1="277.16" y1="78.67" x2="277.16" y2="98.17"/><line class="cls-15" x1="300.54" y1="96.63" x2="283.16" y2="101.67"/><line class="cls-15" x1="281.16" y1="109.67" x2="291.16" y2="123.67"/><line class="cls-15" x1="273.16" y1="109.67" x2="263.16" y2="122.67"/><line class="cls-15" x1="270.16" y1="101.67" x2="255.16" y2="96.67"/><line class="cls-16" x1="125.01" y1="445.75" x2="257.42" y2="445.75"/><path class="cls-17" d="M154.66,437.17c-6.6,0-12-3.15-12-7s5.4-7,12-7h69c6.6,0,12,3.15,12,7s-5.4,7-12,7Z"/><path class="cls-18" d="M154.66,437.17c-6.6,0-12-3.15-12-7s5.4-7,12-7h69c6.6,0,12,3.15,12,7s-5.4,7-12,7Z"/><path class="cls-17" d="M349.52,438.87c-6.6,0-12-3.15-12-7s5.4-7,12-7h69c6.6,0,12,3.15,12,7s-5.4,7-12,7Z"/><path class="cls-18" d="M349.52,438.87c-6.6,0-12-3.15-12-7s5.4-7,12-7h69c6.6,0,12,3.15,12,7s-5.4,7-12,7Z"/><line class="cls-16" x1="385.02" y1="412.37" x2="380.02" y2="495.37"/><line class="cls-16" x1="189.42" y1="411.15" x2="193.92" y2="548.15"/><circle class="cls-6" cx="189.17" cy="402.9" r="11.25"/><circle class="cls-7" cx="189.17" cy="402.9" r="11.25"/><path class="cls-17" d="M185.73,394s-6.35,3.39-4.48,9,5.8-.39,2.62-3.38c0,0,.56-3,2.61-1.5S192.27,394,185.73,394Z"/><text class="cls-19" transform="translate(162.29 375.47)">WEB POLICE</text></g></g></svg>