<svg xmlns="http://www.w3.org/2000/svg" viewBox="0 0 130 206.02"><defs><style>.cls-1{fill:#f2d7c2;}.cls-2{fill:#5c5c5c;}.cls-3{fill:#f9f7f7;stroke:#231815;}.cls-3,.cls-5{stroke-miterlimit:10;}.cls-4{fill:#3a5298;}.cls-5{fill:none;stroke:#040000;}.cls-6{fill:#f49a9a;}.cls-7{fill:#020202;}.cls-8{fill:#262626;}</style></defs><g id="レイヤー_2" data-name="レイヤー 2"><g id="レイヤー_2-2" data-name="レイヤー 2"><circle class="cls-1" cx="115.5" cy="53.52" r="14.5"/><circle class="cls-1" cx="116.5" cy="107.52" r="10.5" transform="translate(5.73 220.92) rotate(-88.38)"/><ellipse class="cls-2" cx="70" cy="140.52" rx="35.5" ry="39"/><polygon class="cls-3" points="71.14 154.52 96.14 115.52 49.14 115.52 71.14 154.52"/><circle class="cls-1" cx="14.5" cy="83.52" r="14.5"/><ellipse class="cls-1" cx="69.65" cy="74.65" rx="56.1" ry="49.66" transform="translate(-6.64 6.8) rotate(-5.33)"/><circle class="cls-4" cx="71.07" cy="130.13" r="4.36"/><ellipse class="cls-4" cx="71.07" cy="141.69" rx="4.36" ry="8.22"/><line class="cls-5" x1="38.5" y1="138.52" x2="54.5" y2="138.52"/><path class="cls-2" d="M104.84,112.11l19.67,7.35s-5.94,33-37.19,30.94Z"/><line class="cls-5" x1="38.5" y1="157.52" x2="100.5" y2="157.52"/><rect class="cls-2" x="44" y="192.02" width="25" height="14" rx="4"/><rect class="cls-2" x="73" y="192.02" width="25" height="14" rx="4"/><polygon class="cls-2" points="58.25 177.02 81.25 177.02 78.25 198.02 61.25 198.02 58.25 177.02"/><circle class="cls-6" cx="102" cy="85.02" r="8.5"/><circle class="cls-6" cx="35" cy="93.02" r="8.5"/><circle class="cls-7" cx="45.44" cy="75.54" r="6.98"/><circle class="cls-7" cx="90.36" cy="66.69" r="7.14"/><circle class="cls-7" cx="70" cy="79.02" r="1.5"/><path d="M84.83,43.72a9.72,9.72,0,0,0,2.26,2.87,10,10,0,0,0,3.25,1.9,11.49,11.49,0,0,0,3.79.61,18.45,18.45,0,0,0,2-.14c.65-.1,1.29-.25,1.94-.38l.1.3c-.65.19-1.29.4-1.95.57s-1.33.28-2,.31A12.23,12.23,0,0,1,90,49.45a11.14,11.14,0,0,1-3.79-1.81,11,11,0,0,1-2.94-3.16Z"/><path d="M85.73,96.79A22.09,22.09,0,0,0,78.46,94a21.2,21.2,0,0,0-7.7-.12c-.64.08-1.25.29-1.88.43-.31.08-.63.14-.94.23l-.9.34c-.6.24-1.22.44-1.81.71l-1.73.88a10.48,10.48,0,0,0-1.67,1L60.2,98.55c-1,.78-2,1.64-3.06,2.43l-.25-.25c1-.89,2-1.79,3-2.63L61.49,97a11.24,11.24,0,0,1,1.68-1l1.76-1c.6-.29,1.24-.48,1.86-.73l.93-.35c.32-.1.65-.16,1-.25.65-.14,1.29-.35,2-.44a20.21,20.21,0,0,1,7.94.29A19.26,19.26,0,0,1,85.73,96.79Z"/><circle class="cls-1" cx="83.5" cy="140.52" r="10.5" transform="translate(-65.03 208.75) rotate(-83.95)"/><path class="cls-2" d="M80,131.21,77.75,152.1s-33.45,2.49-39.24-28.29Z"/><path class="cls-8" d="M50.5,43.52s-1.29,10.91,1.11,12c.77.36,16.89-16,23.89-21l10-8,34.07,20.72a1.5,1.5,0,0,0,2.07-1.79c-2.31-7.62-13-27.5-29.14-37.93s-48-10-56,1c-14,3-15.45,5.45-18,8-9,9-13,28-10,47,0,0,2.25,12.12,3,11,7.68-11.45,14-19,16-20,1.79-.9,1.24,9.7,4,9"/></g></g></svg>