<svg xmlns="http://www.w3.org/2000/svg" viewBox="0 0 556.36 561.5"><defs><style>.cls-1{fill:#506493;}.cls-2{fill:#f9f9f9;}.cls-13,.cls-14,.cls-2{stroke:#515050;}.cls-10,.cls-13,.cls-14,.cls-16,.cls-17,.cls-2,.cls-4,.cls-8{stroke-miterlimit:10;}.cls-3{fill:#dddbdb;}.cls-13,.cls-16,.cls-17,.cls-4,.cls-8{fill:none;}.cls-4{stroke:#dddbdb;stroke-width:7px;}.cls-5{fill:#adadad;}.cls-6{fill:#f49a9a;opacity:0.69;}.cls-7{fill:#b0deed;}.cls-8{stroke:#7ca8d8;stroke-width:6px;}.cls-9{fill:#020202;}.cls-10,.cls-17{stroke:#000;}.cls-11{fill:#5973e2;}.cls-12,.cls-14{fill:#dbd007;}.cls-15{fill:#fff;}.cls-16{stroke:#adbfe2;stroke-width:3px;}.cls-17{stroke-width:4px;}.cls-18{fill:#f90613;}.cls-19{fill:#515050;}</style></defs><g id="レイヤー_2" data-name="レイヤー 2"><g id="レイヤー_2-2" data-name="レイヤー 2"><path class="cls-1" d="M171.62,134.21c-28.09-8.33-58.35-21.52-61.15-42C105.48,55.88,187.84.29,268.68,0c86.21-.31,170.66,62.27,164,96-3.86,19.59-38.12,27.86-76,37C282.25,151,216.59,143.85,171.62,134.21Z"/><path class="cls-2" d="M78.78,463.09c1.35-4.63-.08-9.38-3.26-11.59-4.32-3-11.93-1.35-15.32,5.11h0L42.86,432.46l45-4.71-.36-29.91S5.82,400,1.36,411.33,10,442.82,36,464.73c-4.6,10.15-5.26,20.49-.42,25.06,7,6.59,23-.61,31.54-8.14A40.6,40.6,0,0,0,78.78,463.09Z"/><path class="cls-2" d="M477.58,463.09c-1.35-4.63.08-9.38,3.26-11.59,4.32-3,11.93-1.35,15.32,5.11h0l17.34-24.15-45-4.71.36-29.91S550.54,400,555,411.33s-8.61,31.49-34.61,53.4c4.6,10.15,5.26,20.49.43,25.06-7,6.59-23-.61-31.55-8.14A40.6,40.6,0,0,1,477.58,463.09Z"/><path class="cls-3" d="M103.68,558a12.37,12.37,0,0,1-12-11L56.72,180a9.84,9.84,0,0,1,10-10.95h424a9.69,9.69,0,0,1,9.82,10.94L460.86,547.06A12.56,12.56,0,0,1,448.68,558Z"/><path class="cls-4" d="M103.68,558a12.37,12.37,0,0,1-12-11L56.72,180a9.84,9.84,0,0,1,10-10.95h424a9.69,9.69,0,0,1,9.82,10.94L460.86,547.06A12.56,12.56,0,0,1,448.68,558Z"/><polygon points="328.31 207.6 378.18 200.5 330.06 215.4 328.31 207.6"/><path class="cls-5" d="M68.17,340.71a9.12,9.12,0,0,0-9.2,10l3,37a11.08,11.08,0,0,0,10.81,10l409,.66A11.69,11.69,0,0,0,493,388.44l4.88-38.24a8.59,8.59,0,0,0-8.73-9.91Z"/><polygon points="205.13 214.96 169.99 201.11 170.37 199.89 207.24 208.05 205.13 214.96"/><circle class="cls-6" cx="368.68" cy="285" r="20"/><circle class="cls-6" cx="183.68" cy="286" r="20"/><path class="cls-7" d="M322.54,417.71a5.24,5.24,0,0,0-5.18,5l-2.64,73a4.8,4.8,0,0,0,4.82,5h108a5.81,5.81,0,0,0,5.6-5l8.8-73.07a4.33,4.33,0,0,0-4.4-5Z"/><path class="cls-8" d="M322.54,417.71a5.24,5.24,0,0,0-5.18,5l-2.64,73a4.8,4.8,0,0,0,4.82,5h108a5.81,5.81,0,0,0,5.6-5l8.8-73.07a4.33,4.33,0,0,0-4.4-5Z"/><path class="cls-7" d="M120.94,419.48a4.55,4.55,0,0,0-4.59,5l10.18,124a5.54,5.54,0,0,0,5.41,5h114a5,5,0,0,0,5-5v-124a5,5,0,0,0-5-5Z"/><path class="cls-8" d="M120.94,419.48a4.55,4.55,0,0,0-4.59,5l10.18,124a5.54,5.54,0,0,0,5.41,5h114a5,5,0,0,0,5-5v-124a5,5,0,0,0-5-5Z"/><path class="cls-9" d="M231.72,305a185.67,185.67,0,0,1,22.73-4.39,200.42,200.42,0,0,1,23.13-1.78c3.88-.05,7.78,0,11.67.24a102.39,102.39,0,0,1,11.67,1.32,69.34,69.34,0,0,1,11.5,2.95A35,35,0,0,1,323,309.16l-2,2.65a37.61,37.61,0,0,0-10-4.13,78.89,78.89,0,0,0-10.89-2c-3.69-.45-7.42-.71-11.17-.84s-7.52-.18-11.29-.09-7.55.18-11.32.42-7.56.46-11.35.74c-7.56.6-15.15,1.33-22.71,2.1Z"/><path class="cls-9" d="M221.67,178.16a81.34,81.34,0,0,1,7.92,6.49c2.47,2.25,4.8,4.57,7.08,6.9a121.55,121.55,0,0,0,14,13A36.82,36.82,0,0,0,254.3,207a16.74,16.74,0,0,0,3.45,1.59,4.88,4.88,0,0,0,2.28.25,2.23,2.23,0,0,0,1.31-.93,10,10,0,0,0,1.53-3,25.87,25.87,0,0,0,1.11-4.11,85.55,85.55,0,0,0,1.2-9.29l.59-6.75,5.07,3.11h0c3.54,1.89,7.34,3.68,11.11,5.28a100.68,100.68,0,0,0,11.58,4.16,47.66,47.66,0,0,0,5.91,1.29,20.37,20.37,0,0,0,5.82.13,6,6,0,0,0,4.45-2.53,8.75,8.75,0,0,0,.88-5.58l1.18-.22a10.43,10.43,0,0,1-.25,6.76,7,7,0,0,1-2.36,2.84,10.67,10.67,0,0,1-3.25,1.55,23.31,23.31,0,0,1-6.74.79,51.06,51.06,0,0,1-6.57-.53,103.8,103.8,0,0,1-12.7-2.7c-4.18-1.15-8.22-2.42-12.38-4h0l5.66-3.64a55.29,55.29,0,0,1-.11,10.67,34,34,0,0,1-1.08,5.65,18.84,18.84,0,0,1-2.82,6,12.22,12.22,0,0,1-1.26,1.48,11.47,11.47,0,0,1-1.56,1.35,11.06,11.06,0,0,1-3.93,1.83,13.89,13.89,0,0,1-7.58-.35,24.7,24.7,0,0,1-5.62-2.59,39.41,39.41,0,0,1-4.58-3.25A74.68,74.68,0,0,1,236.9,205c-2.36-2.56-4.6-5.17-6.68-7.89a64,64,0,0,1-5.56-8.62,45.47,45.47,0,0,1-4-9.63Z"/><circle class="cls-10" cx="201.18" cy="251.5" r="20"/><circle class="cls-10" cx="353.18" cy="251.5" r="20"/><path class="cls-11" d="M181.68,150l-12-23s96-108,209-3l-18,26S272.68,119,181.68,150Z"/><path class="cls-12" d="M272.08,85.58a2.94,2.94,0,0,0-3.24,0l-20.47,14.87a3,3,0,0,0-1,3.08l7.82,24.07a2.94,2.94,0,0,0,2.62,1.9h25.3a2.94,2.94,0,0,0,2.62-1.9l7.82-24.07a3,3,0,0,0-1-3.08Z"/><path class="cls-13" d="M272.08,85.58a2.94,2.94,0,0,0-3.24,0l-20.47,14.87a3,3,0,0,0-1,3.08l7.82,24.07a2.94,2.94,0,0,0,2.62,1.9h25.3a2.94,2.94,0,0,0,2.62-1.9l7.82-24.07a3,3,0,0,0-1-3.08Z"/><circle class="cls-14" cx="270.18" cy="109.5" r="6"/><line class="cls-14" x1="270.68" y1="85" x2="270.68" y2="103.5"/><line class="cls-14" x1="294.06" y1="101.96" x2="275.68" y2="107.29"/><line class="cls-14" x1="273.97" y1="114" x2="284.68" y2="129"/><line class="cls-14" x1="266.68" y1="115" x2="255.68" y2="129"/><line class="cls-14" x1="264.68" y1="107.33" x2="247.68" y2="101.67"/><line class="cls-8" x1="118.54" y1="451.08" x2="250.94" y2="451.08"/><path class="cls-15" d="M150.18,442.5c-6.6,0-12-3.15-12-7s5.4-7,12-7h69c6.6,0,12,3.15,12,7s-5.4,7-12,7Z"/><path class="cls-16" d="M150.18,442.5c-6.6,0-12-3.15-12-7s5.4-7,12-7h69c6.6,0,12,3.15,12,7s-5.4,7-12,7Z"/><path class="cls-15" d="M343,444.21c-6.6,0-12-3.15-12-7s5.4-7,12-7h69c6.6,0,12,3.15,12,7s-5.4,7-12,7Z"/><path class="cls-16" d="M343,444.21c-6.6,0-12-3.15-12-7s5.4-7,12-7h69c6.6,0,12,3.15,12,7s-5.4,7-12,7Z"/><line class="cls-8" x1="378.54" y1="417.71" x2="373.54" y2="500.71"/><line class="cls-8" x1="182.94" y1="416.48" x2="187.44" y2="553.48"/><line class="cls-17" x1="182.94" y1="391" x2="182.94" y2="398.99"/><rect class="cls-18" x="175.44" y="398.99" width="15.01" height="15.01" rx="7.5"/><path class="cls-15" d="M180,400.56s-4.24,2.26-3,6,3.86-.27,1.74-2.26c0,0,.37-2,1.75-1S184.35,400.55,180,400.56Z"/><path d="M173.13,355.87l-8.24,29.44h-3.26l-6.72-24.46-6.66,24.46h-3.16l-8.34-29.44h3.73l6.46,23.62,6.39-23.62h3.42l6.38,23.83,6.45-23.83Z"/><path d="M201.22,385.31H182.06V355.87h19.16V359H185.7v8.57h15.13v3.17H185.7v11.36h15.52Z"/><path d="M210.25,385.31V355.87h8.67c1.33,0,2.46,0,3.39.08a12.48,12.48,0,0,1,2.87.51,7.05,7.05,0,0,1,2.53,1.3,5.47,5.47,0,0,1,1.56,2,6.64,6.64,0,0,1,.51,2.68c0,2.6-1.31,4.61-3.94,6v.16a8,8,0,0,1,4.66,2.62,7.5,7.5,0,0,1,1.68,5,8.05,8.05,0,0,1-3,6.63c-2,1.62-4.88,2.43-8.61,2.43ZM213.88,359v9h5.26c2.54,0,4.31-.41,5.33-1.24a4.58,4.58,0,0,0,1.52-3.78,3.63,3.63,0,0,0-1.21-2.86q-1.22-1.06-6.09-1.07Zm0,12v11.31h5.3q5.59,0,7.41-1.55a5.25,5.25,0,0,0,1.8-4.19,6.08,6.08,0,0,0-.66-2.94,4.64,4.64,0,0,0-2.08-1.92c-.94-.47-2.78-.71-5.5-.71Z"/><path d="M261.35,374.19v11.12h-3.63V355.87h8.12q5.69,0,8.41,2.4A8.11,8.11,0,0,1,277,364.7a8.77,8.77,0,0,1-3,6.85q-3,2.64-8.33,2.64Zm0-15.23v12.17H265c3,0,5.1-.58,6.34-1.73a6,6,0,0,0,1.87-4.6,5.32,5.32,0,0,0-1.82-4.36c-1.21-1-3.14-1.48-5.8-1.48Z"/><path d="M296.65,385.91q-6.27,0-9.85-4.05t-3.57-11.26q0-7.19,3.58-11.26t9.84-4.07q6.27,0,9.85,4.07t3.58,11.26q0,7.17-3.58,11.24T296.65,385.91Zm0-27.54a8.54,8.54,0,0,0-7.11,3.21c-1.7,2.13-2.54,5.14-2.54,9s.84,6.89,2.54,9a9.48,9.48,0,0,0,14.2,0c1.69-2.12,2.54-5.13,2.54-9s-.85-6.92-2.54-9A8.58,8.58,0,0,0,296.67,358.37Z"/><path d="M337.33,385.31H319V355.87h3.64v26.27h14.7Z"/><path d="M354.86,385.31H343.51v-2.72h3.87v-24h-3.87v-2.72h11.35v2.72H351v24h3.85Z"/><path d="M376.64,385.84q-6.6,0-10.34-4t-3.74-11.23q0-7.11,3.79-11.19t10.31-4.08a21.09,21.09,0,0,1,9.72,2.63v4.28h-.27a14.91,14.91,0,0,0-9.69-3.85,9.1,9.1,0,0,0-7.36,3.24q-2.71,3.23-2.72,9c0,3.8.93,6.77,2.77,8.92a9.21,9.21,0,0,0,7.35,3.21,14.06,14.06,0,0,0,4.73-.79,16,16,0,0,0,4.92-3.1h.27v4.3a29.81,29.81,0,0,1-5.83,2.23A18.49,18.49,0,0,1,376.64,385.84Z"/><path d="M413.89,385.31H394.73V355.87h19.16V359H398.36v8.57H413.5v3.17H398.36v11.36h15.53Z"/><path class="cls-19" d="M273.79,178c40.49.32,100.2-5.67,100.89-17.3.65-11.06-52-27.18-102-27.69-49.57-.5-102.42,14.31-102,25.38C171.12,170.12,231.45,177.65,273.79,178Z"/><path class="cls-18" d="M80.18,351.5c0-6.6,3.15-12,7-12s7,5.4,7,12V385c0,6.6-3.15,12-7,12s-7-5.4-7-12Z"/><path class="cls-18" d="M464.18,352.5c0-6.6,3.15-12,7-12s7,5.4,7,12V386c0,6.6-3.15,12-7,12s-7-5.4-7-12Z"/></g></g></svg>