<svg xmlns="http://www.w3.org/2000/svg" viewBox="0 0 1147 820"><defs><style>.cls-1{fill:#56a5ed;}.cls-2{fill:#77776d;}.cls-3{fill:#f9f9f9;}.cls-4{fill:#406639;}.cls-5{fill:#dddbdb;}.cls-13,.cls-19,.cls-22,.cls-26,.cls-28,.cls-6{fill:none;}.cls-6{stroke:#dddbdb;stroke-width:7px;}.cls-13,.cls-16,.cls-19,.cls-20,.cls-22,.cls-23,.cls-26,.cls-28,.cls-6,.cls-8{stroke-miterlimit:10;}.cls-7{fill:#adadad;}.cls-16,.cls-23,.cls-26,.cls-8{stroke:#000;}.cls-8{stroke-width:5px;}.cls-24,.cls-9{fill:#f49a9a;}.cls-9{opacity:0.69;}.cls-10{fill:#f2d7c2;}.cls-11{fill:#f90613;}.cls-12{fill:#b0deed;}.cls-13{stroke:#7ca8d8;stroke-width:6px;}.cls-14,.cls-25{fill:#020202;}.cls-15{fill:#506493;}.cls-17{fill:#5973e2;}.cls-18,.cls-20{fill:#dbd007;}.cls-19,.cls-20{stroke:#515050;}.cls-21{fill:#fff;}.cls-22{stroke:#adbfe2;stroke-width:3px;}.cls-23{fill:#fcfafa;}.cls-23,.cls-28{stroke-width:2px;}.cls-25{opacity:0.4;}.cls-26{stroke-width:4px;}.cls-27{fill:#fcfcfc;}.cls-28{stroke:#fff;}.cls-29{fill:#515050;}</style></defs><g id="レイヤー_2" data-name="レイヤー 2"><g id="レイヤー_2-2" data-name="レイヤー 2"><rect class="cls-1" width="1147" height="820" rx="72.89"/><path class="cls-2" d="M835.67,487.34s16.18-33.44,11.87-34.52,10.79-3.24,10.79-3.24V489Z"/><polygon class="cls-2" points="815.5 488.5 773.5 488.5 773.5 501.5 802.5 510.5 815.5 488.5"/><path class="cls-3" d="M205.1,657.09c1.35-4.63-.08-9.38-3.26-11.59-4.32-3-11.93-1.35-15.32,5.11h0l-17.34-24.15,45-4.72-.36-29.9s-81.66,2.17-86.12,13.48,8.61,31.5,34.61,53.41c-4.6,10.14-5.26,20.49-.42,25.06,7,6.59,23-.61,31.54-8.14A40.6,40.6,0,0,0,205.1,657.09Z"/><path class="cls-4" d="M860.5,469.5s110-57,87,74a89.27,89.27,0,0,0-9.5,4.55L871.5,526.5l-19-33Z"/><path class="cls-5" d="M230,752a12.37,12.37,0,0,1-12-11L183,374A9.84,9.84,0,0,1,193,363H617a9.69,9.69,0,0,1,9.82,10.94L587.18,741.06A12.56,12.56,0,0,1,575,752Z"/><path class="cls-6" d="M230,752a12.37,12.37,0,0,1-12-11L183,374A9.84,9.84,0,0,1,193,363H617a9.69,9.69,0,0,1,9.82,10.94L587.18,741.06A12.56,12.56,0,0,1,575,752Z"/><polygon points="454.62 401.6 504.5 394.5 456.38 409.4 454.62 401.6"/><path class="cls-7" d="M194.49,534.71a9.12,9.12,0,0,0-9.2,10l3,37a11.07,11.07,0,0,0,10.8,10l409,.65a11.67,11.67,0,0,0,11.27-9.9l4.88-38.24a8.59,8.59,0,0,0-8.73-9.91Z"/><polygon points="331.44 408.96 296.31 395.11 296.69 393.89 333.56 402.04 331.44 408.96"/><circle class="cls-8" cx="847" cy="593" r="3.5"/><circle class="cls-9" cx="495" cy="479" r="20"/><circle class="cls-10" cx="790.5" cy="608.5" r="14.5"/><circle class="cls-9" cx="310" cy="480" r="20"/><circle class="cls-10" cx="914" cy="601" r="14.5"/><path class="cls-11" d="M204.5,546.5c0-6.6,3.15-12,7-12s7,5.4,7,12V580c0,6.6-3.15,12-7,12s-7-5.4-7-12Z"/><path class="cls-11" d="M589.5,546.5c0-6.6,3.15-12,7-12s7,5.4,7,12V580c0,6.6-3.15,12-7,12s-7-5.4-7-12Z"/><path class="cls-12" d="M448.86,611.71a5.23,5.23,0,0,0-5.18,5l-2.64,73a4.8,4.8,0,0,0,4.82,5h108a5.81,5.81,0,0,0,5.6-5l8.8-73.07a4.33,4.33,0,0,0-4.4-5Z"/><path class="cls-13" d="M448.86,611.71a5.23,5.23,0,0,0-5.18,5l-2.64,73a4.8,4.8,0,0,0,4.82,5h108a5.81,5.81,0,0,0,5.6-5l8.8-73.07a4.33,4.33,0,0,0-4.4-5Z"/><path class="cls-12" d="M247.26,613.48a4.54,4.54,0,0,0-4.59,5l10.18,124a5.54,5.54,0,0,0,5.41,5h114a5,5,0,0,0,5-5v-124a5,5,0,0,0-5-5Z"/><path class="cls-13" d="M247.26,613.48a4.54,4.54,0,0,0-4.59,5l10.18,124a5.54,5.54,0,0,0,5.41,5h114a5,5,0,0,0,5-5v-124a5,5,0,0,0-5-5Z"/><path class="cls-14" d="M358,499a185.67,185.67,0,0,1,22.73-4.39,198.22,198.22,0,0,1,23.13-1.78c3.88-.05,7.78,0,11.67.24a102.65,102.65,0,0,1,11.67,1.32,69.34,69.34,0,0,1,11.5,2.95,34.75,34.75,0,0,1,10.57,5.85l-2,2.65a37.61,37.61,0,0,0-10-4.13,78.89,78.89,0,0,0-10.89-2c-3.69-.45-7.43-.72-11.17-.84s-7.52-.18-11.29-.09-7.55.18-11.32.42-7.56.45-11.35.74c-7.56.6-15.16,1.32-22.71,2.1Z"/><path class="cls-14" d="M348,372.16a80,80,0,0,1,7.91,6.49c2.47,2.25,4.81,4.57,7.09,6.9a119.93,119.93,0,0,0,14,13,36.82,36.82,0,0,0,3.65,2.44,16.74,16.74,0,0,0,3.45,1.59,4.87,4.87,0,0,0,2.28.25,2.23,2.23,0,0,0,1.31-.93,10,10,0,0,0,1.53-3,25.87,25.87,0,0,0,1.11-4.11,85.55,85.55,0,0,0,1.2-9.29l.59-6.75,5.07,3.11h0c3.54,1.88,7.34,3.68,11.11,5.28a100.68,100.68,0,0,0,11.58,4.16,47.66,47.66,0,0,0,5.91,1.29,20.37,20.37,0,0,0,5.82.13,6,6,0,0,0,4.45-2.53,8.75,8.75,0,0,0,.88-5.58l1.18-.22a10.43,10.43,0,0,1-.25,6.76,7,7,0,0,1-2.36,2.84,10.78,10.78,0,0,1-3.25,1.55,23.66,23.66,0,0,1-6.74.79,51.06,51.06,0,0,1-6.57-.53,105.7,105.7,0,0,1-12.7-2.7c-4.18-1.15-8.22-2.42-12.38-4h0l5.66-3.64a55.29,55.29,0,0,1-.11,10.67,34.18,34.18,0,0,1-1.08,5.65,18.84,18.84,0,0,1-2.82,6,13,13,0,0,1-1.26,1.48,11.47,11.47,0,0,1-1.56,1.35,11.14,11.14,0,0,1-3.93,1.83,13.93,13.93,0,0,1-7.59-.35,24.41,24.41,0,0,1-5.61-2.6,40.6,40.6,0,0,1-4.58-3.24,73.7,73.7,0,0,1-7.74-7.29c-2.36-2.55-4.6-5.16-6.69-7.88a64.89,64.89,0,0,1-5.55-8.62,45.47,45.47,0,0,1-4-9.63Z"/><path class="cls-15" d="M303.94,336.21c-28.09-8.34-58.35-21.52-61.16-42-5-36.36,77.38-92,158.22-92.24,86.21-.31,170.66,62.27,164,96-3.86,19.58-38.12,27.86-76,37C414.57,353,348.91,345.85,303.94,336.21Z"/><path class="cls-10" d="M745.39,573.13a5.47,5.47,0,0,0-6.64-3.08L696.25,584a5.08,5.08,0,0,0-3.25,6.32l8,25.46a5.59,5.59,0,0,0,6.38,3.7l31.24-6.86a5.18,5.18,0,0,1,6.09,3.78l1.58,6.3a4.85,4.85,0,0,0,6,3.51l8.36-2.32a4.36,4.36,0,0,0,2.93-6Z"/><path class="cls-10" d="M942.49,544.76a5.24,5.24,0,0,0-5.43,4.72l-4.12,46a4.51,4.51,0,0,0,4.56,5h9a5,5,0,0,0,5-5v-7a4.73,4.73,0,0,1,5-4.76l31,1.52a5.2,5.2,0,0,0,5.38-4.74l2.22-28a4.86,4.86,0,0,0-4.6-5.24Z"/><polygon class="cls-2" points="743.5 568.5 758.74 605.89 812.5 544.5 809.5 530.5 743.5 568.5"/><polygon class="cls-2" points="879.5 527.5 937.5 544.5 932.5 583.5 879.5 544.5 879.5 527.5"/><path class="cls-2" d="M879.5,544.5s21-56-49-62c-40-4-37,61.46-18,70.23S879.5,544.5,879.5,544.5Z"/><path class="cls-2" d="M818.5,642.5c-5.52,5.08-12.62,13.23-11,21,2.9,13.9,32.14,19.23,53,17,23.65-2.53,50.1-16.24,49.21-28.38-.45-6-7.5-10.45-13.37-13.26Z"/><path class="cls-3" d="M799.5,680.5s-51,8-39,22S799.5,680.5,799.5,680.5Z"/><path class="cls-3" d="M818.1,685s-42.62,29.14-25.77,36.62S818.1,685,818.1,685Z"/><ellipse class="cls-2" cx="768" cy="497" rx="6.5" ry="16.5"/><path class="cls-2" d="M867.79,444.33s-22,17-36-2c-2-2,21-4.69,21-4.69l-1,6.69S859.79,436.33,867.79,444.33Z"/><circle class="cls-16" cx="327.5" cy="445.5" r="20"/><circle class="cls-16" cx="479.5" cy="445.5" r="20"/><path class="cls-17" d="M308,344l-12-23s96-108,209-3l-18,26S399,313,308,344Z"/><path class="cls-18" d="M398.4,279.58a2.94,2.94,0,0,0-3.24,0l-20.47,14.87a3,3,0,0,0-1,3.08l7.82,24.07a2.94,2.94,0,0,0,2.61,1.9h25.31a3,3,0,0,0,2.62-1.9l7.82-24.07a3,3,0,0,0-1-3.08Z"/><path class="cls-19" d="M398.4,279.58a2.94,2.94,0,0,0-3.24,0l-20.47,14.87a3,3,0,0,0-1,3.08l7.82,24.07a2.94,2.94,0,0,0,2.61,1.9h25.31a3,3,0,0,0,2.62-1.9l7.82-24.07a3,3,0,0,0-1-3.08Z"/><circle class="cls-20" cx="396.5" cy="303.5" r="6"/><line class="cls-20" x1="397" y1="279" x2="397" y2="297.5"/><line class="cls-20" x1="420.38" y1="295.96" x2="402" y2="301.29"/><line class="cls-20" x1="400.29" y1="308" x2="411" y2="323"/><line class="cls-20" x1="393" y1="309" x2="382" y2="323"/><line class="cls-20" x1="391" y1="301.33" x2="374" y2="295.67"/><line class="cls-13" x1="244.86" y1="645.08" x2="377.26" y2="645.08"/><path class="cls-21" d="M276.5,636.5c-6.6,0-12-3.15-12-7s5.4-7,12-7h69c6.6,0,12,3.15,12,7s-5.4,7-12,7Z"/><path class="cls-22" d="M276.5,636.5c-6.6,0-12-3.15-12-7s5.4-7,12-7h69c6.6,0,12,3.15,12,7s-5.4,7-12,7Z"/><path class="cls-21" d="M469.36,638.21c-6.6,0-12-3.15-12-7s5.4-7,12-7h69c6.6,0,12,3.15,12,7s-5.4,7-12,7Z"/><path class="cls-22" d="M469.36,638.21c-6.6,0-12-3.15-12-7s5.4-7,12-7h69c6.6,0,12,3.15,12,7s-5.4,7-12,7Z"/><ellipse class="cls-10" cx="852.5" cy="593.5" rx="61" ry="54"/><ellipse class="cls-10" cx="847.5" cy="565.5" rx="29" ry="22"/><path d="M878,565.5a19.25,19.25,0,0,1-3.38,10.13,24.84,24.84,0,0,1-7.61,7.09,33,33,0,0,1-9.44,3.95A41.82,41.82,0,0,1,847.5,588a38.78,38.78,0,0,1-10.11-1.24,33.26,33.26,0,0,1-9.44-4,25.48,25.48,0,0,1-7.57-7.14A19.26,19.26,0,0,1,817,565.5,19.66,19.66,0,0,1,819.82,555a25.8,25.8,0,0,1,7.42-7.86A36.57,36.57,0,0,1,847.5,541a38,38,0,0,1,10.59,1.48,33.73,33.73,0,0,1,9.7,4.64,26.19,26.19,0,0,1,7.38,7.91A19.7,19.7,0,0,1,878,565.5Zm-3,0a16.28,16.28,0,0,0-2.9-8.52,21.83,21.83,0,0,0-6.74-6.19,30.13,30.13,0,0,0-8.57-3.56A39.12,39.12,0,0,0,847.5,546a35.89,35.89,0,0,0-9.3,1.13,30.65,30.65,0,0,0-8.58,3.61,22.46,22.46,0,0,0-6.7,6.24A16.29,16.29,0,0,0,820,565.5a16.55,16.55,0,0,0,2.36,8.87,22.59,22.59,0,0,0,6.54,7,30.8,30.8,0,0,0,8.83,4.2A37.79,37.79,0,0,0,847.5,587a35.18,35.18,0,0,0,9.79-1.37,30.54,30.54,0,0,0,8.83-4.25,23,23,0,0,0,6.5-7A16.42,16.42,0,0,0,875,565.5Z"/><polygon points="831.22 606.07 823.78 606.35 816.33 606.62 819.81 600.03 823.29 593.44 827.26 599.75 831.22 606.07"/><polygon points="878.22 606.07 870.78 606.35 863.33 606.62 866.81 600.03 870.29 593.44 874.26 599.75 878.22 606.07"/><rect class="cls-23" x="831" y="558" width="32" height="21" rx="8.89"/><circle class="cls-24" cx="880.5" cy="584.5" r="8.5"/><circle class="cls-24" cx="815.5" cy="585.5" r="8.5"/><circle class="cls-16" cx="847.5" cy="596.5" r="2"/><ellipse class="cls-25" cx="854.75" cy="626.75" rx="38.25" ry="11.75"/><path class="cls-14" d="M828,636c-10.82-4.42-12.86-7.59-12.72-9.67.4-5.82,18.63-12.74,31-6.66,7.76,3.81,12.85,12.55,12.41,13L858,633h0Z"/><path class="cls-21" d="M881.74,488.08a9.57,9.57,0,0,1-5.72-6.59,13.45,13.45,0,0,1-.51-4.56,12.16,12.16,0,0,1,1.24-4.53,9.61,9.61,0,0,1,3.16-3.67,10.15,10.15,0,0,1,4.59-1.68,15,15,0,0,1,4.73.24,15.3,15.3,0,0,1,4.45,1.61,8.8,8.8,0,0,1,4.69,8.48,10.82,10.82,0,0,1-1.23,4.75,8.43,8.43,0,0,1-3.53,3.67,6.73,6.73,0,0,1-2.55.74,8.08,8.08,0,0,1-2.51-.18,6.65,6.65,0,0,1-4.27-2.71,4.34,4.34,0,0,1-.67-2.6,5,5,0,0,1,.8-2.36A6.59,6.59,0,0,1,888,476l0,.06a7.49,7.49,0,0,0-2.45,3.23,4.15,4.15,0,0,0-.23,1.78,2.71,2.71,0,0,0,.63,1.42,5.74,5.74,0,0,0,6.35.91,5.52,5.52,0,0,0,2.2-2.56,8.88,8.88,0,0,0,.84-3.52,6.22,6.22,0,0,0-3.18-5.81,13.67,13.67,0,0,0-3.58-1.38,12.38,12.38,0,0,0-3.81-.35,7.41,7.41,0,0,0-6,3.75,11.35,11.35,0,0,0-1.25,7.63,9.31,9.31,0,0,0,4.37,6.6Z"/><path class="cls-21" d="M926.48,463.67a6.41,6.41,0,0,1,3.81,4.48,8.48,8.48,0,0,1-.68,6.18,6.76,6.76,0,0,1-2.29,2.47,7,7,0,0,1-3.24,1.07,10.63,10.63,0,0,1-3.25-.28,10.4,10.4,0,0,1-3-1.23,6.24,6.24,0,0,1-3.07-6.15,7.6,7.6,0,0,1,1-3.28,6,6,0,0,1,2.65-2.48,4.82,4.82,0,0,1,1.86-.44,5.67,5.67,0,0,1,1.76.22,4.69,4.69,0,0,1,2.92,2.13,3.18,3.18,0,0,1,.36,1.92,3.55,3.55,0,0,1-.69,1.62,4.2,4.2,0,0,1-2.61,1.57l0-.05a5,5,0,0,0,1.51-2.15,2.3,2.3,0,0,0,.1-1,1.38,1.38,0,0,0-.38-.74,3.5,3.5,0,0,0-3.61-.55,4.45,4.45,0,0,0-1.84,3.5,3.55,3.55,0,0,0,1.66,3.41,8.49,8.49,0,0,0,2.15,1,7.6,7.6,0,0,0,2.32.35,4.43,4.43,0,0,0,3.72-2,7.15,7.15,0,0,0,1.1-4.69,6,6,0,0,0-2.42-4.44Z"/><path class="cls-21" d="M920.35,483.86a8.86,8.86,0,0,1,3.64,7.23,11.67,11.67,0,0,1-2.79,8,9,9,0,0,1-3.72,2.57,9.34,9.34,0,0,1-4.53.44,13.9,13.9,0,0,1-4.21-1.33,14.37,14.37,0,0,1-3.63-2.5,8.78,8.78,0,0,1-2.43-4.06,9,9,0,0,1,.19-4.72,10.18,10.18,0,0,1,2.25-4,7.83,7.83,0,0,1,4.07-2.48,6.34,6.34,0,0,1,2.49-.06,7.68,7.68,0,0,1,2.22.76,6.21,6.21,0,0,1,3.22,3.48,4,4,0,0,1,0,2.53,4.7,4.7,0,0,1-1.29,1.93,6,6,0,0,1-3.87,1.56v-.06a6.93,6.93,0,0,0,2.91-2.35,3.77,3.77,0,0,0,.6-1.51,2.41,2.41,0,0,0-.25-1.37,5.24,5.24,0,0,0-5.35-2.23,5.16,5.16,0,0,0-2.51,1.74,8.2,8.2,0,0,0-1.54,2.92,5.59,5.59,0,0,0,1.45,5.8,11.91,11.91,0,0,0,2.84,2.06,11.35,11.35,0,0,0,3.29,1.2,6.73,6.73,0,0,0,6.15-1.9,10.41,10.41,0,0,0,2.9-6.46,8.51,8.51,0,0,0-2.3-6.91Z"/><path class="cls-21" d="M901.24,524.73a7.65,7.65,0,0,0,2-6.22,9.32,9.32,0,0,0-2.62-5.76,6,6,0,0,0-5.46-1.66,10,10,0,0,0-2.93,1.08,11.25,11.25,0,0,0-2.53,1.83,4.93,4.93,0,0,0-1.26,5.1,7.11,7.11,0,0,0,1.36,2.58,4.47,4.47,0,0,0,2.18,1.54,4.66,4.66,0,0,0,4.72-1.92,2.11,2.11,0,0,0,.23-1.18,3.31,3.31,0,0,0-.51-1.35,6.24,6.24,0,0,0-2.58-2.16l0-.05a5.38,5.38,0,0,1,3.53,1.36,4.4,4.4,0,0,1,1.21,1.77,3.81,3.81,0,0,1,0,2.34,5.72,5.72,0,0,1-2.95,3.22,7,7,0,0,1-2,.7,5.76,5.76,0,0,1-2.3-.05,7.2,7.2,0,0,1-3.75-2.28,9.31,9.31,0,0,1-2.06-3.66,7.58,7.58,0,0,1,2.06-8.08,13.52,13.52,0,0,1,7.16-3.48,8.53,8.53,0,0,1,4.15.41,8.19,8.19,0,0,1,3.4,2.36,10.57,10.57,0,0,1,2.52,7.31,8.06,8.06,0,0,1-3.35,6.55Z"/><path class="cls-21" d="M926,512.3a9.55,9.55,0,0,1,8.69-.86,13.75,13.75,0,0,1,4,2.23,12.26,12.26,0,0,1,3,3.63,9.71,9.71,0,0,1,1.16,4.7,10.16,10.16,0,0,1-1.28,4.72,16,16,0,0,1-6.83,6.41,9.3,9.3,0,0,1-5,.9,9.5,9.5,0,0,1-4.65-2,10.9,10.9,0,0,1-3.16-3.75,8.43,8.43,0,0,1-.95-5,6.55,6.55,0,0,1,.88-2.5,8.38,8.38,0,0,1,1.59-1.95,6.67,6.67,0,0,1,4.68-1.91,4.38,4.38,0,0,1,2.52,1,5.18,5.18,0,0,1,1.46,2,6.59,6.59,0,0,1,.14,4.48h-.06a7.52,7.52,0,0,0-1.22-3.88,4.31,4.31,0,0,0-1.31-1.22,2.77,2.77,0,0,0-1.53-.3,5.75,5.75,0,0,0-4.42,4.65,5.64,5.64,0,0,0,.82,3.28,8.89,8.89,0,0,0,2.39,2.72,6.21,6.21,0,0,0,6.57.77,13.88,13.88,0,0,0,3.2-2.12,12.45,12.45,0,0,0,2.49-2.91,7.38,7.38,0,0,0,.41-7.06,11.34,11.34,0,0,0-5.49-5.44,9.31,9.31,0,0,0-7.91-.25Z"/><ellipse class="cls-2" cx="856.5" cy="637.75" rx="41" ry="11.25" transform="translate(-30.64 43.36) rotate(-2.85)"/><line class="cls-13" x1="504.86" y1="611.71" x2="499.86" y2="694.71"/><line class="cls-13" x1="309.26" y1="610.48" x2="313.76" y2="747.48"/><line class="cls-26" x1="309.26" y1="585" x2="309.26" y2="592.99"/><rect class="cls-11" x="301.76" y="592.99" width="15.01" height="15.01" rx="7.5"/><path class="cls-21" d="M306.3,594.56s-4.23,2.26-3,6,3.86-.26,1.74-2.25c0,0,.37-2,1.75-1S310.67,594.54,306.3,594.56Z"/><path d="M299.45,549.87l-8.24,29.44H288l-6.72-24.46-6.66,24.46h-3.16l-8.34-29.44h3.73l6.46,23.62,6.39-23.62h3.42l6.38,23.83,6.45-23.83Z"/><path d="M327.54,579.31H308.38V549.87h19.16V553H312v8.57h15.14v3.17H312v11.36h15.53Z"/><path d="M336.57,579.31V549.87h8.67c1.33,0,2.46,0,3.39.08a12.48,12.48,0,0,1,2.87.51,7.05,7.05,0,0,1,2.53,1.3,5.47,5.47,0,0,1,1.56,2,6.62,6.62,0,0,1,.51,2.67c0,2.61-1.32,4.61-4,6v.16a8,8,0,0,1,4.67,2.62,7.48,7.48,0,0,1,1.68,5,8.07,8.07,0,0,1-3,6.64q-3,2.43-8.6,2.43ZM340.2,553v8.94h5.26q3.8,0,5.33-1.23a4.59,4.59,0,0,0,1.52-3.79A3.62,3.62,0,0,0,351.1,554Q349.89,553,345,553Zm0,11.95v11.31h5.29q5.61,0,7.42-1.55a5.25,5.25,0,0,0,1.8-4.19,6.08,6.08,0,0,0-.66-2.94,4.59,4.59,0,0,0-2.08-1.92q-1.43-.71-5.5-.71Z"/><path d="M387.67,568.19v11.12H384V549.87h8.12q5.68,0,8.41,2.4a8.11,8.11,0,0,1,2.72,6.43,8.76,8.76,0,0,1-3,6.85q-3,2.64-8.33,2.64Zm0-15.23v12.17h3.63c3,0,5.1-.58,6.34-1.73a6,6,0,0,0,1.87-4.6,5.3,5.3,0,0,0-1.82-4.36c-1.21-1-3.15-1.48-5.8-1.48Z"/><path d="M423,579.91q-6.27,0-9.85-4t-3.57-11.26q0-7.19,3.58-11.26t9.84-4.07q6.27,0,9.85,4.07t3.58,11.26q0,7.17-3.58,11.24T423,579.91Zm0-27.54a8.54,8.54,0,0,0-7.11,3.21c-1.7,2.13-2.54,5.14-2.54,9s.84,6.88,2.54,9a9.48,9.48,0,0,0,14.2,0q2.54-3.2,2.53-9t-2.53-9A8.56,8.56,0,0,0,423,552.37Z"/><path d="M463.65,579.31H445.31V549.87H449v26.27h14.7Z"/><path d="M481.18,579.31H469.83v-2.72h3.87v-24h-3.87v-2.72h11.35v2.72h-3.85v24h3.85Z"/><path d="M503,579.83q-6.6,0-10.35-4t-3.74-11.23q0-7.11,3.8-11.19T503,549.35A21,21,0,0,1,512.7,552v4.28h-.27a14.86,14.86,0,0,0-9.69-3.85,9.12,9.12,0,0,0-7.36,3.23q-2.72,3.24-2.72,9t2.77,8.92a9.21,9.21,0,0,0,7.35,3.21,14.36,14.36,0,0,0,4.73-.79,16.07,16.07,0,0,0,4.92-3.1h.27v4.3a29.64,29.64,0,0,1-5.83,2.22A18.49,18.49,0,0,1,503,579.83Z"/><path d="M540.21,579.31H521.05V549.87h19.16V553H524.68v8.57h15.14v3.17H524.68v11.36h15.53Z"/><path class="cls-27" d="M267.07,56.43,249.55,119h-6.93L228.34,67l-14.15,52h-6.72L189.74,56.43h7.93l13.74,50.18L225,56.43h7.26l13.58,50.63,13.69-50.63Z"/><path class="cls-27" d="M306.58,120.06q-11.7,0-18.15-6.33T282,95.82q0-11.5,6.19-18.29t16.39-6.78q9.3,0,14.42,5.56t5.13,15.85v4H289.44q0,8.46,4.59,13t12.68,4.55q8.06,0,16.1-5.61h.34v7.93Q313.15,120.06,306.58,120.06ZM289.44,90.67H317q-.33-14-12.82-14a14.14,14.14,0,0,0-10.21,3.74Q290,84.16,289.44,90.67Z"/><path class="cls-27" d="M349.22,116.49l-.63,2.49h-6.72V53.65h7.31V77.22q8-6.47,15.56-6.47a15.68,15.68,0,0,1,13.18,6.51q4.92,6.52,4.91,17.85t-5.93,18.18a18.54,18.54,0,0,1-14.69,7A24.44,24.44,0,0,1,349.22,116.49Zm0-33.33V111a28.52,28.52,0,0,0,11.53,2.78q6.9,0,10.73-4.82t3.84-13.61q0-17.68-12.66-17.68Q355.9,77.64,349.18,83.16Z"/><path class="cls-27" d="M445.6,95.36V119h-7.72V56.43h17.27q12.08,0,17.87,5.08t5.79,13.68a18.56,18.56,0,0,1-6.33,14.55q-6.33,5.63-17.7,5.62Zm0-32.37V88.84h7.72q9.51,0,13.47-3.67a12.7,12.7,0,0,0,4-9.77q0-6.11-3.85-9.26T454.57,63Z"/><path class="cls-27" d="M513.47,120.26q-10,0-15.81-6.62t-5.81-18.07q0-11.46,5.85-18.14t15.77-6.68q9.91,0,15.77,6.64t5.85,18.18q0,11.54-5.83,18.11T513.47,120.26Zm0-43.29q-6.77,0-10.42,4.78T499.4,95.57q0,8.93,3.65,13.69T513.47,114q6.76,0,10.42-4.78t3.65-13.69Q527.54,77,513.47,77Z"/><path class="cls-27" d="M560.54,119h-7.3V53.65h7.3Z"/><path class="cls-27" d="M590,62.7h-8.26V55.1H590ZM589.52,119h-7.31V72.08h7.31Z"/><path class="cls-27" d="M645.18,116.11q-8.41,3.94-14.69,4-10.83,0-16.83-6.35t-6-18.1q0-11.49,6.18-18.1t16.68-6.6a32.86,32.86,0,0,1,14.65,3.86v8.14h-.33q-7.76-5.68-14.48-5.69-7.18,0-11.17,4.78t-4,13.61q0,8.83,4,13.49t11.19,4.65q6.93,0,14.48-5.61h.33Z"/><path class="cls-27" d="M682.75,120.06q-11.7,0-18.16-6.33t-6.45-17.91q0-11.5,6.18-18.29t16.4-6.78q9.3,0,14.42,5.56t5.13,15.85v4H665.61q0,8.46,4.59,13t12.68,4.55q8,0,16.1-5.61h.33v7.93Q689.31,120.06,682.75,120.06ZM665.61,90.67h27.52q-.33-14-12.83-14a14.16,14.16,0,0,0-10.21,3.74Q666.19,84.16,665.61,90.67Z"/><path class="cls-27" d="M681.57,231.33H679v-7.74a19.87,19.87,0,0,1-4.51,5.29l-1.94-2.32a22.78,22.78,0,0,0,6.06-6.45h-5.41v-2.45H679v-2.83h-6.57v-2.45h9l1.42-4.65h-9.54v-2.44H679v-3.61h2.45c.69.08.73.34.13.77v2.84h5.67v2.44h-1.67l-1.81,4.65h4.13v2.45h-6.32v2.83h5.67v2.45h-5.67v1.16a20.11,20.11,0,0,1,5,2.71l-1.55,2.58a19.77,19.77,0,0,0-3.48-2.84ZM675,208.64l2.45-.78a13.8,13.8,0,0,1,1.55,3.48l-2.58.78A17.43,17.43,0,0,0,675,208.64Zm9,20.24q5.28-2.83,5.28-9.67V204.38l2.71.52,7-2.19,1.94,2.58c.17.51-.13.6-.91.25l-8.12,1.55v5.54h10.19v2.45H698.2V231.2h-2.58V215.08h-3.74V220a12.29,12.29,0,0,1-6.44,11.35Z"/><path class="cls-27" d="M718.47,229.78q-4.63,0-6.83-2.19-1.68-1.68-1.68-6.45V203.87h2.71c.77.17.86.51.26,1v16.24c0,2.15.39,3.61,1.16,4.38a5.74,5.74,0,0,0,4.25,1.42q5,0,10.19-5.67l1.93,2.45Q724.91,229.78,718.47,229.78Z"/><path class="cls-27" d="M746.61,226.43c-1.2,1.46-2.41,2.19-3.61,2.19q-3.22,0-4.77-3.74-.9-2.19-.9-9.41,0-5.16.51-10.44l2.71.64c1,.26,1.08.69.13,1.29a82.15,82.15,0,0,0-.52,8.64,29.84,29.84,0,0,0,.65,7.48c.43,1.46,1.07,2.19,1.93,2.19s1.76-.69,2.45-2.07a27.6,27.6,0,0,0,1.29-3.09l2.58,1.81A16.52,16.52,0,0,1,746.61,226.43Zm17.14-4.9-3.48.9q-1.54-9-6.31-14.05l2.71-1.55A26.37,26.37,0,0,1,763.75,221.53Z"/><path class="cls-27" d="M789.83,221.79l-2.45-1.68a86.75,86.75,0,0,0,5.29-7.22L782,214.83v9.53a1.59,1.59,0,0,0,1.8,1.81h11.86l-.39,2.84H783q-4,0-4-4.13v-9.54l-7.73,1.55-1-3,8.76-1.54v-8.51h2.71c.77.17.86.51.26,1V212l11.6-1.93,1-.65,2.32,2.32c.34.43.17.69-.52.77C793.83,216.29,791.63,219.38,789.83,221.79Z"/><path class="cls-27" d="M831.76,218.31l-12,1.28L822.22,230l-2.83.64L816.94,220l-13.15,1.55-.39-2.71,12.89-1.42L815,211.34l-8.76,1-.52-2.71,8.51-.9-1.29-5.93,2.71-.52c.77-.08.9.22.38.9l1,5.16,9.41-1.29.51,2.71L817.84,211l1.29,6.06,12.12-1.42Z"/><path class="cls-27" d="M861.19,227.33H838v-2.45h13.93l.25-9.67H841.59v-2.45h13.15l-.26,12.12h6.71Z"/><path class="cls-27" d="M872.7,219.85h-3V205.29h2.84c.85.08.9.43.13,1ZM886,217q0,9.66-9,13.92l-2.58-2.19q8.5-3.87,8.64-11.86V204h2.71c.85.17.94.51.25,1Z"/><path class="cls-27" d="M907.28,215.47H894.39v-2.84h26.42v2.84H910.24v1.68a17.32,17.32,0,0,1-5.8,13.4l-2.58-1.93a13.83,13.83,0,0,0,5.42-11.47ZM899,207.61v-2.84h17.14v2.84Z"/><path class="cls-27" d="M939,230.94h-2.58V219a54.1,54.1,0,0,1-8.51,5l-1.81-2.19q12.25-5.94,16.76-13l2.19,1.67q.78.65-.51.9a41.92,41.92,0,0,1-5.54,5.55Z"/><path class="cls-27" d="M796.19,87.13a5.89,5.89,0,0,1-3.05,5q-3.39,2.22-5.51,3.86a20.33,20.33,0,0,0-3.28,3.4h12.43V102H781.07V99.55a11.9,11.9,0,0,1,2.46-3.28,60.37,60.37,0,0,1,7.5-5.86c1.49-1,2.23-2.07,2.23-3.17a2.7,2.7,0,0,0-.82-2,4.22,4.22,0,0,0-3.05-.94,4.69,4.69,0,0,0-3.4,1.06,5.64,5.64,0,0,0-1.4,3.87h-3.17a8.1,8.1,0,0,1,2.11-5.39,7.76,7.76,0,0,1,5.75-2.11,7.3,7.3,0,0,1,5.39,1.87A4.86,4.86,0,0,1,796.19,87.13Z"/><path class="cls-27" d="M813.8,97.09H803.49V94.86L812.75,82h3.75V94.86h3.75v2.23H816.5V102h-2.7Zm0-2.23V84.78h-.23L806.3,94.86Z"/><path class="cls-27" d="M846.17,102.6a.41.41,0,0,0,.47-.47V95.21H836.8V93h9.84v-3H835.51v11.13h-2v-.94h-4v2.11h-2V80.68h8v7h7.15v-3.4h-5V82.09h5v-4h2.23c.62.08.66.32.11.71v3.28h6v2.22h-6v3.4h8.21v2.23H849v3h3.51v2.22H849V103a1.66,1.66,0,0,1-1.88,1.87h-2.46l-.47-2.22ZM829.53,88.88h4v-6h-4Zm0,9h4v-6.8h-4Zm9.73-.47,2-1.41a30.05,30.05,0,0,1,2.46,3.4L841.6,101A21.92,21.92,0,0,0,839.26,97.44Z"/><path class="cls-27" d="M870.7,88.53h-8.32v16.29H860V79.16H870.7Zm-2.34-5.62V81h-6v1.88Zm0,1.87h-6v1.88h6Zm9.49,5.74V102H875.5v-.94h-6.21V103H867V90.52ZM875.5,92.4h-6.21V95h6.21Zm0,4.45h-6.21V99.2h6.21Zm6.68,5.16V88.53h-8.43V79.16h10.78v23.67a1.66,1.66,0,0,1-1.88,1.87h-2.34l-.24-2.22h1.64A.41.41,0,0,0,882.18,102Zm0-19.1V81h-6.09v1.88Zm0,1.87h-6.09v1.88h6.09Z"/><path class="cls-27" d="M895.22,95.1a5.16,5.16,0,0,0,1.29,3.51,5.56,5.56,0,0,0,4.1,1.41,4.78,4.78,0,0,0,3.52-1.17,3.41,3.41,0,0,0,1-2.47,4,4,0,0,0-1-2.93q-1.05-1-5.16-.82V90.06q3.87-.12,4.93-1.18a2.9,2.9,0,0,0,.93-2.11,2.82,2.82,0,0,0-.93-2,4.62,4.62,0,0,0-3.29-.93,5.06,5.06,0,0,0-3.75,1.4,4.4,4.4,0,0,0-1.05,2.58h-3.16a7.5,7.5,0,0,1,2.22-4.34,7.8,7.8,0,0,1,5.74-2c2.43,0,4.18.55,5.28,1.64a5,5,0,0,1,1.52,3.63A4.5,4.5,0,0,1,906,90.06a5.5,5.5,0,0,1-1.87,1.17,4.62,4.62,0,0,1,2.23,1.17,5.28,5.28,0,0,1,1.52,3.87,5.78,5.78,0,0,1-1.76,4.22,7.46,7.46,0,0,1-5.51,1.87q-4.22,0-6.21-2a8.39,8.39,0,0,1-2.22-5.27Z"/><path class="cls-27" d="M927,84.78a4,4,0,0,0-2.93-1,5.24,5.24,0,0,0-3.86,1.52q-2,2-1.88,6a7.91,7.91,0,0,1,6.09-2.7,6.81,6.81,0,0,1,5,1.88,7,7,0,0,1,1.88,5.15,6.36,6.36,0,0,1-1.88,4.69,7.59,7.59,0,0,1-5.62,2,8.11,8.11,0,0,1-6-2.22q-2.46-2.46-2.46-8c0-3.67.9-6.41,2.7-8.2A7.88,7.88,0,0,1,924,81.62q3.51,0,5.15,1.64A9.38,9.38,0,0,1,931,86.19h-3A4.35,4.35,0,0,0,927,84.78Zm-6.91,7.5a4.63,4.63,0,0,0-1.41,3.4,4.13,4.13,0,0,0,1.17,3,5.43,5.43,0,0,0,4,1.52,5,5,0,0,0,3.63-1.4,4.47,4.47,0,0,0,1.17-3.29,4.64,4.64,0,0,0-1.4-3.39,4.77,4.77,0,0,0-3.52-1.29A5,5,0,0,0,920.1,92.28Z"/><path class="cls-27" d="M939,92.63l1-10.66h13.48v2.58h-11l-.7,6a7.47,7.47,0,0,1,5.51-2.1,7.13,7.13,0,0,1,5.27,2,6.36,6.36,0,0,1,1.88,4.69,6.8,6.8,0,0,1-2,5,8.2,8.2,0,0,1-6.09,2.23,7.27,7.27,0,0,1-5.39-2,9.61,9.61,0,0,1-2.46-4.45h3.05a6.14,6.14,0,0,0,1.52,2.81,4.49,4.49,0,0,0,3.28,1,5.26,5.26,0,0,0,3.87-1.29,4.6,4.6,0,0,0,1.4-3.39,4.29,4.29,0,0,0-1.17-3.17A4.74,4.74,0,0,0,947,90.64a5.7,5.7,0,0,0-4.81,2Z"/><path class="cls-27" d="M968,103.42h-2.69V80.8h18.4V103H981v-1.64H968ZM981,89.7V83H968V89.7Zm0,9.38V91.93H968v7.15Z"/><path class="cls-27" d="M999.41,85.25c.63.24.63.51,0,.82v19h-2.34V90.41a10.52,10.52,0,0,1-2.11,3l-1.64-2.1A32.57,32.57,0,0,0,998.83,78l2.58.93c.38.32.27.51-.36.59A31.85,31.85,0,0,1,999.41,85.25Zm9.14.94h-7.38V84h8V78.1h2.23c.62.08.66.32.11.71V84h8.44v2.23h-7.73q1.88,5.63,8.43,11.72l-1.64,2.34a37.55,37.55,0,0,1-7.5-10.19v6.79h3.4v2.23h-3.4v5.74h-2.34V99.08h-3V96.85h3V90.06a28.82,28.82,0,0,1-7.27,10.07l-1.75-2.22A33.4,33.4,0,0,0,1008.55,86.19Z"/><path class="cls-27" d="M1031,82.44h2.69v-4.1h2.23c.62.08.66.31.12.7v3.4h5.27v2.23H1036v3h7.26v2.23H1036v2.23h5.51v8.67a1.45,1.45,0,0,1-1.64,1.64h-1.76l-.47-2.23h1a.41.41,0,0,0,.47-.47V94.39H1036v10.43h-2.35V94.39h-2.81v8.09h-2.34V92.17h5.15V89.94h-7.38V87.71h7.38v-3H1030a27.45,27.45,0,0,1-1.52,2.46l-1.88-1.29a32.28,32.28,0,0,0,3.4-6.45l2.11.71c.31.31.19.5-.35.58Zm13.36,16.29V81.27h2.22c.63.08.67.31.12.7V98.73Zm4.57,3.75a.42.42,0,0,0,.47-.47V79.16h2.22c.63.08.67.31.12.7v23.2a1.45,1.45,0,0,1-1.64,1.64h-2.69l-.59-2.22Z"/><ellipse class="cls-3" cx="122" cy="218" rx="69" ry="64"/><path class="cls-3" d="M168,179c-1,4,37,1,36-14,0,0-7,29-22,32S168,179,168,179Z"/><path d="M67.94,204.32H96.1v29.26H93.37v-1.23H70.67v1.78H67.94Zm25.43,2.6H70.67v22.83h22.7Zm-3.56,11.76H83.25V224h8.34v2.6H72.31V224h8.2v-5.33H74.36v-2.6h6.15v-4H73.13v-2.6H90.9v2.6H83.25v4h6.56Zm-3.69.27a27.74,27.74,0,0,1,3.42,3.15l-1.78,1.77a19.2,19.2,0,0,0-3.28-3.28Z"/><path d="M120.06,218a17.66,17.66,0,0,1-7.65,9.43l-1.92-2.74a14.69,14.69,0,0,0,7.66-13.53h-8.48v22h-3.14V208.56h11.76v-4.78h3c.91.18,1,.54.14,1.09v3.69h12.3v21.6c0,1.83-.86,2.74-2.59,2.74h-3.28l-.55-3H130a.48.48,0,0,0,.55-.55V211.16h-9.3a20.36,20.36,0,0,1-.41,4.1,51.13,51.13,0,0,1,9.16,7.66l-2,3A107.21,107.21,0,0,0,120.06,218Z"/><path d="M155,220.46a29,29,0,0,1,2.74,2.18l-1.92,2.6a54.92,54.92,0,0,0-4.64-4.65v13.68H148.4V220.59a49,49,0,0,1-4.51,4l-1.37-2.87a39.67,39.67,0,0,0,9.71-10.26h-8.61v-2.59h4.78v-6.43H151c.73.09.77.36.14.82v5.61h2.59l.82-.82,1.78,1.77c.36.64.18,1-.55,1a31.45,31.45,0,0,1-4.78,7.11l2.05,1.23a26.33,26.33,0,0,0,2.73-3.15l2.46,1.92c.09.46-.13.59-.68.41C156.74,219,155.87,219.73,155,220.46Zm14.77-11.21h-5.47v8.06q0,10.8-9.43,16.27l-1.78-2.6q8.47-4.23,8.48-13.26v-8.47h-4.24v-2.6h15.17V223.6q0,10-4.92,10h-4l-.41-2.6h3.69q2.87,0,2.87-7.38Z"/><path class="cls-27" d="M686.15,295.79q0,7.86-10.57,9.15l-.65-2.71c5.76-.51,8.64-2.71,8.64-6.57v-3.74H686c.86.17.9.51.13,1Zm-7.87-1.68h-3v-5.93h27.2v5.93h-3v-3.48H678.28Zm24.11-15.6V281h-12v2.71h9.54v2.45h-22v-2.45h9.54V281h-12v-2.45h12v-3.09h2.83c.86.17.9.51.13,1v2.06ZM694.53,302h5q1.17,0,1.29-3.09l2.58.9c-.17,3.1-1.12,4.64-2.84,4.64H693.5a2.06,2.06,0,0,1-2.33-2.32V291.92h2.45c.86.17.91.51.13,1v8.12Q693.75,302,694.53,302Z"/><path class="cls-27" d="M728.59,285.22q-2.19,0-8.51,6.31v12.89h-2.57V293.85l-5.68,7.09-2.06-2.06,5.16-6.06a37.68,37.68,0,0,0,2.58-3.74V286l-5.68,1.93-.77-2.7,6.45-1.68v-7.61h2.32c.77.18.86.52.25,1v5.8l1.42.77c.78.34.69.73-.25,1.16l-1.17,2.45v.9q6.06-5.67,9.16-5.67,3.87,0,3.48,5.16l-.65,9.92c-.08,1.38.43,2.06,1.55,2.06a3.07,3.07,0,0,0,2.45-.9,12.52,12.52,0,0,0,1.93-3.35l2.2,1.81a15.88,15.88,0,0,1-2.45,3.61,5.35,5.35,0,0,1-3.87,1.67c-3.18,0-4.69-1.63-4.51-4.9l.64-9.79C730.1,286,729.63,285.22,728.59,285.22Z"/><path class="cls-27" d="M772.2,282.12a22.26,22.26,0,0,0-7.09.9,14.52,14.52,0,0,0-5.28,3.48,8.54,8.54,0,0,0-2.45,6.32,6.81,6.81,0,0,0,1.93,5q2.58,2.58,9.93,2.84l-1,2.83q-7.61-.39-10.57-3.35a9.85,9.85,0,0,1-3-7.22,11.17,11.17,0,0,1,4.77-9.54q-6.06.9-12.38,1.81l-.77-3q12.63-.9,25.39-3.09Z"/><path class="cls-27" d="M798.66,300a5.57,5.57,0,0,0,1.55-4.12,6.11,6.11,0,0,0-1.68-4.52c-1.11-1.11-2.88-1.67-5.28-1.67a11.16,11.16,0,0,0-6.58,1.67A35.88,35.88,0,0,0,781,297L778.81,295a168.67,168.67,0,0,0,14.05-15.47q-4.25.52-8.51.91l-.9-3a87,87,0,0,0,11.22-.64l1.16-.52,1.41,1.42c1,.86.73,1.42-.64,1.67q-3.87,4.39-7.74,8.64a20.16,20.16,0,0,1,4.52-.64q4.89,0,7.22,2.32a8,8,0,0,1,2.32,5.93,7.84,7.84,0,0,1-2.07,5.8,10.65,10.65,0,0,1-7.86,3.09q-4.51,0-6.57-2.06a5.46,5.46,0,0,1-1.68-4,3.7,3.7,0,0,1,1.16-2.7,4.08,4.08,0,0,1,3-1.29,5.25,5.25,0,0,1,3.87,1.54,10.31,10.31,0,0,1,2.45,5.68A5.85,5.85,0,0,0,798.66,300Zm-7.6-2.45a2.63,2.63,0,0,0-1.81-.9,2.13,2.13,0,0,0-1.55.51,2,2,0,0,0-.64,1.42,3,3,0,0,0,1,2.19,4.54,4.54,0,0,0,3.35,1.29h1.16C792.35,299.87,791.83,298.36,791.06,297.59Z"/><path class="cls-27" d="M825.38,287.28h-2.45q-.12,5.54-7.22,7l-.77-2.45c3.44-.77,5.2-2.28,5.28-4.51h-5.54V305.2H812.1V284.83h7l-1.54-3.35H810.3V279h12.89v-3.35H826c.68.08.72.34.13.77V279h12.76v2.45h-6.58L830,284.83h7.48v18.3c0,1.21-.56,1.81-1.68,1.81h-3.35l-.51-2.45h2.45a.45.45,0,0,0,.51-.52V287.28h-7v1.93c0,.69.3,1,.9,1h2.32c.35,0,.6-.51.78-1.54l2.45.77c-.18,2.15-.87,3.22-2.07,3.22h-4.77a1.94,1.94,0,0,1-2.19-2.19Zm-7,7h12.63v7.22H820.61v1.16h-2.19ZM829,281.48h-8.51l1.68,3.35h4.64Zm-8.38,14.82v3.1h8.25v-3.1Z"/><path class="cls-27" d="M856.48,302.75H850.3v2.32h-2.58V291.4h11.34v13.28h-2.58Zm-6.18-8.9v6.45h6.18v-6.45Zm15.85-5.67H854.81v.9h-2.58v-12h16.5v11.74h-2.58Zm-11.34-2.45h11.34v-6.19H854.81Zm16.37,17H865v2.32h-2.58V291.4h11.35v13.28h-2.58Zm-6.19-8.9v6.45h6.19v-6.45Z"/><path class="cls-27" d="M897.77,301.72a4.12,4.12,0,0,1-3,1.29q-2.46,0-4.9-2.84l1.67-2.32c1.38,1.37,2.41,2.06,3.1,2.06a1.62,1.62,0,0,0,1.16-.51q1.41-1.42,1.41-7.87c0-2.4-.25-3.86-.77-4.38a2.23,2.23,0,0,0-1.55-.39,28.16,28.16,0,0,0-3.22.26,79,79,0,0,1-6.44,16.37l-3-1a61.27,61.27,0,0,0,6.58-15.08c-1.9.26-3.74.47-5.55.64l-.26-2.83q2.32,0,6.45-.39c.77-2.66,1.42-5.37,1.93-8.12l2.71.9c1,.43,1,.82-.13,1.16q-.76,2.72-1.55,5.8a19.93,19.93,0,0,1,3.23-.26,3.71,3.71,0,0,1,2.71.91q1.55,1.55,1.54,7C900,297,899.23,300.26,897.77,301.72Zm6.06-20a28.34,28.34,0,0,1,7.22,13l-2.84,1.17q-2.31-8.39-6.7-12.51Zm4.25,1.55a49.84,49.84,0,0,0-5-3.74L904.6,278a35.52,35.52,0,0,1,5.16,3.61Zm-.9-8.25a35.52,35.52,0,0,1,5.16,3.61l-1.55,1.55a59.05,59.05,0,0,0-5.16-3.61Z"/><path class="cls-27" d="M933.64,284.83h8.64v2.45h-8.64v1.93h9.54v2.45h-9.54v2.06h13.28v2.45h-12.5q2.82,3.87,12.5,5.93l-.9,3q-10.18-2.46-13.28-7.74-3.09,6.59-13.54,8.12l-1-2.7q9.68-1.42,12.12-6.58H918v-2.45h13v-2.06h-9.15v-2.45h9.15v-1.93h-8.5v-2.45h8.5v-2.58h2.45c.69.09.73.35.13.77Zm-14.82-6.06h12.24v-3h2.84c.86.17.9.51.13,1v1.93h12.12v7h-2.58v-4.51H921.4v4.51h-2.58Z"/><path class="cls-27" d="M956.11,303.13a58.8,58.8,0,0,1-.52-8.38A73,73,0,0,1,957.14,278l2.83.51c.61.26.56.56-.12.9q-1.43,4.51-1.42,15.34a38.53,38.53,0,0,0,.64,7.87Zm19.46-17.27a94.22,94.22,0,0,1,0,9.8,31.68,31.68,0,0,1,7.48,4l-1.55,2.45a34.09,34.09,0,0,0-5.93-3.61,5.06,5.06,0,0,1-1.41,3.74,7.35,7.35,0,0,1-9,0,4.52,4.52,0,0,1-1.29-3.35,3.84,3.84,0,0,1,1-2.84,6.32,6.32,0,0,1,4.64-1.54,15.39,15.39,0,0,1,3.36.38,77.54,77.54,0,0,0,0-8.89l-9.54.64v-2.7l9.28-.52q-.14-3.6-.52-6.44h2.71c.94.17,1,.51.26,1,.08,1.8.17,3.56.26,5.28l7-.38v2.7Zm-6.06,11a3.56,3.56,0,0,0-2.57.77,1.83,1.83,0,0,0-.65,1.29,2.09,2.09,0,0,0,.52,1.55,3.67,3.67,0,0,0,2.7.9,3.23,3.23,0,0,0,2.58-.9,4,4,0,0,0,.78-3A13,13,0,0,0,969.51,296.82Z"/><path class="cls-27" d="M1007.45,283.8h10.31v2.45H996.62v6.44q0,8.13-5.29,12.12l-1.93-2.32q4.65-2.83,4.64-10.18v-6.06a15,15,0,0,1-3.74,2.45l-1-2.58A16.57,16.57,0,0,0,998,275.81l2.84.38q.51.39-.39.9l-.52.91h9.41l.52-.52,1.93,1.42c.34.43.17.69-.51.77Zm-11,0h8l2.84-3.35h-8.38A28.17,28.17,0,0,1,996.49,283.8Zm7,18.17h10.44a1.65,1.65,0,0,0,1.81-1.54l.26-1.94,3,.65-.51,2.71a2.88,2.88,0,0,1-3.1,2.57h-12.63c-1.8,0-2.71-.94-2.71-2.83V288.83h13v7.73a1.82,1.82,0,0,1-2.06,2.06h-3.09l-.26-2.45h2.32a.45.45,0,0,0,.51-.51v-4.39h-7.86v9.54C1002.55,301.59,1002.85,302,1003.45,302Z"/><path class="cls-27" d="M1025.66,285l-.39-2.71c2.15,0,4.3-.08,6.45-.26.43-1.54.94-3.61,1.55-6.18l2.32.77c.85.34.85.69,0,1l-1.16,4.12a29.73,29.73,0,0,0,4.51-.9l.64,2.71a38.56,38.56,0,0,1-5.93.9,89.62,89.62,0,0,1-6.06,14.31l-2.57-1.29a70.08,70.08,0,0,0,5.8-12.76A43.24,43.24,0,0,1,1025.66,285Zm18.95,2.83c.94.18,1,.52.26,1v7.47a43.8,43.8,0,0,1,6.7,2.84l-1.55,2.45a26.71,26.71,0,0,0-5.15-2.45,6.87,6.87,0,0,1-1.68,4,5.71,5.71,0,0,1-4.25,1.55c-2.41,0-4.08-.47-5-1.42a4.52,4.52,0,0,1-1.29-3.35,4.08,4.08,0,0,1,1.29-3,6.63,6.63,0,0,1,4.9-1.68,12.45,12.45,0,0,1,3.48.39v-7.87Zm-5.8,9.8a4,4,0,0,0-2.84.77,2.13,2.13,0,0,0-.64,1.55,1.93,1.93,0,0,0,.51,1.42,3.77,3.77,0,0,0,2.71.77,3.55,3.55,0,0,0,2.58-.77,4.37,4.37,0,0,0,1.16-3.22A10.78,10.78,0,0,0,1038.81,297.59Zm4.38-16.76q3.61,1.17,8.64,3.1l-1.16,2.7a81.73,81.73,0,0,0-8.51-3.22Z"/><path class="cls-27" d="M1068.24,300.43c-1.21,1.46-2.41,2.19-3.61,2.19q-3.23,0-4.77-3.74-.91-2.19-.91-9.41c0-3.44.18-6.92.52-10.44l2.71.64c1,.26,1.07.69.13,1.29a79.53,79.53,0,0,0-.52,8.64,30,30,0,0,0,.64,7.48c.43,1.46,1.08,2.19,1.94,2.19s1.76-.69,2.45-2.07a27.6,27.6,0,0,0,1.29-3.09l2.58,1.81A17.08,17.08,0,0,1,1068.24,300.43Zm17.14-4.9-3.48.9q-1.55-9-6.32-14.05l2.71-1.55A26.32,26.32,0,0,1,1085.38,295.53Z"/><rect class="cls-28" x="756" y="64" width="321" height="60"/><path class="cls-29" d="M400.11,372c40.49.32,100.2-5.67,100.88-17.3.66-11.07-52-27.18-102-27.69-49.57-.5-102.42,14.31-102,25.38C297.44,364.12,357.77,371.65,400.11,372Z"/><path class="cls-3" d="M616.51,482.64l145.7-83a3.54,3.54,0,0,0,.54-.39C767.65,395,835.92,348.36,872,373c12,8.2,24.36,24.62,21,42s-20.33,26.12-23.23,27.57a32.4,32.4,0,0,1-14.48-2.71,3.11,3.11,0,0,1-1.61-1.5c-1.78-3.9,6.07-8.08,8.86-9.42a5,5,0,0,0,1.16-.9,7.13,7.13,0,0,0,1.83-3.1A3.42,3.42,0,0,0,863.7,420c-6.61-2.32-21.1-6.16-37.2-2.5-8,3,8,8,18,13s1,13-24,12c-18.63-.75-27.27-4.82-30.46-6.85a3.4,3.4,0,0,0-3.46-.1L615.47,529.34a3.43,3.43,0,0,1-5.06-3.38l4.39-40.7Z"/></g></g></svg>