<svg xmlns="http://www.w3.org/2000/svg" xmlns:xlink="http://www.w3.org/1999/xlink" viewBox="0 0 308 404.69"><defs><style>.cls-1,.cls-11,.cls-12,.cls-16,.cls-2,.cls-3,.cls-5,.cls-7,.cls-8{fill:none;}.cls-2{stroke:#231815;stroke-width:2.16px;}.cls-3{stroke:#fff;stroke-width:1.2px;}.cls-15,.cls-4{fill:#b0deed;}.cls-11,.cls-12,.cls-16,.cls-18,.cls-5,.cls-7,.cls-8{stroke-miterlimit:10;}.cls-5{stroke:url(#_10_lpi_30_);}.cls-6{fill:url(#_6_lpi_10_3);}.cls-7{stroke:url(#_10_lpi_30_3);}.cls-8{stroke:url(#_10_lpi_30_5);}.cls-9{fill:url(#_6_lpi_10_3-3);}.cls-10{fill:url(#_6_lpi_10_3-5);}.cls-11,.cls-12,.cls-16,.cls-18{stroke:#7ca8d8;}.cls-11,.cls-18{stroke-width:4px;}.cls-12{stroke-width:2px;stroke-dasharray:11.87 11.87;}.cls-13,.cls-14,.cls-18{fill:#7ca8d8;}.cls-14,.cls-15{font-size:26.19px;font-family:MS-PGothic, MS PGothic;}.cls-16{stroke-width:6px;}.cls-17{fill:url(#_6_lpi_10_3-7);}</style><pattern id="_10_lpi_30_" data-name="10 lpi 30%" width="72" height="72" patternTransform="translate(253.6 -177.12) scale(0.49)" patternUnits="userSpaceOnUse" viewBox="0 0 72 72"><rect class="cls-1" width="72" height="72"/><line class="cls-2" x1="71.75" y1="68.4" x2="144.25" y2="68.4"/><line class="cls-2" x1="71.75" y1="54" x2="144.25" y2="54"/><line class="cls-2" x1="71.75" y1="39.6" x2="144.25" y2="39.6"/><line class="cls-2" x1="71.75" y1="25.2" x2="144.25" y2="25.2"/><line class="cls-2" x1="71.75" y1="10.8" x2="144.25" y2="10.8"/><line class="cls-2" x1="71.75" y1="61.2" x2="144.25" y2="61.2"/><line class="cls-2" x1="71.75" y1="46.8" x2="144.25" y2="46.8"/><line class="cls-2" x1="71.75" y1="32.4" x2="144.25" y2="32.4"/><line class="cls-2" x1="71.75" y1="18" x2="144.25" y2="18"/><line class="cls-2" x1="71.75" y1="3.6" x2="144.25" y2="3.6"/><line class="cls-2" x1="-0.25" y1="68.4" x2="72.25" y2="68.4"/><line class="cls-2" x1="-0.25" y1="54" x2="72.25" y2="54"/><line class="cls-2" x1="-0.25" y1="39.6" x2="72.25" y2="39.6"/><line class="cls-2" x1="-0.25" y1="25.2" x2="72.25" y2="25.2"/><line class="cls-2" x1="-0.25" y1="10.8" x2="72.25" y2="10.8"/><line class="cls-2" x1="-0.25" y1="61.2" x2="72.25" y2="61.2"/><line class="cls-2" x1="-0.25" y1="46.8" x2="72.25" y2="46.8"/><line class="cls-2" x1="-0.25" y1="32.4" x2="72.25" y2="32.4"/><line class="cls-2" x1="-0.25" y1="18" x2="72.25" y2="18"/><line class="cls-2" x1="-0.25" y1="3.6" x2="72.25" y2="3.6"/><line class="cls-2" x1="-72.25" y1="68.4" x2="0.25" y2="68.4"/><line class="cls-2" x1="-72.25" y1="54" x2="0.25" y2="54"/><line class="cls-2" x1="-72.25" y1="39.6" x2="0.25" y2="39.6"/><line class="cls-2" x1="-72.25" y1="25.2" x2="0.25" y2="25.2"/><line class="cls-2" x1="-72.25" y1="10.8" x2="0.25" y2="10.8"/><line class="cls-2" x1="-72.25" y1="61.2" x2="0.25" y2="61.2"/><line class="cls-2" x1="-72.25" y1="46.8" x2="0.25" y2="46.8"/><line class="cls-2" x1="-72.25" y1="32.4" x2="0.25" y2="32.4"/><line class="cls-2" x1="-72.25" y1="18" x2="0.25" y2="18"/><line class="cls-2" x1="-72.25" y1="3.6" x2="0.25" y2="3.6"/></pattern><pattern id="_6_lpi_10_3" data-name="6 lpi 10 % 3" width="72" height="72" patternTransform="matrix(0.57, -0.46, 0.57, 0.46, 185.87, -245.2)" patternUnits="userSpaceOnUse" viewBox="0 0 72 72"><rect class="cls-1" width="72" height="72"/><line class="cls-3" x1="71.75" y1="66" x2="144.25" y2="66"/><line class="cls-3" x1="71.75" y1="42" x2="144.25" y2="42"/><line class="cls-3" x1="71.75" y1="18" x2="144.25" y2="18"/><line class="cls-3" x1="71.75" y1="54" x2="144.25" y2="54"/><line class="cls-3" x1="71.75" y1="30" x2="144.25" y2="30"/><line class="cls-3" x1="71.75" y1="6" x2="144.25" y2="6"/><line class="cls-3" x1="-0.25" y1="66" x2="72.25" y2="66"/><line class="cls-3" x1="-0.25" y1="42" x2="72.25" y2="42"/><line class="cls-3" x1="-0.25" y1="18" x2="72.25" y2="18"/><line class="cls-3" x1="-0.25" y1="54" x2="72.25" y2="54"/><line class="cls-3" x1="-0.25" y1="30" x2="72.25" y2="30"/><line class="cls-3" x1="-0.25" y1="6" x2="72.25" y2="6"/><line class="cls-3" x1="-72.25" y1="66" x2="0.25" y2="66"/><line class="cls-3" x1="-72.25" y1="42" x2="0.25" y2="42"/><line class="cls-3" x1="-72.25" y1="18" x2="0.25" y2="18"/><line class="cls-3" x1="-72.25" y1="54" x2="0.25" y2="54"/><line class="cls-3" x1="-72.25" y1="30" x2="0.25" y2="30"/><line class="cls-3" x1="-72.25" y1="6" x2="0.25" y2="6"/></pattern><pattern id="_10_lpi_30_3" data-name="10 lpi 30%" width="72" height="72" patternTransform="translate(249.69 -142.45) scale(0.49)" patternUnits="userSpaceOnUse" viewBox="0 0 72 72"><rect class="cls-1" width="72" height="72"/><line class="cls-2" x1="71.75" y1="68.4" x2="144.25" y2="68.4"/><line class="cls-2" x1="71.75" y1="54" x2="144.25" y2="54"/><line class="cls-2" x1="71.75" y1="39.6" x2="144.25" y2="39.6"/><line class="cls-2" x1="71.75" y1="25.2" x2="144.25" y2="25.2"/><line class="cls-2" x1="71.75" y1="10.8" x2="144.25" y2="10.8"/><line class="cls-2" x1="71.75" y1="61.2" x2="144.25" y2="61.2"/><line class="cls-2" x1="71.75" y1="46.8" x2="144.25" y2="46.8"/><line class="cls-2" x1="71.75" y1="32.4" x2="144.25" y2="32.4"/><line class="cls-2" x1="71.75" y1="18" x2="144.25" y2="18"/><line class="cls-2" x1="71.75" y1="3.6" x2="144.25" y2="3.6"/><line class="cls-2" x1="-0.25" y1="68.4" x2="72.25" y2="68.4"/><line class="cls-2" x1="-0.25" y1="54" x2="72.25" y2="54"/><line class="cls-2" x1="-0.25" y1="39.6" x2="72.25" y2="39.6"/><line class="cls-2" x1="-0.25" y1="25.2" x2="72.25" y2="25.2"/><line class="cls-2" x1="-0.25" y1="10.8" x2="72.25" y2="10.8"/><line class="cls-2" x1="-0.25" y1="61.2" x2="72.25" y2="61.2"/><line class="cls-2" x1="-0.25" y1="46.8" x2="72.25" y2="46.8"/><line class="cls-2" x1="-0.25" y1="32.4" x2="72.25" y2="32.4"/><line class="cls-2" x1="-0.25" y1="18" x2="72.25" y2="18"/><line class="cls-2" x1="-0.25" y1="3.6" x2="72.25" y2="3.6"/><line class="cls-2" x1="-72.25" y1="68.4" x2="0.25" y2="68.4"/><line class="cls-2" x1="-72.25" y1="54" x2="0.25" y2="54"/><line class="cls-2" x1="-72.25" y1="39.6" x2="0.25" y2="39.6"/><line class="cls-2" x1="-72.25" y1="25.2" x2="0.25" y2="25.2"/><line class="cls-2" x1="-72.25" y1="10.8" x2="0.25" y2="10.8"/><line class="cls-2" x1="-72.25" y1="61.2" x2="0.25" y2="61.2"/><line class="cls-2" x1="-72.25" y1="46.8" x2="0.25" y2="46.8"/><line class="cls-2" x1="-72.25" y1="32.4" x2="0.25" y2="32.4"/><line class="cls-2" x1="-72.25" y1="18" x2="0.25" y2="18"/><line class="cls-2" x1="-72.25" y1="3.6" x2="0.25" y2="3.6"/></pattern><pattern id="_10_lpi_30_5" data-name="10 lpi 30%" width="72" height="72" patternTransform="translate(328.02 -130.23) scale(0.28 0.49)" patternUnits="userSpaceOnUse" viewBox="0 0 72 72"><rect class="cls-1" width="72" height="72"/><line class="cls-2" x1="71.75" y1="68.4" x2="144.25" y2="68.4"/><line class="cls-2" x1="71.75" y1="54" x2="144.25" y2="54"/><line class="cls-2" x1="71.75" y1="39.6" x2="144.25" y2="39.6"/><line class="cls-2" x1="71.75" y1="25.2" x2="144.25" y2="25.2"/><line class="cls-2" x1="71.75" y1="10.8" x2="144.25" y2="10.8"/><line class="cls-2" x1="71.75" y1="61.2" x2="144.25" y2="61.2"/><line class="cls-2" x1="71.75" y1="46.8" x2="144.25" y2="46.8"/><line class="cls-2" x1="71.75" y1="32.4" x2="144.25" y2="32.4"/><line class="cls-2" x1="71.75" y1="18" x2="144.25" y2="18"/><line class="cls-2" x1="71.75" y1="3.6" x2="144.25" y2="3.6"/><line class="cls-2" x1="-0.25" y1="68.4" x2="72.25" y2="68.4"/><line class="cls-2" x1="-0.25" y1="54" x2="72.25" y2="54"/><line class="cls-2" x1="-0.25" y1="39.6" x2="72.25" y2="39.6"/><line class="cls-2" x1="-0.25" y1="25.2" x2="72.25" y2="25.2"/><line class="cls-2" x1="-0.25" y1="10.8" x2="72.25" y2="10.8"/><line class="cls-2" x1="-0.25" y1="61.2" x2="72.25" y2="61.2"/><line class="cls-2" x1="-0.25" y1="46.8" x2="72.25" y2="46.8"/><line class="cls-2" x1="-0.25" y1="32.4" x2="72.25" y2="32.4"/><line class="cls-2" x1="-0.25" y1="18" x2="72.25" y2="18"/><line class="cls-2" x1="-0.25" y1="3.6" x2="72.25" y2="3.6"/><line class="cls-2" x1="-72.25" y1="68.4" x2="0.25" y2="68.4"/><line class="cls-2" x1="-72.25" y1="54" x2="0.25" y2="54"/><line class="cls-2" x1="-72.25" y1="39.6" x2="0.25" y2="39.6"/><line class="cls-2" x1="-72.25" y1="25.2" x2="0.25" y2="25.2"/><line class="cls-2" x1="-72.25" y1="10.8" x2="0.25" y2="10.8"/><line class="cls-2" x1="-72.25" y1="61.2" x2="0.25" y2="61.2"/><line class="cls-2" x1="-72.25" y1="46.8" x2="0.25" y2="46.8"/><line class="cls-2" x1="-72.25" y1="32.4" x2="0.25" y2="32.4"/><line class="cls-2" x1="-72.25" y1="18" x2="0.25" y2="18"/><line class="cls-2" x1="-72.25" y1="3.6" x2="0.25" y2="3.6"/></pattern><pattern id="_6_lpi_10_3-3" data-name="6 lpi 10 % 3" width="72" height="72" patternTransform="matrix(0.57, -0.46, 0.57, 0.46, 318.05, -212.84)" patternUnits="userSpaceOnUse" viewBox="0 0 72 72"><rect class="cls-1" width="72" height="72"/><line class="cls-3" x1="71.75" y1="66" x2="144.25" y2="66"/><line class="cls-3" x1="71.75" y1="42" x2="144.25" y2="42"/><line class="cls-3" x1="71.75" y1="18" x2="144.25" y2="18"/><line class="cls-3" x1="71.75" y1="54" x2="144.25" y2="54"/><line class="cls-3" x1="71.75" y1="30" x2="144.25" y2="30"/><line class="cls-3" x1="71.75" y1="6" x2="144.25" y2="6"/><line class="cls-3" x1="-0.25" y1="66" x2="72.25" y2="66"/><line class="cls-3" x1="-0.25" y1="42" x2="72.25" y2="42"/><line class="cls-3" x1="-0.25" y1="18" x2="72.25" y2="18"/><line class="cls-3" x1="-0.25" y1="54" x2="72.25" y2="54"/><line class="cls-3" x1="-0.25" y1="30" x2="72.25" y2="30"/><line class="cls-3" x1="-0.25" y1="6" x2="72.25" y2="6"/><line class="cls-3" x1="-72.25" y1="66" x2="0.25" y2="66"/><line class="cls-3" x1="-72.25" y1="42" x2="0.25" y2="42"/><line class="cls-3" x1="-72.25" y1="18" x2="0.25" y2="18"/><line class="cls-3" x1="-72.25" y1="54" x2="0.25" y2="54"/><line class="cls-3" x1="-72.25" y1="30" x2="0.25" y2="30"/><line class="cls-3" x1="-72.25" y1="6" x2="0.25" y2="6"/></pattern><pattern id="_6_lpi_10_3-5" data-name="6 lpi 10 % 3" width="72" height="72" patternTransform="matrix(0.32, -0.46, 0.32, 0.46, 379.29, -196.92)" patternUnits="userSpaceOnUse" viewBox="0 0 72 72"><rect class="cls-1" width="72" height="72"/><line class="cls-3" x1="71.75" y1="66" x2="144.25" y2="66"/><line class="cls-3" x1="71.75" y1="42" x2="144.25" y2="42"/><line class="cls-3" x1="71.75" y1="18" x2="144.25" y2="18"/><line class="cls-3" x1="71.75" y1="54" x2="144.25" y2="54"/><line class="cls-3" x1="71.75" y1="30" x2="144.25" y2="30"/><line class="cls-3" x1="71.75" y1="6" x2="144.25" y2="6"/><line class="cls-3" x1="-0.25" y1="66" x2="72.25" y2="66"/><line class="cls-3" x1="-0.25" y1="42" x2="72.25" y2="42"/><line class="cls-3" x1="-0.25" y1="18" x2="72.25" y2="18"/><line class="cls-3" x1="-0.25" y1="54" x2="72.25" y2="54"/><line class="cls-3" x1="-0.25" y1="30" x2="72.25" y2="30"/><line class="cls-3" x1="-0.25" y1="6" x2="72.25" y2="6"/><line class="cls-3" x1="-72.25" y1="66" x2="0.25" y2="66"/><line class="cls-3" x1="-72.25" y1="42" x2="0.25" y2="42"/><line class="cls-3" x1="-72.25" y1="18" x2="0.25" y2="18"/><line class="cls-3" x1="-72.25" y1="54" x2="0.25" y2="54"/><line class="cls-3" x1="-72.25" y1="30" x2="0.25" y2="30"/><line class="cls-3" x1="-72.25" y1="6" x2="0.25" y2="6"/></pattern><pattern id="_6_lpi_10_3-7" data-name="6 lpi 10 % 3" width="72" height="72" patternTransform="matrix(0.33, -0.33, 0.33, 0.33, 282.18, -182.57)" patternUnits="userSpaceOnUse" viewBox="0 0 72 72"><rect class="cls-1" width="72" height="72"/><line class="cls-3" x1="71.75" y1="66" x2="144.25" y2="66"/><line class="cls-3" x1="71.75" y1="42" x2="144.25" y2="42"/><line class="cls-3" x1="71.75" y1="18" x2="144.25" y2="18"/><line class="cls-3" x1="71.75" y1="54" x2="144.25" y2="54"/><line class="cls-3" x1="71.75" y1="30" x2="144.25" y2="30"/><line class="cls-3" x1="71.75" y1="6" x2="144.25" y2="6"/><line class="cls-3" x1="-0.25" y1="66" x2="72.25" y2="66"/><line class="cls-3" x1="-0.25" y1="42" x2="72.25" y2="42"/><line class="cls-3" x1="-0.25" y1="18" x2="72.25" y2="18"/><line class="cls-3" x1="-0.25" y1="54" x2="72.25" y2="54"/><line class="cls-3" x1="-0.25" y1="30" x2="72.25" y2="30"/><line class="cls-3" x1="-0.25" y1="6" x2="72.25" y2="6"/><line class="cls-3" x1="-72.25" y1="66" x2="0.25" y2="66"/><line class="cls-3" x1="-72.25" y1="42" x2="0.25" y2="42"/><line class="cls-3" x1="-72.25" y1="18" x2="0.25" y2="18"/><line class="cls-3" x1="-72.25" y1="54" x2="0.25" y2="54"/><line class="cls-3" x1="-72.25" y1="30" x2="0.25" y2="30"/><line class="cls-3" x1="-72.25" y1="6" x2="0.25" y2="6"/></pattern></defs><g id="レイヤー_2" data-name="レイヤー 2"><g id="レイヤー_2-2" data-name="レイヤー 2"><rect class="cls-4" x="22.61" y="82.4" width="72.33" height="239.71" rx="4"/><rect class="cls-5" x="22.61" y="82.4" width="72.33" height="239.71" rx="4"/><rect class="cls-6" x="21.76" y="83.34" width="72.2" height="239.48" rx="4"/><rect class="cls-4" x="194.63" y="298.87" width="72.33" height="22.72" rx="4"/><rect class="cls-7" x="194.63" y="298.87" width="72.33" height="22.72" rx="4"/><rect class="cls-4" x="91.03" y="381.46" width="41.29" height="22.72" rx="4"/><rect class="cls-8" x="91.03" y="381.46" width="41.29" height="22.72" rx="4"/><rect class="cls-9" x="194.76" y="298.87" width="72.2" height="22.97" rx="4"/><rect class="cls-10" x="91.16" y="381.46" width="41.17" height="22.97" rx="4"/><rect class="cls-11" x="22.12" y="82.4" width="72.33" height="239.71" rx="4"/><rect class="cls-12" x="194.63" y="83.36" width="72.33" height="239.71" rx="4"/><rect class="cls-11" x="194.63" y="278.35" width="72.33" height="44.23" rx="4"/><rect class="cls-11" x="92.49" y="345.79" width="39.83" height="24.35" rx="4"/><path class="cls-13" d="M31.77,56h-.05l-3.24,1.54-.66-3,4.51-2.1h3.29v17H31.77Z"/><path class="cls-13" d="M53.82,60.9c0,5.25-2.13,8.88-6.47,8.88S41,65.83,41,61s2.07-8.84,6.48-8.84S53.82,56.23,53.82,60.9ZM45,61c0,3.92.93,5.78,2.46,5.78s2.4-2,2.4-5.82-.83-5.76-2.41-5.76S45,57,45,61Z"/><path class="cls-13" d="M68.35,60.9c0,5.25-2.13,8.88-6.47,8.88s-6.35-4-6.37-8.77,2.08-8.84,6.49-8.84S68.35,56.23,68.35,60.9ZM59.5,61c0,3.92.94,5.78,2.46,5.78s2.41-2,2.41-5.82-.83-5.76-2.42-5.76S59.5,57,59.5,61Z"/><path class="cls-13" d="M79.26,57.22c0,3.56-2.26,5.42-4.72,5.42s-4.62-1.93-4.63-5.13c0-3,1.86-5.34,4.76-5.34S79.26,54.31,79.26,57.22Zm-6.38.2c0,1.78.59,3,1.75,3s1.67-1.14,1.67-3.07c0-1.73-.47-3-1.69-3S72.88,55.7,72.88,57.42Zm1.87,12.36,9.79-17.61h2.13L76.88,69.78ZM91.53,64.3c0,3.56-2.26,5.43-4.72,5.43s-4.62-2-4.63-5.15c0-3,1.86-5.35,4.76-5.35S91.53,61.39,91.53,64.3Zm-6.38.19c0,1.79.59,3.07,1.75,3.07s1.67-1.16,1.67-3.08c0-1.73-.47-3.07-1.69-3.07S85.15,62.77,85.15,64.49Z"/><path class="cls-13" d="M208.5,270.34v-2.41l2.19-2c3.72-3.34,5.54-5.25,5.57-7.24,0-1.38-.82-2.48-2.79-2.48a6.22,6.22,0,0,0-3.64,1.4l-1.12-2.85a9.43,9.43,0,0,1,5.56-1.75c3.87,0,6,2.25,6,5.33,0,2.86-2.05,5.16-4.53,7.34L214.14,267v.05h6.44v3.28Z"/><path class="cls-13" d="M235.61,261.76c0,5.25-2.13,8.87-6.47,8.87s-6.35-3.95-6.37-8.76,2.08-8.84,6.49-8.84S235.61,257.09,235.61,261.76Zm-8.85.09c0,3.92.94,5.77,2.46,5.77s2.41-1.94,2.41-5.81-.83-5.76-2.42-5.76S226.76,257.89,226.76,261.85Z"/><path class="cls-13" d="M246.52,258.08c0,3.56-2.26,5.42-4.72,5.42s-4.62-1.94-4.63-5.14c0-3,1.86-5.33,4.76-5.33S246.52,255.17,246.52,258.08Zm-6.38.19c0,1.79.59,3.05,1.74,3.05s1.68-1.14,1.68-3.06c0-1.73-.47-3.06-1.69-3.06S240.14,256.55,240.14,258.27ZM242,270.63l9.78-17.6h2.14l-9.79,17.6Zm16.78-5.47c0,3.55-2.26,5.43-4.72,5.43s-4.62-1.95-4.63-5.15c0-3,1.86-5.35,4.76-5.35S258.79,262.25,258.79,265.16Zm-6.38.19c0,1.78.59,3.06,1.75,3.06s1.67-1.15,1.67-3.08c0-1.73-.47-3.06-1.69-3.06S252.41,263.63,252.41,265.35Z"/><text class="cls-14" transform="translate(150.21 364.66)">金額</text><text class="cls-15" transform="translate(150.21 398.38)">件数</text><path class="cls-16" d="M99.09,35.65c3.42-3.37,48.15-46.21,91.79-28.28,4,1.66,17.81,7.33,31.36,26.66,42.27,60.26,15.67,156.37,9.29,177.86"/><path class="cls-13" d="M232.08,219.33a1.05,1.05,0,0,1-2-.38l-3.63-10.59-1.3-3.78L221.57,194c-.36-1,.23-1.71,1.31-1.5l10.89,2.17,3.93.78,10.89,2.17a1.07,1.07,0,0,1,.65,1.91L242,207.91l-2.62,3Z"/><path class="cls-11" d="M232.08,219.33a1.05,1.05,0,0,1-2-.38l-3.63-10.59-1.3-3.78L221.57,194c-.36-1,.23-1.71,1.31-1.5l10.89,2.17,3.93.78,10.89,2.17a1.07,1.07,0,0,1,.65,1.91L242,207.91l-2.62,3Z"/><path class="cls-4" d="M212.5,285.72h0L209.78,287l-.55-2.47,3.74-1.74h2.72v14.09H212.5Z"/><path class="cls-4" d="M230.75,289.77c0,4.34-1.76,7.34-5.35,7.34s-5.26-3.27-5.27-7.25,1.72-7.32,5.36-7.32S230.75,285.9,230.75,289.77Zm-7.32.07c0,3.25.77,4.78,2,4.78s2-1.61,2-4.81-.68-4.77-2-4.77S223.42,286.56,223.43,289.84Z"/><path class="cls-4" d="M239.79,286.72c0,2.95-1.87,4.49-3.91,4.49s-3.83-1.61-3.83-4.25,1.53-4.42,3.93-4.42S239.79,284.31,239.79,286.72Zm-5.29.16c0,1.48.49,2.53,1.45,2.53s1.38-1,1.38-2.54c0-1.43-.38-2.53-1.39-2.53S234.5,285.46,234.5,286.88Zm1.55,10.23,8.1-14.57h1.77l-8.1,14.57Zm13.89-4.53c0,2.94-1.87,4.49-3.91,4.49s-3.82-1.61-3.83-4.26,1.54-4.42,3.94-4.42S249.94,290.17,249.94,292.58Zm-5.28.16c0,1.48.49,2.53,1.44,2.53s1.39-.95,1.39-2.55c0-1.43-.39-2.53-1.4-2.53S244.66,291.32,244.66,292.74Z"/><rect class="cls-17" x="208.81" y="280.67" width="41.74" height="16.16" rx="4"/><line class="cls-18" y1="323.43" x2="308" y2="323.43"/></g></g></svg>