<svg xmlns="http://www.w3.org/2000/svg" viewBox="0 0 216.47 307.7"><defs><style>.cls-1{fill:#f2d7c2;}.cls-2{fill:#4f6fbf;}.cls-3{fill:#f9f7f7;}.cls-16,.cls-3,.cls-7{stroke:#5c5c5c;}.cls-12,.cls-13,.cls-15,.cls-16,.cls-3,.cls-7{stroke-miterlimit:10;}.cls-3,.cls-7{stroke-width:2px;}.cls-4{fill:#efafaf;}.cls-5{fill:#506493;}.cls-6{fill:#020202;}.cls-12,.cls-15,.cls-16,.cls-7{fill:none;}.cls-8{fill:#5c5c5c;}.cls-9{fill:#8a6c61;}.cls-10{fill:#5973e2;}.cls-11,.cls-13{fill:#dbd007;}.cls-12,.cls-13{stroke:#515050;}.cls-14{fill:#515050;}.cls-15{stroke:#fff;}</style></defs><g id="レイヤー_2" data-name="レイヤー 2"><g id="レイヤー_2-2" data-name="レイヤー 2"><circle class="cls-1" cx="33.68" cy="252.15" r="14.77"/><ellipse class="cls-2" cx="94.85" cy="215.58" rx="49.93" ry="54.85"/><polygon class="cls-3" points="95.87 235.27 129.22 180.42 66.51 180.42 95.87 235.27"/><circle class="cls-1" cx="16.21" cy="122.8" r="16.21"/><circle class="cls-1" cx="173.21" cy="120.8" r="16.21"/><ellipse class="cls-1" cx="94.37" cy="122.95" rx="78.9" ry="69.85"/><circle class="cls-4" cx="146.86" cy="131.69" r="11.95"/><circle class="cls-4" cx="41.86" cy="131.69" r="11.95"/><circle class="cls-5" cx="96.36" cy="200.98" r="6.14"/><ellipse class="cls-5" cx="96.36" cy="217.23" rx="6.14" ry="11.55"/><circle class="cls-6" cx="61.8" cy="109.81" r="10.9"/><circle class="cls-6" cx="131.38" cy="109.81" r="10.9"/><circle class="cls-6" cx="94.85" cy="125.47" r="3.52"/><path class="cls-2" d="M48.16,244.82H18.63s-8.44-46.41,33.75-59.07Z"/><line class="cls-7" x1="50.55" y1="212.77" x2="73.05" y2="212.77"/><line class="cls-7" x1="111.03" y1="212.77" x2="144.78" y2="212.77"/><line class="cls-7" x1="50.55" y1="239.49" x2="137.75" y2="239.49"/><rect class="cls-8" x="58.29" y="288.01" width="35.16" height="19.69" rx="4"/><rect class="cls-8" x="99.07" y="288.01" width="35.16" height="19.69" rx="4"/><polygon class="cls-2" points="78.33 266.92 110.68 266.92 106.46 296.45 82.55 296.45 78.33 266.92"/><path d="M75.88,136a28.87,28.87,0,0,0,9.61,5.15,31.59,31.59,0,0,0,10.64,1.28c.89,0,1.77-.16,2.66-.2l1.33-.09,1.33-.23c.88-.16,1.79-.24,2.66-.45l2.61-.76c.43-.14.88-.24,1.3-.41l1.26-.54,2.52-1.09c1.63-.83,3.21-1.78,4.83-2.68l.05.07c-1.52,1-3,2.16-4.57,3.17l-2.45,1.35-1.23.67c-.41.23-.86.37-1.29.56l-2.6,1.08c-.89.34-1.81.56-2.72.83l-1.38.38c-.46.1-.94.15-1.41.21l-1.42.16a8.58,8.58,0,0,1-1.43.08,26.84,26.84,0,0,1-11.06-2.37A29.07,29.07,0,0,1,75.85,136Z"/><path class="cls-9" d="M151.22,75C150.67,84.92,118,91.82,94,92S37,85.92,36.22,76C35.51,66.27,65.79,53.13,94,53,121.68,52.87,151.77,65.31,151.22,75Z"/><path class="cls-5" d="M55.65,52.17C44.73,48.93,33,43.8,31.88,35.85,29.94,21.72,62,.11,93.37,0c33.51-.12,66.34,24.2,63.75,37.32-1.5,7.61-14.82,10.82-29.54,14.38C98.65,58.68,73.13,55.91,55.65,52.17Z"/><path class="cls-10" d="M50.75,59.3,45,48.37S90.67-3,144.38,46.94L135.83,59.3S94,44.56,50.75,59.3Z"/><path class="cls-11" d="M95.56,28.29a3,3,0,0,0-3.24,0l-8,5.84a3,3,0,0,0-1,3.08l3.07,9.44A2.94,2.94,0,0,0,89,48.55h9.93a2.94,2.94,0,0,0,2.62-1.9l3.06-9.44a3,3,0,0,0-1-3.08Z"/><path class="cls-12" d="M95.56,28.29a3,3,0,0,0-3.24,0l-8,5.84a3,3,0,0,0-1,3.08l3.07,9.44A2.94,2.94,0,0,0,89,48.55h9.93a2.94,2.94,0,0,0,2.62-1.9l3.06-9.44a3,3,0,0,0-1-3.08Z"/><circle class="cls-13" cx="93.81" cy="39.05" r="2.85"/><line class="cls-13" x1="94.05" y1="27.4" x2="94.05" y2="36.2"/><line class="cls-13" x1="105.16" y1="35.46" x2="96.43" y2="38"/><line class="cls-13" x1="95.61" y1="41.19" x2="100.7" y2="48.32"/><line class="cls-13" x1="92.15" y1="41.66" x2="86.92" y2="48.32"/><line class="cls-13" x1="91.2" y1="38.02" x2="83.12" y2="35.32"/><path class="cls-6" d="M121.92,65.31C140,69.74,143.45,72.9,143.21,75c-.66,5.82-31.19,12.74-51.9,6.66C78.32,77.83,65.22,67,65.22,68c0,0,6.48.31,6.48.31Z"/><path class="cls-14" d="M94.35,71c17.61.14,43.57-2.65,43.87-8.08.29-5.16-22.63-12.68-44.35-12.91-21.55-.24-44.53,6.67-44.35,11.84C49.71,67.32,75.94,70.84,94.35,71Z"/><path class="cls-8" d="M135.45,244a7.93,7.93,0,0,1,4.06-9.56l7.35-3.41c3.49-1.62,6.08.19,5.75,4l-3.43,40c-.33,3.83-1.63,4-2.88.35Z"/><path class="cls-1" d="M200.28,171.06a6.74,6.74,0,0,1-1.69-6.49l16.27-48.68a4,4,0,0,0-2.53-5.06l-10.86-3.63a4,4,0,0,0-5.06,2.52l-16.63,49.77c-.7,2.09-1.51,3.79-1.81,3.78s-1.81-1.66-2.71-3.67l-19.57-44a4,4,0,0,0-5.28-2l-10.47,4.66a4,4,0,0,0-2,5.28L156,164.11a5.73,5.73,0,0,1-1.39,6.27S137.8,185,137.8,197.86c0,19.11,17.5,34.6,39.08,34.6S216,217,216,197.86C216,185.38,200.28,171.06,200.28,171.06Z"/><path class="cls-15" d="M200.28,171.06a6.74,6.74,0,0,1-1.69-6.49l16.27-48.68a4,4,0,0,0-2.53-5.06l-10.86-3.63a4,4,0,0,0-5.06,2.52l-16.63,49.77c-.7,2.09-1.51,3.79-1.81,3.78s-1.81-1.66-2.71-3.67l-19.57-44a4,4,0,0,0-5.28-2l-10.47,4.66a4,4,0,0,0-2,5.28L156,164.11a5.73,5.73,0,0,1-1.39,6.27S137.8,185,137.8,197.86c0,19.11,17.5,34.6,39.08,34.6S216,217,216,197.86C216,185.38,200.28,171.06,200.28,171.06Z"/><path class="cls-16" d="M152.86,192.28s26.29,0,24.9,23.51"/></g></g></svg>