<svg xmlns="http://www.w3.org/2000/svg" viewBox="0 0 404.17 309.59"><defs><style>.cls-1{fill:#7ca8d8;}.cls-2,.cls-4{fill:#fcfcfc;}.cls-3{fill:none;}.cls-3,.cls-4{stroke:#7ca8d8;stroke-miterlimit:10;stroke-width:3px;}</style></defs><g id="レイヤー_2" data-name="レイヤー 2"><g id="レイヤー_2-2" data-name="レイヤー 2"><path class="cls-1" d="M27.75,9.75V.46h5.18V3.05q4.43-1.06,8.38-2L43.6,5.18c-4.17.91-7.72,1.68-10.67,2.28-.1,1.12.31,1.68,1.22,1.68h4c.71,0,1.17-.76,1.37-2.28l5.18,1.82a9.26,9.26,0,0,1-1.06,2.9h5.48l-3.2-2.44L49.39,6.7l2,1.37,2.28-2.13h-9.6V1.52H57.61l.31-.45,3.81,3.35-6.55,6.7.76.46h2l.15-.31,4.27,1.83a16.42,16.42,0,0,1-1.22,3.51,22.33,22.33,0,0,1-1.53,2.89L55.33,18l1.06-1.83H54.57v4h5.79V25H54.57V29.4q1.36.15,7.61.15l-1.06,5.64h-7A9.76,9.76,0,0,1,46.49,32c-.1.31-.36.92-.76,1.83a12.13,12.13,0,0,1-1.22,2l-4.42-2.89L39.33,34l-3.81-3.81A23.27,23.27,0,0,1,29.89,36l-3.51-4.41c2.84-1.53,4.67-3.25,5.49-5.18H26.54V21.48h6.7v-2H31.87l-1.68,1.83-4.11-3c2.64-2,4.06-3.7,4.26-5A3.31,3.31,0,0,1,27.75,9.75Zm16.46,8.07h4.57a51.33,51.33,0,0,1-.46,8.38,2.9,2.9,0,0,0,1.37,1.37V16.15H43.45V11.73c-.61,1-1.89,1.52-3.81,1.52H36.29l-1.22,1.83h7.31V19.5H38.27v2H43.6v3.81C44,24.17,44.21,21.69,44.21,17.82ZM39,26.36l2.89,2.74a5,5,0,0,0,1.37-2.74Z"/><path class="cls-1" d="M66.75,23.77a75.65,75.65,0,0,0,7-8.69l.15-1.52-5.33,1.52L67.67,9.6l6.55-1.37.46-7,5.78.46c-.4,2.33-.66,4-.76,5l.92-.3,2.74,2.74-2.59,2.44q5.49-4.11,11-2.74a9,9,0,0,1,5.33,4,14.51,14.51,0,0,1,2.29,7.31q.15,10.82-14.48,12.8l-1.52-5.49a21.14,21.14,0,0,0,6.09-1.67,6.78,6.78,0,0,0,4-4.57,6.32,6.32,0,0,0-.61-4.42,5.2,5.2,0,0,0-3.19-2.44q-5-1.37-10.36,4.11-.31,5.19.15,15.85H73.61V24.07l-3.2,4Z"/><path class="cls-1" d="M111.09,1.22l5.79.46c-.31,3.15-.51,6.29-.61,9.44s-.21,6.45-.31,9.6v3.05a6.5,6.5,0,0,0,.61,3.19c.51,1.12,1.68,1.68,3.5,1.68a8.76,8.76,0,0,0,4.27-1.07q5.18-2.58,8.53-10l4.42,3.81a27.11,27.11,0,0,1-9.6,10.36q-6.56,4.11-12.8,2.13a5.13,5.13,0,0,1-3.5-2.89,13.84,13.84,0,0,1-.91-5.64Q110.63,13.41,111.09,1.22Z"/><path class="cls-1" d="M152.83,4.88a30,30,0,0,0-1.53,6.24c-.3,1.93-.51,3.71-.6,5.33a20.9,20.9,0,0,0,.3,4.73,13.16,13.16,0,0,0,.76,2.89c.41.91.86,1.37,1.37,1.37.71,0,1.42-.81,2.14-2.44l1.52-3.35,4.26,3.2a24.49,24.49,0,0,1-2.74,5.79c-1.42,2.24-2.79,3.6-4.11,4.11s-2.69.1-4.11-1.21A10.3,10.3,0,0,1,147,27.27q-3.51-8.84.3-24.07Zm13.71,3.35,4.72-2.44a65.81,65.81,0,0,1,6.86,17.82l-5.33,2A72.33,72.33,0,0,0,166.54,8.23Z"/><path class="cls-1" d="M215.44,17.82a29.65,29.65,0,0,1-2.89,7.32,17,17,0,0,0,5.94,5.33l-2.9,5.33A19.79,19.79,0,0,1,209,29.86a22.54,22.54,0,0,1-6.85,6.25l-3.35-5.18A18.29,18.29,0,0,0,203,28.18a11.45,11.45,0,0,0,2.74-3A30.55,30.55,0,0,1,203,19.2a45.57,45.57,0,0,1-2.13-6.4l4.57-2.29H199.6v-4h-.92V35.8h-5.33V29.55l-9.9,3.05-1.52-5.33,2.89-.76v-20h-2.44v-5h19.2v4h15.23A45,45,0,0,1,215.44,17.82ZM190.3,9.29h3V6.55h-3Zm0,7.77h3V14.17h-3Zm0,8.08,3-.92V21.94h-3Zm20.88-14.63h-5.34a34.8,34.8,0,0,0,1.22,4.88,20.25,20.25,0,0,0,2,4.72A15.24,15.24,0,0,0,210.41,16,25.81,25.81,0,0,0,211.18,10.51Z"/><path class="cls-1" d="M234.33,35.65H226l-1.82-5h7.46a3.13,3.13,0,0,0,2.74-1.07,8.38,8.38,0,0,0,.92-3.35l.3-3h-7.92l-.31,2.13-5.78-.76,1.21-8.38.77-6.55h11.73V5.79h-12.8V.91h18.13V14.32H228.85l-.46,4h13l-.61,7.16-.91,5.94Q239.06,35.65,234.33,35.65Zm14,0V.3H254V35.65Z"/><path class="cls-1" d="M281.86,34.28l-2.74-4.88q5.79-2,7.77-4.87,3.81-5.64,1.37-10.82Q286,8.68,280,8.84q0,15.84-6.71,21.63a5.43,5.43,0,0,1-5.63,1.22,8.4,8.4,0,0,1-4.57-4.42A14.8,14.8,0,0,1,263,14.32a16.7,16.7,0,0,1,9.45-9.14A18.64,18.64,0,0,1,281.71,4a13.37,13.37,0,0,1,8.23,3.66,13.54,13.54,0,0,1,4.42,9.14,15.67,15.67,0,0,1-2.75,10.51A19.61,19.61,0,0,1,281.86,34.28Zm-7-24.83q-6.86,2.43-7.62,9.9a8.68,8.68,0,0,0,.46,4.26c.6,1.73,1.42,2.34,2.43,1.83,1.32-.61,2.44-2.28,3.35-5A35.38,35.38,0,0,0,274.86,9.45Z"/><path class="cls-1" d="M301.06,3.81h4.72V.3H311V3.81h4.11V8.38H311v2.13h5.18v4.42h-1.07L314.31,18h1.83v4.41h-5v2.44h4.12V29.1h-4.12v6.55h-5.33V29.1H300.3V24.83h5.48V22.39h-6.09V18h2.89l-.45-3.05h-2V10.51h5.64V8.38h-4.72ZM307,14.93l.46,3.05h2l.45-3.05ZM328.18,6.4h-6.25v7.16h11.58a41.73,41.73,0,0,1-.76,7.77,19.48,19.48,0,0,1-1.83,5.79,16.18,16.18,0,0,0,4.42,3.65l-3.2,4.88a14.66,14.66,0,0,1-3.81-3.51A20.63,20.63,0,0,1,327,33.82,9,9,0,0,1,324.52,36l-2.59-4.26V35.8h-5.18V1.68h17.06v7q0,3.51-3.35,3.51h-4.72l-1.22-4.42h2.59c.91.2,1.27-.15,1.07-1.07ZM325,27.73a16.12,16.12,0,0,1-1.68-3.35,19.27,19.27,0,0,1-1.37-4.12V30.93a5.49,5.49,0,0,0,1.83-1.53A4.56,4.56,0,0,0,325,27.73Zm1.37-9.3a12.81,12.81,0,0,0,1.22,4,7.59,7.59,0,0,0,.91-4Z"/><path class="cls-1" d="M346,0l5.18,1.83a7.29,7.29,0,0,1-1.68,2.89h4.12V.15H359V4.72h11.43v5H359V13.1h14.62V18H338.69V13.1h3.5l-3.65-3.81a22.55,22.55,0,0,0,4.26-4.11A18.48,18.48,0,0,0,346,0Zm-3.2,35.65V19.8h26.51V35.65h-5.49V34H348.29v1.68ZM343,13.1h10.67V9.75h-7.47A14.19,14.19,0,0,1,343,13.1Zm5.34,16h15.53V24.68H348.29Z"/><path class="cls-2" d="M173.3,307.63a15.06,15.06,0,0,0,7.63-.06l215.22-69.42c2.09-.67,2.08-1.75,0-2.4L230.72,185.07a15.1,15.1,0,0,0-7.64,0L6,254c-2.09.66-2.09,1.73,0,2.38Z"/><path class="cls-3" d="M173.3,307.63a15.06,15.06,0,0,0,7.63-.06l215.22-69.42c2.09-.67,2.08-1.75,0-2.4L230.72,185.07a15.1,15.1,0,0,0-7.64,0L6,254c-2.09.66-2.09,1.73,0,2.38Z"/><path class="cls-2" d="M178.25,296.36a15,15,0,0,0,7.63-.05L401.1,226.89c2.1-.67,2.09-1.75,0-2.4l-165.4-50.68a15,15,0,0,0-7.64,0L10.92,242.71c-2.1.67-2.09,1.74,0,2.39Z"/><path class="cls-3" d="M178.25,296.36a15,15,0,0,0,7.63-.05L401.1,226.89c2.1-.67,2.09-1.75,0-2.4l-165.4-50.68a15,15,0,0,0-7.64,0L10.92,242.71c-2.1.67-2.09,1.74,0,2.39Z"/><path class="cls-2" d="M177.47,287.35a15,15,0,0,0,7.63-.05l215.22-69.42c2.09-.67,2.08-1.75,0-2.4L234.89,164.8a15,15,0,0,0-7.64,0L10.13,233.7c-2.09.67-2.09,1.74,0,2.38Z"/><path class="cls-3" d="M177.47,287.35a15,15,0,0,0,7.63-.05l215.22-69.42c2.09-.67,2.08-1.75,0-2.4L234.89,164.8a15,15,0,0,0-7.64,0L10.13,233.7c-2.09.67-2.09,1.74,0,2.38Z"/><path class="cls-2" d="M176.68,275.34a15,15,0,0,0,7.63,0l215.22-69.42c2.1-.68,2.09-1.76,0-2.4l-165.4-50.68a15,15,0,0,0-7.64,0L9.35,221.69c-2.1.67-2.09,1.74,0,2.38Z"/><path class="cls-3" d="M176.68,275.34a15,15,0,0,0,7.63,0l215.22-69.42c2.1-.68,2.09-1.76,0-2.4l-165.4-50.68a15,15,0,0,0-7.64,0L9.35,221.69c-2.1.67-2.09,1.74,0,2.38Z"/><path class="cls-2" d="M175.9,266.33a15,15,0,0,0,7.63-.05l215.22-69.42c2.09-.68,2.08-1.76,0-2.4L233.32,143.78a15.1,15.1,0,0,0-7.64,0L8.56,212.68c-2.09.67-2.09,1.74,0,2.38Z"/><path class="cls-3" d="M175.9,266.33a15,15,0,0,0,7.63-.05l215.22-69.42c2.09-.68,2.08-1.76,0-2.4L233.32,143.78a15.1,15.1,0,0,0-7.64,0L8.56,212.68c-2.09.67-2.09,1.74,0,2.38Z"/><path class="cls-2" d="M175.11,262.32a14.84,14.84,0,0,0,7.63-.06L398,192.85c2.1-.68,2.09-1.76,0-2.4l-165.4-50.68a15.1,15.1,0,0,0-7.64,0L7.78,208.67c-2.1.67-2.09,1.74,0,2.38Z"/><path class="cls-3" d="M175.11,262.32a14.84,14.84,0,0,0,7.63-.06L398,192.85c2.1-.68,2.09-1.76,0-2.4l-165.4-50.68a15.1,15.1,0,0,0-7.64,0L7.78,208.67c-2.1.67-2.09,1.74,0,2.38Z"/><path class="cls-2" d="M174.33,251.31a15,15,0,0,0,7.63-.06l215.22-69.41c2.09-.68,2.08-1.76,0-2.4L231.75,128.76a15.1,15.1,0,0,0-7.64,0L7,197.66c-2.09.67-2.09,1.74,0,2.38Z"/><path class="cls-3" d="M174.33,251.31a15,15,0,0,0,7.63-.06l215.22-69.41c2.09-.68,2.08-1.76,0-2.4L231.75,128.76a15.1,15.1,0,0,0-7.64,0L7,197.66c-2.09.67-2.09,1.74,0,2.38Z"/><path class="cls-2" d="M173.54,243.3a15,15,0,0,0,7.63-.06l215.22-69.41c2.1-.68,2.09-1.76,0-2.4L231,120.75a15.1,15.1,0,0,0-7.64,0L6.21,189.65c-2.1.67-2.09,1.74,0,2.38Z"/><path class="cls-3" d="M173.54,243.3a15,15,0,0,0,7.63-.06l215.22-69.41c2.1-.68,2.09-1.76,0-2.4L231,120.75a15.1,15.1,0,0,0-7.64,0L6.21,189.65c-2.1.67-2.09,1.74,0,2.38Z"/><path class="cls-2" d="M172.76,236.29a15,15,0,0,0,7.63-.06l215.22-69.41c2.09-.68,2.08-1.76,0-2.4L230.18,113.73a15.21,15.21,0,0,0-7.64,0L5.42,182.64c-2.09.66-2.09,1.74,0,2.38Z"/><path class="cls-3" d="M172.76,236.29a15,15,0,0,0,7.63-.06l215.22-69.41c2.09-.68,2.08-1.76,0-2.4L230.18,113.73a15.21,15.21,0,0,0-7.64,0L5.42,182.64c-2.09.66-2.09,1.74,0,2.38Z"/><path class="cls-2" d="M172,230.28a15,15,0,0,0,7.63-.06l215.22-69.41c2.1-.68,2.09-1.76,0-2.4L229.4,107.72a15.21,15.21,0,0,0-7.64,0L4.64,176.63c-2.1.66-2.09,1.74,0,2.38Z"/><path class="cls-3" d="M172,230.28a15,15,0,0,0,7.63-.06l215.22-69.41c2.1-.68,2.09-1.76,0-2.4L229.4,107.72a15.21,15.21,0,0,0-7.64,0L4.64,176.63c-2.1.66-2.09,1.74,0,2.38Z"/><path class="cls-2" d="M171.19,223.27a15,15,0,0,0,7.63-.06L394,153.8c2.09-.68,2.08-1.76,0-2.4L228.61,100.71a15.21,15.21,0,0,0-7.64,0L3.85,169.62c-2.09.66-2.09,1.73,0,2.38Z"/><path class="cls-3" d="M171.19,223.27a15,15,0,0,0,7.63-.06L394,153.8c2.09-.68,2.08-1.76,0-2.4L228.61,100.71a15.21,15.21,0,0,0-7.64,0L3.85,169.62c-2.09.66-2.09,1.73,0,2.38Z"/><path class="cls-2" d="M170.4,215.26a15,15,0,0,0,7.63-.06l215.22-69.42c2.1-.67,2.09-1.75,0-2.4L227.83,92.7a15.1,15.1,0,0,0-7.64,0L3.07,161.61c-2.1.66-2.09,1.73,0,2.38Z"/><path class="cls-3" d="M170.4,215.26a15,15,0,0,0,7.63-.06l215.22-69.42c2.1-.67,2.09-1.75,0-2.4L227.83,92.7a15.1,15.1,0,0,0-7.64,0L3.07,161.61c-2.1.66-2.09,1.73,0,2.38Z"/><path class="cls-2" d="M209.39,134.69a11.35,11.35,0,0,0,5.73,0l53-17.09c1.57-.51,1.57-1.32,0-1.8l-39.85-12.21a11.35,11.35,0,0,0-5.73,0l-53.48,17c-1.57.5-1.57,1.3,0,1.78Z"/><path class="cls-3" d="M209.39,134.69a11.35,11.35,0,0,0,5.73,0l53-17.09c1.57-.51,1.57-1.32,0-1.8l-39.85-12.21a11.35,11.35,0,0,0-5.73,0l-53.48,17c-1.57.5-1.57,1.3,0,1.78Z"/><path class="cls-2" d="M79.11,172.91a11.09,11.09,0,0,0,5.72,0l36.1-11.64c1.57-.51,1.56-1.32,0-1.8l-26.74-8.19a11.31,11.31,0,0,0-5.72,0L52,162.83c-1.58.5-1.57,1.3,0,1.78Z"/><path class="cls-3" d="M79.11,172.91a11.09,11.09,0,0,0,5.72,0l36.1-11.64c1.57-.51,1.56-1.32,0-1.8l-26.74-8.19a11.31,11.31,0,0,0-5.72,0L52,162.83c-1.58.5-1.57,1.3,0,1.78Z"/><line class="cls-4" x1="271.11" y1="127.37" x2="344.2" y2="151.37"/><line class="cls-4" x1="257.11" y1="130.37" x2="330.2" y2="154.37"/><line class="cls-4" x1="243.11" y1="133.37" x2="316.2" y2="157.37"/><line class="cls-4" x1="229.11" y1="136.37" x2="302.2" y2="160.37"/><line class="cls-4" x1="215.11" y1="139.37" x2="288.2" y2="163.37"/><line class="cls-4" x1="148.11" y1="124.97" x2="274.2" y2="166.37"/><line class="cls-4" x1="138.11" y1="130.97" x2="264.2" y2="172.37"/><line class="cls-4" x1="123.11" y1="133.67" x2="256.2" y2="177.37"/><line class="cls-4" x1="113.11" y1="138.97" x2="239.2" y2="180.37"/><line class="cls-4" x1="152.11" y1="164.37" x2="225.2" y2="188.37"/><line class="cls-4" x1="138.11" y1="167.37" x2="211.2" y2="191.37"/><line class="cls-4" x1="124.11" y1="170.37" x2="197.2" y2="194.37"/><line class="cls-4" x1="110.11" y1="173.37" x2="183.2" y2="197.37"/><line class="cls-4" x1="96.11" y1="176.37" x2="169.2" y2="200.37"/></g></g></svg>