<svg xmlns="http://www.w3.org/2000/svg" viewBox="0 0 484.77 343.29"><defs><style>.cls-1{fill:#7ca8d8;}.cls-2{fill:#94b5d3;}.cls-3{fill:#b0deed;}.cls-4{fill:#fff;}</style></defs><g id="レイヤー_2" data-name="レイヤー 2"><g id="レイヤー_2-2" data-name="レイヤー 2"><rect class="cls-1" x="34.27" y="137.29" width="118.5" height="34.84" rx="4"/><rect class="cls-2" x="366.27" y="313.29" width="118.5" height="20.84" rx="2"/><rect class="cls-2" x="366.27" y="286.29" width="118.5" height="18.84" rx="2"/><rect class="cls-2" x="366.27" y="260.29" width="118.5" height="18.84" rx="2"/><rect class="cls-2" x="366.27" y="236.29" width="118.5" height="18.84" rx="2"/><rect class="cls-2" x="366.27" y="209.29" width="118.5" height="18.84" rx="2"/><rect class="cls-2" x="392.27" y="178.29" width="64.5" height="18.84" rx="2"/><rect class="cls-1" x="280.27" y="110.29" width="41.5" height="21.84" rx="4"/><rect class="cls-3" x="274.27" y="103.29" width="53.5" height="8.84" rx="4"/><rect class="cls-3" x="22.77" y="172.29" width="142" height="170" rx="3"/><rect class="cls-1" x="215.77" y="137.29" width="108" height="205" rx="3"/><path class="cls-4" d="M61,146.77a28.93,28.93,0,0,1,4.72-.35,9,9,0,0,1,4.78.91,3.51,3.51,0,0,1,1.93,3.19A3.65,3.65,0,0,1,69.74,154V154A4,4,0,0,1,73,158a4.29,4.29,0,0,1-1.68,3.44c-1.18,1-3.14,1.47-6.36,1.47a28.18,28.18,0,0,1-4-.24ZM64.59,153h1.19c1.94,0,3-.8,3-2s-.94-1.88-2.59-1.88a8,8,0,0,0-1.55.11Zm0,7.16a8.83,8.83,0,0,0,1.4.07c1.67,0,3.13-.65,3.13-2.35s-1.45-2.27-3.28-2.27H64.59Z"/><path class="cls-4" d="M82,158.57l-1.14,4.15H77.12l4.94-16.17h4.79l5,16.17H87.94l-1.24-4.15Zm4.11-2.73-1-3.43c-.28-1-.57-2.17-.82-3.12h0c-.23,1-.48,2.18-.74,3.12l-1,3.43Z"/><path class="cls-4" d="M96.87,162.72V146.55h4.26l3.36,5.93a46.3,46.3,0,0,1,2.65,5.55h.06a62.65,62.65,0,0,1-.3-6.76v-4.71h3.36v16.17h-3.83L103,156.49a59.32,59.32,0,0,1-2.81-5.71h-.08c.11,2.14.16,4.43.16,7.07v4.86Z"/><path class="cls-4" d="M116.26,146.55h3.63v7.15H120c.35-.61.74-1.2,1.11-1.77l3.66-5.38h4.5l-5.36,6.88,5.64,9.29h-4.26l-4-7-1.37,1.69v5.28h-3.63Z"/><path class="cls-1" d="M132.77,301.79a3.79,3.79,0,0,1-4,3.5H59.27a3.53,3.53,0,1,1,0-7h69.5A3.78,3.78,0,0,1,132.77,301.79Z"/><rect class="cls-4" x="59.27" y="304.29" width="71.5" height="38" rx="4"/><rect class="cls-4" x="40.27" y="186.29" width="19.5" height="19.82" rx="4"/><rect class="cls-4" x="86.27" y="186.29" width="19.5" height="19.82" rx="4"/><rect class="cls-4" x="233.27" y="153.29" width="15.74" height="16" rx="4"/><rect class="cls-4" x="263.27" y="153.29" width="15.74" height="16" rx="4"/><rect class="cls-4" x="293.27" y="153.29" width="15.74" height="16" rx="4"/><rect class="cls-4" x="233.27" y="180.29" width="15.74" height="16" rx="4"/><rect class="cls-4" x="263.27" y="180.29" width="15.74" height="16" rx="4"/><rect class="cls-4" x="293.27" y="180.29" width="15.74" height="16" rx="4"/><rect class="cls-4" x="233.27" y="207.29" width="15.74" height="16" rx="4"/><rect class="cls-4" x="263.27" y="207.29" width="15.74" height="16" rx="4"/><rect class="cls-4" x="293.27" y="207.29" width="15.74" height="16" rx="4"/><rect class="cls-4" x="233.27" y="234.29" width="15.74" height="16" rx="4"/><rect class="cls-4" x="263.27" y="234.29" width="15.74" height="16" rx="4"/><rect class="cls-4" x="293.27" y="234.29" width="15.74" height="16" rx="4"/><rect class="cls-4" x="233.27" y="260.29" width="15.74" height="16" rx="4"/><rect class="cls-4" x="263.27" y="260.29" width="15.74" height="16" rx="4"/><rect class="cls-4" x="293.27" y="260.29" width="15.74" height="16" rx="4"/><rect class="cls-4" x="233.27" y="286.29" width="15.74" height="16" rx="4"/><rect class="cls-4" x="263.27" y="286.29" width="15.74" height="16" rx="4"/><rect class="cls-4" x="293.27" y="286.29" width="15.74" height="16" rx="4"/><rect class="cls-4" x="233.27" y="312.29" width="15.74" height="16" rx="4"/><rect class="cls-4" x="263.27" y="312.29" width="15.74" height="16" rx="4"/><rect class="cls-4" x="293.27" y="312.29" width="15.74" height="16" rx="4"/><rect class="cls-4" x="130.27" y="186.29" width="19.5" height="19.82" rx="4"/><rect class="cls-4" x="40.27" y="217.29" width="19.5" height="19.82" rx="4"/><rect class="cls-4" x="86.27" y="217.29" width="19.5" height="19.82" rx="4"/><rect class="cls-4" x="130.27" y="217.29" width="19.5" height="19.82" rx="4"/><rect class="cls-4" x="40.27" y="248.29" width="19.5" height="19.82" rx="4"/><rect class="cls-4" x="86.27" y="248.29" width="19.5" height="19.82" rx="4"/><rect class="cls-4" x="130.27" y="248.29" width="19.5" height="19.82" rx="4"/><path class="cls-1" d="M94.27,342.29c.83,0,1.5-1.8,1.5-4V306.54c0-2.2-.67-4-1.5-4s-1.5,1.8-1.5,4v31.75C92.77,340.49,93.45,342.29,94.27,342.29Z"/><path class="cls-1" d="M130.27,343.29c.83,0,1.5-1.8,1.5-4V307.54c0-2.2-.67-4-1.5-4s-1.5,1.8-1.5,4v31.75C128.77,341.49,129.45,343.29,130.27,343.29Z"/><path class="cls-1" d="M59.27,342.29c.83,0,1.5-1.8,1.5-4V306.54c0-2.2-.67-4-1.5-4s-1.5,1.8-1.5,4v31.75C57.77,340.49,58.45,342.29,59.27,342.29Z"/><rect class="cls-3" x="210.27" y="130.29" width="118.5" height="8.84" rx="4"/><path class="cls-1" d="M386.27,334.29c-.27,0-.5-1.8-.5-4V212.54c0-2.2.23-4,.5-4s.5,1.8.5,4V330.29C386.77,332.49,386.55,334.29,386.27,334.29Z"/><path class="cls-1" d="M405.27,334.29c-.27,0-.5-1.8-.5-4V212.54c0-2.2.23-4,.5-4s.5,1.8.5,4V330.29C405.77,332.49,405.55,334.29,405.27,334.29Z"/><path class="cls-1" d="M425.27,334.29c-.27,0-.5-1.8-.5-4V212.54c0-2.2.23-4,.5-4s.5,1.8.5,4V330.29C425.77,332.49,425.55,334.29,425.27,334.29Z"/><path class="cls-1" d="M465.27,334.29c-.27,0-.5-1.8-.5-4V212.54c0-2.2.23-4,.5-4s.5,1.8.5,4V330.29C465.77,332.49,465.55,334.29,465.27,334.29Z"/><path class="cls-1" d="M445.27,334.29c-.27,0-.5-1.8-.5-4V212.54c0-2.2.23-4,.5-4s.5,1.8.5,4V330.29C445.77,332.49,445.55,334.29,445.27,334.29Z"/><rect class="cls-3" x="366.27" y="304.29" width="118.5" height="8.84" rx="2"/><rect class="cls-3" x="366.27" y="278.29" width="118.5" height="8.84" rx="2"/><rect class="cls-3" x="366.27" y="253.29" width="118.5" height="8.84" rx="2"/><rect class="cls-3" x="366.27" y="227.29" width="118.5" height="10" rx="2"/><rect class="cls-3" x="366.27" y="196.29" width="118.5" height="14.84" rx="2"/><rect class="cls-3" x="386.27" y="169.29" width="77.5" height="10.84" rx="2"/><polygon class="cls-3" points="84.03 67.18 89.27 75.7 101.19 68.36 92.28 53.88 84.03 67.18"/><polygon class="cls-3" points="193.03 67.18 198.27 75.7 210.19 68.36 201.28 53.88 193.03 67.18"/><polygon class="cls-3" points="67.79 88.91 60.73 81.83 50.82 91.71 62.81 103.75 67.79 88.91"/><polygon class="cls-3" points="416.31 100.88 422.42 108.79 433.51 100.25 423.13 86.78 416.31 100.88"/><polygon class="cls-3" points="240.65 34.54 232.06 29.42 224.89 41.45 239.49 50.15 240.65 34.54"/><polygon class="cls-3" points="365.74 56.7 356.37 60.2 361.25 73.32 377.18 67.38 365.74 56.7"/><polygon class="cls-1" points="6.24 95.25 0 103.06 10.94 111.8 21.55 98.51 6.24 95.25"/><polygon class="cls-1" points="152.57 31.63 142.85 34.01 146.18 47.6 162.69 43.57 152.57 31.63"/><polygon class="cls-1" points="191.57 95.63 181.85 98 185.18 111.61 201.69 107.57 191.57 95.63"/><polygon class="cls-1" points="60.57 15.63 50.85 18 54.18 31.61 70.69 27.57 60.57 15.63"/><polygon class="cls-1" points="459.34 129.65 456.94 139.35 470.52 142.72 474.61 126.22 459.34 129.65"/><polygon class="cls-1" points="301.62 39.8 303.73 49.58 317.41 46.62 313.82 30 301.62 39.8"/><polygon class="cls-1" points="361.62 107.8 363.73 117.58 377.41 114.61 373.82 98 361.62 107.8"/><polygon class="cls-1" points="361.62 9.8 363.73 19.58 377.41 16.61 373.82 0 361.62 9.8"/><polygon class="cls-1" points="456.79 60.86 447.52 57.11 442.27 70.09 458.03 76.46 456.79 60.86"/></g></g></svg>