<svg xmlns="http://www.w3.org/2000/svg" viewBox="0 0 466.77 420.86"><defs><style>.cls-1{fill:#7ca8d8;}.cls-2{fill:#94b5d3;}.cls-3{fill:#b0deed;}.cls-4{fill:#fff;}</style></defs><g id="レイヤー_2" data-name="レイヤー 2"><g id="レイヤー_2-2" data-name="レイヤー 2"><path class="cls-1" d="M58.7,88.8V83.57c2.93-.28,5-.84,6.07-1.68,1.68-1,2.79-2.85,3.35-5.65H74v43.13H66.87V88.8Z"/><path class="cls-1" d="M87.6,99.9q-.22-10.68,4.18-17.59,4-6.48,10.47-6.49a11,11,0,0,1,9.63,5.45q4,5.45,4.19,14.65.63,10.68-3.56,17.38-4,6.48-10.26,6.49a12.14,12.14,0,0,1-10-5.24Q88,109.12,87.6,99.9Zm13.81,13.19c2.51.42,4.54-.77,6.07-3.56a24.84,24.84,0,0,0,2.1-9.21,31.66,31.66,0,0,0-1.26-11.94c-1.26-3.62-3-5.58-5.23-5.86A5.52,5.52,0,0,0,97,85.45a23.62,23.62,0,0,0-2.52,9.84A29.58,29.58,0,0,0,96,107.44C97.22,110.79,99,112.67,101.41,113.09Z"/><path class="cls-1" d="M124.86,109.32a3.19,3.19,0,0,1,2.51,2.3,6.28,6.28,0,0,1,0,5L124.44,124l-2.51-2.73,1-2.93c-1.54-1.25-2.1-3.07-1.68-5.44C121.72,110.23,122.9,109,124.86,109.32Z"/><path class="cls-1" d="M133,99.9q-.21-10.68,4.18-17.59,4-6.48,10.47-6.49a11,11,0,0,1,9.63,5.45q4,5.45,4.19,14.65.63,10.68-3.56,17.38-4,6.48-10.26,6.49a12.14,12.14,0,0,1-10.05-5.24Q133.45,109.12,133,99.9Zm13.81,13.19c2.51.42,4.54-.77,6.07-3.56a24.84,24.84,0,0,0,2.1-9.21,31.66,31.66,0,0,0-1.26-11.94c-1.25-3.62-3-5.58-5.23-5.86a5.52,5.52,0,0,0-6.07,2.93,23.62,23.62,0,0,0-2.52,9.84,29.58,29.58,0,0,0,1.47,12.15Q143.29,112.47,146.84,113.09Z"/><path class="cls-1" d="M166.73,99.9q-.21-10.68,4.19-17.59,4-6.48,10.47-6.49A11,11,0,0,1,191,81.27q4,5.45,4.19,14.65.61,10.68-3.56,17.38-4,6.48-10.26,6.49a12.14,12.14,0,0,1-10-5.24Q167.14,109.12,166.73,99.9Zm13.82,13.19q3.76.63,6.07-3.56a25,25,0,0,0,2.1-9.21,32.07,32.07,0,0,0-1.26-11.94c-1.26-3.62-3-5.58-5.24-5.86a5.53,5.53,0,0,0-6.07,2.93,23.78,23.78,0,0,0-2.51,9.84,29.58,29.58,0,0,0,1.47,12.15C176.36,110.79,178.18,112.67,180.55,113.09Z"/><path class="cls-1" d="M200.44,99.9q-.21-10.68,4.19-17.59,4-6.48,10.46-6.49a11,11,0,0,1,9.63,5.45q4,5.45,4.19,14.65.63,10.68-3.56,17.38-4,6.48-10.26,6.49a12.11,12.11,0,0,1-10-5.24Q200.85,109.12,200.44,99.9Zm13.82,13.19q3.77.63,6.07-3.56a25.06,25.06,0,0,0,2.09-9.21,31.87,31.87,0,0,0-1.25-11.94c-1.26-3.62-3-5.58-5.24-5.86a5.52,5.52,0,0,0-6.07,2.93,23.62,23.62,0,0,0-2.51,9.84,29.76,29.76,0,0,0,1.46,12.15C210.07,110.79,211.88,112.67,214.26,113.09Z"/><path class="cls-1" d="M246.71,94.25q6.07-7.12,10-20.31L263.67,76a72.88,72.88,0,0,1-3.77,10v36.64h-7.33V98.64l-2.3,3.56ZM260.32,93A34.44,34.44,0,0,0,264.71,85a36.8,36.8,0,0,0,2.72-9.43l6.7,2.31a22.51,22.51,0,0,1-1.88,6.7h3.35V73.73h7.54V84.62H293.6v6.49H283.14V99.9h13.19v6.7H283.14v15.7H275.6V106.6H261.36V99.9H275.6V91.11h-5.86c-1.54,3.91-2.86,6.42-4,7.53Z"/><path class="cls-1" d="M318.52,107.44H300.93v-6.7h20.31l.21-4.4h6.7c-1.4-.56-2-1.81-1.68-3.77V84.41h-8.58l6.28,2.51q-5,9.84-17,12.77l-3.56-6.49q10.26-2.08,13.82-8.79h-8.16v5.86H302V77.5h19.47V73.94h7.75V77.5h19.47V90.27h-1.89a12.11,12.11,0,0,1-1.67,4.19,5,5,0,0,1-4.4,2.72h-11.1l-.21,3.56h20.1v6.7H331.71q5.44,6.48,17.79,8l-3.77,7.33a41.54,41.54,0,0,1-12.56-4.19,28.28,28.28,0,0,1-7.95-6.91,35.65,35.65,0,0,1-8.59,7.33,28.79,28.79,0,0,1-11.93,4l-4-7.33a38.63,38.63,0,0,0,10.68-2.72A18,18,0,0,0,318.52,107.44Zm22.61-20.1V84.41H333.8v4.81q-.42,1.68,1.47,1.26h3.14a.58.58,0,0,0,.83-.42,14.53,14.53,0,0,0,.84-3.14Z"/><path class="cls-1" d="M364.58,92.36h7.74v20.1q3.15-4.81,3.14-12.56V80h9.84V74.15h7.12V80h4.4l.21-.63,6.7,2.31a47.79,47.79,0,0,1-3.56,10.67l-6.91-2.51a4.58,4.58,0,0,0,.84-1.67,5,5,0,0,0,.41-1.47h-2.09v7.75h3.14l.21-.42,6.28,2.3a39.31,39.31,0,0,1-2.51,8.37,24.65,24.65,0,0,1-3.35,6.49,15.7,15.7,0,0,0,3.35,2.73,20.68,20.68,0,0,0,4.81,2.72l-4.18,6.7q-4-1.47-8.79-6.28a16.4,16.4,0,0,1-3.77,3.35,25.68,25.68,0,0,1-5,2.93l-3.35-6.28a17.34,17.34,0,0,1-3.35,6.07l-6.49-5.65,1.68-2.73h-6.7v3.35H358.3V103.67l-1.68,2.72L353.69,98A31,31,0,0,0,360,84.41h-5v-6.7h18.84v6.7h-6.91A39.07,39.07,0,0,1,364.58,92.36Zm-.21,16.33h2.3V98.43h-2.3Zm15.07,7.75a15.11,15.11,0,0,0,7.33-5,23.66,23.66,0,0,1-4.61-9Q381.74,111.83,379.44,116.44Zm2.93-22h2.93V86.71h-2.93ZM393.05,101h-4.4a9,9,0,0,0,2.31,4.6C391.93,104.86,392.63,103.32,393.05,101Z"/><rect class="cls-1" x="16.27" y="214.86" width="118.5" height="34.84" rx="4"/><rect class="cls-2" x="348.27" y="390.86" width="118.5" height="20.84" rx="2"/><rect class="cls-2" x="348.27" y="363.86" width="118.5" height="18.84" rx="2"/><rect class="cls-2" x="348.27" y="337.86" width="118.5" height="18.84" rx="2"/><rect class="cls-2" x="348.27" y="313.86" width="118.5" height="18.84" rx="2"/><rect class="cls-2" x="348.27" y="286.86" width="118.5" height="18.84" rx="2"/><rect class="cls-2" x="374.27" y="255.86" width="64.5" height="18.84" rx="2"/><rect class="cls-1" x="262.27" y="187.86" width="41.5" height="21.84" rx="4"/><rect class="cls-3" x="256.27" y="180.86" width="53.5" height="8.84" rx="4"/><rect class="cls-3" x="4.77" y="249.86" width="142" height="170" rx="3"/><rect class="cls-1" x="197.77" y="214.86" width="108" height="205" rx="3"/><path class="cls-4" d="M43,224.34a30.32,30.32,0,0,1,4.72-.34,9.13,9.13,0,0,1,4.78.9,3.53,3.53,0,0,1,1.93,3.19,3.63,3.63,0,0,1-2.66,3.44v.07a4,4,0,0,1,3.22,4A4.3,4.3,0,0,1,53.28,239c-1.18.95-3.14,1.47-6.36,1.47a28.18,28.18,0,0,1-4-.24Zm3.62,6.2h1.19c1.94,0,2.95-.81,2.95-2s-.94-1.87-2.59-1.87a8,8,0,0,0-1.55.11Zm0,7.16a9,9,0,0,0,1.4.06c1.67,0,3.13-.64,3.13-2.34s-1.45-2.27-3.28-2.27H46.59Z"/><path class="cls-4" d="M64,236.15,62.9,240.3H59.12l4.94-16.18h4.79l5,16.18H69.94l-1.24-4.15Zm4.11-2.73-1-3.44c-.28-.95-.57-2.17-.82-3.11h0c-.23.95-.48,2.18-.74,3.12l-1,3.43Z"/><path class="cls-4" d="M78.87,240.3V224.12h4.26l3.36,5.94a45.59,45.59,0,0,1,2.65,5.55h.06a62.77,62.77,0,0,1-.3-6.76v-4.72h3.36V240.3H88.43L85,234.07a59.5,59.5,0,0,1-2.81-5.72h-.08c.11,2.15.16,4.44.16,7.08v4.86Z"/><path class="cls-4" d="M98.26,224.12h3.63v7.15H102c.35-.61.74-1.19,1.11-1.76l3.66-5.39h4.5L105.86,231l5.64,9.29h-4.26l-4-7L101.89,235v5.28H98.26Z"/><path class="cls-1" d="M114.77,379.36a3.78,3.78,0,0,1-4,3.5H41.27a3.53,3.53,0,1,1,0-7h69.5A3.79,3.79,0,0,1,114.77,379.36Z"/><rect class="cls-4" x="41.27" y="381.86" width="71.5" height="38" rx="4"/><rect class="cls-4" x="22.27" y="263.86" width="19.5" height="19.82" rx="4"/><rect class="cls-4" x="68.27" y="263.86" width="19.5" height="19.82" rx="4"/><rect class="cls-4" x="215.27" y="230.86" width="15.74" height="16" rx="4"/><rect class="cls-4" x="245.27" y="230.86" width="15.74" height="16" rx="4"/><rect class="cls-4" x="275.27" y="230.86" width="15.74" height="16" rx="4"/><rect class="cls-4" x="215.27" y="257.86" width="15.74" height="16" rx="4"/><rect class="cls-4" x="245.27" y="257.86" width="15.74" height="16" rx="4"/><rect class="cls-4" x="275.27" y="257.86" width="15.74" height="16" rx="4"/><rect class="cls-4" x="215.27" y="284.86" width="15.74" height="16" rx="4"/><rect class="cls-4" x="245.27" y="284.86" width="15.74" height="16" rx="4"/><rect class="cls-4" x="275.27" y="284.86" width="15.74" height="16" rx="4"/><rect class="cls-4" x="215.27" y="311.86" width="15.74" height="16" rx="4"/><rect class="cls-4" x="245.27" y="311.86" width="15.74" height="16" rx="4"/><rect class="cls-4" x="275.27" y="311.86" width="15.74" height="16" rx="4"/><rect class="cls-4" x="215.27" y="337.86" width="15.74" height="16" rx="4"/><rect class="cls-4" x="245.27" y="337.86" width="15.74" height="16" rx="4"/><rect class="cls-4" x="275.27" y="337.86" width="15.74" height="16" rx="4"/><rect class="cls-4" x="215.27" y="363.86" width="15.74" height="16" rx="4"/><rect class="cls-4" x="245.27" y="363.86" width="15.74" height="16" rx="4"/><rect class="cls-4" x="275.27" y="363.86" width="15.74" height="16" rx="4"/><rect class="cls-4" x="215.27" y="389.86" width="15.74" height="16" rx="4"/><rect class="cls-4" x="245.27" y="389.86" width="15.74" height="16" rx="4"/><rect class="cls-4" x="275.27" y="389.86" width="15.74" height="16" rx="4"/><rect class="cls-4" x="112.27" y="263.86" width="19.5" height="19.82" rx="4"/><rect class="cls-4" x="22.27" y="294.86" width="19.5" height="19.82" rx="4"/><rect class="cls-4" x="68.27" y="294.86" width="19.5" height="19.82" rx="4"/><rect class="cls-4" x="112.27" y="294.86" width="19.5" height="19.82" rx="4"/><rect class="cls-4" x="22.27" y="325.86" width="19.5" height="19.82" rx="4"/><rect class="cls-4" x="68.27" y="325.86" width="19.5" height="19.82" rx="4"/><rect class="cls-4" x="112.27" y="325.86" width="19.5" height="19.82" rx="4"/><path class="cls-1" d="M76.27,419.86c.83,0,1.5-1.8,1.5-4V384.11c0-2.2-.67-4-1.5-4s-1.5,1.8-1.5,4v31.75C74.77,418.06,75.45,419.86,76.27,419.86Z"/><path class="cls-1" d="M112.27,420.86c.83,0,1.5-1.8,1.5-4V385.11c0-2.2-.67-4-1.5-4s-1.5,1.8-1.5,4v31.75C110.77,419.06,111.45,420.86,112.27,420.86Z"/><path class="cls-1" d="M41.27,419.86c.83,0,1.5-1.8,1.5-4V384.11c0-2.2-.67-4-1.5-4s-1.5,1.8-1.5,4v31.75C39.77,418.06,40.45,419.86,41.27,419.86Z"/><rect class="cls-3" x="192.27" y="207.86" width="118.5" height="8.84" rx="4"/><path class="cls-1" d="M368.27,411.86c-.27,0-.5-1.8-.5-4V290.11c0-2.2.23-4,.5-4s.5,1.8.5,4V407.86C368.77,410.06,368.55,411.86,368.27,411.86Z"/><path class="cls-1" d="M387.27,411.86c-.27,0-.5-1.8-.5-4V290.11c0-2.2.23-4,.5-4s.5,1.8.5,4V407.86C387.77,410.06,387.55,411.86,387.27,411.86Z"/><path class="cls-1" d="M407.27,411.86c-.27,0-.5-1.8-.5-4V290.11c0-2.2.23-4,.5-4s.5,1.8.5,4V407.86C407.77,410.06,407.55,411.86,407.27,411.86Z"/><path class="cls-1" d="M447.27,411.86c-.27,0-.5-1.8-.5-4V290.11c0-2.2.23-4,.5-4s.5,1.8.5,4V407.86C447.77,410.06,447.55,411.86,447.27,411.86Z"/><path class="cls-1" d="M427.27,411.86c-.27,0-.5-1.8-.5-4V290.11c0-2.2.23-4,.5-4s.5,1.8.5,4V407.86C427.77,410.06,427.55,411.86,427.27,411.86Z"/><rect class="cls-3" x="348.27" y="381.86" width="118.5" height="8.84" rx="2"/><rect class="cls-3" x="348.27" y="355.86" width="118.5" height="8.84" rx="2"/><rect class="cls-3" x="348.27" y="330.86" width="118.5" height="8.84" rx="2"/><rect class="cls-3" x="348.27" y="304.86" width="118.5" height="10" rx="2"/><rect class="cls-3" x="348.27" y="273.86" width="118.5" height="14.84" rx="2"/><rect class="cls-3" x="368.27" y="246.86" width="77.5" height="10.84" rx="2"/><polygon class="cls-3" points="97.03 26.76 102.27 35.27 114.19 27.93 105.28 13.46 97.03 26.76"/><polygon class="cls-3" points="302.03 43.76 307.27 52.27 319.19 44.93 310.28 30.46 302.03 43.76"/><polygon class="cls-3" points="359.03 190.76 364.27 199.27 376.19 191.93 367.28 177.46 359.03 190.76"/><polygon class="cls-3" points="113.03 160.76 118.27 169.27 130.19 161.93 121.28 147.46 113.03 160.76"/><polygon class="cls-3" points="32.79 113.49 25.73 106.4 15.82 116.28 27.81 128.33 32.79 113.49"/><polygon class="cls-3" points="430.31 137.45 436.42 145.37 447.51 136.82 437.13 123.36 430.31 137.45"/><polygon class="cls-3" points="256.65 5.12 248.06 0 240.89 12.03 255.49 20.73 256.65 5.12"/><polygon class="cls-3" points="391.74 150.28 382.37 153.77 387.25 166.89 403.18 160.96 391.74 150.28"/><polygon class="cls-1" points="6.24 168.82 0 176.64 10.94 185.38 21.55 172.09 6.24 168.82"/><polygon class="cls-1" points="31.57 39.21 21.86 41.58 25.18 55.18 41.69 51.15 31.57 39.21"/><polygon class="cls-1" points="173.57 173.21 163.85 175.58 167.18 189.18 183.69 185.15 173.57 173.21"/><polygon class="cls-1" points="73.57 150.21 63.85 152.58 67.18 166.18 83.69 162.15 73.57 150.21"/><polygon class="cls-1" points="425.34 89.22 422.94 98.93 436.52 102.3 440.61 85.8 425.34 89.22"/><polygon class="cls-1" points="131.62 30.38 133.73 40.15 147.41 37.19 143.82 20.58 131.62 30.38"/><polygon class="cls-1" points="332.62 145.38 334.73 155.15 348.41 152.19 344.82 135.58 332.62 145.38"/><polygon class="cls-1" points="431.62 180.38 433.73 190.15 447.41 187.19 443.82 170.58 431.62 180.38"/><polygon class="cls-1" points="228.62 148.38 230.73 158.15 244.41 155.19 240.82 138.58 228.62 148.38"/><polygon class="cls-1" points="390.62 35.38 392.73 45.15 406.41 42.19 402.82 25.58 390.62 35.38"/><polygon class="cls-1" points="221.79 19.44 212.52 15.69 207.27 28.67 223.03 35.04 221.79 19.44"/></g></g></svg>