<svg xmlns="http://www.w3.org/2000/svg" viewBox="0 0 156.04 368.93"><defs><style>.cls-1{fill:#040000;}</style></defs><g id="レイヤー_2" data-name="レイヤー 2"><g id="_1" data-name="1"><path class="cls-1" d="M6.75,30.84c-.94.88-1.6,1.62-1.51,1.87.23.69,13.12,32.7,15,35.46,1.5,2.24,4.38,7.6,5.76,8.75s19.34,26.71,20,27.63.92,2.07,1.61,2.76,11.82,44.21,11.82,45.59,2.15,9.21,2.15,9.21-5.68,42.36-5.22,43.28c.18.35,2.7,3.39,5.3,4.12-1.83,10.34-1.73,51.76-1.73,53.6v11.35S46.7,326.65,46.09,329.11,46,339.85,46,339.85l.36,7.83s.41.05,2.06.18a85.39,85.39,0,0,0-.72,10.45c.13,5.44,10.32,5.95,10.32,5.95s22.55,7.82,28.31,3.22c1.91-1.53,1.56-3.71-.08-5.21S74,353.09,73,351a29,29,0,0,1-1.31-4c1-.38,1.66-.8,1.81-1.24.61-1.85-2.45-10.44-2.45-12.28s13.52-55.57,13.52-58,1.84-9.82,1.84-9.82l9-36.22s2,34.69,2,39,1.22,16.27,1.22,18.12-2.45,39.91-3.06,42.36-1.23,11.67-1.23,11.67L95,346s1.38.09,3.55.2a77.61,77.61,0,0,0,.13,11.16c.62,4.91,11.67,3.07,11.67,3.07s26.4,4.3,28.86,3.68,1.84-4.91,0-6.14-13.51-7.36-14.74-9.21a19.37,19.37,0,0,1-1.31-2.61c1-.19,1.54-.44,1.62-.76.61-2.46-3.38-7.37-3.38-7.37l3.07-10.13s-.23-62-.23-66.31c0-3,1.52-34,1.31-54.82,2.2-.92,1.93-1.75,2-2.28.12-.93-.61-7.75-1.36-14.41l2.28-.32-4.08-15.89c-1-7.47-3.82-27.4-3.82-27.4s-4.38-41.9-4.15-42.82.7-3.23.7-3.23c.23-.92,8.74-17,10.58-19.34s9-16.8,10.14-18.65S151,29.72,151,29.72L137.63,23s-3.46,5.53-3.92,6.68-2.76,7.83-3,8.52-3,3.22-3.46,4.14-4.37,10.13-4.37,10.13a5.12,5.12,0,0,0-.46,2.07c0,1.16-3.91,2.08-4.37,3.46S116.67,62,116.67,62s-6.21,9.67-7.36,10.36-3.23,1.15-3.69,1.84S93,82.44,93,82.44L89.27,82l-.07,4,4.91,26.4L85.82,86.9l.23-2.5L85,83l2.65-1.27c.23-1-.33-1.45-.46-1.84A10.22,10.22,0,0,1,87,78.3c2.52,0,6.08-1.29,5.3-4.84C92,72.38,90.83,65,90.66,63.1c-.23-2.45-1.94-7.44-2.56-8.07a6.47,6.47,0,0,1-1.57-3.3c0-.95-3.61-4.54-3.61-4.54l-.16-1.41.31-2.2-1.1.31c.47-.47.47-2.83.47-2.83l-1.88,1.42L80.71,40s-1.34,1.21-8.86,1a16.87,16.87,0,0,0-12,4.61c-.32.47-2.79,1-5.3,4.6s-.92,13.58,1.38,17.73c2.43,4.39,7.7,6.69,8.38,11l15.57,4.23.22,3.91.85.77c1.23,1.22,6.14,32.84,6.14,32.84L71.32,84.06s-5.56-2.46-7-3.26a12.27,12.27,0,0,1-6.38-2.19c-3.69-2.08-6.6-5.15-8.22-5.84S36.32,57.12,36.32,56.43s-1.15-1.38-1.84-1.38S22.05,26.49,22.05,25.34c0-.89-1.25-1.08-2.67-.92C19.38,24.42,10.3,28,6.75,30.84Zm9.76-8.45-.45-1-.69-5.07a31,31,0,0,0,3-4.83C18.82,10.15,17,3,15.6,1.86s-3.45.69-3.45.69a13.75,13.75,0,0,0-3-1.84C8.23.48,6.85,2.55,5.7,2.78s-.92,1.38-1.61,2.3c-.69.47-2.07.47-3,3-1.38,1.15,0,0-.92,1.61s2.08,7.14,3.23,9.9a22.56,22.56,0,0,0,2.07,4.83,14.86,14.86,0,0,1,1.24,2.52S14.13,22.65,16.51,22.39Zm133.78,2.8,1.55-4.88a7.73,7.73,0,0,1,1.39-1.46c2.12-1.52,1.59-5.63,1.12-6.69a2.43,2.43,0,0,0,1.53-1.59c.26-.72.39-3.37-1.13-3.24.2-1.12-.2-3.11-3.11-2.91.53-3.18-.73-3.91-2.72-3.51-.39-1.06-.66-1-1.38-.79s-7,5-7.95,6-.33,2.32-.07,2.91,3.12,6.89,3.18,7.22a36.06,36.06,0,0,1-1.12,4ZM61.44,209.57l.16,0C61.55,210.1,61.5,209.84,61.44,209.57Z"/></g></g></svg>