<svg xmlns="http://www.w3.org/2000/svg" viewBox="0 0 419.04 221.46"><defs><style>.cls-1,.cls-2{fill:#fcfcfc;stroke:#7ca8d8;stroke-miterlimit:10;}.cls-1{stroke-width:4px;}.cls-2{stroke-width:3px;}</style></defs><g id="レイヤー_2" data-name="レイヤー 2"><g id="レイヤー_2-2" data-name="レイヤー 2"><polygon class="cls-1" points="184.58 219.36 407.42 147.49 234.36 94.46 9.61 165.75 184.58 219.36"/><polygon class="cls-1" points="189.54 208.1 412.37 136.23 239.31 83.2 14.57 154.49 189.54 208.1"/><polygon class="cls-1" points="188.75 199.09 411.59 127.22 238.53 74.19 13.78 145.48 188.75 199.09"/><polygon class="cls-1" points="187.97 187.08 410.8 115.21 237.74 62.18 13 133.47 187.97 187.08"/><polygon class="cls-1" points="187.18 178.07 410.02 106.19 236.96 53.17 12.21 124.46 187.18 178.07"/><polygon class="cls-1" points="186.4 174.06 409.23 102.19 236.17 49.16 11.43 120.44 186.4 174.06"/><polygon class="cls-1" points="185.61 163.05 408.45 91.17 235.39 38.15 10.64 109.43 185.61 163.05"/><polygon class="cls-1" points="184.83 155.04 407.66 83.16 234.6 30.14 9.86 101.42 184.83 155.04"/><polygon class="cls-1" points="184.04 148.03 406.88 76.15 233.82 23.13 9.07 94.41 184.04 148.03"/><polygon class="cls-1" points="183.26 142.01 406.09 70.14 233.03 17.12 8.29 88.4 183.26 142.01"/><polygon class="cls-1" points="182.47 135 405.31 63.13 232.25 10.11 7.5 81.39 182.47 135"/><polygon class="cls-1" points="181.69 126.99 404.52 55.12 231.46 2.1 6.72 73.38 181.69 126.99"/><polygon class="cls-1" points="219.72 46.13 278.42 27.2 232.84 13.23 173.63 32.01 219.72 46.13"/><polygon class="cls-2" points="89.44 84.36 131.25 70.87 98.78 60.92 56.61 74.3 89.44 84.36"/><line class="cls-1" x1="278.57" y1="37.94" x2="351.66" y2="61.94"/><line class="cls-1" x1="264.57" y1="40.94" x2="337.66" y2="64.94"/><line class="cls-1" x1="250.57" y1="43.94" x2="323.66" y2="67.94"/><line class="cls-1" x1="236.57" y1="46.94" x2="309.66" y2="70.94"/><line class="cls-1" x1="222.57" y1="49.94" x2="295.66" y2="73.94"/><line class="cls-1" x1="155.57" y1="35.53" x2="281.66" y2="76.94"/><line class="cls-1" x1="145.57" y1="41.53" x2="271.66" y2="82.94"/><line class="cls-1" x1="130.57" y1="44.23" x2="263.66" y2="87.94"/><line class="cls-1" x1="120.57" y1="49.53" x2="246.66" y2="90.94"/><line class="cls-1" x1="159.57" y1="74.94" x2="232.66" y2="98.94"/><line class="cls-1" x1="145.57" y1="77.94" x2="218.66" y2="101.94"/><line class="cls-1" x1="131.57" y1="80.94" x2="204.66" y2="104.94"/><line class="cls-1" x1="117.57" y1="83.94" x2="190.66" y2="107.94"/><line class="cls-1" x1="103.57" y1="86.94" x2="176.66" y2="110.94"/></g></g></svg>