<svg xmlns="http://www.w3.org/2000/svg" viewBox="0 0 308 322.95"><defs><style>.cls-1{fill:#c6ef60;}.cls-2{fill:#29c3d3;}.cls-3,.cls-4,.cls-5,.cls-6,.cls-7,.cls-8,.cls-9{fill:none;stroke-miterlimit:10;}.cls-3,.cls-4,.cls-5{stroke:#29c3d3;}.cls-3,.cls-4,.cls-5,.cls-6,.cls-7,.cls-8{stroke-width:2px;}.cls-4,.cls-7{stroke-dasharray:4.55 4.55;}.cls-5,.cls-8{stroke-dasharray:4.99 4.99;}.cls-6,.cls-7,.cls-8{stroke:#c6ef60;}.cls-9{stroke:#000;stroke-width:3px;}</style></defs><g id="レイヤー_2" data-name="レイヤー 2"><g id="レイヤー_2-2" data-name="レイヤー 2"><rect class="cls-1" x="22.61" y="48.23" width="39.39" height="239.71"/><rect class="cls-2" x="177.61" y="48.23" width="39.39" height="239.71"/><polyline class="cls-3" points="269.49 286.39 269.49 288.89 266.99 288.89"/><line class="cls-4" x1="262.44" y1="288.89" x2="237.41" y2="288.89"/><polyline class="cls-3" points="235.13 288.89 232.63 288.89 232.63 286.39"/><line class="cls-5" x1="232.63" y1="281.4" x2="232.63" y2="54.18"/><polyline class="cls-3" points="232.63 51.69 232.63 49.19 235.13 49.19"/><line class="cls-4" x1="239.68" y1="49.19" x2="264.71" y2="49.19"/><polyline class="cls-3" points="266.99 49.19 269.49 49.19 269.49 51.69"/><line class="cls-5" x1="269.49" y1="56.68" x2="269.49" y2="283.9"/><path class="cls-1" d="M56.18,319.77v-6.65H47.59v-1.94h8.59v-2.66h-4v-1.43a19.11,19.11,0,0,1-5.83,3.07l-1-2.25q7.88-2.57,10.74-8.7l2.56.31c.34.07.3.27-.1.61A19.17,19.17,0,0,0,69,307.19l-1.12,2.35a23.07,23.07,0,0,1-5.53-2.76v1.74H58.23v2.66h8.69v1.94H58.23v6.65h9.51v2H47v-2Zm-4.09-.51a31.8,31.8,0,0,0-2.05-4l2.05-1a21.05,21.05,0,0,1,2,3.89ZM62,306.58a16.66,16.66,0,0,1-4.8-5.12,18.07,18.07,0,0,1-4.4,5.12Zm-1.63,11.76a30.38,30.38,0,0,0,1.74-4.5l1.94.61c.89.21,1,.45.2.72a31.52,31.52,0,0,1-1.73,3.89Z"/><path class="cls-1" d="M73.88,315.17l-1.74.82-.71-1.84a20.27,20.27,0,0,0,5.62-3.07,23.8,23.8,0,0,1-1.74-1.74,14.11,14.11,0,0,1-2.66,2.25l-.92-1.74a8.94,8.94,0,0,0,4.4-5.42l1.74.3c.48.07.45.28-.1.62l-.51,1h3.48l.3-.31,1.54,1.23c.13.28,0,.41-.41.41A17.17,17.17,0,0,1,79.51,311a16.54,16.54,0,0,0,5,2.35l-.82,2.05a35.16,35.16,0,0,1-5.32-3.18,16.63,16.63,0,0,1-3.47,2.36h6.85v7.36H80v-.51h-4.4v1H73.88Zm5.22-13h4.4v3.58H81.76v-1.95H74.29v2.66H72.55v-4.29h4.5v-2.66h2c.54.07.58.27.1.61Zm.92,14h-4.4v3.58H80Zm0-8.59H76.75l-.41.61A13.38,13.38,0,0,0,78.18,310,15.81,15.81,0,0,0,80,307.6Zm2.66,13.2a12.39,12.39,0,0,0,4.71-1.95l1.33,1.64c.34.48.17.61-.51.41A23.08,23.08,0,0,1,83.6,323Zm2.15-2.46V304.73H87.9l.72-2.55h-4.2v-1.95H95v1.95h-4.3l-1.12,2.55h4.6v13.61Zm1.74-12v2.36H92.4v-2.36Zm0,4v2.36H92.4v-2.36Zm0,4v2.36H92.4v-2.36ZM95,322.84a19.24,19.24,0,0,1-4.81-2.55l1.33-1.54A19.21,19.21,0,0,0,96,320.9Z"/><path class="cls-2" d="M205,322.46h-2V309.78a16.13,16.13,0,0,1-1.84,2.66l-1.64-1.85a20.09,20.09,0,0,0,4.6-11.35l2.15.41q.72.19,0,.51a39.78,39.78,0,0,1-1.43,5.73l.41.1c.2.2.13.41-.21.61Zm5.73-17.39h3.18v-5.63h1.94c.54.07.58.28.1.62v5h5V307h-5v5.12H223v1.94h-7.06v8.29h-2v-8.29h-7.58v-1.94h7.58V307h-3.79a13.91,13.91,0,0,1-2.46,4.4l-1.74-1.63a15.39,15.39,0,0,0,3.28-8.7l2.45.61c.28.28.17.45-.3.51C211.24,302.68,211,303.64,210.69,305.07Z"/><path class="cls-2" d="M231.77,299h1.64c.54.07.58.28.1.62v4.4h5.22v1.63h-4.3a11.44,11.44,0,0,0,3.48,2.56L236.78,310a12.69,12.69,0,0,1-3.27-2.86v2.45h-1.74v-1.94a15.55,15.55,0,0,1-4.5,3.68l-1.33-1.64a17.46,17.46,0,0,0,5.22-4h-4.71v-1.63h5.32Zm-2.05,19.24-1.63-.92q1-1.55,2-3.48h-3.88v-1.64h4.5a23.53,23.53,0,0,0,.92-2.25l1.94.51c.27.28.17.45-.31.51l-.61,1.23h5.83v1.64H237a10.28,10.28,0,0,1-1.54,3.48,17.61,17.61,0,0,1,2,1l-.92,1.64a16.31,16.31,0,0,0-2-1.13,12.12,12.12,0,0,1-7.16,3.28l-.72-1.85a10.92,10.92,0,0,0,6.14-2.25c-.75-.34-1.5-.64-2.25-.92Zm-2.66-17.19,1.64-1a8.88,8.88,0,0,1,1.84,2.55l-1.63,1.13A9.38,9.38,0,0,0,227.06,301.08Zm6.65,15.55a6.83,6.83,0,0,0,1.33-2.76h-3c-.28.61-.58,1.23-.92,1.84A18.31,18.31,0,0,1,233.71,316.63Zm2.56-12.79-1.64-.92a21.4,21.4,0,0,0,1.54-3.07l1.84.92c.27.28.17.45-.31.51A9.8,9.8,0,0,1,236.27,303.84Zm8.49,12.59a14.17,14.17,0,0,0,4.61,3.58L248,322.26a16.57,16.57,0,0,1-4.61-4.09,18.89,18.89,0,0,1-7.26,4.6l-1-2q5.31-2.14,7.06-4.4a16.8,16.8,0,0,1-2-6.75,10.43,10.43,0,0,1-1.23,2.35l-1.74-1.33A23.19,23.19,0,0,0,241,299.44l2.15.51c.41.28.3.48-.31.62a35.26,35.26,0,0,1-.82,3.68h7v1.94h-1.74A21.85,21.85,0,0,1,244.76,316.43Zm.41-10.24h-3.48c.21,3.76.79,6.55,1.74,8.39C244.39,312.74,245,310,245.17,306.19Z"/><rect class="cls-2" x="231.21" y="264.7" width="39.79" height="22.97"/><polyline class="cls-6" points="118.49 285.39 118.49 287.89 115.99 287.89"/><line class="cls-7" x1="111.44" y1="287.89" x2="86.41" y2="287.89"/><polyline class="cls-6" points="84.13 287.89 81.63 287.89 81.63 285.39"/><line class="cls-8" x1="81.63" y1="280.4" x2="81.63" y2="53.18"/><polyline class="cls-6" points="81.63 50.69 81.63 48.19 84.13 48.19"/><line class="cls-7" x1="88.68" y1="48.19" x2="113.71" y2="48.19"/><polyline class="cls-6" points="115.99 48.19 118.49 48.19 118.49 50.69"/><line class="cls-8" x1="118.49" y1="55.68" x2="118.49" y2="282.9"/><rect class="cls-1" x="80.63" y="243.18" width="39.37" height="44.23"/><line class="cls-9" y1="288.26" x2="308" y2="288.26"/><path d="M38.43,44.62a60.78,60.78,0,0,1,9.65-10.39,53.24,53.24,0,0,1,12.1-7.93,37.43,37.43,0,0,1,14.5-3.74,33,33,0,0,1,7.73.61,33.54,33.54,0,0,1,7.39,2.44,41.82,41.82,0,0,1,12.37,9,60.48,60.48,0,0,1,8.89,12c4.93,8.53,8.08,17.81,10.45,27a139.84,139.84,0,0,1,3,14q1.17,7.08,1.67,14.2a200.89,200.89,0,0,1,0,28.4c-.31,4.71-.79,9.4-1.37,14.08s-1.26,9.32-2.1,13.95S121,167.43,119.87,172c-.54,2.29-1.11,4.57-1.75,6.84a17.32,17.32,0,0,0-.78,3.47,13,13,0,0,0,0,1.89c0,.34,0,.69.06,1.07a4.43,4.43,0,0,1,0,.64,2.31,2.31,0,0,1-.06.47s0,.13-.07.19a1,1,0,0,1-.13.26,2,2,0,0,1-.4.49,3,3,0,0,1-2.63.73l1.26-5.86a2.83,2.83,0,0,0-2.54.68,1.41,1.41,0,0,0-.32.41.35.35,0,0,0-.07.17s0,.09,0,.09a.12.12,0,0,0,.14.08,1.11,1.11,0,0,0,.36-.16,4.41,4.41,0,0,0,.67-.57,6.92,6.92,0,0,0,1-1.43,12.68,12.68,0,0,0,1.16-3.26c.58-2.24,1.1-4.5,1.58-6.77.94-4.54,1.73-9.11,2.34-13.71s1.07-9.22,1.4-13.84.45-9.26.46-13.88a184.52,184.52,0,0,0-7.68-54.29c-2.66-8.81-5.7-17.31-10-25A58.92,58.92,0,0,0,96.38,40a37.4,37.4,0,0,0-9.8-7.9,27.4,27.4,0,0,0-11.9-3.36,35.83,35.83,0,0,0-12.76,1.88,50.56,50.56,0,0,0-6.23,2.54,59.52,59.52,0,0,0-6,3.26A82.72,82.72,0,0,0,38.43,44.62Z"/><path d="M112.08,196.67h0L111,186.78v0l-1.11-9.89h0l6.14,5.38h7s0,0,0,0l-5.89,8v0Z"/><path d="M193.43,41.62a53.2,53.2,0,0,1,5.13-6.11,60,60,0,0,1,5.93-5.44,50.9,50.9,0,0,1,14.16-8.24,35,35,0,0,1,16.94-2,35.61,35.61,0,0,1,15.94,6.79,44.22,44.22,0,0,1,6.39,5.74A56.15,56.15,0,0,1,263.19,39,79.37,79.37,0,0,1,271,53.63c1.05,2.53,2,5.08,2.85,7.66s1.58,5.18,2.28,7.76,1.41,5.24,2,7.88,1,5.34,1.38,8a180.93,180.93,0,0,1,1.34,32.1,307.12,307.12,0,0,1-3,31.7c-1.54,10.48-3.36,20.9-5.62,31.22q-1.62,7.75-3.55,15.45-1,3.84-2,7.66a21.17,21.17,0,0,0-.79,3.91,17.91,17.91,0,0,0-.08,2.09l0,1.14c0,.21,0,.41,0,.66a2.73,2.73,0,0,1,0,.44,1.86,1.86,0,0,1-.13.39,1.77,1.77,0,0,1-.28.45c.1-.2-.34,1.12-2.92,1l1.26-5.86c-2.54-.09-2.94,1.2-2.83,1-.22.3-.17.28-.2.34s0,.14,0,.17.1,0,.16,0a2.65,2.65,0,0,0,.37-.27,9.6,9.6,0,0,0,.68-.73,10.66,10.66,0,0,0,1.08-1.68,16,16,0,0,0,1.36-3.68q1-3.81,1.85-7.64,1.76-7.67,3.19-15.41c1.83-10.33,3.35-20.71,4.26-31.14a300.54,300.54,0,0,0,1.3-31.28,191.56,191.56,0,0,0-2.74-30.85q-.69-3.78-1.6-7.49c-.6-2.49-1.26-4.86-2.05-7.38s-1.56-4.92-2.42-7.32-1.73-4.79-2.71-7.11a86.48,86.48,0,0,0-6.93-13.27A58,58,0,0,0,252,37.71a44.27,44.27,0,0,0-5.12-5,29.26,29.26,0,0,0-12.45-6.29,27.59,27.59,0,0,0-7-.69,37.36,37.36,0,0,0-7.21,1,54.17,54.17,0,0,0-14,5.82A84.24,84.24,0,0,0,193.43,41.62Z"/><path d="M260.08,221.67h0L259,211.78v0l-1.11-9.89h0l6.14,5.38h7s0,0,0,0l-5.89,8v0Z"/><path class="cls-1" d="M21.77,5.84h-.05L18.48,7.38l-.66-3,4.51-2.1h3.29v17H21.77Z"/><path class="cls-1" d="M43.82,10.73c0,5.25-2.13,8.88-6.47,8.88S31,15.66,31,10.84,33.05,2,37.46,2,43.82,6.06,43.82,10.73ZM35,10.82c0,3.92.93,5.78,2.46,5.78s2.4-2,2.4-5.82S39,5,37.42,5,35,6.86,35,10.82Z"/><path class="cls-1" d="M58.35,10.73c0,5.25-2.13,8.88-6.47,8.88s-6.35-3.95-6.37-8.77S47.59,2,52,2,58.35,6.06,58.35,10.73Zm-8.85.09c0,3.92.94,5.78,2.46,5.78s2.41-2,2.41-5.82S53.54,5,52,5,49.5,6.86,49.5,10.82Z"/><path class="cls-1" d="M69.26,7.05c0,3.56-2.26,5.42-4.72,5.42s-4.62-1.94-4.63-5.13S61.77,2,64.67,2,69.26,4.14,69.26,7.05Zm-6.38.2c0,1.78.59,3.05,1.75,3.05S66.3,9.16,66.3,7.23c0-1.73-.47-3.05-1.69-3.05S62.88,5.53,62.88,7.25Zm1.87,12.36L74.54,2h2.13L66.88,19.61Zm16.78-5.48c0,3.55-2.26,5.43-4.72,5.43s-4.62-1.95-4.63-5.15c0-3,1.86-5.35,4.76-5.35S81.53,11.22,81.53,14.13Zm-6.38.19c0,1.79.59,3.06,1.75,3.06s1.67-1.15,1.67-3.07c0-1.74-.47-3.07-1.69-3.07S75.15,12.6,75.15,14.32Z"/><path class="cls-2" d="M173.77,3.84h-.05l-3.24,1.54-.66-3,4.51-2.1h3.29v17h-3.85Z"/><path class="cls-2" d="M195.82,8.73c0,5.25-2.13,8.88-6.47,8.88S183,13.66,183,8.84,185.05,0,189.46,0,195.82,4.06,195.82,8.73ZM187,8.82c0,3.92.93,5.78,2.46,5.78s2.4-1.95,2.4-5.82S191,3,189.42,3,187,4.86,187,8.82Z"/><path class="cls-2" d="M210.35,8.73c0,5.25-2.13,8.88-6.47,8.88s-6.35-3.95-6.37-8.77S199.59,0,204,0,210.35,4.06,210.35,8.73Zm-8.85.09c0,3.92.94,5.78,2.46,5.78s2.41-1.95,2.41-5.82S205.54,3,204,3,201.5,4.86,201.5,8.82Z"/><path class="cls-2" d="M221.26,5.05c0,3.56-2.26,5.42-4.72,5.42s-4.62-1.94-4.63-5.13S213.77,0,216.67,0,221.26,2.14,221.26,5.05Zm-6.38.2c0,1.78.59,3.05,1.75,3.05s1.67-1.14,1.67-3.07c0-1.73-.47-3.05-1.69-3.05S214.88,3.53,214.88,5.25Zm1.87,12.36L226.54,0h2.13l-9.79,17.61Zm16.78-5.48c0,3.55-2.26,5.43-4.72,5.43s-4.62-1.95-4.63-5.15c0-3,1.86-5.35,4.76-5.35S233.53,9.22,233.53,12.13Zm-6.38.19c0,1.79.59,3.06,1.75,3.06s1.67-1.15,1.67-3.07c0-1.74-.47-3.07-1.69-3.07S227.15,10.6,227.15,12.32Z"/><ellipse cx="99.5" cy="221.44" rx="32.5" ry="17.18"/><ellipse cx="251.5" cy="244.44" rx="32.5" ry="17.18"/><path class="cls-1" d="M78.5,228.83v-2.08L80.39,225c3.22-2.9,4.79-4.54,4.82-6.27,0-1.19-.71-2.14-2.41-2.14a5.38,5.38,0,0,0-3.15,1.21l-1-2.46a8.1,8.1,0,0,1,4.81-1.52c3.35,0,5.16,1.95,5.16,4.61,0,2.47-1.77,4.46-3.91,6.35L83.37,226V226H89v2.83Z"/><path class="cls-1" d="M102,221.41c0,4.54-1.84,7.67-5.6,7.67s-5.49-3.41-5.5-7.58,1.79-7.64,5.6-7.64S102,217.37,102,221.41Zm-7.66.08c0,3.39.82,5,2.13,5s2.08-1.68,2.08-5-.71-5-2.08-5S94.29,218.06,94.29,221.49Z"/><path class="cls-1" d="M111.39,218.23c0,3.07-2,4.68-4.09,4.68s-4-1.67-4-4.44,1.6-4.61,4.11-4.61S111.39,215.71,111.39,218.23Zm-5.53.16c0,1.55.51,2.64,1.51,2.64s1.45-1,1.45-2.65c0-1.5-.4-2.64-1.46-2.64S105.86,216.91,105.86,218.39Zm1.62,10.69L116,213.86h1.84l-8.46,15.22ZM122,224.35c0,3.07-2,4.69-4.09,4.69s-4-1.68-4-4.45S115.52,220,118,220,122,221.83,122,224.35Zm-5.52.16c0,1.55.51,2.65,1.51,2.65s1.44-1,1.44-2.66c0-1.5-.4-2.65-1.46-2.65S116.48,223,116.48,224.51Z"/><path class="cls-2" d="M234.5,239.54h0l-2.68,1.28-.55-2.48,3.74-1.73h2.72V250.7H234.5Z"/><path class="cls-2" d="M252.75,243.6c0,4.34-1.76,7.34-5.35,7.34s-5.26-3.27-5.27-7.25,1.72-7.32,5.36-7.32S252.75,239.73,252.75,243.6Zm-7.32.07c0,3.25.77,4.78,2,4.78s2-1.61,2-4.81-.68-4.77-2-4.77S245.42,240.39,245.43,243.67Z"/><path class="cls-2" d="M261.79,240.55c0,2.94-1.87,4.49-3.91,4.49s-3.83-1.61-3.83-4.25,1.53-4.42,3.93-4.42S261.79,238.14,261.79,240.55Zm-5.29.16c0,1.48.49,2.52,1.45,2.52s1.38-.94,1.38-2.53c0-1.43-.38-2.53-1.39-2.53S256.5,239.29,256.5,240.71Zm1.55,10.23,8.1-14.57h1.77l-8.1,14.57Zm13.89-4.53c0,2.94-1.87,4.49-3.91,4.49s-3.82-1.61-3.83-4.26,1.54-4.43,3.94-4.43S271.94,244,271.94,246.41Zm-5.28.16c0,1.47.49,2.53,1.44,2.53s1.39-.95,1.39-2.55c0-1.43-.39-2.53-1.4-2.53S266.66,245.14,266.66,246.57Z"/></g></g></svg>