<svg xmlns="http://www.w3.org/2000/svg" viewBox="0 0 654.85 384.61"><defs><style>.cls-1{fill:#56a5ed;}.cls-2{fill:none;stroke:#000;stroke-miterlimit:10;}.cls-3{fill:#040000;}.cls-4{fill:#fff;}.cls-5{fill:#d5d5d5;}.cls-6{fill:#f5f4f4;}.cls-7{fill:#f4f3f9;}.cls-8{fill:#eef1f9;}</style></defs><g id="レイヤー_2" data-name="レイヤー 2"><g id="レイヤー_2-2" data-name="レイヤー 2"><path class="cls-1" d="M156.78,89.49V84.26q4.4-.42,6.07-1.68c1.68-1,2.79-2.86,3.35-5.65h5.86v43.13H165V89.49Z"/><path class="cls-1" d="M185.67,100.59q-.21-10.68,4.19-17.59,4-6.5,10.47-6.49A11,11,0,0,1,210,82q4,5.44,4.19,14.66.61,10.68-3.56,17.37-4,6.49-10.26,6.49a12.13,12.13,0,0,1-10.05-5.23Q186.08,109.8,185.67,100.59Zm13.82,13.18q3.76.63,6.07-3.55a25.15,25.15,0,0,0,2.1-9.22,32,32,0,0,0-1.26-11.93c-1.26-3.63-3-5.58-5.24-5.86a5.53,5.53,0,0,0-6.07,2.93A23.69,23.69,0,0,0,192.58,96a29.53,29.53,0,0,0,1.47,12.14C195.3,111.47,197.12,113.36,199.49,113.77Z"/><path class="cls-1" d="M222.94,110a3.21,3.21,0,0,1,2.51,2.3,6.25,6.25,0,0,1,0,5l-2.93,7.33L220,121.94l1-2.93q-2.3-1.89-1.67-5.44C219.8,110.92,221,109.73,222.94,110Z"/><path class="cls-1" d="M231.1,100.59q-.21-10.68,4.19-17.59,4-6.5,10.47-6.49A11,11,0,0,1,255.39,82q4,5.44,4.19,14.66Q260.2,107.29,256,114c-2.66,4.33-6.07,6.49-10.26,6.49a12.13,12.13,0,0,1-10-5.23Q231.51,109.8,231.1,100.59Zm13.82,13.18q3.77.63,6.07-3.55a25.15,25.15,0,0,0,2.1-9.22,31.83,31.83,0,0,0-1.26-11.93q-1.89-5.44-5.23-5.86a5.53,5.53,0,0,0-6.08,2.93A23.69,23.69,0,0,0,238,96a29.53,29.53,0,0,0,1.47,12.14C240.73,111.47,242.55,113.36,244.92,113.77Z"/><path class="cls-1" d="M264.81,100.59Q264.6,89.91,269,83q4-6.5,10.46-6.49A11,11,0,0,1,289.1,82q4,5.44,4.18,14.66.63,10.68-3.56,17.37-4,6.49-10.26,6.49a12.11,12.11,0,0,1-10-5.23Q265.22,109.8,264.81,100.59Zm13.82,13.18q3.76.63,6.07-3.55a25.17,25.17,0,0,0,2.09-9.22,31.84,31.84,0,0,0-1.25-11.93q-1.89-5.44-5.24-5.86a5.52,5.52,0,0,0-6.07,2.93A23.54,23.54,0,0,0,271.72,96a29.71,29.71,0,0,0,1.46,12.14C274.44,111.47,276.25,113.36,278.63,113.77Z"/><path class="cls-1" d="M298.52,100.59Q298.31,89.91,302.7,83q4-6.5,10.47-6.49A11,11,0,0,1,322.8,82q4,5.44,4.19,14.66.63,10.68-3.56,17.37-4,6.49-10.26,6.49a12.13,12.13,0,0,1-10.05-5.23Q298.93,109.8,298.52,100.59Zm13.81,13.18c2.52.42,4.54-.76,6.08-3.55A25.17,25.17,0,0,0,320.5,101a31.63,31.63,0,0,0-1.26-11.93c-1.25-3.63-3-5.58-5.23-5.86a5.52,5.52,0,0,0-6.07,2.93A23.39,23.39,0,0,0,305.43,96a29.54,29.54,0,0,0,1.46,12.14C308.15,111.47,310,113.36,312.33,113.77Z"/><path class="cls-1" d="M344.79,94.93q6.06-7.11,10-20.31l6.91,2.1a71.8,71.8,0,0,1-3.76,10v36.64h-7.33V99.33l-2.3,3.56Zm13.6-1.25a34.53,34.53,0,0,0,4.4-8,36.85,36.85,0,0,0,2.72-9.42l6.7,2.3a22.94,22.94,0,0,1-1.88,6.7h3.35V74.42h7.53V85.3h10.47v6.49H381.21v8.8H394.4v6.69H381.21V123h-7.53V107.28H359.44v-6.69h14.24v-8.8h-5.86q-2.31,5.86-4,7.54Z"/><path class="cls-1" d="M416.6,108.12H399v-6.7h20.31l.21-4.39h6.7q-2.1-.84-1.68-3.77V85.09H416l6.28,2.51q-5,9.86-17,12.78l-3.56-6.49q10.26-2.1,13.82-8.8h-8.17V91h-7.32V78.18h19.47V74.62h7.74v3.56h19.47V91h-1.88a11.75,11.75,0,0,1-1.68,4.19,5,5,0,0,1-4.39,2.72h-11.1l-.21,3.56h20.1v6.7H429.79q5.43,6.5,17.79,8l-3.77,7.33a41.81,41.81,0,0,1-12.56-4.19,28.44,28.44,0,0,1-7.95-6.91,36.07,36.07,0,0,1-8.59,7.33,28.84,28.84,0,0,1-11.93,4l-4-7.32a39,39,0,0,0,10.68-2.72A18,18,0,0,0,416.6,108.12ZM439.21,88V85.09h-7.33v4.82c-.28,1.12.21,1.54,1.46,1.25h3.15a.58.58,0,0,0,.83-.41,14.74,14.74,0,0,0,.84-3.15Z"/><path class="cls-1" d="M462.66,93.05h7.74v20.1q3.14-4.82,3.14-12.56V80.7h9.84V74.83h7.12V80.7h4.4l.21-.63,6.69,2.3a47.93,47.93,0,0,1-3.55,10.68l-6.91-2.51a4.58,4.58,0,0,0,.83-1.68,4.78,4.78,0,0,0,.42-1.46H490.5v7.74h3.14l.21-.42L500.13,97a40.08,40.08,0,0,1-2.51,8.37,25.12,25.12,0,0,1-3.35,6.49,15.22,15.22,0,0,0,3.35,2.72,19.74,19.74,0,0,0,4.81,2.72l-4.18,6.7q-4-1.47-8.8-6.28a15.73,15.73,0,0,1-3.77,3.35,25.15,25.15,0,0,1-5,2.93l-3.35-6.28a17.41,17.41,0,0,1-3.35,6.07l-6.49-5.65,1.67-2.72h-6.69v3.35h-6.08V104.35l-1.67,2.72-2.93-8.37a30.88,30.88,0,0,0,6.28-13.61h-5v-6.7h18.85v6.7H465A39.15,39.15,0,0,1,462.66,93.05Zm-.21,16.33h2.3V99.12h-2.3Zm15.07,7.74a15.13,15.13,0,0,0,7.33-5,23.66,23.66,0,0,1-4.61-9Q479.82,112.52,477.52,117.12Zm2.93-22h2.93V87.4h-2.93Zm10.68,6.49h-4.4a9,9,0,0,0,2.3,4.61C490,105.54,490.71,104,491.13,101.63Z"/><polygon class="cls-2" points="195.1 27.44 200.35 35.96 212.27 28.62 203.35 14.14 195.1 27.44"/><polygon class="cls-2" points="400.1 44.44 405.35 52.96 417.27 45.62 408.36 31.14 400.1 44.44"/><polygon class="cls-2" points="457.1 191.44 462.35 199.96 474.27 192.62 465.36 178.14 457.1 191.44"/><polygon class="cls-2" points="211.1 161.44 216.35 169.96 228.27 162.62 219.35 148.14 211.1 161.44"/><polygon class="cls-2" points="130.87 114.17 123.81 107.09 113.89 116.97 125.89 129.01 130.87 114.17"/><polygon class="cls-2" points="528.39 138.14 534.5 146.06 545.59 137.51 535.2 124.04 528.39 138.14"/><polygon class="cls-2" points="354.72 5.8 346.13 0.69 338.97 12.71 353.57 21.41 354.72 5.8"/><polygon class="cls-2" points="489.81 150.97 480.44 154.46 485.33 167.58 501.26 161.64 489.81 150.97"/><polygon points="69.32 59.51 63.08 67.33 74.02 76.06 84.63 62.77 69.32 59.51"/><polygon class="cls-2" points="599.87 152.17 592.81 145.09 582.89 154.97 594.89 167.01 599.87 152.17"/><polygon points="573.32 207.51 567.08 215.32 578.02 224.06 588.63 210.78 573.32 207.51"/><polygon points="129.65 39.89 119.93 42.27 123.25 55.87 139.77 51.83 129.65 39.89"/><polygon points="271.65 173.89 261.93 176.27 265.25 189.87 281.77 185.83 271.65 173.89"/><polygon points="171.65 150.89 161.93 153.27 165.25 166.87 181.77 162.83 171.65 150.89"/><polygon points="523.42 89.91 521.01 99.62 534.6 102.98 538.69 86.48 523.42 89.91"/><polygon points="38.69 108.06 40.81 117.84 54.49 114.88 50.9 98.26 38.69 108.06"/><polygon points="430.69 146.06 432.81 155.84 446.49 152.88 442.89 136.26 430.69 146.06"/><polygon points="529.69 181.06 531.81 190.84 545.49 187.88 541.89 171.26 529.69 181.06"/><polygon points="326.69 149.06 328.81 158.84 342.49 155.88 338.89 139.26 326.69 149.06"/><polygon points="488.69 36.06 490.81 45.84 504.49 42.88 500.89 26.26 488.69 36.06"/><polygon points="319.87 20.12 310.6 16.37 305.35 29.35 321.11 35.73 319.87 20.12"/><polygon class="cls-2" points="119.1 160.44 124.35 168.96 136.27 161.62 127.36 147.14 119.1 160.44"/><polygon class="cls-2" points="617.82 78.03 616.22 87.9 630.04 90.13 632.76 73.35 617.82 78.03"/><polygon class="cls-2" points="19.39 79.14 25.5 87.06 36.59 78.51 26.2 65.04 19.39 79.14"/><polygon class="cls-2" points="90.87 93.17 83.81 86.09 73.89 95.97 85.89 108.01 90.87 93.17"/><polygon points="14.42 30.91 12.01 40.62 25.6 43.98 29.69 27.48 14.42 30.91"/><polygon points="372.69 196.06 374.81 205.84 388.49 202.88 384.89 186.26 372.69 196.06"/><polygon class="cls-2" points="108.82 19.03 107.22 28.9 121.04 31.13 123.76 14.35 108.82 19.03"/><polygon points="531.73 14.33 521.9 16.17 524.47 29.93 541.18 26.81 531.73 14.33"/><polygon points="594.85 44.25 585.95 39.7 579.58 52.16 594.71 59.9 594.85 44.25"/><polygon class="cls-2" points="548.85 17.14 547.25 27.01 561.07 29.24 563.78 12.46 548.85 17.14"/><polygon class="cls-2" points="64.72 182.81 56.13 177.69 48.97 189.71 63.57 198.41 64.72 182.81"/><polygon points="90.87 138.12 81.6 134.37 76.35 147.35 92.11 153.73 90.87 138.12"/></g><g id="レイヤー_3" data-name="レイヤー 3"><path class="cls-3" d="M638.57,285.06l-25.65,11.2v29.4l-.24-.05,0-3.9L600,319.55l-7.87,4.33v4.34l-4.26,2.36-.11,33.62-1.15-.58-5.55,1.2V371l-.46-.22-3,.65v-3.38l-4.85-1.89-3.25.54V312.78l-12.37-3.92v-5l-8.89-2.64-10.42,3.23v7.59l-10.9,3V326l-9.55,3.62v24.47a129,129,0,0,1-20.09,4.25V300l-8.81-5.2-25.67,2.86v56.46l-4.24-1.67-8.81,2.21v17.1l-2.35.63V304.66S442,302,432.61,303.3v3.39l-5.82,1v-3.15a15.93,15.93,0,0,0-12.22,5.59v40.59l-.23,0v-2.24l-6.23-.81-2.86,2V321.55l-3.11-.85V317H398v-9.61h-.91l-.54.86V317H389.7v3.67h-2.54l-6.51,2.83v37.76L375,364.66V361l-3.33-.84V325l-9.33-3.67L345,325.63v33.63l-5.4,1.45V339.83l-2.73-2.15L334.56,340v2.77l-1.47.06V302l-1.77-1.72v-3.52l-1.79-1.24-1.6,1.85v2.42l-2,.15V272.39l-1.77-.85v-4.18l-.78-.88-1,1.07v.91l-1.24.13v1.89l-1.37.14v-6.85l-3.88-3.83v-.73l.7-.08v-1l-.7.08v-.5l.7-.08v-1l-.7.09v-3.93l-.66.08-.66.07v3.93l-.71.09v1l.71-.09v.51l-.71.08v1l.71-.08v.72l-3.85,4.68v6.79l-1.35.14v-1.86l-1.2.13v-.9l-1-.85-.76,1v4.11l-1.71,1.19v27l-1.88.14v-2.36l-1.53-1.56-1.69,1.48v3.42L298,304.61v39.57l-1.38.06v-2.68l-2.18-2.09L292,341.75v27l-3.15-.69-3.65,1.63v3.05l-2.23-.63-.36.21v-5.59l-4.23-1.17-1.67,1V354.25l-2-1.45v-2.45l-3.8-2.71-6.23.81v2.24l-.87.12V329.88l-7-2.54V275.16s1.27-14-10.18-14c-8.91,0-11.46,7.64-11.46,13.37v33.72s-16.54,4.46-16.54,10.19V354l-5.66-1.57v-72l-11.29-3.23L181.91,283v35.12l-4.82-1.26v-4.48l-9.41-2.51-5.84,5v5L159,322.25v-9l-8.63-5.41v-.18l-.19,0-.15-.08v.13l-5.52,1.68V298.73l-9.66-3.92V276l-10.38-6.14-21.4,7.37v74.13l-4.51-.14V340l-5-3.41-6.51,1.73v12.55l-5-.15V292.29l-2.79-1.49v-1.93l-4.94-2.1v-6.86l-6.18-3.71-8.94,2.29v9.14L53,289.82l0,3.5-.15.05L51,292l-2.64.92,0,2-2.59.61v51.17l-2.46-1.57L39,346.24V318.93L36,316v-14.9l-9.83-5.44-10.37-.79-3.89,4.91v16.4l-3.53,2.6v41.68l-2.72-1.64L0,360.31v24.3H654.85V289.32Z"/><rect class="cls-4" x="388.66" y="324.24" width="1.08" height="1.42"/><rect class="cls-4" x="391.99" y="324.24" width="1.08" height="1.42"/><rect class="cls-4" x="395.31" y="324.24" width="1.08" height="1.42"/><rect class="cls-4" x="398.42" y="324.24" width="1.08" height="1.42"/><rect class="cls-4" x="388.66" y="328.48" width="1.08" height="1.42"/><rect class="cls-4" x="391.99" y="328.48" width="1.08" height="1.42"/><rect class="cls-4" x="395.31" y="328.48" width="1.08" height="1.42"/><rect class="cls-4" x="398.42" y="328.48" width="1.08" height="1.42"/><rect class="cls-4" x="388.66" y="332.72" width="1.08" height="1.42"/><rect class="cls-4" x="391.99" y="332.72" width="1.08" height="1.42"/><rect class="cls-4" x="395.31" y="332.72" width="1.08" height="1.42"/><rect class="cls-4" x="398.42" y="332.72" width="1.08" height="1.42"/><rect class="cls-4" x="388.66" y="336.96" width="1.08" height="1.42"/><rect class="cls-4" x="391.99" y="336.96" width="1.08" height="1.42"/><rect class="cls-4" x="395.31" y="336.96" width="1.08" height="1.42"/><rect class="cls-4" x="398.42" y="336.96" width="1.08" height="1.42"/><rect class="cls-4" x="388.66" y="341.2" width="1.08" height="1.42"/><rect class="cls-4" x="391.99" y="341.2" width="1.08" height="1.42"/><rect class="cls-4" x="395.31" y="341.2" width="1.08" height="1.42"/><rect class="cls-4" x="398.42" y="341.2" width="1.08" height="1.42"/><rect class="cls-4" x="388.66" y="345.44" width="1.08" height="1.42"/><rect class="cls-4" x="391.99" y="345.44" width="1.08" height="1.42"/><rect class="cls-4" x="395.31" y="345.44" width="1.08" height="1.42"/><rect class="cls-4" x="398.42" y="345.44" width="1.08" height="1.42"/><rect class="cls-4" x="388.66" y="349.68" width="1.08" height="1.42"/><rect class="cls-4" x="391.99" y="349.68" width="1.08" height="1.42"/><rect class="cls-4" x="395.31" y="349.68" width="1.08" height="1.42"/><rect class="cls-4" x="398.42" y="349.68" width="1.08" height="1.42"/><rect class="cls-4" x="388.66" y="353.93" width="1.08" height="1.42"/><rect class="cls-4" x="391.99" y="353.93" width="1.08" height="1.42"/><rect class="cls-4" x="395.31" y="353.93" width="1.08" height="1.42"/><rect class="cls-4" x="398.42" y="353.93" width="1.08" height="1.42"/><rect class="cls-4" x="388.66" y="358.17" width="1.08" height="1.42"/><rect class="cls-4" x="391.99" y="358.17" width="1.08" height="1.42"/><rect class="cls-4" x="395.31" y="358.17" width="1.08" height="1.42"/><rect class="cls-4" x="398.42" y="358.17" width="1.08" height="1.42"/><rect class="cls-4" x="388.66" y="362.41" width="1.08" height="1.42"/><rect class="cls-4" x="391.99" y="362.41" width="1.08" height="1.42"/><rect class="cls-4" x="395.31" y="362.41" width="1.08" height="1.42"/><rect class="cls-4" x="398.42" y="362.41" width="1.08" height="1.42"/><rect class="cls-4" x="388.66" y="366.65" width="1.08" height="1.42"/><rect class="cls-4" x="391.99" y="366.65" width="1.08" height="1.42"/><rect class="cls-4" x="395.31" y="366.65" width="1.08" height="1.42"/><rect class="cls-4" x="398.42" y="366.65" width="1.08" height="1.42"/><rect class="cls-4" x="388.66" y="370.89" width="1.08" height="1.42"/><rect class="cls-4" x="391.99" y="370.89" width="1.08" height="1.42"/><rect class="cls-4" x="395.31" y="370.89" width="1.08" height="1.42"/><rect class="cls-4" x="398.42" y="370.89" width="1.08" height="1.42"/><rect class="cls-4" x="388.66" y="375.13" width="1.08" height="1.42"/><rect class="cls-4" x="391.99" y="375.13" width="1.08" height="1.42"/><rect class="cls-4" x="395.31" y="375.13" width="1.08" height="1.42"/><rect class="cls-4" x="398.42" y="375.13" width="1.08" height="1.42"/><rect class="cls-4" x="388.66" y="379.37" width="1.08" height="1.42"/><rect class="cls-4" x="391.99" y="379.37" width="1.08" height="1.42"/><rect class="cls-4" x="395.31" y="379.37" width="1.08" height="1.42"/><rect class="cls-4" x="398.42" y="379.37" width="1.08" height="1.42"/><polygon class="cls-4" points="384.89 326.08 383.75 326.49 383.75 325.1 384.89 324.68 384.89 326.08"/><polygon class="cls-4" points="384.89 330.28 383.75 330.65 383.75 329.26 384.89 328.87 384.89 330.28"/><polygon class="cls-4" points="384.89 334.47 383.75 334.82 383.75 333.43 384.89 333.07 384.89 334.47"/><polygon class="cls-4" points="384.89 338.67 383.75 338.99 383.75 337.59 384.89 337.27 384.89 338.67"/><polygon class="cls-4" points="384.89 342.87 383.75 343.15 383.75 341.76 384.89 341.46 384.89 342.87"/><polygon class="cls-4" points="384.89 347.06 383.75 347.31 383.75 345.92 384.89 345.66 384.89 347.06"/><polygon class="cls-4" points="384.89 351.26 383.75 351.48 383.75 350.09 384.89 349.85 384.89 351.26"/><polygon class="cls-4" points="384.89 355.45 383.75 355.64 383.75 354.25 384.89 354.05 384.89 355.45"/><polygon class="cls-4" points="384.89 359.65 383.75 359.81 383.75 358.42 384.89 358.25 384.89 359.65"/><polygon class="cls-4" points="384.89 363.85 383.75 363.97 383.75 362.58 384.89 362.44 384.89 363.85"/><polygon class="cls-4" points="384.89 368.04 383.75 368.14 383.75 366.74 384.89 366.64 384.89 368.04"/><polygon class="cls-4" points="384.89 372.24 383.75 372.3 383.75 370.91 384.89 370.83 384.89 372.24"/><polygon class="cls-4" points="384.89 376.44 383.75 376.47 383.75 375.07 384.89 375.03 384.89 376.44"/><polygon class="cls-4" points="384.89 380.63 383.75 380.63 383.75 379.24 384.89 379.23 384.89 380.63"/><polygon class="cls-4" points="349.85 328.77 348.82 329.03 348.82 327.61 349.85 327.36 349.85 328.77"/><polygon class="cls-4" points="349.85 332.23 348.82 332.49 348.82 331.07 349.85 330.81 349.85 332.23"/><polygon class="cls-4" points="349.85 335.69 348.82 335.95 348.82 334.53 349.85 334.27 349.85 335.69"/><polygon class="cls-4" points="349.85 339.15 348.82 339.4 348.82 337.99 349.85 337.73 349.85 339.15"/><polygon class="cls-4" points="349.85 342.61 348.82 342.86 348.82 341.44 349.85 341.19 349.85 342.61"/><polygon class="cls-4" points="349.85 346.06 348.82 346.32 348.82 344.9 349.85 344.65 349.85 346.06"/><polygon class="cls-4" points="349.85 349.52 348.82 349.78 348.82 348.36 349.85 348.11 349.85 349.52"/><polygon class="cls-4" points="349.85 352.98 348.82 353.24 348.82 351.82 349.85 351.56 349.85 352.98"/><polygon class="cls-4" points="349.85 356.44 348.82 356.69 348.82 355.28 349.85 355.02 349.85 356.44"/><polygon class="cls-4" points="352.26 328.17 351.23 328.43 351.23 327.01 352.26 326.75 352.26 328.17"/><polygon class="cls-4" points="352.26 331.63 351.23 331.88 351.23 330.47 352.26 330.21 352.26 331.63"/><polygon class="cls-4" points="352.26 335.08 351.23 335.34 351.23 333.93 352.26 333.67 352.26 335.08"/><polygon class="cls-4" points="352.26 338.54 351.23 338.8 351.23 337.38 352.26 337.13 352.26 338.54"/><polygon class="cls-4" points="352.26 342 351.23 342.26 351.23 340.84 352.26 340.59 352.26 342"/><polygon class="cls-4" points="352.26 345.46 351.23 345.72 351.23 344.3 352.26 344.04 352.26 345.46"/><polygon class="cls-4" points="352.26 348.92 351.23 349.18 351.23 347.76 352.26 347.5 352.26 348.92"/><polygon class="cls-4" points="352.26 352.38 351.23 352.63 351.23 351.22 352.26 350.96 352.26 352.38"/><polygon class="cls-4" points="352.26 355.83 351.23 356.09 351.23 354.68 352.26 354.42 352.26 355.83"/><polygon class="cls-4" points="354.68 327.56 353.65 327.82 353.65 326.4 354.68 326.15 354.68 327.56"/><polygon class="cls-4" points="354.68 331.02 353.65 331.28 353.65 329.86 354.68 329.61 354.68 331.02"/><polygon class="cls-4" points="354.68 334.48 353.65 334.74 353.65 333.32 354.68 333.06 354.68 334.48"/><polygon class="cls-4" points="354.68 337.94 353.65 338.2 353.65 336.78 354.68 336.52 354.68 337.94"/><polygon class="cls-4" points="354.68 341.4 353.65 341.65 353.65 340.24 354.68 339.98 354.68 341.4"/><polygon class="cls-4" points="354.68 344.86 353.65 345.11 353.65 343.7 354.68 343.44 354.68 344.86"/><polygon class="cls-4" points="354.68 348.31 353.65 348.57 353.65 347.15 354.68 346.9 354.68 348.31"/><polygon class="cls-4" points="354.68 351.77 353.65 352.03 353.65 350.61 354.68 350.36 354.68 351.77"/><polygon class="cls-4" points="354.68 355.23 353.65 355.49 353.65 354.07 354.68 353.81 354.68 355.23"/><polygon class="cls-4" points="357.09 326.96 356.07 327.22 356.07 325.8 357.09 325.55 357.09 326.96"/><polygon class="cls-4" points="357.09 330.42 356.07 330.68 356.07 329.26 357.09 329 357.09 330.42"/><polygon class="cls-4" points="357.09 333.88 356.07 334.13 356.07 332.72 357.09 332.46 357.09 333.88"/><polygon class="cls-4" points="357.09 337.34 356.07 337.59 356.07 336.18 357.09 335.92 357.09 337.34"/><polygon class="cls-4" points="357.09 340.8 356.07 341.05 356.07 339.63 357.09 339.38 357.09 340.8"/><polygon class="cls-4" points="357.09 344.25 356.07 344.51 356.07 343.09 357.09 342.84 357.09 344.25"/><polygon class="cls-4" points="357.09 347.71 356.07 347.97 356.07 346.55 357.09 346.29 357.09 347.71"/><polygon class="cls-4" points="357.09 351.17 356.07 351.43 356.07 350.01 357.09 349.75 357.09 351.17"/><polygon class="cls-4" points="357.09 354.63 356.07 354.88 356.07 353.46 357.09 353.21 357.09 354.63"/><polygon class="cls-4" points="359.51 326.36 358.48 326.61 358.48 325.19 359.51 324.94 359.51 326.36"/><polygon class="cls-4" points="359.51 329.82 358.48 330.07 358.48 328.65 359.51 328.4 359.51 329.82"/><polygon class="cls-4" points="359.51 333.27 358.48 333.53 358.48 332.11 359.51 331.86 359.51 333.27"/><polygon class="cls-4" points="359.51 336.73 358.48 336.99 358.48 335.57 359.51 335.31 359.51 336.73"/><polygon class="cls-4" points="359.51 340.19 358.48 340.45 358.48 339.03 359.51 338.77 359.51 340.19"/><polygon class="cls-4" points="359.51 343.65 358.48 343.9 358.48 342.49 359.51 342.23 359.51 343.65"/><polygon class="cls-4" points="359.51 347.11 358.48 347.36 358.48 345.95 359.51 345.69 359.51 347.11"/><polygon class="cls-4" points="359.51 350.56 358.48 350.82 358.48 349.4 359.51 349.15 359.51 350.56"/><polygon class="cls-4" points="359.51 354.02 358.48 354.28 358.48 352.86 359.51 352.61 359.51 354.02"/><polygon class="cls-4" points="342.09 365.01 341.16 365.2 341.16 363.94 342.09 363.73 342.09 365.01"/><polygon class="cls-4" points="342.09 368.13 341.16 368.29 341.16 367.03 342.09 366.85 342.09 368.13"/><polygon class="cls-4" points="342.09 371.25 341.16 371.38 341.16 370.12 342.09 369.97 342.09 371.25"/><polygon class="cls-4" points="342.09 374.37 341.16 374.47 341.16 373.2 342.09 373.09 342.09 374.37"/><polygon class="cls-4" points="342.09 377.49 341.16 377.56 341.16 376.29 342.09 376.21 342.09 377.49"/><polygon class="cls-4" points="342.09 380.61 341.16 380.64 341.16 379.38 342.09 379.33 342.09 380.61"/><polygon class="cls-4" points="344.35 364.55 343.38 364.74 343.38 363.45 344.35 363.23 344.35 364.55"/><polygon class="cls-4" points="344.35 367.74 343.38 367.91 343.38 366.61 344.35 366.43 344.35 367.74"/><polygon class="cls-4" points="344.35 370.94 343.38 371.07 343.38 369.77 344.35 369.63 344.35 370.94"/><polygon class="cls-4" points="344.35 374.13 343.38 374.23 343.38 372.94 344.35 372.82 344.35 374.13"/><polygon class="cls-4" points="344.35 377.33 343.38 377.4 343.38 376.11 344.35 376.02 344.35 377.33"/><polygon class="cls-4" points="344.35 380.53 343.38 380.56 343.38 379.27 344.35 379.22 344.35 380.53"/><polygon class="cls-4" points="346.72 364.05 345.7 364.26 345.7 362.93 346.72 362.7 346.72 364.05"/><polygon class="cls-4" points="346.72 367.33 345.7 367.5 345.7 366.18 346.72 365.99 346.72 367.33"/><polygon class="cls-4" points="346.72 370.61 345.7 370.75 345.7 369.42 346.72 369.26 346.72 370.61"/><polygon class="cls-4" points="346.72 373.89 345.7 373.99 345.7 372.66 346.72 372.54 346.72 373.89"/><polygon class="cls-4" points="346.72 377.17 345.7 377.24 345.7 375.91 346.72 375.82 346.72 377.17"/><polygon class="cls-4" points="346.72 380.44 345.7 380.48 345.7 379.15 346.72 379.1 346.72 380.44"/><polygon class="cls-4" points="349.22 363.53 348.14 363.75 348.14 362.39 349.22 362.15 349.22 363.53"/><polygon class="cls-4" points="349.22 366.9 348.14 367.08 348.14 365.72 349.22 365.52 349.22 366.9"/><polygon class="cls-4" points="349.22 370.26 348.14 370.41 348.14 369.05 349.22 368.88 349.22 370.26"/><polygon class="cls-4" points="349.22 373.63 348.14 373.74 348.14 372.38 349.22 372.25 349.22 373.63"/><polygon class="cls-4" points="349.22 376.99 348.14 377.06 348.14 375.7 349.22 375.61 349.22 376.99"/><polygon class="cls-4" points="349.22 380.35 348.14 380.39 348.14 379.03 349.22 378.97 349.22 380.35"/><polygon class="cls-4" points="351.85 362.98 350.72 363.22 350.72 361.82 351.85 361.57 351.85 362.98"/><polygon class="cls-4" points="351.85 366.44 350.72 366.63 350.72 365.24 351.85 365.02 351.85 366.44"/><polygon class="cls-4" points="351.85 369.89 350.72 370.05 350.72 368.65 351.85 368.48 351.85 369.89"/><polygon class="cls-4" points="351.85 373.35 350.72 373.47 350.72 372.07 351.85 371.93 351.85 373.35"/><polygon class="cls-4" points="351.85 376.8 350.72 376.88 350.72 375.49 351.85 375.39 351.85 376.8"/><polygon class="cls-4" points="351.85 380.26 350.72 380.3 350.72 378.9 351.85 378.84 351.85 380.26"/><polygon class="cls-4" points="354.68 362.42 353.55 362.65 353.55 361.25 354.68 361 354.68 362.42"/><polygon class="cls-4" points="354.68 365.88 353.55 366.07 353.55 364.67 354.68 364.45 354.68 365.88"/><polygon class="cls-4" points="354.68 369.33 353.55 369.48 353.55 368.09 354.68 367.91 354.68 369.33"/><polygon class="cls-4" points="354.68 373.03 353.55 373.15 353.55 371.75 354.68 371.62 354.68 373.03"/><polygon class="cls-4" points="354.68 376.61 353.55 376.69 353.55 375.29 354.68 375.19 354.68 376.61"/><polygon class="cls-4" points="354.68 380.19 353.55 380.23 353.55 378.83 354.68 378.77 354.68 380.19"/><path class="cls-5" d="M298.65,351.3v2a.46.46,0,0,1-.25.36,1.17,1.17,0,0,1-.51.15v-2a1.27,1.27,0,0,0,.51-.16.44.44,0,0,0,.24-.36"/><polygon class="cls-6" points="314.18 268.45 313.3 268.54 313.3 266.68 314.18 266.58 314.18 268.45"/><polygon class="cls-6" points="314.18 275.64 313.3 275.73 313.3 274.01 314.18 273.92 314.18 275.64"/><polygon class="cls-6" points="296.57 351.65 295.73 351.68 295.73 349.99 296.57 349.96 296.57 351.65"/><polygon class="cls-6" points="298.39 351.6 297.54 351.63 297.54 349.93 298.39 349.9 298.39 351.6"/><polygon class="cls-6" points="301.71 351.5 300.86 351.52 300.86 349.82 301.71 349.8 301.71 351.5"/><polygon class="cls-6" points="303.55 351.44 302.69 351.47 302.69 349.77 303.55 349.74 303.55 351.44"/><polygon class="cls-6" points="306.9 351.34 306.04 351.36 306.04 349.66 306.9 349.63 306.9 351.34"/><polygon class="cls-6" points="308.75 351.28 307.89 351.31 307.89 349.6 308.75 349.57 308.75 351.28"/><polygon class="cls-6" points="312.14 351.17 311.27 351.2 311.27 349.49 312.14 349.46 312.14 351.17"/><polygon class="cls-6" points="314.01 351.12 313.13 351.15 313.13 349.43 314.01 349.4 314.01 351.12"/><polygon class="cls-6" points="317.43 351.01 316.55 351.04 316.55 349.32 317.43 349.29 317.43 351.01"/><polygon class="cls-6" points="319.32 350.95 318.44 350.98 318.44 349.26 319.32 349.23 319.32 350.95"/><polygon class="cls-6" points="322.77 350.85 321.88 350.87 321.88 349.15 322.77 349.12 322.77 350.85"/><polygon class="cls-6" points="324.68 350.79 323.79 350.82 323.79 349.09 324.68 349.06 324.68 350.79"/><polygon class="cls-6" points="328.17 350.69 327.27 350.71 327.27 348.97 328.17 348.94 328.17 350.69"/><polygon class="cls-6" points="330.09 350.63 329.19 350.65 329.19 348.91 330.09 348.88 330.09 350.63"/><polygon class="cls-6" points="333.61 350.51 332.7 350.54 332.7 348.8 333.61 348.77 333.61 350.51"/><polygon class="cls-6" points="335.56 350.45 334.65 350.48 334.65 348.73 335.56 348.7 335.56 350.45"/><polygon class="cls-6" points="296.57 355.6 295.73 355.62 295.73 353.93 296.57 353.91 296.57 355.6"/><polygon class="cls-6" points="298.39 355.55 297.54 355.57 297.54 353.88 298.39 353.86 298.39 355.55"/><polygon class="cls-6" points="301.71 355.46 300.86 355.48 300.86 353.78 301.71 353.76 301.71 355.46"/><polygon class="cls-6" points="303.55 355.41 302.69 355.43 302.69 353.73 303.55 353.71 303.55 355.41"/><polygon class="cls-6" points="306.9 355.32 306.04 355.34 306.04 353.64 306.9 353.61 306.9 355.32"/><polygon class="cls-6" points="308.75 355.27 307.89 355.29 307.89 353.58 308.75 353.56 308.75 355.27"/><polygon class="cls-6" points="312.14 355.18 311.27 355.2 311.27 353.49 312.14 353.46 312.14 355.18"/><polygon class="cls-6" points="314.01 355.13 313.13 355.15 313.13 353.43 314.01 353.41 314.01 355.13"/><polygon class="cls-6" points="317.43 355.03 316.55 355.06 316.55 353.34 317.43 353.31 317.43 355.03"/><polygon class="cls-6" points="319.32 354.98 318.44 355 318.44 353.28 319.32 353.26 319.32 354.98"/><polygon class="cls-6" points="322.77 354.89 321.88 354.91 321.88 353.18 322.77 353.15 322.77 354.89"/><polygon class="cls-6" points="324.68 354.84 323.79 354.86 323.79 353.13 324.68 353.1 324.68 354.84"/><polygon class="cls-6" points="328.17 354.74 327.27 354.77 327.27 353.03 328.17 353 328.17 354.74"/><polygon class="cls-6" points="330.09 354.69 329.19 354.71 329.19 352.97 330.09 352.95 330.09 354.69"/><polygon class="cls-6" points="333.61 354.6 332.7 354.62 332.7 352.87 333.61 352.85 333.61 354.6"/><polygon class="cls-6" points="335.56 354.54 334.65 354.57 334.65 352.81 335.56 352.79 335.56 354.54"/><polygon class="cls-6" points="296.57 359.54 295.73 359.56 295.73 357.87 296.57 357.85 296.57 359.54"/><polygon class="cls-6" points="298.39 359.5 297.54 359.52 297.54 357.83 298.39 357.81 298.39 359.5"/><polygon class="cls-6" points="301.71 359.42 300.86 359.44 300.86 357.74 301.71 357.72 301.71 359.42"/><polygon class="cls-6" points="303.55 359.38 302.69 359.4 302.69 357.7 303.55 357.68 303.55 359.38"/><polygon class="cls-6" points="306.9 359.3 306.04 359.32 306.04 357.61 306.9 357.59 306.9 359.3"/><polygon class="cls-6" points="308.75 359.26 307.89 359.28 307.89 357.57 308.75 357.55 308.75 359.26"/><polygon class="cls-6" points="312.14 359.18 311.27 359.19 311.27 357.49 312.14 357.46 312.14 359.18"/><polygon class="cls-6" points="314.01 359.13 313.13 359.15 313.13 357.44 314.01 357.41 314.01 359.13"/><polygon class="cls-6" points="317.43 359.05 316.55 359.07 316.55 357.35 317.43 357.33 317.43 359.05"/><polygon class="cls-6" points="319.32 359.01 318.44 359.03 318.44 357.31 319.32 357.28 319.32 359.01"/><polygon class="cls-6" points="322.77 358.93 321.88 358.95 321.88 357.22 322.77 357.2 322.77 358.93"/><polygon class="cls-6" points="324.68 358.88 323.79 358.9 323.79 357.17 324.68 357.15 324.68 358.88"/><polygon class="cls-6" points="328.17 358.8 327.27 358.82 327.27 357.08 328.17 357.06 328.17 358.8"/><polygon class="cls-6" points="330.09 358.76 329.19 358.78 329.19 357.04 330.09 357.01 330.09 358.76"/><polygon class="cls-6" points="333.61 358.67 332.7 358.69 332.7 356.95 333.61 356.93 333.61 358.67"/><polygon class="cls-6" points="335.56 358.63 334.65 358.65 334.65 356.9 335.56 356.88 335.56 358.63"/><polygon class="cls-6" points="296.57 363.48 295.73 363.5 295.73 361.81 296.57 361.79 296.57 363.48"/><polygon class="cls-6" points="298.39 363.45 297.54 363.46 297.54 361.77 298.39 361.76 298.39 363.45"/><polygon class="cls-6" points="301.71 363.38 300.86 363.4 300.86 361.7 301.71 361.68 301.71 363.38"/><polygon class="cls-6" points="303.55 363.34 302.69 363.36 302.69 361.66 303.55 361.64 303.55 363.34"/><polygon class="cls-6" points="306.9 363.28 306.04 363.3 306.04 361.59 306.9 361.57 306.9 363.28"/><polygon class="cls-6" points="308.75 363.24 307.89 363.26 307.89 361.55 308.75 361.54 308.75 363.24"/><polygon class="cls-6" points="312.14 363.18 311.27 363.19 311.27 361.48 312.14 361.46 312.14 363.18"/><polygon class="cls-6" points="314.01 363.14 313.13 363.15 313.13 361.44 314.01 361.42 314.01 363.14"/><polygon class="cls-6" points="317.43 363.07 316.55 363.09 316.55 361.37 317.43 361.35 317.43 363.07"/><polygon class="cls-6" points="319.32 363.03 318.44 363.05 318.44 361.32 319.32 361.31 319.32 363.03"/><polygon class="cls-6" points="322.77 362.97 321.88 362.98 321.88 361.25 322.77 361.23 322.77 362.97"/><polygon class="cls-6" points="324.68 362.93 323.79 362.94 323.79 361.21 324.68 361.19 324.68 362.93"/><polygon class="cls-6" points="328.17 362.86 327.27 362.88 327.27 361.14 328.17 361.12 328.17 362.86"/><polygon class="cls-6" points="330.09 362.82 329.19 362.84 329.19 361.1 330.09 361.08 330.09 362.82"/><polygon class="cls-6" points="333.61 362.75 332.7 362.77 332.7 361.02 333.61 361 333.61 362.75"/><polygon class="cls-6" points="335.56 362.71 334.65 362.73 334.65 360.98 335.56 360.96 335.56 362.71"/><polygon class="cls-6" points="296.57 367.43 295.73 367.44 295.73 365.75 296.57 365.74 296.57 367.43"/><polygon class="cls-6" points="298.39 367.4 297.54 367.41 297.54 365.72 298.39 365.7 298.39 367.4"/><polygon class="cls-6" points="301.71 367.35 300.86 367.36 300.86 365.66 301.71 365.64 301.71 367.35"/><polygon class="cls-6" points="303.55 367.31 302.69 367.33 302.69 365.63 303.55 365.61 303.55 367.31"/><polygon class="cls-6" points="306.9 367.26 306.04 367.27 306.04 365.57 306.9 365.55 306.9 367.26"/><polygon class="cls-6" points="308.75 367.23 307.89 367.24 307.89 365.54 308.75 365.52 308.75 367.23"/><polygon class="cls-6" points="312.14 367.18 311.27 367.19 311.27 365.48 312.14 365.46 312.14 367.18"/><polygon class="cls-6" points="314.01 367.15 313.13 367.16 313.13 365.45 314.01 365.43 314.01 367.15"/><polygon class="cls-6" points="317.43 367.09 316.55 367.11 316.55 365.38 317.43 365.37 317.43 367.09"/><polygon class="cls-6" points="319.32 367.06 318.44 367.08 318.44 365.35 319.32 365.33 319.32 367.06"/><polygon class="cls-6" points="322.77 367.01 321.88 367.02 321.88 365.29 322.77 365.27 322.77 367.01"/><polygon class="cls-6" points="324.68 366.97 323.79 366.99 323.79 365.26 324.68 365.24 324.68 366.97"/><polygon class="cls-6" points="328.17 366.92 327.27 366.93 327.27 365.19 328.17 365.18 328.17 366.92"/><polygon class="cls-6" points="330.09 366.89 329.19 366.9 329.19 365.16 330.09 365.14 330.09 366.89"/><polygon class="cls-6" points="333.61 366.83 332.7 366.84 332.7 365.1 333.61 365.08 333.61 366.83"/><polygon class="cls-6" points="335.56 366.8 334.65 366.81 334.65 365.06 335.56 365.05 335.56 366.8"/><polygon class="cls-6" points="296.57 371.37 295.73 371.38 295.73 369.69 296.57 369.68 296.57 371.37"/><polygon class="cls-6" points="298.39 371.35 297.54 371.36 297.54 369.67 298.39 369.65 298.39 371.35"/><polygon class="cls-6" points="301.71 371.3 300.86 371.31 300.86 369.62 301.71 369.61 301.71 371.3"/><polygon class="cls-6" points="303.55 371.28 302.69 371.3 302.69 369.6 303.55 369.58 303.55 371.28"/><polygon class="cls-6" points="306.9 371.24 306.04 371.25 306.04 369.55 306.9 369.53 306.9 371.24"/><polygon class="cls-6" points="308.75 371.22 307.89 371.23 307.89 369.52 308.75 369.51 308.75 371.22"/><polygon class="cls-6" points="312.14 371.18 311.27 371.19 311.27 369.47 312.14 369.46 312.14 371.18"/><polygon class="cls-6" points="314.01 371.15 313.13 371.17 313.13 369.45 314.01 369.44 314.01 371.15"/><polygon class="cls-6" points="317.43 371.11 316.55 371.12 316.55 369.4 317.43 369.39 317.43 371.11"/><polygon class="cls-6" points="319.32 371.09 318.44 371.1 318.44 369.37 319.32 369.36 319.32 371.09"/><polygon class="cls-6" points="322.77 371.05 321.88 371.06 321.88 369.32 322.77 369.31 322.77 371.05"/><polygon class="cls-6" points="324.68 371.02 323.79 371.03 323.79 369.3 324.68 369.29 324.68 371.02"/><polygon class="cls-6" points="328.17 370.98 327.27 370.99 327.27 369.25 328.17 369.24 328.17 370.98"/><polygon class="cls-6" points="330.09 370.95 329.19 370.96 329.19 369.22 330.09 369.21 330.09 370.95"/><polygon class="cls-6" points="333.61 370.91 332.7 370.92 332.7 369.17 333.61 369.16 333.61 370.91"/><polygon class="cls-6" points="335.56 370.89 334.65 370.9 334.65 369.15 335.56 369.14 335.56 370.89"/><polygon class="cls-6" points="296.57 375.31 295.73 375.32 295.73 373.63 296.57 373.62 296.57 375.31"/><polygon class="cls-6" points="298.39 375.3 297.54 375.3 297.54 373.61 298.39 373.6 298.39 375.3"/><polygon class="cls-6" points="301.71 375.26 300.86 375.27 300.86 373.58 301.71 373.57 301.71 375.26"/><polygon class="cls-6" points="303.55 375.25 302.69 375.26 302.69 373.56 303.55 373.55 303.55 375.25"/><polygon class="cls-6" points="306.9 375.22 306.04 375.23 306.04 373.52 306.9 373.51 306.9 375.22"/><polygon class="cls-6" points="308.75 375.21 307.89 375.21 307.89 373.51 308.75 373.5 308.75 375.21"/><polygon class="cls-6" points="312.14 375.18 311.27 375.18 311.27 373.47 312.14 373.46 312.14 375.18"/><polygon class="cls-6" points="314.01 375.16 313.13 375.17 313.13 373.45 314.01 373.44 314.01 375.16"/><polygon class="cls-6" points="317.43 375.13 316.55 375.14 316.55 373.42 317.43 373.41 317.43 375.13"/><polygon class="cls-6" points="319.32 375.11 318.44 375.12 318.44 373.4 319.32 373.39 319.32 375.11"/><polygon class="cls-6" points="322.77 375.08 321.88 375.09 321.88 373.36 322.77 373.35 322.77 375.08"/><polygon class="cls-6" points="324.68 375.07 323.79 375.07 323.79 373.34 324.68 373.33 324.68 375.07"/><polygon class="cls-6" points="328.17 375.04 327.27 375.04 327.27 373.31 328.17 373.3 328.17 375.04"/><polygon class="cls-6" points="330.09 375.02 329.19 375.03 329.19 373.29 330.09 373.28 330.09 375.02"/><polygon class="cls-6" points="333.61 374.99 332.7 375 332.7 373.25 333.61 373.24 333.61 374.99"/><polygon class="cls-6" points="335.56 374.97 334.65 374.98 334.65 373.23 335.56 373.22 335.56 374.97"/><polygon class="cls-6" points="296.57 379.25 295.73 379.26 295.73 377.57 296.57 377.56 296.57 379.25"/><polygon class="cls-6" points="298.39 379.25 297.54 379.25 297.54 377.56 298.39 377.55 298.39 379.25"/><polygon class="cls-6" points="301.71 379.23 300.86 379.23 300.86 377.53 301.71 377.53 301.71 379.23"/><polygon class="cls-6" points="303.55 379.22 302.69 379.22 302.69 377.52 303.55 377.52 303.55 379.22"/><polygon class="cls-6" points="306.9 379.2 306.04 379.21 306.04 377.5 306.9 377.5 306.9 379.2"/><polygon class="cls-6" points="308.75 379.19 307.89 379.2 307.89 377.49 308.75 377.49 308.75 379.19"/><polygon class="cls-6" points="312.14 379.18 311.27 379.18 311.27 377.47 312.14 377.46 312.14 379.18"/><polygon class="cls-6" points="314.01 379.17 313.13 379.17 313.13 377.45 314.01 377.45 314.01 379.17"/><polygon class="cls-6" points="317.43 379.15 316.55 379.15 316.55 377.43 317.43 377.43 317.43 379.15"/><polygon class="cls-6" points="319.32 379.14 318.44 379.15 318.44 377.42 319.32 377.41 319.32 379.14"/><polygon class="cls-6" points="322.77 379.13 321.88 379.13 321.88 377.4 322.77 377.39 322.77 379.13"/><polygon class="cls-6" points="324.68 379.12 323.79 379.12 323.79 377.38 324.68 377.38 324.68 379.12"/><polygon class="cls-6" points="328.17 379.1 327.27 379.1 327.27 377.36 328.17 377.36 328.17 379.1"/><polygon class="cls-6" points="330.09 379.09 329.19 379.09 329.19 377.35 330.09 377.35 330.09 379.09"/><polygon class="cls-6" points="333.61 379.07 332.7 379.07 332.7 377.33 333.61 377.32 333.61 379.07"/><polygon class="cls-6" points="335.56 379.06 334.65 379.07 334.65 377.31 335.56 377.31 335.56 379.06"/><rect class="cls-6" x="295.72" y="381.51" width="0.85" height="1.69"/><rect class="cls-6" x="297.54" y="381.5" width="0.85" height="1.69" transform="translate(-1.71 1.34) rotate(-0.26)"/><rect class="cls-6" x="300.86" y="381.49" width="0.86" height="1.7"/><rect class="cls-6" x="302.69" y="381.49" width="0.86" height="1.7"/><polygon class="cls-6" points="306.9 383.18 306.04 383.18 306.04 381.48 306.9 381.48 306.9 383.18"/><rect class="cls-6" x="307.89" y="381.47" width="0.87" height="1.71"/><rect class="cls-6" x="311.27" y="381.46" width="0.87" height="1.71"/><polygon class="cls-6" points="314.01 383.17 313.13 383.18 313.13 381.46 314.01 381.45 314.01 383.17"/><rect class="cls-6" x="316.55" y="381.45" width="0.88" height="1.72"/><rect class="cls-6" x="318.43" y="381.44" width="0.88" height="1.72"/><rect class="cls-6" x="321.88" y="381.43" width="0.89" height="1.73" transform="translate(-0.94 0.79) rotate(-0.14)"/><rect class="cls-6" x="323.79" y="381.43" width="0.89" height="1.73" transform="translate(-1.4 1.19) rotate(-0.21)"/><rect class="cls-6" x="327.27" y="381.42" width="0.9" height="1.74"/><rect class="cls-6" x="329.19" y="381.41" width="0.9" height="1.74"/><rect class="cls-6" x="332.71" y="381.4" width="0.91" height="1.75"/><rect class="cls-6" x="334.65" y="381.39" width="0.91" height="1.75"/><polygon class="cls-6" points="314.18 279.65 313.3 279.73 313.3 278.01 314.18 277.93 314.18 279.65"/><polygon class="cls-6" points="314.18 283.65 313.3 283.73 313.3 282.02 314.18 281.93 314.18 283.65"/><polygon class="cls-6" points="314.18 287.66 313.3 287.74 313.3 286.02 314.18 285.94 314.18 287.66"/><polygon class="cls-6" points="314.18 291.67 313.3 291.74 313.3 290.03 314.18 289.95 314.18 291.67"/><polygon class="cls-6" points="314.18 295.68 313.3 295.75 313.3 294.03 314.18 293.96 314.18 295.68"/><polygon class="cls-6" points="314.18 299.68 313.3 299.75 313.3 298.04 314.18 297.96 314.18 299.68"/><polygon class="cls-6" points="314.18 305.53 313.3 305.59 313.3 303.88 314.18 303.81 314.18 305.53"/><polygon class="cls-6" points="314.18 309.54 313.3 309.59 313.3 307.88 314.18 307.82 314.18 309.54"/><polygon class="cls-6" points="314.18 313.54 313.3 313.6 313.3 311.88 314.18 311.83 314.18 313.54"/><polygon class="cls-6" points="314.18 317.55 313.3 317.6 313.3 315.89 314.18 315.83 314.18 317.55"/><polygon class="cls-6" points="314.18 321.56 313.3 321.61 313.3 319.89 314.18 319.84 314.18 321.56"/><polygon class="cls-6" points="314.18 325.56 313.3 325.61 313.3 323.9 314.18 323.85 314.18 325.56"/><polygon class="cls-6" points="314.18 329.57 313.3 329.62 313.3 327.9 314.18 327.86 314.18 329.57"/><polygon class="cls-6" points="314.18 333.58 313.3 333.62 313.3 331.91 314.18 331.87 314.18 333.58"/><polygon class="cls-6" points="314.18 337.59 313.3 337.62 313.3 335.91 314.18 335.87 314.18 337.59"/><polygon class="cls-6" points="314.18 341.6 313.3 341.63 313.3 339.91 314.18 339.88 314.18 341.6"/><polygon class="cls-6" points="314.18 345.6 313.3 345.63 313.3 343.92 314.18 343.89 314.18 345.6"/><polygon class="cls-6" points="311.12 305.75 310.25 305.81 310.25 304.1 311.12 304.04 311.12 305.75"/><polygon class="cls-6" points="311.12 309.75 310.25 309.81 310.25 308.09 311.12 308.04 311.12 309.75"/><polygon class="cls-6" points="311.12 313.75 310.25 313.8 310.25 312.09 311.12 312.03 311.12 313.75"/><polygon class="cls-6" points="311.12 317.74 310.25 317.79 310.25 316.08 311.12 316.03 311.12 317.74"/><polygon class="cls-6" points="311.12 321.73 310.25 321.79 310.25 320.07 311.12 320.02 311.12 321.73"/><polygon class="cls-6" points="311.12 325.73 310.25 325.78 310.25 324.07 311.12 324.02 311.12 325.73"/><polygon class="cls-6" points="311.12 329.73 310.25 329.77 310.25 328.06 311.12 328.01 311.12 329.73"/><polygon class="cls-6" points="311.12 333.73 310.25 333.76 310.25 332.05 311.12 332.01 311.12 333.73"/><polygon class="cls-6" points="311.12 337.72 310.25 337.76 310.25 336.05 311.12 336 311.12 337.72"/><polygon class="cls-6" points="311.12 341.72 310.25 341.75 310.25 340.04 311.12 340 311.12 341.72"/><polygon class="cls-6" points="311.12 345.71 310.25 345.75 310.25 344.03 311.12 344 311.12 345.71"/><polygon class="cls-6" points="307.57 306.01 306.71 306.07 306.71 304.36 307.57 304.3 307.57 306.01"/><polygon class="cls-6" points="307.57 309.99 306.71 310.05 306.71 308.35 307.57 308.28 307.57 309.99"/><polygon class="cls-6" points="307.57 313.97 306.71 314.03 306.71 312.33 307.57 312.27 307.57 313.97"/><polygon class="cls-6" points="307.57 317.96 306.71 318.01 306.71 316.31 307.57 316.25 307.57 317.96"/><polygon class="cls-6" points="307.57 321.94 306.71 321.99 306.71 320.28 307.57 320.23 307.57 321.94"/><polygon class="cls-6" points="307.57 325.93 306.71 325.97 306.71 324.26 307.57 324.21 307.57 325.93"/><polygon class="cls-6" points="307.57 329.91 306.71 329.95 306.71 328.24 307.57 328.2 307.57 329.91"/><polygon class="cls-6" points="307.57 333.89 306.71 333.93 306.71 332.22 307.57 332.18 307.57 333.89"/><polygon class="cls-6" points="307.57 337.87 306.71 337.91 306.71 336.2 307.57 336.17 307.57 337.87"/><polygon class="cls-6" points="307.57 341.86 306.71 341.89 306.71 340.19 307.57 340.15 307.57 341.86"/><polygon class="cls-6" points="307.57 345.84 306.71 345.87 306.71 344.17 307.57 344.13 307.57 345.84"/><polygon class="cls-6" points="304.72 306.22 303.86 306.28 303.86 304.58 304.72 304.51 304.72 306.22"/><polygon class="cls-6" points="304.72 310.19 303.86 310.25 303.86 308.54 304.72 308.49 304.72 310.19"/><polygon class="cls-6" points="304.72 314.16 303.86 314.22 303.86 312.51 304.72 312.46 304.72 314.16"/><polygon class="cls-6" points="304.72 318.13 303.86 318.18 303.86 316.48 304.72 316.43 304.72 318.13"/><polygon class="cls-6" points="304.72 322.11 303.86 322.16 303.86 320.45 304.72 320.4 304.72 322.11"/><polygon class="cls-6" points="304.72 326.08 303.86 326.12 303.86 324.42 304.72 324.38 304.72 326.08"/><polygon class="cls-6" points="304.72 330.05 303.86 330.1 303.86 328.39 304.72 328.35 304.72 330.05"/><polygon class="cls-6" points="304.72 334.03 303.86 334.06 303.86 332.36 304.72 332.32 304.72 334.03"/><polygon class="cls-6" points="304.72 338 303.86 338.03 303.86 336.33 304.72 336.29 304.72 338"/><polygon class="cls-6" points="304.72 341.97 303.86 342 303.86 340.3 304.72 340.27 304.72 341.97"/><polygon class="cls-6" points="304.72 345.94 303.86 345.97 303.86 344.27 304.72 344.24 304.72 345.94"/><polygon class="cls-6" points="302.04 306.41 301.19 306.47 301.19 304.77 302.04 304.71 302.04 306.41"/><polygon class="cls-6" points="302.04 310.37 301.19 310.43 301.19 308.73 302.04 308.67 302.04 310.37"/><polygon class="cls-6" points="302.04 314.34 301.19 314.39 301.19 312.69 302.04 312.64 302.04 314.34"/><polygon class="cls-6" points="302.04 318.3 301.19 318.35 301.19 316.65 302.04 316.6 302.04 318.3"/><polygon class="cls-6" points="302.04 322.26 301.19 322.31 301.19 320.61 302.04 320.56 302.04 322.26"/><polygon class="cls-6" points="302.04 326.23 301.19 326.27 301.19 324.57 302.04 324.53 302.04 326.23"/><polygon class="cls-6" points="302.04 330.19 301.19 330.23 301.19 328.54 302.04 328.49 302.04 330.19"/><polygon class="cls-6" points="302.04 334.15 301.19 334.19 301.19 332.49 302.04 332.45 302.04 334.15"/><polygon class="cls-6" points="302.04 338.11 301.19 338.15 301.19 336.45 302.04 336.41 302.04 338.11"/><polygon class="cls-6" points="302.04 342.08 301.19 342.11 301.19 340.41 302.04 340.38 302.04 342.08"/><polygon class="cls-6" points="302.04 346.04 301.19 346.07 301.19 344.37 302.04 344.34 302.04 346.04"/><polygon class="cls-6" points="311.46 275.91 310.59 276 310.59 274.29 311.46 274.2 311.46 275.91"/><polygon class="cls-6" points="311.46 279.91 310.59 279.99 310.59 278.28 311.46 278.19 311.46 279.91"/><polygon class="cls-6" points="311.46 283.91 310.59 283.99 310.59 282.27 311.46 282.19 311.46 283.91"/><polygon class="cls-6" points="311.46 287.91 310.59 287.98 310.59 286.27 311.46 286.19 311.46 287.91"/><polygon class="cls-6" points="311.46 291.9 310.59 291.98 310.59 290.26 311.46 290.19 311.46 291.9"/><polygon class="cls-6" points="311.46 295.9 310.59 295.97 310.59 294.26 311.46 294.18 311.46 295.9"/><polygon class="cls-6" points="311.46 299.89 310.59 299.97 310.59 298.25 311.46 298.19 311.46 299.89"/><polygon class="cls-6" points="308.59 280.19 307.72 280.27 307.72 278.56 308.59 278.48 308.59 280.19"/><polygon class="cls-6" points="308.59 284.17 307.72 284.25 307.72 282.54 308.59 282.46 308.59 284.17"/><polygon class="cls-6" points="308.59 288.16 307.72 288.24 307.72 286.53 308.59 286.45 308.59 288.16"/><polygon class="cls-6" points="308.59 292.15 307.72 292.22 307.72 290.51 308.59 290.44 308.59 292.15"/><polygon class="cls-6" points="308.59 296.14 307.72 296.21 307.72 294.5 308.59 294.43 308.59 296.14"/><polygon class="cls-6" points="308.59 300.12 307.72 300.19 307.72 298.48 308.59 298.41 308.59 300.12"/><polygon class="cls-6" points="316.11 275.44 316.99 275.36 316.99 273.63 316.11 273.73 316.11 275.44"/><polygon class="cls-6" points="316.11 279.46 316.99 279.38 316.99 277.65 316.11 277.74 316.11 279.46"/><polygon class="cls-6" points="316.11 283.48 316.99 283.39 316.99 281.67 316.11 281.75 316.11 283.48"/><polygon class="cls-6" points="316.11 287.49 316.99 287.41 316.99 285.69 316.11 285.77 316.11 287.49"/><polygon class="cls-6" points="316.11 291.5 316.99 291.43 316.99 289.71 316.11 289.78 316.11 291.5"/><polygon class="cls-6" points="316.11 295.52 316.99 295.45 316.99 293.72 316.11 293.8 316.11 295.52"/><polygon class="cls-6" points="316.11 299.53 316.99 299.47 316.99 297.74 316.11 297.81 316.11 299.53"/><polygon class="cls-6" points="316.11 305.39 316.99 305.32 316.99 303.6 316.11 303.67 316.11 305.39"/><polygon class="cls-6" points="316.11 309.4 316.99 309.34 316.99 307.62 316.11 307.68 316.11 309.4"/><polygon class="cls-6" points="316.11 313.42 316.99 313.36 316.99 311.64 316.11 311.7 316.11 313.42"/><polygon class="cls-6" points="316.11 317.43 316.99 317.38 316.99 315.66 316.11 315.71 316.11 317.43"/><polygon class="cls-6" points="316.11 321.44 316.99 321.4 316.99 319.68 316.11 319.72 316.11 321.44"/><polygon class="cls-6" points="316.11 325.46 316.99 325.41 316.99 323.69 316.11 323.74 316.11 325.46"/><polygon class="cls-6" points="316.11 329.48 316.99 329.43 316.99 327.71 316.11 327.75 316.11 329.48"/><polygon class="cls-6" points="316.11 333.49 316.99 333.45 316.99 331.73 316.11 331.77 316.11 333.49"/><polygon class="cls-6" points="316.11 337.51 316.99 337.46 316.99 335.75 316.11 335.78 316.11 337.51"/><polygon class="cls-6" points="316.11 341.52 316.99 341.48 316.99 339.76 316.11 339.8 316.11 341.52"/><polygon class="cls-6" points="316.11 345.54 316.99 345.5 316.99 343.78 316.11 343.81 316.11 345.54"/><polygon class="cls-6" points="319.2 305.16 320.08 305.1 320.08 303.37 319.2 303.44 319.2 305.16"/><polygon class="cls-6" points="319.2 309.19 320.08 309.13 320.08 307.4 319.2 307.46 319.2 309.19"/><polygon class="cls-6" points="319.2 313.21 320.08 313.16 320.08 311.43 319.2 311.49 319.2 313.21"/><polygon class="cls-6" points="319.2 317.24 320.08 317.18 320.08 315.46 319.2 315.51 319.2 317.24"/><polygon class="cls-6" points="319.2 321.27 320.08 321.22 320.08 319.49 319.2 319.54 319.2 321.27"/><polygon class="cls-6" points="319.2 325.3 320.08 325.25 320.08 323.52 319.2 323.57 319.2 325.3"/><polygon class="cls-6" points="319.2 329.32 320.08 329.28 320.08 327.55 319.2 327.59 319.2 329.32"/><polygon class="cls-6" points="319.2 333.35 320.08 333.3 320.08 331.58 319.2 331.62 319.2 333.35"/><polygon class="cls-6" points="319.2 337.37 320.08 337.33 320.08 335.61 319.2 335.65 319.2 337.37"/><polygon class="cls-6" points="319.2 341.4 320.08 341.36 320.08 339.64 319.2 339.67 319.2 341.4"/><polygon class="cls-6" points="319.2 345.43 320.08 345.39 320.08 343.67 319.2 343.7 319.2 345.43"/><polygon class="cls-6" points="322.82 304.9 323.72 304.83 323.72 303.1 322.82 303.17 322.82 304.9"/><polygon class="cls-6" points="322.82 308.94 323.72 308.88 323.72 307.14 322.82 307.2 322.82 308.94"/><polygon class="cls-6" points="322.82 312.98 323.72 312.92 323.72 311.19 322.82 311.25 322.82 312.98"/><polygon class="cls-6" points="322.82 317.02 323.72 316.96 323.72 315.23 322.82 315.29 322.82 317.02"/><polygon class="cls-6" points="322.82 321.06 323.72 321 323.72 319.27 322.82 319.32 322.82 321.06"/><polygon class="cls-6" points="322.82 325.1 323.72 325.05 323.72 323.32 322.82 323.37 322.82 325.1"/><polygon class="cls-6" points="322.82 329.14 323.72 329.09 323.72 327.36 322.82 327.4 322.82 329.14"/><polygon class="cls-6" points="322.82 333.18 323.72 333.13 323.72 331.4 322.82 331.44 322.82 333.18"/><polygon class="cls-6" points="322.82 337.21 323.72 337.18 323.72 335.44 322.82 335.49 322.82 337.21"/><polygon class="cls-6" points="322.82 341.25 323.72 341.22 323.72 339.49 322.82 339.52 322.82 341.25"/><polygon class="cls-6" points="322.82 345.3 323.72 345.26 323.72 343.53 322.82 343.56 322.82 345.3"/><polygon class="cls-6" points="325.77 304.69 326.67 304.62 326.67 302.88 325.77 302.95 325.77 304.69"/><polygon class="cls-6" points="325.77 308.74 326.67 308.67 326.67 306.94 325.77 307 325.77 308.74"/><polygon class="cls-6" points="325.77 312.79 326.67 312.73 326.67 310.99 325.77 311.05 325.77 312.79"/><polygon class="cls-6" points="325.77 316.83 326.67 316.78 326.67 315.04 325.77 315.1 325.77 316.83"/><polygon class="cls-6" points="325.77 320.88 326.67 320.83 326.67 319.09 325.77 319.15 325.77 320.88"/><polygon class="cls-6" points="325.77 324.94 326.67 324.89 326.67 323.15 325.77 323.2 325.77 324.94"/><polygon class="cls-6" points="325.77 328.99 326.67 328.94 326.67 327.21 325.77 327.25 325.77 328.99"/><polygon class="cls-6" points="325.77 333.04 326.67 332.99 326.67 331.26 325.77 331.3 325.77 333.04"/><polygon class="cls-6" points="325.77 337.09 326.67 337.05 326.67 335.31 325.77 335.35 325.77 337.09"/><polygon class="cls-6" points="325.77 341.14 326.67 341.1 326.67 339.36 325.77 339.4 325.77 341.14"/><polygon class="cls-6" points="325.77 345.19 326.67 345.15 326.67 343.42 325.77 343.45 325.77 345.19"/><polygon class="cls-6" points="328.57 304.48 329.47 304.42 329.47 302.68 328.57 302.74 328.57 304.48"/><polygon class="cls-6" points="328.57 308.54 329.47 308.48 329.47 306.74 328.57 306.8 328.57 308.54"/><polygon class="cls-6" points="328.57 312.6 329.47 312.54 329.47 310.8 328.57 310.86 328.57 312.6"/><polygon class="cls-6" points="328.57 316.67 329.47 316.61 329.47 314.87 328.57 314.93 328.57 316.67"/><polygon class="cls-6" points="328.57 320.72 329.47 320.67 329.47 318.93 328.57 318.99 328.57 320.72"/><polygon class="cls-6" points="328.57 324.79 329.47 324.74 329.47 322.99 328.57 323.04 328.57 324.79"/><polygon class="cls-6" points="328.57 328.85 329.47 328.8 329.47 327.06 328.57 327.1 328.57 328.85"/><polygon class="cls-6" points="328.57 332.91 329.47 332.86 329.47 331.12 328.57 331.16 328.57 332.91"/><polygon class="cls-6" points="328.57 336.97 329.47 336.93 329.47 335.19 328.57 335.23 328.57 336.97"/><polygon class="cls-6" points="328.57 341.02 329.47 340.99 329.47 339.25 328.57 339.29 328.57 341.02"/><polygon class="cls-6" points="328.57 345.09 329.47 345.06 329.47 343.31 328.57 343.35 328.57 345.09"/><polygon class="cls-6" points="318.85 275.17 319.74 275.08 319.74 273.35 318.85 273.45 318.85 275.17"/><polygon class="cls-6" points="318.85 279.2 319.74 279.11 319.74 277.38 318.85 277.47 318.85 279.2"/><polygon class="cls-6" points="318.85 283.22 319.74 283.13 319.74 281.41 318.85 281.49 318.85 283.22"/><polygon class="cls-6" points="318.85 287.24 319.74 287.17 319.74 285.44 318.85 285.52 318.85 287.24"/><polygon class="cls-6" points="318.85 291.27 319.74 291.19 319.74 289.47 318.85 289.55 318.85 291.27"/><polygon class="cls-6" points="318.85 295.3 319.74 295.22 319.74 293.49 318.85 293.57 318.85 295.3"/><polygon class="cls-6" points="318.85 299.32 319.74 299.25 319.74 297.52 318.85 297.59 318.85 299.32"/><polygon class="cls-6" points="321.79 278.91 322.68 278.82 322.68 277.1 321.79 277.18 321.79 278.91"/><polygon class="cls-6" points="321.79 282.95 322.68 282.87 322.68 281.13 321.79 281.22 321.79 282.95"/><polygon class="cls-6" points="321.79 286.98 322.68 286.9 322.68 285.17 321.79 285.25 321.79 286.98"/><polygon class="cls-6" points="321.79 291.02 322.68 290.94 322.68 289.21 321.79 289.29 321.79 291.02"/><polygon class="cls-6" points="321.79 295.06 322.68 294.98 322.68 293.25 321.79 293.32 321.79 295.06"/><polygon class="cls-6" points="321.79 299.09 322.68 299.02 322.68 297.29 321.79 297.36 321.79 299.09"/><polygon class="cls-6" points="317.08 268.14 316.21 268.23 316.21 266.37 317.08 266.27 317.08 268.14"/><rect class="cls-7" x="249.27" y="277.15" width="1.62" height="2.03"/><rect class="cls-7" x="249.27" y="283.36" width="1.62" height="2.02"/><rect class="cls-7" x="249.27" y="289.56" width="1.62" height="2.03"/><rect class="cls-7" x="249.27" y="295.77" width="1.62" height="2.03"/><rect class="cls-7" x="249.27" y="301.97" width="1.62" height="2.03"/><rect class="cls-7" x="249.27" y="308.18" width="1.62" height="2.03"/><rect class="cls-7" x="249.27" y="314.38" width="1.62" height="2.03"/><rect class="cls-7" x="249.27" y="320.59" width="1.62" height="2.03"/><rect class="cls-7" x="249.27" y="326.79" width="1.62" height="2.03"/><rect class="cls-7" x="249.27" y="333" width="1.62" height="2.03"/><rect class="cls-7" x="249.27" y="339.2" width="1.62" height="2.03"/><rect class="cls-7" x="249.27" y="345.41" width="1.62" height="2.03"/><rect class="cls-7" x="249.27" y="351.62" width="1.62" height="2.03"/><rect class="cls-7" x="249.27" y="357.82" width="1.62" height="2.03"/><rect class="cls-7" x="248.67" y="365.04" width="1.39" height="1.74"/><rect class="cls-7" x="248.67" y="370.37" width="1.39" height="1.74"/><rect class="cls-7" x="248.67" y="375.7" width="1.39" height="1.75"/><rect class="cls-7" x="244.18" y="277.15" width="1.62" height="2.03"/><rect class="cls-7" x="244.18" y="283.36" width="1.62" height="2.02"/><rect class="cls-7" x="244.18" y="289.56" width="1.62" height="2.03"/><rect class="cls-7" x="244.18" y="295.77" width="1.62" height="2.03"/><rect class="cls-7" x="244.18" y="301.97" width="1.62" height="2.03"/><rect class="cls-7" x="244.18" y="308.18" width="1.62" height="2.03"/><rect class="cls-7" x="244.18" y="314.38" width="1.62" height="2.03"/><rect class="cls-7" x="244.18" y="320.59" width="1.62" height="2.03"/><rect class="cls-7" x="244.18" y="326.79" width="1.62" height="2.03"/><rect class="cls-7" x="244.18" y="333" width="1.62" height="2.03"/><rect class="cls-7" x="244.18" y="339.2" width="1.62" height="2.03"/><rect class="cls-7" x="244.18" y="345.41" width="1.62" height="2.03"/><rect class="cls-7" x="244.18" y="351.62" width="1.62" height="2.03"/><rect class="cls-7" x="244.18" y="357.82" width="1.62" height="2.03"/><rect class="cls-7" x="244.29" y="365.04" width="1.4" height="1.74"/><rect class="cls-7" x="244.29" y="370.37" width="1.4" height="1.74"/><rect class="cls-7" x="244.29" y="375.7" width="1.4" height="1.75"/><rect class="cls-7" x="239.09" y="277.15" width="1.62" height="2.03"/><rect class="cls-7" x="239.09" y="283.36" width="1.62" height="2.02"/><rect class="cls-7" x="239.09" y="289.56" width="1.62" height="2.03"/><rect class="cls-7" x="239.09" y="295.77" width="1.62" height="2.03"/><rect class="cls-7" x="239.09" y="301.97" width="1.62" height="2.03"/><rect class="cls-7" x="239.09" y="308.18" width="1.62" height="2.03"/><rect class="cls-7" x="239.09" y="314.38" width="1.62" height="2.03"/><rect class="cls-7" x="239.09" y="320.59" width="1.62" height="2.03"/><rect class="cls-7" x="239.09" y="326.79" width="1.62" height="2.03"/><rect class="cls-7" x="239.09" y="333" width="1.62" height="2.03"/><rect class="cls-7" x="239.09" y="339.2" width="1.62" height="2.03"/><rect class="cls-7" x="239.09" y="345.41" width="1.62" height="2.03"/><rect class="cls-7" x="239.09" y="351.62" width="1.62" height="2.03"/><rect class="cls-7" x="239.09" y="357.82" width="1.62" height="2.03"/><rect class="cls-7" x="239.92" y="365.04" width="1.39" height="1.74"/><rect class="cls-7" x="239.92" y="370.37" width="1.39" height="1.74"/><rect class="cls-7" x="239.92" y="375.7" width="1.39" height="1.75"/><rect class="cls-7" x="232.22" y="365.04" width="1.4" height="1.74"/><rect class="cls-7" x="232.22" y="370.37" width="1.4" height="1.74"/><rect class="cls-7" x="232.22" y="375.7" width="1.4" height="1.75"/><rect class="cls-7" x="227.85" y="365.04" width="1.39" height="1.74"/><rect class="cls-7" x="227.85" y="370.37" width="1.39" height="1.74"/><rect class="cls-7" x="227.85" y="375.7" width="1.39" height="1.75"/><rect class="cls-7" x="223.47" y="365.04" width="1.39" height="1.74"/><rect class="cls-7" x="223.47" y="370.37" width="1.39" height="1.74"/><rect class="cls-7" x="223.47" y="375.7" width="1.39" height="1.75"/><polygon class="cls-4" points="225.39 321.93 223.83 322.25 223.83 320.12 225.39 319.77 225.39 321.93"/><polygon class="cls-4" points="225.39 327.19 223.83 327.46 223.83 325.33 225.39 325.04 225.39 327.19"/><polygon class="cls-4" points="225.39 332.45 223.83 332.67 223.83 330.54 225.39 330.3 225.39 332.45"/><polygon class="cls-4" points="225.39 337.72 223.83 337.88 223.83 335.75 225.39 335.56 225.39 337.72"/><polygon class="cls-4" points="225.39 342.98 223.83 343.09 223.83 340.95 225.39 340.82 225.39 342.98"/><polygon class="cls-4" points="225.39 348.24 223.83 348.3 223.83 346.16 225.39 346.08 225.39 348.24"/><polygon class="cls-4" points="229.21 321.14 227.56 321.48 227.56 319.3 229.21 318.93 229.21 321.14"/><polygon class="cls-4" points="229.21 326.54 227.56 326.82 227.56 324.63 229.21 324.32 229.21 326.54"/><polygon class="cls-4" points="229.21 331.92 227.56 332.15 227.56 329.97 229.21 329.71 229.21 331.92"/><polygon class="cls-4" points="229.21 337.32 227.56 337.49 227.56 335.3 229.21 335.11 229.21 337.32"/><polygon class="cls-4" points="229.21 342.71 227.56 342.82 227.56 340.64 229.21 340.5 229.21 342.71"/><polygon class="cls-4" points="229.21 348.11 227.56 348.16 227.56 345.98 229.21 345.89 229.21 348.11"/><path class="cls-8" d="M442.75,352l2.45-.06v1c-4.31.07-10.39.24-17.35.72-3.59.25-7.4.58-11.31,1v-1c3.91-.45,7.72-.79,11.31-1C433.57,352.33,438.7,352.13,442.75,352Z"/><path class="cls-8" d="M442.69,356.3l2.51-.06v1.05c-4.32.08-10.41.24-17.4.66-3.57.21-7.37.49-11.26.85v-1c3.89-.37,7.69-.66,11.26-.88C433.51,356.59,438.64,356.4,442.69,356.3Z"/><path class="cls-8" d="M442.81,347.75l2.39-.05v1.05c-4.31.07-10.37.24-17.3.79-3.6.28-7.44.66-11.36,1.17v-1c3.93-.52,7.76-.91,11.36-1.2C433.62,348.07,438.75,347.86,442.81,347.75Z"/><path class="cls-8" d="M442.63,360.57l2.57-.06v1.05c-4.32.08-10.44.24-17.44.59-3.57.18-7.34.41-11.22.7v-1c3.88-.31,7.65-.54,11.22-.73C433.46,360.84,438.58,360.67,442.63,360.57Z"/><path class="cls-8" d="M442.87,343.47l2.33-.05v1.05c-4.31.07-10.35.26-17.25.86-3.62.32-7.47.75-11.41,1.34v-1c3.94-.59,7.79-1,11.41-1.36C433.67,343.81,438.81,343.58,442.87,343.47Z"/><path class="cls-8" d="M416.54,370c3.84-.16,7.59-.29,11.12-.41,5.7-.19,10.81-.34,14.85-.44l2.69-.07v1l-2.7.06c-4,.09-9.15.23-14.84.41-3.53.1-7.28.23-11.12.38Z"/><path class="cls-8" d="M445.2,314.55a119,119,0,0,0-16.92,1.31,97.07,97.07,0,0,0-11.74,2.53v-1a99.24,99.24,0,0,1,11.74-2.55,121.39,121.39,0,0,1,15-1.33l1.92,0Z"/><path class="cls-8" d="M443.16,322.09l2,0v1.06a140,140,0,0,0-17,1.19,108.71,108.71,0,0,0-11.65,2.18v-1a111.49,111.49,0,0,1,11.65-2.2A134.43,134.43,0,0,1,443.16,322.09Z"/><path class="cls-8" d="M443.22,317.81c.69,0,1.35,0,2,0v1.06a129.23,129.23,0,0,0-17,1.24,104.54,104.54,0,0,0-11.7,2.36v-1a106.84,106.84,0,0,1,11.7-2.36A125.27,125.27,0,0,1,443.22,317.81Z"/><path class="cls-8" d="M442.93,339.2l2.27-.05v1.05c-4.3.07-10.32.26-17.2.92-3.64.36-7.5.84-11.46,1.51v-1c4-.67,7.82-1.16,11.46-1.52C433.73,339.55,438.87,339.31,442.93,339.2Z"/><path class="cls-8" d="M427.71,366.35c-3.55.15-7.31.33-11.17.55v-1c3.86-.23,7.62-.41,11.17-.56,5.7-.25,10.82-.41,14.86-.51l2.63-.06v1C440.88,365.91,434.74,366.07,427.71,366.35Z"/><path class="cls-8" d="M443,334.92l2.21,0v1.05c-1.19,0-2.5,0-3.93.09-3.75.12-8.27.37-13.23.9-3.64.38-7.52.92-11.5,1.67v-1c4-.75,7.86-1.29,11.5-1.69C433.78,335.28,438.92,335,443,334.92Z"/><path class="cls-8" d="M443.1,326.37l2.1-.05v1.06q-1.74,0-3.84.09c-3.75.12-8.26.41-13.22,1-3.68.46-7.59,1.1-11.6,2v-1c4-.91,7.92-1.56,11.6-2C433.88,326.76,439,326.48,443.1,326.37Z"/><path class="cls-8" d="M443.05,330.64l2.15,0v1c-1.17,0-2.47,0-3.88.09-3.75.13-8.27.39-13.23,1-3.66.42-7.56,1-11.55,1.83v-1c4-.83,7.89-1.43,11.55-1.86C433.83,331,439,330.75,443.05,330.64Z"/><polygon class="cls-8" points="416.54 370.94 445.19 370.05 445.19 369.04 416.54 370 416.54 370.94"/><polygon class="cls-8" points="416.54 374.56 445.19 373.9 445.19 372.9 416.54 373.62 416.54 374.56"/><polygon class="cls-8" points="416.54 378.18 445.19 377.76 445.19 376.75 416.54 377.24 416.54 378.18"/><polygon class="cls-8" points="416.54 381.8 445.19 381.61 445.19 380.61 416.54 380.86 416.54 381.8"/><polygon class="cls-4" points="615.33 299.83 616.48 299.41 616.48 297.8 615.34 298.38 615.33 299.83"/><polygon class="cls-4" points="618.68 298.5 619.85 298.08 619.86 296.45 618.68 297.04 618.68 298.5"/><polygon class="cls-4" points="622.11 297.15 623.32 296.71 623.32 295.05 622.11 295.66 622.11 297.15"/><polygon class="cls-4" points="625.63 295.75 626.88 295.3 626.88 293.62 625.64 294.25 625.63 295.75"/><polygon class="cls-4" points="629.26 294.32 630.53 293.86 630.54 292.15 629.26 292.79 629.26 294.32"/><polygon class="cls-4" points="633.25 292.85 634.57 292.37 634.57 290.65 633.26 291.3 633.25 292.85"/><polygon class="cls-4" points="615.32 304.56 616.47 304.16 616.47 302.55 615.32 303.11 615.32 304.56"/><polygon class="cls-4" points="618.66 303.3 619.84 302.89 619.84 301.26 618.66 301.83 618.66 303.3"/><polygon class="cls-4" points="622.09 302 623.3 301.59 623.31 299.93 622.1 300.52 622.09 302"/><polygon class="cls-4" points="625.62 300.67 626.86 300.25 626.87 298.57 625.62 299.17 625.62 300.67"/><polygon class="cls-4" points="629.24 299.31 630.52 298.87 630.52 297.17 629.25 297.78 629.24 299.31"/><polygon class="cls-4" points="633.24 297.92 634.55 297.46 634.56 295.74 633.24 296.37 633.24 297.92"/><polygon class="cls-4" points="615.3 309.28 616.45 308.91 616.46 307.3 615.31 307.84 615.3 309.28"/><polygon class="cls-4" points="618.65 308.09 619.82 307.71 619.83 306.07 618.65 306.62 618.65 308.09"/><polygon class="cls-4" points="622.08 306.86 623.29 306.46 623.29 304.81 622.08 305.37 622.08 306.86"/><polygon class="cls-4" points="625.6 305.59 626.85 305.19 626.85 303.51 625.61 304.09 625.6 305.59"/><polygon class="cls-4" points="629.23 304.3 630.5 303.88 630.51 302.18 629.23 302.77 629.23 304.3"/><polygon class="cls-4" points="633.22 302.98 634.54 302.55 634.54 300.82 633.22 301.43 633.22 302.98"/><polygon class="cls-4" points="615.29 314.01 616.44 313.66 616.44 312.05 615.29 312.57 615.29 314.01"/><polygon class="cls-4" points="618.63 312.88 619.81 312.52 619.81 310.88 618.63 311.41 618.63 312.88"/><polygon class="cls-4" points="622.07 311.71 623.27 311.34 623.28 309.69 622.07 310.23 622.07 311.71"/><polygon class="cls-4" points="625.59 310.52 626.83 310.14 626.84 308.45 625.59 309.01 625.59 310.52"/><polygon class="cls-4" points="629.21 309.28 630.49 308.89 630.49 307.19 629.22 307.76 629.21 309.28"/><polygon class="cls-4" points="633.21 308.04 634.52 307.64 634.53 305.91 633.21 306.49 633.21 308.04"/><polygon class="cls-4" points="615.28 318.74 616.42 318.41 616.42 316.8 615.28 317.3 615.28 318.74"/><polygon class="cls-4" points="618.62 317.67 619.79 317.33 619.8 315.7 618.62 316.2 618.62 317.67"/><polygon class="cls-4" points="622.05 316.57 623.26 316.22 623.26 314.56 622.05 315.08 622.05 316.57"/><polygon class="cls-4" points="625.58 315.44 626.82 315.08 626.82 313.4 625.58 313.93 625.58 315.44"/><polygon class="cls-4" points="629.2 314.27 630.47 313.9 630.48 312.2 629.2 312.75 629.2 314.27"/><polygon class="cls-4" points="633.19 313.1 634.51 312.73 634.51 311 633.2 311.56 633.19 313.1"/><polygon class="cls-4" points="615.26 323.47 616.41 323.16 616.41 321.55 615.26 322.02 615.26 323.47"/><polygon class="cls-4" points="618.6 322.46 619.78 322.14 619.78 320.51 618.61 321 618.6 322.46"/><polygon class="cls-4" points="622.03 321.42 623.24 321.1 623.25 319.44 622.04 319.94 622.03 321.42"/><polygon class="cls-4" points="625.56 320.36 626.8 320.02 626.81 318.35 625.56 318.85 625.56 320.36"/><polygon class="cls-4" points="629.18 319.26 630.46 318.92 630.46 317.22 629.19 317.74 629.18 319.26"/><polygon class="cls-4" points="633.18 318.17 634.49 317.82 634.5 316.09 633.18 316.62 633.18 318.17"/><polygon class="cls-4" points="615.25 328.2 616.39 327.91 616.4 326.3 615.25 326.75 615.25 328.2"/><polygon class="cls-4" points="618.59 327.25 619.77 326.96 619.77 325.32 618.59 325.79 618.59 327.25"/><polygon class="cls-4" points="622.02 326.28 623.23 325.98 623.23 324.32 622.02 324.79 622.02 326.28"/><polygon class="cls-4" points="625.54 325.28 626.79 324.97 626.79 323.29 625.55 323.77 625.54 325.28"/><polygon class="cls-4" points="629.16 324.25 630.44 323.93 630.45 322.23 629.17 322.73 629.16 324.25"/><polygon class="cls-4" points="633.16 323.24 634.48 322.9 634.48 321.18 633.16 321.69 633.16 323.24"/><polygon class="cls-4" points="615.23 332.93 616.38 332.67 616.38 331.05 615.24 331.48 615.23 332.93"/><polygon class="cls-4" points="618.57 332.04 619.75 331.77 619.76 330.14 618.58 330.58 618.57 332.04"/><polygon class="cls-4" points="622 331.14 623.21 330.86 623.22 329.2 622.01 329.65 622 331.14"/><polygon class="cls-4" points="625.53 330.2 626.77 329.91 626.78 328.24 625.53 328.7 625.53 330.2"/><polygon class="cls-4" points="629.15 329.24 630.43 328.95 630.43 327.25 629.15 327.72 629.15 329.24"/><polygon class="cls-4" points="633.14 328.3 634.46 327.99 634.47 326.27 633.15 326.75 633.14 328.3"/><polygon class="cls-4" points="615.22 337.66 616.36 337.42 616.37 335.8 615.22 336.21 615.22 337.66"/><polygon class="cls-4" points="618.56 336.84 619.73 336.59 619.74 334.95 618.56 335.37 618.56 336.84"/><polygon class="cls-4" points="621.99 335.99 623.2 335.73 623.2 334.08 621.99 334.5 621.99 335.99"/><polygon class="cls-4" points="625.51 335.12 626.76 334.86 626.76 333.18 625.52 333.62 625.51 335.12"/><polygon class="cls-4" points="629.14 334.23 630.41 333.96 630.42 332.26 629.14 332.7 629.14 334.23"/><polygon class="cls-4" points="633.13 333.36 634.45 333.08 634.45 331.35 633.13 331.81 633.13 333.36"/><polygon class="cls-4" points="615.2 342.39 616.35 342.17 616.36 340.55 615.21 340.94 615.2 342.39"/><polygon class="cls-4" points="618.54 341.63 619.72 341.4 619.73 339.77 618.55 340.16 618.54 341.63"/><polygon class="cls-4" points="621.97 340.85 623.18 340.61 623.19 338.96 621.98 339.36 621.97 340.85"/><polygon class="cls-4" points="625.5 340.05 626.74 339.8 626.75 338.13 625.5 338.54 625.5 340.05"/><polygon class="cls-4" points="629.12 339.22 630.4 338.97 630.4 337.27 629.13 337.7 629.12 339.22"/><polygon class="cls-4" points="633.12 338.43 634.43 338.17 634.43 336.44 633.12 336.88 633.12 338.43"/><polygon class="cls-4" points="615.19 347.12 616.34 346.92 616.34 345.3 615.19 345.67 615.19 347.12"/><polygon class="cls-4" points="618.53 346.42 619.71 346.21 619.71 344.58 618.53 344.95 618.53 346.42"/><polygon class="cls-4" points="621.96 345.71 623.17 345.49 623.17 343.84 621.96 344.22 621.96 345.71"/><polygon class="cls-4" points="625.49 344.97 626.73 344.75 626.73 343.07 625.49 343.46 625.49 344.97"/><polygon class="cls-4" points="629.11 344.21 630.38 343.99 630.39 342.29 629.11 342.69 629.11 344.21"/><polygon class="cls-4" points="633.1 343.49 634.41 343.26 634.42 341.53 633.11 341.94 633.1 343.49"/><polygon class="cls-4" points="615.17 351.85 616.32 351.67 616.33 350.06 615.18 350.4 615.17 351.85"/><polygon class="cls-4" points="618.51 351.21 619.69 351.03 619.7 349.39 618.52 349.75 618.51 351.21"/><polygon class="cls-4" points="621.95 350.56 623.15 350.37 623.16 348.71 621.95 349.07 621.95 350.56"/><polygon class="cls-4" points="625.47 349.89 626.71 349.69 626.72 348.02 625.47 348.38 625.47 349.89"/><polygon class="cls-4" points="629.09 349.2 630.37 349 630.37 347.3 629.09 347.68 629.09 349.2"/><polygon class="cls-4" points="633.08 348.56 634.4 348.35 634.4 346.62 633.09 347.01 633.08 348.56"/><polygon class="cls-4" points="615.16 356.58 616.31 356.42 616.31 354.81 615.16 355.13 615.16 356.58"/><polygon class="cls-4" points="618.5 356 619.68 355.84 619.68 354.21 618.51 354.54 618.5 356"/><polygon class="cls-4" points="621.93 355.42 623.14 355.25 623.14 353.59 621.93 353.93 621.93 355.42"/><polygon class="cls-4" points="625.46 354.81 626.7 354.64 626.7 352.96 625.46 353.31 625.46 354.81"/><polygon class="cls-4" points="629.08 354.19 630.35 354.02 630.36 352.31 629.08 352.67 629.08 354.19"/><polygon class="cls-4" points="633.07 353.62 634.38 353.44 634.39 351.71 633.07 352.07 633.07 353.62"/><polygon class="cls-4" points="615.15 361.31 616.29 361.17 616.29 359.56 615.15 359.86 615.15 361.31"/><polygon class="cls-4" points="618.48 360.8 619.66 360.66 619.67 359.02 618.49 359.33 618.48 360.8"/><polygon class="cls-4" points="621.91 360.27 623.12 360.13 623.13 358.47 621.92 358.79 621.91 360.27"/><polygon class="cls-4" points="625.44 359.74 626.68 359.59 626.69 357.91 625.45 358.23 625.44 359.74"/><polygon class="cls-4" points="629.06 359.18 630.34 359.03 630.34 357.33 629.06 357.66 629.06 359.18"/><polygon class="cls-4" points="633.05 358.69 634.37 358.53 634.37 356.8 633.06 357.14 633.05 358.69"/><polygon class="cls-4" points="615.13 366.04 616.28 365.92 616.28 364.31 615.13 364.59 615.13 366.04"/><polygon class="cls-4" points="618.47 365.59 619.65 365.47 619.65 363.84 618.48 364.12 618.47 365.59"/><polygon class="cls-4" points="621.9 365.13 623.11 365.01 623.12 363.35 621.9 363.64 621.9 365.13"/><polygon class="cls-4" points="625.43 364.66 626.67 364.53 626.67 362.85 625.43 363.15 625.43 364.66"/><polygon class="cls-4" points="629.04 364.17 630.32 364.04 630.33 362.34 629.05 362.65 629.04 364.17"/><polygon class="cls-4" points="633.04 363.75 634.35 363.62 634.36 361.89 633.04 362.2 633.04 363.75"/><polygon class="cls-4" points="615.12 370.77 616.26 370.67 616.27 369.06 615.12 369.32 615.12 370.77"/><polygon class="cls-4" points="618.46 370.38 619.63 370.29 619.64 368.65 618.46 368.92 618.46 370.38"/><polygon class="cls-4" points="621.89 369.99 623.1 369.89 623.1 368.23 621.89 368.5 621.89 369.99"/><polygon class="cls-4" points="625.41 369.58 626.65 369.48 626.66 367.8 625.42 368.07 625.41 369.58"/><polygon class="cls-4" points="629.03 369.16 630.31 369.06 630.31 367.36 629.03 367.64 629.03 369.16"/><polygon class="cls-4" points="633.02 368.82 634.34 368.71 634.34 366.98 633.03 367.27 633.02 368.82"/><polygon class="cls-4" points="615.1 375.5 616.25 375.43 616.25 373.81 615.11 374.05 615.1 375.5"/><polygon class="cls-4" points="618.44 375.18 619.62 375.1 619.62 373.47 618.45 373.71 618.44 375.18"/><polygon class="cls-4" points="621.87 374.84 623.08 374.77 623.09 373.11 621.88 373.36 621.87 374.84"/><polygon class="cls-4" points="625.39 374.5 626.64 374.43 626.64 372.75 625.4 373 625.39 374.5"/><polygon class="cls-4" points="629.02 374.16 630.29 374.07 630.3 372.37 629.02 372.63 629.02 374.16"/><polygon class="cls-4" points="633.01 373.88 634.32 373.8 634.33 372.07 633.01 372.33 633.01 373.88"/><polygon class="cls-4" points="615.09 380.23 616.23 380.18 616.24 378.56 615.09 378.78 615.09 380.23"/><polygon class="cls-4" points="618.43 379.97 619.61 379.92 619.61 378.28 618.43 378.5 618.43 379.97"/><polygon class="cls-4" points="621.86 379.7 623.07 379.65 623.07 377.99 621.86 378.21 621.86 379.7"/><polygon class="cls-4" points="625.38 379.43 626.62 379.37 626.63 377.69 625.38 377.92 625.38 379.43"/><polygon class="cls-4" points="629 379.15 630.28 379.09 630.28 377.38 629 377.62 629 379.15"/><polygon class="cls-4" points="632.99 378.95 634.31 378.89 634.31 377.16 633 377.4 632.99 378.95"/><polyline class="cls-4" points="18.38 301.31 18.38 384.61 17.88 384.61 17.88 301.27"/><polyline class="cls-4" points="23.31 301.65 23.31 384.61 22.82 384.61 22.82 301.62"/><polyline class="cls-4" points="28.71 302.7 28.71 384.61 28.22 384.61 28.22 302.58"/><polygon class="cls-4" points="121.14 355.29 106.45 355.75 106.45 354.04 121.14 353.59 121.14 355.29"/><polygon class="cls-4" points="121.14 340.32 106.45 341.3 106.45 339.58 121.14 338.62 121.14 340.32"/><polygon class="cls-4" points="121.14 347.82 106.45 348.53 106.45 346.81 121.14 346.12 121.14 347.82"/><polygon class="cls-4" points="121.14 362.72 106.45 362.98 106.45 361.26 121.14 361.03 121.14 362.72"/><polygon class="cls-4" points="106.45 281.45 121.14 276.31 121.14 278.13 106.45 283.29 106.45 281.45"/><polygon class="cls-4" points="106.45 375.7 121.14 375.82 121.14 377.51 106.45 377.41 106.45 375.7"/><polygon class="cls-4" points="121.14 370.12 106.45 370.19 106.45 368.48 121.14 368.44 121.14 370.12"/><polygon class="cls-4" points="121.14 286.23 106.45 290.57 106.45 288.76 121.14 284.45 121.14 286.23"/><polygon class="cls-4" points="121.14 332.78 106.45 334.07 106.45 332.34 121.14 331.07 121.14 332.78"/><polygon class="cls-4" points="121.14 309.85 106.45 312.34 106.45 310.6 121.14 308.12 121.14 309.85"/><polygon class="cls-4" points="121.14 294.2 106.45 297.83 106.45 296.05 121.14 292.45 121.14 294.2"/><polygon class="cls-4" points="121.14 302.07 106.45 305.09 106.45 303.33 121.14 300.33 121.14 302.07"/><polygon class="cls-4" points="121.14 325.19 106.45 326.83 106.45 325.1 121.14 323.48 121.14 325.19"/><polygon class="cls-4" points="121.14 317.55 106.45 319.59 106.45 317.85 121.14 315.84 121.14 317.55"/><polygon class="cls-4" points="530.75 318.22 529.5 318.49 529.5 317.02 530.75 316.74 530.75 318.22"/><polygon class="cls-4" points="533.2 317.69 531.93 317.96 531.93 316.48 533.2 316.2 533.2 317.69"/><polygon class="cls-4" points="535.68 317.15 534.39 317.43 534.39 315.94 535.68 315.65 535.68 317.15"/><polygon class="cls-4" points="538.19 316.6 536.88 316.89 536.88 315.38 538.19 315.09 538.19 316.6"/><polygon class="cls-4" points="540.73 316.05 539.41 316.34 539.41 314.82 540.73 314.53 540.73 316.05"/><polygon class="cls-4" points="543.31 315.49 541.97 315.78 541.97 314.26 543.31 313.96 543.31 315.49"/><polygon class="cls-4" points="545.92 314.92 544.56 315.21 544.56 313.68 545.92 313.38 545.92 314.92"/><polygon class="cls-4" points="530.75 325.12 529.5 325.37 529.5 323.89 530.75 323.64 530.75 325.12"/><polygon class="cls-4" points="533.2 324.63 531.93 324.88 531.93 323.4 533.2 323.14 533.2 324.63"/><polygon class="cls-4" points="535.68 324.14 534.39 324.39 534.39 322.9 535.68 322.64 535.68 324.14"/><polygon class="cls-4" points="538.19 323.63 536.88 323.9 536.88 322.4 538.19 322.13 538.19 323.63"/><polygon class="cls-4" points="540.73 323.13 539.41 323.39 539.41 321.88 540.73 321.61 540.73 323.13"/><polygon class="cls-4" points="543.31 322.61 541.97 322.88 541.97 321.36 543.31 321.09 543.31 322.61"/><polygon class="cls-4" points="545.92 322.09 544.56 322.37 544.56 320.83 545.92 320.56 545.92 322.09"/><polygon class="cls-4" points="530.75 332.02 529.5 332.25 529.5 330.77 530.75 330.54 530.75 332.02"/><polygon class="cls-4" points="533.2 331.57 531.93 331.8 531.93 330.32 533.2 330.08 533.2 331.57"/><polygon class="cls-4" points="535.68 331.13 534.39 331.36 534.39 329.87 535.68 329.63 535.68 331.13"/><polygon class="cls-4" points="538.19 330.67 536.88 330.91 536.88 329.4 538.19 329.16 538.19 330.67"/><polygon class="cls-4" points="540.73 330.21 539.41 330.45 539.41 328.94 540.73 328.69 540.73 330.21"/><polygon class="cls-4" points="543.31 329.74 541.97 329.98 541.97 328.46 543.31 328.21 543.31 329.74"/><polygon class="cls-4" points="545.92 329.27 544.56 329.52 544.56 327.98 545.92 327.73 545.92 329.27"/><polygon class="cls-4" points="530.75 338.91 529.5 339.12 529.5 337.65 530.75 337.44 530.75 338.91"/><polygon class="cls-4" points="533.2 338.51 531.93 338.72 531.93 337.24 533.2 337.03 533.2 338.51"/><polygon class="cls-4" points="535.68 338.11 534.39 338.32 534.39 336.83 535.68 336.62 535.68 338.11"/><polygon class="cls-4" points="538.19 337.7 536.88 337.92 536.88 336.41 538.19 336.2 538.19 337.7"/><polygon class="cls-4" points="540.73 337.29 539.41 337.5 539.41 335.99 540.73 335.77 540.73 337.29"/><polygon class="cls-4" points="543.31 336.87 541.97 337.09 541.97 335.57 543.31 335.34 543.31 336.87"/><polygon class="cls-4" points="545.92 336.44 544.56 336.67 544.56 335.13 545.92 334.91 545.92 336.44"/><polygon class="cls-4" points="530.75 345.81 529.5 345.99 529.5 344.52 530.75 344.34 530.75 345.81"/><polygon class="cls-4" points="533.2 345.46 531.93 345.64 531.93 344.16 533.2 343.97 533.2 345.46"/><polygon class="cls-4" points="535.68 345.1 534.39 345.29 534.39 343.8 535.68 343.6 535.68 345.1"/><polygon class="cls-4" points="538.19 344.74 536.88 344.93 536.88 343.43 538.19 343.23 538.19 344.74"/><polygon class="cls-4" points="540.73 344.37 539.41 344.56 539.41 343.05 540.73 342.85 540.73 344.37"/><polygon class="cls-4" points="543.31 344 541.97 344.19 541.97 342.67 543.31 342.47 543.31 344"/><polygon class="cls-4" points="545.92 343.62 544.56 343.82 544.56 342.29 545.92 342.08 545.92 343.62"/><polygon class="cls-4" points="530.75 352.71 529.5 352.87 529.5 351.39 530.75 351.23 530.75 352.71"/><polygon class="cls-4" points="533.2 352.4 531.93 352.56 531.93 351.08 533.2 350.92 533.2 352.4"/><polygon class="cls-4" points="535.68 352.09 534.39 352.25 534.39 350.76 535.68 350.59 535.68 352.09"/><polygon class="cls-4" points="538.19 351.77 536.88 351.94 536.88 350.44 538.19 350.26 538.19 351.77"/><polygon class="cls-4" points="540.73 351.45 539.41 351.62 539.41 350.11 540.73 349.94 540.73 351.45"/><polygon class="cls-4" points="543.31 351.13 541.97 351.3 541.97 349.77 543.31 349.6 543.31 351.13"/><polygon class="cls-4" points="545.92 350.8 544.56 350.97 544.56 349.44 545.92 349.26 545.92 350.8"/><polygon class="cls-4" points="530.75 359.61 529.5 359.75 529.5 358.27 530.75 358.13 530.75 359.61"/><polygon class="cls-4" points="533.2 359.35 531.93 359.48 531.93 358 533.2 357.86 533.2 359.35"/><polygon class="cls-4" points="535.68 359.08 534.39 359.22 534.39 357.73 535.68 357.58 535.68 359.08"/><polygon class="cls-4" points="538.19 358.81 536.88 358.95 536.88 357.45 538.19 357.3 538.19 358.81"/><polygon class="cls-4" points="540.73 358.53 539.41 358.68 539.41 357.17 540.73 357.01 540.73 358.53"/><polygon class="cls-4" points="543.31 358.25 541.97 358.4 541.97 356.88 543.31 356.73 543.31 358.25"/><polygon class="cls-4" points="545.92 357.97 544.56 358.12 544.56 356.59 545.92 356.44 545.92 357.97"/><polygon class="cls-4" points="530.75 366.51 529.5 366.62 529.5 365.15 530.75 365.03 530.75 366.51"/><polygon class="cls-4" points="533.2 366.29 531.93 366.4 531.93 364.92 533.2 364.8 533.2 366.29"/><polygon class="cls-4" points="535.68 366.07 534.39 366.19 534.39 364.69 535.68 364.57 535.68 366.07"/><polygon class="cls-4" points="538.19 365.84 536.88 365.96 536.88 364.46 538.19 364.33 538.19 365.84"/><polygon class="cls-4" points="540.73 365.61 539.41 365.73 539.41 364.22 540.73 364.1 540.73 365.61"/><polygon class="cls-4" points="543.31 365.38 541.97 365.5 541.97 363.98 543.31 363.86 543.31 365.38"/><polygon class="cls-4" points="545.92 365.15 544.56 365.27 544.56 363.74 545.92 363.61 545.92 365.15"/><polygon class="cls-4" points="530.75 373.41 529.5 373.5 529.5 372.02 530.75 371.93 530.75 373.41"/><polygon class="cls-4" points="533.2 373.23 531.93 373.32 531.93 371.84 533.2 371.74 533.2 373.23"/><polygon class="cls-4" points="535.68 373.06 534.39 373.15 534.39 371.66 535.68 371.56 535.68 373.06"/><polygon class="cls-4" points="538.19 372.88 536.88 372.97 536.88 371.47 538.19 371.37 538.19 372.88"/><polygon class="cls-4" points="540.73 372.69 539.41 372.79 539.41 371.28 540.73 371.18 540.73 372.69"/><polygon class="cls-4" points="543.31 372.51 541.97 372.61 541.97 371.08 543.31 370.98 543.31 372.51"/><polygon class="cls-4" points="545.92 372.32 544.56 372.42 544.56 370.89 545.92 370.79 545.92 372.32"/><polygon class="cls-4" points="530.75 380.31 529.5 380.37 529.5 378.9 530.75 378.83 530.75 380.31"/><polygon class="cls-4" points="533.2 380.18 531.93 380.24 531.93 378.76 533.2 378.69 533.2 380.18"/><polygon class="cls-4" points="535.68 380.04 534.39 380.11 534.39 378.62 535.68 378.55 535.68 380.04"/><polygon class="cls-4" points="538.19 379.91 536.88 379.98 536.88 378.48 538.19 378.4 538.19 379.91"/><polygon class="cls-4" points="540.73 379.77 539.41 379.85 539.41 378.33 540.73 378.26 540.73 379.77"/><polygon class="cls-4" points="543.31 379.64 541.97 379.71 541.97 378.19 543.31 378.11 543.31 379.64"/><polygon class="cls-4" points="545.92 379.5 544.56 379.57 544.56 378.04 545.92 377.96 545.92 379.5"/><polygon class="cls-7" points="63.99 298.63 65.06 298.31 65.06 296.14 63.99 296.48 63.99 298.63"/><polygon class="cls-7" points="61.24 299.45 62.29 299.14 62.29 297 61.24 297.32 61.24 299.45"/><polygon class="cls-7" points="58.54 300.26 59.57 299.95 59.57 297.83 58.54 298.14 58.54 300.26"/><polygon class="cls-7" points="55.89 301.05 56.91 300.75 56.91 298.65 55.89 298.96 55.89 301.05"/><polygon class="cls-7" points="53.3 301.83 54.29 301.53 54.29 299.45 53.3 299.75 53.3 301.83"/><polygon class="cls-7" points="50.75 302.59 51.73 302.3 51.73 300.24 50.75 300.54 50.75 302.59"/><polygon class="cls-7" points="48.25 303.34 49.21 303.05 49.21 301.01 48.25 301.3 48.25 303.34"/><polygon class="cls-7" points="63.99 304 65.06 303.7 65.06 301.54 63.99 301.85 63.99 304"/><polygon class="cls-7" points="61.24 304.77 62.29 304.48 62.29 302.33 61.24 302.64 61.24 304.77"/><polygon class="cls-7" points="58.54 305.53 59.57 305.24 59.57 303.12 58.54 303.42 58.54 305.53"/><polygon class="cls-7" points="55.89 306.27 56.91 305.99 56.91 303.88 55.89 304.17 55.89 306.27"/><polygon class="cls-7" points="53.3 307 54.29 306.72 54.29 304.63 53.3 304.92 53.3 307"/><polygon class="cls-7" points="50.75 307.71 51.73 307.43 51.73 305.37 50.75 305.65 50.75 307.71"/><polygon class="cls-7" points="48.25 308.4 49.21 308.14 49.21 306.1 48.25 306.37 48.25 308.4"/><polygon class="cls-7" points="63.99 309.38 65.06 309.1 65.06 306.93 63.99 307.22 63.99 309.38"/><polygon class="cls-7" points="61.24 310.09 62.29 309.82 62.29 307.68 61.24 307.96 61.24 310.09"/><polygon class="cls-7" points="58.54 310.8 59.57 310.53 59.57 308.41 58.54 308.68 58.54 310.8"/><polygon class="cls-7" points="55.89 311.48 56.91 311.22 56.91 309.12 55.89 309.39 55.89 311.48"/><polygon class="cls-7" points="53.3 312.16 54.29 311.9 54.29 309.82 53.3 310.09 53.3 312.16"/><polygon class="cls-7" points="50.75 312.82 51.73 312.57 51.73 310.51 50.75 310.77 50.75 312.82"/><polygon class="cls-7" points="48.25 313.47 49.21 313.22 49.21 311.18 48.25 311.44 48.25 313.47"/><polygon class="cls-7" points="63.99 314.75 65.06 314.49 65.06 312.33 63.99 312.59 63.99 314.75"/><polygon class="cls-7" points="61.24 315.41 62.29 315.16 62.29 313.01 61.24 313.28 61.24 315.41"/><polygon class="cls-7" points="58.54 316.06 59.57 315.81 59.57 313.69 58.54 313.95 58.54 316.06"/><polygon class="cls-7" points="55.89 316.7 56.91 316.46 56.91 314.36 55.89 314.61 55.89 316.7"/><polygon class="cls-7" points="53.3 317.33 54.29 317.09 54.29 315 53.3 315.25 53.3 317.33"/><polygon class="cls-7" points="50.75 317.94 51.73 317.7 51.73 315.64 50.75 315.88 50.75 317.94"/><polygon class="cls-7" points="48.25 318.54 49.21 318.31 49.21 316.27 48.25 316.51 48.25 318.54"/><polygon class="cls-7" points="63.99 320.12 65.06 319.88 65.06 317.72 63.99 317.96 63.99 320.12"/><polygon class="cls-7" points="61.24 320.73 62.29 320.5 62.29 318.36 61.24 318.6 61.24 320.73"/><polygon class="cls-7" points="58.54 321.33 59.57 321.1 59.57 318.98 58.54 319.22 58.54 321.33"/><polygon class="cls-7" points="55.89 321.92 56.91 321.69 56.91 319.59 55.89 319.82 55.89 321.92"/><polygon class="cls-7" points="53.3 322.49 54.29 322.27 54.29 320.19 53.3 320.42 53.3 322.49"/><polygon class="cls-7" points="50.75 323.06 51.73 322.84 51.73 320.78 50.75 321 50.75 323.06"/><polygon class="cls-7" points="48.25 323.61 49.21 323.4 49.21 321.36 48.25 321.58 48.25 323.61"/><polygon class="cls-7" points="63.99 325.5 65.06 325.27 65.06 323.11 63.99 323.34 63.99 325.5"/><polygon class="cls-7" points="61.24 326.05 62.29 325.84 62.29 323.7 61.24 323.92 61.24 326.05"/><polygon class="cls-7" points="58.54 326.6 59.57 326.39 59.57 324.27 58.54 324.48 58.54 326.6"/><polygon class="cls-7" points="55.89 327.13 56.91 326.93 56.91 324.83 55.89 325.04 55.89 327.13"/><polygon class="cls-7" points="53.3 327.66 54.29 327.46 54.29 325.38 53.3 325.58 53.3 327.66"/><polygon class="cls-7" points="50.75 328.17 51.73 327.98 51.73 325.92 50.75 326.12 50.75 328.17"/><polygon class="cls-7" points="48.25 328.68 49.21 328.49 49.21 326.44 48.25 326.64 48.25 328.68"/><polygon class="cls-7" points="63.99 330.87 65.06 330.67 65.06 328.51 63.99 328.71 63.99 330.87"/><polygon class="cls-7" points="61.24 331.37 62.29 331.18 62.29 329.04 61.24 329.24 61.24 331.37"/><polygon class="cls-7" points="58.54 331.87 59.57 331.68 59.57 329.56 58.54 329.75 58.54 331.87"/><polygon class="cls-7" points="55.89 332.35 56.91 332.16 56.91 330.06 55.89 330.25 55.89 332.35"/><polygon class="cls-7" points="53.3 332.82 54.29 332.64 54.29 330.56 53.3 330.75 53.3 332.82"/><polygon class="cls-7" points="50.75 333.29 51.73 333.11 51.73 331.05 50.75 331.23 50.75 333.29"/><polygon class="cls-7" points="48.25 333.75 49.21 333.57 49.21 331.53 48.25 331.71 48.25 333.75"/><polygon class="cls-7" points="63.99 336.24 65.06 336.06 65.06 333.9 63.99 334.08 63.99 336.24"/><polygon class="cls-7" points="61.24 336.69 62.29 336.52 62.29 334.38 61.24 334.56 61.24 336.69"/><polygon class="cls-7" points="58.54 337.13 59.57 336.96 59.57 334.84 58.54 335.02 58.54 337.13"/><polygon class="cls-7" points="55.89 337.56 56.91 337.4 56.91 335.3 55.89 335.47 55.89 337.56"/><polygon class="cls-7" points="53.3 337.99 54.29 337.83 54.29 335.75 53.3 335.92 53.3 337.99"/><polygon class="cls-7" points="50.75 338.4 51.73 338.25 51.73 336.19 50.75 336.35 50.75 338.4"/><polygon class="cls-7" points="48.25 338.81 49.21 338.66 49.21 336.62 48.25 336.78 48.25 338.81"/><polygon class="cls-7" points="63.99 341.61 65.06 341.46 65.06 339.29 63.99 339.46 63.99 341.61"/><polygon class="cls-7" points="61.24 342.01 62.29 341.86 62.29 339.71 61.24 339.88 61.24 342.01"/><polygon class="cls-7" points="58.54 342.4 59.57 342.25 59.57 340.13 58.54 340.29 58.54 342.4"/><polygon class="cls-7" points="55.89 342.78 56.91 342.63 56.91 340.54 55.89 340.69 55.89 342.78"/><polygon class="cls-7" points="53.3 343.16 54.29 343.01 54.29 340.93 53.3 341.08 53.3 343.16"/><polygon class="cls-7" points="50.75 343.52 51.73 343.38 51.73 341.32 50.75 341.47 50.75 343.52"/><polygon class="cls-7" points="48.25 343.88 49.21 343.75 49.21 341.7 48.25 341.85 48.25 343.88"/><polygon class="cls-7" points="63.99 346.99 65.06 346.85 65.06 344.69 63.99 344.83 63.99 346.99"/><polygon class="cls-7" points="61.24 347.33 62.29 347.2 62.29 345.06 61.24 345.2 61.24 347.33"/><polygon class="cls-7" points="58.54 347.67 59.57 347.54 59.57 345.42 58.54 345.56 58.54 347.67"/><polygon class="cls-7" points="55.89 348 56.91 347.87 56.91 345.77 55.89 345.9 55.89 348"/><polygon class="cls-7" points="53.3 348.32 54.29 348.2 54.29 346.12 53.3 346.25 53.3 348.32"/><polygon class="cls-7" points="50.75 348.64 51.73 348.52 51.73 346.46 50.75 346.59 50.75 348.64"/><polygon class="cls-7" points="48.25 348.95 49.21 348.83 49.21 346.79 48.25 346.92 48.25 348.95"/><polygon class="cls-7" points="63.99 352.36 65.06 352.25 65.06 350.08 63.99 350.2 63.99 352.36"/><polygon class="cls-7" points="61.24 352.65 62.29 352.54 62.29 350.4 61.24 350.52 61.24 352.65"/><polygon class="cls-7" points="58.54 352.94 59.57 352.83 59.57 350.7 58.54 350.82 58.54 352.94"/><polygon class="cls-7" points="55.89 353.21 56.91 353.11 56.91 351.01 55.89 351.12 55.89 353.21"/><polygon class="cls-7" points="53.3 353.49 54.29 353.38 54.29 351.3 53.3 351.41 53.3 353.49"/><polygon class="cls-7" points="50.75 353.76 51.73 353.65 51.73 351.59 50.75 351.71 50.75 353.76"/><polygon class="cls-7" points="48.25 354.02 49.21 353.92 49.21 351.88 48.25 351.99 48.25 354.02"/><polygon class="cls-7" points="63.99 357.73 65.06 357.64 65.06 355.48 63.99 355.58 63.99 357.73"/><polygon class="cls-7" points="61.24 357.97 62.29 357.88 62.29 355.74 61.24 355.83 61.24 357.97"/><polygon class="cls-7" points="58.54 358.2 59.57 358.12 59.57 355.99 58.54 356.09 58.54 358.2"/><polygon class="cls-7" points="55.89 358.43 56.91 358.34 56.91 356.24 55.89 356.34 55.89 358.43"/><polygon class="cls-7" points="53.3 358.65 54.29 358.57 54.29 356.49 53.3 356.58 53.3 358.65"/><polygon class="cls-7" points="50.75 358.88 51.73 358.79 51.73 356.73 50.75 356.82 50.75 358.88"/><polygon class="cls-7" points="48.25 359.09 49.21 359.01 49.21 356.97 48.25 357.06 48.25 359.09"/><polygon class="cls-7" points="63.99 363.11 65.06 363.03 65.06 360.87 63.99 360.95 63.99 363.11"/><polygon class="cls-7" points="61.24 363.29 62.29 363.22 62.29 361.08 61.24 361.15 61.24 363.29"/><polygon class="cls-7" points="58.54 363.47 59.57 363.4 59.57 361.28 58.54 361.36 58.54 363.47"/><polygon class="cls-7" points="55.89 363.64 56.91 363.58 56.91 361.48 55.89 361.56 55.89 363.64"/><polygon class="cls-7" points="53.3 363.82 54.29 363.75 54.29 361.68 53.3 361.75 53.3 363.82"/><polygon class="cls-7" points="50.75 363.99 51.73 363.93 51.73 361.87 50.75 361.94 50.75 363.99"/><polygon class="cls-7" points="48.25 364.16 49.21 364.1 49.21 362.05 48.25 362.12 48.25 364.16"/><polygon class="cls-7" points="63.99 368.48 65.06 368.43 65.06 366.26 63.99 366.32 63.99 368.48"/><polygon class="cls-7" points="61.24 368.61 62.29 368.56 62.29 366.42 61.24 366.48 61.24 368.61"/><polygon class="cls-7" points="58.54 368.74 59.57 368.69 59.57 366.57 58.54 366.62 58.54 368.74"/><polygon class="cls-7" points="55.89 368.87 56.91 368.82 56.91 366.71 55.89 366.77 55.89 368.87"/><polygon class="cls-7" points="53.3 368.99 54.29 368.94 54.29 366.86 53.3 366.91 53.3 368.99"/><polygon class="cls-7" points="50.75 369.11 51.73 369.06 51.73 367 50.75 367.05 50.75 369.11"/><polygon class="cls-7" points="48.25 369.23 49.21 369.18 49.21 367.14 48.25 367.19 48.25 369.23"/><polygon class="cls-7" points="63.99 373.85 65.06 373.82 65.06 371.66 63.99 371.69 63.99 373.85"/><polygon class="cls-7" points="61.24 373.93 62.29 373.9 62.29 371.76 61.24 371.8 61.24 373.93"/><polygon class="cls-7" points="58.54 374.01 59.57 373.98 59.57 371.86 58.54 371.89 58.54 374.01"/><polygon class="cls-7" points="55.89 374.08 56.91 374.05 56.91 371.95 55.89 371.99 55.89 374.08"/><polygon class="cls-7" points="53.3 374.15 54.29 374.13 54.29 372.04 53.3 372.08 53.3 374.15"/><polygon class="cls-7" points="50.75 374.23 51.73 374.2 51.73 372.13 50.75 372.17 50.75 374.23"/><polygon class="cls-7" points="48.25 374.3 49.21 374.27 49.21 372.23 48.25 372.26 48.25 374.3"/><polygon class="cls-7" points="63.99 379.22 65.06 379.22 65.06 377.05 63.99 377.07 63.99 379.22"/><polygon class="cls-7" points="61.24 379.25 62.29 379.24 62.29 377.1 61.24 377.12 61.24 379.25"/><polygon class="cls-7" points="58.54 379.27 59.57 379.26 59.57 377.14 58.54 377.16 58.54 379.27"/><polygon class="cls-7" points="55.89 379.3 56.91 379.29 56.91 377.19 55.89 377.2 55.89 379.3"/><polygon class="cls-7" points="53.3 379.32 54.29 379.31 54.29 377.23 53.3 377.25 53.3 379.32"/><polygon class="cls-7" points="50.75 379.34 51.73 379.34 51.73 377.27 50.75 377.29 50.75 379.34"/><polygon class="cls-7" points="48.25 379.36 49.21 379.36 49.21 377.31 48.25 377.33 48.25 379.36"/><rect class="cls-7" x="63.99" y="382.44" width="1.07" height="2.17"/><rect class="cls-7" x="61.24" y="382.43" width="1.05" height="2.17"/><rect class="cls-7" x="58.54" y="382.43" width="1.03" height="2.18"/><rect class="cls-7" x="55.89" y="382.42" width="1.01" height="2.19"/><rect class="cls-7" x="53.3" y="382.42" width="0.99" height="2.19"/><rect class="cls-7" x="50.75" y="382.41" width="0.97" height="2.2"/><rect class="cls-7" x="48.25" y="382.4" width="0.96" height="2.21"/><polygon class="cls-4" points="183.74 293.32 198.91 290.41 198.91 288.9 183.74 291.71 183.74 293.32"/><polygon class="cls-4" points="183.74 299.73 198.91 297.08 198.91 295.57 183.74 298.11 183.74 299.73"/><polygon class="cls-4" points="183.74 306.13 198.91 303.75 198.91 302.23 183.74 304.51 183.74 306.13"/><polygon class="cls-4" points="183.74 312.53 198.91 310.41 198.91 308.9 183.74 310.92 183.74 312.53"/><polygon class="cls-4" points="183.74 318.93 198.91 317.08 198.91 315.57 183.74 317.32 183.74 318.93"/><polygon class="cls-4" points="183.74 325.33 198.91 323.74 198.91 322.23 183.74 323.72 183.74 325.33"/><polygon class="cls-4" points="183.74 331.74 198.91 330.41 198.91 328.9 183.74 330.12 183.74 331.74"/><polygon class="cls-4" points="183.74 338.14 198.91 337.07 198.91 335.56 183.74 336.52 183.74 338.14"/><polygon class="cls-4" points="183.74 344.54 198.91 343.74 198.91 342.23 183.74 342.93 183.74 344.54"/><polygon class="cls-4" points="183.74 350.94 198.91 350.41 198.91 348.9 183.74 349.33 183.74 350.94"/><polygon class="cls-4" points="183.74 357.35 198.91 357.08 198.91 355.56 183.74 355.73 183.74 357.35"/><polygon class="cls-4" points="183.74 363.75 198.91 363.74 198.91 362.23 183.74 362.13 183.74 363.75"/><polygon class="cls-4" points="183.74 370.15 198.91 370.41 198.91 368.89 183.74 368.54 183.74 370.15"/><polygon class="cls-4" points="183.74 376.55 198.91 377.07 198.91 375.56 183.74 374.94 183.74 376.55"/></g></g></svg>