<svg xmlns="http://www.w3.org/2000/svg" viewBox="0 0 246.12 353"><defs><style>.cls-1,.cls-4,.cls-9{fill:#f2d7c2;}.cls-1,.cls-10,.cls-15,.cls-19,.cls-4{stroke:#000;}.cls-1,.cls-10,.cls-12,.cls-13,.cls-14,.cls-15,.cls-16,.cls-18,.cls-19,.cls-2,.cls-3,.cls-4,.cls-8{stroke-miterlimit:10;}.cls-1,.cls-10,.cls-12,.cls-18,.cls-19,.cls-2,.cls-8{stroke-width:5px;}.cls-2{fill:#2f467e;}.cls-13,.cls-14,.cls-16,.cls-2,.cls-8{stroke:#040000;}.cls-3{fill:#f9f7f7;stroke:#231815;}.cls-14,.cls-3,.cls-4{stroke-width:6px;}.cls-5{fill:#f49a9a;}.cls-6,.cls-8{fill:#3a5298;}.cls-7{fill:#020202;}.cls-10,.cls-12,.cls-13,.cls-14,.cls-15,.cls-20{fill:none;}.cls-11{fill:#5c5c5c;}.cls-12,.cls-18{stroke:#020202;}.cls-13{stroke-width:4px;}.cls-15{stroke-width:3px;}.cls-16{fill:#d0c470;}.cls-17{fill:#8a6c61;}.cls-18{fill:#010101;}.cls-19{fill:#515050;}</style></defs><g id="レイヤー_2" data-name="レイヤー 2"><g id="レイヤー_2-2" data-name="レイヤー 2"><circle class="cls-1" cx="56.7" cy="272.15" r="14.77"/><ellipse class="cls-2" cx="117.88" cy="235.58" rx="49.93" ry="54.85"/><polygon class="cls-3" points="119.47 255.27 154.63 200.42 88.53 200.42 119.47 255.27"/><circle class="cls-1" cx="38.42" cy="146.98" r="20.39"/><ellipse class="cls-4" cx="117.39" cy="142.95" rx="78.9" ry="69.85"/><circle class="cls-5" cx="162.88" cy="147.68" r="11.95"/><circle class="cls-6" cx="119.38" cy="220.98" r="6.14"/><ellipse class="cls-6" cx="119.38" cy="237.23" rx="6.14" ry="11.55"/><circle class="cls-7" cx="85.83" cy="129.81" r="10.9"/><circle class="cls-7" cx="154.41" cy="129.81" r="10.9"/><circle class="cls-7" cx="117.88" cy="143.46" r="3.52"/><path class="cls-8" d="M69.18,265.82H39.65s-8.44-46.41,33.75-59.07Z"/><path class="cls-9" d="M223.3,191.05a6.69,6.69,0,0,1-1.68-6.49l16.26-48.67a4,4,0,0,0-2.52-5.06l-10.87-3.64a4,4,0,0,0-5.06,2.53L202.8,179.49c-.7,2.09-1.51,3.79-1.81,3.78s-1.81-1.66-2.7-3.67l-19.58-44a4,4,0,0,0-5.28-2L163,138.25a4,4,0,0,0-2,5.28L179,184.1a5.75,5.75,0,0,1-1.4,6.28S160.82,205,160.82,217.86c0,19.11,17.5,34.6,39.09,34.6S239,237,239,217.86C239,205.38,223.3,191.05,223.3,191.05Z"/><path class="cls-10" d="M223.3,191.05a6.69,6.69,0,0,1-1.68-6.49l16.26-48.67a4,4,0,0,0-2.52-5.06l-10.87-3.64a4,4,0,0,0-5.06,2.53L202.8,179.49c-.7,2.09-1.51,3.79-1.81,3.78s-1.81-1.66-2.7-3.67l-19.58-44a4,4,0,0,0-5.28-2L163,138.25a4,4,0,0,0-2,5.28L179,184.1a5.75,5.75,0,0,1-1.4,6.28S160.82,205,160.82,217.86c0,19.11,17.5,34.6,39.09,34.6S239,237,239,217.86C239,205.38,223.3,191.05,223.3,191.05Z"/><path class="cls-10" d="M173.89,201.28s26.28,0,24.9,23.51"/><path class="cls-11" d="M160.82,261.24a5.67,5.67,0,0,1,2.9-6.83l9.21-4.27c2.5-1.16,4.35.13,4.11,2.87l-3.36,39.26c-.24,2.74-1.16,2.86-2.06.26Z"/><path class="cls-12" d="M160.82,261.24a5.67,5.67,0,0,1,2.9-6.83l9.21-4.27c2.5-1.16,4.35.13,4.11,2.87l-3.36,39.26c-.24,2.74-1.16,2.86-2.06.26Z"/><line class="cls-13" x1="73.58" y1="232.77" x2="96.08" y2="232.77"/><line class="cls-13" x1="134.05" y1="232.77" x2="167.8" y2="232.77"/><line class="cls-14" x1="73.58" y1="259.49" x2="160.77" y2="259.49"/><rect class="cls-11" x="81.31" y="308.01" width="35.16" height="19.69" rx="4"/><rect class="cls-12" x="81.31" y="308.01" width="35.16" height="19.69" rx="4"/><rect class="cls-11" x="122.1" y="308.01" width="35.16" height="19.69" rx="4"/><rect class="cls-12" x="122.1" y="308.01" width="35.16" height="19.69" rx="4"/><polygon class="cls-8" points="101.36 286.92 133.7 286.92 129.48 316.45 105.58 316.45 101.36 286.92"/><path class="cls-15" d="M98.89,154s16.88,16.88,40.78,0"/><path class="cls-8" d="M111,66.48,73,69S15.08,57,73.65,21.31C107.72,7.6,143,11.76,165.87,29.2s30.74,30.74-10.38,39.88L148.84,72Z"/><path class="cls-8" d="M78.39,78.36l-5-9.56s39.88-44.86,86.82-1.24l-7.48,10.8S116.19,65.48,78.39,78.36Z"/><ellipse class="cls-16" cx="117.17" cy="60.85" rx="11.95" ry="7.73"/><ellipse class="cls-17" cx="116.13" cy="97.05" rx="52.4" ry="16.17"/><path class="cls-18" d="M85.48,83.88S112.2,114.82,146,100.75c4.22,0,21.1-4.22,7-19.69C150.17,81.06,85.48,83.88,85.48,83.88Z"/><path class="cls-19" d="M76.26,84.23s24.76-23.35,81.83,0C169.72,89,82.49,92.79,76.26,84.23Z"/><rect class="cls-20" width="246.12" height="353"/></g></g></svg>