<svg xmlns="http://www.w3.org/2000/svg" xmlns:xlink="http://www.w3.org/1999/xlink" viewBox="0 0 308 405.86"><defs><style>.cls-1,.cls-11,.cls-12,.cls-2,.cls-3,.cls-5,.cls-7,.cls-8{fill:none;}.cls-2{stroke:#231815;stroke-width:2.16px;}.cls-3{stroke:#fff;stroke-width:1.2px;}.cls-4{fill:#b0deed;}.cls-11,.cls-12,.cls-15,.cls-5,.cls-7,.cls-8{stroke-miterlimit:10;}.cls-5{stroke:url(#_10_lpi_30_);}.cls-6{fill:url(#_6_lpi_10_3);}.cls-7{stroke:url(#_10_lpi_30_3);}.cls-8{stroke:url(#_10_lpi_30_5);}.cls-9{fill:url(#_6_lpi_10_3-3);}.cls-10{fill:url(#_6_lpi_10_3-5);}.cls-11,.cls-12,.cls-15{stroke:#7ca8d8;}.cls-11,.cls-15{stroke-width:4px;}.cls-12{stroke-width:2px;stroke-dasharray:4.98 4.98;}.cls-13,.cls-15{fill:#7ca8d8;}.cls-14{fill:url(#_6_lpi_10_3-7);}</style><pattern id="_10_lpi_30_" data-name="10 lpi 30%" width="72" height="72" patternTransform="translate(253.6 913.65) scale(0.49)" patternUnits="userSpaceOnUse" viewBox="0 0 72 72"><rect class="cls-1" width="72" height="72"/><line class="cls-2" x1="71.75" y1="68.4" x2="144.25" y2="68.4"/><line class="cls-2" x1="71.75" y1="54" x2="144.25" y2="54"/><line class="cls-2" x1="71.75" y1="39.6" x2="144.25" y2="39.6"/><line class="cls-2" x1="71.75" y1="25.2" x2="144.25" y2="25.2"/><line class="cls-2" x1="71.75" y1="10.8" x2="144.25" y2="10.8"/><line class="cls-2" x1="71.75" y1="61.2" x2="144.25" y2="61.2"/><line class="cls-2" x1="71.75" y1="46.8" x2="144.25" y2="46.8"/><line class="cls-2" x1="71.75" y1="32.4" x2="144.25" y2="32.4"/><line class="cls-2" x1="71.75" y1="18" x2="144.25" y2="18"/><line class="cls-2" x1="71.75" y1="3.6" x2="144.25" y2="3.6"/><line class="cls-2" x1="-0.25" y1="68.4" x2="72.25" y2="68.4"/><line class="cls-2" x1="-0.25" y1="54" x2="72.25" y2="54"/><line class="cls-2" x1="-0.25" y1="39.6" x2="72.25" y2="39.6"/><line class="cls-2" x1="-0.25" y1="25.2" x2="72.25" y2="25.2"/><line class="cls-2" x1="-0.25" y1="10.8" x2="72.25" y2="10.8"/><line class="cls-2" x1="-0.25" y1="61.2" x2="72.25" y2="61.2"/><line class="cls-2" x1="-0.25" y1="46.8" x2="72.25" y2="46.8"/><line class="cls-2" x1="-0.25" y1="32.4" x2="72.25" y2="32.4"/><line class="cls-2" x1="-0.25" y1="18" x2="72.25" y2="18"/><line class="cls-2" x1="-0.25" y1="3.6" x2="72.25" y2="3.6"/><line class="cls-2" x1="-72.25" y1="68.4" x2="0.25" y2="68.4"/><line class="cls-2" x1="-72.25" y1="54" x2="0.25" y2="54"/><line class="cls-2" x1="-72.25" y1="39.6" x2="0.25" y2="39.6"/><line class="cls-2" x1="-72.25" y1="25.2" x2="0.25" y2="25.2"/><line class="cls-2" x1="-72.25" y1="10.8" x2="0.25" y2="10.8"/><line class="cls-2" x1="-72.25" y1="61.2" x2="0.25" y2="61.2"/><line class="cls-2" x1="-72.25" y1="46.8" x2="0.25" y2="46.8"/><line class="cls-2" x1="-72.25" y1="32.4" x2="0.25" y2="32.4"/><line class="cls-2" x1="-72.25" y1="18" x2="0.25" y2="18"/><line class="cls-2" x1="-72.25" y1="3.6" x2="0.25" y2="3.6"/></pattern><pattern id="_6_lpi_10_3" data-name="6 lpi 10 % 3" width="72" height="72" patternTransform="matrix(0.57, -0.46, 0.57, 0.46, 185.87, 821.59)" patternUnits="userSpaceOnUse" viewBox="0 0 72 72"><rect class="cls-1" width="72" height="72"/><line class="cls-3" x1="71.75" y1="66" x2="144.25" y2="66"/><line class="cls-3" x1="71.75" y1="42" x2="144.25" y2="42"/><line class="cls-3" x1="71.75" y1="18" x2="144.25" y2="18"/><line class="cls-3" x1="71.75" y1="54" x2="144.25" y2="54"/><line class="cls-3" x1="71.75" y1="30" x2="144.25" y2="30"/><line class="cls-3" x1="71.75" y1="6" x2="144.25" y2="6"/><line class="cls-3" x1="-0.25" y1="66" x2="72.25" y2="66"/><line class="cls-3" x1="-0.25" y1="42" x2="72.25" y2="42"/><line class="cls-3" x1="-0.25" y1="18" x2="72.25" y2="18"/><line class="cls-3" x1="-0.25" y1="54" x2="72.25" y2="54"/><line class="cls-3" x1="-0.25" y1="30" x2="72.25" y2="30"/><line class="cls-3" x1="-0.25" y1="6" x2="72.25" y2="6"/><line class="cls-3" x1="-72.25" y1="66" x2="0.25" y2="66"/><line class="cls-3" x1="-72.25" y1="42" x2="0.25" y2="42"/><line class="cls-3" x1="-72.25" y1="18" x2="0.25" y2="18"/><line class="cls-3" x1="-72.25" y1="54" x2="0.25" y2="54"/><line class="cls-3" x1="-72.25" y1="30" x2="0.25" y2="30"/><line class="cls-3" x1="-72.25" y1="6" x2="0.25" y2="6"/></pattern><pattern id="_10_lpi_30_3" data-name="10 lpi 30%" width="72" height="72" patternTransform="translate(249.69 948.33) scale(0.49)" patternUnits="userSpaceOnUse" viewBox="0 0 72 72"><rect class="cls-1" width="72" height="72"/><line class="cls-2" x1="71.75" y1="68.4" x2="144.25" y2="68.4"/><line class="cls-2" x1="71.75" y1="54" x2="144.25" y2="54"/><line class="cls-2" x1="71.75" y1="39.6" x2="144.25" y2="39.6"/><line class="cls-2" x1="71.75" y1="25.2" x2="144.25" y2="25.2"/><line class="cls-2" x1="71.75" y1="10.8" x2="144.25" y2="10.8"/><line class="cls-2" x1="71.75" y1="61.2" x2="144.25" y2="61.2"/><line class="cls-2" x1="71.75" y1="46.8" x2="144.25" y2="46.8"/><line class="cls-2" x1="71.75" y1="32.4" x2="144.25" y2="32.4"/><line class="cls-2" x1="71.75" y1="18" x2="144.25" y2="18"/><line class="cls-2" x1="71.75" y1="3.6" x2="144.25" y2="3.6"/><line class="cls-2" x1="-0.25" y1="68.4" x2="72.25" y2="68.4"/><line class="cls-2" x1="-0.25" y1="54" x2="72.25" y2="54"/><line class="cls-2" x1="-0.25" y1="39.6" x2="72.25" y2="39.6"/><line class="cls-2" x1="-0.25" y1="25.2" x2="72.25" y2="25.2"/><line class="cls-2" x1="-0.25" y1="10.8" x2="72.25" y2="10.8"/><line class="cls-2" x1="-0.25" y1="61.2" x2="72.25" y2="61.2"/><line class="cls-2" x1="-0.25" y1="46.8" x2="72.25" y2="46.8"/><line class="cls-2" x1="-0.25" y1="32.4" x2="72.25" y2="32.4"/><line class="cls-2" x1="-0.25" y1="18" x2="72.25" y2="18"/><line class="cls-2" x1="-0.25" y1="3.6" x2="72.25" y2="3.6"/><line class="cls-2" x1="-72.25" y1="68.4" x2="0.25" y2="68.4"/><line class="cls-2" x1="-72.25" y1="54" x2="0.25" y2="54"/><line class="cls-2" x1="-72.25" y1="39.6" x2="0.25" y2="39.6"/><line class="cls-2" x1="-72.25" y1="25.2" x2="0.25" y2="25.2"/><line class="cls-2" x1="-72.25" y1="10.8" x2="0.25" y2="10.8"/><line class="cls-2" x1="-72.25" y1="61.2" x2="0.25" y2="61.2"/><line class="cls-2" x1="-72.25" y1="46.8" x2="0.25" y2="46.8"/><line class="cls-2" x1="-72.25" y1="32.4" x2="0.25" y2="32.4"/><line class="cls-2" x1="-72.25" y1="18" x2="0.25" y2="18"/><line class="cls-2" x1="-72.25" y1="3.6" x2="0.25" y2="3.6"/></pattern><pattern id="_10_lpi_30_5" data-name="10 lpi 30%" width="72" height="72" patternTransform="translate(328.02 960.54) scale(0.28 0.49)" patternUnits="userSpaceOnUse" viewBox="0 0 72 72"><rect class="cls-1" width="72" height="72"/><line class="cls-2" x1="71.75" y1="68.4" x2="144.25" y2="68.4"/><line class="cls-2" x1="71.75" y1="54" x2="144.25" y2="54"/><line class="cls-2" x1="71.75" y1="39.6" x2="144.25" y2="39.6"/><line class="cls-2" x1="71.75" y1="25.2" x2="144.25" y2="25.2"/><line class="cls-2" x1="71.75" y1="10.8" x2="144.25" y2="10.8"/><line class="cls-2" x1="71.75" y1="61.2" x2="144.25" y2="61.2"/><line class="cls-2" x1="71.75" y1="46.8" x2="144.25" y2="46.8"/><line class="cls-2" x1="71.75" y1="32.4" x2="144.25" y2="32.4"/><line class="cls-2" x1="71.75" y1="18" x2="144.25" y2="18"/><line class="cls-2" x1="71.75" y1="3.6" x2="144.25" y2="3.6"/><line class="cls-2" x1="-0.25" y1="68.4" x2="72.25" y2="68.4"/><line class="cls-2" x1="-0.25" y1="54" x2="72.25" y2="54"/><line class="cls-2" x1="-0.25" y1="39.6" x2="72.25" y2="39.6"/><line class="cls-2" x1="-0.25" y1="25.2" x2="72.25" y2="25.2"/><line class="cls-2" x1="-0.25" y1="10.8" x2="72.25" y2="10.8"/><line class="cls-2" x1="-0.25" y1="61.2" x2="72.25" y2="61.2"/><line class="cls-2" x1="-0.25" y1="46.8" x2="72.25" y2="46.8"/><line class="cls-2" x1="-0.25" y1="32.4" x2="72.25" y2="32.4"/><line class="cls-2" x1="-0.25" y1="18" x2="72.25" y2="18"/><line class="cls-2" x1="-0.25" y1="3.6" x2="72.25" y2="3.6"/><line class="cls-2" x1="-72.25" y1="68.4" x2="0.25" y2="68.4"/><line class="cls-2" x1="-72.25" y1="54" x2="0.25" y2="54"/><line class="cls-2" x1="-72.25" y1="39.6" x2="0.25" y2="39.6"/><line class="cls-2" x1="-72.25" y1="25.2" x2="0.25" y2="25.2"/><line class="cls-2" x1="-72.25" y1="10.8" x2="0.25" y2="10.8"/><line class="cls-2" x1="-72.25" y1="61.2" x2="0.25" y2="61.2"/><line class="cls-2" x1="-72.25" y1="46.8" x2="0.25" y2="46.8"/><line class="cls-2" x1="-72.25" y1="32.4" x2="0.25" y2="32.4"/><line class="cls-2" x1="-72.25" y1="18" x2="0.25" y2="18"/><line class="cls-2" x1="-72.25" y1="3.6" x2="0.25" y2="3.6"/></pattern><pattern id="_6_lpi_10_3-3" data-name="6 lpi 10 % 3" width="72" height="72" patternTransform="matrix(0.57, -0.46, 0.57, 0.46, 318.05, 853.95)" patternUnits="userSpaceOnUse" viewBox="0 0 72 72"><rect class="cls-1" width="72" height="72"/><line class="cls-3" x1="71.75" y1="66" x2="144.25" y2="66"/><line class="cls-3" x1="71.75" y1="42" x2="144.25" y2="42"/><line class="cls-3" x1="71.75" y1="18" x2="144.25" y2="18"/><line class="cls-3" x1="71.75" y1="54" x2="144.25" y2="54"/><line class="cls-3" x1="71.75" y1="30" x2="144.25" y2="30"/><line class="cls-3" x1="71.75" y1="6" x2="144.25" y2="6"/><line class="cls-3" x1="-0.25" y1="66" x2="72.25" y2="66"/><line class="cls-3" x1="-0.25" y1="42" x2="72.25" y2="42"/><line class="cls-3" x1="-0.25" y1="18" x2="72.25" y2="18"/><line class="cls-3" x1="-0.25" y1="54" x2="72.25" y2="54"/><line class="cls-3" x1="-0.25" y1="30" x2="72.25" y2="30"/><line class="cls-3" x1="-0.25" y1="6" x2="72.25" y2="6"/><line class="cls-3" x1="-72.25" y1="66" x2="0.25" y2="66"/><line class="cls-3" x1="-72.25" y1="42" x2="0.25" y2="42"/><line class="cls-3" x1="-72.25" y1="18" x2="0.25" y2="18"/><line class="cls-3" x1="-72.25" y1="54" x2="0.25" y2="54"/><line class="cls-3" x1="-72.25" y1="30" x2="0.25" y2="30"/><line class="cls-3" x1="-72.25" y1="6" x2="0.25" y2="6"/></pattern><pattern id="_6_lpi_10_3-5" data-name="6 lpi 10 % 3" width="72" height="72" patternTransform="matrix(0.32, -0.46, 0.32, 0.46, 379.29, 869.86)" patternUnits="userSpaceOnUse" viewBox="0 0 72 72"><rect class="cls-1" width="72" height="72"/><line class="cls-3" x1="71.75" y1="66" x2="144.25" y2="66"/><line class="cls-3" x1="71.75" y1="42" x2="144.25" y2="42"/><line class="cls-3" x1="71.75" y1="18" x2="144.25" y2="18"/><line class="cls-3" x1="71.75" y1="54" x2="144.25" y2="54"/><line class="cls-3" x1="71.75" y1="30" x2="144.25" y2="30"/><line class="cls-3" x1="71.75" y1="6" x2="144.25" y2="6"/><line class="cls-3" x1="-0.25" y1="66" x2="72.25" y2="66"/><line class="cls-3" x1="-0.25" y1="42" x2="72.25" y2="42"/><line class="cls-3" x1="-0.25" y1="18" x2="72.25" y2="18"/><line class="cls-3" x1="-0.25" y1="54" x2="72.25" y2="54"/><line class="cls-3" x1="-0.25" y1="30" x2="72.25" y2="30"/><line class="cls-3" x1="-0.25" y1="6" x2="72.25" y2="6"/><line class="cls-3" x1="-72.25" y1="66" x2="0.25" y2="66"/><line class="cls-3" x1="-72.25" y1="42" x2="0.25" y2="42"/><line class="cls-3" x1="-72.25" y1="18" x2="0.25" y2="18"/><line class="cls-3" x1="-72.25" y1="54" x2="0.25" y2="54"/><line class="cls-3" x1="-72.25" y1="30" x2="0.25" y2="30"/><line class="cls-3" x1="-72.25" y1="6" x2="0.25" y2="6"/></pattern><pattern id="_6_lpi_10_3-7" data-name="6 lpi 10 % 3" width="72" height="72" patternTransform="matrix(0.33, -0.33, 0.33, 0.33, 282.18, 896.21)" patternUnits="userSpaceOnUse" viewBox="0 0 72 72"><rect class="cls-1" width="72" height="72"/><line class="cls-3" x1="71.75" y1="66" x2="144.25" y2="66"/><line class="cls-3" x1="71.75" y1="42" x2="144.25" y2="42"/><line class="cls-3" x1="71.75" y1="18" x2="144.25" y2="18"/><line class="cls-3" x1="71.75" y1="54" x2="144.25" y2="54"/><line class="cls-3" x1="71.75" y1="30" x2="144.25" y2="30"/><line class="cls-3" x1="71.75" y1="6" x2="144.25" y2="6"/><line class="cls-3" x1="-0.25" y1="66" x2="72.25" y2="66"/><line class="cls-3" x1="-0.25" y1="42" x2="72.25" y2="42"/><line class="cls-3" x1="-0.25" y1="18" x2="72.25" y2="18"/><line class="cls-3" x1="-0.25" y1="54" x2="72.25" y2="54"/><line class="cls-3" x1="-0.25" y1="30" x2="72.25" y2="30"/><line class="cls-3" x1="-0.25" y1="6" x2="72.25" y2="6"/><line class="cls-3" x1="-72.25" y1="66" x2="0.25" y2="66"/><line class="cls-3" x1="-72.25" y1="42" x2="0.25" y2="42"/><line class="cls-3" x1="-72.25" y1="18" x2="0.25" y2="18"/><line class="cls-3" x1="-72.25" y1="54" x2="0.25" y2="54"/><line class="cls-3" x1="-72.25" y1="30" x2="0.25" y2="30"/><line class="cls-3" x1="-72.25" y1="6" x2="0.25" y2="6"/></pattern></defs><g id="レイヤー_2" data-name="レイヤー 2"><g id="レイヤー_2-2" data-name="レイヤー 2"><rect class="cls-4" x="22.61" y="83.58" width="72.33" height="239.71" rx="4"/><rect class="cls-5" x="22.61" y="83.58" width="72.33" height="239.71" rx="4"/><rect class="cls-6" x="21.76" y="84.52" width="72.2" height="239.48" rx="4"/><rect class="cls-4" x="194.63" y="300.05" width="72.33" height="22.72" rx="4"/><rect class="cls-7" x="194.63" y="300.05" width="72.33" height="22.72" rx="4"/><rect class="cls-4" x="91.03" y="382.64" width="41.29" height="22.72" rx="4"/><rect class="cls-8" x="91.03" y="382.64" width="41.29" height="22.72" rx="4"/><rect class="cls-9" x="194.76" y="300.05" width="72.2" height="22.97" rx="4"/><rect class="cls-10" x="91.16" y="382.64" width="41.17" height="22.97" rx="4"/><rect class="cls-11" x="22.12" y="83.58" width="72.33" height="239.71" rx="4"/><rect class="cls-12" x="194.63" y="84.53" width="72.33" height="239.71" rx="4"/><rect class="cls-11" x="194.63" y="279.52" width="72.33" height="44.23" rx="4"/><rect class="cls-11" x="92.49" y="346.96" width="39.83" height="24.35" rx="4"/><path class="cls-13" d="M31.77,57.18h-.05l-3.24,1.54-.66-3,4.51-2.1h3.29v17H31.77Z"/><path class="cls-13" d="M53.82,62.08c0,5.24-2.13,8.87-6.47,8.87S41,67,41,62.18s2.07-8.84,6.48-8.84S53.82,57.41,53.82,62.08ZM45,62.17c0,3.92.93,5.77,2.46,5.77s2.4-1.94,2.4-5.81-.83-5.76-2.41-5.76S45,58.2,45,62.17Z"/><path class="cls-13" d="M68.35,62.08c0,5.24-2.13,8.87-6.47,8.87s-6.35-4-6.37-8.77,2.08-8.84,6.49-8.84S68.35,57.41,68.35,62.08Zm-8.85.09c0,3.92.94,5.77,2.46,5.77s2.41-1.94,2.41-5.81-.83-5.76-2.42-5.76S59.5,58.2,59.5,62.17Z"/><path class="cls-13" d="M79.26,58.4c0,3.55-2.26,5.42-4.72,5.42s-4.62-1.94-4.63-5.14c0-3,1.86-5.34,4.76-5.34S79.26,55.49,79.26,58.4Zm-6.38.19c0,1.79.59,3,1.75,3s1.67-1.14,1.67-3.07c0-1.73-.47-3-1.69-3S72.88,56.87,72.88,58.59ZM74.75,71l9.79-17.61h2.13L76.88,71Zm16.78-5.48c0,3.56-2.26,5.44-4.72,5.44s-4.62-2-4.63-5.15,1.86-5.35,4.76-5.35S91.53,62.56,91.53,65.47Zm-6.38.2c0,1.78.59,3.06,1.75,3.06s1.67-1.15,1.67-3.08c0-1.73-.47-3.07-1.69-3.07S85.15,64,85.15,65.67Z"/><path class="cls-13" d="M208.5,271.52v-2.41l2.19-2c3.72-3.35,5.54-5.25,5.57-7.24,0-1.39-.82-2.49-2.79-2.49a6.29,6.29,0,0,0-3.64,1.4L208.71,256a9.36,9.36,0,0,1,5.56-1.76c3.87,0,6,2.25,6,5.34,0,2.85-2.05,5.15-4.53,7.33l-1.57,1.31v.06h6.44v3.28Z"/><path class="cls-13" d="M235.61,262.93c0,5.25-2.13,8.88-6.47,8.88s-6.35-3.95-6.37-8.77,2.08-8.84,6.49-8.84S235.61,258.26,235.61,262.93Zm-8.85.09c0,3.92.94,5.78,2.46,5.78s2.41-1.95,2.41-5.82-.83-5.76-2.42-5.76S226.76,259.06,226.76,263Z"/><path class="cls-13" d="M246.52,259.25c0,3.56-2.26,5.42-4.72,5.42s-4.62-1.94-4.63-5.13,1.86-5.34,4.76-5.34S246.52,256.34,246.52,259.25Zm-6.38.2c0,1.78.59,3.05,1.74,3.05s1.68-1.14,1.68-3.07c0-1.73-.47-3.05-1.69-3.05S240.14,257.73,240.14,259.45ZM242,271.81l9.78-17.61h2.14l-9.79,17.61Zm16.78-5.48c0,3.55-2.26,5.43-4.72,5.43s-4.62-1.95-4.63-5.15c0-3,1.86-5.35,4.76-5.35S258.79,263.42,258.79,266.33Zm-6.38.19c0,1.79.59,3.06,1.75,3.06s1.67-1.15,1.67-3.07c0-1.74-.47-3.07-1.69-3.07S252.41,264.8,252.41,266.52Z"/><path class="cls-13" d="M162.18,365.12v-6.65h-8.59v-2h8.59v-2.66h-4v-1.43a18.9,18.9,0,0,1-5.83,3.07l-1-2.25q7.88-2.55,10.74-8.7l2.56.31c.34.07.3.27-.1.61q3.47,4.92,10.43,7.06l-1.12,2.36a23.07,23.07,0,0,1-5.53-2.76v1.73h-4.09v2.66h8.69v2h-8.69v6.65h9.51v1.94H153v-1.94Zm-4.09-.51a30.46,30.46,0,0,0-2.05-4l2.05-1a21.38,21.38,0,0,1,2,3.89ZM168,351.92a16.61,16.61,0,0,1-4.8-5.11,18.16,18.16,0,0,1-4.4,5.11Zm-1.63,11.77a30.54,30.54,0,0,0,1.74-4.51l1.94.62c.89.2.95.44.2.71a30.86,30.86,0,0,1-1.73,3.89Z"/><path class="cls-13" d="M179.88,360.51l-1.74.82-.71-1.84a20,20,0,0,0,5.62-3.07,20.41,20.41,0,0,1-1.74-1.74,14.11,14.11,0,0,1-2.66,2.25l-.92-1.74a8.94,8.94,0,0,0,4.4-5.42l1.74.31c.48.07.45.27-.1.61l-.51,1h3.48l.3-.31,1.54,1.23c.13.27,0,.41-.41.41a17.46,17.46,0,0,1-2.66,3.27,16.31,16.31,0,0,0,5,2.35l-.82,2.05a35.31,35.31,0,0,1-5.32-3.17,16.58,16.58,0,0,1-3.47,2.35h6.85v7.37H186v-.51h-4.4v1h-1.74Zm5.22-13h4.4v3.58h-1.74v-1.94h-7.47v2.66h-1.74v-4.3h4.5v-2.66H185c.54.07.58.27.1.61Zm.92,14h-4.4v3.58H186Zm0-8.6h-3.27l-.41.62a14.71,14.71,0,0,0,1.84,1.74A16,16,0,0,0,186,352.94Zm2.66,13.2a12.39,12.39,0,0,0,4.71-1.94l1.33,1.64c.34.47.17.61-.51.4a22.53,22.53,0,0,1-4.61,2.05Zm2.15-2.45V350.08h3.07l.72-2.56h-4.2v-1.94H201v1.94h-4.3l-1.12,2.56h4.6v13.61Zm1.74-12v2.35h5.83v-2.35Zm0,4v2.35h5.83v-2.35Zm0,4v2.35h5.83V359.7Zm8.39,8.49a19.62,19.62,0,0,1-4.81-2.56l1.33-1.53a19.16,19.16,0,0,0,4.5,2.14Z"/><path class="cls-4" d="M157,401.81h-2V389.12a15.73,15.73,0,0,1-1.84,2.66l-1.64-1.84a20.12,20.12,0,0,0,4.6-11.36l2.15.41q.72.21,0,.51a39.78,39.78,0,0,1-1.43,5.73l.41.1c.2.21.13.41-.21.62Zm5.73-17.4h3.18v-5.62h1.94c.54.06.58.27.1.61v5h5v1.95h-5v5.11H175v1.95h-7.06v8.28h-2v-8.28h-7.58v-1.95h7.58v-5.11h-3.79a13.91,13.91,0,0,1-2.46,4.4l-1.74-1.64a15.33,15.33,0,0,0,3.28-8.7l2.45.62c.28.27.17.44-.3.51C163.24,382,163,383,162.69,384.41Z"/><path class="cls-4" d="M183.77,378.38h1.64c.54.07.58.27.1.61v4.4h5.22V385h-4.3a11.44,11.44,0,0,0,3.48,2.55l-1.13,1.74a12.5,12.5,0,0,1-3.27-2.86v2.45h-1.74V387a15.39,15.39,0,0,1-4.5,3.68L177.94,389a17.46,17.46,0,0,0,5.22-4h-4.71v-1.64h5.32Zm-2.05,19.23-1.63-.92a38.25,38.25,0,0,0,2-3.48h-3.88v-1.63h4.5a23.56,23.56,0,0,0,.92-2.26l1.94.52c.27.27.17.44-.31.51l-.61,1.23h5.83v1.63H189a10.11,10.11,0,0,1-1.54,3.48,17.61,17.61,0,0,1,2,1l-.92,1.64a16.12,16.12,0,0,0-2-1.12,12.11,12.11,0,0,1-7.16,3.27l-.72-1.84a11,11,0,0,0,6.14-2.25c-.75-.34-1.5-.65-2.25-.92Zm-2.66-17.19,1.64-1a8.92,8.92,0,0,1,1.84,2.56l-1.63,1.12A9.38,9.38,0,0,0,179.06,380.42ZM185.71,396a6.83,6.83,0,0,0,1.33-2.76h-3c-.28.62-.58,1.23-.92,1.84A19.69,19.69,0,0,1,185.71,396Zm2.56-12.78-1.64-.93a20.75,20.75,0,0,0,1.54-3.06l1.84.92c.27.27.17.44-.31.51A10.14,10.14,0,0,1,188.27,383.19Zm8.49,12.58a13.91,13.91,0,0,0,4.61,3.58L200,401.6a16.41,16.41,0,0,1-4.61-4.09,18.77,18.77,0,0,1-7.26,4.6l-1-2c3.54-1.44,5.89-2.9,7.06-4.4a16.8,16.8,0,0,1-2-6.76,10.53,10.53,0,0,1-1.23,2.36l-1.74-1.33A23.23,23.23,0,0,0,193,378.79l2.15.51c.41.27.3.48-.31.61a34.16,34.16,0,0,1-.82,3.68h7v2h-1.74A21.78,21.78,0,0,1,196.76,395.77Zm.41-10.23h-3.48q.31,5.63,1.74,8.39Q196.87,391.17,197.17,385.54Z"/><path class="cls-13" d="M54,39.61A127.23,127.23,0,0,1,70.3,25.08,140.46,140.46,0,0,1,88.81,13.24c13-6.92,27.32-11.76,42.32-13A87.55,87.55,0,0,1,175.24,8.2a92.07,92.07,0,0,1,19.22,12,112.89,112.89,0,0,1,15.95,15.95,159.92,159.92,0,0,1,12.83,18.26,149.81,149.81,0,0,1,10.34,19.83,158.16,158.16,0,0,1,7.36,21.09,177.45,177.45,0,0,1,4.41,21.84,184.81,184.81,0,0,1,1.74,22.15,204.39,204.39,0,0,1-.73,22.14,202.3,202.3,0,0,1-3.11,21.91c-.74,3.62-1.55,7.23-2.54,10.81-.5,1.79-1,3.58-1.64,5.37-.3.89-.62,1.79-1,2.71-.18.46-.37.92-.6,1.42-.12.25-.24.51-.41.82-.09.16-.19.33-.35.57a4.36,4.36,0,0,1-.41.5,3.57,3.57,0,0,1-.54.47,3.32,3.32,0,0,1-1.78.56v-6a3,3,0,0,0-1.63.49,2.4,2.4,0,0,0-.41.35,1.28,1.28,0,0,0-.2.24s0,0,0,0l.18-.41c.13-.33.26-.72.39-1.1.26-.79.51-1.62.74-2.45q.69-2.52,1.26-5.12c.76-3.45,1.43-6.94,2-10.46,1.09-7,1.87-14.12,2.27-21.22s.49-14.23.19-21.33a205,205,0,0,0-2-21.16,167.34,167.34,0,0,0-4.4-20.72,154.77,154.77,0,0,0-7-19.94A143.8,143.8,0,0,0,215.68,59,151.52,151.52,0,0,0,203.74,41.6a105.59,105.59,0,0,0-14.58-14.93A87.08,87.08,0,0,0,171.83,15.3a83.7,83.7,0,0,0-40.34-8.61c-14,.42-27.92,4.26-41,10.06a153.06,153.06,0,0,0-19,10.15q-4.59,2.85-9,6C59.64,35,56.74,37.22,54,39.61Z"/><path class="cls-13" d="M230.4,224.85s0,0,0,0l-4.08-12.76h0l-4.09-12.76h0l13,2.87h0l13,2.86s0,0,0,0l-8.92,9.9h0Z"/><path class="cls-11" d="M230.4,224.85s0,0,0,0l-4.08-12.76h0l-4.09-12.76h0l13,2.87h0l13,2.86s0,0,0,0l-8.92,9.9h0Z"/><path class="cls-4" d="M212.5,286.89h0l-2.68,1.27-.55-2.47L213,284h2.72v14.1H212.5Z"/><path class="cls-4" d="M230.75,290.94c0,4.34-1.76,7.34-5.35,7.34s-5.26-3.26-5.27-7.25,1.72-7.32,5.36-7.32S230.75,287.08,230.75,290.94Zm-7.32.08c0,3.24.77,4.77,2,4.77s2-1.61,2-4.81-.68-4.76-2-4.76S223.42,287.74,223.43,291Z"/><path class="cls-4" d="M239.79,287.9c0,2.94-1.87,4.48-3.91,4.48s-3.83-1.6-3.83-4.25,1.53-4.42,3.93-4.42S239.79,285.49,239.79,287.9Zm-5.29.16c0,1.47.49,2.52,1.45,2.52s1.38-.94,1.38-2.54c0-1.43-.38-2.53-1.39-2.53S234.5,286.63,234.5,288.06Zm1.55,10.22,8.1-14.57h1.77l-8.1,14.57Zm13.89-4.53c0,2.94-1.87,4.5-3.91,4.5s-3.82-1.62-3.83-4.26,1.54-4.43,3.94-4.43S249.94,291.34,249.94,293.75Zm-5.28.16c0,1.48.49,2.54,1.44,2.54s1.39-1,1.39-2.55c0-1.43-.39-2.54-1.4-2.54S244.66,292.49,244.66,293.91Z"/><rect class="cls-14" x="208.81" y="281.85" width="41.74" height="16.16" rx="4"/><line class="cls-15" y1="324.61" x2="308" y2="324.61"/></g></g></svg>