<svg xmlns="http://www.w3.org/2000/svg" viewBox="0 0 285.13 194.97"><defs><style>.cls-1{fill:none;stroke:#fcfcfc;stroke-width:2px;}.cls-1,.cls-3{stroke-miterlimit:10;}.cls-2{fill:#fff;}.cls-3{fill:#fcfcfc;stroke:#fff;}.cls-4{fill:#ff0303;}.cls-5{fill:#56a5ed;}</style></defs><g id="レイヤー_2" data-name="レイヤー 2"><g id="レイヤー_2-2" data-name="レイヤー 2"><path d="M120,193.5a15,15,0,0,0,7.63-.06l106.06-34.21c2.1-.67,2.09-1.75,0-2.4L153,132.13a15.1,15.1,0,0,0-7.64,0l-107,34c-2.1.67-2.09,1.74,0,2.38Z"/><path class="cls-1" d="M120,193.5a15,15,0,0,0,7.63-.06l106.06-34.21c2.1-.67,2.09-1.75,0-2.4L153,132.13a15.1,15.1,0,0,0-7.64,0l-107,34c-2.1.67-2.09,1.74,0,2.38Z"/><path d="M122.49,187.75a15,15,0,0,0,7.63-.05l106.07-34.21c2.09-.68,2.09-1.76,0-2.4l-80.64-24.71a15.06,15.06,0,0,0-7.63,0l-107,34c-2.1.66-2.09,1.73,0,2.38Z"/><path class="cls-1" d="M122.49,187.75a15,15,0,0,0,7.63-.05l106.07-34.21c2.09-.68,2.09-1.76,0-2.4l-80.64-24.71a15.06,15.06,0,0,0-7.63,0l-107,34c-2.1.66-2.09,1.73,0,2.38Z"/><path d="M122.09,183.16a15,15,0,0,0,7.63-.06l106.07-34.21c2.09-.67,2.09-1.75,0-2.4l-80.64-24.71a15.17,15.17,0,0,0-7.63,0l-107,34c-2.1.66-2.09,1.74,0,2.38Z"/><path class="cls-1" d="M122.09,183.16a15,15,0,0,0,7.63-.06l106.07-34.21c2.09-.67,2.09-1.75,0-2.4l-80.64-24.71a15.17,15.17,0,0,0-7.63,0l-107,34c-2.1.66-2.09,1.74,0,2.38Z"/><path d="M121.69,177a15,15,0,0,0,7.63-.06l106.07-34.21c2.09-.67,2.09-1.75,0-2.4l-80.64-24.7a15.06,15.06,0,0,0-7.63,0l-107,33.95c-2.1.67-2.1,1.74,0,2.38Z"/><path class="cls-1" d="M121.69,177a15,15,0,0,0,7.63-.06l106.07-34.21c2.09-.67,2.09-1.75,0-2.4l-80.64-24.7a15.06,15.06,0,0,0-7.63,0l-107,33.95c-2.1.67-2.1,1.74,0,2.38Z"/><path d="M121.29,172.43a15,15,0,0,0,7.63-.05L235,138.17c2.09-.68,2.09-1.76,0-2.4l-80.64-24.71a15,15,0,0,0-7.63,0l-107,34c-2.1.66-2.1,1.73,0,2.38Z"/><path class="cls-1" d="M121.29,172.43a15,15,0,0,0,7.63-.05L235,138.17c2.09-.68,2.09-1.76,0-2.4l-80.64-24.71a15,15,0,0,0-7.63,0l-107,34c-2.1.66-2.1,1.73,0,2.38Z"/><path d="M120.89,170.39a15,15,0,0,0,7.63-.06l106.07-34.21c2.09-.67,2.08-1.75,0-2.4L153.93,109a15.17,15.17,0,0,0-7.63,0l-107,34c-2.1.66-2.1,1.74,0,2.38Z"/><path class="cls-1" d="M120.89,170.39a15,15,0,0,0,7.63-.06l106.07-34.21c2.09-.67,2.08-1.75,0-2.4L153.93,109a15.17,15.17,0,0,0-7.63,0l-107,34c-2.1.66-2.1,1.74,0,2.38Z"/><path d="M120.49,164.77a15,15,0,0,0,7.63-.06L234.19,130.5c2.09-.67,2.08-1.75,0-2.4l-80.64-24.7a15.06,15.06,0,0,0-7.63,0l-107,33.95c-2.1.67-2.1,1.74,0,2.38Z"/><path class="cls-1" d="M120.49,164.77a15,15,0,0,0,7.63-.06L234.19,130.5c2.09-.67,2.08-1.75,0-2.4l-80.64-24.7a15.06,15.06,0,0,0-7.63,0l-107,33.95c-2.1.67-2.1,1.74,0,2.38Z"/><path d="M120.09,160.68a15,15,0,0,0,7.63-.05l106.07-34.21c2.09-.68,2.08-1.76,0-2.4L153.13,99.31a15.1,15.1,0,0,0-7.64,0l-107,34c-2.09.66-2.09,1.73,0,2.38Z"/><path class="cls-1" d="M120.09,160.68a15,15,0,0,0,7.63-.05l106.07-34.21c2.09-.68,2.08-1.76,0-2.4L153.13,99.31a15.1,15.1,0,0,0-7.64,0l-107,34c-2.09.66-2.09,1.73,0,2.38Z"/><path d="M119.69,157.11a15,15,0,0,0,7.63-.06l106.07-34.21c2.09-.67,2.08-1.75,0-2.4L152.73,95.73a15.21,15.21,0,0,0-7.64,0l-107,34c-2.09.66-2.09,1.74,0,2.38Z"/><path class="cls-1" d="M119.69,157.11a15,15,0,0,0,7.63-.06l106.07-34.21c2.09-.67,2.08-1.75,0-2.4L152.73,95.73a15.21,15.21,0,0,0-7.64,0l-107,34c-2.09.66-2.09,1.74,0,2.38Z"/><path d="M119.29,154a14.84,14.84,0,0,0,7.63-.06L233,119.77c2.09-.67,2.08-1.75,0-2.4l-80.64-24.7a15.1,15.1,0,0,0-7.64,0l-107,34c-2.09.67-2.09,1.74,0,2.38Z"/><path class="cls-1" d="M119.29,154a14.84,14.84,0,0,0,7.63-.06L233,119.77c2.09-.67,2.08-1.75,0-2.4l-80.64-24.7a15.1,15.1,0,0,0-7.64,0l-107,34c-2.09.67-2.09,1.74,0,2.38Z"/><path d="M118.89,150.46a15,15,0,0,0,7.63-.05L232.59,116.2c2.09-.68,2.08-1.76,0-2.4L151.93,89.09a15.1,15.1,0,0,0-7.64,0l-107,34c-2.09.66-2.09,1.73,0,2.38Z"/><path class="cls-1" d="M118.89,150.46a15,15,0,0,0,7.63-.05L232.59,116.2c2.09-.68,2.08-1.76,0-2.4L151.93,89.09a15.1,15.1,0,0,0-7.64,0l-107,34c-2.09.66-2.09,1.73,0,2.38Z"/><path d="M118.49,146.38a15,15,0,0,0,7.63-.06l106.07-34.21c2.09-.67,2.08-1.75,0-2.4L151.53,85a15.21,15.21,0,0,0-7.64,0L36.86,119c-2.09.66-2.09,1.74,0,2.38Z"/><path class="cls-1" d="M118.49,146.38a15,15,0,0,0,7.63-.06l106.07-34.21c2.09-.67,2.08-1.75,0-2.4L151.53,85a15.21,15.21,0,0,0-7.64,0L36.86,119c-2.09.66-2.09,1.74,0,2.38Z"/><path class="cls-2" d="M138.85,105.42a11.31,11.31,0,0,0,5.72,0l24.24-7.82c1.57-.51,1.56-1.32,0-1.8l-17.52-5.37a11.31,11.31,0,0,0-5.72,0l-24.49,7.77c-1.57.49-1.57,1.3,0,1.78Z"/><path class="cls-2" d="M72.38,124.92a11.35,11.35,0,0,0,5.73,0l15.61-5c1.57-.51,1.57-1.32,0-1.8l-10.83-3.32a11.31,11.31,0,0,0-5.72,0l-15.8,5c-1.57.5-1.57,1.3,0,1.79Z"/><line class="cls-3" x1="171.74" y1="102.12" x2="209.02" y2="114.36"/><line class="cls-3" x1="164.59" y1="103.65" x2="201.88" y2="115.89"/><line class="cls-3" x1="157.45" y1="105.18" x2="194.74" y2="117.42"/><line class="cls-3" x1="150.31" y1="106.71" x2="187.6" y2="118.95"/><line class="cls-3" x1="143.17" y1="108.24" x2="180.46" y2="120.48"/><line class="cls-3" x1="108.99" y1="100.89" x2="173.31" y2="122.01"/><line class="cls-3" x1="103.89" y1="103.95" x2="168.21" y2="125.07"/><line class="cls-3" x1="96.23" y1="105.33" x2="164.13" y2="127.62"/><line class="cls-3" x1="91.13" y1="108.03" x2="155.46" y2="129.15"/><line class="cls-3" x1="111.03" y1="120.99" x2="148.32" y2="133.24"/><line class="cls-3" x1="103.89" y1="122.52" x2="141.17" y2="134.77"/><line class="cls-3" x1="96.74" y1="124.05" x2="134.03" y2="136.3"/><line class="cls-3" x1="89.6" y1="125.58" x2="126.89" y2="137.83"/><line class="cls-3" x1="82.46" y1="127.11" x2="119.75" y2="139.36"/><path class="cls-4" d="M181.08,102c0-.68.09-1.5.08-2.2s0-1.82-.14-3l.68-.12a6.7,6.7,0,0,0,1.33,3.63,4,4,0,0,0,3.24,1.44c2.09,0,3.67-1.35,3.67-3.07a2.31,2.31,0,0,0-.8-1.77c-.55-.5-1-.72-2.93-1.26A9.69,9.69,0,0,1,182.62,94,4.88,4.88,0,0,1,186,85.46a6.08,6.08,0,0,1,3.45,1.05l.68-.73.46.12c-.05.74-.07,1.36-.07,2s.05,1.63.08,2.6l-.7.12a5.63,5.63,0,0,0-.9-3,3.68,3.68,0,0,0-3-1.55,2.85,2.85,0,0,0-3.07,2.75,2.33,2.33,0,0,0,1,2,9,9,0,0,0,2.64,1.1,10.24,10.24,0,0,1,3.7,1.74,4.43,4.43,0,0,1,1.57,3.53,5.27,5.27,0,0,1-5.53,5.32,6.61,6.61,0,0,1-4-1.35l-.63,1Z"/><path class="cls-4" d="M193.51,101.62l2.35-.05,0-15.15-2.2-.06v-.61c1,0,2.09.06,3.95.06,2.4,0,5.42-.07,8.93-.17,0,1.66.1,3.2.22,4.51l-.57,0c-.36-1.81-.71-2.49-1.48-3a6.11,6.11,0,0,0-3.49-.72c-.48,0-.77,0-2,.06l0,6.73c1.88-.05,2.24-.1,2.85-.46s1-1.23,1.06-2.59h.59c-.06,1.34-.06,2.06-.06,3.17,0,1,0,1.79.08,3.49h-.61c-.14-1.64-.37-2.32-1-2.61s-.91-.36-2.93-.42l0,7.55h1.05a13.2,13.2,0,0,0,3.9-.33c1.81-.53,2.33-1.28,2.79-4.12h.64c-.15,2-.24,3.15-.39,5.26-3.49,0-6.83-.06-10,0-1.88,0-2.7,0-3.65.07Z"/><path class="cls-4" d="M222.75,85.79l.55.07a30.19,30.19,0,0,0-.15,3c0,1,0,1.72,0,2.45l-.68,0a6.69,6.69,0,0,0-.85-3.53,4.27,4.27,0,0,0-3.46-1.78,4.91,4.91,0,0,0-3.91,2.21,11.57,11.57,0,0,0-1.19,5.83,10.19,10.19,0,0,0,1.15,5.28,5.13,5.13,0,0,0,4.11,2.32,4.28,4.28,0,0,0,3.51-1.91,9.15,9.15,0,0,0,1.1-3.75h.59c-.08,1.63-.12,2.79-.12,3.49s0,1.52.05,2.25l-.41.16-.77-.86a8.08,8.08,0,0,1-4.69,1.42,7.94,7.94,0,0,1-8.3-8.34c0-5,3.51-8.81,8.22-8.83a7.47,7.47,0,0,1,4.68,1.48Z"/><path class="cls-4" d="M240.92,101.88a6.48,6.48,0,0,1-2.13.39,3.21,3.21,0,0,1-2.63-1c-.46-.61-.62-1.25-.74-3.11a6.3,6.3,0,0,0-.6-2.72A2.55,2.55,0,0,0,232.48,94H230.9l0,7.46,2.27,0v.61l-7.89,0v-.61l2.29,0q.06-1.39.06-2.79l0-12.38-2.16-.06v-.61c.59,0,1.52.06,2.34.06,2.26,0,3.62-.17,5.73-.18a5.64,5.64,0,0,1,4.16,1.28,3.81,3.81,0,0,1-1.41,6.29,7.86,7.86,0,0,1-2.7.53,9.81,9.81,0,0,1,3.32,1c1.24.76,1.59,1.56,1.73,4a8.53,8.53,0,0,0,.26,2.16.85.85,0,0,0,.88.67,2.76,2.76,0,0,0,1.09-.25Zm-8.51-8.54c2.11,0,3.36-1.4,3.35-3.69s-1.28-3.53-3.78-3.52a1.54,1.54,0,0,0-1,.23c-.09.11-.12.27-.11.77v6.21Z"/><path class="cls-4" d="M241.92,101.47l2.36-.06-.05-15.14-2.2-.06V85.6c1,0,2.08.06,3.94.05,2.41,0,5.42-.06,8.94-.16,0,1.65.1,3.19.22,4.51l-.57,0c-.37-1.81-.71-2.49-1.49-3a6.1,6.1,0,0,0-3.49-.71c-.48,0-.77,0-2,.05l0,6.74c1.88-.06,2.24-.1,2.86-.47s1-1.22,1.05-2.59h.59c-.06,1.34-.06,2.07-.06,3.18,0,1,0,1.79.08,3.49h-.61c-.14-1.63-.37-2.31-1-2.6s-.91-.36-2.93-.42l0,7.55h1a13.15,13.15,0,0,0,3.9-.33c1.81-.53,2.33-1.27,2.8-4.11H256c-.15,2-.24,3.15-.39,5.26-3.49-.06-6.82-.07-10-.06-1.88,0-2.7,0-3.65.08Z"/><path class="cls-4" d="M267.31,85.58c1.45,0,2.58-.07,4.17-.19,0,.47,0,.77,0,1.31,0,1.54,0,3.45.06,4.38H271c-.15-2-.45-3.22-1-3.78s-1.54-1-3.27-1h-.65l0,15h2.47V102l-8.39,0v-.61l2.51,0,0-15h-.36c-1.72,0-2.81.32-3.53,1.07s-1,1.64-1.15,3.7h-.54c0-1.09,0-2.7,0-4.22,0-.57,0-.93,0-1.48,1.7.11,2.7.18,4,.17Z"/><path class="cls-5" d="M1.38,8V.38H5.63V2.5Q9.24,1.63,12.5.88l1.88,3.37Q9.25,5.38,5.63,6.13c-.09.91.25,1.37,1,1.37H9.88c.58,0,.95-.62,1.12-1.87l4.25,1.5a7.6,7.6,0,0,1-.87,2.37h4.5l-2.63-2,2.88-2,1.62,1.13,1.88-1.75H14.75V1.25H25.88l.25-.37,3.12,2.75-5.37,5.5.62.37h1.63l.12-.25,3.5,1.5a13.62,13.62,0,0,1-1,2.88A19.38,19.38,0,0,1,27.5,16L24,14.75l.88-1.5h-1.5V16.5h4.75v4H23.38v3.63q1.13.12,6.25.12l-.88,4.63H23a8,8,0,0,1-6.25-2.63c-.08.25-.29.75-.62,1.5a10.71,10.71,0,0,1-1,1.63L11.5,27l-.62.88L7.75,24.75A19.29,19.29,0,0,1,3.13,29.5L.25,25.88q3.5-1.87,4.5-4.25H.38v-4h5.5V16H4.75L3.38,17.5,0,15c2.17-1.67,3.33-3,3.5-4.12A2.72,2.72,0,0,1,1.38,8Zm13.5,6.63h3.75a42.53,42.53,0,0,1-.38,6.87,2.45,2.45,0,0,0,1.13,1.13V13.25H14.25V9.63c-.5.83-1.54,1.25-3.12,1.25H8.38l-1,1.5h6V16H10v1.63h4.38v3.12A22.91,22.91,0,0,0,14.88,14.63Zm-4.25,7L13,23.88a4.24,4.24,0,0,0,1.13-2.25Z"/><path class="cls-5" d="M33.38,19.5a63.33,63.33,0,0,0,5.75-7.12l.12-1.25-4.37,1.25-.75-4.5L39.5,6.75,39.88,1l4.75.38c-.34,1.91-.55,3.29-.63,4.12l.75-.25L47,7.5l-2.12,2q4.5-3.37,9-2.25a7.39,7.39,0,0,1,4.37,3.25,11.85,11.85,0,0,1,1.88,6q.12,8.88-11.88,10.5L47,22.5a17.53,17.53,0,0,0,5-1.37,5.61,5.61,0,0,0,3.25-3.75,5.24,5.24,0,0,0-.5-3.63,4.26,4.26,0,0,0-2.62-2q-4.12-1.12-8.5,3.38-.26,4.24.12,13H39V19.75L36.38,23Z"/><path class="cls-5" d="M69.75,1l4.75.38q-.37,3.87-.5,7.75c-.08,2.66-.17,5.29-.25,7.87v2.5a5.5,5.5,0,0,0,.5,2.63c.42.91,1.38,1.37,2.88,1.37a7.32,7.32,0,0,0,3.5-.87q4.25-2.13,7-8.25l3.62,3.12A22.17,22.17,0,0,1,83.38,26Q78,29.38,72.88,27.75A4.22,4.22,0,0,1,70,25.38a11.4,11.4,0,0,1-.75-4.63Q69.37,11,69.75,1Z"/><path class="cls-5" d="M104,4a24.37,24.37,0,0,0-1.25,5.13c-.25,1.58-.42,3-.5,4.37a17.59,17.59,0,0,0,.25,3.88,10.71,10.71,0,0,0,.63,2.37c.33.75.7,1.13,1.12,1.13.58,0,1.17-.67,1.75-2l1.25-2.75,3.5,2.62a20.44,20.44,0,0,1-2.25,4.75,8.11,8.11,0,0,1-3.37,3.38c-1.09.41-2.21.08-3.38-1a8.5,8.5,0,0,1-2.5-3.5q-2.88-7.26.25-19.75Zm11.25,2.75,3.88-2a53.88,53.88,0,0,1,5.62,14.63L120.38,21A59,59,0,0,0,115.25,6.75Z"/><path class="cls-5" d="M155.38,14.63a24.63,24.63,0,0,1-2.38,6A14,14,0,0,0,157.88,25l-2.38,4.38a16.09,16.09,0,0,1-5.37-4.88,18.58,18.58,0,0,1-5.63,5.13l-2.75-4.25a15,15,0,0,0,3.38-2.25,9.63,9.63,0,0,0,2.25-2.5,24.82,24.82,0,0,1-2.25-4.88,36.74,36.74,0,0,1-1.75-5.25l3.75-1.87h-4.75V5.38h-.75v24h-4.38V24.25l-8.12,2.5-1.25-4.37,2.37-.63V5.38h-2V1.25H144V4.5h12.5A37.32,37.32,0,0,1,155.38,14.63Zm-20.63-7h2.5V5.38h-2.5Zm0,6.37h2.5V11.63h-2.5Zm0,6.63,2.5-.75V18h-2.5Zm17.13-12H147.5a28.57,28.57,0,0,0,1,4,16.51,16.51,0,0,0,1.63,3.87,12.78,12.78,0,0,0,1.12-3.37A21.15,21.15,0,0,0,151.88,8.63Z"/><path class="cls-5" d="M170.88,29.25H164l-1.5-4.12h6.13a2.6,2.6,0,0,0,2.25-.88,7.05,7.05,0,0,0,.75-2.75l.25-2.5h-6.5l-.25,1.75-4.75-.62,1-6.88L162,7.88h9.63V4.75h-10.5v-4H176v11h-9.62L166,15h10.63l-.5,5.88-.75,4.87Q174.75,29.24,170.88,29.25Zm11.5,0V.25H187v29Z"/><path class="cls-5" d="M209.88,28.13l-2.25-4c3.16-1.09,5.29-2.42,6.37-4q3.12-4.63,1.13-8.88t-6.75-4q0,13-5.5,17.75a4.47,4.47,0,0,1-4.63,1,6.91,6.91,0,0,1-3.75-3.62,12.14,12.14,0,0,1-.12-10.63,13.7,13.7,0,0,1,7.75-7.5,15.29,15.29,0,0,1,7.62-1,10.94,10.94,0,0,1,6.75,3,11.1,11.1,0,0,1,3.63,7.5,12.87,12.87,0,0,1-2.25,8.63A16.15,16.15,0,0,1,209.88,28.13ZM204.13,7.75a8.91,8.91,0,0,0-6.25,8.13,7.16,7.16,0,0,0,.37,3.5c.5,1.41,1.17,1.91,2,1.5q1.62-.75,2.75-4.13A29.24,29.24,0,0,0,204.13,7.75Z"/><path class="cls-5" d="M225.63,3.13h3.87V.25h4.25V3.13h3.38V6.88h-3.38V8.63H238v3.62h-.87l-.63,2.5H238v3.63h-4.12v2h3.37v3.5h-3.37v5.37H229.5V23.88H225v-3.5h4.5v-2h-5V14.75h2.38l-.38-2.5h-1.62V8.63h4.62V6.88h-3.87Zm4.87,9.12.38,2.5h1.62l.38-2.5Zm17.38-7h-5.13v5.88h9.5a34.26,34.26,0,0,1-.62,6.37,16.06,16.06,0,0,1-1.5,4.75,13.37,13.37,0,0,0,3.62,3l-2.62,4A12,12,0,0,1,248,26.38c-.17.25-.54.7-1.12,1.37a7.65,7.65,0,0,1-2,1.75L242.75,26v3.38H238.5v-28h14V7.13c0,1.91-.92,2.87-2.75,2.87h-3.87l-1-3.62H247c.75.16,1-.13.88-.88Zm-2.63,17.5A13.36,13.36,0,0,1,243.88,20a15.76,15.76,0,0,1-1.13-3.37v8.75a4.56,4.56,0,0,0,1.5-1.25A3.7,3.7,0,0,0,245.25,22.75Zm1.13-7.62a10.7,10.7,0,0,0,1,3.25,6.28,6.28,0,0,0,.75-3.25Z"/><path class="cls-5" d="M262.5,0l4.25,1.5a6,6,0,0,1-1.37,2.38h3.37V.13h4.38V3.88h9.37V8h-9.37v2.75h12v4H256.5v-4h2.88l-3-3.12a19.24,19.24,0,0,0,3.5-3.38A15.13,15.13,0,0,0,262.5,0Zm-2.62,29.25v-13h21.75v13h-4.5V27.88H264.38v1.37Zm.12-18.5h8.75V8h-6.12A11.88,11.88,0,0,1,260,10.75Zm4.38,13.13h12.75V20.25H264.38Z"/></g></g></svg>