<svg xmlns="http://www.w3.org/2000/svg" viewBox="0 0 128.19 150"><defs><style>.cls-1{fill:#040000;}.cls-2{fill:#050000;}</style></defs><g id="レイヤー_2" data-name="レイヤー 2"><g id="_1" data-name="1"><path class="cls-1" d="M8.83,56.49C5.84,52.75,2.56,50.41.61,52-.85,53.14.4,57.11,3.39,60.84s6.6,5.82,8.06,4.65l0,0,8.29,9.18c.64.71,1.78.06,1.21-.73l-8.76-9.55C12.82,62.46,11.26,59.51,8.83,56.49Zm1.69,8.43c-1,.79-4-1.3-6.65-4.65S-.2,53.56.78,52.77s4,1.3,6.64,4.65S11.5,64.13,10.52,64.92Z"/><path class="cls-1" d="M126.7,126.67c-.8-1-4.69-3-6.5-4a1.93,1.93,0,0,1,.38-.24c1.91-1-1.1-3.43-3-3.43s-29.49-8.68-29.49-8.68l7.53-6.69c1.29,1.52,2.27,2.84,3.31,2.74,1.88-.19,8.08-.19,10.9-5.83s11.28-9.77,13.72-10-15-28.38-19.74-34A20,20,0,0,0,107.94,50S95.35,36.84,89.71,32.89s-24.82-7.14-28.77-6.58c-2.47-7.86-3.62-5.53-3.62-5.53l-1.67,2.15a4.89,4.89,0,0,1-.08-1c0-.56.14-1.73.14-3.16l2.76-.33s3.65-1.23-.91-3.82c-1.62-.91-1.05-1.65-4.05-6.09-2.89-4.28-9.7-5.65-9.7-5.65a3.65,3.65,0,0,0,1.35-1.3c.44-.82-3-.74-3-.74L40.46,2.62,39.36,0,37.54,1s.5,1.49,1,3C26.4,7.45,28,19.74,28,19.74s-2.69,3.18-2.33,3.86c.26.49,4-.35,6.42-1.17.5.87,0,1.21,0,1.21s-.34,5.5-.74,6.36.47,1.07,1.89.79,1.36.95,1.36.95.47,1.08,1.17,1.12.1,1.41,1.14,1.64S38.16,36,38.46,37a1.87,1.87,0,0,0,3.13.69,8.48,8.48,0,0,1,4-1.89l-.63.81s-3.76,4.51-2.63,5.27a7.05,7.05,0,0,0,3.19.75s-6,6-6.2,10.9C39.24,56,37.87,65.4,36.27,74.81l-6-2.17-.49.91c-2.47-.87-4.6-1.83-5.41-2.76A14.27,14.27,0,0,0,20,67.6c-.68-1-1.77-2.36-3.06-2.6-1.11-.21-1.22.44-1,1.13a4.53,4.53,0,0,0-.72-.11c-1.76-.14-4.33.92-1.44,2.73-3.08.83-2.48,2.3-.78,3.31a3.05,3.05,0,0,0,2,3.88c.6,1.46,3.33,2.91,5.46,2.89a17.33,17.33,0,0,1,4,.48s.62.44,1.65,1.14l-1.39,2.61S29,85.5,33.88,87.82a66.86,66.86,0,0,1-2.07,8.42c.94,3.19,4.14,3,7.71,5.83a3.49,3.49,0,0,0,1.57.68,36.1,36.1,0,0,0,1.73,7c1.59,3.82,7.33,20.72,7.33,22.63v1.91s1.21,0,2.94,0c-1.76,2.74-5.1,7.65-6.92,8.56-2.55,1.28-8.28,2.34-9.56,2.55s-2.34,2.55.21,3.83,13,.85,15.3,0S56,146.86,57,146.65l.42,2.55,9.14-.64a3.94,3.94,0,0,1-.21-3.83c1-1.78-.23-7.23-2.12-11.41.52-.19.84-.41.89-.67.25-1.56-5.83-24.47-7.06-33.43,2.91-.06,7.86-.17,13.1-.2-3.36,5.65-8.2,14.79-6,17.37,3.18,3.83,35.05,10.52,39.2,11.79l6.65,4.44.53-.63.74,5.73-6.37,7.86c-3,1.07-1.49,2.13-.64,3.19s9.15-.41,11.48-2.12c4-3,5.73-10,5.73-10a9.56,9.56,0,0,1,1.92.21c.85.21,3.82-5.74,3.82-6.37A7.27,7.27,0,0,0,126.7,126.67ZM51.8,39.91l-2.13-1.7-.42-3-1.7,1.7-2.13,3.4,1.7-4.67L54.77,28Z"/><path class="cls-2" d="M38.63,31.39C37.58,31.7,36.25,34,36,35.66c-.44,2.83-1.47,2.73-1.47,2.73-.42-.66-1.29-1.37-1.79-1.28A2.44,2.44,0,0,0,31,38.32c-.64,1-.73,1.84-.12,2.51s2.32,1.73,3.82,1.08,2.19-4.12,2.36-6.24c.23-2.76,1.75-3.65,2-3.77S39.52,31.12,38.63,31.39Z"/></g></g></svg>