<svg xmlns="http://www.w3.org/2000/svg" viewBox="0 0 448.98 118.37"><defs><style>.cls-1{fill:#231815;}.cls-2{fill:#fff;}.cls-3{fill:#040000;}</style></defs><g id="レイヤー_2" data-name="レイヤー 2"><g id="レイヤー_1-2" data-name="レイヤー 1"><rect class="cls-1" width="448.98" height="118.37"/><path class="cls-2" d="M75.51,75.34a88.79,88.79,0,0,1-3.85,10.57,63.79,63.79,0,0,1-12.81,1.68c-16.73,0-25.27-11.13-25.27-23.38,0-14.28,10.85-24.15,26.53-24.15a71.46,71.46,0,0,1,13.23,1.61c.28,3.15.77,7.35,1.33,10.85L72.5,53c-1.4-4.69-3.08-7.56-6.65-9a19.15,19.15,0,0,0-7.35-1.33c-11.55,0-17.64,8.54-17.64,20.09,0,13.51,7,22.19,18.34,22.19,7.14,0,10.64-3.29,14.21-10.29Z"/><path class="cls-2" d="M105.75,87.38a5.13,5.13,0,0,1-3.29-1.33,6.57,6.57,0,0,1-1.68-3.15c-2.8,1.89-6.23,4.48-8.4,4.48a8.59,8.59,0,0,1-8.54-8.61c0-3.43,1.89-5.67,5.74-7,4.27-1.47,9.52-3.29,11.06-4.55v-1.4c0-5-2.52-7.84-6.16-7.84a4.06,4.06,0,0,0-3.29,1.61,15,15,0,0,0-1.89,4.55,2,2,0,0,1-2,1.61,3.37,3.37,0,0,1-3.08-3.08c0-1,.91-1.82,2.31-2.8,2-1.47,6.09-4.06,10.08-4.9A9.2,9.2,0,0,1,106,65V78.49c0,3.22,1.19,4.2,2.45,4.2a5.56,5.56,0,0,0,2.52-.77l.7,2Zm-5.11-17.71c-1.54.77-4.9,2.24-6.51,2.94-2.66,1.19-4.27,2.52-4.27,5.11a5.09,5.09,0,0,0,5,5.39,9.3,9.3,0,0,0,5.74-2.52Z"/><path class="cls-2" d="M121.92,55.81V53.92a18,18,0,0,1,6.16-14,14.51,14.51,0,0,1,7.84-3.71,7.83,7.83,0,0,1,5.67,2.24A2.24,2.24,0,0,1,142,40.9a5.57,5.57,0,0,1-1.68,2.24,1.59,1.59,0,0,1-2-.14c-1.4-1.26-3.36-2.87-5.67-2.87-5.18,0-5.18,7.07-5.18,12.39v3.29h7.42a2.67,2.67,0,0,1-.7,2.87h-6.72V78.91c0,5,.77,5.11,6,5.67v2H117v-2c4.41-.42,4.9-.7,4.9-5.25V58.68h-5l-.28-.77,1.54-2.1Z"/><path class="cls-2" d="M165.39,80.59c-4.48,5.6-9.38,6.79-11.62,6.79-8.54,0-13.72-7-13.72-15a18,18,0,0,1,4.55-12.25A14.36,14.36,0,0,1,155,55a10.92,10.92,0,0,1,10.71,10.85c-.07,1.4-.28,2-1.4,2.31-1.4.28-10.36.91-18.69,1.19-.21,9.38,5.53,13.23,10.5,13.23A11.84,11.84,0,0,0,164.27,79Zm-12-23c-3.22,0-6.37,3-7.35,8.68,3.92,0,7.84,0,12-.21,1.26,0,1.68-.35,1.68-1.4C159.72,61,157.27,57.63,153.35,57.63Z"/><path class="cls-2" d="M222.58,52a21.74,21.74,0,0,0-2.17-5.18c-1.33-2.38-2.38-2.94-6.3-2.94h-7.49c-2,0-2.24.21-2.24,2.24V62.25h8.68c5,0,5.39-.84,6.44-5.74h2.1V71.14h-2.17c-.91-4.9-1.4-6-6.37-6h-8.68V77.65c0,6.09.7,6.37,7.07,6.93v2H192v-2c5.68-.42,6.31-.91,6.31-6.93V49.93c0-6.09-.7-6.37-6.31-6.93V41h22.2c6.3,0,8.68-.07,9.87-.14.07,2.52.35,7.42.7,10.78Z"/><path class="cls-2" d="M232,86.54v-2c4.41-.42,4.91-.77,4.91-5.53V64.63c0-4.34-.21-4.62-4.42-5.32V57.63a45.77,45.77,0,0,0,9.95-2.8V79.05c0,4.76.49,5.11,5,5.53v2ZM239.23,48a3.83,3.83,0,0,1-3.71-3.71,3.78,3.78,0,0,1,3.79-3.85,3.65,3.65,0,0,1,3.57,3.85A3.72,3.72,0,0,1,239.23,48Z"/><path class="cls-2" d="M269.34,55c8.75,0,15.26,6.65,15.26,15.68,0,11.34-8.4,16.73-15.26,16.73a15.38,15.38,0,0,1-15.55-15.61C253.79,60.36,262.69,55,269.34,55Zm-.84,2.38c-4.27,0-8.12,4.13-8.12,12.25,0,8.89,3.92,15.33,9.66,15.33,4.34,0,8-3.15,8-12.74C278,64,274.66,57.35,268.5,57.35Z"/><path class="cls-2" d="M308.11,86.54H292v-2c4.41-.42,4.83-.77,4.83-5.32V64.7c0-4.62-.28-4.83-4.34-5.32V57.63a38.75,38.75,0,0,0,9.87-2.87v7.7c2.45-3.64,5.39-7.49,8.9-7.49,2.59,0,4.06,1.61,4.06,3.36a4.68,4.68,0,0,1-2.39,3.85,1.38,1.38,0,0,1-1.82-.14c-1.05-1-1.89-1.75-3.15-1.75-1.47,0-4.06,2.17-5.6,5.74V79.19c0,4.62.35,5,5.74,5.39Z"/><path class="cls-2" d="M346.2,80.59c-4.48,5.6-9.39,6.79-11.63,6.79-8.54,0-13.72-7-13.72-15a18,18,0,0,1,4.55-12.25A14.36,14.36,0,0,1,335.83,55a10.92,10.92,0,0,1,10.72,10.85c-.07,1.4-.28,2-1.4,2.31-1.4.28-10.37.91-18.7,1.19C326.24,78.7,332,82.55,337,82.55A11.86,11.86,0,0,0,345.08,79Zm-12.05-23c-3.22,0-6.37,3-7.35,8.68,3.92,0,7.85,0,12-.21,1.27,0,1.69-.35,1.69-1.4C340.52,61,338.07,57.63,334.15,57.63Z"/><path class="cls-2" d="M149.83,45.18S167.08,25.4,166,34,149.83,45.18,149.83,45.18Z"/><path class="cls-2" d="M397.88,64.62s-15.86-26.55-1.19-28S397.88,64.62,397.88,64.62Z"/><path class="cls-2" d="M398.73,66s24-19.51,27.52-5.2S398.73,66,398.73,66Z"/><path class="cls-2" d="M398.29,67.26s28.19,12.72,17,22.27S398.29,67.26,398.29,67.26Z"/><path class="cls-2" d="M397.47,67.26s-28.19,12.72-17,22.27S397.47,67.26,397.47,67.26Z"/><path class="cls-2" d="M397,66s-24-19.51-27.51-5.2S397,66,397,66Z"/><circle class="cls-3" cx="397.88" cy="66.33" r="1.71"/></g></g></svg>