<svg xmlns="http://www.w3.org/2000/svg" viewBox="0 0 581 231.11"><defs><style>.cls-1{fill:#fff;stroke:#fff;stroke-miterlimit:10;isolation:isolate;}.cls-2{fill:#ee8e66;}.cls-3{fill:#ef84af;}.cls-4{fill:#f3a68c;}</style></defs><g id="レイヤー_2" data-name="レイヤー 2"><g id="レイヤー_1-2" data-name="レイヤー 1"><ellipse class="cls-1" cx="290.5" cy="115.55" rx="290" ry="115.05"/><path class="cls-2" d="M159.9,128.41a84.45,84.45,0,0,1-4,11,68.29,68.29,0,0,1-13.4,1.8c-17.4,0-26.4-11.6-26.4-24.4,0-14.9,11.3-25.2,27.7-25.2a70.79,70.79,0,0,1,13.8,1.7c.3,3.3.8,7.7,1.4,11.3l-2.3.5c-1.5-4.9-3.2-7.9-6.9-9.4a19.61,19.61,0,0,0-7.7-1.4c-12,0-18.4,8.9-18.4,21,0,14.1,7.3,23.1,19.1,23.1,7.4,0,11.1-3.4,14.8-10.7Z"/><path class="cls-3" d="M159.9,128.41c-.45,1.9-1,3.78-1.63,5.64a46.29,46.29,0,0,1-2.15,5.47l-.05.11-.12,0c-2.24.44-4.5.91-6.77,1.22a45.09,45.09,0,0,1-6.87.61c-1.15,0-2.31,0-3.45-.15l-1.72-.2-.87-.11-.84-.18-1.69-.4c-.57-.14-1.1-.37-1.65-.56a26.33,26.33,0,0,1-3.18-1.38,23.76,23.76,0,0,1-9.92-9.39,12.35,12.35,0,0,1-.8-1.53c-.23-.53-.49-1-.7-1.59a25.86,25.86,0,0,1-1-3.32,24.45,24.45,0,0,1-.67-6.89l.08-1.73.24-1.72.12-.87c0-.28.14-.56.2-.84l.42-1.69c.18-.55.39-1.1.59-1.64l.29-.82.38-.79.78-1.56.93-1.48a11,11,0,0,1,1-1.41c.37-.45.7-.94,1.11-1.35a23.87,23.87,0,0,1,2.54-2.39,23.61,23.61,0,0,1,2.83-2c.48-.33,1-.57,1.52-.85a13.42,13.42,0,0,1,1.57-.77A33,33,0,0,1,144,91.13a51.32,51.32,0,0,1,6.9.53c2.28.31,4.55.8,6.77,1.22l.34.06,0,.33c.34,3.77.76,7.54,1.35,11.28l.06.37-.37.08-2.3.49-.35.08-.1-.34a22.1,22.1,0,0,0-2.55-5.88,9.56,9.56,0,0,0-2.18-2.26,11.94,11.94,0,0,0-2.83-1.43,21.84,21.84,0,0,0-12.71-.19,16.11,16.11,0,0,0-5.6,3.09,17,17,0,0,0-4,5,25.53,25.53,0,0,0-2.55,12.6,35,35,0,0,0,.74,6.45,27.1,27.1,0,0,0,2.2,6.08,16.94,16.94,0,0,0,9.45,8.3,20.53,20.53,0,0,0,6.32,1.06,15.74,15.74,0,0,0,6.28-1.11,13.44,13.44,0,0,0,5-3.89,38.83,38.83,0,0,0,3.57-5.43l.05-.09.08,0Zm0,0-2.33-.58.14-.06a28.91,28.91,0,0,1-3.34,5.67,13.09,13.09,0,0,1-5.19,4.12,16.1,16.1,0,0,1-6.53,1.16,20.22,20.22,0,0,1-6.53-1.11,17.68,17.68,0,0,1-9.69-8.64,27.75,27.75,0,0,1-2.2-6.22,35.2,35.2,0,0,1-.71-6.55,29.36,29.36,0,0,1,.52-6.55,22.78,22.78,0,0,1,2.06-6.26,17.49,17.49,0,0,1,4-5.21,16.58,16.58,0,0,1,5.76-3.24A22.49,22.49,0,0,1,149,95a12.64,12.64,0,0,1,3,1.5,10.23,10.23,0,0,1,2.37,2.41,22.52,22.52,0,0,1,2.69,6.07l-.45-.27,2.3-.51-.31.46c-.63-3.76-1.08-7.54-1.45-11.33l.37.4c-2.28-.42-4.49-.88-6.75-1.17A51.4,51.4,0,0,0,144,92.1a33.59,33.59,0,0,0-13.19,2.56,14.14,14.14,0,0,0-1.52.73c-.49.28-1,.5-1.48.81a23.15,23.15,0,0,0-2.75,2,21.41,21.41,0,0,0-2.47,2.29,16.75,16.75,0,0,0-1.08,1.29,10,10,0,0,0-1,1.35l-.91,1.42-.76,1.51-.38.76-.29.79c-.2.53-.41,1-.59,1.58l-.42,1.64c-.07.27-.15.54-.21.82l-.13.84-.25,1.67-.1,1.7a32,32,0,0,0,0,3.39,29,29,0,0,0,.53,3.34,27.68,27.68,0,0,0,.94,3.26c.2.53.45,1,.67,1.56a10.84,10.84,0,0,0,.77,1.52,21.06,21.06,0,0,0,4.12,5.36,20.79,20.79,0,0,0,5.58,3.84,23,23,0,0,0,3.17,1.21c.54.16,1.08.35,1.63.49l1.65.36.83.2.84.13,1.68.24c1.12.14,2.26.14,3.4.22a45.61,45.61,0,0,0,6.8-.45c2.26-.34,4.49-.82,6.73-1.31l-.17.13c.83-1.74,1.53-3.57,2.23-5.38S159.27,130.26,159.9,128.41Z"/><path class="cls-2" d="M191.8,140.91a5.22,5.22,0,0,1-3.4-1.4,7.59,7.59,0,0,1-1.8-3.3c-2.9,2-6.5,4.7-8.8,4.7a8.94,8.94,0,0,1-8.9-9c0-3.6,2-5.9,6-7.3,4.5-1.5,9.9-3.4,11.5-4.7v-1.5c0-5.2-2.6-8.2-6.4-8.2a4,4,0,0,0-3.4,1.7,16.4,16.4,0,0,0-2,4.7c-.4,1.2-1,1.7-2.1,1.7a3.52,3.52,0,0,1-3.2-3.2c0-1,.9-1.9,2.4-2.9,2.1-1.5,6.4-4.2,10.5-5.1a9.92,9.92,0,0,1,6.1,2c2.6,2.2,3.7,4.7,3.7,8.5v14.1c0,3.4,1.2,4.4,2.6,4.4a6.07,6.07,0,0,0,2.6-.8l.7,2Zm-5.4-18.4c-1.6.8-5.1,2.3-6.8,3.1-2.8,1.2-4.5,2.6-4.5,5.3a5.27,5.27,0,0,0,5.3,5.6,10.14,10.14,0,0,0,6-2.6Z"/><path class="cls-3" d="M191.8,140.91a4.65,4.65,0,0,1-1.88-.28,4.09,4.09,0,0,1-1.68-1,5.72,5.72,0,0,1-1.16-1.55,9.9,9.9,0,0,1-.71-1.8l.37.13c-1.63,1.07-3.22,2.21-4.89,3.25a13,13,0,0,1-2.68,1.3,4.35,4.35,0,0,1-1.53.26,8.54,8.54,0,0,1-1.51-.12,8.41,8.41,0,0,1-5.08-3,9.64,9.64,0,0,1-2.34-5.39,7.24,7.24,0,0,1,1.67-5.65,11.48,11.48,0,0,1,5.13-3c1.84-.63,3.67-1.29,5.48-2,.9-.35,1.8-.72,2.67-1.12a13.08,13.08,0,0,0,2.45-1.37l-.17.36a14.16,14.16,0,0,0-.69-5.47,6.45,6.45,0,0,0-1.42-2.22,5.3,5.3,0,0,0-2.23-1.3,5.56,5.56,0,0,0-2.59-.11,3.62,3.62,0,0,0-2,1.41,9.18,9.18,0,0,0-1.2,2.43l-.47,1.34a11.7,11.7,0,0,1-.52,1.4,2.37,2.37,0,0,1-1.24,1.19,3,3,0,0,1-1.67.08,4.21,4.21,0,0,1-2.47-1.89,3.31,3.31,0,0,1-.47-1.55,2.37,2.37,0,0,1,.54-1.56,9.41,9.41,0,0,1,2.28-1.9,31.76,31.76,0,0,1,10.41-4.89h0A10.73,10.73,0,0,1,187,108a7.93,7.93,0,0,1,2,1.45,9.76,9.76,0,0,1,3.14,6.52c.15,1.64.06,3.24.1,4.86l.08,9.68a23.41,23.41,0,0,0,.07,2.39,4.71,4.71,0,0,0,.69,2.13,1.89,1.89,0,0,0,1.83.75,6.68,6.68,0,0,0,2.17-.75l.32-.16.12.34.7,2,.08.24-.22.13C196,138.77,193.89,139.92,191.8,140.91Zm0,0c2-1.41,3.94-2.66,5.94-3.87l-.14.38-.7-2,.44.18a7,7,0,0,1-2.39.81,2.52,2.52,0,0,1-2.41-1c-1-1.53-.82-3.32-.83-4.89l.07-9.68c0-1.61.08-3.24-.06-4.82a9.5,9.5,0,0,0-1.48-4.46,9.26,9.26,0,0,0-3.46-3.15,10.37,10.37,0,0,0-4.58-1h.05a30.6,30.6,0,0,0-10.11,5,8.87,8.87,0,0,0-2.08,1.78,1.63,1.63,0,0,0-.37,1.08,2.62,2.62,0,0,0,.39,1.16,3.4,3.4,0,0,0,2,1.48,2.13,2.13,0,0,0,1.15-.07A1.44,1.44,0,0,0,174,117a12.5,12.5,0,0,0,.46-1.28l.46-1.37a10.06,10.06,0,0,1,1.33-2.69,4.61,4.61,0,0,1,2.57-1.77,6.41,6.41,0,0,1,3.08.1,6,6,0,0,1,2.67,1.54,7.45,7.45,0,0,1,1.62,2.58,14.78,14.78,0,0,1,.71,5.82v.24l-.17.12a13.13,13.13,0,0,1-2.67,1.44c-.91.4-1.82.75-2.74,1.09-1.84.68-3.7,1.29-5.55,1.9a10.93,10.93,0,0,0-4.93,2.72,6.67,6.67,0,0,0-1.63,5.22,8.59,8.59,0,0,0,2.18,5.17,8.49,8.49,0,0,0,2.25,1.71,11,11,0,0,0,2.66.9,9.26,9.26,0,0,0,1.39.17,3.9,3.9,0,0,0,1.35-.18,13.17,13.17,0,0,0,2.61-1.16,47,47,0,0,0,4.85-3.23l.27-.19.1.31a8.19,8.19,0,0,0,1.7,3.22,4.35,4.35,0,0,0,1.48,1A5.76,5.76,0,0,0,191.8,140.91Z"/><path class="cls-3" d="M186.4,122.51a19.63,19.63,0,0,1-1.8,1,17.26,17.26,0,0,0-1.65.77c-.56.31-1.09.64-1.63.91s-1.16.33-1.71.61a9,9,0,0,0-3,2,4.21,4.21,0,0,0-1,3.23,5.4,5.4,0,0,0,1.12,3.2,5,5,0,0,0,2.9,1.73,6.46,6.46,0,0,0,3.5-.41,10.19,10.19,0,0,0,3.17-1.85l-.07.15c0-1.87,0-3.74,0-5.56,0-.91,0-1.83,0-2.76A23,23,0,0,1,186.4,122.51Zm0,0a12.54,12.54,0,0,1,.23,2.63c0,1,0,1.94,0,2.93,0,2-.08,3.92,0,5.84V134l-.07.06a11.52,11.52,0,0,1-3.23,2.1,7.12,7.12,0,0,1-3.86.69,5.52,5.52,0,0,1-3.52-1.94,5.85,5.85,0,0,1-1.28-3.8,5,5,0,0,1,1.48-3.68,10.51,10.51,0,0,1,3.32-2c.59-.24,1.13-.65,1.72-1s1.22-.44,1.81-.66a19.45,19.45,0,0,0,1.78-.79A10.18,10.18,0,0,1,186.4,122.51Z"/><path class="cls-2" d="M209,108v-2a18.62,18.62,0,0,1,6.4-14.6,15.22,15.22,0,0,1,8.2-3.9c2.5.1,4.7.9,5.9,2.3a2.25,2.25,0,0,1,.4,2.6,4.87,4.87,0,0,1-1.8,2.3,1.66,1.66,0,0,1-2.1-.1c-1.5-1.3-3.5-3-5.9-3-5.4,0-5.4,7.4-5.4,12.9v3.4h7.7a2.83,2.83,0,0,1-.7,3h-7v21.2c0,5.3.8,5.3,6.3,5.9v2H203.8v-2c4.6-.4,5.1-.7,5.1-5.5V111h-5.2l-.3-.8L205,108Z"/><path class="cls-3" d="M209,108c-.06-1.21-.16-2.28-.11-3.47a19.24,19.24,0,0,1,.42-3.46,18,18,0,0,1,2.83-6.36,19.78,19.78,0,0,1,4.9-5,15.46,15.46,0,0,1,3.09-1.7,13.11,13.11,0,0,1,3.43-.82h.05a10.84,10.84,0,0,1,4.55,1.26,5.47,5.47,0,0,1,1.8,1.59,2.11,2.11,0,0,1,.38,1.2,3.47,3.47,0,0,1-.23,1.21v0a4.23,4.23,0,0,1-.64,1.23,5.84,5.84,0,0,1-.93,1,2.59,2.59,0,0,1-1.31.59,2.11,2.11,0,0,1-1.38-.46h0c-1.6-1.37-3.36-2.75-5.42-2.87a4.21,4.21,0,0,0-2.79.82A5.54,5.54,0,0,0,216,95.25a21.62,21.62,0,0,0-.85,6.24c0,2.13,0,4.28,0,6.42l-.44-.44,7.7,0h.29l.13.24a2.16,2.16,0,0,1,.24,1,3.7,3.7,0,0,1-.09.94,3.37,3.37,0,0,1-.31.89,2,2,0,0,1-.7.81l-.11.08h-.15l-7,0,.47-.47-.08,15.79,0,4a38.64,38.64,0,0,0,.09,3.9,3.64,3.64,0,0,0,.55,1.69,2.49,2.49,0,0,0,1.47.89,30,30,0,0,0,3.85.58l.27,0v2.55H221l-17.2-.09h-.19v-2.38l.18,0a11.38,11.38,0,0,0,3.65-.7c1.09-.54,1.15-2,1.21-3.18,0-2.53,0-5.09,0-7.64,0-5.09-.06-10.18,0-15.28l.32.32c-1.73,0-3.47,0-5.2,0h-.21l-.07-.18-.28-.81,0-.14.08-.12c.54-.73,1.09-1.45,1.66-2.16l.07-.09h.1C206.28,107.84,207.59,107.94,209,108Zm0,0c-1.26.08-2.61.17-4,.21l.17-.08c-.5.76-1,1.5-1.54,2.24l0-.27.32.8-.28-.19c1.73,0,3.47,0,5.2,0h.32V111c0,5.1,0,10.19-.05,15.28,0,2.56,0,5.09-.06,7.66a9.3,9.3,0,0,1-.25,1.94,2.45,2.45,0,0,1-1.22,1.61,6,6,0,0,1-1.91.52c-.64.09-1.28.14-1.91.2L204,138v2l-.2-.19,17.2-.1-.29.29v-2l.27.3a30.62,30.62,0,0,1-4-.55,3.24,3.24,0,0,1-1.84-1.11,4.41,4.41,0,0,1-.7-2,35.72,35.72,0,0,1-.14-4l0-4-.07-15.79v-.46h.47l7,0-.26.08a1.85,1.85,0,0,0,.57-1.07,3.5,3.5,0,0,0,.08-.7,1.4,1.4,0,0,0-.11-.57l.42.25-7.7-.05h-.44v-.44c0-2.14,0-4.28.07-6.45a22.27,22.27,0,0,1,1-6.45,6.18,6.18,0,0,1,1.9-2.79,4.94,4.94,0,0,1,3.25-.91,7.12,7.12,0,0,1,3.15,1.1,18.78,18.78,0,0,1,2.57,2h0a1.61,1.61,0,0,0,1,.38,2,2,0,0,0,1.05-.46,4.6,4.6,0,0,0,.86-.9,3.76,3.76,0,0,0,.59-1.07h0a2.08,2.08,0,0,0-.07-2A4.8,4.8,0,0,0,228,88.82a9.31,9.31,0,0,0-4.38-1h0a16.63,16.63,0,0,0-6.26,2.45,18.92,18.92,0,0,0-4.92,4.69,18.56,18.56,0,0,0-2.68,6.25,22.36,22.36,0,0,0-.56,3.37C209.11,105.68,209.07,106.91,209,108Z"/><path class="cls-2" d="M254.7,133.91c-4.7,5.8-9.8,7.1-12.1,7.1-8.9,0-14.3-7.3-14.3-15.7a19.14,19.14,0,0,1,4.7-12.8,15.15,15.15,0,0,1,10.9-5.3,11.39,11.39,0,0,1,11.2,11.3c-.1,1.5-.3,2.1-1.5,2.4-1.5.3-10.8.9-19.5,1.2-.2,9.8,5.8,13.8,10.9,13.8a12.29,12.29,0,0,0,8.5-3.7Zm-12.6-24c-3.4,0-6.6,3.1-7.7,9.1,4.1,0,8.2,0,12.5-.2,1.3,0,1.8-.4,1.8-1.5C248.8,113.41,246.2,109.91,242.1,109.91Z"/><path class="cls-3" d="M254.7,133.91a17.58,17.58,0,0,1-4.64,4.66,19,19,0,0,1-2.92,1.56,14.63,14.63,0,0,1-3.17,1,11.75,11.75,0,0,1-3.35.05,10.68,10.68,0,0,1-3.24-.79,16,16,0,0,1-5.36-3.89,17.6,17.6,0,0,1-4-12.35,19.15,19.15,0,0,1,4.88-12.2,17.62,17.62,0,0,1,5.4-4,13.09,13.09,0,0,1,6.62-1.21,11.24,11.24,0,0,1,6.21,2.57,12.1,12.1,0,0,1,3.77,5.54,11,11,0,0,1,.56,3.33,5.48,5.48,0,0,1-.22,1.73,1.92,1.92,0,0,1-.55.82,2.4,2.4,0,0,1-.86.4,32.52,32.52,0,0,1-3.31.33l-3.28.21c-4.36.26-8.73.41-13.1.59l.19-.19a16.63,16.63,0,0,0,1.27,7,10.73,10.73,0,0,0,4.67,5.21,10.3,10.3,0,0,0,6.87,1,14.92,14.92,0,0,0,6.28-3.29l.15-.12.1.15C254,132.73,254.37,133.35,254.7,133.91Zm0,0-1.34-1.6.25,0a12.21,12.21,0,0,1-6.37,3.68A10.62,10.62,0,0,1,240,134.9a11.21,11.21,0,0,1-4.82-5.55,18.14,18.14,0,0,1-1.23-7.24v-.19h.18c4.37-.12,8.73-.4,13.09-.69,1.09-.07,2.18-.16,3.26-.26a31.85,31.85,0,0,0,3.2-.38,1.21,1.21,0,0,0,1-.83,4.74,4.74,0,0,0,.15-1.52,10.31,10.31,0,0,0-.59-3.09,11,11,0,0,0-9.34-7.4,12,12,0,0,0-6.12,1.17,16.45,16.45,0,0,0-5.13,3.7,18.69,18.69,0,0,0-4.88,11.58,17,17,0,0,0,3.65,12.05,11.44,11.44,0,0,0,5.28,3.54,14.31,14.31,0,0,0,6.28.86,13.15,13.15,0,0,0,5.89-2.48A31.4,31.4,0,0,0,254.7,133.91Z"/><path class="cls-3" d="M242.1,109.91a6.91,6.91,0,0,0-1.52.48,4.49,4.49,0,0,0-1.43.6,28.64,28.64,0,0,0-2.23,2.18A9.24,9.24,0,0,0,235.5,116a20.45,20.45,0,0,0-.7,3.1l-.4-.49c2.19-.13,4.38-.16,6.58-.16s4.42.1,6.54.07a.93.93,0,0,0,.93-.82,7,7,0,0,0,0-1.58,6.74,6.74,0,0,0-1.07-3,6.64,6.64,0,0,0-2.28-2.13,7.21,7.21,0,0,0-1.43-.6A4.19,4.19,0,0,0,242.1,109.91Zm0,0c.54,0,1.12-.15,1.7-.08a3,3,0,0,1,.83.25,4,4,0,0,1,.78.37,6.15,6.15,0,0,1,2.38,2.42,8.31,8.31,0,0,1,1,3.2,8,8,0,0,1,.06,1.7,1.4,1.4,0,0,1-.42.86,1.81,1.81,0,0,1-.86.39c-2.26.18-4.41.26-6.62.36s-4.39.11-6.59,0l-.51,0,.11-.46a19,19,0,0,1,1-3.13,16.79,16.79,0,0,1,1.56-2.89,5,5,0,0,1,2.37-2.29,8.32,8.32,0,0,1,1.51-.71C241,109.71,241.58,109.94,242.1,109.91Z"/><path class="cls-2" d="M315.1,104a22,22,0,0,0-2.3-5.4c-1.4-2.5-2.5-3.1-6.6-3.1h-7.8c-2.1,0-2.3.2-2.3,2.3v16.9h9.1c5.3,0,5.6-.9,6.7-6h2.2V124h-2.3c-.9-5.1-1.5-6.3-6.6-6.3h-9.1v13.1c0,6.4.7,6.6,7.4,7.2v2H283.2v-2c5.9-.4,6.6-.9,6.6-7.2v-28.9c0-6.4-.7-6.6-6.6-7.2v-2h23.1c6.6,0,9.1-.1,10.3-.1.1,2.6.4,7.7.7,11.2Z"/><path class="cls-3" d="M315.1,104a24.54,24.54,0,0,0-2.46-5.29h0v0a7.76,7.76,0,0,0-1.33-1.76,4.13,4.13,0,0,0-1.92-.94,23.93,23.93,0,0,0-4.5-.27l-4.57,0-2.28,0a4.49,4.49,0,0,0-1.07.12.73.73,0,0,0-.54.64,16.15,16.15,0,0,0-.06,2.22l0,2.28.05,4.57c0,3.05-.11,6.1-.14,9.14l-.21-.21c1.63,0,3.26,0,4.89,0l4.88,0a14.45,14.45,0,0,0,2.39-.22,3.06,3.06,0,0,0,1.92-1.09,6.38,6.38,0,0,0,.91-2.15c.2-.78.36-1.57.53-2.37l.05-.22h2.72v.29l.08,15.3v.38h-3l-.06-.32a13.13,13.13,0,0,0-1.36-4.51c-.84-1.22-2.56-1.37-4.13-1.42H301l-4.92,0,.47-.47c0,4.27,0,8.54,0,12.81,0,1.06,0,2.12.09,3.15a3.93,3.93,0,0,0,1,2.61,5.7,5.7,0,0,0,2.74.95c1,.15,2.1.24,3.16.35l.4,0v2.83h-.43l-20.3-.07h-.36v-2.69l.33,0a26.41,26.41,0,0,0,3.22-.34,3.14,3.14,0,0,0,2.46-1.48,7.8,7.8,0,0,0,.59-3.06c.06-1.08.05-2.17.05-3.27l.06-13.13,0-13.13c0-1.09,0-2.19,0-3.27a8,8,0,0,0-.6-3.11,3.28,3.28,0,0,0-2.55-1.51c-1.06-.2-2.15-.3-3.23-.41l-.22,0V92.47h.24l16.7,0c2.78,0,5.57,0,8.35,0l8.35-.09h.3l0,.31c.11,1.86.19,3.73.29,5.6l.11,2.8.09,2.8v.11h-.1Zm0,0,2.19-.3-.09.11-.27-2.79-.24-2.8c-.14-1.87-.29-3.74-.41-5.61l.32.31-8.35.06c-2.78,0-5.57,0-8.35,0l-16.7,0,.24-.24v2l-.22-.23c1.09.12,2.19.22,3.28.44a5.94,5.94,0,0,1,1.61.52,2.73,2.73,0,0,1,1.24,1.23A8.08,8.08,0,0,1,290,100c0,1.1,0,2.2,0,3.29l0,13.13.06,13.13c0,1.1,0,2.19,0,3.3a8.18,8.18,0,0,1-.64,3.33,2.81,2.81,0,0,1-1.26,1.29,5.38,5.38,0,0,1-1.64.55,26.85,26.85,0,0,1-3.31.38l.33-.35v2l-.36-.36,20.3-.07-.43.43v-2l.4.44c-1.06-.1-2.13-.19-3.21-.33A6.46,6.46,0,0,1,297,137a3.51,3.51,0,0,1-1-1.54,8.36,8.36,0,0,1-.33-1.67c-.11-1.1-.1-2.17-.11-3.24,0-4.27,0-8.54,0-12.81v-.47h.47l4.92,0,4.93,0a11.16,11.16,0,0,1,2.54.31,3.9,3.9,0,0,1,2.24,1.49,13.28,13.28,0,0,1,1.45,4.84l-.38-.32h2.3l-.38.38.09-15.3.29.3-2.2,0,.28-.22c-.18.8-.36,1.6-.58,2.39a6.81,6.81,0,0,1-1,2.32,3.58,3.58,0,0,1-2.24,1.25,14.78,14.78,0,0,1-2.47.2c-3.27,0-6.52-.06-9.78,0h-.21v-.22c0-3-.16-6.09-.14-9.14l.05-4.57,0-2.28a13.29,13.29,0,0,1,.12-2.33,1.26,1.26,0,0,1,.29-.62,1.16,1.16,0,0,1,.59-.36,4.57,4.57,0,0,1,1.2-.12l2.29,0,4.57,0a23,23,0,0,1,4.6.25,4.13,4.13,0,0,1,2.12,1.07A7.54,7.54,0,0,1,313,98.52h0A20.4,20.4,0,0,1,315.1,104Z"/><path class="cls-2" d="M325.2,140.11v-2c4.6-.4,5.1-.8,5.1-5.8v-15c0-4.5-.2-4.8-4.6-5.5V110a52.67,52.67,0,0,0,10.4-2.9v25.3c0,5,.5,5.3,5.3,5.8v2H325.2Zm7.6-40.3a4,4,0,0,1-3.9-3.9,3.93,3.93,0,0,1,3.9-4,3.83,3.83,0,0,1,3.7,4A3.74,3.74,0,0,1,332.8,99.81Z"/><path class="cls-3" d="M325.2,140.11a19.33,19.33,0,0,0-.12-2V138l.12,0c1.32-.32,2.77-.3,3.85-1a2.36,2.36,0,0,0,.87-1.63,12.14,12.14,0,0,0,.11-2c0-1.35-.11-2.73-.06-4.1s.18-2.73.15-4.1L330,117c0-.68,0-1.36-.1-2a2.72,2.72,0,0,0-.6-1.67,3.37,3.37,0,0,0-1.66-.72c-.65-.14-1.33-.24-2-.34l-.36,0v-.38l0-1.8v-.38l.39-.07c1.76-.34,3.51-.73,5.23-1.21a47.77,47.77,0,0,0,5.07-1.68l.66-.27v.71c0,5.8-.13,11.59-.2,17.38l-.07,8.69a15,15,0,0,0,.13,2.13,2.63,2.63,0,0,0,.89,1.76,4.7,4.7,0,0,0,1.95.66c.7.13,1.43.18,2.14.25l.21,0v.21l0,2v.25h-.26c-2.7,0-5.4.08-8.1.06-1.35,0-2.7,0-4.05,0s-2.7-.29-4.05-.29h0Zm0,0v.1h0c1.35,0,2.7-.21,4.05-.29s2.7,0,4.05,0c2.7,0,5.4,0,8.1.07l-.25.25,0-2,.21.23c-.72-.09-1.44-.17-2.17-.3a5.15,5.15,0,0,1-2.12-.75,3,3,0,0,1-1-2,20.53,20.53,0,0,1-.16-2.2l-.08-8.69c-.07-5.79-.19-11.58-.2-17.38l.66.45a40.92,40.92,0,0,1-5.18,1.74c-1.75.47-3.53.85-5.32,1.17l.38-.46,0,1.8-.37-.43c.68.13,1.36.24,2,.41a4,4,0,0,1,2,1,3.39,3.39,0,0,1,.75,2.12c.05.71.05,1.4,0,2.08l-.12,8.22c0,1.37.08,2.74.15,4.1s0,2.74-.09,4.12a13.25,13.25,0,0,1-.23,2.07,3.18,3.18,0,0,1-1,1.9,4.5,4.5,0,0,1-2,.73,12,12,0,0,1-2.07.12l.12-.13A16.92,16.92,0,0,0,325.2,140.11Z"/><path class="cls-3" d="M332.8,99.81c-.25,0-.52.13-.8.13a1.68,1.68,0,0,1-.76-.26,10.36,10.36,0,0,1-1.4-.81c-.47-.33-.5-1-.8-1.41a3.92,3.92,0,0,1-.41-1.56,4.26,4.26,0,0,1,1-3.08,4,4,0,0,1,3-1.37,3.89,3.89,0,0,1,3,1.39,4.67,4.67,0,0,1,1.06,3,4.27,4.27,0,0,1-1,3,3.4,3.4,0,0,1-1.31,1l-.39.14a1.19,1.19,0,0,1-.42,0A5.1,5.1,0,0,0,332.8,99.81Zm0,0a1.33,1.33,0,0,0,.71-.28,2.3,2.3,0,0,1,.64-.33,4.4,4.4,0,0,0,1.14-.79,3.27,3.27,0,0,0,1-2.58,3.61,3.61,0,0,0-1.12-2.56,3.27,3.27,0,0,0-2.48-.88,3.84,3.84,0,0,0-3.53,3.52,3.36,3.36,0,0,0,.23,1.39c.11.51.67.7.92,1.09a2.48,2.48,0,0,0,1.09.91,3.83,3.83,0,0,1,.68.21A1.72,1.72,0,0,0,332.8,99.81Z"/><path class="cls-2" d="M364.5,107.11c9.1,0,15.9,6.9,15.9,16.4,0,11.8-8.8,17.4-15.9,17.4-10.1,0-16.2-8.1-16.2-16.3C348.3,112.81,357.6,107.11,364.5,107.11Zm-.8,2.5c-4.5,0-8.5,4.3-8.5,12.8,0,9.3,4.1,16,10.1,16,4.5,0,8.3-3.3,8.3-13.3C373.6,116.61,370.1,109.61,363.7,109.61Z"/><path class="cls-3" d="M364.5,107.11a14.79,14.79,0,0,0,1.63,0c.54,0,1.09.05,1.64.1s1.07.24,1.61.36l1.54.59a16.83,16.83,0,0,1,5.44,3.66,16,16,0,0,1,3.24,5.7,18.63,18.63,0,0,1,1.07,6.45,18,18,0,0,1-4.43,12.18,16.1,16.1,0,0,1-23.73,0,17.06,17.06,0,0,1-4.38-12.08,18,18,0,0,1,4.62-12,16.35,16.35,0,0,1,5.34-3.82,9.27,9.27,0,0,1,1.54-.6,6.83,6.83,0,0,1,1.61-.36A27.56,27.56,0,0,1,364.5,107.11Zm0,0a10.42,10.42,0,0,0-3.17.61l-.76.25-.74.28a12.72,12.72,0,0,0-1.48.6,16.71,16.71,0,0,0-9.83,15.25A16.22,16.22,0,0,0,353,135.75a15.19,15.19,0,0,0,5.22,3.52,16.46,16.46,0,0,0,6.17,1.17,14.8,14.8,0,0,0,6.1-1.34,15.88,15.88,0,0,0,5.11-3.59A17.38,17.38,0,0,0,380.09,124a17.79,17.79,0,0,0-.87-6.31,15.59,15.59,0,0,0-3.35-5.38,13.65,13.65,0,0,0-5.12-3.72l-1.52-.5-1.54-.41c-.53-.1-1.05-.24-1.58-.36S365,107.14,364.5,107.11Z"/><path class="cls-3" d="M363.7,109.61a5.76,5.76,0,0,0-2.25.62,10.09,10.09,0,0,0-2,1.13,8.22,8.22,0,0,0-2.59,3.78,16.38,16.38,0,0,0-1.3,4.48,26.35,26.35,0,0,0,0,4.7,21.29,21.29,0,0,0,2.61,8.89,10.62,10.62,0,0,0,3,3.36,7.26,7.26,0,0,0,4.17,1.38,8.61,8.61,0,0,0,2.21-.31,6.16,6.16,0,0,0,2-1,8.36,8.36,0,0,0,2.61-3.66,23.71,23.71,0,0,0,1.26-9.26,20.14,20.14,0,0,0-2.37-9A9.56,9.56,0,0,0,363.7,109.61Zm0,0c.4,0,.79,0,1.2,0s.8.06,1.21.13a5.87,5.87,0,0,1,1.17.36,7.1,7.1,0,0,1,1.07.62,10.2,10.2,0,0,1,3.17,3.68,22.38,22.38,0,0,1,2.24,9.28,26,26,0,0,1-1.07,9.5,9,9,0,0,1-2.7,4.07,7.06,7.06,0,0,1-2.2,1.21,8.36,8.36,0,0,1-2.48.4,8.22,8.22,0,0,1-4.74-1.49,11.36,11.36,0,0,1-3.23-3.71,21.08,21.08,0,0,1-2.34-9.32,28.39,28.39,0,0,1,.17-4.79c.3-1.56.32-3.23,1.07-4.7a11.17,11.17,0,0,1,2.94-3.83,5.67,5.67,0,0,1,2.11-1.22A9.91,9.91,0,0,1,363.7,109.61Z"/><path class="cls-2" d="M405.4,140.11H388.6v-2c4.6-.4,5-.8,5-5.5v-15.2c0-4.8-.3-5-4.5-5.5v-1.8a41.87,41.87,0,0,0,10.3-3v8c2.6-3.8,5.6-7.8,9.3-7.8,2.7,0,4.2,1.7,4.2,3.5a4.85,4.85,0,0,1-2.5,4,1.5,1.5,0,0,1-1.9-.1c-1.1-1.1-2-1.8-3.3-1.8-1.5,0-4.2,2.3-5.8,6v13.7c0,4.8.4,5.2,6,5.6Z"/><path class="cls-3" d="M405.4,140.11c-1.31.09-2.69.15-4.08.18s-2.81,0-4.24,0-2.82,0-4.23,0l-4.25.09h-.32v-.34c0-.66,0-1.33,0-2v-.33l.32,0c.68,0,1.36-.07,2-.16a4.34,4.34,0,0,0,1.84-.54,2.33,2.33,0,0,0,.84-1.65,16.58,16.58,0,0,0,.11-2l-.08-8.18-.09-8.18c0-.68,0-1.35-.1-2a3.21,3.21,0,0,0-.51-1.68,2.75,2.75,0,0,0-1.57-.69c-.64-.12-1.31-.2-2-.28l-.41,0v-2.62l.4-.07a43.83,43.83,0,0,0,10.19-3l.67-.29v.73l0,8-.8-.25a37.43,37.43,0,0,1,4-5.06,12,12,0,0,1,2.62-2A5.94,5.94,0,0,1,409,107a4.72,4.72,0,0,1,3.11,1.24,3.55,3.55,0,0,1,1,3.16,5.07,5.07,0,0,1-1.61,2.89,4.49,4.49,0,0,1-1.42.91,1.67,1.67,0,0,1-1.71-.33v0a5.58,5.58,0,0,0-2.46-1.68,3.09,3.09,0,0,0-2.71.87,12.83,12.83,0,0,0-3.58,5l0-.09.1,11.83v2.95a6.16,6.16,0,0,0,.48,2.73,3.1,3.1,0,0,0,2.3,1.2c.95.18,1.92.31,2.9.44h.16v.14C405.51,138.88,405.45,139.53,405.4,140.11Zm0,0-.16-1.9.15.16a27.23,27.23,0,0,1-3-.18,6.36,6.36,0,0,1-1.5-.38,2.46,2.46,0,0,1-1.25-1.07,4,4,0,0,1-.46-1.52,12.94,12.94,0,0,1-.11-1.51v-3l.1-11.83v0l0,0a13.58,13.58,0,0,1,3.73-5.08,5.75,5.75,0,0,1,1.39-.83,2.75,2.75,0,0,1,1.65-.11,5.86,5.86,0,0,1,2.68,1.76h0a1.21,1.21,0,0,0,1.28.24,4.11,4.11,0,0,0,1.26-.83,4.64,4.64,0,0,0,1.43-2.62,3,3,0,0,0-.93-2.69,4.12,4.12,0,0,0-2.75-1c-2.06-.09-3.87,1.24-5.3,2.71a35.44,35.44,0,0,0-3.87,5l-.79,1.18v-1.43l0-8,.67.44a40.36,40.36,0,0,1-10.41,3l.4-.47v1.8l-.41-.46c.68.08,1.36.16,2.06.3a3.54,3.54,0,0,1,2.06,1,4,4,0,0,1,.66,2.17c.05.7.06,1.39.05,2.08l-.09,8.18-.09,8.19a18.2,18.2,0,0,1-.16,2.07,3.09,3.09,0,0,1-1,1.91,4.81,4.81,0,0,1-2,.76c-.69.14-1.37.23-2.05.32l.32-.36c0,.67,0,1.34,0,2l-.33-.32,4.16.09c1.39,0,2.78.06,4.16,0s2.74,0,4.16,0S403.91,140,405.4,140.11Z"/><path class="cls-2" d="M445.4,133.91c-4.7,5.8-9.8,7.1-12.1,7.1-8.9,0-14.3-7.3-14.3-15.7a19.14,19.14,0,0,1,4.7-12.8,15.15,15.15,0,0,1,10.9-5.3,11.39,11.39,0,0,1,11.2,11.3c-.1,1.5-.3,2.1-1.5,2.4-1.5.3-10.8.9-19.5,1.2-.2,9.8,5.8,13.8,10.9,13.8a12.29,12.29,0,0,0,8.5-3.7Zm-12.5-24c-3.4,0-6.6,3.1-7.7,9.1,4.1,0,8.2,0,12.5-.2,1.3,0,1.8-.4,1.8-1.5C439.5,113.41,437,109.91,432.9,109.91Z"/><path class="cls-3" d="M445.4,133.91a17.58,17.58,0,0,1-4.64,4.66,19,19,0,0,1-2.92,1.56,14.63,14.63,0,0,1-3.17,1,11.75,11.75,0,0,1-3.35.05,10.68,10.68,0,0,1-3.24-.79,16,16,0,0,1-5.36-3.89,17.6,17.6,0,0,1-4-12.35,19.15,19.15,0,0,1,4.88-12.2,17.62,17.62,0,0,1,5.4-4,13.09,13.09,0,0,1,6.62-1.21,11.24,11.24,0,0,1,6.21,2.57,12.1,12.1,0,0,1,3.77,5.54,11,11,0,0,1,.56,3.33,5.48,5.48,0,0,1-.22,1.73,1.92,1.92,0,0,1-.55.82,2.4,2.4,0,0,1-.86.4,32.52,32.52,0,0,1-3.31.33l-3.28.21c-4.36.26-8.73.41-13.1.59l.19-.19a16.63,16.63,0,0,0,1.27,7,10.73,10.73,0,0,0,4.67,5.21,10.3,10.3,0,0,0,6.87,1,14.92,14.92,0,0,0,6.28-3.29l.15-.12.1.15C444.72,132.73,445.07,133.35,445.4,133.91Zm0,0-1.34-1.6.25,0a12.21,12.21,0,0,1-6.37,3.68,10.62,10.62,0,0,1-7.29-1.11,11.21,11.21,0,0,1-4.82-5.55,18.14,18.14,0,0,1-1.23-7.24v-.19h.18c4.37-.12,8.73-.4,13.09-.69,1.09-.07,2.18-.16,3.26-.26a31.85,31.85,0,0,0,3.2-.38,1.21,1.21,0,0,0,1-.83,4.74,4.74,0,0,0,.15-1.52,10.31,10.31,0,0,0-.59-3.09,11,11,0,0,0-9.34-7.4,12,12,0,0,0-6.12,1.17,16.45,16.45,0,0,0-5.13,3.7,18.69,18.69,0,0,0-4.88,11.58A17,17,0,0,0,423,136.24a11.44,11.44,0,0,0,5.28,3.54,14.31,14.31,0,0,0,6.28.86,13.15,13.15,0,0,0,5.89-2.48A31.4,31.4,0,0,0,445.4,133.91Z"/><path class="cls-3" d="M432.9,109.91a6.91,6.91,0,0,0-1.52.48,4.49,4.49,0,0,0-1.43.6,28.64,28.64,0,0,0-2.23,2.18A9.47,9.47,0,0,0,426.3,116a21.73,21.73,0,0,0-.7,3.1l-.4-.49c2.19-.13,4.38-.16,6.57-.16s4.42.1,6.54.07a.93.93,0,0,0,.94-.8,3.91,3.91,0,0,0,0-.77,5.52,5.52,0,0,0-.06-.81,7,7,0,0,0-1.08-3,6.67,6.67,0,0,0-2.25-2.14,7.59,7.59,0,0,0-1.44-.61A4.14,4.14,0,0,0,432.9,109.91Zm0,0c.54,0,1.12-.15,1.7-.08a3.6,3.6,0,0,1,.83.25,5.45,5.45,0,0,1,.77.37,6.24,6.24,0,0,1,2.36,2.45,8.63,8.63,0,0,1,1,3.18,8,8,0,0,1,.09.84,3.53,3.53,0,0,1,0,.86,1.37,1.37,0,0,1-.43.86,1.73,1.73,0,0,1-.87.38c-2.26.18-4.4.26-6.61.36s-4.39.11-6.58,0h-.51l.11-.47a19,19,0,0,1,1-3.13,16.79,16.79,0,0,1,1.56-2.89,5,5,0,0,1,2.37-2.29,8.32,8.32,0,0,1,1.51-.71C431.78,109.71,432.38,109.94,432.9,109.91Z"/><path class="cls-4" d="M234.6,99.41s17-15.4,16.5-7.1S234.6,99.41,234.6,99.41Z"/><path class="cls-2" d="M514.9,120.61s24.9-24.2,24.6-11.6S514.9,120.61,514.9,120.61Z"/><path class="cls-2" d="M58,122.91s-33.9,7.2-27-3.2C38.1,109.21,58,122.91,58,122.91Z"/><path class="cls-2" d="M396.4,175.11s-28.6,11.7-27.8-3.1S396.4,175.11,396.4,175.11Z"/><path class="cls-2" d="M397.8,174.51s-15.6-26.7-1-28C411.6,145.21,397.8,174.51,397.8,174.51Z"/><path class="cls-2" d="M399,175.11s16.8-25.9,24.6-13.4S399,175.11,399,175.11Z"/><path class="cls-2" d="M398.9,175.91s8.3,29.8,19.4,20.1S398.9,175.91,398.9,175.91Z"/><path class="cls-2" d="M397.6,176.11s-22.9,20.8-9.3,26.4S397.6,176.11,397.6,176.11Z"/><circle class="cls-2" cx="398.1" cy="175.41" r="1.7"/><path class="cls-2" d="M420,183.48a15.58,15.58,0,0,1,7.72-6.22,33.21,33.21,0,0,1,9.83-2.17,60.05,60.05,0,0,1,9.86.06c1.61.11,3.21.31,4.73.43a13.71,13.71,0,0,0,1.94.06c.08,0,.15,0,0,.06a1.69,1.69,0,0,0-.49.44,1.71,1.71,0,0,0-.32,1.09c.07.57.19.54.15.53a1,1,0,0,0-.16-.23,14,14,0,0,0-1.54-1.43,7.76,7.76,0,0,1-2.06-2.52,4.1,4.1,0,0,1,.27-4.08,7.29,7.29,0,0,1,2.35-2.2,30.69,30.69,0,0,1,9.81-3.31,59.73,59.73,0,0,1,10-1.05,37.47,37.47,0,0,1,10.34,1.15,17.08,17.08,0,0,1,5.32,2.47,10.82,10.82,0,0,1,2.43,2.44,9.91,9.91,0,0,1,.93,1.68,5.87,5.87,0,0,1,.45,2.57,6.56,6.56,0,0,1-1.81,4.17,9,9,0,0,1-2.86,2,18,18,0,0,1-5.62,1.42,24,24,0,0,1-5.3,0,21.18,21.18,0,0,1-5.27-1.13,10.37,10.37,0,0,1-4.82-3.34,6.39,6.39,0,0,1-1.22-3.06,6.86,6.86,0,0,1,.42-3.18,12.12,12.12,0,0,1,3.25-4.57,25.46,25.46,0,0,1,4.17-3.1c.72-.45,1.46-.85,2.21-1.25l2.19-1.1q2.13-1.05,4.18-2.19a45.4,45.4,0,0,0,14-11.77,69.75,69.75,0,0,0,5.15-7.7l1.15-2q.53-1,1-2a35.48,35.48,0,0,0,1.55-4.14,41.88,41.88,0,0,0,1.22-17.69,52.94,52.94,0,0,0-5.49-17,63,63,0,0,0-10.52-14.56c-8.38-8.69-19-15.2-30.41-19.69A120.57,120.57,0,0,0,441,55.86c-6.14-1.43-12.31-2.73-18.52-3.71a193.64,193.64,0,0,0-37.56-2.38,175.69,175.69,0,0,0-37.35,5.5c-6.14,1.55-12.23,3.41-18.28,5.41s-12.06,4.26-18.12,6.43q-4.53,1.65-9.12,3.22t-9.25,3a106.64,106.64,0,0,1-19.16,4,67.16,67.16,0,0,1-19.75-.61,36.16,36.16,0,0,1-9.6-3.2A28.37,28.37,0,0,1,236,67.33a25.54,25.54,0,0,1-5.23-9,28.38,28.38,0,0,1-1.41-10.35,29.37,29.37,0,0,1,2.34-10.23A23.4,23.4,0,0,1,238.08,29a17.45,17.45,0,0,1,2.27-1.62A25.63,25.63,0,0,1,242.7,26a24.72,24.72,0,0,1,5.1-1.87A24.22,24.22,0,0,1,258.68,24a22.89,22.89,0,0,1,9.92,4.8,18.39,18.39,0,0,1,6,9.63,18.2,18.2,0,0,1-.8,11.29,14.64,14.64,0,0,1-3.33,4.86,13.36,13.36,0,0,1-5.11,3,12.94,12.94,0,0,1-5.79.45,9.25,9.25,0,0,1-5.31-2.64,7.23,7.23,0,0,1-2-5.35,7.41,7.41,0,0,1,2.08-4.67,7.89,7.89,0,0,0-.22,4.51,5,5,0,0,0,2.25,3,6.11,6.11,0,0,0,3.51.81,9.49,9.49,0,0,0,3.67-.9,9.63,9.63,0,0,0,4.77-5.37,12.84,12.84,0,0,0,.36-7.63,12.29,12.29,0,0,0-4.14-6.35,17,17,0,0,0-7.23-3.57,19.2,19.2,0,0,0-8.23,0,19.48,19.48,0,0,0-4,1.32,19.08,19.08,0,0,0-3.56,2.1,18.42,18.42,0,0,0-5.1,6.53,24.3,24.3,0,0,0-2.26,8.37A22,22,0,0,0,246,70.16a32.77,32.77,0,0,0,8.56,3,60.48,60.48,0,0,0,18.62.61,99.07,99.07,0,0,0,18.41-4.2c3-1,6-2,9-3.11s6-2.29,8.94-3.48c11.91-4.72,23.89-9.68,36.38-13.41a183.88,183.88,0,0,1,38.47-7.4,174.69,174.69,0,0,1,19.68-.46,180.87,180.87,0,0,1,19.61,1.64c6.5.89,13,2,19.33,3.5a129.49,129.49,0,0,1,19.08,5.78A99.51,99.51,0,0,1,480,61.89a80,80,0,0,1,15.48,13.17c9.16,10.07,15.51,23,16.63,36.8a48,48,0,0,1-2.55,20.36,40.25,40.25,0,0,1-2.08,4.77c-.41.76-.84,1.52-1.29,2.27l-1.35,2.09a74,74,0,0,1-6,8,49.23,49.23,0,0,1-7.33,6.95,54,54,0,0,1-8.51,5.29c-1.46.75-2.94,1.47-4.42,2.14l-2.14,1c-.69.34-1.37.68-2,1.06a21.67,21.67,0,0,0-3.63,2.52,8.73,8.73,0,0,0-2.42,3.1,2.74,2.74,0,0,0,.26,2.89,5.55,5.55,0,0,0,3.16,1.77,11.6,11.6,0,0,0,2.06.25c.34,0,.7,0,1.05,0l1.13-.07a26.47,26.47,0,0,0,4.3-.66,9.52,9.52,0,0,0,3.49-1.56,3.78,3.78,0,0,0,.9-.93c.17-.25.11-.33.1-.16a.44.44,0,0,0,.06.22,2.76,2.76,0,0,0-.21-.44,3.85,3.85,0,0,0-.9-1,11.53,11.53,0,0,0-3.28-1.79,32.74,32.74,0,0,0-8.63-1.85,47.15,47.15,0,0,0-9.2,0,31.68,31.68,0,0,0-4.49.79,14.6,14.6,0,0,0-4,1.53,3.46,3.46,0,0,0-1.18,1c-.12.31-.11.21,0,.5a3.72,3.72,0,0,0,1.1,1.06,17.83,17.83,0,0,1,2.11,1.71,5,5,0,0,1,.6.7,2.93,2.93,0,0,1,.62,1.63,2.58,2.58,0,0,1-.5,1.65,2.75,2.75,0,0,1-1,.8,4,4,0,0,1-1.18.4,16.11,16.11,0,0,1-2.87.18c-1.69,0-3.29-.14-4.88-.27-3.17-.2-6.28-.54-9.38-.61a43.32,43.32,0,0,0-9.19.59A18.75,18.75,0,0,0,420,183.48Z"/><path class="cls-2" d="M179.11,63.33s28.6-11.7,27.8,3.1S179.11,63.33,179.11,63.33Z"/><path class="cls-2" d="M177.71,63.93s15.6,26.7,1,28C163.91,93.23,177.71,63.93,177.71,63.93Z"/><path class="cls-2" d="M176.51,63.33s-16.8,25.9-24.6,13.4S176.51,63.33,176.51,63.33Z"/><path class="cls-2" d="M176.61,62.53s-8.3-29.8-19.4-20.1S176.61,62.53,176.61,62.53Z"/><path class="cls-2" d="M177.91,62.33s22.9-20.8,9.3-26.4S177.91,62.33,177.91,62.33Z"/><circle class="cls-2" cx="177.41" cy="63.03" r="1.7"/><path class="cls-2" d="M153.49,54a15.65,15.65,0,0,1-7.73,6.22,33.2,33.2,0,0,1-9.83,2.16,59,59,0,0,1-9.86-.06c-1.61-.11-3.21-.31-4.72-.42a12.71,12.71,0,0,0-1.95-.07c-.08,0-.15,0,0-.06a1.54,1.54,0,0,0,.49-.44,1.68,1.68,0,0,0,.32-1.08c-.07-.57-.18-.55-.15-.53a1,1,0,0,0,.16.22,13.12,13.12,0,0,0,1.54,1.44,7.76,7.76,0,0,1,2.06,2.52,4.22,4.22,0,0,1,.41,2.08,4.36,4.36,0,0,1-.67,2,7.37,7.37,0,0,1-2.36,2.19,30.45,30.45,0,0,1-9.81,3.31,57.71,57.71,0,0,1-10,1,37.45,37.45,0,0,1-10.34-1.14,17.08,17.08,0,0,1-5.32-2.47,10.84,10.84,0,0,1-2.42-2.45,9.56,9.56,0,0,1-.94-1.68A5.87,5.87,0,0,1,82,64.19,6.53,6.53,0,0,1,83.76,60a9,9,0,0,1,2.86-2,18,18,0,0,1,5.62-1.43,25.33,25.33,0,0,1,5.3,0,20.77,20.77,0,0,1,5.27,1.14,10.3,10.3,0,0,1,4.82,3.34,6.31,6.31,0,0,1,1.22,3.06,6.8,6.8,0,0,1-.42,3.17,12.08,12.08,0,0,1-3.25,4.58A26.05,26.05,0,0,1,101,75c-.72.45-1.46.85-2.21,1.24l-2.19,1.1c-1.42.71-2.81,1.43-4.18,2.19a45.43,45.43,0,0,0-14,11.78A67.92,67.92,0,0,0,73.32,99l-1.15,2c-.35.65-.67,1.31-1,2a31.8,31.8,0,0,0-1.55,4.15,41.52,41.52,0,0,0-1.22,17.68,52.81,52.81,0,0,0,5.48,17A63.48,63.48,0,0,0,84.42,156.4c8.39,8.68,19,15.19,30.41,19.68a118.34,118.34,0,0,0,17.73,5.5c6.13,1.44,12.3,2.73,18.51,3.71a192.08,192.08,0,0,0,37.56,2.38A176.22,176.22,0,0,0,226,182.18c6.14-1.55,12.23-3.41,18.28-5.42s12.06-4.25,18.12-6.43c3-1.09,6.06-2.18,9.12-3.22s6.13-2.08,9.25-3a106.64,106.64,0,0,1,19.16-4,67.16,67.16,0,0,1,19.75.6,36.18,36.18,0,0,1,9.6,3.21,28,28,0,0,1,8.24,6.23,25.54,25.54,0,0,1,5.23,9,28.23,28.23,0,0,1,1.41,10.35,29.42,29.42,0,0,1-2.34,10.24,23.42,23.42,0,0,1-6.36,8.73,17.86,17.86,0,0,1-2.27,1.62,25.88,25.88,0,0,1-2.36,1.32,25.32,25.32,0,0,1-5.1,1.87,24.08,24.08,0,0,1-10.88.16,22.78,22.78,0,0,1-9.92-4.8,18.39,18.39,0,0,1-6-9.63,18.17,18.17,0,0,1,.8-11.28,14.42,14.42,0,0,1,3.34-4.86,13,13,0,0,1,5.1-3,12.81,12.81,0,0,1,5.79-.45,9.13,9.13,0,0,1,5.31,2.64,7.18,7.18,0,0,1,2,5.35,7.4,7.4,0,0,1-2.08,4.67,7.92,7.92,0,0,0,.22-4.52,5,5,0,0,0-2.25-3,6.09,6.09,0,0,0-3.5-.81,9.86,9.86,0,0,0-3.68.9,9.69,9.69,0,0,0-4.77,5.38,12.92,12.92,0,0,0-.36,7.63,12.25,12.25,0,0,0,4.15,6.35,16.9,16.9,0,0,0,7.22,3.56,19.35,19.35,0,0,0,8.23,0,18.91,18.91,0,0,0,4-1.33,18,18,0,0,0,3.56-2.1,18.33,18.33,0,0,0,5.1-6.53,24,24,0,0,0,2.26-8.36,22,22,0,0,0-11.76-21.9,32.73,32.73,0,0,0-8.55-3,60.87,60.87,0,0,0-18.63-.61,99.1,99.1,0,0,0-18.41,4.21c-3,1-6,2-9,3.11s-6,2.29-8.95,3.47c-11.91,4.73-23.89,9.68-36.37,13.42a183.44,183.44,0,0,1-38.48,7.39,172.31,172.31,0,0,1-19.68.47,178.4,178.4,0,0,1-19.61-1.65c-6.5-.88-13-2-19.33-3.5a129.45,129.45,0,0,1-19.08-5.77,99.56,99.56,0,0,1-17.91-9.24A79.66,79.66,0,0,1,78,162.38c-9.16-10.06-15.51-23-16.62-36.79a47.9,47.9,0,0,1,2.54-20.37A38.61,38.61,0,0,1,66,100.46c.4-.77.83-1.53,1.28-2.27l1.35-2.1a73.93,73.93,0,0,1,6-8,49.23,49.23,0,0,1,7.33-7,54,54,0,0,1,8.51-5.29c1.46-.75,2.94-1.47,4.42-2.15l2.14-1c.69-.34,1.37-.68,2-1.06a22.27,22.27,0,0,0,3.63-2.52,8.7,8.7,0,0,0,2.42-3.1,2.75,2.75,0,0,0-.26-2.9,5.48,5.48,0,0,0-3.16-1.76,10,10,0,0,0-2.06-.25c-.34,0-.7,0-1.05,0l-1.13.06a26.46,26.46,0,0,0-4.3.67,9.38,9.38,0,0,0-3.48,1.55,3.86,3.86,0,0,0-.91.93c-.17.26-.11.33-.1.16a.35.35,0,0,0-.06-.21,4,4,0,0,0,.21.43,3.93,3.93,0,0,0,.91,1A11.58,11.58,0,0,0,93,67.53a32.74,32.74,0,0,0,8.63,1.84,47.15,47.15,0,0,0,9.2,0,32.06,32.06,0,0,0,4.5-.78,14.86,14.86,0,0,0,4-1.53,3.51,3.51,0,0,0,1.17-1c.13-.31.11-.21,0-.5a3.85,3.85,0,0,0-1.1-1.06,16.72,16.72,0,0,1-2.11-1.7,5,5,0,0,1-.6-.7A3.09,3.09,0,0,1,116,60.4a2.56,2.56,0,0,1,.5-1.64,2.78,2.78,0,0,1,1-.81,4.3,4.3,0,0,1,1.19-.4,15,15,0,0,1,2.86-.17c1.69,0,3.29.13,4.88.26,3.17.21,6.28.54,9.38.61a42.67,42.67,0,0,0,9.19-.59A18.7,18.7,0,0,0,153.49,54Z"/></g></g></svg>