<svg xmlns="http://www.w3.org/2000/svg" viewBox="0 0 600 412"><defs><style>.cls-1{opacity:0.76;}.cls-2{fill:#fff;}</style></defs><g id="レイヤー_2" data-name="レイヤー 2"><g id="レイヤー_1-2" data-name="レイヤー 1"><g class="cls-1"><rect width="600" height="412"/></g><path class="cls-2" d="M163.36,208.29a93.07,93.07,0,0,1-4,11A66.43,66.43,0,0,1,146,221.06c-17.44,0-26.35-11.6-26.35-24.38,0-14.89,11.32-25.18,27.67-25.18a74,74,0,0,1,13.79,1.68c.3,3.28.81,7.66,1.39,11.31l-2.26.51c-1.46-4.89-3.21-7.88-6.94-9.41a19.89,19.89,0,0,0-7.66-1.39c-12.05,0-18.4,8.91-18.4,21,0,14.09,7.3,23.14,19.13,23.14,7.44,0,11.09-3.43,14.82-10.73Z"/><path class="cls-2" d="M195.26,220.85a5.35,5.35,0,0,1-3.43-1.39,6.89,6.89,0,0,1-1.76-3.29c-2.92,2-6.49,4.68-8.76,4.68a9,9,0,0,1-8.9-9c0-3.58,2-5.92,6-7.3,4.46-1.54,9.93-3.43,11.54-4.75v-1.46c0-5.18-2.63-8.17-6.43-8.17a4.24,4.24,0,0,0-3.43,1.68,15.72,15.72,0,0,0-2,4.74,2,2,0,0,1-2.11,1.68,3.52,3.52,0,0,1-3.22-3.21c0-1,.95-1.9,2.41-2.92,2.12-1.54,6.35-4.24,10.51-5.11a9.59,9.59,0,0,1,9.86,10.44v14.09c0,3.35,1.24,4.38,2.55,4.38a5.77,5.77,0,0,0,2.63-.81l.73,2Zm-5.33-18.47c-1.61.8-5.11,2.33-6.79,3.06-2.77,1.24-4.45,2.63-4.45,5.33a5.31,5.31,0,0,0,5.25,5.62,9.7,9.7,0,0,0,6-2.63Z"/><path class="cls-2" d="M212.49,187.92v-2a18.77,18.77,0,0,1,6.42-14.6,15.18,15.18,0,0,1,8.18-3.87,8.18,8.18,0,0,1,5.91,2.34,2.35,2.35,0,0,1,.44,2.56,5.86,5.86,0,0,1-1.76,2.33,1.64,1.64,0,0,1-2.11-.15c-1.46-1.31-3.51-3-5.92-3-5.4,0-5.4,7.37-5.4,12.92v3.43H226a2.79,2.79,0,0,1-.73,3h-7V212c0,5.26.81,5.33,6.28,5.92v2H207.38v-2c4.59-.44,5.11-.73,5.11-5.48V190.92H207.3l-.29-.81,1.61-2.19Z"/><path class="cls-2" d="M258.18,213.76c-4.67,5.84-9.78,7.09-12.12,7.09-8.9,0-14.3-7.3-14.3-15.7a18.75,18.75,0,0,1,4.74-12.77,15,15,0,0,1,10.88-5.33,11.38,11.38,0,0,1,11.17,11.31c-.08,1.46-.29,2.12-1.46,2.41-1.46.29-10.81.95-19.49,1.24-.22,9.78,5.76,13.8,11,13.8,3,0,5.76-1.24,8.46-3.72Zm-12.55-23.94c-3.36,0-6.65,3.14-7.67,9.05,4.09,0,8.18,0,12.48-.22,1.32,0,1.76-.36,1.76-1.46C252.27,193.33,249.71,189.82,245.63,189.82Z"/><path class="cls-2" d="M318.55,183.91a22.65,22.65,0,0,0-2.26-5.4c-1.39-2.49-2.48-3.07-6.57-3.07h-7.81c-2.12,0-2.34.22-2.34,2.34v16.86h9.05c5.26,0,5.63-.88,6.72-6h2.19v15.26h-2.26c-.95-5.11-1.46-6.28-6.65-6.28h-9.05V210.7c0,6.35.73,6.64,7.38,7.23v2h-20.3v-2c5.91-.44,6.57-1,6.57-7.23V181.79c0-6.35-.73-6.64-6.57-7.23v-2h23.14c6.57,0,9-.07,10.29-.14.08,2.62.37,7.73.73,11.24Z"/><path class="cls-2" d="M328.7,220v-2c4.6-.44,5.11-.81,5.11-5.77v-15c0-4.52-.22-4.82-4.6-5.55v-1.75a47.62,47.62,0,0,0,10.37-2.92v25.26c0,5,.51,5.33,5.25,5.77v2Zm7.59-40.22a4,4,0,0,1-3.87-3.87,4,4,0,0,1,3.94-4,3.82,3.82,0,0,1,3.73,4A3.88,3.88,0,0,1,336.29,179.75Z"/><path class="cls-2" d="M368.05,187.05c9.12,0,15.91,6.93,15.91,16.35,0,11.82-8.76,17.45-15.91,17.45a16,16,0,0,1-16.21-16.28C351.84,192.67,361.11,187.05,368.05,187.05Zm-.88,2.48c-4.45,0-8.47,4.31-8.47,12.77,0,9.28,4.09,16,10.08,16,4.52,0,8.32-3.28,8.32-13.29C377.1,196.46,373.59,189.53,367.17,189.53Z"/><path class="cls-2" d="M408.85,220H392.06v-2c4.6-.44,5-.81,5-5.55V197.19c0-4.81-.29-5-4.53-5.54v-1.83a40.36,40.36,0,0,0,10.3-3v8c2.55-3.8,5.62-7.81,9.27-7.81,2.7,0,4.23,1.68,4.23,3.5a4.91,4.91,0,0,1-2.48,4,1.45,1.45,0,0,1-1.9-.15c-1.09-1.09-2-1.82-3.28-1.82-1.54,0-4.24,2.26-5.84,6V212.3c0,4.82.36,5.19,6,5.63Z"/><path class="cls-2" d="M448.93,213.76c-4.67,5.84-9.78,7.09-12.12,7.09-8.9,0-14.31-7.3-14.31-15.7a18.75,18.75,0,0,1,4.75-12.77,15,15,0,0,1,10.88-5.33,11.38,11.38,0,0,1,11.16,11.31c-.07,1.46-.29,2.12-1.46,2.41-1.46.29-10.8.95-19.49,1.24-.22,9.78,5.77,13.8,11,13.8,3,0,5.77-1.24,8.47-3.72Zm-12.56-23.94c-3.35,0-6.64,3.14-7.66,9.05,4.09,0,8.17,0,12.48-.22,1.31,0,1.75-.36,1.75-1.46C443,193.33,440.46,189.82,436.37,189.82Z"/><path class="cls-2" d="M207.63,73.41a12.86,12.86,0,0,1,13,13.2c0,8.6-5.84,14-13.2,14a13,13,0,0,1-13.28-13.36C194.11,80.05,199.19,73.41,207.63,73.41Zm-.8,1.48c-4.48,0-8.56,3.76-8.56,11.24s4.08,12.92,9.76,12.92c4.84,0,8.48-3.6,8.48-11.32C216.51,79.33,212.07,74.89,206.83,74.89Z"/><path class="cls-2" d="M233,100h-9.2V98.85c2.52-.24,2.76-.44,2.76-3V87.49c0-2.64-.16-2.76-2.48-3v-1a22.14,22.14,0,0,0,5.64-1.64v4.4c1.4-2.08,3.08-4.28,5.08-4.28a2.07,2.07,0,0,1,2.32,1.92,2.68,2.68,0,0,1-1.36,2.2.79.79,0,0,1-1-.08,2.52,2.52,0,0,0-1.8-1c-.84,0-2.32,1.24-3.2,3.28v7.52c0,2.64.2,2.84,3.28,3.08Z"/><path class="cls-2" d="M244.31,94.13a2.93,2.93,0,0,0-1.32,2c0,.72.68,1.52,2.48,1.52,1.48,0,3.16,0,4.48,0,2.56,0,5.84.84,5.84,4.8,0,4.16-4.92,8.08-10.24,8.08-4.52,0-7-2.64-7-5a3.15,3.15,0,0,1,1-2.28,37.53,37.53,0,0,1,3.28-2.88,5.21,5.21,0,0,1-3-2.16,3.63,3.63,0,0,1-.48-1.72A8.46,8.46,0,0,0,243,93.69Zm1.92.4c-3.72,0-6.8-2.28-6.8-6,0-4.56,4.08-6.68,7.2-6.68a8.2,8.2,0,0,1,3.84,1,26.88,26.88,0,0,0,5.36-.6l.24.36a5,5,0,0,1-1.48,2.12c-.6,0-1.92-.16-2.48-.2a6.17,6.17,0,0,1,1.16,3.64C253.27,92.49,249.67,94.53,246.23,94.53Zm.92,5.92c-2,0-2.84.24-3.56.84a4.61,4.61,0,0,0-1.92,3.28c0,2.2,2.28,3.84,5.36,3.84,3.8,0,6-2,6-4.52a3,3,0,0,0-1.76-2.92A10.76,10.76,0,0,0,247.15,100.45Zm-.92-17.36c-1.8,0-3.4,1.64-3.4,4.8s1.6,5.36,3.8,5.36c1.76-.08,3.32-1.56,3.32-4.8S248.47,83.09,246.23,83.09Z"/><path class="cls-2" d="M270.27,100.45a2.93,2.93,0,0,1-1.88-.76,3.76,3.76,0,0,1-1-1.8c-1.6,1.08-3.56,2.56-4.8,2.56a4.91,4.91,0,0,1-4.88-4.92c0-2,1.08-3.24,3.28-4,2.44-.84,5.44-1.88,6.32-2.6v-.8c0-2.84-1.44-4.48-3.52-4.48a2.32,2.32,0,0,0-1.88.92,8.58,8.58,0,0,0-1.08,2.6,1.11,1.11,0,0,1-1.16.92A1.92,1.92,0,0,1,258,86.33c0-.56.52-1,1.32-1.6a16.8,16.8,0,0,1,5.76-2.8,5.26,5.26,0,0,1,5.4,5.72v7.72c0,1.84.68,2.4,1.4,2.4a3.18,3.18,0,0,0,1.44-.44l.4,1.12Zm-2.92-10.12c-.88.44-2.8,1.28-3.72,1.68-1.52.68-2.44,1.44-2.44,2.92A2.91,2.91,0,0,0,264.07,98a5.31,5.31,0,0,0,3.28-1.44Z"/><path class="cls-2" d="M286.83,100V98.85c2.32-.24,2.56-.52,2.56-3.24V89c0-2.8-1-4.68-3.64-4.68a7,7,0,0,0-4.44,2.08v9.36c0,2.76.24,2.84,2.6,3.08V100h-8.64V98.85c2.64-.28,2.88-.44,2.88-3.08V87.53c0-2.6-.28-2.72-2.44-3.08v-1a22.7,22.7,0,0,0,5.6-1.6V85c.8-.56,1.68-1.16,2.72-1.84a6.13,6.13,0,0,1,3.32-1.2c3.2,0,5.2,2.36,5.2,6.24v7.6c0,2.72.24,2.84,2.56,3.08V100Z"/><path class="cls-2" d="M297.43,100V98.85c2.52-.24,2.8-.44,2.8-3.16V87.45c0-2.48-.12-2.64-2.52-3v-1a26.19,26.19,0,0,0,5.68-1.6V95.69c0,2.72.28,2.92,2.88,3.16V100Zm4.16-22a2.19,2.19,0,0,1-2.12-2.12,2.16,2.16,0,0,1,2.16-2.2,2.09,2.09,0,0,1,2,2.2A2.13,2.13,0,0,1,301.59,77.93Z"/><path class="cls-2" d="M323.43,96.37c-1.76,2.32-4.44,4.08-6.84,4.08-5.08,0-8.08-4.12-8.08-8.4a9.5,9.5,0,0,1,4-7.84,10.59,10.59,0,0,1,6.08-2.28A5.94,5.94,0,0,1,322.35,83a1.26,1.26,0,0,1,.64,1.16,2,2,0,0,1-1.44,1.8c-.2,0-.36-.08-.76-.4a5.94,5.94,0,0,0-4-1.68c-2.64,0-5,2.24-5,6.4,0,5.56,3.76,7.4,6.08,7.4a6.41,6.41,0,0,0,4.88-2.2Z"/><path class="cls-2" d="M359.23,93.57a50.74,50.74,0,0,1-2.2,6,36.45,36.45,0,0,1-7.32,1c-9.56,0-14.44-6.36-14.44-13.36,0-8.16,6.2-13.8,15.16-13.8a40.83,40.83,0,0,1,7.56.92c.16,1.8.44,4.2.76,6.2l-1.24.28c-.8-2.68-1.76-4.32-3.8-5.16a10.94,10.94,0,0,0-4.2-.76c-6.6,0-10.08,4.88-10.08,11.48,0,7.72,4,12.68,10.48,12.68,4.08,0,6.08-1.88,8.12-5.88Z"/><path class="cls-2" d="M375.11,100.45a2.93,2.93,0,0,1-1.88-.76,3.76,3.76,0,0,1-1-1.8c-1.6,1.08-3.56,2.56-4.8,2.56a4.91,4.91,0,0,1-4.88-4.92c0-2,1.08-3.24,3.28-4,2.44-.84,5.44-1.88,6.32-2.6v-.8c0-2.84-1.44-4.48-3.52-4.48a2.32,2.32,0,0,0-1.88.92,8.58,8.58,0,0,0-1.08,2.6,1.11,1.11,0,0,1-1.16.92,1.92,1.92,0,0,1-1.76-1.76c0-.56.52-1,1.32-1.6a16.8,16.8,0,0,1,5.76-2.8,5.26,5.26,0,0,1,5.4,5.72v7.72c0,1.84.68,2.4,1.4,2.4a3.18,3.18,0,0,0,1.44-.44l.4,1.12Zm-2.92-10.12c-.88.44-2.8,1.28-3.72,1.68-1.52.68-2.44,1.44-2.44,2.92A2.91,2.91,0,0,0,368.91,98a5.31,5.31,0,0,0,3.28-1.44Z"/><path class="cls-2" d="M383,82.41V81.33a10.29,10.29,0,0,1,3.52-8A8.29,8.29,0,0,1,391,71.21a4.48,4.48,0,0,1,3.24,1.28,1.28,1.28,0,0,1,.24,1.4,3.18,3.18,0,0,1-1,1.28.91.91,0,0,1-1.16-.08,5.17,5.17,0,0,0-3.24-1.64c-3,0-3,4-3,7.08v1.88h4.24a1.52,1.52,0,0,1-.4,1.64h-3.84V95.61c0,2.88.44,2.92,3.44,3.24V100h-9.4V98.85c2.52-.24,2.8-.4,2.8-3V84.05h-2.84l-.16-.44.88-1.2Z"/><path class="cls-2" d="M406.39,96.57c-2.56,3.2-5.36,3.88-6.64,3.88-4.88,0-7.84-4-7.84-8.6a10.27,10.27,0,0,1,2.6-7,8.21,8.21,0,0,1,6-2.92,6.24,6.24,0,0,1,6.12,6.2c0,.8-.16,1.16-.8,1.32-.8.16-5.92.52-10.68.68-.12,5.36,3.16,7.56,6,7.56a6.76,6.76,0,0,0,4.64-2Zm-6.88-13.12c-1.84,0-3.64,1.72-4.2,5,2.24,0,4.48,0,6.84-.12.72,0,1-.2,1-.8A3.72,3.72,0,0,0,399.51,83.45Z"/><path class="cls-2" d="M202.79,318.29c-.52,0-1,0-1.48-.08a7.1,7.1,0,0,1-6.24-3.44c-1.48-2-2.92-4.56-4.2-6.6-.8-1.28-1.32-1.52-3.36-1.52h-1.4v6.28c0,3.4.44,3.6,3.64,3.92V318H179.07v-1.12c3.32-.36,3.6-.52,3.6-3.92V297c0-3.4-.44-3.52-3.6-3.88V292h10.2c2.92,0,4.88.36,6.4,1.36a6,6,0,0,1,2.72,5.28c0,3.44-2.2,5.6-5.16,6.88.72,1.24,2.44,3.92,3.64,5.72a36.73,36.73,0,0,0,3.16,4.12,5.76,5.76,0,0,0,2.92,1.84Zm-14.76-13c2.08,0,3.4-.32,4.4-1.16a5.62,5.62,0,0,0,2.2-4.92c0-4.28-2.84-5.84-5.92-5.84a3.66,3.66,0,0,0-2.12.4c-.36.28-.48.68-.48,1.72v9.8Z"/><path class="cls-2" d="M217.79,314.57c-2.56,3.2-5.36,3.88-6.64,3.88-4.88,0-7.84-4-7.84-8.6a10.27,10.27,0,0,1,2.6-7,8.21,8.21,0,0,1,6-2.92,6.24,6.24,0,0,1,6.12,6.2c0,.8-.16,1.16-.8,1.32-.8.16-5.92.52-10.68.68-.12,5.36,3.16,7.56,6,7.56a6.76,6.76,0,0,0,4.64-2Zm-6.88-13.12c-1.84,0-3.64,1.72-4.2,5,2.24,0,4.48,0,6.84-.12.72,0,1-.2,1-.8A3.72,3.72,0,0,0,210.91,301.45Z"/><path class="cls-2" d="M219.79,318v-1.12c2.56-.24,2.88-.44,2.88-3.08V294.61c0-2.44-.2-2.68-2.76-3v-1a28.34,28.34,0,0,0,5.92-1.36v24.56c0,2.64.24,2.84,2.84,3.08V318Z"/><path class="cls-2" d="M243.63,318.45a2.93,2.93,0,0,1-1.88-.76,3.76,3.76,0,0,1-1-1.8c-1.6,1.08-3.56,2.56-4.8,2.56a4.91,4.91,0,0,1-4.88-4.92c0-2,1.08-3.24,3.28-4,2.44-.84,5.44-1.88,6.32-2.6v-.8c0-2.84-1.44-4.48-3.52-4.48a2.32,2.32,0,0,0-1.88.92,8.58,8.58,0,0,0-1.08,2.6,1.11,1.11,0,0,1-1.16.92,1.92,1.92,0,0,1-1.76-1.76c0-.56.52-1,1.32-1.6a16.8,16.8,0,0,1,5.76-2.8,5.26,5.26,0,0,1,5.4,5.72v7.72c0,1.84.68,2.4,1.4,2.4a3.18,3.18,0,0,0,1.44-.44l.4,1.12Zm-2.92-10.12c-.88.44-2.8,1.28-3.72,1.68-1.52.68-2.44,1.44-2.44,2.92a2.91,2.91,0,0,0,2.88,3.08,5.31,5.31,0,0,0,3.28-1.44Z"/><path class="cls-2" d="M257.23,318v-1.12c1.72-.2,2.08-.48,1.4-1.56l-3-4.68c-.88,1.44-1.76,2.84-2.56,4.24s-.68,1.72,1.4,2V318h-7.56v-1.12c2.52-.32,3-.6,4.52-2.56,1.12-1.56,2.16-3.12,3.36-4.92l-3.44-5.4c-1.2-1.92-1.68-2.2-3.92-2.48v-1.08h8v1.08c-1.68.24-1.84.56-1.12,1.72l2.4,3.64c.76-1.16,1.56-2.52,2.28-3.72s.44-1.44-1.28-1.64v-1.08H265v1.08c-2.16.24-3,.4-4.6,2.48-.56.76-1.52,2.08-2.84,4.08l3.84,5.92c1.52,2.2,2,2.56,4.4,2.88V318Z"/><path class="cls-2" d="M303.07,302.09c-2.8.32-3.28,1-4.6,3-1,1.52-2.12,3.12-3.56,5.28a57.46,57.46,0,0,1,6.8,7.92l-.24.44a10.24,10.24,0,0,1-4.92-1.64c-.48-.56-2.4-2.4-3.68-3.76-2.92,3.88-5.56,5.2-8.44,5.2-5.16,0-8-3.76-8-7.24,0-3.72,2.16-5.2,6-7.64-1.92-1.64-3.12-3.48-3.12-5.68a6.48,6.48,0,0,1,6.64-6.32c3.32,0,6,2.28,6,5.52a4.69,4.69,0,0,1-1.72,3.56,34.85,34.85,0,0,1-3.44,2.24c1.32,1.12,4.6,3.84,7.16,6.36a28.76,28.76,0,0,0,2.48-4.56c.76-1.84.44-2.36-2.48-2.68v-1.16h9.16Zm-17.68,13.68c2.76,0,4.32-.88,6.44-3.56a88.56,88.56,0,0,0-8.32-7.6c-2.84,1.88-3.64,3.6-3.64,5.64A5.34,5.34,0,0,0,285.39,315.77Zm.12-22.72c-2,0-3.24,1.56-3.24,3.92,0,2,1,3.28,3.44,5.2,2.24-1.6,3.2-2.88,3.2-4.92C288.87,294.93,287.71,293.05,285.51,293.05Z"/><path class="cls-2" d="M328.67,303.89c3.84.64,7,2.48,7,6.36a6.91,6.91,0,0,1-3.88,6.16,13.22,13.22,0,0,1-6.92,1.56H315v-1.12c3.4-.32,3.6-.68,3.6-3.84V297c0-3.32-.36-3.6-3.6-3.88V292h10.48c3,0,4.88.52,6.16,1.4a5.22,5.22,0,0,1,2.36,4.48C334,301.61,330.91,303.33,328.67,303.89Zm-4.6-.48c4.4,0,6.2-1.76,6.2-5,0-2.8-1.72-5-5.56-5a4.17,4.17,0,0,0-2.24.4c-.32.24-.44.68-.44,2v7.64Zm-2,9.52c0,2.88.68,3.6,3.52,3.6,3.12,0,6.16-1.68,6.16-5.88s-2.88-5.84-7.76-5.84H322Z"/><path class="cls-2" d="M353.11,314.57c-2.56,3.2-5.36,3.88-6.64,3.88-4.88,0-7.84-4-7.84-8.6a10.27,10.27,0,0,1,2.6-7,8.21,8.21,0,0,1,6-2.92,6.24,6.24,0,0,1,6.12,6.2c0,.8-.16,1.16-.8,1.32-.8.16-5.92.52-10.68.68-.12,5.36,3.16,7.56,6,7.56a6.76,6.76,0,0,0,4.64-2Zm-6.88-13.12c-1.84,0-3.64,1.72-4.2,5,2.24,0,4.48,0,6.84-.12.72,0,1-.2,1-.8A3.72,3.72,0,0,0,346.23,301.45Z"/><path class="cls-2" d="M368.55,318.45a2.93,2.93,0,0,1-1.88-.76,3.76,3.76,0,0,1-1-1.8c-1.6,1.08-3.56,2.56-4.8,2.56a4.91,4.91,0,0,1-4.88-4.92c0-2,1.08-3.24,3.28-4,2.44-.84,5.44-1.88,6.32-2.6v-.8c0-2.84-1.44-4.48-3.52-4.48a2.32,2.32,0,0,0-1.88.92,8.58,8.58,0,0,0-1.08,2.6,1.11,1.11,0,0,1-1.16.92,1.92,1.92,0,0,1-1.76-1.76c0-.56.52-1,1.32-1.6a16.8,16.8,0,0,1,5.76-2.8,5.26,5.26,0,0,1,5.4,5.72v7.72c0,1.84.68,2.4,1.4,2.4a3.18,3.18,0,0,0,1.44-.44l.4,1.12Zm-2.92-10.12c-.88.44-2.8,1.28-3.72,1.68-1.52.68-2.44,1.44-2.44,2.92a2.91,2.91,0,0,0,2.88,3.08,5.31,5.31,0,0,0,3.28-1.44Z"/><path class="cls-2" d="M393,317.05a46.1,46.1,0,0,0-6.12,1.4v-3.08c-2.16,1.8-3.92,3.08-6.12,3.08-2.68,0-5-1.64-5-6v-7.76c0-2.16-.32-2.4-1.32-2.6l-1.12-.2v-1a54.32,54.32,0,0,0,5.72-.72c-.12,1.28-.12,3.2-.12,5.84v5.44c0,3.52,1.84,4.52,3.64,4.52a6.32,6.32,0,0,0,4.32-1.92v-9.32c0-2.16-.48-2.44-1.84-2.64l-1.28-.16v-1a56.65,56.65,0,0,0,6.28-.72v13.4c0,2,.32,2.28,1.84,2.36l1.12,0Z"/><path class="cls-2" d="M402.83,317.93a4,4,0,0,1-1.72.52c-2.56,0-3.92-1.56-3.92-4.76V302.05h-2.76l-.16-.48,1.08-1.16h1.84v-3.36c.76-.8,1.92-1.84,2.68-2.64l.6.08c-.08,1.68-.12,4-.12,5.92h4.56a1.25,1.25,0,0,1-.24,1.64h-4.32v10.24c0,3.24,1.28,3.84,2.32,3.84a5.72,5.72,0,0,0,2.44-.64l.36,1Z"/><path class="cls-2" d="M424.67,301.49c-2.08.32-2.52.64-3.52,2.92s-2.08,5-4.84,11.92a109.51,109.51,0,0,0-4,11c-.24.84-.68,1-1.2,1a2.32,2.32,0,0,1-2.44-1.92c0-.52.28-.88.88-1.4a9,9,0,0,0,2.68-3c.84-1.68,1.44-3.08,1.64-3.6a2.34,2.34,0,0,0-.08-1.64c-1.56-4.56-3.72-9.48-4.92-12.36-.88-2.2-1.24-2.68-3.44-3v-1.08h8.08v1.08c-1.84.28-2,.68-1.52,2.16l3.88,9.84c1.12-2.76,2.72-7.2,3.56-9.72.48-1.52.2-2-2.12-2.28v-1.08h7.32Z"/><path class="cls-2" d="M238.06,178.34s17-15.39,16.48-7.09S238.06,178.34,238.06,178.34Z"/><path class="cls-2" d="M490.2,199.3s-15.86-26.55-1.19-28S490.2,199.3,490.2,199.3Z"/><path class="cls-2" d="M491.05,200.65s24-19.51,27.51-5.19S491.05,200.65,491.05,200.65Z"/><path class="cls-2" d="M490.61,201.94s28.19,12.72,17,22.27S490.61,201.94,490.61,201.94Z"/><path class="cls-2" d="M489.79,201.94s-28.19,12.72-17,22.27S489.79,201.94,489.79,201.94Z"/><path class="cls-2" d="M489.34,200.65s-24-19.51-27.51-5.19S489.34,200.65,489.34,200.65Z"/><circle cx="490.2" cy="201.01" r="1.71"/></g></g></svg>