<svg xmlns="http://www.w3.org/2000/svg" viewBox="0 0 580 376"><defs><style>.cls-1{opacity:0.71;isolation:isolate;}.cls-2{fill:#ffb300;}.cls-3{fill:#849b00;}.cls-4{fill:#ff8874;}.cls-5{fill:none;stroke:#ffb300;stroke-miterlimit:10;stroke-width:5px;}</style></defs><g id="レイヤー_2" data-name="レイヤー 2"><g id="レイヤー_1-2" data-name="レイヤー 1"><ellipse class="cls-1" cx="290" cy="188" rx="290" ry="188"/><path class="cls-2" d="M153.4,199.3a84.45,84.45,0,0,1-4,11,68.29,68.29,0,0,1-13.4,1.8c-17.4,0-26.4-11.6-26.4-24.4,0-14.9,11.3-25.2,27.7-25.2a70.79,70.79,0,0,1,13.8,1.7c.3,3.3.8,7.7,1.4,11.3l-2.3.5c-1.5-4.9-3.2-7.9-6.9-9.4a19.61,19.61,0,0,0-7.7-1.4c-12,0-18.4,8.9-18.4,21,0,14.1,7.3,23.1,19.1,23.1,7.4,0,11.1-3.4,14.8-10.7Z"/><path class="cls-2" d="M185.3,211.8a5.22,5.22,0,0,1-3.4-1.4,7.59,7.59,0,0,1-1.8-3.3c-2.9,2-6.5,4.7-8.8,4.7a8.94,8.94,0,0,1-8.9-9c0-3.6,2-5.9,6-7.3,4.5-1.5,9.9-3.4,11.5-4.7v-1.5c0-5.2-2.6-8.2-6.4-8.2a4,4,0,0,0-3.4,1.7,16.4,16.4,0,0,0-2,4.7c-.4,1.2-1,1.7-2.1,1.7a3.52,3.52,0,0,1-3.2-3.2c0-1,.9-1.9,2.4-2.9,2.1-1.5,6.4-4.2,10.5-5.1a9.92,9.92,0,0,1,6.1,2c2.6,2.2,3.7,4.7,3.7,8.5v14.1c0,3.4,1.2,4.4,2.6,4.4a6.07,6.07,0,0,0,2.6-.8l.7,2Zm-5.4-18.4c-1.6.8-5.1,2.3-6.8,3.1-2.8,1.2-4.5,2.6-4.5,5.3a5.27,5.27,0,0,0,5.3,5.6,10.14,10.14,0,0,0,6-2.6Z"/><path class="cls-2" d="M202.5,178.9v-2a18.62,18.62,0,0,1,6.4-14.6,15.22,15.22,0,0,1,8.2-3.9c2.5.1,4.7.9,5.9,2.3a2.25,2.25,0,0,1,.4,2.6,4.87,4.87,0,0,1-1.8,2.3,1.66,1.66,0,0,1-2.1-.1c-1.5-1.3-3.5-3-5.9-3-5.4,0-5.4,7.4-5.4,12.9v3.4h7.7a2.83,2.83,0,0,1-.7,3h-7V203c0,5.3.8,5.3,6.3,5.9v2H197.3v-2c4.6-.4,5.1-.7,5.1-5.5V181.9h-5.2l-.3-.8,1.6-2.2Z"/><path class="cls-2" d="M248.2,204.8c-4.7,5.8-9.8,7.1-12.1,7.1-8.9,0-14.3-7.3-14.3-15.7a19.14,19.14,0,0,1,4.7-12.8,15.15,15.15,0,0,1,10.9-5.3,11.39,11.39,0,0,1,11.2,11.3c-.1,1.5-.3,2.1-1.5,2.4-1.5.3-10.8.9-19.5,1.2-.2,9.8,5.8,13.8,10.9,13.8a12.29,12.29,0,0,0,8.5-3.7Zm-12.6-24c-3.4,0-6.6,3.1-7.7,9.1,4.1,0,8.2,0,12.5-.2,1.3,0,1.8-.4,1.8-1.5C242.3,184.3,239.7,180.8,235.6,180.8Z"/><path class="cls-2" d="M308.6,174.9a22,22,0,0,0-2.3-5.4c-1.4-2.5-2.5-3.1-6.6-3.1h-7.8c-2.1,0-2.3.2-2.3,2.3v16.9h9.1c5.3,0,5.6-.9,6.7-6h2.2v15.3h-2.3c-.9-5.1-1.5-6.3-6.6-6.3h-9.1v13.1c0,6.4.7,6.6,7.4,7.2v2H276.7v-2c5.9-.4,6.6-.9,6.6-7.2V172.8c0-6.4-.7-6.6-6.6-7.2v-2h23.1c6.6,0,9.1-.1,10.3-.1.1,2.6.4,7.7.7,11.2Z"/><path class="cls-2" d="M318.7,211v-2c4.6-.4,5.1-.8,5.1-5.8v-15c0-4.5-.2-4.8-4.6-5.5v-1.8a52.67,52.67,0,0,0,10.4-2.9v25.3c0,5,.5,5.3,5.3,5.8v2H318.7Zm7.6-40.3a4,4,0,0,1-3.9-3.9,3.93,3.93,0,0,1,3.9-4,3.83,3.83,0,0,1,3.7,4A3.74,3.74,0,0,1,326.3,170.7Z"/><path class="cls-2" d="M358,178c9.1,0,15.9,6.9,15.9,16.4,0,11.8-8.8,17.4-15.9,17.4-10.1,0-16.2-8.1-16.2-16.3C341.8,183.7,351.1,178,358,178Zm-.8,2.5c-4.5,0-8.5,4.3-8.5,12.8,0,9.3,4.1,16,10.1,16,4.5,0,8.3-3.3,8.3-13.3C367.1,187.5,363.6,180.5,357.2,180.5Z"/><path class="cls-2" d="M398.9,211H382.1v-2c4.6-.4,5-.8,5-5.5V188.3c0-4.8-.3-5-4.5-5.5V181a41.87,41.87,0,0,0,10.3-3v8c2.6-3.8,5.6-7.8,9.3-7.8,2.7,0,4.2,1.7,4.2,3.5a4.85,4.85,0,0,1-2.5,4,1.5,1.5,0,0,1-1.9-.1c-1.1-1.1-2-1.8-3.3-1.8-1.5,0-4.2,2.3-5.8,6v13.7c0,4.8.4,5.2,6,5.6Z"/><path class="cls-2" d="M438.9,204.8c-4.7,5.8-9.8,7.1-12.1,7.1-8.9,0-14.3-7.3-14.3-15.7a19.14,19.14,0,0,1,4.7-12.8,15.15,15.15,0,0,1,10.9-5.3,11.39,11.39,0,0,1,11.2,11.3c-.1,1.5-.3,2.1-1.5,2.4-1.5.3-10.8.9-19.5,1.2-.2,9.8,5.8,13.8,10.9,13.8a12.29,12.29,0,0,0,8.5-3.7Zm-12.5-24c-3.4,0-6.6,3.1-7.7,9.1,4.1,0,8.2,0,12.5-.2,1.3,0,1.8-.4,1.8-1.5C433,184.3,430.5,180.8,426.4,180.8Z"/><path class="cls-2" d="M197.6,32.4a12.89,12.89,0,0,1,13,13.2c0,8.6-5.8,14-13.2,14a13,13,0,0,1-13.3-13.4C184.1,39.1,189.2,32.4,197.6,32.4Zm-.8,1.5c-4.5,0-8.6,3.8-8.6,11.2S192.3,58,198,58c4.8,0,8.5-3.6,8.5-11.3C206.5,38.3,202.1,33.9,196.8,33.9Z"/><path class="cls-2" d="M223,59h-9.2V57.9c2.5-.2,2.8-.4,2.8-3V46.6c0-2.6-.2-2.8-2.5-3v-1a21.21,21.21,0,0,0,5.6-1.6v4.4c1.4-2.1,3.1-4.3,5.1-4.3,1.5,0,2.3.9,2.3,1.9a2.58,2.58,0,0,1-1.4,2.2.76.76,0,0,1-1-.1,2.56,2.56,0,0,0-1.8-1c-.8,0-2.3,1.2-3.2,3.3v7.5c0,2.6.2,2.8,3.3,3.1v1Z"/><path class="cls-2" d="M234.3,53.1a2.78,2.78,0,0,0-1.3,2c0,.7.7,1.5,2.5,1.5H240c2.6,0,5.8.8,5.8,4.8,0,4.2-4.9,8.1-10.2,8.1-4.5,0-7-2.6-7-5a3.45,3.45,0,0,1,1-2.3c.8-.8,2.4-2.2,3.3-2.9a5.07,5.07,0,0,1-3-2.2,3.21,3.21,0,0,1-.5-1.7,8.88,8.88,0,0,0,3.7-2.8Zm1.9.4c-3.7,0-6.8-2.3-6.8-6,0-4.6,4.1-6.7,7.2-6.7a8.61,8.61,0,0,1,3.8,1,26.91,26.91,0,0,0,5.4-.6l.2.4a4.53,4.53,0,0,1-1.5,2.1c-.6,0-1.9-.2-2.5-.2a6,6,0,0,1,1.2,3.6C243.3,51.5,239.7,53.5,236.2,53.5Zm1,5.9c-2,0-2.8.2-3.6.8a4.58,4.58,0,0,0-1.9,3.3c0,2.2,2.3,3.8,5.4,3.8,3.8,0,6-2,6-4.5a2.88,2.88,0,0,0-1.8-2.9A12.43,12.43,0,0,0,237.2,59.4Zm-1-17.3c-1.8,0-3.4,1.6-3.4,4.8s1.6,5.4,3.8,5.4c1.8-.1,3.3-1.6,3.3-4.8S238.5,42.1,236.2,42.1Z"/><path class="cls-2" d="M260.3,59.4a2.73,2.73,0,0,1-1.9-.8,4,4,0,0,1-1-1.8c-1.6,1.1-3.6,2.6-4.8,2.6a5,5,0,0,1-4.9-4.9c0-2,1.1-3.2,3.3-4a31.57,31.57,0,0,0,6.3-2.6v-.8c0-2.8-1.4-4.5-3.5-4.5a2.32,2.32,0,0,0-1.9.9,11.16,11.16,0,0,0-1.1,2.6,1.18,1.18,0,0,1-1.2.9,1.93,1.93,0,0,1-1.8-1.8c0-.6.5-1,1.3-1.6a18.43,18.43,0,0,1,5.8-2.8,6,6,0,0,1,3.4,1.1,5.53,5.53,0,0,1,2,4.6v7.7c0,1.8.7,2.4,1.4,2.4a3.26,3.26,0,0,0,1.4-.4l.4,1.1Zm-2.9-10.1c-.9.4-2.8,1.3-3.7,1.7-1.5.7-2.4,1.4-2.4,2.9a2.94,2.94,0,0,0,2.9,3.1,5.41,5.41,0,0,0,3.3-1.4C257.4,53.7,257.4,51.2,257.4,49.3Z"/><path class="cls-2" d="M276.8,59V57.9c2.3-.2,2.6-.5,2.6-3.2V48c0-2.8-1-4.7-3.6-4.7a7,7,0,0,0-4.4,2.1v9.4c0,2.8.2,2.8,2.6,3.1V59h-8.6V57.9c2.6-.3,2.9-.4,2.9-3.1V46.6c0-2.6-.3-2.7-2.4-3.1v-1a20.17,20.17,0,0,0,5.6-1.6v3.2a31.61,31.61,0,0,1,2.7-1.8,6.36,6.36,0,0,1,3.3-1.2c3.2,0,5.2,2.4,5.2,6.2v7.6c0,2.7.2,2.8,2.6,3.1v1.1h-8.5Z"/><path class="cls-2" d="M287.4,59V57.9c2.5-.2,2.8-.4,2.8-3.2V46.5c0-2.5-.1-2.6-2.5-3v-1a29.46,29.46,0,0,0,5.7-1.6V54.7c0,2.7.3,2.9,2.9,3.2V59Zm4.2-22.1a2.18,2.18,0,0,1-2.1-2.1,2.16,2.16,0,0,1,2.2-2.2,2.06,2.06,0,0,1,2,2.2A2.11,2.11,0,0,1,291.6,36.9Z"/><path class="cls-2" d="M313.4,55.4c-1.8,2.3-4.4,4.1-6.8,4.1-5.1,0-8.1-4.1-8.1-8.4a9.49,9.49,0,0,1,4-7.8,10.83,10.83,0,0,1,6.1-2.3,6,6,0,0,1,3.7,1.1,1.13,1.13,0,0,1,.6,1.2,2,2,0,0,1-1.4,1.8c-.2,0-.4-.1-.8-.4a6,6,0,0,0-4-1.7c-2.6,0-5,2.2-5,6.4,0,5.6,3.8,7.4,6.1,7.4,1.7,0,3-.4,4.9-2.2Z"/><path class="cls-2" d="M349.2,52.6a56.2,56.2,0,0,1-2.2,6,39.68,39.68,0,0,1-7.3,1c-9.6,0-14.4-6.4-14.4-13.4,0-8.2,6.2-13.8,15.2-13.8a43.43,43.43,0,0,1,7.6.9c.2,1.8.4,4.2.8,6.2l-1.2.3c-.8-2.7-1.8-4.3-3.8-5.2a10.48,10.48,0,0,0-4.2-.8c-6.6,0-10.1,4.9-10.1,11.5,0,7.7,4,12.7,10.5,12.7,4.1,0,6.1-1.9,8.1-5.9Z"/><path class="cls-2" d="M365.1,59.4a2.73,2.73,0,0,1-1.9-.8,4,4,0,0,1-1-1.8c-1.6,1.1-3.6,2.6-4.8,2.6a5,5,0,0,1-4.9-4.9c0-2,1.1-3.2,3.3-4a31.57,31.57,0,0,0,6.3-2.6v-.8c0-2.8-1.4-4.5-3.5-4.5a2.32,2.32,0,0,0-1.9.9,11.16,11.16,0,0,0-1.1,2.6,1.18,1.18,0,0,1-1.2.9,1.93,1.93,0,0,1-1.8-1.8c0-.6.5-1,1.3-1.6a18.43,18.43,0,0,1,5.8-2.8,6,6,0,0,1,3.4,1.1,5.53,5.53,0,0,1,2,4.6v7.7c0,1.8.7,2.4,1.4,2.4a3.26,3.26,0,0,0,1.4-.4l.4,1.1Zm-2.9-10.1c-.9.4-2.8,1.3-3.7,1.7-1.5.7-2.4,1.4-2.4,2.9A2.94,2.94,0,0,0,359,57a5.41,5.41,0,0,0,3.3-1.4C362.2,53.7,362.2,51.2,362.2,49.3Z"/><path class="cls-2" d="M372.9,41.4V40.3a10.36,10.36,0,0,1,3.5-8,8.47,8.47,0,0,1,4.5-2.1,4,4,0,0,1,3.2,1.3,1.18,1.18,0,0,1,.2,1.4,3.05,3.05,0,0,1-1,1.3.92.92,0,0,1-1.2-.1,5.18,5.18,0,0,0-3.2-1.6c-3,0-3,4-3,7.1v1.9h4.2a1.56,1.56,0,0,1-.4,1.6h-3.8V54.7c0,2.9.4,2.9,3.4,3.2V59h-9.4V57.9c2.5-.2,2.8-.4,2.8-3V43.1h-2.8l-.2-.4.9-1.2h2.3Z"/><path class="cls-2" d="M396.4,55.6c-2.6,3.2-5.4,3.9-6.6,3.9-4.9,0-7.8-4-7.8-8.6a10.58,10.58,0,0,1,2.6-7,8.19,8.19,0,0,1,6-2.9,6.21,6.21,0,0,1,6.1,6.2c0,.8-.2,1.2-.8,1.3-.8.2-5.9.5-10.7.7-.1,5.4,3.2,7.6,6,7.6a6.82,6.82,0,0,0,4.6-2Zm-6.9-13.1c-1.8,0-3.6,1.7-4.2,5,2.2,0,4.5,0,6.8-.1.7,0,1-.2,1-.8C393.1,44.4,391.7,42.5,389.5,42.5Z"/><path class="cls-2" d="M192.8,336.3a7.57,7.57,0,0,1-1.5-.1,7.12,7.12,0,0,1-6.2-3.4c-1.5-2-2.9-4.6-4.2-6.6-.8-1.3-1.3-1.5-3.4-1.5h-1.4V331c0,3.4.4,3.6,3.6,3.9V336H169v-1.1c3.3-.4,3.6-.5,3.6-3.9V315c0-3.4-.4-3.5-3.6-3.9V310h10.2c2.9,0,4.9.4,6.4,1.4a6,6,0,0,1,2.7,5.3c0,3.4-2.2,5.6-5.2,6.9.7,1.2,2.4,3.9,3.6,5.7a31,31,0,0,0,3.2,4.1,5.24,5.24,0,0,0,2.9,1.8Zm-14.8-13c2.1,0,3.4-.3,4.4-1.2a5.6,5.6,0,0,0,2.2-4.9c0-4.3-2.8-5.8-5.9-5.8a3.89,3.89,0,0,0-2.1.4c-.4.3-.5.7-.5,1.7v9.8Z"/><path class="cls-2" d="M207.8,332.6c-2.6,3.2-5.4,3.9-6.6,3.9-4.9,0-7.8-4-7.8-8.6a10.58,10.58,0,0,1,2.6-7,8.19,8.19,0,0,1,6-2.9,6.21,6.21,0,0,1,6.1,6.2c0,.8-.2,1.2-.8,1.3-.8.2-5.9.5-10.7.7-.1,5.4,3.2,7.6,6,7.6a6.82,6.82,0,0,0,4.6-2Zm-6.9-13.1c-1.8,0-3.6,1.7-4.2,5,2.2,0,4.5,0,6.8-.1.7,0,1-.2,1-.8A3.66,3.66,0,0,0,200.9,319.5Z"/><path class="cls-2" d="M209.8,336v-1.1c2.6-.2,2.9-.4,2.9-3.1V312.6c0-2.4-.2-2.7-2.8-3v-1a24.38,24.38,0,0,0,5.9-1.4v24.6c0,2.6.2,2.8,2.8,3.1V336Z"/><path class="cls-2" d="M233.6,336.4a2.73,2.73,0,0,1-1.9-.8,4,4,0,0,1-1-1.8c-1.6,1.1-3.6,2.6-4.8,2.6a5,5,0,0,1-4.9-4.9c0-2,1.1-3.2,3.3-4a31.57,31.57,0,0,0,6.3-2.6v-.8c0-2.8-1.4-4.5-3.5-4.5a2.32,2.32,0,0,0-1.9.9,11.16,11.16,0,0,0-1.1,2.6,1.18,1.18,0,0,1-1.2.9,1.93,1.93,0,0,1-1.8-1.8c0-.6.5-1,1.3-1.6a18.43,18.43,0,0,1,5.8-2.8,6,6,0,0,1,3.4,1.1,5.53,5.53,0,0,1,2,4.6v7.7c0,1.8.7,2.4,1.4,2.4a3.26,3.26,0,0,0,1.4-.4l.4,1.1Zm-2.9-10.1c-.9.4-2.8,1.3-3.7,1.7-1.5.7-2.4,1.4-2.4,2.9a2.94,2.94,0,0,0,2.9,3.1,5.41,5.41,0,0,0,3.3-1.4C230.7,330.7,230.7,328.2,230.7,326.3Z"/><path class="cls-2" d="M247.2,336v-1.1c1.7-.2,2.1-.5,1.4-1.6l-3-4.7c-.9,1.4-1.8,2.8-2.6,4.2s-.7,1.7,1.4,2v1.1h-7.6v-1.1c2.5-.3,3-.6,4.5-2.6,1.1-1.6,2.2-3.1,3.4-4.9l-3.4-5.4c-1.2-1.9-1.7-2.2-3.9-2.5v-1.1h8v1.1c-1.7.2-1.8.6-1.1,1.7l2.4,3.6c.8-1.2,1.6-2.5,2.3-3.7s.4-1.4-1.3-1.6v-1.1H255v1.1c-2.2.2-3,.4-4.6,2.5-.6.8-1.5,2.1-2.8,4.1l3.8,5.9c1.5,2.2,2,2.6,4.4,2.9v1.1h-8.6Z"/><path class="cls-2" d="M293.1,320.1c-2.8.3-3.3,1-4.6,3-1,1.5-2.1,3.1-3.6,5.3a63.13,63.13,0,0,1,6.8,7.9l-.2.4a10.53,10.53,0,0,1-4.9-1.6c-.5-.6-2.4-2.4-3.7-3.8-2.9,3.9-5.6,5.2-8.4,5.2-5.2,0-8-3.8-8-7.2,0-3.7,2.2-5.2,6-7.6a7.53,7.53,0,0,1-3.1-5.7,6.41,6.41,0,0,1,6.6-6.3c3.3,0,6,2.3,6,5.5a4.77,4.77,0,0,1-1.7,3.6,34.18,34.18,0,0,1-3.4,2.2c1.3,1.1,4.6,3.8,7.2,6.4a32.75,32.75,0,0,0,2.5-4.6c.8-1.8.4-2.4-2.5-2.7v-1.2h9.2v1.2Zm-17.7,13.7c2.8,0,4.3-.9,6.4-3.6a96.24,96.24,0,0,0-8.3-7.6c-2.8,1.9-3.6,3.6-3.6,5.6A5.37,5.37,0,0,0,275.4,333.8Zm.1-22.7c-2,0-3.2,1.6-3.2,3.9,0,2,1,3.3,3.4,5.2,2.2-1.6,3.2-2.9,3.2-4.9C278.9,312.9,277.7,311.1,275.5,311.1Z"/><path class="cls-2" d="M318.7,321.9c3.8.6,7,2.5,7,6.4a7,7,0,0,1-3.9,6.2,12.83,12.83,0,0,1-6.9,1.6H305V335c3.4-.3,3.6-.7,3.6-3.8v-16c0-3.3-.4-3.6-3.6-3.9V310h10.5c3,0,4.9.5,6.2,1.4a5.27,5.27,0,0,1,2.4,4.5C324,319.6,320.9,321.3,318.7,321.9Zm-4.6-.5c4.4,0,6.2-1.8,6.2-5,0-2.8-1.7-5-5.6-5a3.87,3.87,0,0,0-2.2.4c-.3.2-.4.7-.4,2v7.6Zm-2.1,9.5c0,2.9.7,3.6,3.5,3.6,3.1,0,6.2-1.7,6.2-5.9s-2.9-5.8-7.8-5.8H312Z"/><path class="cls-2" d="M343.1,332.6c-2.6,3.2-5.4,3.9-6.6,3.9-4.9,0-7.8-4-7.8-8.6a10.58,10.58,0,0,1,2.6-7,8.19,8.19,0,0,1,6-2.9,6.21,6.21,0,0,1,6.1,6.2c0,.8-.2,1.2-.8,1.3-.8.2-5.9.5-10.7.7-.1,5.4,3.2,7.6,6,7.6a6.82,6.82,0,0,0,4.6-2Zm-6.9-13.1c-1.8,0-3.6,1.7-4.2,5,2.2,0,4.5,0,6.8-.1.7,0,1-.2,1-.8A3.66,3.66,0,0,0,336.2,319.5Z"/><path class="cls-2" d="M358.5,336.4a2.73,2.73,0,0,1-1.9-.8,4,4,0,0,1-1-1.8c-1.6,1.1-3.6,2.6-4.8,2.6a5,5,0,0,1-4.9-4.9c0-2,1.1-3.2,3.3-4a31.57,31.57,0,0,0,6.3-2.6v-.8c0-2.8-1.4-4.5-3.5-4.5a2.32,2.32,0,0,0-1.9.9,11.16,11.16,0,0,0-1.1,2.6,1.18,1.18,0,0,1-1.2.9,1.93,1.93,0,0,1-1.8-1.8c0-.6.5-1,1.3-1.6a18.43,18.43,0,0,1,5.8-2.8,6,6,0,0,1,3.4,1.1,5.53,5.53,0,0,1,2,4.6v7.7c0,1.8.7,2.4,1.4,2.4a3.26,3.26,0,0,0,1.4-.4l.4,1.1Zm-2.9-10.1c-.9.4-2.8,1.3-3.7,1.7-1.5.7-2.4,1.4-2.4,2.9a2.94,2.94,0,0,0,2.9,3.1,5.41,5.41,0,0,0,3.3-1.4C355.6,330.7,355.6,328.2,355.6,326.3Z"/><path class="cls-2" d="M383,335a48.38,48.38,0,0,0-6.1,1.4v-3.1c-2.2,1.8-3.9,3.1-6.1,3.1-2.7,0-5-1.6-5-6v-7.8c0-2.2-.3-2.4-1.3-2.6l-1.1-.2v-1c1.7-.1,4.4-.5,5.7-.7-.1,1.3-.1,3.2-.1,5.8v5.4c0,3.5,1.8,4.5,3.6,4.5a6,6,0,0,0,4.3-1.9v-9.3c0-2.2-.5-2.4-1.8-2.6l-1.3-.2v-1c2.6-.1,5.4-.6,6.3-.7v13.4c0,2,.3,2.3,1.8,2.4H383V335Z"/><path class="cls-2" d="M392.8,335.9a3.46,3.46,0,0,1-1.7.5q-3.9,0-3.9-4.8V320h-2.8l-.2-.5,1.1-1.2h1.8v-3.4c.8-.8,1.9-1.8,2.7-2.6l.6.1c-.1,1.7-.1,4-.1,5.9h4.6a1.23,1.23,0,0,1-.2,1.6h-4.3v10.2c0,3.2,1.3,3.8,2.3,3.8a6.42,6.42,0,0,0,2.4-.6l.4,1Z"/><path class="cls-2" d="M414.7,319.5c-2.1.3-2.5.6-3.5,2.9s-2.1,5-4.8,11.9c-2.6,6.4-3.3,8.9-4,11a1.15,1.15,0,0,1-1.2,1,2.25,2.25,0,0,1-2.4-1.9c0-.5.3-.9.9-1.4a9.16,9.16,0,0,0,2.7-3c.8-1.7,1.4-3.1,1.6-3.6a1.81,1.81,0,0,0-.1-1.6c-1.6-4.6-3.7-9.5-4.9-12.4-.9-2.2-1.2-2.7-3.4-3v-1.1h8.1v1.1c-1.8.3-2,.7-1.5,2.2l3.9,9.8c1.1-2.8,2.7-7.2,3.6-9.7.5-1.5.2-2-2.1-2.3v-1.1h7.3v1.2Z"/><path class="cls-3" d="M228.1,170.3s17-15.4,16.5-7.1S228.1,170.3,228.1,170.3Z"/><path class="cls-3" d="M508.4,192.5s24.9-24.2,24.6-11.6S508.4,192.5,508.4,192.5Z"/><path class="cls-3" d="M62.5,194.8s-33.9,7.2-27-3.2C42.6,181.1,62.5,194.8,62.5,194.8Z"/><path class="cls-4" d="M391.9,247s-28.6,11.7-27.8-3.1S391.9,247,391.9,247Z"/><path class="cls-4" d="M393.3,246.4s-15.6-26.7-1-28C407.1,217.1,393.3,246.4,393.3,246.4Z"/><path class="cls-4" d="M394.5,247s16.8-25.9,24.6-13.4S394.5,247,394.5,247Z"/><path class="cls-4" d="M394.4,247.8s8.3,29.8,19.4,20.1S394.4,247.8,394.4,247.8Z"/><path class="cls-4" d="M393.1,248s-22.9,20.8-9.3,26.4S393.1,248,393.1,248Z"/><circle class="cls-4" cx="393.6" cy="247.3" r="1.7"/><path class="cls-4" d="M173.9,112.1s13.3-27.9,22.6-16.5S173.9,112.1,173.9,112.1Z"/><path class="cls-4" d="M173.3,113.5s29.5,9.2,19.5,20S173.3,113.5,173.3,113.5Z"/><path class="cls-4" d="M172,113.9s5,30.5-9.2,26.5C148.6,136.2,172,113.9,172,113.9Z"/><path class="cls-4" d="M171.5,113.2s-26.2-16.4-27.9-1.8S171.5,113.2,171.5,113.2Z"/><path class="cls-4" d="M172.3,112.1s3-30.8-10.9-25.8S172.3,112.1,172.3,112.1Z"/><circle class="cls-4" cx="172.5" cy="113" r="1.7"/><path class="cls-5" d="M416.5,251.5c1.3-.9,43.4,4.7,32-4-11.2-8.6,28.3-6.2,35,4,3.7,5.6-35.7,5.7,2.3-18.4,26.3-16.7,31.2-91.5-46.4-108.4-108.5-23.6-156.6,40.9-187.2,23.6-28.4-16-28.4-34.1-15.4-45.3,9.9-8.6,30.1.4,30,10.5a16.84,16.84,0,0,1-8.3,14.3s-18.9-3.9-8.1-6.8"/><path class="cls-5" d="M151.7,127.7c-1.4.8-43.2-6.4-32.1,2.8,10.9,9-28.5,5.1-34.8-5.4-3.5-5.7,35.9-4.3-3,18.3C54.9,159,47,233.6,124,253.5c107.5,27.8,158-34.8,187.9-16.3,27.7,17.1,27,35.2,13.7,45.9-10.3,8.2-30.1-1.6-29.6-11.6a16.67,16.67,0,0,1,8.9-13.9s18.7,4.6,7.8,7.1"/></g></g></svg>