<svg xmlns="http://www.w3.org/2000/svg" viewBox="0 0 1174 3320"><defs><style>.cls-1,.cls-10,.cls-12,.cls-13,.cls-14,.cls-2{fill:none;stroke-miterlimit:10;}.cls-1{stroke:#666;stroke-width:0.99px;}.cls-10,.cls-12,.cls-13,.cls-14,.cls-2{stroke:#000;}.cls-2{stroke-width:0.59px;}.cls-3,.cls-6{font-size:28px;}.cls-3,.cls-4,.cls-5,.cls-8{font-family:KozGoPr6N-Bold, KozGoPr6N Bold-90ms-RKSJ-H;font-weight:700;}.cls-4{font-size:20px;}.cls-5{font-size:36px;}.cls-6,.cls-7,.cls-9{font-family:KozGoPr6N-Regular-90ms-RKSJ-H, Kozuka Gothic Pr6N;}.cls-7{font-size:19px;}.cls-8{font-size:30px;}.cls-9{font-size:18px;}.cls-11{font-size:24px;font-family:KozGoPr6N-Heavy, KozGoPr6N Heavy-90ms-RKSJ-H;font-weight:800;}.cls-12{stroke-width:0.65px;}.cls-13{stroke-width:1.12px;}.cls-14{stroke-width:1.83px;}.cls-15{opacity:0.12;}.cls-16{fill:aqua;}</style></defs><g id="レイヤー_2" data-name="レイヤー 2"><g id="レイヤー_3" data-name="レイヤー 3"><text/><rect class="cls-1" x="2.5" y="120.39" width="1170" height="650.61"/><line class="cls-1" x1="2.5" y1="120.39" x2="1172.5" y2="771"/><line class="cls-1" x1="2.5" y1="771" x2="1172.5" y2="120.39"/><rect class="cls-2" x="3" y="2772.5" width="1170" height="347.5"/><line class="cls-2" x1="3" y1="2772.5" x2="1173" y2="3120"/><line class="cls-2" x1="3" y1="3120" x2="1173" y2="2772.5"/><text class="cls-3" transform="translate(489.5 39.5)">Cafe Fiore ロゴ</text><text class="cls-4" transform="translate(533.5 3230.5)">Cafe Fiore ロゴ</text><text class="cls-3" transform="translate(475.5 600.5)">メインビジュアル</text><text class="cls-5" transform="translate(533.5 860.5)">Concept</text><text class="cls-6" transform="translate(252.5 105.5)">Home</text><text class="cls-6" transform="translate(645.5 105.5)">Menu</text><text class="cls-6" transform="translate(835.5 105.5)">Organic</text><text class="cls-6" transform="translate(451.5 105.5)">News</text><text class="cls-7" transform="translate(425.5 3258.5)">Company</text><text class="cls-7" transform="translate(560.5 3258.5)">Contact</text><text class="cls-7" transform="translate(672.5 3258.5)">Privacypolicy</text><text class="cls-5" transform="translate(554.5 1218.5)">Menu</text><text class="cls-5" transform="translate(543.5 1808.5)">News</text><text class="cls-8" transform="translate(533.5 2439.5)">Information</text><text class="cls-3" transform="translate(524.5 3077.5)">Google Map</text><text class="cls-9" transform="translate(296 946.84)">テキストテキストテキストテキストテキストテキストテキストテキストテ<tspan x="0" y="31.5">キストテキストテキストテキストテキストテキストテキストテキストテキ</tspan><tspan x="0" y="63">ストテキストテキストテキストテキストテキストテキストテキストテキス</tspan><tspan x="0" y="94.5">トテキストテキストテキストテキストテキストテキストテキストテキスト</tspan><tspan x="0" y="126">テキストテキストテキストテキストテキストテキストテキストテキストテ</tspan></text><text class="cls-9" transform="translate(382 2517.84)">テキストテキストテキストテキストテキストテキストテキ<tspan x="0" y="31.5">ストテキストテキストテキストテキストテキストテキスト</tspan><tspan x="0" y="63">テキストテキストテキストテキストテキストテキストテキ</tspan><tspan x="0" y="94.5">ストテキストテキストテキストテキストテキストテキスト</tspan><tspan x="0" y="126">テキストテキストテキストテキストテキストテキストテキ</tspan></text><text class="cls-9" transform="translate(504 1956.84)">テキストテキストテキストテキストテキストテキストテキ<tspan x="0" y="31.5">トキストテキストテキストテキストテキストテキストテキ</tspan></text><text class="cls-9" transform="translate(504 2159.84)">テキストテキストテキストテキストテキストテキストテキ<tspan x="0" y="31.5">トキストテキストテキストテキストテキストテキストテキ</tspan></text><text class="cls-7" transform="translate(423 3299.72)">Copyright ©︎Cafe Fiore Inc.All rights reserved.</text><rect class="cls-10" x="3.5" y="3180.5" width="1170" height="139"/><text class="cls-11" transform="translate(176.14 1595.33)">Food</text><text class="cls-11" transform="translate(549.14 1595.33)">Sweets</text><text class="cls-11" transform="translate(922.14 1595.33)">Drink</text><rect class="cls-12" x="238.5" y="1910.74" width="245" height="173.76"/><rect class="cls-12" x="237.5" y="2121.74" width="245" height="173.76"/><line class="cls-10" x1="650.5" y1="3240" x2="650.5" y2="3269.5"/><line class="cls-10" x1="533.5" y1="3240" x2="533.5" y2="3269.5"/><line class="cls-13" x1="2" y1="61.5" x2="1171" y2="61.5"/><circle class="cls-14" cx="207" cy="1416" r="135"/><circle class="cls-14" cx="589" cy="1418" r="135"/><circle class="cls-14" cx="949" cy="1418" r="135"/><rect class="cls-10" x="3.5" y="1.5" width="1169" height="3317"/></g><g id="レイヤー_1-2" data-name="レイヤー 1"><g class="cls-15"><rect class="cls-16" width="70" height="3319"/><rect class="cls-16" x="100" width="70" height="3319"/><rect class="cls-16" x="200" width="70" height="3319"/><rect class="cls-16" x="300" width="70" height="3319"/><rect class="cls-16" x="400" width="70" height="3319"/><rect class="cls-16" x="500" width="70" height="3319"/><rect class="cls-16" x="600" width="70" height="3319"/><rect class="cls-16" x="700" width="70" height="3319"/><rect class="cls-16" x="800" width="70" height="3319"/><rect class="cls-16" x="900" width="70" height="3319"/><rect class="cls-16" x="1000" width="70" height="3319"/><rect class="cls-16" x="1100" width="70" height="3319"/></g></g></g></svg>