<svg xmlns="http://www.w3.org/2000/svg" viewBox="0 0 1173 3416"><defs><style>.cls-1,.cls-7,.cls-8,.cls-9{fill:none;stroke-miterlimit:10;}.cls-1{stroke:#666;stroke-width:0.99px;}.cls-2{font-size:28px;}.cls-2,.cls-3,.cls-5{font-family:KozGoPr6N-Bold, KozGoPr6N Bold-90ms-RKSJ-H;font-weight:700;}.cls-3{font-size:36px;}.cls-4{letter-spacing:0.25em;}.cls-5{font-size:30px;}.cls-6{font-size:18px;}.cls-10,.cls-6{font-family:KozGoPr6N-Regular-90ms-RKSJ-H, Kozuka Gothic Pr6N;}.cls-7,.cls-8,.cls-9{stroke:#000;}.cls-7{stroke-width:0.65px;}.cls-8{stroke-width:1.83px;}.cls-10{font-size:37px;letter-spacing:0.02em;}.cls-11{opacity:0.12;}.cls-12{fill:aqua;}</style></defs><g id="レイヤー_2" data-name="レイヤー 2"><g id="レイヤー_3" data-name="レイヤー 3"><rect class="cls-1" x="2.5" y="2.43" width="1170" height="650.61"/><line class="cls-1" x1="2.5" y1="2.43" x2="1172.5" y2="653.03"/><line class="cls-1" x1="2.5" y1="653.03" x2="1172.5" y2="2.43"/><text class="cls-2" transform="translate(475.5 601.5)">メインビジュアル</text><text class="cls-3" transform="translate(406.5 747.5)">Web Polic<tspan class="cls-4" x="159.87" y="0">e</tspan><tspan x="188.28" y="0">ってなあに？</tspan></text><text class="cls-3" transform="translate(380.5 1524.5)">こんなお悩みありませんか？</text><text class="cls-5" transform="translate(368.5 1961.5)">Web Polic<tspan class="cls-4" x="133.23" y="0">e</tspan><tspan x="156.9" y="0">は犯罪をゆるさない</tspan></text><text class="cls-5" transform="translate(545.5 2317.5)">実績</text><text class="cls-5" transform="translate(415.5 2678.5)">お申込・ご相談はこちら</text><text class="cls-6" transform="translate(312 829.84)">テキストテキストテキストテキストテキストテキストテキストテキストテ<tspan x="0" y="31.5">キストテキストテキストテキストテキストテキストテキストテキストテキ</tspan><tspan x="0" y="63">ストテキストテキストテキストテキストテキストテキストテキストテキス</tspan></text><text class="cls-6" transform="translate(109 1338.84)">テキストテキストテキストテキストテキストテキストテ<tspan x="0" y="31.5">キストテキストテキストテキストテキストテキストテキ</tspan></text><text class="cls-6" transform="translate(638 1338.84)">テキストテキストテキストテキストテキストテキストテ<tspan x="0" y="31.5">キストテキストテキストテキストテキストテキストテキ</tspan></text><text class="cls-6" transform="translate(342 2044.84)">テキストテキストテキストテキストテキストテキストテキ<tspan x="0" y="31.5">ストテキストテキストテキストテキストテキストテキスト</tspan><tspan x="0" y="63">テキストテキストテキストテキストテキストテキストテキ</tspan><tspan x="0" y="94.5">ストテキストテキストテキストテキストテキストテキスト</tspan><tspan x="0" y="126">テキストテキストテキストテキストテキストテキストテキ</tspan></text><text class="cls-6" transform="translate(351 2397.84)">テキストテキストテキストテキストテキストテキストテキ<tspan x="0" y="31.5">ストテキストテキストテキストテキストテキストテキスト</tspan><tspan x="0" y="63">テキストテキストテキストテキストテキストテキストテキ</tspan><tspan x="0" y="94.5">ストテキストテキストテキストテキストテキストテキスト</tspan><tspan x="0" y="126">テキストテキストテキストテキストテキストテキストテキ</tspan></text><text class="cls-6" transform="translate(267 1611.84)">テキストテキストテキストテキストテキストテキストテキ<tspan x="0" y="31.5">トキストテキストテキストテキストテキストテキストテキ</tspan></text><text class="cls-6" transform="translate(267 1689.84)">テキストテキストテキストテキストテキストテキストテキ<tspan x="0" y="31.5">トキストテキストテキストテキストテキストテキストテキ</tspan></text><text class="cls-6" transform="translate(267 1766.84)">テキストテキストテキストテキストテキストテキストテキ<tspan x="0" y="31.5">トキストテキストテキストテキストテキストテキストテキ</tspan></text><rect class="cls-7" x="775.5" y="1587.94" width="168" height="208.56"/><rect class="cls-8" x="105" y="960" width="465" height="303"/><rect class="cls-8" x="638" y="960" width="465" height="303"/><line x1="638" y1="960" x2="1103" y2="1263"/><line x1="1103" y1="960" x2="638" y2="1263"/><line x1="570" y1="960" x2="105" y2="1263"/><line x1="105" y1="960" x2="570" y2="1263"/><rect class="cls-9" x="392" y="2740" width="395" height="440"/><rect class="cls-9" x="503.5" y="3213.5" width="196" height="70"/><text class="cls-10" transform="translate(560 3258)">送信</text><rect class="cls-9" x="2.5" y="0.5" width="1170" height="3415"/></g><g id="レイヤー_1-2" data-name="レイヤー 1"><g class="cls-11"><rect class="cls-12" y="1" width="70" height="3415"/><rect class="cls-12" x="100" y="1" width="70" height="3415"/><rect class="cls-12" x="200" y="1" width="70" height="3415"/><rect class="cls-12" x="300" y="1" width="70" height="3415"/><rect class="cls-12" x="400" y="1" width="70" height="3415"/><rect class="cls-12" x="500" y="1" width="70" height="3415"/><rect class="cls-12" x="600" y="1" width="70" height="3415"/><rect class="cls-12" x="700" y="1" width="70" height="3415"/><rect class="cls-12" x="800" y="1" width="70" height="3415"/><rect class="cls-12" x="900" y="1" width="70" height="3415"/><rect class="cls-12" x="1000" y="1" width="70" height="3415"/><rect class="cls-12" x="1100" y="1" width="70" height="3415"/></g></g></g></svg>