<svg xmlns="http://www.w3.org/2000/svg" viewBox="0 0 604.96 5072"><defs><style>.cls-1{opacity:0.26;}.cls-2{fill:aqua;}.cls-13,.cls-3,.cls-4,.cls-5,.cls-6{fill:none;stroke:#000;stroke-miterlimit:10;}.cls-3{stroke-width:1.15px;}.cls-4{stroke-width:1.15px;}.cls-5{stroke-width:1px;}.cls-7{font-size:46px;}.cls-14,.cls-7,.cls-8{font-family:KozGoPr6N-Bold, KozGoPr6N Bold-90ms-RKSJ-H;font-weight:700;}.cls-8{font-size:50px;}.cls-9{font-size:30px;}.cls-10,.cls-11,.cls-15,.cls-9{font-family:KozGoPr6N-Regular-90ms-RKSJ-H, Kozuka Gothic Pr6N;}.cls-10,.cls-12{font-size:24px;}.cls-11{font-size:23px;}.cls-12{font-family:KozGoPr6N-Heavy, KozGoPr6N Heavy-90ms-RKSJ-H;font-weight:800;}.cls-13{stroke-width:0.75px;}.cls-14{font-size:20px;}.cls-15{font-size:19px;}</style></defs><g id="レイヤー_2" data-name="レイヤー 2"><g id="レイヤー_1-2" data-name="レイヤー 1"><g class="cls-1"><rect class="cls-2" x="0.5" y="0.5" width="36.25" height="5070.5"/><rect class="cls-2" x="51.75" y="0.5" width="36.25" height="5070.5"/><rect class="cls-2" x="103" y="0.5" width="36.25" height="5070.5"/><rect class="cls-2" x="154.25" y="0.5" width="36.25" height="5070.5"/><rect class="cls-2" x="205.5" y="0.5" width="36.25" height="5070.5"/><rect class="cls-2" x="256.75" y="0.5" width="36.25" height="5070.5"/><rect class="cls-2" x="308" y="0.5" width="36.25" height="5070.5"/><rect class="cls-2" x="359.25" y="0.5" width="36.25" height="5070.5"/><rect class="cls-2" x="410.5" y="0.5" width="36.25" height="5070.5"/><rect class="cls-2" x="461.75" y="0.5" width="36.25" height="5070.5"/><rect class="cls-2" x="513" y="0.5" width="36.25" height="5070.5"/><rect class="cls-2" x="564.25" y="0.5" width="36.25" height="5070.5"/></g></g><g id="レイヤー_3" data-name="レイヤー 3"><rect class="cls-3" x="3.5" y="116" width="599" height="782.5"/><line class="cls-4" x1="1.5" y1="117.5" x2="604.5" y2="900"/><line class="cls-4" x1="1.5" y1="900" x2="604.5" y2="117.5"/><rect class="cls-5" x="2.5" y="4569.5" width="599" height="304.91"/><line class="cls-6" x1="0.5" y1="4570.09" x2="603.5" y2="4875"/><line class="cls-6" x1="0.5" y1="4875" x2="603.5" y2="4570.09"/><text class="cls-7" transform="translate(120.87 799.66)">メインビジュアル</text><text class="cls-8" transform="translate(159.87 4837.66)">Google Map</text><text class="cls-8" transform="translate(214 1004.66)">Concept</text><text class="cls-8" transform="translate(239 1518.66)">Menu</text><text class="cls-8" transform="translate(240.12 3273.66)">News</text><text class="cls-8" transform="translate(180.27 4196.66)">Information</text><text class="cls-9" transform="translate(24 1112.4)">テキストテキストテキストテキストテキス<tspan x="0" y="58">トテキストテキストテキストテキストテキ</tspan><tspan x="0" y="116">ストテキストテキストテキストテキストテ</tspan><tspan x="0" y="174">キストテキストテキストテキストテキスト</tspan><tspan x="0" y="232">テキストテキストテキストテキストテキス</tspan></text><text class="cls-10" transform="translate(55 4284.12)">テキストテキストテキストテキストテキストテ<tspan x="0" y="52">キストテキストテキストテキストテキストテキ</tspan><tspan x="0" y="104">ストテキストテキストテキストテキストテキス</tspan><tspan x="0" y="156">トテキストテキストテキストテキストテキスト</tspan></text><text class="cls-11" transform="translate(182 3556.24)">テキストテキストテキス<tspan x="0" y="45">トテキストテキストテキ</tspan><tspan x="0" y="90">ストテキストテキストテ</tspan></text><circle class="cls-6" cx="309" cy="1833" r="191.5"/><text class="cls-12" transform="translate(271.64 2082.48)">Food</text><circle class="cls-6" cx="309" cy="2332" r="191.5"/><text class="cls-12" transform="translate(257.62 2560.53)">Sweets</text><circle class="cls-6" cx="302" cy="2819" r="191.5"/><text class="cls-12" transform="translate(271.23 3047.14)">Drink</text><rect class="cls-13" x="155.5" y="3330.5" width="315" height="170"/><text class="cls-11" transform="translate(182 3936.24)">テキストテキストテキス<tspan x="0" y="45">トテキストテキストテキ</tspan><tspan x="0" y="90">ストテキストテキストテ</tspan></text><rect class="cls-13" x="155.5" y="3710.5" width="315" height="170"/><rect class="cls-6" x="2" y="4934" width="600" height="137"/><text class="cls-14" transform="translate(217.92 4974.6)">Cafe Fiore ロゴ</text><text class="cls-15" transform="translate(109.92 5002.6)">Company</text><text class="cls-15" transform="translate(244.92 5002.6)">Contact</text><text class="cls-15" transform="translate(356.92 5002.6)">Privacypolicy</text><text class="cls-15" transform="translate(107.42 5043.82)">Copyright ©︎Cafe Fiore Inc.All rights reserved.</text><line class="cls-6" x1="334.92" y1="4984.1" x2="334.92" y2="5013.6"/><line class="cls-6" x1="217.92" y1="4984.1" x2="217.92" y2="5013.6"/><rect class="cls-6" x="0.5" y="0.5" width="602" height="5071"/></g></g></svg>