<svg xmlns="http://www.w3.org/2000/svg" viewBox="0 0 217 61"><defs><style>.cls-1{fill:#f89369;}.cls-2{fill:#b7b7b7;}.cls-3{fill:#fcfafa;}.cls-4,.cls-5{fill:none;}.cls-4{stroke:#f9f9f9;stroke-miterlimit:10;}</style></defs><g id="レイヤー_2" data-name="レイヤー 2"><g id="レイヤー_1-2" data-name="レイヤー 1"><polygon class="cls-1" points="88.07 22.82 91.54 29.86 99.3 30.98 93.69 36.46 95.01 44.19 88.07 40.54 81.13 44.19 82.45 36.46 76.84 30.98 84.6 29.86 88.07 22.82"/><polygon class="cls-2" points="116.74 22.82 120.22 29.86 127.97 30.98 122.36 36.46 123.69 44.19 116.74 40.54 109.8 44.19 111.13 36.46 105.51 30.98 113.27 29.86 116.74 22.82"/><polygon class="cls-2" points="145.42 22.82 148.89 29.86 156.65 30.98 151.03 36.46 152.36 44.19 145.42 40.54 138.48 44.19 139.8 36.46 134.19 30.98 141.95 29.86 145.42 22.82"/><polygon class="cls-2" points="174.09 22.82 177.56 29.86 185.32 30.98 179.71 36.46 181.03 44.19 174.09 40.54 167.15 44.19 168.48 36.46 162.86 30.98 170.62 29.86 174.09 22.82"/><polygon class="cls-2" points="202.77 22.82 206.24 29.86 214 30.98 208.38 36.46 209.71 44.19 202.77 40.54 195.83 44.19 197.15 36.46 191.54 30.98 199.3 29.86 202.77 22.82"/><rect x="7.5" y="1.5" width="37.31" height="41.74" rx="7"/><rect class="cls-3" x="11.62" y="4.9" width="29.32" height="33.4" rx="5"/><path d="M20.93,5.73c-1.1,0-2-.6-2-1.34s.9-1.33,2-1.33H32.54c1.1,0,2,.6,2,1.33s-.9,1.34-2,1.34Z"/><rect x="30.09" y="21.26" width="21.98" height="37.74" rx="7"/><rect class="cls-4" x="30.09" y="21.26" width="21.98" height="37.74" rx="7"/><rect class="cls-3" x="32.51" y="24.34" width="17.27" height="30.2" rx="5"/><path d="M38.82,25.08c-1.1,0-2-.54-2-1.2s.9-1.21,2-1.21H44c1.1,0,2,.54,2,1.21s-.9,1.2-2,1.2Z"/><rect class="cls-5" width="217" height="61"/></g></g></svg>