<svg xmlns="http://www.w3.org/2000/svg" viewBox="0 0 217 61"><defs><style>.cls-1{fill:#c9bc12;}.cls-2{fill:#f9d503;}.cls-3{fill:#f9f9f9;}.cls-4{fill:#f89369;}.cls-5{fill:#b7b7b7;}.cls-6{fill:none;}</style></defs><g id="レイヤー_2" data-name="レイヤー 2"><g id="レイヤー_1-2" data-name="レイヤー 1"><polygon class="cls-1" points="51.23 51.03 33.01 58 14.79 51.03 10.51 3.88 54.98 3.88 51.23 51.03"/><polygon class="cls-2" points="33.01 6.02 33.01 53.27 33.48 53.45 49.45 47.34 52.73 6.02 33.01 6.02"/><polygon class="cls-3" points="29.46 11.65 23.54 11.65 23.54 38.06 16.94 36.46 16.94 42.84 29.23 46.48 29.46 11.65"/><polyline class="cls-3" points="48.35 11.88 35.15 11.88 35.15 30.54 41.98 30.54 41.98 37.83 35.15 39.65 35.15 45.57 46.99 42.38 48.35 24.63 41.07 24.17 41.07 18.71 48.81 18.71 48.81 11.88"/><polygon class="cls-4" points="90.07 22.82 93.54 29.86 101.3 30.98 95.69 36.46 97.01 44.19 90.07 40.54 83.13 44.19 84.45 36.46 78.84 30.98 86.6 29.86 90.07 22.82"/><polygon class="cls-5" points="118.74 22.82 122.22 29.86 129.97 30.98 124.36 36.46 125.69 44.19 118.74 40.54 111.8 44.19 113.13 36.46 107.51 30.98 115.27 29.86 118.74 22.82"/><polygon class="cls-5" points="147.42 22.82 150.89 29.86 158.65 30.98 153.03 36.46 154.36 44.19 147.42 40.54 140.48 44.19 141.8 36.46 136.19 30.98 143.95 29.86 147.42 22.82"/><polygon class="cls-5" points="176.09 22.82 179.56 29.86 187.32 30.98 181.71 36.46 183.03 44.19 176.09 40.54 169.15 44.19 170.48 36.46 164.86 30.98 172.62 29.86 176.09 22.82"/><polygon class="cls-5" points="204.77 22.82 208.24 29.86 216 30.98 210.38 36.46 211.71 44.19 204.77 40.54 197.83 44.19 199.15 36.46 193.54 30.98 201.3 29.86 204.77 22.82"/><rect class="cls-6" width="217" height="61"/></g></g></svg>