<svg xmlns="http://www.w3.org/2000/svg" viewBox="0 0 217 61"><defs><style>.cls-1{fill:#0673c4;}.cls-2{fill:#f9f8f7;opacity:0.21;}.cls-3{fill:#f9f9f9;}.cls-4{opacity:0.14;}.cls-5{fill:#020202;}.cls-6{fill:#f2420c;stroke:#fcfcfc;stroke-miterlimit:10;stroke-width:2px;}.cls-7{fill:#f89369;}.cls-8{fill:#b7b7b7;}.cls-9{fill:none;}</style></defs><g id="レイヤー_2" data-name="レイヤー 2"><g id="レイヤー_1-2" data-name="レイヤー 1"><polygon class="cls-1" points="58.42 42.77 45.91 47.56 33.4 42.77 30.45 10.39 61 10.39 58.42 42.77"/><polygon class="cls-2" points="46.46 12.04 46.46 44.49 46.78 44.61 57.5 40.42 59.71 12.04 46.46 12.04"/><polygon class="cls-3" points="36.53 16.06 36.53 19.77 46.11 19.77 36.68 23.95 37.61 27.66 50.6 27.66 50.6 32.61 46.27 34.15 42.25 33.23 41.63 30.13 37.92 30.13 38.54 36.01 46.58 38.17 54.93 36.01 55.85 23.95 46.27 23.95 55.85 20.24 56.78 15.91 36.53 16.06"/><g class="cls-4"><polygon class="cls-5" points="46.46 23.95 46.27 23.95 46.46 23.87 46.46 15.99 36.53 16.06 36.53 19.77 46.11 19.77 36.68 23.95 37.61 27.66 46.46 27.66 46.46 23.95"/><polygon class="cls-5" points="46.46 34.08 46.27 34.15 42.25 33.23 41.63 30.13 37.92 30.13 38.54 36.01 46.46 38.14 46.46 34.08"/></g><polygon class="cls-2" points="13.76 10.7 13.76 53.82 14.19 53.98 28.76 48.41 31.76 10.7 13.76 10.7"/><polygon class="cls-6" points="31.19 49.77 18.68 54.55 6.16 49.77 3.22 17.38 33.77 17.38 31.19 49.77"/><polygon class="cls-3" points="27.8 23.45 8.55 23.45 10.08 35.06 23.37 35.21 23.06 39.79 18.18 41.63 13.9 40.1 13.6 37.66 9.93 37.66 10.54 43.46 18.18 45.9 26.42 43.46 27.64 31.55 13.29 31.55 13.29 27.57 27.64 27.57 27.8 23.45"/><g class="cls-4"><polygon class="cls-5" points="18.68 35.16 18.68 31.55 13.29 31.55 13.29 27.57 18.68 27.57 18.68 23.45 8.55 23.45 10.08 35.06 18.68 35.16"/><polygon class="cls-5" points="18.68 41.44 18.18 41.63 13.9 40.1 13.6 37.66 9.93 37.66 10.54 43.46 18.18 45.9 18.68 45.75 18.68 41.44"/></g><polygon class="cls-7" points="90.07 24.68 93.54 31.71 101.3 32.84 95.69 38.31 97.01 46.04 90.07 42.39 83.13 46.04 84.45 38.31 78.84 32.84 86.6 31.71 90.07 24.68"/><polygon class="cls-7" points="118.74 24.68 122.22 31.71 129.97 32.84 124.36 38.31 125.69 46.04 118.74 42.39 111.8 46.04 113.13 38.31 107.51 32.84 115.27 31.71 118.74 24.68"/><polygon class="cls-8" points="147.42 24.68 150.89 31.71 158.65 32.84 153.03 38.31 154.36 46.04 147.42 42.39 140.48 46.04 141.8 38.31 136.19 32.84 143.95 31.71 147.42 24.68"/><polygon class="cls-8" points="176.09 24.68 179.56 31.71 187.32 32.84 181.71 38.31 183.03 46.04 176.09 42.39 169.15 46.04 170.48 38.31 164.86 32.84 172.62 31.71 176.09 24.68"/><polygon class="cls-8" points="204.77 24.68 208.24 31.71 216 32.84 210.38 38.31 211.71 46.04 204.77 42.39 197.83 46.04 199.15 38.31 193.54 32.84 201.3 31.71 204.77 24.68"/><rect class="cls-9" width="217" height="61"/></g></g></svg>