<svg xmlns="http://www.w3.org/2000/svg" viewBox="0 0 217 61"><defs><style>.cls-1{fill:#f77f08;}.cls-2{fill:#070707;}.cls-3{fill:#f89369;}.cls-4{fill:#b7b7b7;}.cls-5{fill:none;}</style></defs><g id="レイヤー_2" data-name="レイヤー 2"><g id="レイヤー_1-2" data-name="レイヤー 1"><rect class="cls-1" x="1" y="1" width="58.5" height="58.5"/><rect class="cls-2" x="4.79" y="4.79" width="50.93" height="50.93"/><path class="cls-1" d="M22.9,18.28h3.53l8.32,24.58H31.44L27.15,29.13c-.88-2.75-1.67-5.45-2.46-8.28h-.15c-.76,2.85-1.55,5.53-2.43,8.28L17.77,42.86H14.59ZM19,32.88H30.28v2.49H19Z"/><path class="cls-1" d="M37.37,18.92a2.13,2.13,0,0,1,4.26,0,2.13,2.13,0,0,1-4.26,0Zm.57,5.73H41V42.86H37.94Z"/><polygon class="cls-3" points="90.07 20.61 93.54 27.65 101.3 28.77 95.69 34.25 97.01 41.98 90.07 38.33 83.13 41.98 84.45 34.25 78.84 28.77 86.6 27.65 90.07 20.61"/><polygon class="cls-3" points="118.74 20.61 122.22 27.65 129.97 28.77 124.36 34.25 125.69 41.98 118.74 38.33 111.8 41.98 113.13 34.25 107.51 28.77 115.27 27.65 118.74 20.61"/><polygon class="cls-4" points="147.42 20.61 150.89 27.65 158.65 28.77 153.03 34.25 154.36 41.98 147.42 38.33 140.48 41.98 141.8 34.25 136.19 28.77 143.95 27.65 147.42 20.61"/><polygon class="cls-4" points="176.09 20.61 179.56 27.65 187.32 28.77 181.71 34.25 183.03 41.98 176.09 38.33 169.15 41.98 170.48 34.25 164.86 28.77 172.62 27.65 176.09 20.61"/><polygon class="cls-4" points="204.77 20.61 208.24 27.65 216 28.77 210.38 34.25 211.71 41.98 204.77 38.33 197.83 41.98 199.15 34.25 193.54 28.77 201.3 27.65 204.77 20.61"/><rect class="cls-5" width="217" height="61"/></g></g></svg>