<svg xmlns="http://www.w3.org/2000/svg" viewBox="0 0 217 61"><defs><style>.cls-1{fill:#0be4f4;}.cls-2{fill:#070707;}.cls-3{fill:#f89369;}.cls-4{fill:#b7b7b7;}.cls-5{fill:none;}</style></defs><g id="レイヤー_2" data-name="レイヤー 2"><g id="レイヤー_1-2" data-name="レイヤー 1"><rect class="cls-1" x="1" y="2.36" width="57.53" height="57.53"/><rect class="cls-2" x="4.31" y="6.08" width="50.49" height="50.49"/><path class="cls-1" d="M13.92,19.85H21c5.53,0,9.27,1.87,9.27,7.28,0,5.2-3.72,7.64-9.12,7.64H17.06v9.8H13.92Zm6.81,12.36c4.32,0,6.38-1.56,6.38-5.08s-2.19-4.72-6.53-4.72H17.06v9.8Z"/><path class="cls-1" d="M32.91,42.48l1.53-2a8.27,8.27,0,0,0,5.41,2.17c2.4,0,3.59-1.28,3.59-2.84,0-1.89-2.16-2.72-4.18-3.47-2.57-.94-5.46-2.2-5.46-5.29,0-2.93,2.35-5.2,6.31-5.2a9.27,9.27,0,0,1,5.69,2.06l-1.48,2a6.88,6.88,0,0,0-4.17-1.62c-2.31,0-3.37,1.22-3.37,2.62,0,1.74,2,2.4,4.06,3.18,2.64,1,5.58,2.07,5.58,5.55,0,3-2.36,5.44-6.68,5.44A11,11,0,0,1,32.91,42.48Z"/><polygon class="cls-3" points="90.07 23.57 93.54 30.61 101.3 31.73 95.69 37.21 97.01 44.94 90.07 41.29 83.13 44.94 84.45 37.21 78.84 31.73 86.6 30.61 90.07 23.57"/><polygon class="cls-3" points="118.74 23.57 122.22 30.61 129.97 31.73 124.36 37.21 125.69 44.94 118.74 41.29 111.8 44.94 113.13 37.21 107.51 31.73 115.27 30.61 118.74 23.57"/><polygon class="cls-4" points="147.42 23.57 150.89 30.61 158.65 31.73 153.03 37.21 154.36 44.94 147.42 41.29 140.48 44.94 141.8 37.21 136.19 31.73 143.95 30.61 147.42 23.57"/><polygon class="cls-4" points="176.09 23.57 179.56 30.61 187.32 31.73 181.71 37.21 183.03 44.94 176.09 41.29 169.15 44.94 170.48 37.21 164.86 31.73 172.62 30.61 176.09 23.57"/><polygon class="cls-4" points="204.77 23.57 208.24 30.61 216 31.73 210.38 37.21 211.71 44.94 204.77 41.29 197.83 44.94 199.15 37.21 193.54 31.73 201.3 30.61 204.77 23.57"/><rect class="cls-5" width="217" height="61"/></g></g></svg>