<svg xmlns="http://www.w3.org/2000/svg" viewBox="0 0 217 61"><defs><style>.cls-1{fill:#08f918;}.cls-2{fill:#070707;}.cls-3{fill:#f89369;}.cls-4{fill:#b7b7b7;}.cls-5{fill:none;}</style></defs><g id="レイヤー_2" data-name="レイヤー 2"><g id="レイヤー_1-2" data-name="レイヤー 1"><rect class="cls-1" x="2" y="1.71" width="58.5" height="58.5"/><rect class="cls-2" x="5.37" y="5.5" width="51.35" height="51.35"/><path class="cls-1" d="M13.69,21h5.18c6.38,0,9.79,3.7,9.79,10.28S25.25,41.7,19,41.7h-5.3Zm5,18.55c4.84,0,7.26-3,7.26-8.27s-2.42-8.12-7.26-8.12H16.33V39.53Z"/><path class="cls-1" d="M31,26.35h2.65L36,35.21c.33,1.46.62,2.84.91,4.28H37c.33-1.44.66-2.84,1-4.28l2.37-8.86H43l2.39,8.86c.38,1.46.71,2.84,1.07,4.28h.12c.33-1.44.62-2.82.95-4.28l2.24-8.86h2.47L48.08,41.7H44.91L42.7,33.45c-.37-1.45-.66-2.87-1-4.42h-.12c-.33,1.55-.64,3-1.06,4.46L38.33,41.7h-3Z"/><polygon class="cls-3" points="91.07 24.22 94.54 31.25 102.3 32.38 96.69 37.86 98.01 45.59 91.07 41.94 84.13 45.59 85.45 37.86 79.84 32.38 87.6 31.25 91.07 24.22"/><polygon class="cls-3" points="119.74 24.22 123.22 31.25 130.97 32.38 125.36 37.86 126.69 45.59 119.74 41.94 112.8 45.59 114.13 37.86 108.51 32.38 116.27 31.25 119.74 24.22"/><polygon class="cls-3" points="148.42 24.22 151.89 31.25 159.65 32.38 154.03 37.86 155.36 45.59 148.42 41.94 141.48 45.59 142.8 37.86 137.19 32.38 144.95 31.25 148.42 24.22"/><polygon class="cls-4" points="177.09 24.22 180.56 31.25 188.32 32.38 182.71 37.86 184.03 45.59 177.09 41.94 170.15 45.59 171.48 37.86 165.86 32.38 173.62 31.25 177.09 24.22"/><polygon class="cls-4" points="205.77 24.22 209.24 31.25 217 32.38 211.38 37.86 212.71 45.59 205.77 41.94 198.83 45.59 200.15 37.86 194.54 32.38 202.3 31.25 205.77 24.22"/><rect class="cls-5" width="217" height="61"/></g></g></svg>