<svg xmlns="http://www.w3.org/2000/svg" xmlns:xlink="http://www.w3.org/1999/xlink" viewBox="0 0 717.15 580.34"><defs><style>.cls-1,.cls-13,.cls-15,.cls-16,.cls-17{fill:none;}.cls-2,.cls-4{font-size:22px;letter-spacing:0.09em;}.cls-11,.cls-2,.cls-22,.cls-25,.cls-26,.cls-3,.cls-6{fill:#7ad5e8;}.cls-14,.cls-2,.cls-21,.cls-22,.cls-23,.cls-25,.cls-26,.cls-3,.cls-4,.cls-5,.cls-6,.cls-7{font-family:UDDigiKyokashoN-B, UD Digi Kyokasho N-B;}.cls-3,.cls-5{font-size:16px;letter-spacing:0.11em;}.cls-12,.cls-14,.cls-21,.cls-23,.cls-4,.cls-5,.cls-7{fill:#f9a887;}.cls-6,.cls-7{font-size:11px;letter-spacing:0.11em;}.cls-8{letter-spacing:-0.39em;}.cls-9{letter-spacing:0.36em;}.cls-10,.cls-18{fill:#fff;}.cls-13,.cls-15{stroke:#f9a887;}.cls-13,.cls-15,.cls-16,.cls-17,.cls-18,.cls-19{stroke-miterlimit:10;}.cls-14{font-size:4.99px;letter-spacing:0.11em;}.cls-15,.cls-18{stroke-width:0.75px;}.cls-16,.cls-17,.cls-18,.cls-19{stroke:#7ad5e8;}.cls-17{stroke-width:0.5px;}.cls-19{fill:#fcfcfc;stroke-width:3px;}.cls-20{clip-path:url(#clip-path);}.cls-21,.cls-25{font-size:16.4px;letter-spacing:0.09em;}.cls-22{font-size:21.55px;letter-spacing:0.11em;}.cls-23,.cls-26{font-size:18.13px;letter-spacing:0.11em;}.cls-24{clip-path:url(#clip-path-2);}</style><clipPath id="clip-path"><rect class="cls-1" x="80.92" y="291" width="277" height="313"/></clipPath><clipPath id="clip-path-2"><rect class="cls-1" x="357.92" y="294" width="277" height="313"/></clipPath></defs><g id="レイヤー_2" data-name="レイヤー 2"><g id="レイヤー_1-2" data-name="レイヤー 1"><text class="cls-2" transform="translate(501.38 31.4)">theoretical</text><text class="cls-3" transform="translate(546.69 57.4)">理論的</text><text class="cls-4" transform="translate(66.38 33.4)">instinctive</text><text class="cls-5" transform="translate(111.69 60.4)">感覚的</text><text class="cls-5" transform="translate(31.38 270.4)">適職診断</text><text class="cls-3" transform="translate(451.38 270.4)">大学</text><text class="cls-3" transform="translate(603.38 270.4)">勉強・職歴</text><text class="cls-6" transform="translate(421.38 289.4)">法学部法律学科卒</text><text class="cls-6" transform="translate(595.38 292.4)">宅建や簿記２級取得<tspan x="0" y="19.25">経理・総務などの経験</tspan></text><text class="cls-5" transform="translate(180.38 270.4)">図工が得意でした</text><text class="cls-7" transform="translate(205.35 289.4)">小・中学校では<tspan x="-33.78" y="19.25">美術作品展に選ばれました</tspan><tspan class="cls-8" x="112.34" y="19.25">。</tspan></text><text class="cls-7" transform="translate(0 298.4)">結果はイラストレーター<tspan x="12.96" y="19.25">We</tspan><tspan class="cls-9" x="26.32" y="19.25">b</tspan><tspan x="35.74" y="19.25">デザイナーなど</tspan></text><circle class="cls-10" cx="468.42" cy="182.5" r="59"/><path class="cls-11" d="M468.42,124.5a58,58,0,1,1-58,58,58.07,58.07,0,0,1,58-58m0-2a60,60,0,1,0,60,60,60,60,0,0,0-60-60Z"/><circle class="cls-10" cx="66.42" cy="182.5" r="59"/><path class="cls-12" d="M66.42,124.5a58,58,0,1,1-58,58,58.07,58.07,0,0,1,58-58m0-2a60,60,0,1,0,60,60,60,60,0,0,0-60-60Z"/><circle class="cls-10" cx="241.42" cy="182.5" r="59"/><path class="cls-12" d="M241.42,124.5a58,58,0,1,1-58,58,58.07,58.07,0,0,1,58-58m0-2a60,60,0,1,0,60,60,60,60,0,0,0-60-60Z"/><circle class="cls-10" cx="647.42" cy="182.5" r="59"/><path class="cls-11" d="M647.42,124.5a58,58,0,1,1-58,58,58.07,58.07,0,0,1,58-58m0-2a60,60,0,1,0,60,60,60,60,0,0,0-60-60Z"/><path class="cls-12" d="M218.73,171.71a22.57,22.57,0,0,0,.25,4.42c.15,1.48.4,3,.62,4.43.42,3,.87,5.92,1.31,8.88.87,5.9,1.71,11.8,2.48,17.71a2.08,2.08,0,1,0,4.11-.56q-1.35-9-2.76-18c-.47-2.94-1-5.89-1.47-8.83s-.86-6.1-2.09-8.76c-.61-1.31-2.34-.49-2.45.66Z"/><path class="cls-12" d="M215.36,162.79a1.76,1.76,0,0,0,.24.3l-.1-.17a6,6,0,0,1,.14.74,6.53,6.53,0,0,1,.11.69,4.56,4.56,0,0,1,0,.74,1.37,1.37,0,0,0,0,.45c.05.15,0-.13,0,0a.62.62,0,0,0,.07.42.47.47,0,0,0,.72.09.62.62,0,0,0,.18-.38c0-.11,0-.05,0,0a.5.5,0,0,0,.07-.27.45.45,0,0,1,0-.11c0-.06,0-.11,0-.17a6.82,6.82,0,0,0-.07-.9,4,4,0,0,0-.17-.78,7.28,7.28,0,0,0-.37-.8l0,.19a1.36,1.36,0,0,0-.06-.38.45.45,0,0,0-.6-.29.46.46,0,0,0-.21.63Z"/><path class="cls-12" d="M214.26,162.55a1.27,1.27,0,0,0,1.51,0c.59-.34,1-1,1.67-1.14a7.17,7.17,0,0,1,1.72.21,1.73,1.73,0,0,0,1.49-.45l-.93-.38a15.82,15.82,0,0,0,1.11,4.58.64.64,0,1,0,1.18-.5,17.82,17.82,0,0,1-1.22-4.23c-.11-.55-.9-.47-1,0s-.62.29-.93.29a8.25,8.25,0,0,0-1.4.06,2.42,2.42,0,0,0-1.29.74c-.37.35-1.05,1-1.58.52-.19-.16-.47.11-.28.28Z"/><path class="cls-12" d="M215,162.55c-1.83-1.77-.57-4.4.41-6.23a12,12,0,0,0,1.39-3.42,8.49,8.49,0,0,0-.14-3.72l-1.16.32a20.19,20.19,0,0,0,3.35,6.23,8,8,0,0,1,1.51,2.92,3.52,3.52,0,0,1-.66,2.91c-.39.59.44,1.07.91.7,1.84-1.45,1-4.45,0-6.09-.69-1.11-1.56-2.09-2.25-3.19a15.94,15.94,0,0,1-1.68-3.8.6.6,0,0,0-1.16.32,7.23,7.23,0,0,1-.15,4.22c-.47,1.34-1.3,2.52-1.85,3.82-.8,1.89-1,4.46.94,5.73.44.29.93-.37.56-.72Z"/><ellipse class="cls-13" cx="219.2" cy="169.03" rx="5.58" ry="3.27" transform="translate(-30.57 49.72) rotate(-12.1)"/><path class="cls-13" d="M214.08,157.47s.65-1.8,2.95-.57,2.94-.56,2.94-.56"/><text class="cls-14" transform="translate(215.21 170.96) rotate(-5.35)">Art</text><circle class="cls-10" cx="281.92" cy="39" r="37.5"/><path class="cls-12" d="M281.92,3a36,36,0,1,1-36,36,36,36,0,0,1,36-36m0-3a39,39,0,1,0,39,39,39,39,0,0,0-39-39Z"/><circle class="cls-10" cx="223.67" cy="54.75" r="10.25"/><path class="cls-12" d="M223.67,46a8.75,8.75,0,1,1-8.75,8.75A8.77,8.77,0,0,1,223.67,46m0-3a11.75,11.75,0,1,0,11.75,11.75A11.75,11.75,0,0,0,223.67,43Z"/><circle class="cls-10" cx="192.42" cy="52.5" r="8"/><path class="cls-12" d="M192.42,46a6.5,6.5,0,1,1-6.5,6.5,6.51,6.51,0,0,1,6.5-6.5m0-3a9.5,9.5,0,1,0,9.5,9.5,9.5,9.5,0,0,0-9.5-9.5Z"/><text class="cls-5" transform="translate(255.44 43.92)">本質的</text><rect class="cls-13" x="32.92" y="142" width="69" height="79.22"/><rect class="cls-13" x="41.86" y="150.09" width="25.97" height="18.74"/><rect class="cls-13" x="69.12" y="196.94" width="20" height="13.63"/><path class="cls-15" d="M73.38,150.69c.46,0,.46.51.93.51s.46-.51.92-.51.47.51.93.51.46-.51.93-.51.46.51.93.51.46-.51.92-.51.47.51.93.51.47-.51.93-.51.46.51.93.51.46-.51.92-.51.47.51.93.51.46-.51.93-.51.46.51.93.51.46-.51.93-.51.46.51.93.51.46-.51.93-.51.46.51.93.51.46-.51.92-.51.47.51.94.51.46-.51.93-.51.47.51.94.51.46-.51.93-.51"/><path class="cls-15" d="M42.29,174.55c.43,0,.43.5.86.5s.43-.5.87-.5.43.5.86.5.43-.5.87-.5.43.5.86.5.43-.5.86-.5.44.5.87.5.43-.5.86-.5.43.5.86.5.43-.5.86-.5.43.5.86.5.43-.5.86-.5.43.5.86.5.43-.5.86-.5.43.5.86.5.43-.5.87-.5.43.5.86.5.43-.5.86-.5.43.5.87.5.43-.5.86-.5.44.5.87.5.43-.5.87-.5.43.5.86.5.43-.5.87-.5.43.5.86.5.43-.5.86-.5.43.5.87.5.43-.5.86-.5.43.5.87.5.43-.5.86-.5.44.5.87.5.44-.5.87-.5.43.5.86.5.44-.5.87-.5.43.5.87.5.43-.5.86-.5.44.5.87.5.43-.5.87-.5.43.5.87.5.43-.5.86-.5.44.5.87.5.43-.5.87-.5.43.5.87.5.43-.5.86-.5.44.5.87.5.43-.5.87-.5.43.5.87.5.43-.5.86-.5.43.5.87.5.43-.5.87-.5.43.5.86.5.44-.5.87-.5.44.5.87.5.44-.5.87-.5.44.5.87.5.44-.5.87-.5.44.5.87.5.44-.5.88-.5.43.5.87.5.44-.5.88-.5"/><path class="cls-15" d="M42.29,178c.43,0,.43.5.86.5s.43-.5.87-.5.43.5.86.5.43-.5.87-.5.43.5.86.5.43-.5.86-.5.44.5.87.5.43-.5.86-.5.43.5.86.5.43-.5.86-.5.43.5.86.5.43-.5.86-.5.43.5.86.5.43-.5.86-.5.43.5.86.5.43-.5.87-.5.43.5.86.5.43-.5.86-.5.43.5.87.5.43-.5.86-.5.44.5.87.5.43-.5.87-.5.43.5.86.5.43-.5.87-.5.43.5.86.5.43-.5.86-.5.43.5.87.5.43-.5.86-.5.43.5.87.5.43-.5.86-.5.44.5.87.5.44-.5.87-.5.43.5.86.5.44-.5.87-.5.43.5.87.5.43-.5.86-.5.44.5.87.5.43-.5.87-.5.43.5.87.5.43-.5.86-.5.44.5.87.5.43-.5.87-.5.43.5.87.5.43-.5.86-.5.44.5.87.5.43-.5.87-.5.43.5.87.5.43-.5.86-.5.43.5.87.5.43-.5.87-.5.43.5.86.5.44-.5.87-.5.44.5.87.5.44-.5.87-.5.44.5.87.5.44-.5.87-.5.44.5.87.5.44-.5.88-.5.43.5.87.5.44-.5.88-.5"/><path class="cls-15" d="M42.29,181.36c.43,0,.43.5.86.5s.43-.5.87-.5.43.5.86.5.43-.5.87-.5.43.5.86.5.43-.5.86-.5.44.5.87.5.43-.5.86-.5.43.5.86.5.43-.5.86-.5.43.5.86.5.43-.5.86-.5.43.5.86.5.43-.5.86-.5.43.5.86.5.43-.5.87-.5.43.5.86.5.43-.5.86-.5.43.5.87.5.43-.5.86-.5.44.5.87.5.43-.5.87-.5.43.5.86.5.43-.5.87-.5.43.5.86.5.43-.5.86-.5.43.5.87.5.43-.5.86-.5.43.5.87.5.43-.5.86-.5.44.5.87.5.44-.5.87-.5.43.5.86.5.44-.5.87-.5.43.5.87.5.43-.5.86-.5.44.5.87.5.43-.5.87-.5.43.5.87.5.43-.5.86-.5.44.5.87.5.43-.5.87-.5.43.5.87.5.43-.5.86-.5.44.5.87.5.43-.5.87-.5.43.5.87.5.43-.5.86-.5.43.5.87.5.43-.5.87-.5.43.5.86.5.44-.5.87-.5.44.5.87.5.44-.5.87-.5.44.5.87.5.44-.5.87-.5.44.5.87.5.44-.5.88-.5.43.5.87.5.44-.5.88-.5"/><path class="cls-15" d="M42.29,184.77c.43,0,.43.5.86.5s.43-.5.87-.5.43.5.86.5.43-.5.87-.5.43.5.86.5.43-.5.86-.5.44.5.87.5.43-.5.86-.5.43.5.86.5.43-.5.86-.5.43.5.86.5.43-.5.86-.5.43.5.86.5.43-.5.86-.5.43.5.86.5.43-.5.87-.5.43.5.86.5.43-.5.86-.5.43.5.87.5.43-.5.86-.5.44.5.87.5.43-.5.87-.5.43.5.86.5.43-.5.87-.5.43.5.86.5.43-.5.86-.5.43.5.87.5.43-.5.86-.5.43.5.87.5.43-.5.86-.5.44.5.87.5.44-.5.87-.5.43.5.86.5.44-.5.87-.5.43.5.87.5.43-.5.86-.5.44.5.87.5.43-.5.87-.5.43.5.87.5.43-.5.86-.5.44.5.87.5.43-.5.87-.5.43.5.87.5.43-.5.86-.5.44.5.87.5.43-.5.87-.5.43.5.87.5.43-.5.86-.5.43.5.87.5.43-.5.87-.5.43.5.86.5.44-.5.87-.5.44.5.87.5.44-.5.87-.5.44.5.87.5.44-.5.87-.5.44.5.87.5.44-.5.88-.5.43.5.87.5.44-.5.88-.5"/><path class="cls-15" d="M42.29,188.18c.43,0,.43.5.86.5s.43-.5.87-.5.43.5.86.5.43-.5.87-.5.43.5.86.5.43-.5.86-.5.44.5.87.5.43-.5.86-.5.43.5.86.5.43-.5.86-.5.43.5.86.5.43-.5.86-.5.43.5.86.5.43-.5.86-.5.43.5.86.5.43-.5.87-.5.43.5.86.5.43-.5.86-.5.43.5.87.5.43-.5.86-.5.44.5.87.5.43-.5.87-.5.43.5.86.5.43-.5.87-.5.43.5.86.5.43-.5.86-.5.43.5.87.5.43-.5.86-.5.43.5.87.5.43-.5.86-.5.44.5.87.5.44-.5.87-.5.43.5.86.5.44-.5.87-.5.43.5.87.5.43-.5.86-.5.44.5.87.5.43-.5.87-.5.43.5.87.5.43-.5.86-.5.44.5.87.5.43-.5.87-.5.43.5.87.5.43-.5.86-.5.44.5.87.5.43-.5.87-.5.43.5.87.5.43-.5.86-.5.43.5.87.5.43-.5.87-.5.43.5.86.5.44-.5.87-.5.44.5.87.5.44-.5.87-.5.44.5.87.5.44-.5.87-.5.44.5.87.5.44-.5.88-.5.43.5.87.5.44-.5.88-.5"/><path class="cls-15" d="M42.29,191.58c.43,0,.43.5.86.5s.43-.5.87-.5.43.5.86.5.43-.5.87-.5.43.5.86.5.43-.5.86-.5.44.5.87.5.43-.5.86-.5.43.5.86.5.43-.5.86-.5.43.5.86.5.43-.5.86-.5.43.5.86.5.43-.5.86-.5.43.5.86.5.43-.5.87-.5.43.5.86.5.43-.5.86-.5.43.5.87.5.43-.5.86-.5.44.5.87.5.43-.5.87-.5.43.5.86.5.43-.5.87-.5.43.5.86.5.43-.5.86-.5.43.5.87.5.43-.5.86-.5.43.5.87.5.43-.5.86-.5.44.5.87.5.44-.5.87-.5.43.5.86.5.44-.5.87-.5.43.5.87.5.43-.5.86-.5.44.5.87.5.43-.5.87-.5.43.5.87.5.43-.5.86-.5.44.5.87.5.43-.5.87-.5.43.5.87.5.43-.5.86-.5.44.5.87.5.43-.5.87-.5.43.5.87.5.43-.5.86-.5.43.5.87.5.43-.5.87-.5.43.5.86.5.44-.5.87-.5.44.5.87.5.44-.5.87-.5.44.5.87.5.44-.5.87-.5.44.5.87.5.44-.5.88-.5.43.5.87.5.44-.5.88-.5"/><path class="cls-15" d="M73.38,155.8c.46,0,.46.51.93.51s.46-.51.92-.51.47.51.93.51.46-.51.93-.51.46.51.93.51.46-.51.92-.51.47.51.93.51.47-.51.93-.51.46.51.93.51.46-.51.92-.51.47.51.93.51.46-.51.93-.51.46.51.93.51.46-.51.93-.51.46.51.93.51.46-.51.93-.51.46.51.93.51.46-.51.92-.51.47.51.94.51.46-.51.93-.51.47.51.94.51.46-.51.93-.51"/><path class="cls-15" d="M73.38,160.92c.46,0,.46.5.93.5s.46-.5.92-.5.47.5.93.5.46-.5.93-.5.46.5.93.5.46-.5.92-.5.47.5.93.5.47-.5.93-.5.46.5.93.5.46-.5.92-.5.47.5.93.5.46-.5.93-.5.46.5.93.5.46-.5.93-.5.46.5.93.5.46-.5.93-.5.46.5.93.5.46-.5.92-.5.47.5.94.5.46-.5.93-.5.47.5.94.5.46-.5.93-.5"/><path class="cls-15" d="M73.38,166c.46,0,.46.5.93.5s.46-.5.92-.5.47.5.93.5.46-.5.93-.5.46.5.93.5.46-.5.92-.5.47.5.93.5.47-.5.93-.5.46.5.93.5.46-.5.92-.5.47.5.93.5.46-.5.93-.5.46.5.93.5.46-.5.93-.5.46.5.93.5.46-.5.93-.5.46.5.93.5.46-.5.92-.5.47.5.94.5.46-.5.93-.5.47.5.94.5.46-.5.93-.5"/><path class="cls-15" d="M43.14,196.69c.46,0,.46.51.92.51s.47-.51.93-.51.47.51.93.51.46-.51.93-.51.46.51.93.51.46-.51.92-.51.47.51.93.51.47-.51.93-.51.46.51.93.51.46-.51.92-.51.46.51.93.51.46-.51.93-.51.46.51.93.51.46-.51.92-.51.47.51.94.51.46-.51.93-.51.46.51.93.51.46-.51.92-.51.47.51.94.51.46-.51.93-.51.47.51.94.51.46-.51.93-.51"/><path class="cls-15" d="M43.14,201.8c.46,0,.46.51.92.51s.47-.51.93-.51.47.51.93.51.46-.51.93-.51.46.51.93.51.46-.51.92-.51.47.51.93.51.47-.51.93-.51.46.51.93.51.46-.51.92-.51.46.51.93.51.46-.51.93-.51.46.51.93.51.46-.51.92-.51.47.51.94.51.46-.51.93-.51.46.51.93.51.46-.51.92-.51.47.51.94.51.46-.51.93-.51.47.51.94.51.46-.51.93-.51"/><path class="cls-15" d="M43.14,206.92c.46,0,.46.5.92.5s.47-.5.93-.5.47.5.93.5.46-.5.93-.5.46.5.93.5.46-.5.92-.5.47.5.93.5.47-.5.93-.5.46.5.93.5.46-.5.92-.5.46.5.93.5.46-.5.93-.5.46.5.93.5.46-.5.92-.5.47.5.94.5.46-.5.93-.5.46.5.93.5.46-.5.92-.5.47.5.94.5.46-.5.93-.5.47.5.94.5.46-.5.93-.5"/><path class="cls-15" d="M43.14,212c.46,0,.46.5.92.5s.47-.5.93-.5.47.5.93.5.46-.5.93-.5.46.5.93.5.46-.5.92-.5.47.5.93.5.47-.5.93-.5.46.5.93.5.46-.5.92-.5.46.5.93.5.46-.5.93-.5.46.5.93.5.46-.5.92-.5.47.5.94.5.46-.5.93-.5.46.5.93.5.46-.5.92-.5.47.5.94.5.46-.5.93-.5.47.5.94.5.46-.5.93-.5"/><rect class="cls-16" x="458.04" y="203.97" width="24.51" height="19.22"/><rect class="cls-16" x="443.62" y="169.53" width="9.61" height="9.61" rx="1"/><rect class="cls-16" x="439.62" y="153.51" width="3.2" height="6.41"/><rect class="cls-16" x="442.82" y="153.51" width="3.2" height="6.41"/><rect class="cls-16" x="446.03" y="153.51" width="3.2" height="6.41"/><rect class="cls-16" x="449.23" y="153.51" width="3.2" height="6.41"/><rect class="cls-16" x="452.44" y="153.51" width="3.2" height="6.41"/><rect class="cls-16" x="455.64" y="153.51" width="3.2" height="6.41"/><rect class="cls-16" x="480.47" y="153.51" width="3.4" height="6.41"/><rect class="cls-16" x="483.88" y="153.51" width="3.4" height="6.41"/><rect class="cls-16" x="487.28" y="153.51" width="3.4" height="6.41"/><rect class="cls-16" x="490.68" y="153.51" width="3.4" height="6.41"/><rect class="cls-16" x="494.09" y="153.51" width="3.4" height="6.41"/><rect class="cls-16" x="458.04" y="169.53" width="9.61" height="9.61" rx="1"/><rect class="cls-16" x="472.46" y="169.53" width="9.61" height="9.61" rx="1"/><polygon class="cls-16" points="480.47 160.28 480.47 145.5 458.84 145.5 458.84 160.28 436.42 160.28 436.42 223.6 501.3 223.6 501.3 160.28 480.47 160.28"/><rect class="cls-16" x="486.88" y="169.53" width="9.61" height="9.61" rx="1"/><rect class="cls-16" x="487.68" y="187.15" width="9.61" height="9.61" rx="1"/><rect class="cls-16" x="443.62" y="187.15" width="9.61" height="9.61" rx="1"/><rect class="cls-16" x="458.04" y="187.15" width="9.61" height="9.61" rx="1"/><rect class="cls-16" x="473.26" y="187.15" width="9.61" height="9.61" rx="1"/><circle class="cls-16" cx="470.26" cy="155.31" r="4.21"/><circle class="cls-16" cx="470.2" cy="155.25" r="0.24"/><line class="cls-17" x1="470.2" y1="155.01" x2="470.2" y2="153.18"/><line class="cls-17" x1="470.44" y1="155.5" x2="472.15" y2="158.18"/><line class="cls-16" x1="470.2" y1="203.97" x2="470.44" y2="224"/><rect class="cls-11" x="455.64" y="200.77" width="29.64" height="3.2"/><path class="cls-13" d="M241.33,182.67c-1.89,1.84-4.61,2.12-6.06.63l-.09-.1c-6.74,8-8.42,17.7-3.55,22.71,5.38,5.52,16.69,3.22,25.27-5.14s11.18-19.61,5.81-25.13c-4.41-4.52-12.79-3.79-20.4,1.21C243.53,178.38,243.13,180.92,241.33,182.67Z"/><ellipse class="cls-12" cx="241.14" cy="201.67" rx="3.68" ry="3.31" transform="translate(-10.71 13.55) rotate(-3.15)"/><circle class="cls-12" cx="249.68" cy="196.41" r="2.21"/><circle class="cls-12" cx="255.97" cy="190.18" r="2.21"/><circle class="cls-12" cx="259.1" cy="183.7" r="1.88"/><path class="cls-10" d="M645.49,203.6c0-23.66-.11-28.71-.21-29.85,1.25-2,4.12-3.05,8.54-3.05,7.09,0,15.92,2.69,17.52,3.2l.2,29.59a25.9,25.9,0,0,0-10.84-2A65.41,65.41,0,0,0,645.49,203.6Z"/><path class="cls-11" d="M653.82,171.07c6.71,0,15,2.45,17.15,3.11l.19,28.73a27.22,27.22,0,0,0-10.46-1.77,64,64,0,0,0-14.84,2c0-21.86-.08-27.63-.21-29.26,1.21-1.85,4-2.79,8.17-2.79m0-.75c-4,0-7.44.83-8.9,3.31.19.24.19,30.46.19,30.46a64.31,64.31,0,0,1,15.59-2.2c4,0,8,.55,11.22,2.2l-.2-30.46s-10-3.31-17.9-3.31Z"/><path class="cls-10" d="M645.47,202.6c0-23.8-.1-28.76-.19-29.85,1.13-2,3.73-3,7.72-3,6.41,0,14.39,2.67,15.88,3.19l.18,29.57a21.82,21.82,0,0,0-9.81-1.94A54.34,54.34,0,0,0,645.47,202.6Z"/><path class="cls-11" d="M653,170.08c6,0,13.54,2.42,15.51,3.09l.17,28.71a22.79,22.79,0,0,0-9.43-1.73,53.46,53.46,0,0,0-13.4,1.95c0-22-.08-27.67-.2-29.24,1.08-1.84,3.55-2.78,7.35-2.78m0-.75c-3.6,0-6.75.83-8.08,3.31.18.24.18,30.46.18,30.46a53.39,53.39,0,0,1,14.15-2.2,20.89,20.89,0,0,1,10.19,2.2l-.18-30.46s-9-3.31-16.26-3.31Z"/><path class="cls-10" d="M644.34,203.6a65.41,65.41,0,0,0-15.21-2.08,25.9,25.9,0,0,0-10.84,2l.2-29.59c1.6-.51,10.43-3.2,17.52-3.2,4.42,0,7.29,1,8.54,3.05C644.45,174.89,644.34,179.94,644.34,203.6Z"/><path class="cls-11" d="M636,170.32v.75c4.22,0,7,.94,8.17,2.79-.13,1.63-.21,7.4-.21,29.26a64,64,0,0,0-14.84-2,27.22,27.22,0,0,0-10.46,1.77l.19-28.73c2.12-.66,10.43-3.11,17.15-3.11v-.75m0,0c-7.94,0-17.9,3.31-17.9,3.31l-.19,30.46c3.2-1.65,7.24-2.2,11.21-2.2a64.31,64.31,0,0,1,15.59,2.2s0-30.22.2-30.46c-1.47-2.48-4.94-3.31-8.91-3.31Z"/><path class="cls-10" d="M644.34,202.61a65.41,65.41,0,0,0-15.21-2.08,25.9,25.9,0,0,0-10.84,2l.2-29.59c1.6-.51,10.43-3.2,17.52-3.2,4.42,0,7.29,1,8.54,3C644.45,173.9,644.34,179,644.34,202.61Z"/><path class="cls-11" d="M636,169.33v.75c4.22,0,7,.94,8.17,2.79-.13,1.63-.21,7.4-.21,29.26a64,64,0,0,0-14.84-2,27.22,27.22,0,0,0-10.46,1.77l.19-28.73c2.12-.66,10.43-3.11,17.15-3.11v-.75m0,0c-7.94,0-17.9,3.31-17.9,3.31l-.19,30.46c3.2-1.65,7.24-2.2,11.21-2.2a64.31,64.31,0,0,1,15.59,2.2s0-30.22.2-30.46c-1.47-2.48-4.94-3.31-8.91-3.31Z"/><polygon class="cls-10" points="682.79 206.13 682.79 172.56 685.79 162.66 689.54 172.57 689.54 206.13 682.79 206.13"/><path class="cls-11" d="M685.83,163.83l3.34,8.81v33.11h-6V172.61l2.66-8.78m-.08-2.33-3.33,11v34h7.5v-34l-4.17-11Z"/><line class="cls-18" x1="686.42" y1="173" x2="686.42" y2="207"/><line class="cls-18" x1="684.42" y1="173" x2="684.42" y2="207"/><line class="cls-18" x1="688.42" y1="173" x2="688.42" y2="207"/><polygon class="cls-10" points="685.41 162.5 684.41 166.5 687.41 166.5 685.41 162.5"/><polygon class="cls-11" points="685.41 162.5 684.41 166.5 687.41 166.5 685.41 162.5 685.41 162.5"/><path class="cls-19" d="M478.7,50.67a39.06,39.06,0,1,0-4.2,10.14c6.47,8.09,20.37-4,23.69-7.11C493.74,57.31,484.41,53.57,478.7,50.67Z"/><path class="cls-19" d="M498.92,53l-.73.7A6.84,6.84,0,0,0,498.92,53Z"/><text class="cls-3" transform="translate(416.44 46.92)">環境的</text><g class="cls-20"><text class="cls-21" transform="translate(263.38 576.47)">the statue of liberty</text><circle class="cls-12" cx="392.71" cy="451.86" r="6.47"/><circle class="cls-12" cx="320.02" cy="452.01" r="6.47"/><path class="cls-12" d="M278.67,441.32c3.32.1,6.67.15,10-.06s6.47-.14,9.71-.33a85.3,85.3,0,0,0,19.33-3.87,125.88,125.88,0,0,0,18.36-7.13,74,74,0,0,0,14.12-8.54,41.09,41.09,0,0,0,11.89-14.7,2.36,2.36,0,0,0-.82-3.12,2.31,2.31,0,0,0-3.12.82c-4.35,9.95-13.14,16.7-22.58,21.55a118,118,0,0,1-17.07,7.12A175.69,175.69,0,0,1,300,437.69c-3.44.72-6.89,1.71-10.4,1.91s-7.25.36-10.89.28a.72.72,0,0,0,0,1.44Z"/><path class="cls-12" d="M441.18,442.8c-3.21.18-6.39.17-9.6.14a55.14,55.14,0,0,1-9.66-1.14c-6.16-1.12-12.33-2-18.39-3.65-11.14-3-22.46-7.26-31.74-14.24a37.34,37.34,0,0,1-11.33-13.5c-1.27-2.63-5.27-.32-3.94,2.3,5.16,10.12,14.65,16.68,24.72,21.33a123.71,123.71,0,0,0,18.23,6.71,98.8,98.8,0,0,0,19.34,3.73c3.65.27,7.3-.12,10.94,0a106.38,106.38,0,0,0,11.43-.27c.91-.06.92-1.49,0-1.43Z"/><path class="cls-12" d="M273.53,471.44c-4.33-7.68-4.74-16.69-2.12-25,2.76-8.76,8.22-16.22,14.78-22.55,13.38-12.9,31.26-20.38,49.49-23.16,21.66-3.3,43.93.54,64.56,7.28a174.12,174.12,0,0,1,28.15,11.54c8,4.26,15.67,9.65,21.1,17a34.64,34.64,0,0,1,7.08,21.55c-.12,7-2.45,14.18-7.63,19a19.06,19.06,0,0,1-4.2,3c-3.16,1.72-.33,6.58,2.83,4.84,15.45-8.49,17.61-29.6,10.75-44.33-4.09-8.77-11.55-15.75-19.48-21.05-8.6-5.74-18.24-9.78-27.9-13.36-22-8.16-45.78-13.3-69.35-11.11-19.66,1.83-39,9-54.12,21.95-7.34,6.29-13.83,14-17.7,22.93a43.09,43.09,0,0,0-3.56,13.83c-.34,4.45,0,9.21,2.23,13.16a19.92,19.92,0,0,0,4.05,5.29.66.66,0,0,0,1-.8Z"/><path class="cls-12" d="M465.52,451.77c.55-.81.89-1.7,1.36-2.55a14.23,14.23,0,0,0,1.38-2.69,16.18,16.18,0,0,0,.45-5.92,43.77,43.77,0,0,0-3.29-12.29,83.83,83.83,0,0,0-13.69-23c-12.29-14.62-30.63-22.65-48.57-28a148.5,148.5,0,0,0-57.76-5.66,129.82,129.82,0,0,0-50,15.87,122.86,122.86,0,0,0-10.64,6.73c-1.8,1.28-3.55,2.62-5.27,4a20.23,20.23,0,0,0-4.4,4.46,32.84,32.84,0,0,1-4.15,4.44c-1.46,1.52-2.72,3.31-4.08,4.93-2.64,3.15-5.37,6.32-7.76,9.66-1.2,1.68-2.36,3.39-3.49,5.11-.6.92.89,1.8,1.47.87a106.37,106.37,0,0,1,7.16-10.09,56,56,0,0,1,4.05-4.39c1.43-1.44,3-2.63,4.49-4s2.8-2.9,4.59-3.77a30.17,30.17,0,0,0,5.25-3.57c3.1-2.4,6.3-4.68,9.6-6.81a122.7,122.7,0,0,1,45.6-17.61,139.84,139.84,0,0,1,55.16,2,152.86,152.86,0,0,1,26.23,8.64c8.31,3.62,16.41,8,23.17,14.1A76.6,76.6,0,0,1,458,422.14a93.32,93.32,0,0,1,5.34,11.31c1.4,3.65,2.47,7.65,2,11.6-.1.85-.2,1.74-.38,2.59a4.85,4.85,0,0,1-1.66,2.39c-1.46,1.39,1.06,3.54,2.26,1.74Z"/><path class="cls-12" d="M292.13,487.64c-1.84,6.62-5.9,12.3-10,17.68s-8.29,10.76-10,17.35c-1.39,5.36-.77,11.67,2.51,16.25a13.71,13.71,0,0,0,15.13,5.28c3.27-1,6.5-3.22,7.91-6.41a5.84,5.84,0,0,0-.21-5.55,4.87,4.87,0,0,0-5.18-2.2c-2.83.55-1.64,4.9,1.2,4.34-.33.07-.16-.1,0,0a1,1,0,0,1,.29.38,1.58,1.58,0,0,1-.11,1.11,6.51,6.51,0,0,1-2.17,2.57,9.86,9.86,0,0,1-6.11,1.91c-4.33-.09-7.57-3.31-8.88-7.25-3.53-10.57,4.76-20,10.51-27.91,3.75-5.17,7.2-10.73,7.48-17.28a1.19,1.19,0,0,0-2.33-.31Z"/><path class="cls-12" d="M284.34,479.21c-.66,1.66-2.39,3.16-3.61,4.43a44.71,44.71,0,0,1-4.22,3.92,25.17,25.17,0,0,1-10.37,5.17c-2.05.44-4.14.54-6.19.94a34.67,34.67,0,0,0-14.25,6.79c-5.11,4.31-7.92,10.53-6.91,17.21.87,5.75,4.86,11.53,10.88,12.65,3.92.73,8.5-.45,10.66-4.06,1.81-3,1.45-8.4-2.21-10a2,2,0,0,0-2.5.49,1.94,1.94,0,0,0,.16,2.54c1.63,1.6,2.06,4,.23,5.71s-5,1.77-7.26.78c-4.32-1.86-6.38-7-6.32-11.44.07-5.55,3.83-10.17,8.31-13.08a31.59,31.59,0,0,1,8.35-3.77c3.46-1,7-1.64,10.47-2.72a19.6,19.6,0,0,0,5.12-2.23,29.86,29.86,0,0,0,4.24-3.45,50.6,50.6,0,0,0,3.75-4.13c1.13-1.39,2.19-3.25,3.68-4.26,2-1.37-1.06-3.92-2-1.54Z"/><path class="cls-12" d="M411.36,496c1.24,5.94,8.22,8.27,12.82,11a29.94,29.94,0,0,1,12.45,15c2.2,5.93,3.31,14.44-.88,19.8-3.37,4.29-9.92,5.45-14.81,3.35-2.89-1.24-6.2-4.32-5.71-7.79a4.15,4.15,0,0,1,2.18-2.93,4.49,4.49,0,0,1,3.56-.08c1.37.37,2.95-1.3,2-2.6-2.42-3.27-7.05-2.1-9.63.39-3,2.87-3,7.25-1.11,10.73,3.69,6.73,12.63,9,19.55,6.46a15.4,15.4,0,0,0,8.07-6.39c2.25-3.77,2.78-8.46,2.45-12.77a32.11,32.11,0,0,0-9.88-20.8,34.08,34.08,0,0,0-10.78-6.56c-3.63-1.48-7.84-3-9-7.2a.66.66,0,0,0-1.27.35Z"/><path class="cls-12" d="M421.49,481.68c2.62,7.29,11.67,5.95,17.69,7.38,7.11,1.69,13.5,6,18.46,11.29a36.75,36.75,0,0,1,9.75,19.57c.69,4.61.19,9.31-.31,13.91-.4,3.74-.77,9.28-5,10.77-2,.72-3.71-.58-5.06-2a14.62,14.62,0,0,1-3.79-6,4,4,0,0,1,1.15-4.43c1-.78,2.36-1.12,3.21-.27,1.93,1.93,4.72-.94,3-3-2.95-3.39-8.1-1.71-10.46,1.46-3.18,4.28-.62,9.82,2.26,13.46a14,14,0,0,0,5.74,4.7,7.88,7.88,0,0,0,6.92-.79c4.69-2.92,5.5-8.41,6-13.46.55-5.33.94-10.64,0-16A41.15,41.15,0,0,0,448.34,489a44,44,0,0,0-13.57-3.77c-3.28-.34-9.42-.25-10.36-4.34-.44-1.91-3.57-1-2.92.81Z"/><path class="cls-12" d="M147.06,419.16c1.08,4.06,2.56,8,3.92,12s2.8,8.1,4.25,12.13q4.25,11.88,8.52,23.76,8.56,23.88,16.91,47.84Q185.37,528.41,190,542a2.87,2.87,0,0,0,3.43,2,2.81,2.81,0,0,0,1.95-3.43q-8.37-24.09-16.94-48.11c-5.72-16-11.48-32-17.47-47.92-1.67-4.43-3.24-8.93-5.09-13.29s-3.46-9-5.58-13.4c-.89-1.82-3.71-.53-3.21,1.35Z"/><path class="cls-12" d="M126.07,390.1a2.19,2.19,0,0,0,1.57.95l-1-.6c.41.81.67,1.59,1,2.43s.66,1.68.92,2.56c.13.45.25.9.35,1.36,0,.19.07.37.11.56s.11.69.08.47a9.24,9.24,0,0,0,.21,1.58c.2.43.24.55.13.35s0-.08,0,.12a1.81,1.81,0,0,0,.57,1.27,1.54,1.54,0,0,0,2.4-.31,2,2,0,0,0,.26-1.39c-.05-.2-.05-.25,0-.13s0,.12.06-.37a7,7,0,0,0-.27-1.76,24.19,24.19,0,0,0-.79-2.8,17.53,17.53,0,0,0-1.25-2.88A22.84,22.84,0,0,0,128.5,389l.31,1.18a2.21,2.21,0,0,0-.44-1.84,1.46,1.46,0,1,0-2.3,1.78Z"/><path class="cls-12" d="M122.1,389.62c1.79,1,3.83.05,5.14-1.32,1.85-1.92,2.78-4.41,5.58-5.17,3.14-.86,8.15.46,9.7-3.31h-1a59.57,59.57,0,0,0,7.25,15.08c.46.7,1.59,0,1.12-.65a61.91,61.91,0,0,1-7.33-14.72.54.54,0,0,0-1,0c-.53,1.9-2.44,2.24-4.15,2.46a27.83,27.83,0,0,0-4.9.8,7.37,7.37,0,0,0-3.72,2.93c-1.4,1.88-3.63,5.14-6.41,3.56-.22-.12-.42.22-.2.34Z"/><path class="cls-12" d="M123.77,390.49c-5.48-2.94-6.73-10-5.79-15.66,1.24-7.43,4.94-14.21,4.66-21.9a28.75,28.75,0,0,0-2.93-11.54l-1,.61a56.89,56.89,0,0,0,7,10.61,99.58,99.58,0,0,0,9,8.92c3.08,2.87,6.14,6,7.76,10s1.72,8-.4,11.67c-.38.65.58,1.18,1,.58,2.25-3.21,2.23-7.47,1.1-11.09-1.24-4-3.84-7.28-6.77-10.18-3.2-3.17-6.71-6-9.7-9.37a56.72,56.72,0,0,1-8-11.7c-.36-.7-1.38-.08-1,.61a27.27,27.27,0,0,1,2.79,11.59,37.85,37.85,0,0,1-2.13,11.72c-1.93,6.24-4.08,12.8-1.77,19.26a11.38,11.38,0,0,0,5.74,6.72c.53.25,1-.51.47-.8Z"/><path class="cls-12" d="M174.14,507.32c-2.27-4.3-8.61-1.8-10.06,1.87-2.19,5.58,2.65,10.88,7.44,13a43,43,0,0,0,5.3,1.82,31.27,31.27,0,0,0,5.41,1.5c1.45.15,1.67-1.83.68-2.51a12.41,12.41,0,0,0-3.83-1.36c-1.3-.34-2.6-.67-3.89-1a16.61,16.61,0,0,1-6.52-3.28,7.53,7.53,0,0,1-2.94-5.67,4.47,4.47,0,0,1,2.7-3.81,4.08,4.08,0,0,1,4.67.31.66.66,0,0,0,1-.8Z"/><path class="cls-12" d="M192.47,512.5a.2.2,0,0,0,0-.4.2.2,0,0,0,0,.4Z"/><path class="cls-12" d="M194,514a19.33,19.33,0,0,1,5.34,3.47c1.35,1.36,2.71,2.79,3.11,4.73a5.49,5.49,0,0,1-1.09,4.35,4,4,0,0,1-1.46,1.25c.2-.1-.28.09-.34.11l-.25.06h-.08a2.69,2.69,0,0,1-1-.09,1.68,1.68,0,0,0-1.95,1,1.62,1.62,0,0,0,.68,2c3.85,1.75,7.39-1.67,8.32-5.13a7.55,7.55,0,0,0-.55-5.54,11.08,11.08,0,0,0-3.95-4.23c-1-.59-2-1-3-1.59s-2-1-3.07-1.54c-.76-.36-1.43.76-.67,1.14Z"/><path class="cls-12" d="M211.2,530.59c1.21.28,2.41.6,3.61.91s2.45.45,3.64.79c.53.15.68-.69.1-.77-1.22-.16-2.41-.51-3.62-.72s-2.42-.36-3.62-.59c-.25-.05-.36.33-.11.38Z"/><path class="cls-12" d="M210.38,532.73l1-.07a.2.2,0,0,0,.19-.2.19.19,0,0,0-.19-.19l-1,.08a.19.19,0,0,0,0,.38Z"/><path class="cls-12" d="M210.76,532.43c-.12-.44-.23-.89-.34-1.33,0-.21,0-.39-.06-.6s-.11-.45-.16-.67v.2a1.28,1.28,0,0,0,0-.7l-.19-.67c-.12-.44-.22-.89-.32-1.34-.16-.7-1.32-.38-1.08.3.16.43.31.87.44,1.31l.17.56c0,.13.07.26.12.38s.13.17.19.27a4.79,4.79,0,0,1,.17.5c.07.21.21.37.28.59.15.43.29.87.43,1.31a.2.2,0,0,0,.38-.11Z"/><path class="cls-12" d="M202,533.06c2.78,6.39,4.89,13,7.41,19.47,1.23,3.16,2.49,6.31,3.59,9.52.55,1.6,1.1,3.2,1.68,4.79s.92,3.73,2.74,4.2a1.68,1.68,0,0,0,1.83-.75c1-1.53-.21-3.49-.82-5s-1.33-3.14-2-4.7c-1.42-3.16-2.72-6.38-4.12-9.55-2.79-6.35-6.18-12.4-9.14-18.66-.37-.78-1.48-.1-1.14.66Z"/><path class="cls-11" d="M518.79,502.05c1.46.71,2.23,1.92,3.27,3.09a27.8,27.8,0,0,1,2.74,3.37,32.08,32.08,0,0,1,3.62,8.47c2.33,8,3.44,16.58,4.26,24.89q.38,3.76.6,7.55c.16,2.59-.08,5.46.64,8,.63,2.19,4.1,2.38,4.63,0s.14-5,0-7.48-.37-4.72-.62-7.07c-.52-4.84-1.21-9.67-2.07-14.46-1.33-7.44-2.65-15.65-7.14-21.95a15.64,15.64,0,0,0-4-4.12c-1.55-1-3.55-1.18-5.32-1.55-.73-.15-1.3.92-.54,1.29Z"/><path class="cls-11" d="M516.67,500c-5.35,3-9.19,8.85-11.54,14.38-1.13,2.66-1.82,5.46-2.84,8.16a15.69,15.69,0,0,1-1.63,3.25c-.76,1.12-1.87,1.88-2.56,3s.15,2.82,1.51,2.64c2.92-.39,4.68-3.18,5.8-5.69s1.85-5.43,2.77-8.14a32.93,32.93,0,0,1,4.17-8.16,80.1,80.1,0,0,1,6.14-7.13,1.51,1.51,0,0,0-1.82-2.35Z"/><path class="cls-13" d="M341.58,470.57s15.06,25.28,27.22,1.05"/><path class="cls-13" d="M360.5,458.11s-3.35-5.61-6.05-.23"/><path class="cls-11" d="M523.18,502.05c1.13-1.7,1.72-3.87,2.57-5.73a49.3,49.3,0,0,1,2.91-5.4,47.71,47.71,0,0,1,7.8-9.55c.68-.63,1.37-1.24,2.1-1.82a9.45,9.45,0,0,1,2.62-1.77c.14,0,.33,0,.2-.09s.24.44.27.52a6.54,6.54,0,0,1,.33,2.1,29.49,29.49,0,0,1-9.64,23c-2.31,2.11,1.13,5.54,3.43,3.43a33.81,33.81,0,0,0,10.8-26.83c-.16-2.21-.73-4.66-2.67-6a4.32,4.32,0,0,0-3.44-.66,8.62,8.62,0,0,0-3.44,2.25,56.23,56.23,0,0,0-9.86,10.64,46.9,46.9,0,0,0-4.16,7.2c-1.13,2.4-2.54,5.26-2.53,8a1.47,1.47,0,0,0,2.71.74Z"/><path class="cls-12" d="M298.37,469.57c.37,9.31,6.39,17.3,14,22.2,8.8,5.64,19.48,7.35,29.62,8.91,10.87,1.68,21.68,2.44,32.55.4a76.51,76.51,0,0,0,27.69-11.17c8.41-5.52,18.9-14.51,16.26-25.85-.56-2.38-4.23-1.37-3.68,1,2.06,8.81-6.72,16.19-13.11,20.6a73.09,73.09,0,0,1-25.28,11.12c-9.78,2.25-19.68,2.11-29.58.77-9.57-1.29-19.76-2.62-28.54-6.87-8.23-4-15.77-11.5-16.15-21.13-.1-2.44-3.9-2.45-3.81,0Z"/><path class="cls-12" d="M351.11,395.14l0-11.95a1.6,1.6,0,0,1,.2-.95,1.65,1.65,0,0,1,1.38-.46h7.47a2.38,2.38,0,0,1,1.16.2c.67.38.79,1.27.83,2l.57,9.9a2.42,2.42,0,0,1-.55,2.08,2.46,2.46,0,0,1-1.84.26,61.89,61.89,0,0,0-8.5-.41"/><path class="cls-12" d="M371.67,396.09l2.24-11.74a1.56,1.56,0,0,1,.38-.89,1.63,1.63,0,0,1,1.44-.19l7.34,1.41a2.33,2.33,0,0,1,1.1.41,2.38,2.38,0,0,1,.43,2.16l-1.32,9.83a1.81,1.81,0,0,1-2.78,1.85,62.08,62.08,0,0,0-8.28-2"/><path class="cls-12" d="M341.64,395.76l-2.79-11.62a1.59,1.59,0,0,0-.42-.87,1.63,1.63,0,0,0-1.45-.12l-7.26,1.75a2.2,2.2,0,0,0-1.08.47,2.34,2.34,0,0,0-.33,2.17l1.78,9.76c.13.73.34,1.57,1,1.89A2.46,2.46,0,0,0,333,399a60.74,60.74,0,0,1,8.17-2.4"/><path class="cls-12" d="M390.85,400l2.91-11.59a1.59,1.59,0,0,1,.42-.87,1.63,1.63,0,0,1,1.45-.1l7.25,1.82a2.27,2.27,0,0,1,1.07.48,2.32,2.32,0,0,1,.31,2.17l-1.88,9.75a2.44,2.44,0,0,1-1,1.88,2.47,2.47,0,0,1-1.85-.2,62.28,62.28,0,0,0-8.15-2.48"/><path class="cls-12" d="M320.63,401.14l-4.49-11.07a1.58,1.58,0,0,0-.54-.81,1.63,1.63,0,0,0-1.45.11l-6.93,2.81a2.32,2.32,0,0,0-1,.62,2.37,2.37,0,0,0,0,2.2l3.22,9.38c.24.71.57,1.51,1.29,1.72a2.44,2.44,0,0,0,1.8-.45,61.42,61.42,0,0,1,7.72-3.59"/><path class="cls-12" d="M407.54,405.37l4.63-11a1.61,1.61,0,0,1,.55-.8,1.67,1.67,0,0,1,1.45.12l6.89,2.9a2.4,2.4,0,0,1,1,.63,2.38,2.38,0,0,1,0,2.2l-3.33,9.35c-.25.7-.59,1.49-1.31,1.7a2.47,2.47,0,0,1-1.8-.48,62.07,62.07,0,0,0-7.67-3.68"/><path class="cls-12" d="M302.07,407.57l-5.39-8.74a1.23,1.23,0,0,0-.59-.6,1.73,1.73,0,0,0-1.34.37l-6.13,3.78a2.66,2.66,0,0,0-.86.73A2,2,0,0,0,288,405l4,7.53c.31.57.7,1.2,1.39,1.25a2.61,2.61,0,0,0,1.63-.75,66.8,66.8,0,0,1,6.78-4.61"/><path class="cls-12" d="M424.61,413.48,430,402.8a1.21,1.21,0,0,1,2-.54l6.68,3.36a1.77,1.77,0,0,1,.77,2.89l-4,9.1c-.3.68-.69,1.45-1.42,1.61a2.47,2.47,0,0,1-1.76-.6,62.16,62.16,0,0,0-7.41-4.2"/><path class="cls-12" d="M288,417.26l-7.38-7.69a1.47,1.47,0,0,0-.7-.49,1.31,1.31,0,0,0-1.13.52L274.26,414a1.87,1.87,0,0,0-.59.81c-.17.64.31,1.28.75,1.8l5.78,6.7c.44.5,1,1,1.62,1a2,2,0,0,0,1.29-.91,49.12,49.12,0,0,1,4.94-5.26"/><path class="cls-12" d="M441.8,423.28l5.54-7.1a1.27,1.27,0,0,1,.56-.47,1.23,1.23,0,0,1,1,.37l4.44,3.47a1.73,1.73,0,0,1,.6.66c.22.53-.13,1.12-.46,1.59l-4.26,6.14c-.32.46-.73,1-1.29,1a1.81,1.81,0,0,1-1.21-.7,46.07,46.07,0,0,0-4.86-4.19"/><path class="cls-12" d="M255.23,426.74c-2,4.65.58,10.09,2.41,14.42A66.57,66.57,0,0,0,265,454.35a2,2,0,0,0,2.61.68,1.91,1.91,0,0,0,.68-2.6,65.61,65.61,0,0,1-6.64-11.52,61.26,61.26,0,0,1-2.36-6.17c-.58-1.81-1.57-4.2-.77-6.08a2,2,0,0,0-.69-2.6,1.91,1.91,0,0,0-2.6.68Z"/><path class="cls-12" d="M392.35,469.16a3.48,3.48,0,0,0,.22,1.11,5.74,5.74,0,0,0,.53,1.05L393,471a2,2,0,0,0,.17.4,2.42,2.42,0,0,0,.25.31l.21.23a3.81,3.81,0,0,0,.43.37,4,4,0,0,0,.68.49l.28.13a1.31,1.31,0,0,0,.93.12,1.23,1.23,0,0,0,.58-.34L396,473l.16-.06a.89.89,0,0,0,.58-.52.91.91,0,0,0,0-.79l0,0,.1.23a.49.49,0,0,1,0-.11l0,.28a1.24,1.24,0,0,0-.63-1.14l-.24-.16c-.16-.11-.33-.22-.48-.34l.24.19c-.34-.27-.62-.62-1-.86l.24.19a4.28,4.28,0,0,1-.49-.55l.17.22c-.18-.23-.34-.47-.52-.7l.16.21-.25-.36a.91.91,0,0,0-1-.41.9.9,0,0,0-.66.86Z"/><path class="cls-12" d="M400.61,468.24l.09,0-.26-.47,0,.09a1.08,1.08,0,0,0,.28,1.08,3.78,3.78,0,0,1,.59.61l-.19-.25c.1.13.18.28.27.42s.18.28.26.43a1.34,1.34,0,0,0,.78.6,1.32,1.32,0,0,0,1-.13,1.3,1.3,0,0,0,.6-.78l.05-.35a1.26,1.26,0,0,0-.18-.66,3,3,0,0,0-.79-1,4,4,0,0,0-.63-.45,7.17,7.17,0,0,0-.69-.3l-.29,0a.88.88,0,0,0-.43.1,1.06,1.06,0,0,0-.53.45l0,.09.43-.17-.09,0a.4.4,0,0,0-.46.26.38.38,0,0,0,.26.46Z"/><path class="cls-12" d="M310.54,476.55c0-.07,0,.05,0,0s0,.09,0,0,0,.07,0,0,0,0,0,0l0,0c0-.06,0,0,0,0l0,0c.05,0,0,0,0,0s.07-.06.1-.06-.06,0,0,0h0l.06,0c.07,0-.05,0,0,0h0l.07,0-.23-.56a1,1,0,0,0-.25.46,1.09,1.09,0,0,0,0,.62l0,.12.06.24a3.89,3.89,0,0,0,.12.49,2.52,2.52,0,0,0,.53,1,2.27,2.27,0,0,0,.94.56,1.34,1.34,0,0,0,1.65-.93,1.37,1.37,0,0,0-.14-1l-.21-.27a1.21,1.21,0,0,0-.59-.34l-.05,0,.32.14a.78.78,0,0,1-.18-.11l.27.21a2.2,2.2,0,0,1-.33-.35l.21.27c-.2-.26-.32-.56-.5-.83a1.16,1.16,0,0,0-1.6-.42l-.14.1.3,0c-.66-.22-1.53.47-1.13,1.16a.37.37,0,0,0,.5.13.38.38,0,0,0,.13-.5Z"/><path class="cls-12" d="M318.75,473.59l1.3,2.8"/><path class="cls-12" d="M318,473.84v.2l.13-.49a1.2,1.2,0,0,0-.11.87c0,.09,0,.18.05.27l0-.3a7.07,7.07,0,0,0,.29,1.35c.09.26.23.51.34.77l.12.27a3.1,3.1,0,0,0,.35.46l.26.2a1,1,0,0,0,.47.15,1.3,1.3,0,0,0,.82-.15,1.64,1.64,0,0,0,.45-.46,1.34,1.34,0,0,0,.13-1,3.3,3.3,0,0,0-.35-.9,3.84,3.84,0,0,0-.33-.6l-.38-.54c-.11-.16-.23-.28-.35-.43a1.09,1.09,0,0,0-.62-.43l.43.25-.16-.13a.88.88,0,0,0-1-.18.86.86,0,0,0-.54.8Z"/><path class="cls-12" d="M335.11,375.56A351.67,351.67,0,0,0,355.79,320q2.26-8.13,4.13-16.37h-2.07l17.7,54.33,5,15.42c.43,1.3,2.5.74,2.07-.57l-17.7-54.33-5-15.42a1.08,1.08,0,0,0-2.07,0,350.37,350.37,0,0,1-17.78,56.05q-3.22,7.79-6.82,15.41c-.58,1.24,1.27,2.33,1.86,1.08Z"/><path class="cls-12" d="M408.06,378.2A57.19,57.19,0,0,1,415.37,366c2.83-3.38,5.89-6.51,8.31-10.21,4.74-7.25,7.75-15.48,12.74-22.57l-2-.54q2.88,30.88,5.33,61.82c.1,1.37,2.25,1.38,2.14,0q-2.44-30.93-5.32-61.82a1.08,1.08,0,0,0-2-.54c-5,7.09-8,15.32-12.74,22.56-2.49,3.81-5.71,7-8.56,10.49a60.44,60.44,0,0,0-7.06,11.93c-.6,1.24,1.25,2.33,1.85,1.09Z"/><path class="cls-12" d="M457.64,413.84a99.34,99.34,0,0,1,6.27-9.85q3.52-5.07,7-10.16L485,373.52l-2-.83-16.87,60.42a1.08,1.08,0,0,0,2.07.58l16.87-60.43a1.08,1.08,0,0,0-2-.82L469.1,392.75q-3.53,5.08-7,10.16a98.28,98.28,0,0,0-6.28,9.85c-.64,1.22,1.21,2.3,1.86,1.08Z"/><path class="cls-12" d="M316.82,378.78c-12.81-11.24-28-19.17-41.4-29.64a104.76,104.76,0,0,1-10.73-9.57,1.08,1.08,0,0,0-1.83.75c-.43,4.59.73,9.08,2.34,13.34,1.69,4.46,3.69,8.82,5.56,13.21l11.68,27.34c.55,1.26,2.4.17,1.86-1.09L273,366.69c-1.87-4.37-3.85-8.72-5.56-13.16-1.64-4.24-2.86-8.63-2.43-13.21l-1.83.76C275,353.31,290,361.56,303.8,371.31a142.54,142.54,0,0,1,11.5,9c1,.91,2.56-.6,1.52-1.51Z"/><path class="cls-12" d="M266.82,409.24c-11.55-8.9-23.1-17.81-34.55-26.84a1.08,1.08,0,0,0-1.52,1.52c10.22,12.43,12.63,29.21,21.91,42.24.8,1.11,2.66,0,1.85-1.09-9.39-13.18-11.88-30.06-22.24-42.67l-1.52,1.52c11.6,9.14,23.29,18.16,35,27.17,1.09.85,2.16-1,1.08-1.85Z"/><path class="cls-11" d="M555.07,540.87c14.84-5.26,30.56-6.62,46.09-8.39,4.43-.5,8.86-1.05,13.27-1.72a1.93,1.93,0,0,0,1.33-2.36,2,2,0,0,0-2.35-1.34c-15.48,2.36-31.21,3-46.52,6.44a111.93,111.93,0,0,0-12.84,3.67c-2.31.82-1.31,4.53,1,3.7Z"/><path class="cls-11" d="M541.18,489.39c2.24,15.42,4.57,30.81,7.12,46.18.41,2.43,4.11,1.4,3.7-1-2.55-15.37-4.88-30.76-7.12-46.18a1.92,1.92,0,0,0-2.36-1.33,2,2,0,0,0-1.34,2.35Z"/><path class="cls-11" d="M535.88,452.56,539.24,476a1.93,1.93,0,0,0,2.36,1.34,2,2,0,0,0,1.34-2.36l-3.36-23.46a1.93,1.93,0,0,0-2.36-1.34,2,2,0,0,0-1.34,2.36Z"/><path class="cls-11" d="M592.39,431.55c-1.64-.8-3.8-.37-5.58-.25s-3.81.41-5.7.66a106.91,106.91,0,0,0-11.5,2.05A60,60,0,0,0,549,443.08c-3.28,2.31-6.53,4.78-10.59,5.39a2.78,2.78,0,0,0-1.92,3.4,2.82,2.82,0,0,0,3.39,1.92c3.65-.57,6.88-2.49,9.86-4.57a81,81,0,0,1,9.45-6c6.57-3.34,13.84-5.12,21-6.51,2.09-.4,4.19-.75,6.29-1.1,1.94-.32,4.6-.49,6.15-1.78a1.46,1.46,0,0,0-.3-2.28Z"/><path class="cls-11" d="M593.71,432.61c.71,3.15,0,6.53.35,9.75a82.79,82.79,0,0,0,1.45,9.12c1.25,6.16,2.82,12.26,4.28,18.38,2.92,12.2,5.26,24.57,7.35,36.95,1.19,7.06,1.94,14.22,3.33,21.25.53,2.67,5,2.1,4.8-.65-.46-6.38-1.7-12.76-2.76-19.06s-2.21-12.52-3.52-18.74c-2.58-12.23-5.72-24.32-8.61-36.47-.82-3.44-1.57-6.9-2.32-10.36s-2.36-7-2-10.48c.14-1.6-2.7-1.46-2.3.31Z"/><path class="cls-11" d="M538.94,449.27c-.83-.27-1.71-.29-2.55-.53a15.46,15.46,0,0,0-2.43-.52,12.4,12.4,0,0,1-2.34-.45,4.35,4.35,0,0,1-1.47-.86c-2.09-1.86-4.16-5.09-7.39-4.77a2.25,2.25,0,0,0-2.19,1.94,2.21,2.21,0,0,0,1.6,2.45l.69.1c.85.13-.27-.15.27.06l.36.12c-.42-.15,0,0,.07.05l.42.26s.46.34.25.17.26.23.25.22l.31.28a17.32,17.32,0,0,0,3.48,2.73,8.22,8.22,0,0,0,5.24.68,16.56,16.56,0,0,0,2.39-.65,4.34,4.34,0,0,1,2.69,0,.66.66,0,0,0,.35-1.27Z"/><path class="cls-11" d="M526.23,438.45a11.3,11.3,0,0,0-2.09,1.35h1l-.54-.25a1.74,1.74,0,1,0-1.35,3.2c1.93.73,4.56-.67,6.18-1.66,2-1.23,3.89-2.67,5.83-4,4-2.77,7.86-5.8,12-8.36,4-2.45,8.51-3.86,12.82-5.52l6.94-2.68,3.46-1.35a17.46,17.46,0,0,0,3.81-1.64,2.64,2.64,0,0,0,1.18-2.87,2.56,2.56,0,0,0-2.46-1.88c-2.46.33-4.87,1.61-7.17,2.52l-6.92,2.74c-4.49,1.79-9.28,3.33-13.45,5.82s-7.86,5.48-11.66,8.31c-1.94,1.45-3.87,2.92-5.82,4.35a29.3,29.3,0,0,1-2.6,1.8,23.31,23.31,0,0,0-2.9,1.49l2.92,1.7.2-.59-.7.7a13.53,13.53,0,0,0,2.74-.74c1.66-.72.23-3.15-1.42-2.44Z"/><path class="cls-11" d="M575,415a4.33,4.33,0,0,1-.48,1.3,5.33,5.33,0,0,0-.23,1.19,7.66,7.66,0,0,0,.2,2.9,10.85,10.85,0,0,0,2.68,4.89c1.15,1.2,2.49,2.2,3.59,3.46a6.38,6.38,0,0,1,1.09,1.68,2.72,2.72,0,0,1,.2,1.81c-.68,2.71,3.49,3.87,4.19,1.15,1.06-4.12-1.79-7.31-4.63-9.84a13.6,13.6,0,0,1-3.28-3.81c-.39-.76-.66-1.57-1-2.36a13.26,13.26,0,0,0-.51-1.23c-.25-.44-.49-.61-.51-1.14a.66.66,0,0,0-1.32,0Z"/><path class="cls-11" d="M530.83,506.09A195.26,195.26,0,0,1,535,527a2,2,0,0,0,1.92,1.91A1.93,1.93,0,0,0,538.8,527a206.22,206.22,0,0,0-4.27-21.91c-.59-2.4-4.29-1.38-3.7,1Z"/><path class="cls-11" d="M520.13,449c0,13.42,2.9,26.61,6.21,39.56.61,2.39,4.31,1.38,3.7-1C526.82,475,524,462.13,524,449c0-2.47-3.84-2.48-3.84,0Z"/><path class="cls-11" d="M535.14,526.71a4,4,0,0,1,1.27.51c.31.23.53.56.82.82a10,10,0,0,0,2.13,1.36,47.21,47.21,0,0,1,4.43,2.66,25.51,25.51,0,0,1,3.62,3.11c1.23,1.25,2.56,2.91,4.19,3.66a2.2,2.2,0,0,0,2.8-.56,2.15,2.15,0,0,0-.17-2.85c-.69-.63-1.46-1.14-2.14-1.79s-1.26-1.26-1.9-1.88a30.21,30.21,0,0,0-4.45-3.6,21,21,0,0,0-5-2.41,6,6,0,0,0-2.83-.37,7.22,7.22,0,0,1-1.22.2,11,11,0,0,1-1.39-.16c-.76-.1-.86,1.09-.18,1.3Z"/><ellipse class="cls-13" cx="143.9" cy="409.73" rx="20.27" ry="11.88" transform="translate(-149.14 89.23) rotate(-23.09)"/><path class="cls-13" d="M117.64,372s1.08-6.85,10.12-4.05,10.12-4.05,10.12-4.05"/><text class="cls-22" transform="matrix(0.97, -0.23, 0.23, 0.97, 552.43, 495.67)">Book</text><text class="cls-23" transform="translate(131.04 419.31) rotate(-16.33)">Art</text></g><g class="cls-24"><text class="cls-25" transform="translate(263.38 576.47)">the statue of liberty</text><circle class="cls-11" cx="392.71" cy="451.86" r="6.47"/><circle class="cls-11" cx="320.02" cy="452.01" r="6.47"/><path class="cls-11" d="M278.67,441.32c3.32.1,6.67.15,10-.06s6.47-.14,9.71-.33a85.3,85.3,0,0,0,19.33-3.87,125.88,125.88,0,0,0,18.36-7.13,74,74,0,0,0,14.12-8.54,41.09,41.09,0,0,0,11.89-14.7,2.36,2.36,0,0,0-.82-3.12,2.31,2.31,0,0,0-3.12.82c-4.35,9.95-13.14,16.7-22.58,21.55a118,118,0,0,1-17.07,7.12A175.69,175.69,0,0,1,300,437.69c-3.44.72-6.89,1.71-10.4,1.91s-7.25.36-10.89.28a.72.72,0,0,0,0,1.44Z"/><path class="cls-11" d="M441.18,442.8c-3.21.18-6.39.17-9.6.14a55.14,55.14,0,0,1-9.66-1.14c-6.16-1.12-12.33-2-18.39-3.65-11.14-3-22.46-7.26-31.74-14.24a37.34,37.34,0,0,1-11.33-13.5c-1.27-2.63-5.27-.32-3.94,2.3,5.16,10.12,14.65,16.68,24.72,21.33a123.71,123.71,0,0,0,18.23,6.71,98.8,98.8,0,0,0,19.34,3.73c3.65.27,7.3-.12,10.94,0a106.38,106.38,0,0,0,11.43-.27c.91-.06.92-1.49,0-1.43Z"/><path class="cls-11" d="M273.53,471.44c-4.33-7.68-4.74-16.69-2.12-25,2.76-8.76,8.22-16.22,14.78-22.55,13.38-12.9,31.26-20.38,49.49-23.16,21.66-3.3,43.93.54,64.56,7.28a174.12,174.12,0,0,1,28.15,11.54c8,4.26,15.67,9.65,21.1,17a34.64,34.64,0,0,1,7.08,21.55c-.12,7-2.45,14.18-7.63,19a19.06,19.06,0,0,1-4.2,3c-3.16,1.72-.33,6.58,2.83,4.84,15.45-8.49,17.61-29.6,10.75-44.33-4.09-8.77-11.55-15.75-19.48-21.05-8.6-5.74-18.24-9.78-27.9-13.36-22-8.16-45.78-13.3-69.35-11.11-19.66,1.83-39,9-54.12,21.95-7.34,6.29-13.83,14-17.7,22.93a43.09,43.09,0,0,0-3.56,13.83c-.34,4.45,0,9.21,2.23,13.16a19.92,19.92,0,0,0,4.05,5.29.66.66,0,0,0,1-.8Z"/><path class="cls-11" d="M465.52,451.77c.55-.81.89-1.7,1.36-2.55a14.23,14.23,0,0,0,1.38-2.69,16.18,16.18,0,0,0,.45-5.92,43.77,43.77,0,0,0-3.29-12.29,83.83,83.83,0,0,0-13.69-23c-12.29-14.62-30.63-22.65-48.57-28a148.5,148.5,0,0,0-57.76-5.66,129.82,129.82,0,0,0-50,15.87,122.86,122.86,0,0,0-10.64,6.73c-1.8,1.28-3.55,2.62-5.27,4a20.23,20.23,0,0,0-4.4,4.46,32.84,32.84,0,0,1-4.15,4.44c-1.46,1.52-2.72,3.31-4.08,4.93-2.64,3.15-5.37,6.32-7.76,9.66-1.2,1.68-2.36,3.39-3.49,5.11-.6.92.89,1.8,1.47.87a106.37,106.37,0,0,1,7.16-10.09,56,56,0,0,1,4.05-4.39c1.43-1.44,3-2.63,4.49-4s2.8-2.9,4.59-3.77a30.17,30.17,0,0,0,5.25-3.57c3.1-2.4,6.3-4.68,9.6-6.81a122.7,122.7,0,0,1,45.6-17.61,139.84,139.84,0,0,1,55.16,2,152.86,152.86,0,0,1,26.23,8.64c8.31,3.62,16.41,8,23.17,14.1A76.6,76.6,0,0,1,458,422.14a93.32,93.32,0,0,1,5.34,11.31c1.4,3.65,2.47,7.65,2,11.6-.1.85-.2,1.74-.38,2.59a4.85,4.85,0,0,1-1.66,2.39c-1.46,1.39,1.06,3.54,2.26,1.74Z"/><path class="cls-11" d="M292.13,487.64c-1.84,6.62-5.9,12.3-10,17.68s-8.29,10.76-10,17.35c-1.39,5.36-.77,11.67,2.51,16.25a13.71,13.71,0,0,0,15.13,5.28c3.27-1,6.5-3.22,7.91-6.41a5.84,5.84,0,0,0-.21-5.55,4.87,4.87,0,0,0-5.18-2.2c-2.83.55-1.64,4.9,1.2,4.34-.33.07-.16-.1,0,0a1,1,0,0,1,.29.38,1.58,1.58,0,0,1-.11,1.11,6.51,6.51,0,0,1-2.17,2.57,9.86,9.86,0,0,1-6.11,1.91c-4.33-.09-7.57-3.31-8.88-7.25-3.53-10.57,4.76-20,10.51-27.91,3.75-5.17,7.2-10.73,7.48-17.28a1.19,1.19,0,0,0-2.33-.31Z"/><path class="cls-11" d="M284.34,479.21c-.66,1.66-2.39,3.16-3.61,4.43a44.71,44.71,0,0,1-4.22,3.92,25.17,25.17,0,0,1-10.37,5.17c-2.05.44-4.14.54-6.19.94a34.67,34.67,0,0,0-14.25,6.79c-5.11,4.31-7.92,10.53-6.91,17.21.87,5.75,4.86,11.53,10.88,12.65,3.92.73,8.5-.45,10.66-4.06,1.81-3,1.45-8.4-2.21-10a2,2,0,0,0-2.5.49,1.94,1.94,0,0,0,.16,2.54c1.63,1.6,2.06,4,.23,5.71s-5,1.77-7.26.78c-4.32-1.86-6.38-7-6.32-11.44.07-5.55,3.83-10.17,8.31-13.08a31.59,31.59,0,0,1,8.35-3.77c3.46-1,7-1.64,10.47-2.72a19.6,19.6,0,0,0,5.12-2.23,29.86,29.86,0,0,0,4.24-3.45,50.6,50.6,0,0,0,3.75-4.13c1.13-1.39,2.19-3.25,3.68-4.26,2-1.37-1.06-3.92-2-1.54Z"/><path class="cls-11" d="M411.36,496c1.24,5.94,8.22,8.27,12.82,11a29.94,29.94,0,0,1,12.45,15c2.2,5.93,3.31,14.44-.88,19.8-3.37,4.29-9.92,5.45-14.81,3.35-2.89-1.24-6.2-4.32-5.71-7.79a4.15,4.15,0,0,1,2.18-2.93,4.49,4.49,0,0,1,3.56-.08c1.37.37,2.95-1.3,2-2.6-2.42-3.27-7.05-2.1-9.63.39-3,2.87-3,7.25-1.11,10.73,3.69,6.73,12.63,9,19.55,6.46a15.4,15.4,0,0,0,8.07-6.39c2.25-3.77,2.78-8.46,2.45-12.77a32.11,32.11,0,0,0-9.88-20.8,34.08,34.08,0,0,0-10.78-6.56c-3.63-1.48-7.84-3-9-7.2a.66.66,0,0,0-1.27.35Z"/><path class="cls-11" d="M421.49,481.68c2.62,7.29,11.67,5.95,17.69,7.38,7.11,1.69,13.5,6,18.46,11.29a36.75,36.75,0,0,1,9.75,19.57c.69,4.61.19,9.31-.31,13.91-.4,3.74-.77,9.28-5,10.77-2,.72-3.71-.58-5.06-2a14.62,14.62,0,0,1-3.79-6,4,4,0,0,1,1.15-4.43c1-.78,2.36-1.12,3.21-.27,1.93,1.93,4.72-.94,3-3-2.95-3.39-8.1-1.71-10.46,1.46-3.18,4.28-.62,9.82,2.26,13.46a14,14,0,0,0,5.74,4.7,7.88,7.88,0,0,0,6.92-.79c4.69-2.92,5.5-8.41,6-13.46.55-5.33.94-10.64,0-16A41.15,41.15,0,0,0,448.34,489a44,44,0,0,0-13.57-3.77c-3.28-.34-9.42-.25-10.36-4.34-.44-1.91-3.57-1-2.92.81Z"/><path class="cls-11" d="M147.06,419.16c1.08,4.06,2.56,8,3.92,12s2.8,8.1,4.25,12.13q4.25,11.88,8.52,23.76,8.56,23.88,16.91,47.84Q185.37,528.41,190,542a2.87,2.87,0,0,0,3.43,2,2.81,2.81,0,0,0,1.95-3.43q-8.37-24.09-16.94-48.11c-5.72-16-11.48-32-17.47-47.92-1.67-4.43-3.24-8.93-5.09-13.29s-3.46-9-5.58-13.4c-.89-1.82-3.71-.53-3.21,1.35Z"/><path class="cls-11" d="M126.07,390.1a2.19,2.19,0,0,0,1.57.95l-1-.6c.41.81.67,1.59,1,2.43s.66,1.68.92,2.56c.13.45.25.9.35,1.36,0,.19.07.37.11.56s.11.69.08.47a9.24,9.24,0,0,0,.21,1.58c.2.43.24.55.13.35s0-.08,0,.12a1.81,1.81,0,0,0,.57,1.27,1.54,1.54,0,0,0,2.4-.31,2,2,0,0,0,.26-1.39c-.05-.2-.05-.25,0-.13s0,.12.06-.37a7,7,0,0,0-.27-1.76,24.19,24.19,0,0,0-.79-2.8,17.53,17.53,0,0,0-1.25-2.88A22.84,22.84,0,0,0,128.5,389l.31,1.18a2.21,2.21,0,0,0-.44-1.84,1.46,1.46,0,1,0-2.3,1.78Z"/><path class="cls-11" d="M122.1,389.62c1.79,1,3.83.05,5.14-1.32,1.85-1.92,2.78-4.41,5.58-5.17,3.14-.86,8.15.46,9.7-3.31h-1a59.57,59.57,0,0,0,7.25,15.08c.46.7,1.59,0,1.12-.65a61.91,61.91,0,0,1-7.33-14.72.54.54,0,0,0-1,0c-.53,1.9-2.44,2.24-4.15,2.46a27.83,27.83,0,0,0-4.9.8,7.37,7.37,0,0,0-3.72,2.93c-1.4,1.88-3.63,5.14-6.41,3.56-.22-.12-.42.22-.2.34Z"/><path class="cls-11" d="M123.77,390.49c-5.48-2.94-6.73-10-5.79-15.66,1.24-7.43,4.94-14.21,4.66-21.9a28.75,28.75,0,0,0-2.93-11.54l-1,.61a56.89,56.89,0,0,0,7,10.61,99.58,99.58,0,0,0,9,8.92c3.08,2.87,6.14,6,7.76,10s1.72,8-.4,11.67c-.38.65.58,1.18,1,.58,2.25-3.21,2.23-7.47,1.1-11.09-1.24-4-3.84-7.28-6.77-10.18-3.2-3.17-6.71-6-9.7-9.37a56.72,56.72,0,0,1-8-11.7c-.36-.7-1.38-.08-1,.61a27.27,27.27,0,0,1,2.79,11.59,37.85,37.85,0,0,1-2.13,11.72c-1.93,6.24-4.08,12.8-1.77,19.26a11.38,11.38,0,0,0,5.74,6.72c.53.25,1-.51.47-.8Z"/><path class="cls-11" d="M174.14,507.32c-2.27-4.3-8.61-1.8-10.06,1.87-2.19,5.58,2.65,10.88,7.44,13a43,43,0,0,0,5.3,1.82,31.27,31.27,0,0,0,5.41,1.5c1.45.15,1.67-1.83.68-2.51a12.41,12.41,0,0,0-3.83-1.36c-1.3-.34-2.6-.67-3.89-1a16.61,16.61,0,0,1-6.52-3.28,7.53,7.53,0,0,1-2.94-5.67,4.47,4.47,0,0,1,2.7-3.81,4.08,4.08,0,0,1,4.67.31.66.66,0,0,0,1-.8Z"/><path class="cls-10" d="M192.47,512.5a.2.2,0,0,0,0-.4.2.2,0,0,0,0,.4Z"/><path class="cls-11" d="M194,514a19.33,19.33,0,0,1,5.34,3.47c1.35,1.36,2.71,2.79,3.11,4.73a5.49,5.49,0,0,1-1.09,4.35,4,4,0,0,1-1.46,1.25c.2-.1-.28.09-.34.11l-.25.06h-.08a2.69,2.69,0,0,1-1-.09,1.68,1.68,0,0,0-1.95,1,1.62,1.62,0,0,0,.68,2c3.85,1.75,7.39-1.67,8.32-5.13a7.55,7.55,0,0,0-.55-5.54,11.08,11.08,0,0,0-3.95-4.23c-1-.59-2-1-3-1.59s-2-1-3.07-1.54c-.76-.36-1.43.76-.67,1.14Z"/><path class="cls-10" d="M211.2,530.59c1.21.28,2.41.6,3.61.91s2.45.45,3.64.79c.53.15.68-.69.1-.77-1.22-.16-2.41-.51-3.62-.72s-2.42-.36-3.62-.59c-.25-.05-.36.33-.11.38Z"/><path class="cls-10" d="M210.38,532.73l1-.07a.2.2,0,0,0,.19-.2.19.19,0,0,0-.19-.19l-1,.08a.19.19,0,0,0,0,.38Z"/><path class="cls-10" d="M210.76,532.43c-.12-.44-.23-.89-.34-1.33,0-.21,0-.39-.06-.6s-.11-.45-.16-.67v.2a1.28,1.28,0,0,0,0-.7l-.19-.67c-.12-.44-.22-.89-.32-1.34-.16-.7-1.32-.38-1.08.3.16.43.31.87.44,1.31l.17.56c0,.13.07.26.12.38s.13.17.19.27a4.79,4.79,0,0,1,.17.5c.07.21.21.37.28.59.15.43.29.87.43,1.31a.2.2,0,0,0,.38-.11Z"/><path class="cls-11" d="M202,533.06c2.78,6.39,4.89,13,7.41,19.47,1.23,3.16,2.49,6.31,3.59,9.52.55,1.6,1.1,3.2,1.68,4.79s.92,3.73,2.74,4.2a1.68,1.68,0,0,0,1.83-.75c1-1.53-.21-3.49-.82-5s-1.33-3.14-2-4.7c-1.42-3.16-2.72-6.38-4.12-9.55-2.79-6.35-6.18-12.4-9.14-18.66-.37-.78-1.48-.1-1.14.66Z"/><path class="cls-11" d="M518.79,502.05c1.46.71,2.23,1.92,3.27,3.09a27.8,27.8,0,0,1,2.74,3.37,32.08,32.08,0,0,1,3.62,8.47c2.33,8,3.44,16.58,4.26,24.89q.38,3.76.6,7.55c.16,2.59-.08,5.46.64,8,.63,2.19,4.1,2.38,4.63,0s.14-5,0-7.48-.37-4.72-.62-7.07c-.52-4.84-1.21-9.67-2.07-14.46-1.33-7.44-2.65-15.65-7.14-21.95a15.64,15.64,0,0,0-4-4.12c-1.55-1-3.55-1.18-5.32-1.55-.73-.15-1.3.92-.54,1.29Z"/><path class="cls-11" d="M516.67,500c-5.35,3-9.19,8.85-11.54,14.38-1.13,2.66-1.82,5.46-2.84,8.16a15.69,15.69,0,0,1-1.63,3.25c-.76,1.12-1.87,1.88-2.56,3s.15,2.82,1.51,2.64c2.92-.39,4.68-3.18,5.8-5.69s1.85-5.43,2.77-8.14a32.93,32.93,0,0,1,4.17-8.16,80.1,80.1,0,0,1,6.14-7.13,1.51,1.51,0,0,0-1.82-2.35Z"/><path class="cls-16" d="M341.58,470.57s15.06,25.28,27.22,1.05"/><path class="cls-16" d="M360.5,458.11s-3.35-5.61-6.05-.23"/><path class="cls-11" d="M523.18,502.05c1.13-1.7,1.72-3.87,2.57-5.73a49.3,49.3,0,0,1,2.91-5.4,47.71,47.71,0,0,1,7.8-9.55c.68-.63,1.37-1.24,2.1-1.82a9.45,9.45,0,0,1,2.62-1.77c.14,0,.33,0,.2-.09s.24.44.27.52a6.54,6.54,0,0,1,.33,2.1,29.49,29.49,0,0,1-9.64,23c-2.31,2.11,1.13,5.54,3.43,3.43a33.81,33.81,0,0,0,10.8-26.83c-.16-2.21-.73-4.66-2.67-6a4.32,4.32,0,0,0-3.44-.66,8.62,8.62,0,0,0-3.44,2.25,56.23,56.23,0,0,0-9.86,10.64,46.9,46.9,0,0,0-4.16,7.2c-1.13,2.4-2.54,5.26-2.53,8a1.47,1.47,0,0,0,2.71.74Z"/><path class="cls-11" d="M298.37,469.57c.37,9.31,6.39,17.3,14,22.2,8.8,5.64,19.48,7.35,29.62,8.91,10.87,1.68,21.68,2.44,32.55.4a76.51,76.51,0,0,0,27.69-11.17c8.41-5.52,18.9-14.51,16.26-25.85-.56-2.38-4.23-1.37-3.68,1,2.06,8.81-6.72,16.19-13.11,20.6a73.09,73.09,0,0,1-25.28,11.12c-9.78,2.25-19.68,2.11-29.58.77-9.57-1.29-19.76-2.62-28.54-6.87-8.23-4-15.77-11.5-16.15-21.13-.1-2.44-3.9-2.45-3.81,0Z"/><path class="cls-11" d="M351.11,395.14l0-11.95a1.6,1.6,0,0,1,.2-.95,1.65,1.65,0,0,1,1.38-.46h7.47a2.38,2.38,0,0,1,1.16.2c.67.38.79,1.27.83,2l.57,9.9a2.42,2.42,0,0,1-.55,2.08,2.46,2.46,0,0,1-1.84.26,61.89,61.89,0,0,0-8.5-.41"/><path class="cls-11" d="M371.67,396.09l2.24-11.74a1.56,1.56,0,0,1,.38-.89,1.63,1.63,0,0,1,1.44-.19l7.34,1.41a2.33,2.33,0,0,1,1.1.41,2.38,2.38,0,0,1,.43,2.16l-1.32,9.83a1.81,1.81,0,0,1-2.78,1.85,62.08,62.08,0,0,0-8.28-2"/><path class="cls-11" d="M341.64,395.76l-2.79-11.62a1.59,1.59,0,0,0-.42-.87,1.63,1.63,0,0,0-1.45-.12l-7.26,1.75a2.2,2.2,0,0,0-1.08.47,2.34,2.34,0,0,0-.33,2.17l1.78,9.76c.13.73.34,1.57,1,1.89A2.46,2.46,0,0,0,333,399a60.74,60.74,0,0,1,8.17-2.4"/><path class="cls-11" d="M390.85,400l2.91-11.59a1.59,1.59,0,0,1,.42-.87,1.63,1.63,0,0,1,1.45-.1l7.25,1.82a2.27,2.27,0,0,1,1.07.48,2.32,2.32,0,0,1,.31,2.17l-1.88,9.75a2.44,2.44,0,0,1-1,1.88,2.47,2.47,0,0,1-1.85-.2,62.28,62.28,0,0,0-8.15-2.48"/><path class="cls-11" d="M320.63,401.14l-4.49-11.07a1.58,1.58,0,0,0-.54-.81,1.63,1.63,0,0,0-1.45.11l-6.93,2.81a2.32,2.32,0,0,0-1,.62,2.37,2.37,0,0,0,0,2.2l3.22,9.38c.24.71.57,1.51,1.29,1.72a2.44,2.44,0,0,0,1.8-.45,61.42,61.42,0,0,1,7.72-3.59"/><path class="cls-11" d="M407.54,405.37l4.63-11a1.61,1.61,0,0,1,.55-.8,1.67,1.67,0,0,1,1.45.12l6.89,2.9a2.4,2.4,0,0,1,1,.63,2.38,2.38,0,0,1,0,2.2l-3.33,9.35c-.25.7-.59,1.49-1.31,1.7a2.47,2.47,0,0,1-1.8-.48,62.07,62.07,0,0,0-7.67-3.68"/><path class="cls-11" d="M302.07,407.57l-5.39-8.74a1.23,1.23,0,0,0-.59-.6,1.73,1.73,0,0,0-1.34.37l-6.13,3.78a2.66,2.66,0,0,0-.86.73A2,2,0,0,0,288,405l4,7.53c.31.57.7,1.2,1.39,1.25a2.61,2.61,0,0,0,1.63-.75,66.8,66.8,0,0,1,6.78-4.61"/><path class="cls-11" d="M424.61,413.48,430,402.8a1.21,1.21,0,0,1,2-.54l6.68,3.36a1.77,1.77,0,0,1,.77,2.89l-4,9.1c-.3.68-.69,1.45-1.42,1.61a2.47,2.47,0,0,1-1.76-.6,62.16,62.16,0,0,0-7.41-4.2"/><path class="cls-11" d="M288,417.26l-7.38-7.69a1.47,1.47,0,0,0-.7-.49,1.31,1.31,0,0,0-1.13.52L274.26,414a1.87,1.87,0,0,0-.59.81c-.17.64.31,1.28.75,1.8l5.78,6.7c.44.5,1,1,1.62,1a2,2,0,0,0,1.29-.91,49.12,49.12,0,0,1,4.94-5.26"/><path class="cls-11" d="M441.8,423.28l5.54-7.1a1.27,1.27,0,0,1,.56-.47,1.23,1.23,0,0,1,1,.37l4.44,3.47a1.73,1.73,0,0,1,.6.66c.22.53-.13,1.12-.46,1.59l-4.26,6.14c-.32.46-.73,1-1.29,1a1.81,1.81,0,0,1-1.21-.7,46.07,46.07,0,0,0-4.86-4.19"/><path class="cls-11" d="M255.23,426.74c-2,4.65.58,10.09,2.41,14.42A66.57,66.57,0,0,0,265,454.35a2,2,0,0,0,2.61.68,1.91,1.91,0,0,0,.68-2.6,65.61,65.61,0,0,1-6.64-11.52,61.26,61.26,0,0,1-2.36-6.17c-.58-1.81-1.57-4.2-.77-6.08a2,2,0,0,0-.69-2.6,1.91,1.91,0,0,0-2.6.68Z"/><path class="cls-11" d="M392.35,469.16a3.48,3.48,0,0,0,.22,1.11,5.74,5.74,0,0,0,.53,1.05L393,471a2,2,0,0,0,.17.4,2.42,2.42,0,0,0,.25.31l.21.23a3.81,3.81,0,0,0,.43.37,4,4,0,0,0,.68.49l.28.13a1.31,1.31,0,0,0,.93.12,1.23,1.23,0,0,0,.58-.34L396,473l.16-.06a.89.89,0,0,0,.58-.52.91.91,0,0,0,0-.79l0,0,.1.23a.49.49,0,0,1,0-.11l0,.28a1.24,1.24,0,0,0-.63-1.14l-.24-.16c-.16-.11-.33-.22-.48-.34l.24.19c-.34-.27-.62-.62-1-.86l.24.19a4.28,4.28,0,0,1-.49-.55l.17.22c-.18-.23-.34-.47-.52-.7l.16.21-.25-.36a.91.91,0,0,0-1-.41.9.9,0,0,0-.66.86Z"/><path class="cls-11" d="M400.61,468.24l.09,0-.26-.47,0,.09a1.08,1.08,0,0,0,.28,1.08,3.78,3.78,0,0,1,.59.61l-.19-.25c.1.13.18.28.27.42s.18.28.26.43a1.34,1.34,0,0,0,.78.6,1.32,1.32,0,0,0,1-.13,1.3,1.3,0,0,0,.6-.78l.05-.35a1.26,1.26,0,0,0-.18-.66,3,3,0,0,0-.79-1,4,4,0,0,0-.63-.45,7.17,7.17,0,0,0-.69-.3l-.29,0a.88.88,0,0,0-.43.1,1.06,1.06,0,0,0-.53.45l0,.09.43-.17-.09,0a.4.4,0,0,0-.46.26.38.38,0,0,0,.26.46Z"/><path class="cls-11" d="M310.54,476.55c0-.07,0,.05,0,0s0,.09,0,0,0,.07,0,0,0,0,0,0l0,0c0-.06,0,0,0,0l0,0c.05,0,0,0,0,0s.07-.06.1-.06-.06,0,0,0h0l.06,0c.07,0-.05,0,0,0h0l.07,0-.23-.56a1,1,0,0,0-.25.46,1.09,1.09,0,0,0,0,.62l0,.12.06.24a3.89,3.89,0,0,0,.12.49,2.52,2.52,0,0,0,.53,1,2.27,2.27,0,0,0,.94.56,1.34,1.34,0,0,0,1.65-.93,1.37,1.37,0,0,0-.14-1l-.21-.27a1.21,1.21,0,0,0-.59-.34l-.05,0,.32.14a.78.78,0,0,1-.18-.11l.27.21a2.2,2.2,0,0,1-.33-.35l.21.27c-.2-.26-.32-.56-.5-.83a1.16,1.16,0,0,0-1.6-.42l-.14.1.3,0c-.66-.22-1.53.47-1.13,1.16a.37.37,0,0,0,.5.13.38.38,0,0,0,.13-.5Z"/><path class="cls-11" d="M318,473.84v.2l.13-.49a1.2,1.2,0,0,0-.11.87c0,.09,0,.18.05.27l0-.3a7.07,7.07,0,0,0,.29,1.35c.09.26.23.51.34.77l.12.27a3.1,3.1,0,0,0,.35.46l.26.2a1,1,0,0,0,.47.15,1.3,1.3,0,0,0,.82-.15,1.64,1.64,0,0,0,.45-.46,1.34,1.34,0,0,0,.13-1,3.3,3.3,0,0,0-.35-.9,3.84,3.84,0,0,0-.33-.6l-.38-.54c-.11-.16-.23-.28-.35-.43a1.09,1.09,0,0,0-.62-.43l.43.25-.16-.13a.88.88,0,0,0-1-.18.86.86,0,0,0-.54.8Z"/><path class="cls-11" d="M335.11,375.56A351.67,351.67,0,0,0,355.79,320q2.26-8.13,4.13-16.37h-2.07l17.7,54.33,5,15.42c.43,1.3,2.5.74,2.07-.57l-17.7-54.33-5-15.42a1.08,1.08,0,0,0-2.07,0,350.37,350.37,0,0,1-17.78,56.05q-3.22,7.79-6.82,15.41c-.58,1.24,1.27,2.33,1.86,1.08Z"/><path class="cls-11" d="M408.06,378.2A57.19,57.19,0,0,1,415.37,366c2.83-3.38,5.89-6.51,8.31-10.21,4.74-7.25,7.75-15.48,12.74-22.57l-2-.54q2.88,30.88,5.33,61.82c.1,1.37,2.25,1.38,2.14,0q-2.44-30.93-5.32-61.82a1.08,1.08,0,0,0-2-.54c-5,7.09-8,15.32-12.74,22.56-2.49,3.81-5.71,7-8.56,10.49a60.44,60.44,0,0,0-7.06,11.93c-.6,1.24,1.25,2.33,1.85,1.09Z"/><path class="cls-11" d="M457.64,413.84a99.34,99.34,0,0,1,6.27-9.85q3.52-5.07,7-10.16L485,373.52l-2-.83-16.87,60.42a1.08,1.08,0,0,0,2.07.58l16.87-60.43a1.08,1.08,0,0,0-2-.82L469.1,392.75q-3.53,5.08-7,10.16a98.28,98.28,0,0,0-6.28,9.85c-.64,1.22,1.21,2.3,1.86,1.08Z"/><path class="cls-11" d="M316.82,378.78c-12.81-11.24-28-19.17-41.4-29.64a104.76,104.76,0,0,1-10.73-9.57,1.08,1.08,0,0,0-1.83.75c-.43,4.59.73,9.08,2.34,13.34,1.69,4.46,3.69,8.82,5.56,13.21l11.68,27.34c.55,1.26,2.4.17,1.86-1.09L273,366.69c-1.87-4.37-3.85-8.72-5.56-13.16-1.64-4.24-2.86-8.63-2.43-13.21l-1.83.76C275,353.31,290,361.56,303.8,371.31a142.54,142.54,0,0,1,11.5,9c1,.91,2.56-.6,1.52-1.51Z"/><path class="cls-11" d="M266.82,409.24c-11.55-8.9-23.1-17.81-34.55-26.84a1.08,1.08,0,0,0-1.52,1.52c10.22,12.43,12.63,29.21,21.91,42.24.8,1.11,2.66,0,1.85-1.09-9.39-13.18-11.88-30.06-22.24-42.67l-1.52,1.52c11.6,9.14,23.29,18.16,35,27.17,1.09.85,2.16-1,1.08-1.85Z"/><path class="cls-11" d="M555.07,540.87c14.84-5.26,30.56-6.62,46.09-8.39,4.43-.5,8.86-1.05,13.27-1.72a1.93,1.93,0,0,0,1.33-2.36,2,2,0,0,0-2.35-1.34c-15.48,2.36-31.21,3-46.52,6.44a111.93,111.93,0,0,0-12.84,3.67c-2.31.82-1.31,4.53,1,3.7Z"/><path class="cls-11" d="M541.18,489.39c2.24,15.42,4.57,30.81,7.12,46.18.41,2.43,4.11,1.4,3.7-1-2.55-15.37-4.88-30.76-7.12-46.18a1.92,1.92,0,0,0-2.36-1.33,2,2,0,0,0-1.34,2.35Z"/><path class="cls-11" d="M535.88,452.56,539.24,476a1.93,1.93,0,0,0,2.36,1.34,2,2,0,0,0,1.34-2.36l-3.36-23.46a1.93,1.93,0,0,0-2.36-1.34,2,2,0,0,0-1.34,2.36Z"/><path class="cls-11" d="M592.39,431.55c-1.64-.8-3.8-.37-5.58-.25s-3.81.41-5.7.66a106.91,106.91,0,0,0-11.5,2.05A60,60,0,0,0,549,443.08c-3.28,2.31-6.53,4.78-10.59,5.39a2.78,2.78,0,0,0-1.92,3.4,2.82,2.82,0,0,0,3.39,1.92c3.65-.57,6.88-2.49,9.86-4.57a81,81,0,0,1,9.45-6c6.57-3.34,13.84-5.12,21-6.51,2.09-.4,4.19-.75,6.29-1.1,1.94-.32,4.6-.49,6.15-1.78a1.46,1.46,0,0,0-.3-2.28Z"/><path class="cls-11" d="M593.71,432.61c.71,3.15,0,6.53.35,9.75a82.79,82.79,0,0,0,1.45,9.12c1.25,6.16,2.82,12.26,4.28,18.38,2.92,12.2,5.26,24.57,7.35,36.95,1.19,7.06,1.94,14.22,3.33,21.25.53,2.67,5,2.1,4.8-.65-.46-6.38-1.7-12.76-2.76-19.06s-2.21-12.52-3.52-18.74c-2.58-12.23-5.72-24.32-8.61-36.47-.82-3.44-1.57-6.9-2.32-10.36s-2.36-7-2-10.48c.14-1.6-2.7-1.46-2.3.31Z"/><path class="cls-11" d="M538.94,449.27c-.83-.27-1.71-.29-2.55-.53a15.46,15.46,0,0,0-2.43-.52,12.4,12.4,0,0,1-2.34-.45,4.35,4.35,0,0,1-1.47-.86c-2.09-1.86-4.16-5.09-7.39-4.77a2.25,2.25,0,0,0-2.19,1.94,2.21,2.21,0,0,0,1.6,2.45l.69.1c.85.13-.27-.15.27.06l.36.12c-.42-.15,0,0,.07.05l.42.26s.46.34.25.17.26.23.25.22l.31.28a17.32,17.32,0,0,0,3.48,2.73,8.22,8.22,0,0,0,5.24.68,16.56,16.56,0,0,0,2.39-.65,4.34,4.34,0,0,1,2.69,0,.66.66,0,0,0,.35-1.27Z"/><path class="cls-11" d="M526.23,438.45a11.3,11.3,0,0,0-2.09,1.35h1l-.54-.25a1.74,1.74,0,1,0-1.35,3.2c1.93.73,4.56-.67,6.18-1.66,2-1.23,3.89-2.67,5.83-4,4-2.77,7.86-5.8,12-8.36,4-2.45,8.51-3.86,12.82-5.52l6.94-2.68,3.46-1.35a17.46,17.46,0,0,0,3.81-1.64,2.64,2.64,0,0,0,1.18-2.87,2.56,2.56,0,0,0-2.46-1.88c-2.46.33-4.87,1.61-7.17,2.52l-6.92,2.74c-4.49,1.79-9.28,3.33-13.45,5.82s-7.86,5.48-11.66,8.31c-1.94,1.45-3.87,2.92-5.82,4.35a29.3,29.3,0,0,1-2.6,1.8,23.31,23.31,0,0,0-2.9,1.49l2.92,1.7.2-.59-.7.7a13.53,13.53,0,0,0,2.74-.74c1.66-.72.23-3.15-1.42-2.44Z"/><path class="cls-11" d="M575,415a4.33,4.33,0,0,1-.48,1.3,5.33,5.33,0,0,0-.23,1.19,7.66,7.66,0,0,0,.2,2.9,10.85,10.85,0,0,0,2.68,4.89c1.15,1.2,2.49,2.2,3.59,3.46a6.38,6.38,0,0,1,1.09,1.68,2.72,2.72,0,0,1,.2,1.81c-.68,2.71,3.49,3.87,4.19,1.15,1.06-4.12-1.79-7.31-4.63-9.84a13.6,13.6,0,0,1-3.28-3.81c-.39-.76-.66-1.57-1-2.36a13.26,13.26,0,0,0-.51-1.23c-.25-.44-.49-.61-.51-1.14a.66.66,0,0,0-1.32,0Z"/><path class="cls-11" d="M530.83,506.09A195.26,195.26,0,0,1,535,527a2,2,0,0,0,1.92,1.91A1.93,1.93,0,0,0,538.8,527a206.22,206.22,0,0,0-4.27-21.91c-.59-2.4-4.29-1.38-3.7,1Z"/><path class="cls-11" d="M520.13,449c0,13.42,2.9,26.61,6.21,39.56.61,2.39,4.31,1.38,3.7-1C526.82,475,524,462.13,524,449c0-2.47-3.84-2.48-3.84,0Z"/><path class="cls-11" d="M535.14,526.71a4,4,0,0,1,1.27.51c.31.23.53.56.82.82a10,10,0,0,0,2.13,1.36,47.21,47.21,0,0,1,4.43,2.66,25.51,25.51,0,0,1,3.62,3.11c1.23,1.25,2.56,2.91,4.19,3.66a2.2,2.2,0,0,0,2.8-.56,2.15,2.15,0,0,0-.17-2.85c-.69-.63-1.46-1.14-2.14-1.79s-1.26-1.26-1.9-1.88a30.21,30.21,0,0,0-4.45-3.6,21,21,0,0,0-5-2.41,6,6,0,0,0-2.83-.37,7.22,7.22,0,0,1-1.22.2,11,11,0,0,1-1.39-.16c-.76-.1-.86,1.09-.18,1.3Z"/><ellipse class="cls-16" cx="143.9" cy="409.73" rx="20.27" ry="11.88" transform="translate(-149.14 89.23) rotate(-23.09)"/><path class="cls-16" d="M117.64,372s1.08-6.85,10.12-4.05,10.12-4.05,10.12-4.05"/><text class="cls-22" transform="matrix(0.97, -0.23, 0.23, 0.97, 552.43, 495.67)">Book</text><text class="cls-26" transform="translate(131.04 419.31) rotate(-16.33)">Art</text></g></g></g></svg>