<svg xmlns="http://www.w3.org/2000/svg" viewBox="0 0 967.55 640.54"><defs><style>.cls-1{fill:none;stroke:olive;stroke-miterlimit:10;}.cls-2{fill:olive;}</style></defs><g id="レイヤー_2" data-name="レイヤー 2"><g id="レイヤー_1-2" data-name="レイヤー 1"><path class="cls-1" d="M482.38,21.3s16-16.37,19.82-6.06S482.38,21.3,482.38,21.3Z"/><path class="cls-1" d="M482.71,21.87s20.52,10.2,12,16.94S482.71,21.87,482.71,21.87Z"/><path class="cls-1" d="M481.88,21.68s-2.73,22.72-12,16.94S481.88,21.68,481.88,21.68Z"/><path class="cls-1" d="M482,21.39s-17.31-15-20.2-4.49S482,21.39,482,21.39Z"/><path class="cls-1" d="M482.22,21.24S492.55.77,481.66.5,482.22,21.24,482.22,21.24Z"/><circle class="cls-1" cx="482.17" cy="21.65" r="1.26"/><path class="cls-1" d="M24.27,25.43S24,11.75,30,14.43,24.27,25.43,24.27,25.43Z"/><path class="cls-1" d="M24.66,25.53S37.59,21,36.91,27.48,24.66,25.53,24.66,25.53Z"/><path class="cls-1" d="M24.23,25.81S32.79,36.46,26.45,38,24.23,25.81,24.23,25.81Z"/><path class="cls-1" d="M24.13,25.65S10.48,26.77,13.77,32.4,24.13,25.65,24.13,25.65Z"/><path class="cls-1" d="M24.18,25.48s-4.42-13-9.09-8.43S24.18,25.48,24.18,25.48Z"/><circle class="cls-1" cx="24.34" cy="25.67" r="0.75"/><path class="cls-1" d="M941.14,25.43s.3-13.68-5.69-11S941.14,25.43,941.14,25.43Z"/><path class="cls-1" d="M940.76,25.53s-12.93-4.5-12.25,1.95S940.76,25.53,940.76,25.53Z"/><path class="cls-1" d="M941.19,25.81S932.63,36.46,939,38,941.19,25.81,941.19,25.81Z"/><path class="cls-1" d="M941.28,25.65s13.65,1.12,10.36,6.75S941.28,25.65,941.28,25.65Z"/><path class="cls-1" d="M941.24,25.48s4.42-13,9.08-8.43S941.24,25.48,941.24,25.48Z"/><circle class="cls-1" cx="941.08" cy="25.67" r="0.75"/><path class="cls-1" d="M941.14,622s.3,13.67-5.69,11S941.14,622,941.14,622Z"/><path class="cls-1" d="M940.76,621.9s-12.93,4.5-12.25-2S940.76,621.9,940.76,621.9Z"/><path class="cls-1" d="M941.19,621.62S932.63,611,939,609.42,941.19,621.62,941.19,621.62Z"/><path class="cls-1" d="M941.28,621.78s13.65-1.12,10.36-6.76S941.28,621.78,941.28,621.78Z"/><path class="cls-1" d="M941.24,622s4.42,13,9.08,8.43S941.24,622,941.24,622Z"/><circle class="cls-1" cx="941.08" cy="621.76" r="0.75"/><path class="cls-1" d="M25.71,622s-.29,13.67,5.7,11S25.71,622,25.71,622Z"/><path class="cls-1" d="M26.1,621.9s12.93,4.5,12.25-2S26.1,621.9,26.1,621.9Z"/><path class="cls-1" d="M25.67,621.62s8.56-10.65,2.22-12.2S25.67,621.62,25.67,621.62Z"/><path class="cls-1" d="M25.57,621.78S11.92,620.66,15.21,615,25.57,621.78,25.57,621.78Z"/><path class="cls-1" d="M25.62,622s-4.42,13-9.09,8.43S25.62,622,25.62,622Z"/><circle class="cls-1" cx="25.78" cy="621.76" r="0.75"/><path class="cls-1" d="M482.38,621.3s16-16.37,19.82-6.07S482.38,621.3,482.38,621.3Z"/><path class="cls-1" d="M482.71,621.87s20.52,10.2,12,16.94S482.71,621.87,482.71,621.87Z"/><path class="cls-1" d="M481.88,621.68s-2.73,22.71-12,16.94S481.88,621.68,481.88,621.68Z"/><path class="cls-1" d="M482,621.39s-17.31-15-20.2-4.49S482,621.39,482,621.39Z"/><path class="cls-1" d="M482.22,621.24s10.33-20.47-.56-20.74S482.22,621.24,482.22,621.24Z"/><circle class="cls-1" cx="482.17" cy="621.65" r="1.26"/><path class="cls-1" d="M946.41,323.68s17.94,14.24,8.09,19.09S946.41,323.68,946.41,323.68Z"/><path class="cls-1" d="M945.88,324.07s-8,21.47-15.61,13.69S945.88,324.07,945.88,324.07Z"/><path class="cls-1" d="M946,323.22s-22.87-.35-18.09-10.17S946,323.22,946,323.22Z"/><path class="cls-1" d="M946.28,323.27s13.15-18.78,2.37-20.57S946.28,323.27,946.28,323.27Z"/><path class="cls-1" d="M946.46,323.52s21.42,8.15,20.56-2.71S946.46,323.52,946.46,323.52Z"/><circle class="cls-1" cx="946.04" cy="323.51" r="1.26"/><path class="cls-1" d="M21.7,324s22.88-1,18.61,9.14S21.7,324,21.7,324Z"/><path class="cls-1" d="M21.55,324.6s8,21.48-2.83,20.57S21.55,324.6,21.55,324.6Z"/><path class="cls-1" d="M21.08,323.89S3.55,338.6.74,328.05,21.08,323.89,21.08,323.89Z"/><path class="cls-1" d="M21.33,323.73S19,300.93,9.66,306.63,21.33,323.73,21.33,323.73Z"/><path class="cls-1" d="M21.63,323.8s21.53-7.86,13.77-15.51S21.63,323.8,21.63,323.8Z"/><circle class="cls-1" cx="21.31" cy="324.07" r="1.26"/><path class="cls-2" d="M443.26,626.9c-.23,1.27-2.64,1.47-2.94-.37a2.17,2.17,0,0,1,1.13-1.67,3.36,3.36,0,0,1,1.81-.52,4.24,4.24,0,0,1,1.8.37,3.1,3.1,0,0,1,1.47,1.2,2.51,2.51,0,0,1,.24,1.91,3,3,0,0,1-1.06,1.53,5.29,5.29,0,0,1-3.37.91,14.62,14.62,0,0,1-3.37-.53c-2.15-.65-4.28-1.27-6.43-1.86-4.29-1.21-8.63-2.22-13-3.19s-8.71-1.8-13.12-2.34a79.75,79.75,0,0,0-26.5,1c-1.09.21-2.17.45-3.26.7a16.38,16.38,0,0,0-3.14,1,4.63,4.63,0,0,0-2.37,2,2.1,2.1,0,0,0,.41,2.62,4.19,4.19,0,0,0,2.83.94,3.9,3.9,0,0,0,2.74-1c.59-.59,0-1.81-.82-2.15a2.18,2.18,0,0,0-2.59,1.11l-.06,0a2.27,2.27,0,0,1,4.27-.41,2.2,2.2,0,0,1,.21,1,1.71,1.71,0,0,1-.39,1,3.35,3.35,0,0,1-1.58,1,5.88,5.88,0,0,1-1.76.32,4.81,4.81,0,0,1-3.35-1.19,2.63,2.63,0,0,1-.87-1.68,3.15,3.15,0,0,1,.37-1.82,5.57,5.57,0,0,1,2.72-2.19,20.28,20.28,0,0,1,3.25-1c1.08-.27,2.17-.53,3.27-.76,8.74-1.81,17.82-2.65,26.74-1.42a115.79,115.79,0,0,1,13.21,2.42c4.35,1,8.68,2.16,13,3.43,2.14.63,4.28,1.28,6.4,2a11.84,11.84,0,0,0,3.22.52,4.64,4.64,0,0,0,2.95-.84,2.29,2.29,0,0,0,.77-1.2,1.77,1.77,0,0,0-.21-1.32,3.12,3.12,0,0,0-2.58-1.11,2.53,2.53,0,0,0-1.36.38,1.42,1.42,0,0,0-.73.95c-.06.22.3.68.72.83a1,1,0,0,0,1.24-.51Z"/><path class="cls-2" d="M276.73,626.29c-.23,1.26-2.64,1.47-2.94-.37a2.23,2.23,0,0,1,1.13-1.68,3.48,3.48,0,0,1,1.82-.51,4.22,4.22,0,0,1,1.79.37,3.1,3.1,0,0,1,1.47,1.2,2.49,2.49,0,0,1,.24,1.9,3.05,3.05,0,0,1-1.05,1.54,5.34,5.34,0,0,1-3.38.91,14.2,14.2,0,0,1-3.37-.54c-2.15-.64-4.28-1.26-6.43-1.86-4.29-1.21-8.63-2.21-13-3.18s-8.71-1.81-13.12-2.34a79.75,79.75,0,0,0-26.5,1c-1.09.21-2.17.45-3.26.7a16.83,16.83,0,0,0-3.14,1,4.71,4.71,0,0,0-2.37,1.95,2.12,2.12,0,0,0,.41,2.63,4.19,4.19,0,0,0,2.83.94,3.88,3.88,0,0,0,2.74-1c.59-.59,0-1.81-.82-2.15a2.16,2.16,0,0,0-2.58,1.11l-.06,0a2.26,2.26,0,0,1,4.26-.41,1.94,1.94,0,0,1,.21,1,1.7,1.7,0,0,1-.38,1,3.38,3.38,0,0,1-1.59,1,6.21,6.21,0,0,1-1.76.32,4.83,4.83,0,0,1-3.35-1.19,2.68,2.68,0,0,1-.87-1.68,3.07,3.07,0,0,1,.38-1.82,5.43,5.43,0,0,1,2.72-2.19,18.93,18.93,0,0,1,3.24-1c1.08-.27,2.17-.53,3.27-.76,8.74-1.81,17.82-2.65,26.74-1.43a115.82,115.82,0,0,1,13.21,2.43c4.35,1,8.68,2.15,13,3.43,2.14.63,4.28,1.28,6.4,2a12.24,12.24,0,0,0,3.22.52,4.64,4.64,0,0,0,2.95-.84,2.33,2.33,0,0,0,.77-1.2,1.8,1.8,0,0,0-.21-1.33,3.18,3.18,0,0,0-2.58-1.11,2.57,2.57,0,0,0-1.36.39,1.42,1.42,0,0,0-.73.95c-.06.21.3.68.72.83a1,1,0,0,0,1.24-.51Z"/><path class="cls-2" d="M291,626.59a1,1,0,0,0,1.25.5c.41-.15.77-.61.72-.82a1.48,1.48,0,0,0-.73-1,2.57,2.57,0,0,0-1.37-.38,3.18,3.18,0,0,0-2.58,1.11,1.77,1.77,0,0,0-.21,1.32,2.32,2.32,0,0,0,.77,1.21,4.63,4.63,0,0,0,2.95.83,11.84,11.84,0,0,0,3.22-.52c2.12-.68,4.26-1.33,6.4-2,4.28-1.27,8.61-2.42,13-3.43a115.79,115.79,0,0,1,13.21-2.42c8.92-1.23,18-.39,26.74,1.43,1.1.22,2.19.48,3.28.75a20.16,20.16,0,0,1,3.24,1,5.54,5.54,0,0,1,2.72,2.2,3.19,3.19,0,0,1,.38,1.81,2.69,2.69,0,0,1-.88,1.68,4.8,4.8,0,0,1-3.35,1.19,6.2,6.2,0,0,1-1.76-.31,3.43,3.43,0,0,1-1.58-1,1.84,1.84,0,0,1-.39-1,2.2,2.2,0,0,1,.21-1,2.27,2.27,0,0,1,4.27.41l-.06,0a2.18,2.18,0,0,0-2.59-1.11c-.86.34-1.41,1.56-.82,2.16a4,4,0,0,0,2.74,1,4.24,4.24,0,0,0,2.83-1,2.1,2.1,0,0,0,.41-2.62,4.64,4.64,0,0,0-2.37-2,16.38,16.38,0,0,0-3.14-1c-1.08-.25-2.17-.49-3.26-.7a79.74,79.74,0,0,0-26.5-1.05c-4.4.54-8.77,1.37-13.12,2.34s-8.68,2-13,3.19c-2.15.59-4.28,1.21-6.42,1.86a14.27,14.27,0,0,1-3.38.53,5.34,5.34,0,0,1-3.37-.9,3,3,0,0,1-1.05-1.54,2.47,2.47,0,0,1,.24-1.91,3.08,3.08,0,0,1,1.46-1.2,4.39,4.39,0,0,1,1.8-.37,3.36,3.36,0,0,1,1.81.52,2.15,2.15,0,0,1,1.13,1.68,1.53,1.53,0,0,1-2.94.36Z"/><path class="cls-2" d="M290.33,621.91a1.52,1.52,0,0,1,2.94.36,2.18,2.18,0,0,1-1.13,1.68,3.45,3.45,0,0,1-1.81.52,4.39,4.39,0,0,1-1.8-.37,3.14,3.14,0,0,1-1.46-1.2,2.47,2.47,0,0,1-.24-1.91,2.93,2.93,0,0,1,1.05-1.54,5.42,5.42,0,0,1,3.37-.91,14.81,14.81,0,0,1,3.38.54c2.14.65,4.27,1.26,6.42,1.86,4.3,1.21,8.63,2.21,13,3.18s8.72,1.81,13.13,2.34a79.69,79.69,0,0,0,26.49-1c1.09-.21,2.18-.45,3.26-.71a15.71,15.71,0,0,0,3.14-1,4.64,4.64,0,0,0,2.38-2,2.11,2.11,0,0,0-.42-2.63,4.28,4.28,0,0,0-2.83-.94,4,4,0,0,0-2.74,1c-.59.6,0,1.81.82,2.16a2.18,2.18,0,0,0,2.59-1.12l.06,0a2.27,2.27,0,0,1-4.27.4,2,2,0,0,1-.2-1,1.72,1.72,0,0,1,.38-1,3.48,3.48,0,0,1,1.58-1,6.2,6.2,0,0,1,1.76-.31,4.71,4.71,0,0,1,3.35,1.19,2.66,2.66,0,0,1,.88,1.68,3.21,3.21,0,0,1-.38,1.81,5.52,5.52,0,0,1-2.72,2.19,19.2,19.2,0,0,1-3.24,1c-1.09.28-2.18.53-3.27.76C345,627.84,336,628.68,327,627.46A115,115,0,0,1,313.83,625c-4.35-1-8.68-2.15-13-3.43q-3.22-.95-6.41-2a11.71,11.71,0,0,0-3.21-.52,4.6,4.6,0,0,0-3,.83,2.32,2.32,0,0,0-.77,1.21,1.77,1.77,0,0,0,.21,1.32,3.2,3.2,0,0,0,2.59,1.11,2.57,2.57,0,0,0,1.36-.39,1.49,1.49,0,0,0,.73-1c0-.21-.31-.67-.72-.82a1,1,0,0,0-1.25.5Z"/><path class="cls-2" d="M126.78,627a1,1,0,0,0,1.25.51c.41-.15.77-.61.72-.83a1.49,1.49,0,0,0-.73-.95,2.56,2.56,0,0,0-1.36-.38,3.17,3.17,0,0,0-2.59,1.11,1.77,1.77,0,0,0-.21,1.32,2.29,2.29,0,0,0,.77,1.2,4.66,4.66,0,0,0,3,.84,11.72,11.72,0,0,0,3.22-.52q3.18-1,6.41-2c4.28-1.27,8.61-2.42,13-3.43a115,115,0,0,1,13.21-2.42c8.91-1.23,18-.39,26.74,1.42,1.09.23,2.18.49,3.27.76a20.16,20.16,0,0,1,3.24,1,5.57,5.57,0,0,1,2.72,2.19,3.24,3.24,0,0,1,.38,1.82,2.69,2.69,0,0,1-.88,1.68,4.8,4.8,0,0,1-3.35,1.19,5.88,5.88,0,0,1-1.76-.32,3.46,3.46,0,0,1-1.58-1,1.75,1.75,0,0,1-.38-1,2.07,2.07,0,0,1,.2-1,2.27,2.27,0,0,1,4.27.41l-.06,0a2.18,2.18,0,0,0-2.59-1.11c-.86.34-1.41,1.56-.82,2.15a3.92,3.92,0,0,0,2.74,1,4.18,4.18,0,0,0,2.83-.94,2.1,2.1,0,0,0,.42-2.62,4.66,4.66,0,0,0-2.38-2,16.38,16.38,0,0,0-3.14-1c-1.08-.25-2.17-.49-3.26-.7a79.69,79.69,0,0,0-26.49-1c-4.41.54-8.78,1.37-13.13,2.34s-8.68,2-13,3.19c-2.15.59-4.28,1.21-6.42,1.86a14.8,14.8,0,0,1-3.38.53,5.29,5.29,0,0,1-3.37-.91,3,3,0,0,1-1-1.53,2.47,2.47,0,0,1,.24-1.91,3.08,3.08,0,0,1,1.46-1.2,4.24,4.24,0,0,1,1.8-.37,3.36,3.36,0,0,1,1.81.52,2.15,2.15,0,0,1,1.13,1.68,1.53,1.53,0,0,1-2.94.36Z"/><path class="cls-2" d="M126.09,622.31c.23-1.26,2.64-1.47,2.94.37a2.23,2.23,0,0,1-1.13,1.68,3.51,3.51,0,0,1-1.82.52,4.44,4.44,0,0,1-1.8-.38,3.07,3.07,0,0,1-1.46-1.2,2.44,2.44,0,0,1-.24-1.9,2.93,2.93,0,0,1,1-1.54A5.43,5.43,0,0,1,127,619a14.2,14.2,0,0,1,3.38.54c2.14.65,4.28,1.26,6.43,1.86,4.29,1.21,8.62,2.21,13,3.18s8.72,1.81,13.13,2.34a79.43,79.43,0,0,0,26.49-1c1.09-.2,2.18-.45,3.26-.7a15.71,15.71,0,0,0,3.14-1,4.64,4.64,0,0,0,2.38-1.95,2.11,2.11,0,0,0-.42-2.63,4.18,4.18,0,0,0-2.83-.94,4,4,0,0,0-2.74,1c-.58.6,0,1.81.82,2.16a2.18,2.18,0,0,0,2.59-1.12l.06,0a2.27,2.27,0,0,1-4.27.4,2,2,0,0,1-.2-1,1.7,1.7,0,0,1,.38-1,3.4,3.4,0,0,1,1.58-1,6.21,6.21,0,0,1,1.76-.32,4.76,4.76,0,0,1,3.35,1.2,2.66,2.66,0,0,1,.88,1.68,3.21,3.21,0,0,1-.38,1.81,5.48,5.48,0,0,1-2.72,2.19,19.2,19.2,0,0,1-3.24,1c-1.09.27-2.18.53-3.27.76-8.74,1.81-17.82,2.65-26.74,1.43a115.42,115.42,0,0,1-13.21-2.43c-4.35-1-8.68-2.15-13-3.43-2.14-.63-4.29-1.28-6.41-2a11.34,11.34,0,0,0-3.21-.52,4.6,4.6,0,0,0-3,.83,2.31,2.31,0,0,0-.76,1.2,1.75,1.75,0,0,0,.2,1.33,3.2,3.2,0,0,0,2.59,1.11,2.57,2.57,0,0,0,1.36-.39,1.49,1.49,0,0,0,.73-1c.06-.21-.31-.67-.72-.82a1,1,0,0,0-1.25.5Z"/><path class="cls-2" d="M442.56,622.22a1,1,0,0,0-1.24-.51c-.42.15-.78.62-.72.83a1.42,1.42,0,0,0,.73,1,2.57,2.57,0,0,0,1.36.39,3.18,3.18,0,0,0,2.58-1.11,1.75,1.75,0,0,0,.21-1.33,2.33,2.33,0,0,0-.77-1.2,4.57,4.57,0,0,0-2.95-.83,11.47,11.47,0,0,0-3.22.52c-2.12.67-4.26,1.32-6.4,2-4.28,1.28-8.61,2.42-13,3.43A115.82,115.82,0,0,1,406,627.74c-8.92,1.22-18,.38-26.74-1.43-1.1-.23-2.19-.49-3.27-.76a18.93,18.93,0,0,1-3.24-1,5.43,5.43,0,0,1-2.72-2.19,3.05,3.05,0,0,1-.38-1.81,2.65,2.65,0,0,1,.87-1.68,4.79,4.79,0,0,1,3.35-1.2,6.21,6.21,0,0,1,1.76.32,3.38,3.38,0,0,1,1.59,1,1.7,1.7,0,0,1,.38,1,1.92,1.92,0,0,1-.21,1,2.26,2.26,0,0,1-4.26-.41l.06,0a2.16,2.16,0,0,0,2.58,1.12c.86-.35,1.41-1.56.82-2.16a3.93,3.93,0,0,0-2.74-1,4.19,4.19,0,0,0-2.83.94,2.12,2.12,0,0,0-.41,2.63,4.71,4.71,0,0,0,2.37,2,16.12,16.12,0,0,0,3.14,1c1.09.25,2.17.5,3.26.7a79.75,79.75,0,0,0,26.5,1c4.41-.53,8.77-1.37,13.12-2.34s8.69-2,13-3.18c2.15-.6,4.28-1.21,6.43-1.86a14.2,14.2,0,0,1,3.37-.54,5.46,5.46,0,0,1,3.38.91,3.05,3.05,0,0,1,1.05,1.54,2.49,2.49,0,0,1-.24,1.9,3,3,0,0,1-1.47,1.2,4.22,4.22,0,0,1-1.79.37,3.39,3.39,0,0,1-1.82-.51,2.23,2.23,0,0,1-1.13-1.68c.3-1.84,2.71-1.63,2.94-.37Z"/><path class="cls-2" d="M114.43,627.85c-.23,1.26-2.64,1.47-2.94-.37a2.2,2.2,0,0,1,1.13-1.68,3.45,3.45,0,0,1,1.82-.51,4.22,4.22,0,0,1,1.79.37,3.1,3.1,0,0,1,1.47,1.2,2.49,2.49,0,0,1,.24,1.9,3,3,0,0,1-1.06,1.54,5.29,5.29,0,0,1-3.37.91,14.12,14.12,0,0,1-3.37-.54c-2.15-.64-4.28-1.26-6.43-1.86-4.29-1.21-8.63-2.21-13-3.18s-8.71-1.81-13.12-2.34a79.75,79.75,0,0,0-26.5,1.05c-1.09.21-2.17.45-3.26.7a16.38,16.38,0,0,0-3.14,1,4.66,4.66,0,0,0-2.37,2,2.11,2.11,0,0,0,.41,2.63,4.19,4.19,0,0,0,2.83.94,3.9,3.9,0,0,0,2.74-1c.59-.59,0-1.81-.82-2.15a2.17,2.17,0,0,0-2.59,1.11l-.06,0a2.27,2.27,0,0,1,4.27-.41,2.17,2.17,0,0,1,.21,1,1.71,1.71,0,0,1-.39,1,3.35,3.35,0,0,1-1.58,1,6.21,6.21,0,0,1-1.76.32,4.81,4.81,0,0,1-3.35-1.19,2.63,2.63,0,0,1-.87-1.69,3.12,3.12,0,0,1,.37-1.81,5.52,5.52,0,0,1,2.72-2.19,19.31,19.31,0,0,1,3.25-1c1.08-.27,2.17-.53,3.27-.76,8.74-1.81,17.82-2.65,26.74-1.43a115.82,115.82,0,0,1,13.21,2.43c4.35,1,8.68,2.15,13,3.43,2.14.63,4.28,1.28,6.4,2a11.85,11.85,0,0,0,3.22.53,4.64,4.64,0,0,0,3-.84,2.33,2.33,0,0,0,.77-1.2,1.8,1.8,0,0,0-.21-1.33,3.18,3.18,0,0,0-2.58-1.11,2.54,2.54,0,0,0-1.36.39,1.42,1.42,0,0,0-.73,1c-.06.21.3.68.72.83a1,1,0,0,0,1.24-.51Z"/><path class="cls-2" d="M113.73,623.17a1,1,0,0,0-1.24-.51c-.42.15-.78.62-.72.83a1.42,1.42,0,0,0,.73,1,2.57,2.57,0,0,0,1.36.39,3.16,3.16,0,0,0,2.58-1.12,1.72,1.72,0,0,0,.21-1.32,2.33,2.33,0,0,0-.77-1.2,4.64,4.64,0,0,0-2.95-.84,12.24,12.24,0,0,0-3.22.52c-2.12.68-4.26,1.33-6.4,2-4.28,1.28-8.61,2.42-13,3.43a118,118,0,0,1-13.21,2.43c-8.92,1.22-18,.38-26.74-1.43-1.1-.23-2.19-.49-3.27-.76a19.86,19.86,0,0,1-3.24-1,5.43,5.43,0,0,1-2.72-2.19,3.08,3.08,0,0,1-.38-1.82,2.73,2.73,0,0,1,.87-1.68A4.83,4.83,0,0,1,45,618.62a5.88,5.88,0,0,1,1.76.32,3.38,3.38,0,0,1,1.59,1,1.7,1.7,0,0,1,.38,1,1.94,1.94,0,0,1-.21,1,2.26,2.26,0,0,1-4.26-.41l.06,0a2.16,2.16,0,0,0,2.58,1.11c.86-.34,1.41-1.56.82-2.15a3.88,3.88,0,0,0-2.74-1,4.19,4.19,0,0,0-2.83.94,2.12,2.12,0,0,0-.41,2.63,4.71,4.71,0,0,0,2.37,2,16.83,16.83,0,0,0,3.14,1c1.09.25,2.17.49,3.26.7A79.75,79.75,0,0,0,77,627.69c4.41-.53,8.77-1.37,13.12-2.34s8.69-2,13-3.18c2.15-.6,4.28-1.22,6.43-1.86a14.2,14.2,0,0,1,3.37-.54,5.34,5.34,0,0,1,3.38.91,3.05,3.05,0,0,1,1,1.54,2.49,2.49,0,0,1-.24,1.9,3.1,3.1,0,0,1-1.47,1.2,4.22,4.22,0,0,1-1.79.37,3.48,3.48,0,0,1-1.82-.51,2.23,2.23,0,0,1-1.13-1.68c.3-1.84,2.71-1.63,2.94-.37Z"/><path class="cls-2" d="M276.62,621.94a1,1,0,0,0-1.24-.5c-.42.15-.78.61-.72.82a1.42,1.42,0,0,0,.73,1,2.57,2.57,0,0,0,1.36.39,3.18,3.18,0,0,0,2.58-1.11,1.77,1.77,0,0,0,.21-1.32,2.32,2.32,0,0,0-.77-1.21,4.57,4.57,0,0,0-2.95-.83,11.84,11.84,0,0,0-3.22.52c-2.12.67-4.26,1.32-6.4,2-4.28,1.28-8.61,2.42-13,3.43A115.82,115.82,0,0,1,240,627.46c-8.92,1.22-18,.38-26.74-1.43-1.1-.23-2.19-.48-3.27-.76a18.93,18.93,0,0,1-3.24-1,5.43,5.43,0,0,1-2.72-2.19,3.05,3.05,0,0,1-.38-1.81,2.65,2.65,0,0,1,.87-1.68,4.74,4.74,0,0,1,3.35-1.19,6.2,6.2,0,0,1,1.76.31,3.46,3.46,0,0,1,1.59,1,1.72,1.72,0,0,1,.38,1,1.92,1.92,0,0,1-.21,1,2.26,2.26,0,0,1-4.26-.4l.06,0a2.16,2.16,0,0,0,2.58,1.12c.86-.35,1.41-1.56.82-2.16a3.93,3.93,0,0,0-2.74-1,4.3,4.3,0,0,0-2.83.94,2.12,2.12,0,0,0-.41,2.63,4.66,4.66,0,0,0,2.37,2,16.12,16.12,0,0,0,3.14,1c1.09.26,2.17.5,3.26.71a79.75,79.75,0,0,0,26.5,1c4.41-.53,8.77-1.37,13.12-2.34s8.69-2,13-3.18c2.15-.6,4.28-1.21,6.43-1.86a14.72,14.72,0,0,1,3.37-.54,5.46,5.46,0,0,1,3.38.91,3.05,3.05,0,0,1,1.05,1.54,2.52,2.52,0,0,1-.24,1.91,3.16,3.16,0,0,1-1.47,1.2,4.38,4.38,0,0,1-1.79.37,3.49,3.49,0,0,1-1.82-.52,2.23,2.23,0,0,1-1.13-1.68c.3-1.84,2.71-1.63,2.94-.36Z"/><path class="cls-2" d="M23.29,369.08a1.37,1.37,0,0,1,1,1.45,1.68,1.68,0,0,1-.35,1,1.33,1.33,0,0,1-1,.56A2.21,2.21,0,0,1,21.23,371a3.25,3.25,0,0,1-.58-1.82,4.22,4.22,0,0,1,.36-1.83,3.18,3.18,0,0,1,1.21-1.47,2.79,2.79,0,0,1,3.52.66,5,5,0,0,1,1,3.37,13.54,13.54,0,0,1-.52,3.42c-.68,2.17-1.32,4.32-2,6.49-1.26,4.32-2.31,8.7-3.33,13.09a130.41,130.41,0,0,0-2.45,13.26,77.51,77.51,0,0,0,1.13,26.77c.22,1.1.48,2.2.75,3.29a14.55,14.55,0,0,0,1,3.15,4.45,4.45,0,0,0,2.1,2.29,2.24,2.24,0,0,0,2.67-.53,4.18,4.18,0,0,0,.94-2.87,3.76,3.76,0,0,0-1.1-2.71c-.65-.54-1.88,0-2.23.87A2.17,2.17,0,0,0,25,439l0,.06a2.34,2.34,0,0,1-1.7-2.84,2.38,2.38,0,0,1,1.25-1.44,2,2,0,0,1,2,.1,3.31,3.31,0,0,1,1.09,1.56A6.06,6.06,0,0,1,28,438.2a4.69,4.69,0,0,1-1.18,3.39,2.74,2.74,0,0,1-1.67.92,3.29,3.29,0,0,1-1.84-.28,5.32,5.32,0,0,1-2.36-2.63,18.65,18.65,0,0,1-1.07-3.27c-.28-1.09-.56-2.19-.8-3.3-1.91-8.82-2.8-18-1.52-27a113.68,113.68,0,0,1,2.54-13.34c1.06-4.39,2.25-8.76,3.58-13.08.66-2.16,1.34-4.32,2-6.45a11.31,11.31,0,0,0,.51-3.25,4.27,4.27,0,0,0-.95-2.94,2.34,2.34,0,0,0-1.26-.7,1.85,1.85,0,0,0-1.35.25,3.18,3.18,0,0,0-1.12,2.62,2.48,2.48,0,0,0,.42,1.36,1.48,1.48,0,0,0,1,.7c.24,0,.71-.32.86-.73a1,1,0,0,0-.54-1.25Z"/><path class="cls-2" d="M23,518.74a1,1,0,0,0,.54-1.25c-.15-.41-.62-.77-.86-.73a1.48,1.48,0,0,0-1,.7,2.51,2.51,0,0,0-.42,1.36,3.16,3.16,0,0,0,1.12,2.62,1.85,1.85,0,0,0,1.35.25A2.4,2.4,0,0,0,25,521a4.3,4.3,0,0,0,.94-2.93,11.2,11.2,0,0,0-.51-3.25c-.7-2.14-1.38-4.3-2-6.46-1.33-4.32-2.52-8.69-3.58-13.08a113.68,113.68,0,0,1-2.54-13.34c-1.28-9-.39-18.21,1.52-27,.24-1.11.52-2.21.8-3.3a17.89,17.89,0,0,1,1.08-3.27A5.26,5.26,0,0,1,23,445.7a3.29,3.29,0,0,1,1.84-.28,2.74,2.74,0,0,1,1.67.92,4.69,4.69,0,0,1,1.18,3.39,5.76,5.76,0,0,1-.36,1.78,3.31,3.31,0,0,1-1.09,1.56,2,2,0,0,1-2,.1A2.38,2.38,0,0,1,23,451.73a2.35,2.35,0,0,1,1.7-2.84l0,.06a2.17,2.17,0,0,0-1.18,2.59c.35.87,1.58,1.41,2.23.87a3.76,3.76,0,0,0,1.1-2.71,4.14,4.14,0,0,0-.94-2.86,2.23,2.23,0,0,0-2.67-.54,4.43,4.43,0,0,0-2.09,2.29,14.57,14.57,0,0,0-1.05,3.15c-.27,1.09-.53,2.19-.75,3.29a77.56,77.56,0,0,0-1.13,26.78,130.73,130.73,0,0,0,2.45,13.25c1,4.39,2.07,8.77,3.33,13.1.63,2.16,1.27,4.31,1.95,6.48a13.11,13.11,0,0,1,.52,3.42,5,5,0,0,1-1,3.37,2.79,2.79,0,0,1-3.52.66,3.18,3.18,0,0,1-1.21-1.47,4.22,4.22,0,0,1-.36-1.83,3.25,3.25,0,0,1,.58-1.82,2.18,2.18,0,0,1,1.73-1.07,1.26,1.26,0,0,1,1,.55,1.68,1.68,0,0,1,.35.95,1.36,1.36,0,0,1-1,1.45Z"/><path class="cls-2" d="M17.75,518.85a1.38,1.38,0,0,1-1-1.44,1.74,1.74,0,0,1,.36-.95,1.3,1.3,0,0,1,1-.56A2.21,2.21,0,0,1,19.82,517a3.47,3.47,0,0,1,.58,1.83,4.21,4.21,0,0,1-.37,1.82,3.14,3.14,0,0,1-1.2,1.48,2.8,2.8,0,0,1-3.52-.66,5,5,0,0,1-1.05-3.38,13.55,13.55,0,0,1,.53-3.42c.67-2.16,1.32-4.31,1.94-6.48,1.27-4.33,2.32-8.7,3.34-13.1a132.51,132.51,0,0,0,2.45-13.25A77.59,77.59,0,0,0,21.38,455c-.22-1.1-.48-2.19-.74-3.29a15.34,15.34,0,0,0-1.05-3.15,4.49,4.49,0,0,0-2.09-2.28,2.25,2.25,0,0,0-2.68.53,4.11,4.11,0,0,0-.93,2.86,3.8,3.8,0,0,0,1.1,2.72c.64.54,1.88,0,2.23-.87A2.19,2.19,0,0,0,16,449l0-.06a2.25,2.25,0,0,1,.45,4.27,1.94,1.94,0,0,1-2-.1,3.21,3.21,0,0,1-1.1-1.56,5.68,5.68,0,0,1-.35-1.77,4.69,4.69,0,0,1,1.18-3.4,2.85,2.85,0,0,1,1.66-.92,3.18,3.18,0,0,1,1.84.29,5.24,5.24,0,0,1,2.36,2.63,17.8,17.8,0,0,1,1.08,3.26c.28,1.1.56,2.2.8,3.3,1.9,8.83,2.8,18,1.51,27A113.42,113.42,0,0,1,21,495.28c-1.06,4.39-2.25,8.76-3.59,13.08-.65,2.15-1.34,4.32-2,6.45a11,11,0,0,0-.51,3.25,4.29,4.29,0,0,0,.94,2.93,2.35,2.35,0,0,0,1.27.71,1.85,1.85,0,0,0,1.35-.26,3.17,3.17,0,0,0,1.12-2.61,2.47,2.47,0,0,0-.43-1.36,1.45,1.45,0,0,0-1-.7c-.24,0-.71.31-.86.73a1,1,0,0,0,.54,1.25Z"/><path class="cls-2" d="M18.08,369.2a1,1,0,0,0-.54,1.24c.15.42.62.78.85.73a1.44,1.44,0,0,0,1-.7,2.46,2.46,0,0,0,.43-1.35,3.18,3.18,0,0,0-1.12-2.62,1.9,1.9,0,0,0-1.35-.26,2.42,2.42,0,0,0-1.27.71,4.29,4.29,0,0,0-.94,2.93,11.29,11.29,0,0,0,.5,3.25c.7,2.13,1.39,4.3,2,6.46,1.33,4.31,2.53,8.68,3.59,13.07A113.42,113.42,0,0,1,23.8,406c1.29,9,.39,18.2-1.52,27-.23,1.11-.51,2.2-.79,3.3a17.8,17.8,0,0,1-1.08,3.26,5.24,5.24,0,0,1-2.36,2.63,3.2,3.2,0,0,1-1.84.29,2.84,2.84,0,0,1-1.67-.92,4.76,4.76,0,0,1-1.18-3.4,6,6,0,0,1,.36-1.77,3.21,3.21,0,0,1,1.1-1.56,1.94,1.94,0,0,1,2-.1,2.37,2.37,0,0,1,1.26,1.43A2.35,2.35,0,0,1,16.35,439l0-.06a2.18,2.18,0,0,0,1.18-2.58c-.36-.87-1.59-1.41-2.23-.88a3.76,3.76,0,0,0-1.1,2.72,4.1,4.1,0,0,0,.93,2.86,2.24,2.24,0,0,0,2.68.53,4.49,4.49,0,0,0,2.09-2.28,15.34,15.34,0,0,0,1.05-3.15c.26-1.1.52-2.19.74-3.29a77.57,77.57,0,0,0,1.14-26.78,132.51,132.51,0,0,0-2.45-13.25c-1-4.4-2.07-8.77-3.34-13.1-.62-2.17-1.27-4.32-1.94-6.48a13.55,13.55,0,0,1-.53-3.42,5,5,0,0,1,1-3.38,2.79,2.79,0,0,1,3.51-.66,3.15,3.15,0,0,1,1.21,1.48,4.21,4.21,0,0,1,.37,1.82,3.47,3.47,0,0,1-.58,1.83A2.18,2.18,0,0,1,18.38,372a1.25,1.25,0,0,1-1-.56,1.71,1.71,0,0,1-.36-1,1.38,1.38,0,0,1,1-1.44Z"/><path class="cls-2" d="M23.64,529.88a1.38,1.38,0,0,1,1,1.44,1.66,1.66,0,0,1-.36.95,1.3,1.3,0,0,1-1,.56,2.19,2.19,0,0,1-1.74-1.08,3.32,3.32,0,0,1-.57-1.82,4.17,4.17,0,0,1,.36-1.82,3.1,3.1,0,0,1,1.21-1.48,2.79,2.79,0,0,1,3.51.66,5,5,0,0,1,1.05,3.38,14.08,14.08,0,0,1-.52,3.42c-.68,2.16-1.33,4.31-1.95,6.48-1.27,4.33-2.32,8.7-3.34,13.1a132.51,132.51,0,0,0-2.45,13.25A77.76,77.76,0,0,0,20,593.69c.22,1.11.48,2.2.74,3.29a14.94,14.94,0,0,0,1.05,3.15,4.48,4.48,0,0,0,2.09,2.29,2.25,2.25,0,0,0,2.68-.53A4.11,4.11,0,0,0,27.5,599a3.74,3.74,0,0,0-1.1-2.72c-.64-.54-1.87,0-2.22.87a2.17,2.17,0,0,0,1.17,2.59l0,.06A2.35,2.35,0,0,1,23.62,597a2.38,2.38,0,0,1,1.26-1.43,2,2,0,0,1,2,.1A3.26,3.26,0,0,1,28,597.22a6,6,0,0,1,.36,1.77,4.77,4.77,0,0,1-1.18,3.4,2.84,2.84,0,0,1-1.67.92,3.39,3.39,0,0,1-1.84-.29,5.28,5.28,0,0,1-2.36-2.63,17.8,17.8,0,0,1-1.08-3.26c-.28-1.1-.56-2.2-.79-3.3-1.91-8.83-2.8-18-1.52-27a111.65,111.65,0,0,1,2.54-13.34c1-4.39,2.25-8.76,3.58-13.08.65-2.15,1.34-4.32,2-6.45a11,11,0,0,0,.5-3.25,4.24,4.24,0,0,0-.94-2.93,2.35,2.35,0,0,0-1.27-.71,1.86,1.86,0,0,0-1.35.26,3.2,3.2,0,0,0-1.12,2.61,2.55,2.55,0,0,0,.43,1.36,1.44,1.44,0,0,0,1,.7c.23,0,.7-.31.85-.73a1,1,0,0,0-.53-1.25Z"/><path class="cls-2" d="M18.42,530a1,1,0,0,0-.54,1.24c.16.42.62.78.86.74a1.48,1.48,0,0,0,1-.7,2.6,2.6,0,0,0,.43-1.36,3.22,3.22,0,0,0-1.12-2.62,1.87,1.87,0,0,0-1.36-.25,2.34,2.34,0,0,0-1.26.7,4.26,4.26,0,0,0-.95,2.93,11.25,11.25,0,0,0,.51,3.25c.7,2.14,1.38,4.3,2,6.46,1.33,4.31,2.53,8.68,3.58,13.08a113.68,113.68,0,0,1,2.54,13.34c1.28,9,.39,18.21-1.52,27-.23,1.11-.51,2.21-.79,3.3a17.89,17.89,0,0,1-1.08,3.27A5.32,5.32,0,0,1,18.4,603a3.29,3.29,0,0,1-1.84.28,2.74,2.74,0,0,1-1.67-.92A4.69,4.69,0,0,1,13.71,599a6.06,6.06,0,0,1,.36-1.78,3.31,3.31,0,0,1,1.09-1.56,2,2,0,0,1,2-.1A2.4,2.4,0,0,1,18.41,597a2.35,2.35,0,0,1-1.71,2.84l0-.06a2.18,2.18,0,0,0,1.17-2.59c-.35-.87-1.58-1.41-2.23-.87A3.75,3.75,0,0,0,14.53,599a4.1,4.1,0,0,0,.93,2.86,2.22,2.22,0,0,0,2.68.53,4.42,4.42,0,0,0,2.09-2.28A15.14,15.14,0,0,0,21.28,597c.26-1.09.52-2.19.74-3.29a77.56,77.56,0,0,0,1.13-26.78,130.73,130.73,0,0,0-2.45-13.25c-1-4.39-2.07-8.77-3.33-13.1-.63-2.17-1.27-4.31-2-6.48a14,14,0,0,1-.52-3.42,5.06,5.06,0,0,1,1-3.37,2.81,2.81,0,0,1,3.52-.67,3.26,3.26,0,0,1,1.21,1.48,4.22,4.22,0,0,1,.36,1.83,3.32,3.32,0,0,1-.57,1.82,2.22,2.22,0,0,1-1.74,1.07,1.3,1.3,0,0,1-1-.55,1.68,1.68,0,0,1-.35-1,1.38,1.38,0,0,1,1-1.44Z"/><path class="cls-2" d="M443.15,20.92a1,1,0,0,0-1.24-.5c-.42.15-.78.61-.72.82a1.42,1.42,0,0,0,.73,1,2.54,2.54,0,0,0,1.36.39,3.18,3.18,0,0,0,2.58-1.11,1.8,1.8,0,0,0,.21-1.33,2.33,2.33,0,0,0-.77-1.2,4.57,4.57,0,0,0-2.95-.83,11.47,11.47,0,0,0-3.22.52c-2.12.67-4.26,1.32-6.4,1.95-4.28,1.28-8.61,2.42-13,3.43a115.82,115.82,0,0,1-13.21,2.43c-8.92,1.22-18,.38-26.74-1.43-1.1-.23-2.19-.49-3.27-.76a19.31,19.31,0,0,1-3.25-1,5.52,5.52,0,0,1-2.72-2.19,3.12,3.12,0,0,1-.37-1.81,2.61,2.61,0,0,1,.87-1.68,4.78,4.78,0,0,1,3.35-1.2,6.21,6.21,0,0,1,1.76.32,3.43,3.43,0,0,1,1.58,1,1.71,1.71,0,0,1,.39,1,2.15,2.15,0,0,1-.21,1,2.27,2.27,0,0,1-4.27-.4l.06,0a2.18,2.18,0,0,0,2.59,1.12c.86-.35,1.41-1.56.82-2.16a3.94,3.94,0,0,0-2.74-1,4.25,4.25,0,0,0-2.83.94,2.11,2.11,0,0,0-.41,2.63,4.62,4.62,0,0,0,2.37,1.95,15.71,15.71,0,0,0,3.14,1c1.09.26,2.17.5,3.26.71a79.75,79.75,0,0,0,26.5,1c4.41-.53,8.77-1.37,13.12-2.34s8.69-2,13-3.18c2.15-.6,4.28-1.21,6.43-1.86a14.12,14.12,0,0,1,3.37-.54,5.42,5.42,0,0,1,3.37.91A3,3,0,0,1,446.77,20a2.49,2.49,0,0,1-.24,1.9,3.12,3.12,0,0,1-1.47,1.21,4.39,4.39,0,0,1-1.8.37,3.45,3.45,0,0,1-1.81-.52,2.2,2.2,0,0,1-1.13-1.68c.3-1.84,2.71-1.63,2.94-.37Z"/><path class="cls-2" d="M276.62,21.53a1,1,0,0,0-1.24-.5c-.42.15-.78.61-.72.82a1.4,1.4,0,0,0,.73.95,2.57,2.57,0,0,0,1.36.39,3.18,3.18,0,0,0,2.58-1.11,1.77,1.77,0,0,0,.21-1.32,2.32,2.32,0,0,0-.77-1.21,4.57,4.57,0,0,0-2.95-.83,11.84,11.84,0,0,0-3.22.52c-2.12.67-4.26,1.32-6.4,2-4.28,1.28-8.61,2.42-13,3.43A113.67,113.67,0,0,1,240,27.05c-8.92,1.22-18,.38-26.74-1.43-1.1-.23-2.19-.48-3.27-.76a18.93,18.93,0,0,1-3.24-1,5.43,5.43,0,0,1-2.72-2.19,3,3,0,0,1-.38-1.81,2.65,2.65,0,0,1,.87-1.68A4.78,4.78,0,0,1,207.9,17a6.2,6.2,0,0,1,1.76.31,3.46,3.46,0,0,1,1.59,1,1.72,1.72,0,0,1,.38,1,1.92,1.92,0,0,1-.21,1,2.26,2.26,0,0,1-4.26-.4l.06,0A2.16,2.16,0,0,0,209.8,21c.86-.35,1.41-1.56.82-2.16a3.93,3.93,0,0,0-2.74-1,4.25,4.25,0,0,0-2.83.95,2.11,2.11,0,0,0-.41,2.62,4.72,4.72,0,0,0,2.37,2,16.81,16.81,0,0,0,3.14,1c1.09.26,2.17.5,3.26.71a79.75,79.75,0,0,0,26.5,1c4.41-.53,8.77-1.37,13.12-2.34s8.69-2,13-3.18c2.15-.6,4.28-1.21,6.43-1.86a14.72,14.72,0,0,1,3.37-.54,5.46,5.46,0,0,1,3.38.91,3.09,3.09,0,0,1,1.05,1.54,2.52,2.52,0,0,1-.24,1.91,3.16,3.16,0,0,1-1.47,1.2,4.38,4.38,0,0,1-1.79.37,3.49,3.49,0,0,1-1.82-.52,2.21,2.21,0,0,1-1.13-1.68c.3-1.84,2.71-1.63,2.94-.36Z"/><path class="cls-2" d="M290.92,21.16a1.53,1.53,0,0,1,2.94.37,2.18,2.18,0,0,1-1.13,1.68,3.44,3.44,0,0,1-1.81.51,4.24,4.24,0,0,1-1.8-.37,3.08,3.08,0,0,1-1.46-1.2,2.44,2.44,0,0,1-.24-1.9,2.93,2.93,0,0,1,1.05-1.54,5.29,5.29,0,0,1,3.37-.91,14.28,14.28,0,0,1,3.38.54c2.14.64,4.27,1.26,6.42,1.86,4.3,1.21,8.63,2.21,13,3.18s8.72,1.81,13.12,2.34a79.74,79.74,0,0,0,26.5-1c1.09-.21,2.18-.45,3.26-.7a16.38,16.38,0,0,0,3.14-1A4.62,4.62,0,0,0,363,21a2.11,2.11,0,0,0-.41-2.63,4.18,4.18,0,0,0-2.83-.94,3.92,3.92,0,0,0-2.74,1c-.59.59,0,1.81.82,2.15a2.17,2.17,0,0,0,2.59-1.11l.06,0a2.27,2.27,0,0,1-4.27.41,2.17,2.17,0,0,1-.21-1,1.78,1.78,0,0,1,.39-1A3.35,3.35,0,0,1,358,17a6.21,6.21,0,0,1,1.76-.32,4.8,4.8,0,0,1,3.35,1.19,2.69,2.69,0,0,1,.88,1.69,3.21,3.21,0,0,1-.38,1.81,5.52,5.52,0,0,1-2.72,2.19,19.2,19.2,0,0,1-3.24,1c-1.09.27-2.18.53-3.28.76-8.74,1.81-17.82,2.65-26.74,1.43a115.82,115.82,0,0,1-13.21-2.43c-4.35-1-8.68-2.15-13-3.43-2.14-.63-4.28-1.28-6.4-1.95a11.47,11.47,0,0,0-3.22-.52,4.57,4.57,0,0,0-2.95.83,2.33,2.33,0,0,0-.77,1.2,1.8,1.8,0,0,0,.21,1.33,3.18,3.18,0,0,0,2.58,1.11,2.57,2.57,0,0,0,1.37-.39,1.49,1.49,0,0,0,.73-.95c.05-.21-.31-.68-.72-.83a1,1,0,0,0-1.25.51Z"/><path class="cls-2" d="M290.44,25.84a1,1,0,0,0,1.25.51c.41-.15.77-.62.72-.83a1.49,1.49,0,0,0-.73-.95,2.57,2.57,0,0,0-1.36-.39,3.18,3.18,0,0,0-2.59,1.12,1.77,1.77,0,0,0-.21,1.32,2.29,2.29,0,0,0,.77,1.2,4.67,4.67,0,0,0,3,.84,12.1,12.1,0,0,0,3.21-.52q3.18-1,6.41-2c4.28-1.28,8.61-2.42,13-3.43A117.22,117.22,0,0,1,327,20.32c8.91-1.22,18-.38,26.74,1.43,1.09.23,2.18.49,3.27.76a20.16,20.16,0,0,1,3.24,1A5.52,5.52,0,0,1,363,25.7a3.24,3.24,0,0,1,.38,1.82,2.69,2.69,0,0,1-.88,1.68,4.8,4.8,0,0,1-3.35,1.19,5.88,5.88,0,0,1-1.76-.32,3.4,3.4,0,0,1-1.58-1,1.7,1.7,0,0,1-.38-1,2,2,0,0,1,.2-1,2.27,2.27,0,0,1,4.27.41l-.06,0a2.17,2.17,0,0,0-2.59-1.11c-.86.34-1.41,1.56-.82,2.15a3.92,3.92,0,0,0,2.74,1,4.18,4.18,0,0,0,2.83-.94,2.1,2.1,0,0,0,.42-2.62,4.66,4.66,0,0,0-2.38-2,16.38,16.38,0,0,0-3.14-1c-1.08-.25-2.17-.49-3.26-.7a79.69,79.69,0,0,0-26.49-1.05c-4.41.53-8.78,1.37-13.13,2.34s-8.68,2-13,3.18c-2.15.6-4.28,1.22-6.42,1.86a14.28,14.28,0,0,1-3.38.54,5.29,5.29,0,0,1-3.37-.91,2.93,2.93,0,0,1-1.05-1.54,2.44,2.44,0,0,1,.24-1.9,3.08,3.08,0,0,1,1.46-1.2,4.24,4.24,0,0,1,1.8-.37,3.44,3.44,0,0,1,1.81.51,2.18,2.18,0,0,1,1.13,1.68,1.53,1.53,0,0,1-2.94.37Z"/><path class="cls-2" d="M126.67,20.75a1.53,1.53,0,0,1,2.94.37,2.18,2.18,0,0,1-1.13,1.68,3.45,3.45,0,0,1-1.81.52,4.56,4.56,0,0,1-1.8-.37,3.1,3.1,0,0,1-1.46-1.21,2.44,2.44,0,0,1-.24-1.9,2.93,2.93,0,0,1,1-1.54,5.42,5.42,0,0,1,3.37-.91,14.28,14.28,0,0,1,3.38.54c2.14.65,4.27,1.26,6.42,1.86C141.69,21,146,22,150.37,23s8.72,1.81,13.13,2.34a79.43,79.43,0,0,0,26.49-1c1.09-.2,2.18-.44,3.26-.7a15.71,15.71,0,0,0,3.14-1,4.64,4.64,0,0,0,2.38-1.95,2.11,2.11,0,0,0-.42-2.63,4.18,4.18,0,0,0-2.83-.94,4,4,0,0,0-2.74,1c-.59.6,0,1.81.82,2.16a2.18,2.18,0,0,0,2.59-1.12l.06,0a2.27,2.27,0,0,1-4.27.4,2,2,0,0,1-.2-1,1.7,1.7,0,0,1,.38-1,3.4,3.4,0,0,1,1.58-1,6.21,6.21,0,0,1,1.76-.32,4.76,4.76,0,0,1,3.35,1.2,2.66,2.66,0,0,1,.88,1.68,3.21,3.21,0,0,1-.38,1.81,5.52,5.52,0,0,1-2.72,2.19,19.2,19.2,0,0,1-3.24,1c-1.09.27-2.18.53-3.27.76-8.75,1.81-17.83,2.65-26.74,1.43a115,115,0,0,1-13.21-2.43c-4.35-1-8.68-2.15-13-3.43q-3.22-.94-6.41-1.95a11.35,11.35,0,0,0-3.22-.52,4.59,4.59,0,0,0-3,.83,2.33,2.33,0,0,0-.77,1.2,1.8,1.8,0,0,0,.21,1.33,3.2,3.2,0,0,0,2.59,1.11,2.57,2.57,0,0,0,1.36-.39,1.49,1.49,0,0,0,.73-.95c.05-.21-.31-.67-.72-.82a1,1,0,0,0-1.25.5Z"/><path class="cls-2" d="M126.19,25.43a1,1,0,0,0,1.25.51c.41-.15.78-.61.72-.83a1.49,1.49,0,0,0-.73-.95,2.56,2.56,0,0,0-1.36-.38,3.17,3.17,0,0,0-2.59,1.11,1.72,1.72,0,0,0-.2,1.32,2.28,2.28,0,0,0,.76,1.2,4.67,4.67,0,0,0,3,.84,11.71,11.71,0,0,0,3.21-.52c2.12-.68,4.27-1.33,6.41-2,4.28-1.27,8.61-2.42,13-3.43a115.39,115.39,0,0,1,13.21-2.42c8.92-1.23,18-.39,26.74,1.43,1.09.22,2.18.48,3.27.75a20.16,20.16,0,0,1,3.24,1,5.53,5.53,0,0,1,2.72,2.19,3.24,3.24,0,0,1,.38,1.82,2.69,2.69,0,0,1-.88,1.68A4.8,4.8,0,0,1,194.91,30a5.88,5.88,0,0,1-1.76-.32,3.46,3.46,0,0,1-1.58-1,1.75,1.75,0,0,1-.38-1,2.07,2.07,0,0,1,.2-1,2.37,2.37,0,0,1,1.43-1.24,2.35,2.35,0,0,1,2.84,1.65l-.06,0A2.18,2.18,0,0,0,193,26c-.86.34-1.4,1.56-.82,2.16a4,4,0,0,0,2.74,1,4.18,4.18,0,0,0,2.83-.94,2.1,2.1,0,0,0,.42-2.62,4.66,4.66,0,0,0-2.38-2,16.38,16.38,0,0,0-3.14-1c-1.08-.25-2.17-.49-3.26-.7a79.69,79.69,0,0,0-26.49-1.05c-4.41.54-8.78,1.37-13.13,2.34s-8.68,2-13,3.19q-3.23.89-6.43,1.86a14.71,14.71,0,0,1-3.38.53,5.31,5.31,0,0,1-3.37-.91,3,3,0,0,1-1-1.53,2.47,2.47,0,0,1,.24-1.91,3.13,3.13,0,0,1,1.46-1.2,4.27,4.27,0,0,1,1.8-.37,3.42,3.42,0,0,1,1.82.52A2.19,2.19,0,0,1,129,25.11c-.3,1.83-2.71,1.63-2.94.36Z"/><path class="cls-2" d="M442.67,25.6c-.23,1.27-2.64,1.47-2.94-.36a2.19,2.19,0,0,1,1.13-1.68,3.4,3.4,0,0,1,1.82-.52,4.22,4.22,0,0,1,1.79.37,3.1,3.1,0,0,1,1.47,1.2,2.51,2.51,0,0,1,.24,1.91,3,3,0,0,1-1.05,1.53,5.34,5.34,0,0,1-3.38.91,14.71,14.71,0,0,1-3.37-.53c-2.15-.65-4.28-1.27-6.43-1.86-4.29-1.21-8.63-2.22-13-3.19s-8.71-1.8-13.12-2.34a79.75,79.75,0,0,0-26.5,1.05c-1.09.21-2.17.45-3.26.7a16.83,16.83,0,0,0-3.14,1,4.67,4.67,0,0,0-2.37,2,2.11,2.11,0,0,0,.41,2.62,4.25,4.25,0,0,0,2.83.95,4,4,0,0,0,2.74-1c.59-.6,0-1.82-.82-2.16a2.17,2.17,0,0,0-2.58,1.11l-.06,0a2.26,2.26,0,0,1,4.26-.41,2,2,0,0,1,.21,1,1.75,1.75,0,0,1-.38,1,3.54,3.54,0,0,1-1.59,1,6.2,6.2,0,0,1-1.76.31,4.83,4.83,0,0,1-3.35-1.19,2.68,2.68,0,0,1-.87-1.68,3,3,0,0,1,.38-1.81,5.45,5.45,0,0,1,2.72-2.2,19.86,19.86,0,0,1,3.24-1c1.08-.27,2.17-.53,3.27-.75,8.74-1.82,17.82-2.66,26.74-1.43a115.79,115.79,0,0,1,13.21,2.42c4.35,1,8.68,2.16,13,3.43,2.14.63,4.28,1.28,6.4,2a11.84,11.84,0,0,0,3.22.52,4.63,4.63,0,0,0,2.95-.83,2.36,2.36,0,0,0,.77-1.21,1.72,1.72,0,0,0-.21-1.32,3.15,3.15,0,0,0-2.58-1.11,2.56,2.56,0,0,0-1.36.38,1.42,1.42,0,0,0-.73,1c-.06.21.3.67.72.82a1,1,0,0,0,1.24-.51Z"/><path class="cls-2" d="M114.32,20a1,1,0,0,0-1.24-.5c-.42.15-.78.61-.72.82a1.4,1.4,0,0,0,.73.95,2.46,2.46,0,0,0,1.36.39A3.18,3.18,0,0,0,117,20.52a1.77,1.77,0,0,0,.21-1.32,2.32,2.32,0,0,0-.77-1.21,4.57,4.57,0,0,0-3-.83,11.84,11.84,0,0,0-3.22.52c-2.12.67-4.26,1.33-6.4,1.95-4.28,1.28-8.61,2.42-13,3.43a113.67,113.67,0,0,1-13.21,2.43c-8.92,1.22-18,.38-26.74-1.43-1.1-.23-2.19-.48-3.27-.76a19.31,19.31,0,0,1-3.25-1,5.52,5.52,0,0,1-2.72-2.19,3.11,3.11,0,0,1-.37-1.81,2.61,2.61,0,0,1,.87-1.68,4.77,4.77,0,0,1,3.35-1.19,6.2,6.2,0,0,1,1.76.31,3.43,3.43,0,0,1,1.58,1,1.73,1.73,0,0,1,.39,1,2.15,2.15,0,0,1-.21,1,2.27,2.27,0,0,1-4.27-.4l.06,0a2.18,2.18,0,0,0,2.59,1.12c.86-.35,1.41-1.56.82-2.16a4,4,0,0,0-2.74-1,4.25,4.25,0,0,0-2.83,1,2.09,2.09,0,0,0-.41,2.62,4.68,4.68,0,0,0,2.37,2,16.36,16.36,0,0,0,3.14,1c1.09.26,2.17.5,3.26.71a80,80,0,0,0,26.5,1.05C82,24,86.38,23.12,90.73,22.16s8.69-2,13-3.19c2.15-.6,4.28-1.21,6.43-1.86a14.63,14.63,0,0,1,3.37-.54,5.42,5.42,0,0,1,3.37.91A3,3,0,0,1,117.94,19a2.52,2.52,0,0,1-.24,1.91,3.16,3.16,0,0,1-1.47,1.2,4.38,4.38,0,0,1-1.79.37,3.37,3.37,0,0,1-1.82-.52,2.19,2.19,0,0,1-1.13-1.68c.3-1.84,2.71-1.63,2.94-.36Z"/><path class="cls-2" d="M113.84,24.65c-.23,1.27-2.64,1.47-2.94-.36A2.19,2.19,0,0,1,112,22.61a3.4,3.4,0,0,1,1.82-.52,4.38,4.38,0,0,1,1.79.37,3.16,3.16,0,0,1,1.47,1.2,2.51,2.51,0,0,1,.24,1.91,3.09,3.09,0,0,1-1,1.54,5.46,5.46,0,0,1-3.38.91,14.72,14.72,0,0,1-3.37-.54c-2.15-.65-4.28-1.26-6.43-1.86-4.29-1.21-8.63-2.21-13-3.19S81.43,20.63,77,20.09a79.75,79.75,0,0,0-26.5,1.05c-1.09.21-2.17.45-3.26.71a16.1,16.1,0,0,0-3.14,1,4.72,4.72,0,0,0-2.37,2,2.11,2.11,0,0,0,.41,2.62,4.25,4.25,0,0,0,2.83,1,4,4,0,0,0,2.74-1c.59-.6,0-1.81-.82-2.16a2.17,2.17,0,0,0-2.58,1.11l-.06,0a2.34,2.34,0,0,1,2.84-1.64,2.37,2.37,0,0,1,1.42,1.23,2,2,0,0,1,.21,1,1.75,1.75,0,0,1-.38,1,3.46,3.46,0,0,1-1.59,1,6.2,6.2,0,0,1-1.76.31A4.83,4.83,0,0,1,41.66,28a2.7,2.7,0,0,1-.87-1.68,3,3,0,0,1,.38-1.81,5.45,5.45,0,0,1,2.72-2.2,19.86,19.86,0,0,1,3.24-1c1.08-.27,2.17-.53,3.27-.75,8.74-1.82,17.82-2.66,26.74-1.43a115.79,115.79,0,0,1,13.21,2.42c4.35,1,8.68,2.16,13,3.44,2.14.62,4.28,1.27,6.4,1.95a11.84,11.84,0,0,0,3.22.52,4.57,4.57,0,0,0,2.95-.83,2.32,2.32,0,0,0,.77-1.21,1.72,1.72,0,0,0-.21-1.32A3.18,3.18,0,0,0,113.86,23a2.56,2.56,0,0,0-1.36.38,1.44,1.44,0,0,0-.73,1c-.06.21.3.67.72.82a1,1,0,0,0,1.24-.5Z"/><path class="cls-2" d="M276.73,25.88c-.23,1.26-2.64,1.47-2.94-.37a2.23,2.23,0,0,1,1.13-1.68,3.48,3.48,0,0,1,1.82-.51,4.22,4.22,0,0,1,1.79.37,3.1,3.1,0,0,1,1.47,1.2,2.49,2.49,0,0,1,.24,1.9,3.05,3.05,0,0,1-1.05,1.54,5.34,5.34,0,0,1-3.38.91,14.2,14.2,0,0,1-3.37-.54c-2.15-.64-4.28-1.26-6.43-1.86-4.29-1.21-8.63-2.21-13-3.18s-8.71-1.81-13.12-2.34a79.75,79.75,0,0,0-26.5,1.05c-1.09.21-2.17.45-3.26.7a16.83,16.83,0,0,0-3.14,1,4.67,4.67,0,0,0-2.37,2,2.11,2.11,0,0,0,.41,2.62,4.19,4.19,0,0,0,2.83.94,3.88,3.88,0,0,0,2.74-1c.59-.59,0-1.81-.82-2.15a2.16,2.16,0,0,0-2.58,1.11l-.06,0a2.26,2.26,0,0,1,4.26-.41,1.94,1.94,0,0,1,.21,1,1.7,1.7,0,0,1-.38,1,3.38,3.38,0,0,1-1.59,1,5.88,5.88,0,0,1-1.76.32,4.83,4.83,0,0,1-3.35-1.19,2.68,2.68,0,0,1-.87-1.68,3.08,3.08,0,0,1,.38-1.82,5.43,5.43,0,0,1,2.72-2.19,19.86,19.86,0,0,1,3.24-1c1.08-.27,2.17-.53,3.27-.76C222,19.94,231.11,19.1,240,20.32a118,118,0,0,1,13.21,2.43c4.35,1,8.68,2.15,13,3.43,2.14.63,4.28,1.28,6.4,2a12.24,12.24,0,0,0,3.22.52,4.64,4.64,0,0,0,2.95-.84,2.29,2.29,0,0,0,.77-1.2,1.77,1.77,0,0,0-.21-1.32,3.16,3.16,0,0,0-2.58-1.12,2.57,2.57,0,0,0-1.36.39,1.42,1.42,0,0,0-.73.95c-.06.21.3.68.72.83a1,1,0,0,0,1.24-.51Z"/><path class="cls-2" d="M23.26,278.59a1,1,0,0,0,.54-1.24c-.15-.42-.62-.78-.86-.73a1.41,1.41,0,0,0-1,.7,2.45,2.45,0,0,0-.42,1.35,3.15,3.15,0,0,0,1.12,2.62,1.9,1.9,0,0,0,1.35.26,2.43,2.43,0,0,0,1.26-.71,4.25,4.25,0,0,0,.95-2.93,11.31,11.31,0,0,0-.51-3.25c-.7-2.13-1.38-4.3-2-6.46-1.33-4.31-2.52-8.68-3.58-13.07a113.45,113.45,0,0,1-2.54-13.35c-1.28-9-.39-18.2,1.52-27,.24-1.11.52-2.2.8-3.3a18.55,18.55,0,0,1,1.07-3.26,5.24,5.24,0,0,1,2.36-2.63,3.21,3.21,0,0,1,1.84-.29,2.84,2.84,0,0,1,1.67.92,4.71,4.71,0,0,1,1.18,3.4,6,6,0,0,1-.36,1.77,3.26,3.26,0,0,1-1.09,1.56,2,2,0,0,1-2,.1,2.39,2.39,0,0,1-1.25-1.43,2.33,2.33,0,0,1,1.7-2.84l0,.06a2.16,2.16,0,0,0-1.17,2.58c.35.87,1.58,1.41,2.23.88a3.8,3.8,0,0,0,1.1-2.72,4.16,4.16,0,0,0-.94-2.86,2.22,2.22,0,0,0-2.67-.53,4.43,4.43,0,0,0-2.1,2.28,14.73,14.73,0,0,0-1,3.15c-.27,1.1-.53,2.19-.75,3.29a77.56,77.56,0,0,0-1.13,26.78A130.73,130.73,0,0,0,21,254.91c1,4.4,2.07,8.77,3.33,13.1.63,2.17,1.27,4.32,2,6.48a13.54,13.54,0,0,1,.52,3.42,5,5,0,0,1-1,3.37,2.8,2.8,0,0,1-3.52.67A3.21,3.21,0,0,1,21,280.47a4.2,4.2,0,0,1-.36-1.82,3.3,3.3,0,0,1,.58-1.83A2.18,2.18,0,0,1,23,275.75a1.28,1.28,0,0,1,1,.56,1.63,1.63,0,0,1,.35.95,1.37,1.37,0,0,1-1,1.44Z"/><path class="cls-2" d="M23,128.94a1.36,1.36,0,0,1,1,1.44,1.65,1.65,0,0,1-.35,1,1.3,1.3,0,0,1-1,.56,2.19,2.19,0,0,1-1.73-1.08,3.25,3.25,0,0,1-.58-1.82,4.17,4.17,0,0,1,.36-1.82,3.16,3.16,0,0,1,1.21-1.48,2.81,2.81,0,0,1,3.52.66,5,5,0,0,1,1,3.38,13,13,0,0,1-.52,3.41c-.68,2.17-1.32,4.32-1.95,6.49-1.26,4.33-2.31,8.7-3.33,13.09A130.41,130.41,0,0,0,18.24,166a77.51,77.51,0,0,0,1.13,26.77c.22,1.11.48,2.2.75,3.29a14.39,14.39,0,0,0,1.05,3.15,4.43,4.43,0,0,0,2.09,2.29,2.24,2.24,0,0,0,2.67-.53,4.17,4.17,0,0,0,.94-2.86,3.78,3.78,0,0,0-1.1-2.72c-.65-.54-1.88,0-2.23.87a2.17,2.17,0,0,0,1.18,2.59l0,.06a2.26,2.26,0,0,1-.45-4.27,2,2,0,0,1,2,.1,3.26,3.26,0,0,1,1.09,1.56,5.7,5.7,0,0,1,.36,1.77,4.73,4.73,0,0,1-1.18,3.4,2.84,2.84,0,0,1-1.67.92,3.39,3.39,0,0,1-1.84-.29,5.22,5.22,0,0,1-2.35-2.63,17.8,17.8,0,0,1-1.08-3.26c-.28-1.1-.56-2.2-.8-3.3-1.91-8.83-2.8-18-1.52-27a113.68,113.68,0,0,1,2.54-13.34c1.06-4.39,2.25-8.76,3.58-13.08.66-2.15,1.34-4.32,2-6.45a11.31,11.31,0,0,0,.51-3.25A4.29,4.29,0,0,0,25,126.8a2.36,2.36,0,0,0-1.27-.71,1.85,1.85,0,0,0-1.35.26A3.14,3.14,0,0,0,21.23,129a2.46,2.46,0,0,0,.42,1.36,1.44,1.44,0,0,0,1,.7c.24,0,.71-.31.86-.73A1,1,0,0,0,23,129Z"/><path class="cls-2" d="M17.79,129a1,1,0,0,0-.54,1.24c.15.42.62.78.86.74a1.48,1.48,0,0,0,1-.7,2.52,2.52,0,0,0,.43-1.36,3.19,3.19,0,0,0-1.12-2.62,1.85,1.85,0,0,0-1.35-.25,2.33,2.33,0,0,0-1.27.7,4.29,4.29,0,0,0-.94,2.93,10.92,10.92,0,0,0,.51,3.25c.69,2.13,1.38,4.3,2,6.46,1.34,4.31,2.53,8.68,3.59,13.07a113.42,113.42,0,0,1,2.53,13.35c1.29,9,.39,18.21-1.51,27-.24,1.11-.52,2.2-.8,3.3a17.55,17.55,0,0,1-1.08,3.26,5.2,5.2,0,0,1-2.36,2.63,3.18,3.18,0,0,1-1.84.29,2.79,2.79,0,0,1-1.66-.92,4.66,4.66,0,0,1-1.18-3.39,5.74,5.74,0,0,1,.35-1.78,3.26,3.26,0,0,1,1.1-1.56,1.94,1.94,0,0,1,2-.1,2.37,2.37,0,0,1,1.26,1.44,2.34,2.34,0,0,1-1.71,2.83l0-.06a2.18,2.18,0,0,0,1.18-2.58c-.35-.87-1.59-1.41-2.23-.87a3.76,3.76,0,0,0-1.1,2.71,4.1,4.1,0,0,0,.93,2.86,2.23,2.23,0,0,0,2.68.53,4.45,4.45,0,0,0,2.09-2.28A15.14,15.14,0,0,0,20.64,196c.26-1.09.52-2.19.74-3.29A77.56,77.56,0,0,0,22.52,166a133.57,133.57,0,0,0-2.45-13.25c-1-4.39-2.07-8.77-3.34-13.1-.62-2.17-1.27-4.31-1.94-6.48a13.55,13.55,0,0,1-.53-3.42,5,5,0,0,1,1.05-3.37,2.81,2.81,0,0,1,3.52-.67,3.24,3.24,0,0,1,1.2,1.48A4.21,4.21,0,0,1,20.4,129a3.44,3.44,0,0,1-.58,1.83,2.18,2.18,0,0,1-1.73,1.07,1.26,1.26,0,0,1-1-.55,1.77,1.77,0,0,1-.36-1,1.38,1.38,0,0,1,1-1.44Z"/><path class="cls-2" d="M18,278.69a1.37,1.37,0,0,1-1-1.44,1.77,1.77,0,0,1,.36-.95,1.3,1.3,0,0,1,1-.56,2.19,2.19,0,0,1,1.73,1.08,3.41,3.41,0,0,1,.58,1.82,4.22,4.22,0,0,1-.37,1.83,3.12,3.12,0,0,1-1.21,1.47,2.78,2.78,0,0,1-3.51-.66,5,5,0,0,1-1-3.38,13.55,13.55,0,0,1,.53-3.41c.67-2.17,1.32-4.32,1.94-6.49,1.27-4.33,2.32-8.7,3.34-13.09a133.23,133.23,0,0,0,2.45-13.26,77.52,77.52,0,0,0-1.14-26.77c-.22-1.11-.48-2.2-.74-3.29a15.14,15.14,0,0,0-1.05-3.15,4.48,4.48,0,0,0-2.09-2.29,2.25,2.25,0,0,0-2.68.53,4.11,4.11,0,0,0-.93,2.86,3.72,3.72,0,0,0,1.1,2.72c.64.54,1.87,0,2.23-.87a2.19,2.19,0,0,0-1.18-2.59l0-.06a2.35,2.35,0,0,1,1.71,2.84A2.32,2.32,0,0,1,16.8,213a1.94,1.94,0,0,1-2-.1,3.23,3.23,0,0,1-1.1-1.55,6.06,6.06,0,0,1-.36-1.78,4.77,4.77,0,0,1,1.18-3.4,2.84,2.84,0,0,1,1.67-.92,3.37,3.37,0,0,1,1.84.29,5.28,5.28,0,0,1,2.36,2.63,17.8,17.8,0,0,1,1.08,3.26c.28,1.1.56,2.2.79,3.31,1.91,8.82,2.81,18,1.52,27a113.65,113.65,0,0,1-2.53,13.34c-1.06,4.39-2.26,8.76-3.59,13.08-.65,2.16-1.34,4.32-2,6.45a11.29,11.29,0,0,0-.5,3.25,4.33,4.33,0,0,0,.94,2.94,2.33,2.33,0,0,0,1.27.7,1.85,1.85,0,0,0,1.35-.26,3.17,3.17,0,0,0,1.12-2.61,2.47,2.47,0,0,0-.43-1.36,1.44,1.44,0,0,0-1-.7c-.23,0-.7.32-.85.73a1,1,0,0,0,.54,1.25Z"/><path class="cls-2" d="M23.61,117.8a1,1,0,0,0,.53-1.25c-.15-.41-.62-.77-.85-.73a1.48,1.48,0,0,0-1,.7,2.6,2.6,0,0,0-.43,1.36A3.24,3.24,0,0,0,23,120.5a1.86,1.86,0,0,0,1.35.25,2.33,2.33,0,0,0,1.27-.7,4.26,4.26,0,0,0,.94-2.94,11,11,0,0,0-.5-3.25c-.7-2.13-1.39-4.29-2-6.45-1.33-4.32-2.53-8.69-3.58-13.08A111.65,111.65,0,0,1,17.88,81c-1.28-9-.39-18.21,1.52-27,.23-1.11.51-2.21.79-3.3a17.89,17.89,0,0,1,1.08-3.27,5.32,5.32,0,0,1,2.36-2.63,3.29,3.29,0,0,1,1.84-.28,2.74,2.74,0,0,1,1.67.92,4.73,4.73,0,0,1,1.18,3.39A6.06,6.06,0,0,1,28,50.57a3.31,3.31,0,0,1-1.09,1.56,2,2,0,0,1-2,.1,2.4,2.4,0,0,1-1.26-1.44A2.35,2.35,0,0,1,25.33,48l0,.06a2.17,2.17,0,0,0-1.17,2.59c.35.87,1.58,1.41,2.22.87a3.72,3.72,0,0,0,1.1-2.71,4.08,4.08,0,0,0-.93-2.86,2.24,2.24,0,0,0-2.68-.54,4.48,4.48,0,0,0-2.09,2.29,15.14,15.14,0,0,0-1.05,3.15c-.26,1.09-.52,2.19-.74,3.29a77.81,77.81,0,0,0-1.14,26.78,133.57,133.57,0,0,0,2.45,13.25c1,4.39,2.07,8.77,3.34,13.09.62,2.17,1.27,4.32,1.95,6.49a14,14,0,0,1,.52,3.42,5,5,0,0,1-1.05,3.37,2.78,2.78,0,0,1-3.51.66,3.12,3.12,0,0,1-1.21-1.47,4.22,4.22,0,0,1-.36-1.83,3.32,3.32,0,0,1,.57-1.82A2.18,2.18,0,0,1,23.31,115a1.26,1.26,0,0,1,1,.55,1.69,1.69,0,0,1,.36.95,1.38,1.38,0,0,1-1,1.45Z"/><path class="cls-2" d="M18.39,117.9a1.38,1.38,0,0,1-1-1.44,1.65,1.65,0,0,1,.35-.95,1.28,1.28,0,0,1,1-.56A2.22,2.22,0,0,1,20.46,116a3.37,3.37,0,0,1,.57,1.83,4.2,4.2,0,0,1-.36,1.82,3.21,3.21,0,0,1-1.21,1.48,2.81,2.81,0,0,1-3.52-.66,5.08,5.08,0,0,1-1-3.38,14,14,0,0,1,.52-3.42c.68-2.16,1.32-4.31,2-6.48,1.26-4.33,2.32-8.7,3.33-13.1a129.72,129.72,0,0,0,2.45-13.25A77.58,77.58,0,0,0,22,54.08c-.22-1.1-.48-2.19-.74-3.29a15.34,15.34,0,0,0-1.05-3.15,4.49,4.49,0,0,0-2.09-2.28,2.24,2.24,0,0,0-2.68.53,4.11,4.11,0,0,0-.93,2.86,3.79,3.79,0,0,0,1.09,2.72c.65.53,1.88,0,2.23-.88A2.16,2.16,0,0,0,16.68,48l0-.06a2.35,2.35,0,0,1,1.71,2.84,2.41,2.41,0,0,1-1.26,1.43,2,2,0,0,1-2-.1,3.26,3.26,0,0,1-1.09-1.56,6,6,0,0,1-.36-1.77,4.71,4.71,0,0,1,1.18-3.4,2.84,2.84,0,0,1,1.67-.92,3.21,3.21,0,0,1,1.84.29,5.28,5.28,0,0,1,2.36,2.63,17.8,17.8,0,0,1,1.08,3.26c.28,1.1.56,2.2.79,3.3,1.91,8.83,2.8,18,1.52,27a113.45,113.45,0,0,1-2.54,13.35c-1.05,4.39-2.25,8.76-3.58,13.08-.66,2.15-1.34,4.32-2,6.45a11.31,11.31,0,0,0-.51,3.25,4.25,4.25,0,0,0,.95,2.93,2.36,2.36,0,0,0,1.26.71,1.88,1.88,0,0,0,1.36-.26,3.21,3.21,0,0,0,1.12-2.62,2.54,2.54,0,0,0-.43-1.35,1.44,1.44,0,0,0-1-.7c-.24,0-.7.31-.86.73a1,1,0,0,0,.54,1.24Z"/><path class="cls-2" d="M520.94,20.88c.23-1.26,2.64-1.47,2.94.37a2.23,2.23,0,0,1-1.13,1.68,3.51,3.51,0,0,1-1.82.52,4.46,4.46,0,0,1-1.8-.37,3.15,3.15,0,0,1-1.46-1.21,2.44,2.44,0,0,1-.24-1.9,2.93,2.93,0,0,1,1.05-1.54,5.43,5.43,0,0,1,3.37-.91,14.2,14.2,0,0,1,3.38.54c2.14.65,4.28,1.26,6.43,1.86,4.29,1.21,8.62,2.21,13,3.18a133,133,0,0,0,13.12,2.34,79.69,79.69,0,0,0,26.49-1c1.09-.21,2.18-.45,3.26-.71a15.71,15.71,0,0,0,3.14-1A4.64,4.64,0,0,0,593,20.76a2.11,2.11,0,0,0-.42-2.63,4.22,4.22,0,0,0-2.82-.94,4,4,0,0,0-2.75,1c-.58.6,0,1.81.82,2.16a2.17,2.17,0,0,0,2.59-1.12l.06,0a2.34,2.34,0,0,1-2.84,1.64,2.3,2.3,0,0,1-1.42-1.24,1.92,1.92,0,0,1-.21-1,1.7,1.7,0,0,1,.38-1,3.48,3.48,0,0,1,1.58-1,6.21,6.21,0,0,1,1.76-.32,4.76,4.76,0,0,1,3.35,1.2,2.66,2.66,0,0,1,.88,1.68,3.21,3.21,0,0,1-.38,1.81,5.48,5.48,0,0,1-2.72,2.19,19.2,19.2,0,0,1-3.24,1c-1.09.27-2.18.53-3.27.76-8.74,1.81-17.82,2.65-26.74,1.43A115.42,115.42,0,0,1,544.43,24c-4.35-1-8.68-2.15-13-3.43-2.14-.63-4.29-1.28-6.41-1.95a11.34,11.34,0,0,0-3.21-.52,4.6,4.6,0,0,0-3,.83,2.31,2.31,0,0,0-.76,1.2,1.75,1.75,0,0,0,.2,1.33,3.2,3.2,0,0,0,2.59,1.11,2.57,2.57,0,0,0,1.36-.39,1.49,1.49,0,0,0,.73-1c.06-.21-.31-.67-.72-.82a1,1,0,0,0-1.25.5Z"/><path class="cls-2" d="M687.46,21.5a1.52,1.52,0,0,1,2.94.36,2.16,2.16,0,0,1-1.13,1.68,3.45,3.45,0,0,1-1.81.52,4.43,4.43,0,0,1-1.8-.37,3.14,3.14,0,0,1-1.46-1.2,2.47,2.47,0,0,1-.24-1.91A3,3,0,0,1,685,19a5.43,5.43,0,0,1,3.37-.91,14.72,14.72,0,0,1,3.38.54c2.14.65,4.28,1.26,6.43,1.86,4.29,1.21,8.62,2.21,13,3.18s8.72,1.81,13.13,2.34a79.69,79.69,0,0,0,26.49-1c1.09-.21,2.18-.45,3.26-.71a16.36,16.36,0,0,0,3.14-1,4.71,4.71,0,0,0,2.38-2,2.1,2.1,0,0,0-.42-2.62,4.24,4.24,0,0,0-2.83-.95,4,4,0,0,0-2.74,1c-.58.6,0,1.81.82,2.16A2.18,2.18,0,0,0,757,19.85l.06,0a2.27,2.27,0,0,1-4.27.4,2,2,0,0,1-.2-1,1.72,1.72,0,0,1,.38-1,3.48,3.48,0,0,1,1.58-1,6.2,6.2,0,0,1,1.76-.31,4.75,4.75,0,0,1,3.35,1.19,2.66,2.66,0,0,1,.88,1.68,3.19,3.19,0,0,1-.38,1.81,5.48,5.48,0,0,1-2.72,2.19,19.2,19.2,0,0,1-3.24,1c-1.09.28-2.18.53-3.27.76-8.74,1.81-17.83,2.65-26.74,1.43A113.28,113.28,0,0,1,711,24.62c-4.35-1-8.68-2.15-13-3.43-2.14-.63-4.29-1.28-6.41-2a11.71,11.71,0,0,0-3.21-.52,4.6,4.6,0,0,0-3,.83,2.3,2.3,0,0,0-.76,1.21,1.73,1.73,0,0,0,.2,1.32,3.2,3.2,0,0,0,2.59,1.11,2.57,2.57,0,0,0,1.36-.39,1.46,1.46,0,0,0,.73-.95c.06-.21-.31-.67-.72-.82a1,1,0,0,0-1.25.5Z"/><path class="cls-2" d="M673.17,21.2a1,1,0,0,0-1.25-.51c-.42.15-.78.62-.72.83a1.45,1.45,0,0,0,.73.95,2.57,2.57,0,0,0,1.36.39,3.17,3.17,0,0,0,2.58-1.11,1.71,1.71,0,0,0,.21-1.33,2.31,2.31,0,0,0-.76-1.2,4.6,4.6,0,0,0-3-.83,11.34,11.34,0,0,0-3.21.52c-2.12.67-4.27,1.32-6.41,1.95-4.28,1.28-8.61,2.42-13,3.43a115.42,115.42,0,0,1-13.21,2.43c-8.92,1.22-18,.38-26.74-1.43-1.1-.23-2.18-.49-3.27-.76a19.2,19.2,0,0,1-3.24-1,5.48,5.48,0,0,1-2.72-2.19,3.13,3.13,0,0,1-.38-1.81,2.72,2.72,0,0,1,.87-1.69,4.84,4.84,0,0,1,3.36-1.19,6.28,6.28,0,0,1,1.76.32,3.4,3.4,0,0,1,1.58,1,1.7,1.7,0,0,1,.38,1,1.94,1.94,0,0,1-.21,1,2.3,2.3,0,0,1-1.42,1.24,2.35,2.35,0,0,1-2.84-1.65l.06,0a2.17,2.17,0,0,0,2.59,1.11c.86-.34,1.4-1.56.81-2.15a3.88,3.88,0,0,0-2.74-1,4.15,4.15,0,0,0-2.82.94,2.11,2.11,0,0,0-.42,2.63A4.69,4.69,0,0,0,603.56,23a16.38,16.38,0,0,0,3.14,1c1.08.25,2.16.49,3.26.7a79.69,79.69,0,0,0,26.49,1,133,133,0,0,0,13.12-2.34c4.35-1,8.69-2,13-3.18q3.23-.9,6.43-1.86a14.2,14.2,0,0,1,3.37-.54,5.34,5.34,0,0,1,3.38.91,3.05,3.05,0,0,1,1,1.54,2.49,2.49,0,0,1-.24,1.9,3.13,3.13,0,0,1-1.46,1.2,4.3,4.3,0,0,1-1.8.37,3.48,3.48,0,0,1-1.82-.51,2.23,2.23,0,0,1-1.13-1.68c.3-1.84,2.71-1.63,2.94-.37Z"/><path class="cls-2" d="M673.86,25.88c-.23,1.26-2.64,1.47-2.94-.37a2.23,2.23,0,0,1,1.13-1.68,3.48,3.48,0,0,1,1.82-.51,4.22,4.22,0,0,1,1.79.37,3.1,3.1,0,0,1,1.47,1.2,2.49,2.49,0,0,1,.24,1.9,3.05,3.05,0,0,1-1,1.54,5.34,5.34,0,0,1-3.38.91,14.2,14.2,0,0,1-3.37-.54q-3.21-1-6.43-1.86c-4.29-1.21-8.63-2.21-13-3.18s-8.71-1.81-13.12-2.34a79.69,79.69,0,0,0-26.49,1.05c-1.1.21-2.18.45-3.27.7a16.83,16.83,0,0,0-3.14,1,4.67,4.67,0,0,0-2.37,2,2.11,2.11,0,0,0,.41,2.62,4.19,4.19,0,0,0,2.83.94,3.88,3.88,0,0,0,2.74-1c.59-.59,0-1.81-.82-2.15a2.16,2.16,0,0,0-2.58,1.11l-.06,0a2.26,2.26,0,0,1,4.26-.41,1.94,1.94,0,0,1,.21,1,1.7,1.7,0,0,1-.38,1,3.4,3.4,0,0,1-1.58,1,6,6,0,0,1-1.76.32,4.84,4.84,0,0,1-3.36-1.19,2.73,2.73,0,0,1-.87-1.68,3.16,3.16,0,0,1,.38-1.82,5.43,5.43,0,0,1,2.72-2.19,20.16,20.16,0,0,1,3.24-1c1.08-.27,2.17-.53,3.27-.76,8.74-1.81,17.82-2.65,26.74-1.43a117.63,117.63,0,0,1,13.21,2.43c4.35,1,8.68,2.15,13,3.43,2.14.63,4.29,1.28,6.4,2a12.24,12.24,0,0,0,3.22.52,4.62,4.62,0,0,0,2.95-.84,2.29,2.29,0,0,0,.77-1.2,1.72,1.72,0,0,0-.21-1.32,3.16,3.16,0,0,0-2.58-1.12,2.57,2.57,0,0,0-1.36.39,1.42,1.42,0,0,0-.73.95c-.06.21.3.68.72.83a1,1,0,0,0,1.24-.51Z"/><path class="cls-2" d="M837.42,20.79a1,1,0,0,0-1.25-.5c-.42.15-.78.61-.72.82a1.42,1.42,0,0,0,.73.95,2.57,2.57,0,0,0,1.36.39,3.17,3.17,0,0,0,2.58-1.11,1.75,1.75,0,0,0,.21-1.33,2.33,2.33,0,0,0-.77-1.2,4.56,4.56,0,0,0-2.95-.83,11.47,11.47,0,0,0-3.22.52c-2.11.67-4.26,1.32-6.4,1.95-4.28,1.28-8.61,2.42-13,3.43a115.42,115.42,0,0,1-13.21,2.43c-8.92,1.22-18,.38-26.74-1.43-1.1-.23-2.19-.49-3.27-.76a19.2,19.2,0,0,1-3.24-1,5.43,5.43,0,0,1-2.72-2.19,3.13,3.13,0,0,1-.38-1.81,2.7,2.7,0,0,1,.87-1.68,4.8,4.8,0,0,1,3.36-1.2,6.34,6.34,0,0,1,1.76.32,3.4,3.4,0,0,1,1.58,1,1.7,1.7,0,0,1,.38,1,1.92,1.92,0,0,1-.21,1,2.26,2.26,0,0,1-4.26-.4l.06,0a2.16,2.16,0,0,0,2.58,1.12c.87-.35,1.41-1.56.82-2.16a3.93,3.93,0,0,0-2.74-1,4.19,4.19,0,0,0-2.83.94,2.12,2.12,0,0,0-.41,2.63,4.66,4.66,0,0,0,2.37,1.95,16,16,0,0,0,3.15,1c1.08.26,2.16.5,3.26.7a79.43,79.43,0,0,0,26.49,1A133,133,0,0,0,813.82,23c4.35-1,8.69-2,13-3.18,2.15-.6,4.29-1.21,6.43-1.86a14.2,14.2,0,0,1,3.37-.54,5.46,5.46,0,0,1,3.38.91,3.05,3.05,0,0,1,1,1.54,2.49,2.49,0,0,1-.24,1.9A3.12,3.12,0,0,1,839.32,23a4.55,4.55,0,0,1-1.79.37,3.49,3.49,0,0,1-1.82-.52,2.23,2.23,0,0,1-1.13-1.68c.3-1.84,2.71-1.63,2.94-.37Z"/><path class="cls-2" d="M838.11,25.47c-.23,1.27-2.64,1.47-2.94-.36a2.19,2.19,0,0,1,1.13-1.68,3.4,3.4,0,0,1,1.82-.52,4.22,4.22,0,0,1,1.79.37,3.1,3.1,0,0,1,1.47,1.2,2.51,2.51,0,0,1,.24,1.91,3.07,3.07,0,0,1-1,1.53,5.34,5.34,0,0,1-3.38.91,14.71,14.71,0,0,1-3.37-.53c-2.15-.65-4.28-1.27-6.43-1.86-4.29-1.21-8.63-2.22-13-3.19s-8.71-1.8-13.12-2.34A79.75,79.75,0,0,0,774.79,22c-1.09.21-2.17.45-3.26.7a16.38,16.38,0,0,0-3.14,1,4.67,4.67,0,0,0-2.37,2,2.1,2.1,0,0,0,.41,2.62,4.19,4.19,0,0,0,2.83.94,3.92,3.92,0,0,0,2.74-1c.59-.6,0-1.82-.82-2.16a2.18,2.18,0,0,0-2.59,1.11l-.05,0a2.35,2.35,0,0,1,2.84-1.65,2.38,2.38,0,0,1,1.42,1.24,2,2,0,0,1,.21,1,1.75,1.75,0,0,1-.38,1,3.44,3.44,0,0,1-1.59,1,5.88,5.88,0,0,1-1.76.32,4.81,4.81,0,0,1-3.35-1.19,2.68,2.68,0,0,1-.87-1.68,3.08,3.08,0,0,1,.38-1.82,5.51,5.51,0,0,1,2.71-2.19,20.28,20.28,0,0,1,3.25-1c1.08-.27,2.17-.53,3.27-.75,8.74-1.82,17.82-2.66,26.74-1.43a115.79,115.79,0,0,1,13.21,2.42c4.35,1,8.68,2.16,13,3.43,2.14.63,4.28,1.28,6.4,2a11.84,11.84,0,0,0,3.22.52,4.64,4.64,0,0,0,2.95-.84,2.29,2.29,0,0,0,.77-1.2,1.77,1.77,0,0,0-.21-1.32,3.15,3.15,0,0,0-2.58-1.11,2.56,2.56,0,0,0-1.36.38,1.42,1.42,0,0,0-.73.95c-.06.22.3.68.72.83a1,1,0,0,0,1.24-.51Z"/><path class="cls-2" d="M521.63,25.56a1,1,0,0,0,1.25.51c.41-.15.78-.61.72-.82a1.48,1.48,0,0,0-.73-1,2.56,2.56,0,0,0-1.36-.38A3.17,3.17,0,0,0,518.92,25a1.77,1.77,0,0,0-.21,1.32,2.36,2.36,0,0,0,.77,1.21,4.66,4.66,0,0,0,3,.83,11.71,11.71,0,0,0,3.21-.52c2.12-.68,4.27-1.33,6.41-2,4.28-1.27,8.61-2.42,13-3.43a115.39,115.39,0,0,1,13.21-2.42c8.91-1.23,18-.39,26.74,1.43,1.09.22,2.18.48,3.27.75a20.16,20.16,0,0,1,3.24,1,5.5,5.5,0,0,1,2.72,2.2,3.19,3.19,0,0,1,.38,1.81,2.69,2.69,0,0,1-.88,1.68,4.8,4.8,0,0,1-3.35,1.19,6.2,6.2,0,0,1-1.76-.31,3.57,3.57,0,0,1-1.58-1,1.75,1.75,0,0,1-.38-1,2.07,2.07,0,0,1,.2-1,2.27,2.27,0,0,1,4.27.41l-.06,0a2.18,2.18,0,0,0-2.59-1.11c-.86.34-1.4,1.56-.82,2.16a4,4,0,0,0,2.74,1,4.24,4.24,0,0,0,2.83-.95,2.1,2.1,0,0,0,.42-2.62,4.66,4.66,0,0,0-2.38-2,16.38,16.38,0,0,0-3.14-1c-1.08-.25-2.17-.49-3.26-.7A79.69,79.69,0,0,0,558.35,21c-4.41.54-8.78,1.37-13.13,2.34s-8.68,2-13,3.19q-3.22.88-6.43,1.86a14.8,14.8,0,0,1-3.38.53,5.31,5.31,0,0,1-3.37-.91A2.91,2.91,0,0,1,518,26.52a2.47,2.47,0,0,1,.24-1.91,3.08,3.08,0,0,1,1.46-1.2,4.27,4.27,0,0,1,1.8-.37,3.36,3.36,0,0,1,1.81.52,2.15,2.15,0,0,1,1.13,1.68,1.53,1.53,0,0,1-2.94.36Z"/><path class="cls-2" d="M849.77,19.94c.23-1.27,2.64-1.48,2.94.36A2.21,2.21,0,0,1,851.58,22a3.42,3.42,0,0,1-1.82.52,4.43,4.43,0,0,1-1.8-.37,3.19,3.19,0,0,1-1.46-1.2,2.47,2.47,0,0,1-.24-1.91,3,3,0,0,1,1-1.54,5.43,5.43,0,0,1,3.37-.91,14.72,14.72,0,0,1,3.38.54c2.14.65,4.28,1.26,6.43,1.86,4.29,1.21,8.62,2.21,13,3.19s8.71,1.8,13.12,2.34a80,80,0,0,0,26.49-1.05c1.09-.21,2.18-.45,3.26-.71a16.36,16.36,0,0,0,3.14-1,4.71,4.71,0,0,0,2.38-2,2.1,2.1,0,0,0-.42-2.62,4.23,4.23,0,0,0-2.82-1,4,4,0,0,0-2.75,1c-.58.6,0,1.81.82,2.16a2.17,2.17,0,0,0,2.59-1.12l.06,0a2.27,2.27,0,0,1-4.27.4,2,2,0,0,1-.2-1,1.72,1.72,0,0,1,.38-1,3.48,3.48,0,0,1,1.58-1,6.2,6.2,0,0,1,1.76-.31,4.75,4.75,0,0,1,3.35,1.19,2.66,2.66,0,0,1,.88,1.68,3.19,3.19,0,0,1-.38,1.81,5.48,5.48,0,0,1-2.72,2.19,19.2,19.2,0,0,1-3.24,1c-1.09.28-2.18.53-3.27.76-8.74,1.81-17.82,2.65-26.74,1.43a113.28,113.28,0,0,1-13.21-2.43c-4.35-1-8.68-2.15-13-3.43-2.14-.62-4.29-1.28-6.41-1.95a11.71,11.71,0,0,0-3.21-.52,4.6,4.6,0,0,0-3,.83A2.3,2.3,0,0,0,847,19.2a1.73,1.73,0,0,0,.2,1.32,3.2,3.2,0,0,0,2.59,1.11,2.48,2.48,0,0,0,1.36-.39,1.46,1.46,0,0,0,.73-.95c.06-.21-.31-.67-.72-.82a1,1,0,0,0-1.25.5Z"/><path class="cls-2" d="M850.46,24.62a1,1,0,0,0,1.25.5c.41-.15.77-.61.72-.82a1.5,1.5,0,0,0-.73-1,2.56,2.56,0,0,0-1.36-.38,3.2,3.2,0,0,0-2.59,1.11,1.77,1.77,0,0,0-.21,1.32,2.32,2.32,0,0,0,.77,1.21,4.6,4.6,0,0,0,3,.83,11.71,11.71,0,0,0,3.21-.52q3.18-1,6.41-1.95c4.28-1.28,8.61-2.42,13-3.44a115.39,115.39,0,0,1,13.21-2.42c8.91-1.23,18-.39,26.74,1.43,1.09.22,2.18.48,3.27.75a20.16,20.16,0,0,1,3.24,1,5.5,5.5,0,0,1,2.72,2.2,3.19,3.19,0,0,1,.38,1.81,2.66,2.66,0,0,1-.88,1.68,4.8,4.8,0,0,1-3.35,1.19,6.2,6.2,0,0,1-1.76-.31,3.48,3.48,0,0,1-1.58-1,1.75,1.75,0,0,1-.38-1,2.07,2.07,0,0,1,.2-1,2.27,2.27,0,0,1,4.27.41l-.06,0a2.18,2.18,0,0,0-2.59-1.11c-.86.35-1.4,1.56-.82,2.16a4,4,0,0,0,2.74,1,4.24,4.24,0,0,0,2.83-1,2.1,2.1,0,0,0,.42-2.62,4.71,4.71,0,0,0-2.38-2,15.68,15.68,0,0,0-3.14-1c-1.08-.26-2.17-.5-3.26-.71a79.69,79.69,0,0,0-26.49-1.05c-4.41.54-8.78,1.38-13.13,2.34s-8.68,2-13,3.19c-2.15.6-4.29,1.21-6.43,1.86a14.81,14.81,0,0,1-3.38.54,5.43,5.43,0,0,1-3.37-.91,3,3,0,0,1-1-1.54,2.47,2.47,0,0,1,.24-1.91,3.14,3.14,0,0,1,1.46-1.2,4.39,4.39,0,0,1,1.8-.37,3.36,3.36,0,0,1,1.81.52,2.15,2.15,0,0,1,1.13,1.68,1.53,1.53,0,0,1-2.94.36Z"/><path class="cls-2" d="M687.57,25.84a1,1,0,0,0,1.25.51c.41-.15.78-.62.72-.83a1.49,1.49,0,0,0-.73-.95,2.57,2.57,0,0,0-1.36-.39,3.18,3.18,0,0,0-2.59,1.12,1.72,1.72,0,0,0-.2,1.32,2.28,2.28,0,0,0,.76,1.2,4.67,4.67,0,0,0,3,.84,12.1,12.1,0,0,0,3.21-.52c2.12-.68,4.27-1.33,6.41-2,4.28-1.28,8.61-2.42,13-3.43a117.63,117.63,0,0,1,13.21-2.43c8.91-1.22,18-.38,26.74,1.43,1.09.23,2.18.49,3.27.76a20.16,20.16,0,0,1,3.24,1,5.48,5.48,0,0,1,2.72,2.19,3.24,3.24,0,0,1,.38,1.82,2.69,2.69,0,0,1-.88,1.68,4.8,4.8,0,0,1-3.35,1.19,5.88,5.88,0,0,1-1.76-.32,3.4,3.4,0,0,1-1.58-1,1.7,1.7,0,0,1-.38-1,2,2,0,0,1,.2-1,2.27,2.27,0,0,1,4.27.41l-.06,0a2.17,2.17,0,0,0-2.59-1.11c-.86.34-1.4,1.56-.82,2.15a3.92,3.92,0,0,0,2.74,1,4.18,4.18,0,0,0,2.83-.94,2.1,2.1,0,0,0,.42-2.62,4.66,4.66,0,0,0-2.38-2,16.38,16.38,0,0,0-3.14-1c-1.08-.25-2.17-.49-3.26-.7a79.69,79.69,0,0,0-26.49-1.05c-4.41.53-8.78,1.37-13.13,2.34s-8.68,2-13,3.18q-3.23.9-6.43,1.86a14.2,14.2,0,0,1-3.38.54,5.31,5.31,0,0,1-3.37-.91,2.93,2.93,0,0,1-1-1.54,2.44,2.44,0,0,1,.24-1.9,3.08,3.08,0,0,1,1.46-1.2,4.27,4.27,0,0,1,1.8-.37,3.44,3.44,0,0,1,1.81.51,2.18,2.18,0,0,1,1.13,1.68,1.53,1.53,0,0,1-2.94.37Z"/><path class="cls-2" d="M940.9,278.7a1.38,1.38,0,0,1-1-1.44,1.71,1.71,0,0,1,.36-.95,1.25,1.25,0,0,1,1-.56,2.18,2.18,0,0,1,1.73,1.07,3.47,3.47,0,0,1,.58,1.83,4.21,4.21,0,0,1-.37,1.82A3.15,3.15,0,0,1,942,282a2.78,2.78,0,0,1-3.51-.67,5,5,0,0,1-1.05-3.37,13.55,13.55,0,0,1,.53-3.42c.67-2.16,1.32-4.31,1.94-6.48,1.27-4.33,2.32-8.7,3.34-13.1a133.57,133.57,0,0,0,2.45-13.25,77.56,77.56,0,0,0-1.14-26.78c-.22-1.1-.48-2.19-.74-3.29a15.34,15.34,0,0,0-1-3.15,4.45,4.45,0,0,0-2.09-2.28,2.24,2.24,0,0,0-2.68.53,4.1,4.1,0,0,0-.93,2.86,3.76,3.76,0,0,0,1.1,2.72c.64.53,1.87,0,2.23-.88a2.18,2.18,0,0,0-1.18-2.58l0-.06a2.34,2.34,0,0,1,1.71,2.84,2.37,2.37,0,0,1-1.26,1.43,1.94,1.94,0,0,1-2-.1,3.21,3.21,0,0,1-1.1-1.56,6,6,0,0,1-.36-1.77,4.76,4.76,0,0,1,1.18-3.4,2.9,2.9,0,0,1,1.67-.92,3.2,3.2,0,0,1,1.84.29,5.2,5.2,0,0,1,2.36,2.63,17.8,17.8,0,0,1,1.08,3.26c.28,1.1.56,2.19.79,3.3,1.91,8.83,2.81,18,1.52,27a113.42,113.42,0,0,1-2.53,13.35c-1.06,4.39-2.25,8.76-3.59,13.07-.65,2.16-1.34,4.33-2,6.46a11,11,0,0,0-.51,3.25,4.29,4.29,0,0,0,.94,2.93,2.42,2.42,0,0,0,1.27.71,1.9,1.9,0,0,0,1.35-.26,3.18,3.18,0,0,0,1.12-2.62,2.46,2.46,0,0,0-.43-1.35,1.41,1.41,0,0,0-1-.7c-.23-.05-.7.31-.85.73a1,1,0,0,0,.54,1.24Z"/><path class="cls-2" d="M941.22,129a1,1,0,0,0-.53,1.25c.15.42.62.78.85.73a1.44,1.44,0,0,0,1-.7A2.47,2.47,0,0,0,943,129a3.17,3.17,0,0,0-1.12-2.61,1.85,1.85,0,0,0-1.35-.26,2.29,2.29,0,0,0-1.27.71,4.24,4.24,0,0,0-.94,2.93,11,11,0,0,0,.5,3.25c.7,2.13,1.39,4.3,2,6.45,1.33,4.32,2.53,8.69,3.58,13.08A111.65,111.65,0,0,1,947,165.85c1.28,9,.39,18.21-1.52,27-.23,1.1-.51,2.2-.79,3.3a17.8,17.8,0,0,1-1.08,3.26,5.24,5.24,0,0,1-2.36,2.63,3.37,3.37,0,0,1-1.84.29,2.84,2.84,0,0,1-1.67-.92,4.77,4.77,0,0,1-1.18-3.4,6,6,0,0,1,.36-1.77,3.21,3.21,0,0,1,1.1-1.56,1.94,1.94,0,0,1,2-.1,2.25,2.25,0,0,1-.45,4.27l0-.06a2.19,2.19,0,0,0,1.18-2.59c-.36-.86-1.59-1.41-2.23-.87a3.74,3.74,0,0,0-1.1,2.72,4.11,4.11,0,0,0,.93,2.86,2.25,2.25,0,0,0,2.68.53,4.48,4.48,0,0,0,2.09-2.29,14.94,14.94,0,0,0,1.05-3.15c.26-1.09.52-2.18.74-3.29A77.76,77.76,0,0,0,946,166a133.23,133.23,0,0,0-2.45-13.26c-1-4.39-2.07-8.76-3.34-13.09-.62-2.17-1.27-4.32-1.94-6.49a13.48,13.48,0,0,1-.53-3.41,5,5,0,0,1,1-3.38,2.79,2.79,0,0,1,3.51-.66,3.1,3.1,0,0,1,1.21,1.48,4.18,4.18,0,0,1,.37,1.82,3.41,3.41,0,0,1-.58,1.82,2.19,2.19,0,0,1-1.73,1.08,1.3,1.3,0,0,1-1-.56,1.74,1.74,0,0,1-.36-1,1.38,1.38,0,0,1,1-1.44Z"/><path class="cls-2" d="M946.44,128.93a1.37,1.37,0,0,1,1,1.44,1.68,1.68,0,0,1-.35,1,1.3,1.3,0,0,1-1,.55,2.22,2.22,0,0,1-1.74-1.07,3.35,3.35,0,0,1-.57-1.83,4.2,4.2,0,0,1,.36-1.82,3.26,3.26,0,0,1,1.21-1.48,2.81,2.81,0,0,1,3.52.67,5,5,0,0,1,1,3.37,13.54,13.54,0,0,1-.52,3.42c-.68,2.17-1.32,4.31-1.95,6.48-1.26,4.33-2.31,8.71-3.33,13.1A130.73,130.73,0,0,0,941.68,166a77.56,77.56,0,0,0,1.13,26.78c.22,1.1.48,2.2.74,3.29a15.14,15.14,0,0,0,1.05,3.15,4.43,4.43,0,0,0,2.1,2.28,2.21,2.21,0,0,0,2.67-.53,4.16,4.16,0,0,0,.94-2.86,3.76,3.76,0,0,0-1.1-2.71c-.65-.54-1.88,0-2.23.87a2.16,2.16,0,0,0,1.17,2.58l0,.06a2.33,2.33,0,0,1-1.7-2.83,2.38,2.38,0,0,1,1.25-1.44,2,2,0,0,1,2,.1,3.31,3.31,0,0,1,1.09,1.56,6.06,6.06,0,0,1,.36,1.78,4.71,4.71,0,0,1-1.18,3.39,2.79,2.79,0,0,1-1.67.92,3.21,3.21,0,0,1-1.84-.29,5.24,5.24,0,0,1-2.36-2.63,19.16,19.16,0,0,1-1.08-3.26c-.28-1.1-.55-2.19-.79-3.3-1.91-8.82-2.8-18-1.52-27a113.45,113.45,0,0,1,2.54-13.35c1.06-4.39,2.25-8.76,3.58-13.07.66-2.16,1.34-4.33,2-6.46a11.25,11.25,0,0,0,.51-3.25,4.25,4.25,0,0,0-1-2.93,2.34,2.34,0,0,0-1.26-.7,1.85,1.85,0,0,0-1.35.25,3.16,3.16,0,0,0-1.12,2.62,2.51,2.51,0,0,0,.42,1.36,1.48,1.48,0,0,0,1,.7c.24,0,.7-.32.86-.74a1,1,0,0,0-.54-1.24Z"/><path class="cls-2" d="M946.12,278.59a1,1,0,0,0,.54-1.25c-.15-.41-.62-.77-.86-.73a1.44,1.44,0,0,0-1,.7,2.46,2.46,0,0,0-.42,1.36,3.14,3.14,0,0,0,1.12,2.61,1.85,1.85,0,0,0,1.35.26,2.34,2.34,0,0,0,1.26-.7,4.29,4.29,0,0,0,.95-2.94,11.31,11.31,0,0,0-.51-3.25c-.7-2.13-1.38-4.29-2-6.45-1.33-4.32-2.52-8.69-3.58-13.08a113.68,113.68,0,0,1-2.54-13.34c-1.28-9-.39-18.21,1.52-27,.24-1.11.52-2.21.8-3.31a18.55,18.55,0,0,1,1.07-3.26,5.32,5.32,0,0,1,2.36-2.63,3.39,3.39,0,0,1,1.84-.29,2.84,2.84,0,0,1,1.67.92,4.73,4.73,0,0,1,1.18,3.4,6.06,6.06,0,0,1-.36,1.78,3.28,3.28,0,0,1-1.09,1.55,2,2,0,0,1-2,.1,2.26,2.26,0,0,1,.45-4.27l0,.06a2.17,2.17,0,0,0-1.17,2.59c.35.86,1.58,1.41,2.23.87a3.76,3.76,0,0,0,1.1-2.72,4.17,4.17,0,0,0-.94-2.86,2.24,2.24,0,0,0-2.67-.53,4.39,4.39,0,0,0-2.09,2.29,14.05,14.05,0,0,0-1.05,3.15c-.27,1.09-.53,2.18-.75,3.29a77.51,77.51,0,0,0-1.13,26.77,130.41,130.41,0,0,0,2.45,13.26c1,4.39,2.07,8.76,3.33,13.09.63,2.17,1.27,4.32,2,6.49a13.54,13.54,0,0,1,.52,3.41,5,5,0,0,1-1,3.38,2.79,2.79,0,0,1-3.52.66,3.18,3.18,0,0,1-1.21-1.47,4.22,4.22,0,0,1-.36-1.83,3.25,3.25,0,0,1,.58-1.82,2.19,2.19,0,0,1,1.73-1.08,1.33,1.33,0,0,1,1,.56,1.68,1.68,0,0,1,.35.95,1.35,1.35,0,0,1-1,1.44Z"/><path class="cls-2" d="M940.55,117.91a1.36,1.36,0,0,1-1-1.45,1.68,1.68,0,0,1,.35-.95,1.26,1.26,0,0,1,1-.55,2.18,2.18,0,0,1,1.73,1.07,3.25,3.25,0,0,1,.58,1.82,4.22,4.22,0,0,1-.36,1.83,3.18,3.18,0,0,1-1.21,1.47,2.79,2.79,0,0,1-3.52-.66,5,5,0,0,1-1-3.37,13.11,13.11,0,0,1,.52-3.42c.68-2.17,1.32-4.32,1.94-6.49,1.27-4.32,2.32-8.7,3.34-13.09a130.73,130.73,0,0,0,2.45-13.25,77.56,77.56,0,0,0-1.13-26.78c-.22-1.1-.48-2.2-.75-3.29a14.57,14.57,0,0,0-1.05-3.15,4.43,4.43,0,0,0-2.09-2.29,2.23,2.23,0,0,0-2.67.54,4.14,4.14,0,0,0-.94,2.86,3.76,3.76,0,0,0,1.1,2.71c.65.54,1.88,0,2.23-.87A2.17,2.17,0,0,0,938.84,48l0-.06a2.35,2.35,0,0,1,1.7,2.84,2.38,2.38,0,0,1-1.25,1.44,2,2,0,0,1-2-.1,3.31,3.31,0,0,1-1.09-1.56,5.76,5.76,0,0,1-.36-1.78,4.69,4.69,0,0,1,1.18-3.39,2.74,2.74,0,0,1,1.67-.92,3.29,3.29,0,0,1,1.84.28,5.3,5.3,0,0,1,2.35,2.63A17.89,17.89,0,0,1,944,50.66c.28,1.09.56,2.19.8,3.3,1.9,8.82,2.8,18,1.52,27a113.68,113.68,0,0,1-2.54,13.34c-1.06,4.39-2.25,8.76-3.58,13.08-.66,2.16-1.34,4.32-2,6.45a11.31,11.31,0,0,0-.51,3.25,4.31,4.31,0,0,0,.94,2.94,2.4,2.4,0,0,0,1.27.7,1.85,1.85,0,0,0,1.35-.25,3.18,3.18,0,0,0,1.12-2.62,2.51,2.51,0,0,0-.42-1.36,1.48,1.48,0,0,0-1-.7c-.24,0-.71.32-.86.73a1,1,0,0,0,.54,1.25Z"/><path class="cls-2" d="M945.77,117.79a1,1,0,0,0,.54-1.24c-.15-.42-.62-.78-.86-.73a1.45,1.45,0,0,0-1,.7,2.38,2.38,0,0,0-.43,1.35,3.18,3.18,0,0,0,1.12,2.62,1.85,1.85,0,0,0,1.35.26,2.35,2.35,0,0,0,1.27-.71,4.29,4.29,0,0,0,.94-2.93,11,11,0,0,0-.51-3.25c-.69-2.13-1.38-4.3-2-6.45-1.34-4.32-2.53-8.69-3.59-13.08A113.42,113.42,0,0,1,940.05,81c-1.29-9-.39-18.2,1.51-27,.24-1.1.52-2.2.8-3.3a17.8,17.8,0,0,1,1.08-3.26,5.26,5.26,0,0,1,2.35-2.63,3.23,3.23,0,0,1,1.85-.29,2.85,2.85,0,0,1,1.66.92,4.67,4.67,0,0,1,1.18,3.4,5.68,5.68,0,0,1-.35,1.77,3.21,3.21,0,0,1-1.1,1.56,2,2,0,0,1-2,.1,2.39,2.39,0,0,1-1.25-1.43A2.35,2.35,0,0,1,947.5,48l0,.06a2.18,2.18,0,0,0-1.18,2.58c.35.87,1.59,1.41,2.23.88a3.8,3.8,0,0,0,1.1-2.72,4.11,4.11,0,0,0-.93-2.86,2.24,2.24,0,0,0-2.68-.53A4.49,4.49,0,0,0,944,47.64a14.76,14.76,0,0,0-1.05,3.15c-.26,1.1-.53,2.19-.74,3.29A77.59,77.59,0,0,0,941,80.86a132.51,132.51,0,0,0,2.45,13.25c1,4.4,2.07,8.77,3.34,13.1.62,2.17,1.27,4.32,1.94,6.48a13.55,13.55,0,0,1,.53,3.42,5,5,0,0,1-1,3.38,2.8,2.8,0,0,1-3.52.66,3.19,3.19,0,0,1-1.2-1.48,4.21,4.21,0,0,1-.37-1.82,3.47,3.47,0,0,1,.58-1.83,2.18,2.18,0,0,1,1.73-1.07,1.25,1.25,0,0,1,1,.56,1.74,1.74,0,0,1,.36.95,1.38,1.38,0,0,1-1,1.44Z"/><path class="cls-2" d="M521,626.51a1,1,0,0,0,1.25.5c.41-.15.78-.61.72-.82a1.5,1.5,0,0,0-.73-1,2.56,2.56,0,0,0-1.36-.38,3.2,3.2,0,0,0-2.59,1.11,1.72,1.72,0,0,0-.2,1.32,2.3,2.3,0,0,0,.76,1.21,4.6,4.6,0,0,0,3,.83,11.71,11.71,0,0,0,3.21-.52c2.12-.68,4.27-1.33,6.41-1.95,4.28-1.28,8.61-2.42,13-3.44A115.39,115.39,0,0,1,557.64,621c8.92-1.23,18-.39,26.74,1.43,1.09.22,2.18.48,3.27.76a18.33,18.33,0,0,1,3.24,1,5.42,5.42,0,0,1,2.72,2.19,3.19,3.19,0,0,1,.38,1.81,2.66,2.66,0,0,1-.88,1.68,4.75,4.75,0,0,1-3.35,1.19,6.2,6.2,0,0,1-1.76-.31,3.48,3.48,0,0,1-1.58-1,1.75,1.75,0,0,1-.38-1,1.91,1.91,0,0,1,.21-1,2.3,2.3,0,0,1,1.42-1.24,2.34,2.34,0,0,1,2.84,1.64l-.06,0a2.18,2.18,0,0,0-2.59-1.11c-.86.35-1.4,1.56-.82,2.16a4,4,0,0,0,2.75,1,4.23,4.23,0,0,0,2.82-1,2.1,2.1,0,0,0,.42-2.62,4.71,4.71,0,0,0-2.38-2,15.68,15.68,0,0,0-3.14-1c-1.08-.26-2.17-.5-3.26-.71a79.69,79.69,0,0,0-26.49-1c-4.41.54-8.78,1.38-13.12,2.34s-8.69,2-13,3.19c-2.15.6-4.29,1.21-6.43,1.86a14.72,14.72,0,0,1-3.38.54,5.43,5.43,0,0,1-3.37-.91,3,3,0,0,1-1.05-1.54,2.47,2.47,0,0,1,.24-1.91,3.19,3.19,0,0,1,1.46-1.2,4.46,4.46,0,0,1,1.8-.37,3.42,3.42,0,0,1,1.82.52,2.21,2.21,0,0,1,1.13,1.68c-.3,1.84-2.71,1.63-2.94.36Z"/><path class="cls-2" d="M687.57,625.89a1,1,0,0,0,1.25.51c.41-.15.78-.61.72-.82a1.48,1.48,0,0,0-.73-1,2.56,2.56,0,0,0-1.36-.38,3.2,3.2,0,0,0-2.59,1.11,1.72,1.72,0,0,0-.2,1.32,2.3,2.3,0,0,0,.76,1.21,4.66,4.66,0,0,0,3,.83,11.71,11.71,0,0,0,3.21-.52c2.12-.68,4.27-1.33,6.41-2,4.28-1.27,8.61-2.42,13-3.43a115.39,115.39,0,0,1,13.21-2.42c8.91-1.23,18-.39,26.74,1.43,1.09.22,2.18.48,3.27.75a20.16,20.16,0,0,1,3.24,1,5.5,5.5,0,0,1,2.72,2.2,3.19,3.19,0,0,1,.38,1.81,2.69,2.69,0,0,1-.88,1.68,4.8,4.8,0,0,1-3.35,1.19,6.2,6.2,0,0,1-1.76-.31,3.57,3.57,0,0,1-1.58-1,1.75,1.75,0,0,1-.38-1,2.07,2.07,0,0,1,.2-1,2.27,2.27,0,0,1,4.27.41l-.06,0a2.18,2.18,0,0,0-2.59-1.11c-.86.34-1.4,1.56-.82,2.16a4,4,0,0,0,2.74,1,4.24,4.24,0,0,0,2.83-1,2.1,2.1,0,0,0,.42-2.62,4.66,4.66,0,0,0-2.38-2,16.38,16.38,0,0,0-3.14-1c-1.08-.25-2.17-.49-3.26-.7a79.69,79.69,0,0,0-26.49-1c-4.41.54-8.78,1.37-13.13,2.34s-8.68,2-13,3.19q-3.23.89-6.43,1.86a14.71,14.71,0,0,1-3.38.53,5.31,5.31,0,0,1-3.37-.91,2.91,2.91,0,0,1-1-1.53,2.47,2.47,0,0,1,.24-1.91,3.08,3.08,0,0,1,1.46-1.2,4.27,4.27,0,0,1,1.8-.37,3.36,3.36,0,0,1,1.81.52,2.15,2.15,0,0,1,1.13,1.68,1.53,1.53,0,0,1-2.94.36Z"/><path class="cls-2" d="M673.27,626.26c-.23,1.27-2.64,1.48-2.94-.36a2.23,2.23,0,0,1,1.13-1.68,3.49,3.49,0,0,1,1.82-.52,4.46,4.46,0,0,1,1.8.37,3.19,3.19,0,0,1,1.46,1.2,2.52,2.52,0,0,1,.24,1.91,3.05,3.05,0,0,1-1,1.54,5.46,5.46,0,0,1-3.38.91,14.72,14.72,0,0,1-3.37-.54c-2.14-.65-4.28-1.26-6.43-1.86-4.29-1.21-8.63-2.21-13-3.18a133,133,0,0,0-13.12-2.34,79.69,79.69,0,0,0-26.49,1c-1.1.21-2.18.45-3.26.71a15.71,15.71,0,0,0-3.14,1,4.64,4.64,0,0,0-2.38,1.95,2.11,2.11,0,0,0,.42,2.63,4.2,4.2,0,0,0,2.82.94,3.93,3.93,0,0,0,2.74-1c.59-.6.05-1.81-.81-2.16a2.17,2.17,0,0,0-2.59,1.12l-.06,0a2.34,2.34,0,0,1,2.84-1.64,2.3,2.3,0,0,1,1.42,1.24,1.92,1.92,0,0,1,.21,1,1.7,1.7,0,0,1-.38,1,3.48,3.48,0,0,1-1.58,1,6.26,6.26,0,0,1-1.76.31,4.75,4.75,0,0,1-3.36-1.19,2.7,2.7,0,0,1-.87-1.68,3.13,3.13,0,0,1,.38-1.81,5.48,5.48,0,0,1,2.72-2.19,19.2,19.2,0,0,1,3.24-1c1.09-.27,2.17-.53,3.27-.76,8.74-1.81,17.82-2.65,26.74-1.43a115.42,115.42,0,0,1,13.21,2.43c4.35,1,8.68,2.15,13,3.43,2.14.63,4.29,1.28,6.41,1.95a11.71,11.71,0,0,0,3.21.52,4.6,4.6,0,0,0,3-.83,2.3,2.3,0,0,0,.76-1.21,1.69,1.69,0,0,0-.21-1.32,3.17,3.17,0,0,0-2.58-1.11,2.57,2.57,0,0,0-1.36.39,1.45,1.45,0,0,0-.73.95c-.06.21.3.67.72.82a1,1,0,0,0,1.25-.5Z"/><path class="cls-2" d="M673.75,621.59a1,1,0,0,0-1.24-.51c-.42.15-.78.61-.72.82a1.42,1.42,0,0,0,.73,1,2.56,2.56,0,0,0,1.36.38,3.18,3.18,0,0,0,2.58-1.11,1.72,1.72,0,0,0,.21-1.32,2.32,2.32,0,0,0-.77-1.21,4.62,4.62,0,0,0-2.95-.83,11.84,11.84,0,0,0-3.22.52c-2.11.68-4.26,1.33-6.4,2-4.28,1.27-8.61,2.42-13,3.43a115.39,115.39,0,0,1-13.21,2.42c-8.92,1.23-18,.39-26.74-1.43-1.1-.22-2.19-.48-3.27-.75a20.16,20.16,0,0,1-3.24-1,5.45,5.45,0,0,1-2.72-2.2,3.11,3.11,0,0,1-.38-1.81,2.73,2.73,0,0,1,.87-1.68A4.84,4.84,0,0,1,605,617a6.32,6.32,0,0,1,1.76.31,3.57,3.57,0,0,1,1.58,1,1.75,1.75,0,0,1,.38,1,2,2,0,0,1-.21,1,2.26,2.26,0,0,1-4.26-.41l.06,0a2.17,2.17,0,0,0,2.58,1.11c.87-.34,1.41-1.56.82-2.16a4,4,0,0,0-2.74-1,4.25,4.25,0,0,0-2.83.95,2.11,2.11,0,0,0-.41,2.62,4.67,4.67,0,0,0,2.37,2,16.83,16.83,0,0,0,3.14,1c1.09.25,2.17.49,3.27.7A79.69,79.69,0,0,0,637,626.11c4.41-.54,8.77-1.37,13.12-2.34s8.69-2,13-3.19q3.23-.89,6.43-1.86a14.71,14.71,0,0,1,3.37-.53,5.34,5.34,0,0,1,3.38.91,3,3,0,0,1,1,1.53,2.51,2.51,0,0,1-.24,1.91,3.1,3.1,0,0,1-1.47,1.2,4.22,4.22,0,0,1-1.79.37,3.4,3.4,0,0,1-1.82-.52,2.19,2.19,0,0,1-1.13-1.68c.3-1.83,2.71-1.63,2.94-.36Z"/><path class="cls-2" d="M837.52,626.67c-.23,1.27-2.64,1.48-2.94-.36a2.21,2.21,0,0,1,1.13-1.68,3.4,3.4,0,0,1,1.82-.52,4.38,4.38,0,0,1,1.79.37,3.16,3.16,0,0,1,1.47,1.2,2.51,2.51,0,0,1,.24,1.91,3.09,3.09,0,0,1-1,1.54,5.46,5.46,0,0,1-3.38.91,14.72,14.72,0,0,1-3.37-.54c-2.14-.65-4.28-1.26-6.43-1.86-4.29-1.21-8.63-2.21-13-3.19s-8.71-1.8-13.12-2.34a80,80,0,0,0-26.49,1c-1.1.21-2.18.45-3.26.71a16,16,0,0,0-3.15,1,4.72,4.72,0,0,0-2.37,2,2.11,2.11,0,0,0,.41,2.62,4.25,4.25,0,0,0,2.83,1,4,4,0,0,0,2.74-1c.59-.6.05-1.81-.82-2.16a2.17,2.17,0,0,0-2.58,1.11l-.06,0a2.26,2.26,0,0,1,4.26-.4,1.91,1.91,0,0,1,.21,1,1.75,1.75,0,0,1-.38,1,3.48,3.48,0,0,1-1.58,1,6.32,6.32,0,0,1-1.76.31,4.79,4.79,0,0,1-3.36-1.19,2.7,2.7,0,0,1-.87-1.68,3.11,3.11,0,0,1,.38-1.81,5.43,5.43,0,0,1,2.72-2.19,19.2,19.2,0,0,1,3.24-1c1.08-.28,2.17-.54,3.27-.76,8.74-1.81,17.82-2.66,26.74-1.43A115.39,115.39,0,0,1,814,623.54c4.35,1,8.68,2.16,13,3.44,2.14.62,4.29,1.28,6.4,1.95a11.84,11.84,0,0,0,3.22.52,4.56,4.56,0,0,0,2.95-.83,2.32,2.32,0,0,0,.77-1.21,1.72,1.72,0,0,0-.21-1.32,3.17,3.17,0,0,0-2.58-1.11,2.48,2.48,0,0,0-1.36.39,1.4,1.4,0,0,0-.73,1c-.06.21.3.67.72.82a1,1,0,0,0,1.25-.5Z"/><path class="cls-2" d="M838,622a1,1,0,0,0-1.24-.5c-.42.15-.78.61-.72.82a1.4,1.4,0,0,0,.73,1,2.48,2.48,0,0,0,1.36.39,3.18,3.18,0,0,0,2.58-1.11,1.77,1.77,0,0,0,.21-1.32,2.32,2.32,0,0,0-.77-1.21,4.57,4.57,0,0,0-2.95-.83,11.84,11.84,0,0,0-3.22.52c-2.12.67-4.26,1.33-6.4,1.95-4.28,1.28-8.61,2.42-13,3.44a115.79,115.79,0,0,1-13.21,2.42c-8.92,1.23-18,.38-26.74-1.43-1.1-.22-2.19-.48-3.27-.76a19.31,19.31,0,0,1-3.25-1,5.45,5.45,0,0,1-2.71-2.19,3,3,0,0,1-.38-1.81,2.65,2.65,0,0,1,.87-1.68,4.77,4.77,0,0,1,3.35-1.19,6.2,6.2,0,0,1,1.76.31,3.46,3.46,0,0,1,1.59,1,1.75,1.75,0,0,1,.38,1,1.91,1.91,0,0,1-.21,1,2.26,2.26,0,0,1-4.26-.4l.05,0a2.18,2.18,0,0,0,2.59,1.11c.86-.35,1.41-1.56.82-2.16a4,4,0,0,0-2.74-1,4.25,4.25,0,0,0-2.83,1,2.1,2.1,0,0,0-.41,2.62,4.72,4.72,0,0,0,2.37,2,15.68,15.68,0,0,0,3.14,1c1.09.26,2.17.5,3.26.71a80,80,0,0,0,26.5,1c4.41-.54,8.77-1.38,13.12-2.34s8.69-2,13-3.19c2.15-.6,4.28-1.21,6.43-1.86a14.72,14.72,0,0,1,3.37-.54,5.46,5.46,0,0,1,3.38.91,3.09,3.09,0,0,1,1,1.54,2.51,2.51,0,0,1-.24,1.91,3.16,3.16,0,0,1-1.47,1.2,4.38,4.38,0,0,1-1.79.37,3.4,3.4,0,0,1-1.82-.52,2.21,2.21,0,0,1-1.13-1.68c.3-1.84,2.71-1.63,2.94-.36Z"/><path class="cls-2" d="M521.52,621.83a1.52,1.52,0,0,1,2.94.36,2.16,2.16,0,0,1-1.13,1.68,3.36,3.36,0,0,1-1.81.52,4.43,4.43,0,0,1-1.8-.37,3.14,3.14,0,0,1-1.46-1.2,2.47,2.47,0,0,1-.24-1.91,3,3,0,0,1,1.05-1.54,5.43,5.43,0,0,1,3.37-.91,14.81,14.81,0,0,1,3.38.54c2.14.65,4.28,1.26,6.43,1.86,4.29,1.21,8.62,2.21,13,3.19s8.72,1.8,13.13,2.34a80,80,0,0,0,26.49-1c1.09-.21,2.18-.45,3.26-.71a15.68,15.68,0,0,0,3.14-1,4.71,4.71,0,0,0,2.38-2,2.1,2.1,0,0,0-.42-2.62,4.24,4.24,0,0,0-2.83-1,4,4,0,0,0-2.74,1c-.58.6,0,1.81.82,2.16a2.18,2.18,0,0,0,2.59-1.11l.06,0a2.27,2.27,0,0,1-4.27.4,2,2,0,0,1-.2-1,1.75,1.75,0,0,1,.38-1,3.48,3.48,0,0,1,1.58-1,6.2,6.2,0,0,1,1.76-.31,4.75,4.75,0,0,1,3.35,1.19,2.66,2.66,0,0,1,.88,1.68,3.19,3.19,0,0,1-.38,1.81,5.48,5.48,0,0,1-2.72,2.19,19.2,19.2,0,0,1-3.24,1c-1.09.28-2.18.53-3.27.76-8.74,1.81-17.83,2.66-26.74,1.43A113.28,113.28,0,0,1,545,625c-4.35-1-8.68-2.15-13-3.43-2.14-.62-4.29-1.28-6.41-1.95a11.71,11.71,0,0,0-3.21-.52,4.6,4.6,0,0,0-3,.83,2.32,2.32,0,0,0-.77,1.21,1.77,1.77,0,0,0,.21,1.32,3.2,3.2,0,0,0,2.59,1.11,2.48,2.48,0,0,0,1.36-.39,1.46,1.46,0,0,0,.73-1c.06-.21-.31-.67-.72-.82a1,1,0,0,0-1.25.5Z"/><path class="cls-2" d="M849.87,627.45a1,1,0,0,0,1.25.51c.41-.15.78-.61.72-.82a1.48,1.48,0,0,0-.73-1,2.56,2.56,0,0,0-1.36-.38,3.2,3.2,0,0,0-2.59,1.11,1.72,1.72,0,0,0-.2,1.32,2.3,2.3,0,0,0,.76,1.21,4.66,4.66,0,0,0,3,.83,11.71,11.71,0,0,0,3.21-.52c2.12-.68,4.27-1.33,6.41-2,4.28-1.27,8.61-2.42,13-3.43a115.39,115.39,0,0,1,13.21-2.42c8.92-1.23,18-.39,26.74,1.43,1.09.22,2.18.48,3.27.75a20.16,20.16,0,0,1,3.24,1,5.5,5.5,0,0,1,2.72,2.2,3.19,3.19,0,0,1,.38,1.81,2.69,2.69,0,0,1-.88,1.68,4.8,4.8,0,0,1-3.35,1.19,6.2,6.2,0,0,1-1.76-.31,3.57,3.57,0,0,1-1.58-1,1.75,1.75,0,0,1-.38-1,2.07,2.07,0,0,1,.2-1,2.27,2.27,0,0,1,4.27.41l-.06,0a2.18,2.18,0,0,0-2.59-1.11c-.86.34-1.4,1.56-.82,2.16a4,4,0,0,0,2.75,1,4.23,4.23,0,0,0,2.82-1,2.1,2.1,0,0,0,.42-2.62,4.66,4.66,0,0,0-2.38-2,16.38,16.38,0,0,0-3.14-1c-1.08-.25-2.17-.49-3.26-.7a79.69,79.69,0,0,0-26.49-1.05c-4.41.54-8.78,1.37-13.12,2.34s-8.69,2-13,3.19q-3.22.88-6.43,1.86a14.71,14.71,0,0,1-3.38.53,5.31,5.31,0,0,1-3.37-.91,2.91,2.91,0,0,1-1-1.53,2.47,2.47,0,0,1,.24-1.91,3.13,3.13,0,0,1,1.46-1.2,4.27,4.27,0,0,1,1.8-.37,3.42,3.42,0,0,1,1.82.52,2.19,2.19,0,0,1,1.13,1.68c-.3,1.83-2.71,1.63-2.94.36Z"/><path class="cls-2" d="M850.35,622.78a1.52,1.52,0,0,1,2.94.36,2.18,2.18,0,0,1-1.13,1.68,3.45,3.45,0,0,1-1.81.52,4.39,4.39,0,0,1-1.8-.37,3.1,3.1,0,0,1-1.46-1.21,2.44,2.44,0,0,1-.24-1.9,2.93,2.93,0,0,1,1-1.54,5.43,5.43,0,0,1,3.37-.91,14.81,14.81,0,0,1,3.38.54c2.14.65,4.28,1.26,6.43,1.86,4.29,1.21,8.62,2.21,13,3.18s8.72,1.81,13.13,2.34a79.69,79.69,0,0,0,26.49-1c1.09-.21,2.18-.45,3.26-.71a15.71,15.71,0,0,0,3.14-1,4.64,4.64,0,0,0,2.38-2A2.11,2.11,0,0,0,922,620a4.23,4.23,0,0,0-2.83-.94,4,4,0,0,0-2.74,1c-.58.6,0,1.81.82,2.16a2.18,2.18,0,0,0,2.59-1.12l.06,0a2.27,2.27,0,0,1-4.27.4,2,2,0,0,1-.2-1,1.7,1.7,0,0,1,.38-1,3.48,3.48,0,0,1,1.58-1,6.21,6.21,0,0,1,1.76-.32,4.76,4.76,0,0,1,3.35,1.2,2.66,2.66,0,0,1,.88,1.68A3.21,3.21,0,0,1,923,623a5.48,5.48,0,0,1-2.72,2.19,19.2,19.2,0,0,1-3.24,1c-1.09.27-2.18.53-3.27.76-8.74,1.81-17.83,2.65-26.74,1.43a115.42,115.42,0,0,1-13.21-2.43c-4.35-1-8.68-2.15-13-3.43q-3.23-.94-6.41-2a11.71,11.71,0,0,0-3.21-.52,4.6,4.6,0,0,0-3,.83,2.32,2.32,0,0,0-.77,1.21,1.78,1.78,0,0,0,.21,1.32,3.2,3.2,0,0,0,2.59,1.11,2.57,2.57,0,0,0,1.36-.39,1.49,1.49,0,0,0,.73-1c.05-.21-.31-.67-.72-.82a1,1,0,0,0-1.25.5Z"/><path class="cls-2" d="M687.46,621.55a1.53,1.53,0,0,1,2.94.36,2.15,2.15,0,0,1-1.13,1.68,3.36,3.36,0,0,1-1.81.52,4.27,4.27,0,0,1-1.8-.37,3.08,3.08,0,0,1-1.46-1.2,2.47,2.47,0,0,1-.24-1.91,2.91,2.91,0,0,1,1-1.53,5.31,5.31,0,0,1,3.37-.91,14.71,14.71,0,0,1,3.38.53q3.21,1,6.43,1.86c4.29,1.21,8.62,2.21,13,3.19s8.72,1.8,13.13,2.34a79.69,79.69,0,0,0,26.49-1.05c1.09-.21,2.18-.45,3.26-.7a16.38,16.38,0,0,0,3.14-1,4.66,4.66,0,0,0,2.38-2,2.1,2.1,0,0,0-.42-2.62,4.24,4.24,0,0,0-2.83-.95,4,4,0,0,0-2.74,1c-.58.6,0,1.82.82,2.16a2.18,2.18,0,0,0,2.59-1.11l.06,0a2.27,2.27,0,0,1-4.27.41,2.07,2.07,0,0,1-.2-1,1.75,1.75,0,0,1,.38-1,3.57,3.57,0,0,1,1.58-1,6.2,6.2,0,0,1,1.76-.31,4.8,4.8,0,0,1,3.35,1.19,2.69,2.69,0,0,1,.88,1.68,3.19,3.19,0,0,1-.38,1.81,5.5,5.5,0,0,1-2.72,2.2,20.16,20.16,0,0,1-3.24,1c-1.09.27-2.18.53-3.27.75-8.74,1.82-17.83,2.66-26.74,1.43A115.39,115.39,0,0,1,711,624.68c-4.35-1-8.68-2.16-13-3.43-2.14-.63-4.29-1.28-6.41-2a11.71,11.71,0,0,0-3.21-.52,4.66,4.66,0,0,0-3,.83,2.3,2.3,0,0,0-.76,1.21,1.72,1.72,0,0,0,.2,1.32,3.2,3.2,0,0,0,2.59,1.11,2.56,2.56,0,0,0,1.36-.38,1.48,1.48,0,0,0,.73-1c.06-.21-.31-.67-.72-.82a1,1,0,0,0-1.25.51Z"/><path class="cls-2" d="M940.94,368.83a1,1,0,0,0-.54,1.25c.15.42.62.78.85.73a1.44,1.44,0,0,0,1-.7,2.47,2.47,0,0,0,.43-1.36,3.17,3.17,0,0,0-1.12-2.61,1.85,1.85,0,0,0-1.35-.26,2.29,2.29,0,0,0-1.27.71,4.29,4.29,0,0,0-.94,2.93,11,11,0,0,0,.51,3.25c.69,2.13,1.38,4.3,2,6.45,1.34,4.32,2.53,8.69,3.59,13.08a113.65,113.65,0,0,1,2.53,13.34c1.29,9,.39,18.21-1.52,27-.23,1.1-.51,2.2-.79,3.3a17.8,17.8,0,0,1-1.08,3.26,5.24,5.24,0,0,1-2.36,2.63,3.37,3.37,0,0,1-1.84.29,2.9,2.9,0,0,1-1.67-.92,4.77,4.77,0,0,1-1.18-3.4,6,6,0,0,1,.36-1.77,3.21,3.21,0,0,1,1.1-1.56,1.94,1.94,0,0,1,2-.1,2.25,2.25,0,0,1-.45,4.27l0-.06a2.19,2.19,0,0,0,1.18-2.59c-.36-.86-1.59-1.41-2.23-.87a3.74,3.74,0,0,0-1.1,2.72,4.11,4.11,0,0,0,.93,2.86,2.25,2.25,0,0,0,2.68.53,4.48,4.48,0,0,0,2.09-2.29,14.94,14.94,0,0,0,1-3.15c.26-1.09.52-2.18.74-3.29a77.52,77.52,0,0,0,1.14-26.77,133.23,133.23,0,0,0-2.45-13.26c-1-4.39-2.07-8.76-3.34-13.09-.62-2.17-1.27-4.32-1.94-6.49a13.55,13.55,0,0,1-.53-3.41,5,5,0,0,1,1.05-3.38,2.79,2.79,0,0,1,3.51-.66,3.1,3.1,0,0,1,1.21,1.48,4.18,4.18,0,0,1,.37,1.82,3.41,3.41,0,0,1-.58,1.82,2.19,2.19,0,0,1-1.73,1.08,1.3,1.3,0,0,1-1-.56,1.74,1.74,0,0,1-.36-.95,1.38,1.38,0,0,1,1-1.44Z"/><path class="cls-2" d="M941.19,518.49a1.38,1.38,0,0,1-1-1.44,1.77,1.77,0,0,1,.36-1,1.26,1.26,0,0,1,1-.55,2.18,2.18,0,0,1,1.73,1.07,3.47,3.47,0,0,1,.58,1.83,4.21,4.21,0,0,1-.37,1.82,3.2,3.2,0,0,1-1.21,1.48,2.78,2.78,0,0,1-3.51-.67,5,5,0,0,1-1-3.37,13.55,13.55,0,0,1,.53-3.42c.67-2.16,1.32-4.31,1.94-6.48,1.27-4.33,2.32-8.7,3.34-13.1A133.57,133.57,0,0,0,946,481.45a77.81,77.81,0,0,0-1.14-26.78c-.22-1.1-.48-2.19-.74-3.29a15.34,15.34,0,0,0-1.05-3.15,4.45,4.45,0,0,0-2.09-2.28,2.24,2.24,0,0,0-2.68.53,4.1,4.1,0,0,0-.93,2.86,3.76,3.76,0,0,0,1.1,2.72c.64.53,1.87,0,2.23-.88a2.18,2.18,0,0,0-1.18-2.58l0-.06a2.34,2.34,0,0,1,1.71,2.84,2.37,2.37,0,0,1-1.26,1.43,1.94,1.94,0,0,1-2-.1,3.21,3.21,0,0,1-1.1-1.56,6,6,0,0,1-.36-1.77,4.76,4.76,0,0,1,1.18-3.4,2.84,2.84,0,0,1,1.67-.92,3.2,3.2,0,0,1,1.84.29,5.2,5.2,0,0,1,2.36,2.63,17.8,17.8,0,0,1,1.08,3.26c.28,1.1.56,2.19.79,3.3,1.91,8.82,2.8,18,1.52,27a111.44,111.44,0,0,1-2.54,13.35c-1,4.39-2.25,8.76-3.58,13.07-.65,2.16-1.34,4.33-2,6.46a11,11,0,0,0-.5,3.25,4.24,4.24,0,0,0,.94,2.93,2.42,2.42,0,0,0,1.27.71,1.9,1.9,0,0,0,1.35-.26,3.18,3.18,0,0,0,1.12-2.62,2.46,2.46,0,0,0-.43-1.35,1.41,1.41,0,0,0-1-.7c-.23,0-.7.31-.85.73a1,1,0,0,0,.53,1.24Z"/><path class="cls-2" d="M946.41,518.39a1,1,0,0,0,.54-1.25c-.16-.41-.62-.77-.86-.73a1.48,1.48,0,0,0-1,.7,2.46,2.46,0,0,0-.42,1.36,3.14,3.14,0,0,0,1.12,2.61,1.85,1.85,0,0,0,1.35.26,2.34,2.34,0,0,0,1.26-.7,4.29,4.29,0,0,0,1-2.94,11.31,11.31,0,0,0-.51-3.25c-.7-2.13-1.38-4.29-2-6.45-1.33-4.32-2.52-8.69-3.58-13.08a113.68,113.68,0,0,1-2.54-13.34c-1.28-9-.39-18.21,1.52-27,.24-1.11.51-2.21.79-3.3a19.56,19.56,0,0,1,1.08-3.27,5.32,5.32,0,0,1,2.36-2.63,3.39,3.39,0,0,1,1.84-.29,2.8,2.8,0,0,1,1.67.93,4.69,4.69,0,0,1,1.18,3.39,6.06,6.06,0,0,1-.36,1.78,3.28,3.28,0,0,1-1.09,1.55,2,2,0,0,1-2,.11,2.38,2.38,0,0,1-1.25-1.44,2.34,2.34,0,0,1,1.7-2.84l0,.06a2.17,2.17,0,0,0-1.17,2.59c.35.87,1.58,1.41,2.23.87a3.76,3.76,0,0,0,1.1-2.72,4.17,4.17,0,0,0-.94-2.86,2.24,2.24,0,0,0-2.67-.53,4.45,4.45,0,0,0-2.1,2.29,15.14,15.14,0,0,0-1.05,3.15c-.26,1.09-.52,2.18-.74,3.29a77.51,77.51,0,0,0-1.13,26.77,130.41,130.41,0,0,0,2.45,13.26c1,4.39,2.07,8.77,3.33,13.09.63,2.17,1.27,4.32,1.95,6.49a13.54,13.54,0,0,1,.52,3.41,5,5,0,0,1-1,3.38,2.79,2.79,0,0,1-3.52.66,3.18,3.18,0,0,1-1.21-1.47,4.22,4.22,0,0,1-.36-1.83,3.32,3.32,0,0,1,.57-1.82,2.25,2.25,0,0,1,1.74-1.08,1.33,1.33,0,0,1,1,.56,1.68,1.68,0,0,1,.35.95,1.37,1.37,0,0,1-1,1.45Z"/><path class="cls-2" d="M946.16,368.73a1.36,1.36,0,0,1,1,1.44,1.68,1.68,0,0,1-.35,1,1.3,1.3,0,0,1-1,.55,2.18,2.18,0,0,1-1.73-1.07,3.25,3.25,0,0,1-.58-1.82,4.22,4.22,0,0,1,.36-1.83,3.26,3.26,0,0,1,1.21-1.48,2.81,2.81,0,0,1,3.52.67,5,5,0,0,1,1,3.37,13.54,13.54,0,0,1-.52,3.42c-.68,2.17-1.32,4.31-2,6.48-1.26,4.33-2.31,8.71-3.33,13.1a130.73,130.73,0,0,0-2.45,13.25,77.56,77.56,0,0,0,1.13,26.78c.22,1.1.48,2.2.75,3.29a14.05,14.05,0,0,0,1.05,3.15,4.34,4.34,0,0,0,2.09,2.28,2.21,2.21,0,0,0,2.67-.53,4.16,4.16,0,0,0,.94-2.86,3.76,3.76,0,0,0-1.1-2.71c-.65-.54-1.88,0-2.23.87a2.18,2.18,0,0,0,1.17,2.59l0,.06a2.34,2.34,0,0,1-1.7-2.84,2.38,2.38,0,0,1,1.25-1.44,2,2,0,0,1,2,.1,3.31,3.31,0,0,1,1.09,1.56,6.06,6.06,0,0,1,.36,1.78,4.71,4.71,0,0,1-1.18,3.39,2.74,2.74,0,0,1-1.67.92,3.21,3.21,0,0,1-1.84-.29,5.24,5.24,0,0,1-2.36-2.63,18.28,18.28,0,0,1-1.07-3.26c-.28-1.09-.56-2.19-.8-3.3-1.91-8.82-2.8-18-1.52-27a113.84,113.84,0,0,1,2.54-13.35c1.06-4.39,2.25-8.76,3.58-13.07.66-2.16,1.34-4.32,2-6.46a11.25,11.25,0,0,0,.51-3.25,4.26,4.26,0,0,0-.95-2.93,2.34,2.34,0,0,0-1.26-.7,1.85,1.85,0,0,0-1.35.25,3.16,3.16,0,0,0-1.12,2.62,2.51,2.51,0,0,0,.42,1.36,1.48,1.48,0,0,0,1,.7c.24,0,.71-.32.86-.74a1,1,0,0,0-.54-1.24Z"/><path class="cls-2" d="M940.59,529.63a1,1,0,0,0-.54,1.24c.15.42.62.78.86.73a1.41,1.41,0,0,0,1-.7,2.45,2.45,0,0,0,.42-1.35,3.15,3.15,0,0,0-1.12-2.62,1.9,1.9,0,0,0-1.35-.26,2.49,2.49,0,0,0-1.27.71,4.29,4.29,0,0,0-.94,2.93,11.25,11.25,0,0,0,.51,3.25c.7,2.13,1.38,4.3,2,6.46,1.33,4.31,2.52,8.68,3.58,13.07a113.45,113.45,0,0,1,2.54,13.35c1.28,9,.38,18.21-1.52,27-.24,1.11-.52,2.2-.8,3.3a17.8,17.8,0,0,1-1.08,3.26,5.22,5.22,0,0,1-2.35,2.63,3.21,3.21,0,0,1-1.84.29,2.84,2.84,0,0,1-1.67-.92,4.71,4.71,0,0,1-1.18-3.39,5.7,5.7,0,0,1,.36-1.78,3.26,3.26,0,0,1,1.09-1.56,2,2,0,0,1,2-.1,2.39,2.39,0,0,1,1.25,1.43,2.34,2.34,0,0,1-1.7,2.84l0-.06a2.16,2.16,0,0,0,1.18-2.58c-.35-.87-1.58-1.41-2.23-.88a3.8,3.8,0,0,0-1.1,2.72,4.16,4.16,0,0,0,.94,2.86,2.22,2.22,0,0,0,2.67.53,4.41,4.41,0,0,0,2.09-2.28,14.76,14.76,0,0,0,1.05-3.15c.27-1.1.53-2.19.75-3.29a77.56,77.56,0,0,0,1.13-26.78,130.73,130.73,0,0,0-2.45-13.25c-1-4.39-2.07-8.77-3.34-13.1-.62-2.17-1.26-4.31-1.94-6.48a13.11,13.11,0,0,1-.52-3.42,5,5,0,0,1,1-3.37,2.81,2.81,0,0,1,3.52-.67,3.26,3.26,0,0,1,1.21,1.48,4.2,4.2,0,0,1,.36,1.82,3.3,3.3,0,0,1-.58,1.83,2.18,2.18,0,0,1-1.73,1.07,1.26,1.26,0,0,1-1-.55,1.68,1.68,0,0,1-.35-1,1.36,1.36,0,0,1,1-1.44Z"/><path class="cls-2" d="M945.81,529.53a1.37,1.37,0,0,1,1,1.44,1.77,1.77,0,0,1-.36.95,1.3,1.3,0,0,1-1,.56,2.19,2.19,0,0,1-1.73-1.08,3.41,3.41,0,0,1-.58-1.82,4.22,4.22,0,0,1,.37-1.83,3.16,3.16,0,0,1,1.2-1.47,2.79,2.79,0,0,1,3.52.66,5,5,0,0,1,1,3.38,13.55,13.55,0,0,1-.53,3.41c-.67,2.17-1.32,4.32-1.94,6.49-1.27,4.33-2.32,8.7-3.34,13.09A133.23,133.23,0,0,0,941,566.57a77.52,77.52,0,0,0,1.14,26.77c.21,1.11.48,2.2.74,3.29a14.39,14.39,0,0,0,1.05,3.15,4.48,4.48,0,0,0,2.09,2.29,2.25,2.25,0,0,0,2.68-.53,4.11,4.11,0,0,0,.93-2.86,3.76,3.76,0,0,0-1.1-2.72c-.64-.54-1.88,0-2.23.87a2.19,2.19,0,0,0,1.18,2.59l0,.06a2.26,2.26,0,0,1-.46-4.27,2,2,0,0,1,2,.1,3.23,3.23,0,0,1,1.1,1.55,5.74,5.74,0,0,1,.35,1.78,4.69,4.69,0,0,1-1.18,3.4,2.85,2.85,0,0,1-1.66.92,3.41,3.41,0,0,1-1.85-.29,5.3,5.3,0,0,1-2.35-2.63,17.8,17.8,0,0,1-1.08-3.26c-.28-1.1-.56-2.2-.8-3.31-1.9-8.82-2.8-18-1.51-27a113.65,113.65,0,0,1,2.53-13.34c1.06-4.39,2.25-8.76,3.59-13.08.65-2.16,1.34-4.32,2-6.45a11,11,0,0,0,.51-3.25,4.33,4.33,0,0,0-.94-2.94,2.33,2.33,0,0,0-1.27-.7,1.85,1.85,0,0,0-1.35.26,3.17,3.17,0,0,0-1.12,2.61,2.39,2.39,0,0,0,.43,1.36,1.45,1.45,0,0,0,1,.7c.24,0,.71-.32.86-.73a1,1,0,0,0-.54-1.25Z"/></g></g></svg>