<svg xmlns="http://www.w3.org/2000/svg" viewBox="0 0 580 230.11"><defs><style>.cls-1{isolation:isolate;}.cls-2{fill:#fdfbfb;}.cls-3{fill:#fff;}.cls-4{fill:#fcfafa;}</style></defs><title>アセット 3</title><g id="レイヤー_2" data-name="レイヤー 2"><g id="レイヤー_1-2" data-name="レイヤー 1"><ellipse class="cls-1" cx="290" cy="115.05" rx="290" ry="115.05"/><path class="cls-2" d="M159.4,127.91a84.45,84.45,0,0,1-4,11,68.29,68.29,0,0,1-13.4,1.8c-17.4,0-26.4-11.6-26.4-24.4,0-14.9,11.3-25.2,27.7-25.2a70.79,70.79,0,0,1,13.8,1.7c.3,3.3.8,7.7,1.4,11.3l-2.3.5c-1.5-4.9-3.2-7.9-6.9-9.4a19.61,19.61,0,0,0-7.7-1.4c-12,0-18.4,8.9-18.4,21,0,14.1,7.3,23.1,19.1,23.1,7.4,0,11.1-3.4,14.8-10.7Z"/><path class="cls-2" d="M191.3,140.41a5.22,5.22,0,0,1-3.4-1.4,7.59,7.59,0,0,1-1.8-3.3c-2.9,2-6.5,4.7-8.8,4.7a8.94,8.94,0,0,1-8.9-9c0-3.6,2-5.9,6-7.3,4.5-1.5,9.9-3.4,11.5-4.7v-1.5c0-5.2-2.6-8.2-6.4-8.2a4,4,0,0,0-3.4,1.7,16.4,16.4,0,0,0-2,4.7c-.4,1.2-1,1.7-2.1,1.7a3.52,3.52,0,0,1-3.2-3.2c0-1,.9-1.9,2.4-2.9,2.1-1.5,6.4-4.2,10.5-5.1a9.92,9.92,0,0,1,6.1,2c2.6,2.2,3.7,4.7,3.7,8.5v14.1c0,3.4,1.2,4.4,2.6,4.4a6.07,6.07,0,0,0,2.6-.8l.7,2ZM185.9,122c-1.6.8-5.1,2.3-6.8,3.1-2.8,1.2-4.5,2.6-4.5,5.3a5.27,5.27,0,0,0,5.3,5.6,10.14,10.14,0,0,0,6-2.6Z"/><path class="cls-2" d="M208.5,107.51v-2a18.62,18.62,0,0,1,6.4-14.6,15.22,15.22,0,0,1,8.2-3.9c2.5.1,4.7.9,5.9,2.3a2.25,2.25,0,0,1,.4,2.6,4.87,4.87,0,0,1-1.8,2.3,1.66,1.66,0,0,1-2.1-.1c-1.5-1.3-3.5-3-5.9-3-5.4,0-5.4,7.4-5.4,12.9v3.4h7.7a2.83,2.83,0,0,1-.7,3h-7v21.2c0,5.3.8,5.3,6.3,5.9v2H203.3v-2c4.6-.4,5.1-.7,5.1-5.5v-21.5h-5.2l-.3-.8,1.6-2.2Z"/><path class="cls-2" d="M254.2,133.41c-4.7,5.8-9.8,7.1-12.1,7.1-8.9,0-14.3-7.3-14.3-15.7a19.14,19.14,0,0,1,4.7-12.8,15.15,15.15,0,0,1,10.9-5.3A11.39,11.39,0,0,1,254.6,118c-.1,1.5-.3,2.1-1.5,2.4-1.5.3-10.8.9-19.5,1.2-.2,9.8,5.8,13.8,10.9,13.8a12.29,12.29,0,0,0,8.5-3.7Zm-12.6-24c-3.4,0-6.6,3.1-7.7,9.1,4.1,0,8.2,0,12.5-.2,1.3,0,1.8-.4,1.8-1.5C248.3,112.91,245.7,109.41,241.6,109.41Z"/><path class="cls-2" d="M314.6,103.51a22,22,0,0,0-2.3-5.4c-1.4-2.5-2.5-3.1-6.6-3.1h-7.8c-2.1,0-2.3.2-2.3,2.3v16.9h9.1c5.3,0,5.6-.9,6.7-6h2.2v15.3h-2.3c-.9-5.1-1.5-6.3-6.6-6.3h-9.1v13.1c0,6.4.7,6.6,7.4,7.2v2H282.7v-2c5.9-.4,6.6-.9,6.6-7.2v-28.9c0-6.4-.7-6.6-6.6-7.2v-2h23.1c6.6,0,9.1-.1,10.3-.1.1,2.6.4,7.7.7,11.2Z"/><path class="cls-2" d="M324.7,139.61v-2c4.6-.4,5.1-.8,5.1-5.8v-15c0-4.5-.2-4.8-4.6-5.5v-1.8a52.67,52.67,0,0,0,10.4-2.9v25.3c0,5,.5,5.3,5.3,5.8v2H324.7Zm7.6-40.3a4,4,0,0,1-3.9-3.9,3.93,3.93,0,0,1,3.9-4,3.83,3.83,0,0,1,3.7,4A3.74,3.74,0,0,1,332.3,99.31Z"/><path class="cls-2" d="M364,106.61c9.1,0,15.9,6.9,15.9,16.4,0,11.8-8.8,17.4-15.9,17.4-10.1,0-16.2-8.1-16.2-16.3C347.8,112.31,357.1,106.61,364,106.61Zm-.8,2.5c-4.5,0-8.5,4.3-8.5,12.8,0,9.3,4.1,16,10.1,16,4.5,0,8.3-3.3,8.3-13.3C373.1,116.11,369.6,109.11,363.2,109.11Z"/><path class="cls-2" d="M404.9,139.61H388.1v-2c4.6-.4,5-.8,5-5.5v-15.2c0-4.8-.3-5-4.5-5.5v-1.8a41.87,41.87,0,0,0,10.3-3v8c2.6-3.8,5.6-7.8,9.3-7.8,2.7,0,4.2,1.7,4.2,3.5a4.85,4.85,0,0,1-2.5,4,1.5,1.5,0,0,1-1.9-.1c-1.1-1.1-2-1.8-3.3-1.8-1.5,0-4.2,2.3-5.8,6v13.7c0,4.8.4,5.2,6,5.6Z"/><path class="cls-2" d="M444.9,133.41c-4.7,5.8-9.8,7.1-12.1,7.1-8.9,0-14.3-7.3-14.3-15.7a19.14,19.14,0,0,1,4.7-12.8,15.15,15.15,0,0,1,10.9-5.3A11.39,11.39,0,0,1,445.3,118c-.1,1.5-.3,2.1-1.5,2.4-1.5.3-10.8.9-19.5,1.2-.2,9.8,5.8,13.8,10.9,13.8a12.29,12.29,0,0,0,8.5-3.7Zm-12.5-24c-3.4,0-6.6,3.1-7.7,9.1,4.1,0,8.2,0,12.5-.2,1.3,0,1.8-.4,1.8-1.5C439,112.91,436.5,109.41,432.4,109.41Z"/><path class="cls-3" d="M234.1,98.91s17-15.4,16.5-7.1S234.1,98.91,234.1,98.91Z"/><path class="cls-3" d="M514.4,120.11s24.9-24.2,24.6-11.6S514.4,120.11,514.4,120.11Z"/><path class="cls-3" d="M395.9,174.61s-28.6,11.7-27.8-3.1S395.9,174.61,395.9,174.61Z"/><path class="cls-3" d="M397.3,174s-15.6-26.7-1-28C411.1,144.71,397.3,174,397.3,174Z"/><path class="cls-3" d="M398.5,174.61s16.8-25.9,24.6-13.4S398.5,174.61,398.5,174.61Z"/><path class="cls-3" d="M398.4,175.41s8.3,29.8,19.4,20.1S398.4,175.41,398.4,175.41Z"/><path class="cls-3" d="M397.1,175.61s-22.9,20.8-9.3,26.4S397.1,175.61,397.1,175.61Z"/><circle class="cls-3" cx="397.6" cy="174.91" r="1.7"/><path class="cls-4" d="M419.53,183a15.58,15.58,0,0,1,7.72-6.22,33.21,33.21,0,0,1,9.83-2.17,60.05,60.05,0,0,1,9.86.06c1.61.11,3.21.31,4.73.43a13.71,13.71,0,0,0,1.94.06c.08,0,.15,0,0,.06a1.69,1.69,0,0,0-.49.44,1.71,1.71,0,0,0-.32,1.09c.07.57.19.54.15.53a1,1,0,0,0-.16-.23,14,14,0,0,0-1.54-1.43,7.76,7.76,0,0,1-2.06-2.52,4.1,4.1,0,0,1,.27-4.08,7.29,7.29,0,0,1,2.35-2.2,30.69,30.69,0,0,1,9.81-3.31,59.73,59.73,0,0,1,10-1.05,37.47,37.47,0,0,1,10.34,1.15,17.08,17.08,0,0,1,5.32,2.47,10.82,10.82,0,0,1,2.43,2.44,9.91,9.91,0,0,1,.93,1.68,5.87,5.87,0,0,1,.45,2.57,6.56,6.56,0,0,1-1.81,4.17,9,9,0,0,1-2.86,2,18,18,0,0,1-5.62,1.42,24,24,0,0,1-5.3,0,21.18,21.18,0,0,1-5.27-1.13,10.37,10.37,0,0,1-4.82-3.34,6.39,6.39,0,0,1-1.22-3.06,6.86,6.86,0,0,1,.42-3.18,12.12,12.12,0,0,1,3.25-4.57A25.46,25.46,0,0,1,472,162c.72-.45,1.46-.85,2.21-1.25l2.19-1.1q2.13-1.05,4.18-2.19a45.4,45.4,0,0,0,14-11.77,69.75,69.75,0,0,0,5.15-7.7l1.15-2c.35-.65.68-1.31,1-2a36.33,36.33,0,0,0,1.55-4.15,41.88,41.88,0,0,0,1.22-17.69,53.07,53.07,0,0,0-5.49-17,63.13,63.13,0,0,0-10.52-14.55c-8.38-8.69-19-15.2-30.41-19.69a120.57,120.57,0,0,0-17.72-5.5c-6.14-1.43-12.31-2.73-18.52-3.71a193.64,193.64,0,0,0-37.56-2.38A175.69,175.69,0,0,0,347,54.77c-6.14,1.55-12.23,3.41-18.28,5.41s-12.06,4.26-18.12,6.43q-4.53,1.65-9.12,3.22t-9.25,3a106.64,106.64,0,0,1-19.16,4,67.16,67.16,0,0,1-19.75-.61,36.16,36.16,0,0,1-9.6-3.2,28.37,28.37,0,0,1-8.24-6.24,25.54,25.54,0,0,1-5.23-9,28.38,28.38,0,0,1-1.41-10.35,29.37,29.37,0,0,1,2.34-10.23,23.4,23.4,0,0,1,6.37-8.74,17.45,17.45,0,0,1,2.27-1.62,25.63,25.63,0,0,1,2.35-1.31,24.72,24.72,0,0,1,5.1-1.87,24.22,24.22,0,0,1,10.88-.17,22.89,22.89,0,0,1,9.92,4.8,18.39,18.39,0,0,1,6,9.63,18.2,18.2,0,0,1-.8,11.29A14.64,14.64,0,0,1,270,54.08a13.36,13.36,0,0,1-5.11,3,12.94,12.94,0,0,1-5.79.45,9.25,9.25,0,0,1-5.31-2.64,7.23,7.23,0,0,1-2-5.35,7.41,7.41,0,0,1,2.08-4.67,7.89,7.89,0,0,0-.22,4.51,5,5,0,0,0,2.25,3,6.11,6.11,0,0,0,3.51.81,9.49,9.49,0,0,0,3.67-.9A9.63,9.63,0,0,0,267.89,47a12.84,12.84,0,0,0,.36-7.63A12.29,12.29,0,0,0,264.11,33a17,17,0,0,0-7.23-3.57,19.2,19.2,0,0,0-8.23,0,19.48,19.48,0,0,0-4,1.32,19.08,19.08,0,0,0-3.56,2.1,18.42,18.42,0,0,0-5.1,6.53,24.3,24.3,0,0,0-2.26,8.37,22,22,0,0,0,11.76,21.9,32.77,32.77,0,0,0,8.56,3,60.48,60.48,0,0,0,18.62.61,99.07,99.07,0,0,0,18.41-4.2c3-1,6-2,9-3.11s6-2.29,8.94-3.48C321,57.79,333,52.83,345.46,49.1a183.88,183.88,0,0,1,38.47-7.4,174.69,174.69,0,0,1,19.68-.46,180.87,180.87,0,0,1,19.61,1.64c6.5.89,13,2,19.33,3.5a129.49,129.49,0,0,1,19.08,5.78,99.51,99.51,0,0,1,17.91,9.23A80,80,0,0,1,495,74.56c9.16,10.07,15.51,23,16.63,36.8a48,48,0,0,1-2.55,20.36,40.25,40.25,0,0,1-2.08,4.77c-.41.76-.84,1.52-1.29,2.27l-1.35,2.09a74,74,0,0,1-6,8,49.23,49.23,0,0,1-7.33,6.95,54,54,0,0,1-8.51,5.29c-1.46.75-2.94,1.47-4.42,2.14l-2.14,1c-.69.34-1.37.68-2,1.06a21.67,21.67,0,0,0-3.63,2.52,8.73,8.73,0,0,0-2.42,3.1,2.74,2.74,0,0,0,.26,2.89,5.55,5.55,0,0,0,3.16,1.77,11.6,11.6,0,0,0,2.06.25c.34,0,.7,0,1.05,0l1.13-.07a26.47,26.47,0,0,0,4.3-.66,9.52,9.52,0,0,0,3.49-1.56,3.78,3.78,0,0,0,.9-.93c.17-.25.11-.33.1-.16a.44.44,0,0,0,.06.22,2.76,2.76,0,0,0-.21-.44,3.85,3.85,0,0,0-.9-1,11.53,11.53,0,0,0-3.28-1.79,32.74,32.74,0,0,0-8.63-1.85,47.15,47.15,0,0,0-9.2,0,31.68,31.68,0,0,0-4.49.79,14.6,14.6,0,0,0-4,1.53,3.46,3.46,0,0,0-1.18,1c-.12.31-.11.21,0,.5a3.72,3.72,0,0,0,1.1,1.06,17.83,17.83,0,0,1,2.11,1.71,5,5,0,0,1,.6.7,2.93,2.93,0,0,1,.62,1.63,2.58,2.58,0,0,1-.5,1.65,2.75,2.75,0,0,1-1,.8,4,4,0,0,1-1.18.4,16.11,16.11,0,0,1-2.87.18c-1.69,0-3.29-.14-4.88-.27-3.17-.2-6.28-.54-9.38-.61a43.32,43.32,0,0,0-9.19.59A18.75,18.75,0,0,0,419.53,183Z"/><path class="cls-3" d="M178.61,62.83s28.6-11.7,27.8,3.1S178.61,62.83,178.61,62.83Z"/><path class="cls-3" d="M177.21,63.43s15.6,26.7,1,28C163.41,92.73,177.21,63.43,177.21,63.43Z"/><path class="cls-3" d="M176,62.83s-16.8,25.9-24.6,13.4S176,62.83,176,62.83Z"/><path class="cls-3" d="M176.11,62s-8.3-29.8-19.4-20.1S176.11,62,176.11,62Z"/><path class="cls-3" d="M177.41,61.83s22.9-20.8,9.3-26.4S177.41,61.83,177.41,61.83Z"/><circle class="cls-3" cx="176.91" cy="62.53" r="1.7"/><path class="cls-4" d="M153,53.47a15.65,15.65,0,0,1-7.73,6.22,33.2,33.2,0,0,1-9.83,2.16,59,59,0,0,1-9.86-.06c-1.61-.11-3.21-.31-4.72-.42a12.71,12.71,0,0,0-1.95-.07c-.08,0-.15,0,0-.06a1.54,1.54,0,0,0,.49-.44,1.68,1.68,0,0,0,.32-1.08c-.07-.57-.18-.55-.15-.53a1,1,0,0,0,.16.22,13.12,13.12,0,0,0,1.54,1.44,7.76,7.76,0,0,1,2.06,2.52,4.22,4.22,0,0,1,.41,2.08,4.36,4.36,0,0,1-.67,2,7.37,7.37,0,0,1-2.36,2.19A30.45,30.45,0,0,1,110.93,73a57.71,57.71,0,0,1-10,1,37.45,37.45,0,0,1-10.34-1.14,17.08,17.08,0,0,1-5.32-2.47,10.84,10.84,0,0,1-2.42-2.45,9.56,9.56,0,0,1-.94-1.68,5.87,5.87,0,0,1-.45-2.57,6.53,6.53,0,0,1,1.81-4.16,9,9,0,0,1,2.86-2,18,18,0,0,1,5.62-1.43,25.33,25.33,0,0,1,5.3,0,20.77,20.77,0,0,1,5.27,1.14,10.3,10.3,0,0,1,4.82,3.34,6.31,6.31,0,0,1,1.22,3.06,6.8,6.8,0,0,1-.42,3.17,12.08,12.08,0,0,1-3.25,4.58,26.05,26.05,0,0,1-4.17,3.1c-.72.45-1.46.85-2.21,1.24l-2.19,1.1c-1.42.71-2.81,1.43-4.18,2.19A45.43,45.43,0,0,0,78,90.8a67.92,67.92,0,0,0-5.15,7.7l-1.15,2c-.35.65-.67,1.31-1,2a31.8,31.8,0,0,0-1.55,4.15,41.52,41.52,0,0,0-1.22,17.68,52.81,52.81,0,0,0,5.48,17A63.48,63.48,0,0,0,83.92,155.9c8.39,8.68,19,15.19,30.41,19.68a118.34,118.34,0,0,0,17.73,5.5c6.13,1.44,12.3,2.73,18.51,3.71a192.08,192.08,0,0,0,37.56,2.38,176.22,176.22,0,0,0,37.35-5.49c6.14-1.55,12.23-3.41,18.28-5.42s12.06-4.25,18.12-6.43c3-1.09,6.06-2.18,9.12-3.22s6.13-2.08,9.25-3a106.64,106.64,0,0,1,19.16-4,67.16,67.16,0,0,1,19.75.6,36.18,36.18,0,0,1,9.6,3.21,28,28,0,0,1,8.24,6.23,25.54,25.54,0,0,1,5.23,9A28.23,28.23,0,0,1,343.64,189a29.42,29.42,0,0,1-2.34,10.24,23.42,23.42,0,0,1-6.36,8.73,17.86,17.86,0,0,1-2.27,1.62,25.88,25.88,0,0,1-2.36,1.32,25.32,25.32,0,0,1-5.1,1.87,24.08,24.08,0,0,1-10.88.16,22.78,22.78,0,0,1-9.92-4.8,18.39,18.39,0,0,1-6-9.63,18.17,18.17,0,0,1,.8-11.28,14.42,14.42,0,0,1,3.34-4.86,13,13,0,0,1,5.1-3,12.81,12.81,0,0,1,5.79-.45,9.13,9.13,0,0,1,5.31,2.64,7.18,7.18,0,0,1,2,5.35,7.4,7.4,0,0,1-2.08,4.67,7.92,7.92,0,0,0,.22-4.52,5,5,0,0,0-2.25-3,6.09,6.09,0,0,0-3.5-.81,9.86,9.86,0,0,0-3.68.9,9.69,9.69,0,0,0-4.77,5.38,12.92,12.92,0,0,0-.36,7.63,12.25,12.25,0,0,0,4.15,6.35,16.9,16.9,0,0,0,7.22,3.56,19.35,19.35,0,0,0,8.23,0,18.91,18.91,0,0,0,4-1.33,18,18,0,0,0,3.56-2.1,18.33,18.33,0,0,0,5.1-6.53,24,24,0,0,0,2.26-8.36A22,22,0,0,0,327,166.79a32.35,32.35,0,0,0-8.55-3,60.56,60.56,0,0,0-18.63-.62,99.1,99.1,0,0,0-18.41,4.21c-3,1-6,2-9,3.11s-6,2.29-8.95,3.47c-11.91,4.73-23.89,9.68-36.37,13.42a183.44,183.44,0,0,1-38.48,7.39,172.31,172.31,0,0,1-19.68.47,178.4,178.4,0,0,1-19.61-1.65c-6.5-.88-13-2-19.33-3.5a129.45,129.45,0,0,1-19.08-5.77A99.56,99.56,0,0,1,93,175.05a79.66,79.66,0,0,1-15.48-13.17c-9.16-10.06-15.51-23-16.62-36.79a47.9,47.9,0,0,1,2.54-20.37A38.61,38.61,0,0,1,65.5,100c.4-.77.83-1.53,1.28-2.27l1.35-2.1a73.93,73.93,0,0,1,6-8,49.23,49.23,0,0,1,7.33-7A54,54,0,0,1,90,75.37c1.46-.75,2.94-1.47,4.42-2.15l2.14-1c.69-.34,1.37-.68,2-1.06a22.27,22.27,0,0,0,3.63-2.52,8.7,8.7,0,0,0,2.42-3.1,2.75,2.75,0,0,0-.26-2.9,5.48,5.48,0,0,0-3.16-1.76,10,10,0,0,0-2.06-.25c-.34,0-.7,0-1.05,0l-1.13.06a26.46,26.46,0,0,0-4.3.67,9.38,9.38,0,0,0-3.48,1.55,4,4,0,0,0-.91.93c-.17.26-.11.33-.1.16a.35.35,0,0,0-.06-.21,4,4,0,0,0,.21.43,3.93,3.93,0,0,0,.91,1A11.58,11.58,0,0,0,92.48,67a32.74,32.74,0,0,0,8.63,1.84,47.15,47.15,0,0,0,9.2,0,32.06,32.06,0,0,0,4.5-.78,14.86,14.86,0,0,0,4-1.53,3.51,3.51,0,0,0,1.17-1c.13-.31.11-.21,0-.5a3.85,3.85,0,0,0-1.1-1.06,16.72,16.72,0,0,1-2.11-1.7,5.66,5.66,0,0,1-.6-.7,3.09,3.09,0,0,1-.62-1.64,2.56,2.56,0,0,1,.5-1.64,2.78,2.78,0,0,1,1-.81,4.3,4.3,0,0,1,1.19-.4,15,15,0,0,1,2.86-.17c1.69,0,3.29.13,4.88.26,3.17.21,6.28.54,9.38.61a42.67,42.67,0,0,0,9.19-.59A18.7,18.7,0,0,0,153,53.47Z"/></g></g></svg>