<svg xmlns="http://www.w3.org/2000/svg" viewBox="0 0 580 376"><defs><style>.cls-1{opacity:0.71;isolation:isolate;}.cls-2{fill:#fdfbfb;}.cls-3{fill:#fefcfc;}.cls-4{fill:#fffdfd;}.cls-5{fill:#fff;}.cls-6{fill:#fcfafa;}</style></defs><title>アセット 3</title><g id="レイヤー_2" data-name="レイヤー 2"><g id="レイヤー_1-2" data-name="レイヤー 1"><ellipse class="cls-1" cx="290" cy="188" rx="290" ry="188"/><path class="cls-2" d="M159.4,195.3a84.45,84.45,0,0,1-4,11,68.29,68.29,0,0,1-13.4,1.8c-17.4,0-26.4-11.6-26.4-24.4,0-14.9,11.3-25.2,27.7-25.2a70.79,70.79,0,0,1,13.8,1.7c.3,3.3.8,7.7,1.4,11.3l-2.3.5c-1.5-4.9-3.2-7.9-6.9-9.4a19.61,19.61,0,0,0-7.7-1.4c-12,0-18.4,8.9-18.4,21,0,14.1,7.3,23.1,19.1,23.1,7.4,0,11.1-3.4,14.8-10.7Z"/><path class="cls-2" d="M191.3,207.8a5.22,5.22,0,0,1-3.4-1.4,7.59,7.59,0,0,1-1.8-3.3c-2.9,2-6.5,4.7-8.8,4.7a8.94,8.94,0,0,1-8.9-9c0-3.6,2-5.9,6-7.3,4.5-1.5,9.9-3.4,11.5-4.7v-1.5c0-5.2-2.6-8.2-6.4-8.2a4,4,0,0,0-3.4,1.7,16.4,16.4,0,0,0-2,4.7c-.4,1.2-1,1.7-2.1,1.7a3.52,3.52,0,0,1-3.2-3.2c0-1,.9-1.9,2.4-2.9,2.1-1.5,6.4-4.2,10.5-5.1a9.92,9.92,0,0,1,6.1,2c2.6,2.2,3.7,4.7,3.7,8.5v14.1c0,3.4,1.2,4.4,2.6,4.4a6.07,6.07,0,0,0,2.6-.8l.7,2Zm-5.4-18.4c-1.6.8-5.1,2.3-6.8,3.1-2.8,1.2-4.5,2.6-4.5,5.3a5.27,5.27,0,0,0,5.3,5.6,10.14,10.14,0,0,0,6-2.6Z"/><path class="cls-2" d="M208.5,174.9v-2a18.62,18.62,0,0,1,6.4-14.6,15.22,15.22,0,0,1,8.2-3.9c2.5.1,4.7.9,5.9,2.3a2.25,2.25,0,0,1,.4,2.6,4.87,4.87,0,0,1-1.8,2.3,1.66,1.66,0,0,1-2.1-.1c-1.5-1.3-3.5-3-5.9-3-5.4,0-5.4,7.4-5.4,12.9v3.4h7.7a2.83,2.83,0,0,1-.7,3h-7V199c0,5.3.8,5.3,6.3,5.9v2H203.3v-2c4.6-.4,5.1-.7,5.1-5.5V177.9h-5.2l-.3-.8,1.6-2.2Z"/><path class="cls-2" d="M254.2,200.8c-4.7,5.8-9.8,7.1-12.1,7.1-8.9,0-14.3-7.3-14.3-15.7a19.14,19.14,0,0,1,4.7-12.8,15.15,15.15,0,0,1,10.9-5.3,11.39,11.39,0,0,1,11.2,11.3c-.1,1.5-.3,2.1-1.5,2.4-1.5.3-10.8.9-19.5,1.2-.2,9.8,5.8,13.8,10.9,13.8a12.29,12.29,0,0,0,8.5-3.7Zm-12.6-24c-3.4,0-6.6,3.1-7.7,9.1,4.1,0,8.2,0,12.5-.2,1.3,0,1.8-.4,1.8-1.5C248.3,180.3,245.7,176.8,241.6,176.8Z"/><path class="cls-2" d="M314.6,170.9a22,22,0,0,0-2.3-5.4c-1.4-2.5-2.5-3.1-6.6-3.1h-7.8c-2.1,0-2.3.2-2.3,2.3v16.9h9.1c5.3,0,5.6-.9,6.7-6h2.2v15.3h-2.3c-.9-5.1-1.5-6.3-6.6-6.3h-9.1v13.1c0,6.4.7,6.6,7.4,7.2v2H282.7v-2c5.9-.4,6.6-.9,6.6-7.2V168.8c0-6.4-.7-6.6-6.6-7.2v-2h23.1c6.6,0,9.1-.1,10.3-.1.1,2.6.4,7.7.7,11.2Z"/><path class="cls-2" d="M324.7,207v-2c4.6-.4,5.1-.8,5.1-5.8v-15c0-4.5-.2-4.8-4.6-5.5v-1.8a52.67,52.67,0,0,0,10.4-2.9v25.3c0,5,.5,5.3,5.3,5.8v2H324.7Zm7.6-40.3a4,4,0,0,1-3.9-3.9,3.93,3.93,0,0,1,3.9-4,3.83,3.83,0,0,1,3.7,4A3.74,3.74,0,0,1,332.3,166.7Z"/><path class="cls-2" d="M364,174c9.1,0,15.9,6.9,15.9,16.4,0,11.8-8.8,17.4-15.9,17.4-10.1,0-16.2-8.1-16.2-16.3C347.8,179.7,357.1,174,364,174Zm-.8,2.5c-4.5,0-8.5,4.3-8.5,12.8,0,9.3,4.1,16,10.1,16,4.5,0,8.3-3.3,8.3-13.3C373.1,183.5,369.6,176.5,363.2,176.5Z"/><path class="cls-2" d="M404.9,207H388.1v-2c4.6-.4,5-.8,5-5.5V184.3c0-4.8-.3-5-4.5-5.5V177a41.87,41.87,0,0,0,10.3-3v8c2.6-3.8,5.6-7.8,9.3-7.8,2.7,0,4.2,1.7,4.2,3.5a4.85,4.85,0,0,1-2.5,4,1.5,1.5,0,0,1-1.9-.1c-1.1-1.1-2-1.8-3.3-1.8-1.5,0-4.2,2.3-5.8,6v13.7c0,4.8.4,5.2,6,5.6Z"/><path class="cls-2" d="M444.9,200.8c-4.7,5.8-9.8,7.1-12.1,7.1-8.9,0-14.3-7.3-14.3-15.7a19.14,19.14,0,0,1,4.7-12.8,15.15,15.15,0,0,1,10.9-5.3,11.39,11.39,0,0,1,11.2,11.3c-.1,1.5-.3,2.1-1.5,2.4-1.5.3-10.8.9-19.5,1.2-.2,9.8,5.8,13.8,10.9,13.8a12.29,12.29,0,0,0,8.5-3.7Zm-12.5-24c-3.4,0-6.6,3.1-7.7,9.1,4.1,0,8.2,0,12.5-.2,1.3,0,1.8-.4,1.8-1.5C439,180.3,436.5,176.8,432.4,176.8Z"/><path class="cls-3" d="M197.2,33.4a12.89,12.89,0,0,1,13,13.2c0,8.6-5.8,14-13.2,14a13,13,0,0,1-13.3-13.4C183.7,40.1,188.8,33.4,197.2,33.4Zm-.8,1.5c-4.5,0-8.6,3.8-8.6,11.2S191.9,59,197.6,59c4.8,0,8.5-3.6,8.5-11.3C206.1,39.3,201.7,34.9,196.4,34.9Z"/><path class="cls-3" d="M222.6,60h-9.2V58.9c2.5-.2,2.8-.4,2.8-3V47.6c0-2.6-.2-2.8-2.5-3v-1a21.21,21.21,0,0,0,5.6-1.6v4.4c1.4-2.1,3.1-4.3,5.1-4.3,1.5,0,2.3.9,2.3,1.9a2.58,2.58,0,0,1-1.4,2.2.76.76,0,0,1-1-.1,2.56,2.56,0,0,0-1.8-1c-.8,0-2.3,1.2-3.2,3.3v7.5c0,2.6.2,2.8,3.3,3.1v1Z"/><path class="cls-3" d="M233.9,54.1a2.78,2.78,0,0,0-1.3,2c0,.7.7,1.5,2.5,1.5h4.5c2.6,0,5.8.8,5.8,4.8,0,4.2-4.9,8.1-10.2,8.1-4.5,0-7-2.6-7-5a3.45,3.45,0,0,1,1-2.3c.8-.8,2.4-2.2,3.3-2.9a5.07,5.07,0,0,1-3-2.2,3.21,3.21,0,0,1-.5-1.7,8.88,8.88,0,0,0,3.7-2.8Zm1.9.4c-3.7,0-6.8-2.3-6.8-6,0-4.6,4.1-6.7,7.2-6.7a8.61,8.61,0,0,1,3.8,1,26.91,26.91,0,0,0,5.4-.6l.2.4a4.53,4.53,0,0,1-1.5,2.1c-.6,0-1.9-.2-2.5-.2a6,6,0,0,1,1.2,3.6C242.9,52.5,239.3,54.5,235.8,54.5Zm1,5.9c-2,0-2.8.2-3.6.8a4.58,4.58,0,0,0-1.9,3.3c0,2.2,2.3,3.8,5.4,3.8,3.8,0,6-2,6-4.5a2.88,2.88,0,0,0-1.8-2.9A12.43,12.43,0,0,0,236.8,60.4Zm-1-17.3c-1.8,0-3.4,1.6-3.4,4.8s1.6,5.4,3.8,5.4c1.8-.1,3.3-1.6,3.3-4.8S238.1,43.1,235.8,43.1Z"/><path class="cls-3" d="M259.9,60.4a2.73,2.73,0,0,1-1.9-.8,4,4,0,0,1-1-1.8c-1.6,1.1-3.6,2.6-4.8,2.6a5,5,0,0,1-4.9-4.9c0-2,1.1-3.2,3.3-4a31.57,31.57,0,0,0,6.3-2.6v-.8c0-2.8-1.4-4.5-3.5-4.5a2.32,2.32,0,0,0-1.9.9,11.16,11.16,0,0,0-1.1,2.6,1.18,1.18,0,0,1-1.2.9,1.93,1.93,0,0,1-1.8-1.8c0-.6.5-1,1.3-1.6a18.43,18.43,0,0,1,5.8-2.8,6,6,0,0,1,3.4,1.1,5.53,5.53,0,0,1,2,4.6v7.7c0,1.8.7,2.4,1.4,2.4a3.26,3.26,0,0,0,1.4-.4l.4,1.1ZM257,50.3c-.9.4-2.8,1.3-3.7,1.7-1.5.7-2.4,1.4-2.4,2.9a2.94,2.94,0,0,0,2.9,3.1,5.41,5.41,0,0,0,3.3-1.4C257,54.7,257,52.2,257,50.3Z"/><path class="cls-3" d="M276.4,60V58.9c2.3-.2,2.6-.5,2.6-3.2V49c0-2.8-1-4.7-3.6-4.7a7,7,0,0,0-4.4,2.1v9.4c0,2.8.2,2.8,2.6,3.1V60H265V58.9c2.6-.3,2.9-.4,2.9-3.1V47.6c0-2.6-.3-2.7-2.4-3.1v-1a20.17,20.17,0,0,0,5.6-1.6v3.2a31.61,31.61,0,0,1,2.7-1.8,6.36,6.36,0,0,1,3.3-1.2c3.2,0,5.2,2.4,5.2,6.2v7.6c0,2.7.2,2.8,2.6,3.1v1.1h-8.5Z"/><path class="cls-3" d="M287,60V58.9c2.5-.2,2.8-.4,2.8-3.2V47.5c0-2.5-.1-2.6-2.5-3v-1a29.46,29.46,0,0,0,5.7-1.6V55.7c0,2.7.3,2.9,2.9,3.2V60Zm4.2-22.1a2.18,2.18,0,0,1-2.1-2.1,2.16,2.16,0,0,1,2.2-2.2,2.06,2.06,0,0,1,2,2.2A2.11,2.11,0,0,1,291.2,37.9Z"/><path class="cls-3" d="M313,56.4c-1.8,2.3-4.4,4.1-6.8,4.1-5.1,0-8.1-4.1-8.1-8.4a9.49,9.49,0,0,1,4-7.8,10.83,10.83,0,0,1,6.1-2.3,6,6,0,0,1,3.7,1.1,1.13,1.13,0,0,1,.6,1.2,2,2,0,0,1-1.4,1.8c-.2,0-.4-.1-.8-.4a6,6,0,0,0-4-1.7c-2.6,0-5,2.2-5,6.4,0,5.6,3.8,7.4,6.1,7.4,1.7,0,3-.4,4.9-2.2Z"/><path class="cls-3" d="M348.8,53.6a56.2,56.2,0,0,1-2.2,6,39.68,39.68,0,0,1-7.3,1c-9.6,0-14.4-6.4-14.4-13.4,0-8.2,6.2-13.8,15.2-13.8a43.43,43.43,0,0,1,7.6.9c.2,1.8.4,4.2.8,6.2l-1.2.3c-.8-2.7-1.8-4.3-3.8-5.2a10.48,10.48,0,0,0-4.2-.8c-6.6,0-10.1,4.9-10.1,11.5,0,7.7,4,12.7,10.5,12.7,4.1,0,6.1-1.9,8.1-5.9Z"/><path class="cls-3" d="M364.7,60.4a2.73,2.73,0,0,1-1.9-.8,4,4,0,0,1-1-1.8c-1.6,1.1-3.6,2.6-4.8,2.6a5,5,0,0,1-4.9-4.9c0-2,1.1-3.2,3.3-4a31.57,31.57,0,0,0,6.3-2.6v-.8c0-2.8-1.4-4.5-3.5-4.5a2.32,2.32,0,0,0-1.9.9,11.16,11.16,0,0,0-1.1,2.6,1.18,1.18,0,0,1-1.2.9,1.93,1.93,0,0,1-1.8-1.8c0-.6.5-1,1.3-1.6a18.43,18.43,0,0,1,5.8-2.8,6,6,0,0,1,3.4,1.1,5.53,5.53,0,0,1,2,4.6v7.7c0,1.8.7,2.4,1.4,2.4a3.26,3.26,0,0,0,1.4-.4l.4,1.1Zm-2.9-10.1c-.9.4-2.8,1.3-3.7,1.7-1.5.7-2.4,1.4-2.4,2.9a2.94,2.94,0,0,0,2.9,3.1,5.41,5.41,0,0,0,3.3-1.4C361.8,54.7,361.8,52.2,361.8,50.3Z"/><path class="cls-3" d="M372.5,42.4V41.3a10.36,10.36,0,0,1,3.5-8,8.47,8.47,0,0,1,4.5-2.1,4,4,0,0,1,3.2,1.3,1.18,1.18,0,0,1,.2,1.4,3.05,3.05,0,0,1-1,1.3.92.92,0,0,1-1.2-.1,5.18,5.18,0,0,0-3.2-1.6c-3,0-3,4-3,7.1v1.9h4.2a1.56,1.56,0,0,1-.4,1.6h-3.8V55.7c0,2.9.4,2.9,3.4,3.2V60h-9.4V58.9c2.5-.2,2.8-.4,2.8-3V44.1h-2.8l-.2-.4.9-1.2h2.3Z"/><path class="cls-3" d="M396,56.6c-2.6,3.2-5.4,3.9-6.6,3.9-4.9,0-7.8-4-7.8-8.6a10.58,10.58,0,0,1,2.6-7,8.19,8.19,0,0,1,6-2.9,6.21,6.21,0,0,1,6.1,6.2c0,.8-.2,1.2-.8,1.3-.8.2-5.9.5-10.7.7-.1,5.4,3.2,7.6,6,7.6a6.82,6.82,0,0,0,4.6-2Zm-6.9-13.1c-1.8,0-3.6,1.7-4.2,5,2.2,0,4.5,0,6.8-.1.7,0,1-.2,1-.8C392.7,45.4,391.3,43.5,389.1,43.5Z"/><path class="cls-4" d="M192.85,332.3a7.57,7.57,0,0,1-1.5-.1,7.12,7.12,0,0,1-6.2-3.4c-1.5-2-2.9-4.6-4.2-6.6-.8-1.3-1.3-1.5-3.4-1.5h-1.4V327c0,3.4.4,3.6,3.6,3.9V332h-10.7v-1.1c3.3-.4,3.6-.5,3.6-3.9V311c0-3.4-.4-3.5-3.6-3.9V306h10.2c2.9,0,4.9.4,6.4,1.4a6,6,0,0,1,2.7,5.3c0,3.4-2.2,5.6-5.2,6.9.7,1.2,2.4,3.9,3.6,5.7a31,31,0,0,0,3.2,4.1,5.24,5.24,0,0,0,2.9,1.8Zm-14.8-13c2.1,0,3.4-.3,4.4-1.2a5.6,5.6,0,0,0,2.2-4.9c0-4.3-2.8-5.8-5.9-5.8a3.89,3.89,0,0,0-2.1.4c-.4.3-.5.7-.5,1.7v9.8Z"/><path class="cls-4" d="M207.85,328.6c-2.6,3.2-5.4,3.9-6.6,3.9-4.9,0-7.8-4-7.8-8.6a10.58,10.58,0,0,1,2.6-7,8.19,8.19,0,0,1,6-2.9,6.21,6.21,0,0,1,6.1,6.2c0,.8-.2,1.2-.8,1.3-.8.2-5.9.5-10.7.7-.1,5.4,3.2,7.6,6,7.6a6.82,6.82,0,0,0,4.6-2ZM201,315.5c-1.8,0-3.6,1.7-4.2,5,2.2,0,4.5,0,6.8-.1.7,0,1-.2,1-.8A3.66,3.66,0,0,0,201,315.5Z"/><path class="cls-4" d="M209.85,332v-1.1c2.6-.2,2.9-.4,2.9-3.1V308.6c0-2.4-.2-2.7-2.8-3v-1a24.38,24.38,0,0,0,5.9-1.4v24.6c0,2.6.2,2.8,2.8,3.1V332Z"/><path class="cls-4" d="M233.65,332.4a2.73,2.73,0,0,1-1.9-.8,4,4,0,0,1-1-1.8c-1.6,1.1-3.6,2.6-4.8,2.6a5,5,0,0,1-4.9-4.9c0-2,1.1-3.2,3.3-4a31.57,31.57,0,0,0,6.3-2.6v-.8c0-2.8-1.4-4.5-3.5-4.5a2.32,2.32,0,0,0-1.9.9,11.16,11.16,0,0,0-1.1,2.6,1.18,1.18,0,0,1-1.2.9,1.93,1.93,0,0,1-1.8-1.8c0-.6.5-1,1.3-1.6a18.43,18.43,0,0,1,5.8-2.8,6,6,0,0,1,3.4,1.1,5.53,5.53,0,0,1,2,4.6v7.7c0,1.8.7,2.4,1.4,2.4a3.26,3.26,0,0,0,1.4-.4l.4,1.1Zm-2.9-10.1c-.9.4-2.8,1.3-3.7,1.7-1.5.7-2.4,1.4-2.4,2.9a2.94,2.94,0,0,0,2.9,3.1,5.41,5.41,0,0,0,3.3-1.4C230.75,326.7,230.75,324.2,230.75,322.3Z"/><path class="cls-4" d="M247.25,332v-1.1c1.7-.2,2.1-.5,1.4-1.6l-3-4.7c-.9,1.4-1.8,2.8-2.6,4.2s-.7,1.7,1.4,2v1.1h-7.6v-1.1c2.5-.3,3-.6,4.5-2.6,1.1-1.6,2.2-3.1,3.4-4.9l-3.4-5.4c-1.2-1.9-1.7-2.2-3.9-2.5v-1.1h8v1.1c-1.7.2-1.8.6-1.1,1.7l2.4,3.6c.8-1.2,1.6-2.5,2.3-3.7s.4-1.4-1.3-1.6v-1.1h7.3v1.1c-2.2.2-3,.4-4.6,2.5-.6.8-1.5,2.1-2.8,4.1l3.8,5.9c1.5,2.2,2,2.6,4.4,2.9v1.1h-8.6Z"/><path class="cls-4" d="M293.15,316.1c-2.8.3-3.3,1-4.6,3-1,1.5-2.1,3.1-3.6,5.3a63.13,63.13,0,0,1,6.8,7.9l-.2.4a10.53,10.53,0,0,1-4.9-1.6c-.5-.6-2.4-2.4-3.7-3.8-2.9,3.9-5.6,5.2-8.4,5.2-5.2,0-8-3.8-8-7.2,0-3.7,2.2-5.2,6-7.6a7.53,7.53,0,0,1-3.1-5.7,6.41,6.41,0,0,1,6.6-6.3c3.3,0,6,2.3,6,5.5a4.77,4.77,0,0,1-1.7,3.6A34.18,34.18,0,0,1,277,317c1.3,1.1,4.6,3.8,7.2,6.4a32.75,32.75,0,0,0,2.5-4.6c.8-1.8.4-2.4-2.5-2.7v-1.2h9.2v1.2Zm-17.7,13.7c2.8,0,4.3-.9,6.4-3.6a96.24,96.24,0,0,0-8.3-7.6c-2.8,1.9-3.6,3.6-3.6,5.6A5.37,5.37,0,0,0,275.45,329.8Zm.1-22.7c-2,0-3.2,1.6-3.2,3.9,0,2,1,3.3,3.4,5.2,2.2-1.6,3.2-2.9,3.2-4.9C279,308.9,277.75,307.1,275.55,307.1Z"/><path class="cls-4" d="M318.75,317.9c3.8.6,7,2.5,7,6.4a7,7,0,0,1-3.9,6.2,12.83,12.83,0,0,1-6.9,1.6h-9.9V331c3.4-.3,3.6-.7,3.6-3.8v-16c0-3.3-.4-3.6-3.6-3.9V306h10.5c3,0,4.9.5,6.2,1.4a5.27,5.27,0,0,1,2.4,4.5C324.05,315.6,321,317.3,318.75,317.9Zm-4.6-.5c4.4,0,6.2-1.8,6.2-5,0-2.8-1.7-5-5.6-5a3.87,3.87,0,0,0-2.2.4c-.3.2-.4.7-.4,2v7.6Zm-2.1,9.5c0,2.9.7,3.6,3.5,3.6,3.1,0,6.2-1.7,6.2-5.9s-2.9-5.8-7.8-5.8h-1.9Z"/><path class="cls-4" d="M343.15,328.6c-2.6,3.2-5.4,3.9-6.6,3.9-4.9,0-7.8-4-7.8-8.6a10.58,10.58,0,0,1,2.6-7,8.19,8.19,0,0,1,6-2.9,6.21,6.21,0,0,1,6.1,6.2c0,.8-.2,1.2-.8,1.3-.8.2-5.9.5-10.7.7-.1,5.4,3.2,7.6,6,7.6a6.82,6.82,0,0,0,4.6-2Zm-6.9-13.1c-1.8,0-3.6,1.7-4.2,5,2.2,0,4.5,0,6.8-.1.7,0,1-.2,1-.8A3.66,3.66,0,0,0,336.25,315.5Z"/><path class="cls-4" d="M358.55,332.4a2.73,2.73,0,0,1-1.9-.8,4,4,0,0,1-1-1.8c-1.6,1.1-3.6,2.6-4.8,2.6a5,5,0,0,1-4.9-4.9c0-2,1.1-3.2,3.3-4a31.57,31.57,0,0,0,6.3-2.6v-.8c0-2.8-1.4-4.5-3.5-4.5a2.32,2.32,0,0,0-1.9.9,11.16,11.16,0,0,0-1.1,2.6,1.18,1.18,0,0,1-1.2.9,1.93,1.93,0,0,1-1.8-1.8c0-.6.5-1,1.3-1.6a18.43,18.43,0,0,1,5.8-2.8,6,6,0,0,1,3.4,1.1,5.53,5.53,0,0,1,2,4.6v7.7c0,1.8.7,2.4,1.4,2.4a3.26,3.26,0,0,0,1.4-.4l.4,1.1Zm-2.9-10.1c-.9.4-2.8,1.3-3.7,1.7-1.5.7-2.4,1.4-2.4,2.9a2.94,2.94,0,0,0,2.9,3.1,5.41,5.41,0,0,0,3.3-1.4C355.65,326.7,355.65,324.2,355.65,322.3Z"/><path class="cls-4" d="M383.05,331a48.38,48.38,0,0,0-6.1,1.4v-3.1c-2.2,1.8-3.9,3.1-6.1,3.1-2.7,0-5-1.6-5-6v-7.8c0-2.2-.3-2.4-1.3-2.6l-1.1-.2v-1c1.7-.1,4.4-.5,5.7-.7-.1,1.3-.1,3.2-.1,5.8v5.4c0,3.5,1.8,4.5,3.6,4.5a6,6,0,0,0,4.3-1.9v-9.3c0-2.2-.5-2.4-1.8-2.6l-1.3-.2v-1c2.6-.1,5.4-.6,6.3-.7v13.4c0,2,.3,2.3,1.8,2.4h1.1V331Z"/><path class="cls-4" d="M392.85,331.9a3.46,3.46,0,0,1-1.7.5q-3.9,0-3.9-4.8V316h-2.8l-.2-.5,1.1-1.2h1.8v-3.4c.8-.8,1.9-1.8,2.7-2.6l.6.1c-.1,1.7-.1,4-.1,5.9H395a1.23,1.23,0,0,1-.2,1.6h-4.3v10.2c0,3.2,1.3,3.8,2.3,3.8a6.42,6.42,0,0,0,2.4-.6l.4,1Z"/><path class="cls-4" d="M414.75,315.5c-2.1.3-2.5.6-3.5,2.9s-2.1,5-4.8,11.9c-2.6,6.4-3.3,8.9-4,11a1.15,1.15,0,0,1-1.2,1,2.25,2.25,0,0,1-2.4-1.9c0-.5.3-.9.9-1.4a9.16,9.16,0,0,0,2.7-3c.8-1.7,1.4-3.1,1.6-3.6a1.81,1.81,0,0,0-.1-1.6c-1.6-4.6-3.7-9.5-4.9-12.4-.9-2.2-1.2-2.7-3.4-3v-1.1h8.1v1.1c-1.8.3-2,.7-1.5,2.2l3.9,9.8c1.1-2.8,2.7-7.2,3.6-9.7.5-1.5.2-2-2.1-2.3v-1.1H415v1.2Z"/><path class="cls-5" d="M234.1,166.3s17-15.4,16.5-7.1S234.1,166.3,234.1,166.3Z"/><path class="cls-5" d="M514.4,187.5s24.9-24.2,24.6-11.6S514.4,187.5,514.4,187.5Z"/><path class="cls-5" d="M57.5,189.8s-33.9,7.2-27-3.2C37.6,176.1,57.5,189.8,57.5,189.8Z"/><path class="cls-5" d="M395.9,242s-28.6,11.7-27.8-3.1S395.9,242,395.9,242Z"/><path class="cls-5" d="M397.3,241.4s-15.6-26.7-1-28C411.1,212.1,397.3,241.4,397.3,241.4Z"/><path class="cls-5" d="M398.5,242s16.8-25.9,24.6-13.4S398.5,242,398.5,242Z"/><path class="cls-5" d="M398.4,242.8s8.3,29.8,19.4,20.1S398.4,242.8,398.4,242.8Z"/><path class="cls-5" d="M397.1,243s-22.9,20.8-9.3,26.4S397.1,243,397.1,243Z"/><circle class="cls-5" cx="397.6" cy="242.3" r="1.7"/><path class="cls-6" d="M419.53,250.37a15.54,15.54,0,0,1,7.72-6.23,33.52,33.52,0,0,1,9.83-2.16,59,59,0,0,1,9.86.06c1.61.11,3.21.31,4.73.42a12.55,12.55,0,0,0,1.94.07c.08,0,.15,0,0,.06a1.64,1.64,0,0,0-.81,1.52c.07.58.19.55.15.54a1,1,0,0,0-.16-.23,13.13,13.13,0,0,0-1.54-1.43,7.8,7.8,0,0,1-2.06-2.53,4.1,4.1,0,0,1,.27-4.08,7.36,7.36,0,0,1,2.35-2.19,30.45,30.45,0,0,1,9.81-3.31,58.7,58.7,0,0,1,10-1A37.09,37.09,0,0,1,481.93,231a17.08,17.08,0,0,1,5.32,2.47,10.61,10.61,0,0,1,2.43,2.44,9.54,9.54,0,0,1,.93,1.68,5.87,5.87,0,0,1,.45,2.57,6.51,6.51,0,0,1-1.81,4.16,8.89,8.89,0,0,1-2.86,2,18,18,0,0,1-5.62,1.43,24.68,24.68,0,0,1-5.3,0,21.18,21.18,0,0,1-5.27-1.13,10.37,10.37,0,0,1-4.82-3.34,6.39,6.39,0,0,1-1.22-3.06,6.84,6.84,0,0,1,.42-3.18,12.12,12.12,0,0,1,3.25-4.57,24.9,24.9,0,0,1,4.17-3.1c.72-.46,1.46-.85,2.21-1.25l2.19-1.1q2.13-1,4.18-2.19a45.4,45.4,0,0,0,14-11.77,69,69,0,0,0,5.15-7.71l1.15-2q.53-1,1-2a35,35,0,0,0,1.55-4.15,41.84,41.84,0,0,0,1.22-17.68,53.07,53.07,0,0,0-5.49-17,62.91,62.91,0,0,0-10.52-14.55c-8.38-8.69-19-15.2-30.41-19.69a120.57,120.57,0,0,0-17.72-5.5c-6.14-1.43-12.31-2.73-18.52-3.71a192.86,192.86,0,0,0-37.56-2.38,175.69,175.69,0,0,0-37.35,5.5c-6.14,1.55-12.23,3.4-18.28,5.41s-12.06,4.25-18.12,6.43q-4.53,1.65-9.12,3.22c-3.05,1.06-6.13,2.08-9.25,3a106.62,106.62,0,0,1-19.16,4,67.16,67.16,0,0,1-19.75-.6,35.83,35.83,0,0,1-9.6-3.21,28.16,28.16,0,0,1-8.24-6.23,25.54,25.54,0,0,1-5.23-9,28.44,28.44,0,0,1-1.41-10.35,29.37,29.37,0,0,1,2.34-10.23,23.4,23.4,0,0,1,6.37-8.74,16.55,16.55,0,0,1,2.27-1.62,25.72,25.72,0,0,1,2.35-1.32,25.29,25.29,0,0,1,5.1-1.86,24.22,24.22,0,0,1,10.88-.17,22.89,22.89,0,0,1,9.92,4.8,18.39,18.39,0,0,1,6,9.63,18.2,18.2,0,0,1-.8,11.29,14.6,14.6,0,0,1-3.33,4.85,13.26,13.26,0,0,1-5.11,3,12.94,12.94,0,0,1-5.79.44,9.13,9.13,0,0,1-5.31-2.64,7.2,7.2,0,0,1-2-5.34,7.46,7.46,0,0,1,2.08-4.68,7.92,7.92,0,0,0-.22,4.52,5,5,0,0,0,2.25,3,6.11,6.11,0,0,0,3.51.81,9.26,9.26,0,0,0,8.44-6.27,12.88,12.88,0,0,0,.36-7.64,12.29,12.29,0,0,0-4.14-6.35,16.94,16.94,0,0,0-7.23-3.56,19.35,19.35,0,0,0-8.23,0,19.88,19.88,0,0,0-7.53,3.43,18.42,18.42,0,0,0-5.1,6.53,24.3,24.3,0,0,0-2.26,8.37A22,22,0,0,0,245.52,137a32.44,32.44,0,0,0,8.56,3,60.48,60.48,0,0,0,18.62.61,99.88,99.88,0,0,0,18.41-4.2c3-1,6-2,9-3.11s6-2.3,8.94-3.48c11.91-4.72,23.89-9.68,36.38-13.41a183.24,183.24,0,0,1,38.47-7.4,172.36,172.36,0,0,1,19.68-.46,180.87,180.87,0,0,1,19.61,1.64c6.5.89,13,2,19.33,3.5a128.3,128.3,0,0,1,19.08,5.78,99.51,99.51,0,0,1,17.91,9.23A80,80,0,0,1,495,142c9.16,10.06,15.51,23.05,16.63,36.79a48.06,48.06,0,0,1-2.55,20.37,39.41,39.41,0,0,1-2.08,4.76c-.41.77-.84,1.53-1.29,2.27l-1.35,2.1a74,74,0,0,1-6,8,50.27,50.27,0,0,1-7.33,7,53.19,53.19,0,0,1-8.51,5.28c-1.46.76-2.94,1.48-4.42,2.15l-2.14,1c-.69.33-1.37.68-2,1.06a21.09,21.09,0,0,0-3.63,2.52,8.64,8.64,0,0,0-2.42,3.1,2.74,2.74,0,0,0,.26,2.89,5.55,5.55,0,0,0,3.16,1.77,11.6,11.6,0,0,0,2.06.25c.34,0,.7,0,1.05,0s.76,0,1.13-.06a27.6,27.6,0,0,0,4.3-.66,9.52,9.52,0,0,0,3.49-1.56,3.78,3.78,0,0,0,.9-.93c.17-.25.11-.33.1-.16a.37.37,0,0,0,.06.21,3.23,3.23,0,0,0-.21-.43,4,4,0,0,0-.9-1A12,12,0,0,0,480,236.8,33.14,33.14,0,0,0,471.4,235a47.15,47.15,0,0,0-9.2,0,30.32,30.32,0,0,0-4.49.79,14.6,14.6,0,0,0-4,1.52,3.46,3.46,0,0,0-1.18,1c-.12.31-.11.21,0,.5a3.85,3.85,0,0,0,1.1,1.06,17.66,17.66,0,0,1,2.11,1.7,5.83,5.83,0,0,1,.6.71,2.93,2.93,0,0,1,.62,1.63,2.56,2.56,0,0,1-.5,1.64,2.69,2.69,0,0,1-1,.81,4,4,0,0,1-1.18.4,16.11,16.11,0,0,1-2.87.18c-1.69-.05-3.29-.14-4.88-.27-3.17-.2-6.28-.54-9.38-.61a42.67,42.67,0,0,0-9.19.59A18.64,18.64,0,0,0,419.53,250.37Z"/><path class="cls-5" d="M178.61,130.22s28.6-11.7,27.8,3.1S178.61,130.22,178.61,130.22Z"/><path class="cls-5" d="M177.21,130.82s15.6,26.7,1,28C163.41,160.12,177.21,130.82,177.21,130.82Z"/><path class="cls-5" d="M176,130.22s-16.8,25.9-24.6,13.4S176,130.22,176,130.22Z"/><path class="cls-5" d="M176.11,129.42s-8.3-29.8-19.4-20.1S176.11,129.42,176.11,129.42Z"/><path class="cls-5" d="M177.41,129.22s22.9-20.8,9.3-26.4S177.41,129.22,177.41,129.22Z"/><circle class="cls-5" cx="176.91" cy="129.92" r="1.7"/><path class="cls-6" d="M153,120.85a15.61,15.61,0,0,1-7.73,6.23,33.52,33.52,0,0,1-9.83,2.16,59,59,0,0,1-9.86-.06c-1.61-.11-3.21-.31-4.72-.42a12.71,12.71,0,0,0-1.95-.07c-.08,0-.15,0,0-.06a1.64,1.64,0,0,0,.81-1.52c-.07-.58-.18-.55-.15-.54a1,1,0,0,0,.16.23,13.13,13.13,0,0,0,1.54,1.43,7.8,7.8,0,0,1,2.06,2.53,4.22,4.22,0,0,1,.41,2.08,4.4,4.4,0,0,1-.67,2,7.49,7.49,0,0,1-2.36,2.19,30.45,30.45,0,0,1-9.81,3.31,58.7,58.7,0,0,1-10,1,37.09,37.09,0,0,1-10.34-1.15,17.08,17.08,0,0,1-5.32-2.47,10.58,10.58,0,0,1-2.42-2.44,9.56,9.56,0,0,1-.94-1.68,5.87,5.87,0,0,1-.45-2.57,6.51,6.51,0,0,1,1.81-4.16,8.89,8.89,0,0,1,2.86-2,18,18,0,0,1,5.62-1.43,24.67,24.67,0,0,1,5.3,0,21.18,21.18,0,0,1,5.27,1.13,10.37,10.37,0,0,1,4.82,3.34,6.39,6.39,0,0,1,1.22,3.06,6.86,6.86,0,0,1-.42,3.18,12.12,12.12,0,0,1-3.25,4.57,24.9,24.9,0,0,1-4.17,3.1c-.72.45-1.46.85-2.21,1.25l-2.19,1.1q-2.13,1-4.18,2.19a45.4,45.4,0,0,0-14,11.77,69,69,0,0,0-5.15,7.71l-1.15,2c-.35.65-.67,1.31-1,2A31.8,31.8,0,0,0,69.14,174a41.52,41.52,0,0,0-1.22,17.68,52.81,52.81,0,0,0,5.48,17,63.21,63.21,0,0,0,10.52,14.55c8.39,8.69,19,15.2,30.41,19.69a120.7,120.7,0,0,0,17.73,5.5c6.13,1.43,12.3,2.73,18.51,3.71a192.86,192.86,0,0,0,37.56,2.38,175.6,175.6,0,0,0,37.35-5.5c6.14-1.55,12.23-3.4,18.28-5.41s12.06-4.25,18.12-6.43q4.53-1.65,9.12-3.22c3.05-1.06,6.13-2.08,9.25-3a106.62,106.62,0,0,1,19.16-4,67.16,67.16,0,0,1,19.75.6,35.83,35.83,0,0,1,9.6,3.21A28,28,0,0,1,337,237a25.54,25.54,0,0,1,5.23,9,28.23,28.23,0,0,1,1.41,10.35,29.37,29.37,0,0,1-2.34,10.23,23.38,23.38,0,0,1-6.36,8.74,17.86,17.86,0,0,1-2.27,1.62,25.88,25.88,0,0,1-2.36,1.32,25.29,25.29,0,0,1-5.1,1.86,24.22,24.22,0,0,1-10.88.17,22.89,22.89,0,0,1-9.92-4.8,18.39,18.39,0,0,1-6-9.63,18.2,18.2,0,0,1,.8-11.29,14.48,14.48,0,0,1,3.34-4.85,13.15,13.15,0,0,1,5.1-3,13,13,0,0,1,5.79-.44,9.13,9.13,0,0,1,5.31,2.64,7.16,7.16,0,0,1,2,5.34,7.4,7.4,0,0,1-2.08,4.68,7.92,7.92,0,0,0,.22-4.52,5,5,0,0,0-2.25-3,6.09,6.09,0,0,0-3.5-.81,9.25,9.25,0,0,0-8.45,6.27,13,13,0,0,0-.36,7.64,12.25,12.25,0,0,0,4.15,6.35,16.9,16.9,0,0,0,7.22,3.56,19.35,19.35,0,0,0,8.23,0,19.88,19.88,0,0,0,7.53-3.43,18.42,18.42,0,0,0,5.1-6.53,24.08,24.08,0,0,0,2.26-8.37A22,22,0,0,0,327,234.18a32.37,32.37,0,0,0-8.55-3,60.56,60.56,0,0,0-18.63-.61,99.88,99.88,0,0,0-18.41,4.2c-3,1-6,2-9,3.11s-6,2.3-8.95,3.48c-11.91,4.72-23.89,9.68-36.37,13.41a183.45,183.45,0,0,1-38.48,7.4,172.31,172.31,0,0,1-19.68.46A180.87,180.87,0,0,1,149.29,261c-6.5-.89-13-2-19.33-3.5a128.3,128.3,0,0,1-19.08-5.78A99.51,99.51,0,0,1,93,242.44a80,80,0,0,1-15.48-13.17C68.33,219.21,62,206.22,60.87,192.48a47.9,47.9,0,0,1,2.54-20.37,38,38,0,0,1,2.09-4.76c.4-.77.83-1.53,1.28-2.27l1.35-2.1a74,74,0,0,1,6-8,50.27,50.27,0,0,1,7.33-7A53.19,53.19,0,0,1,90,142.76c1.46-.76,2.94-1.48,4.42-2.15l2.14-1c.69-.33,1.37-.68,2-1.06a21.09,21.09,0,0,0,3.63-2.52,8.53,8.53,0,0,0,2.42-3.1,2.74,2.74,0,0,0-.26-2.89,5.55,5.55,0,0,0-3.16-1.77,11.6,11.6,0,0,0-2.06-.25c-.34,0-.7,0-1.05,0l-1.13.06a27.6,27.6,0,0,0-4.3.66,9.39,9.39,0,0,0-3.48,1.56,3.86,3.86,0,0,0-.91.93c-.17.25-.11.33-.1.16a.36.36,0,0,0-.06-.22,4.06,4.06,0,0,0,.21.44,4.1,4.1,0,0,0,.91,1,11.83,11.83,0,0,0,3.27,1.79,33.14,33.14,0,0,0,8.63,1.84,47.15,47.15,0,0,0,9.2,0,32.07,32.07,0,0,0,4.5-.79,14.85,14.85,0,0,0,4-1.52,3.51,3.51,0,0,0,1.17-1c.13-.31.11-.21,0-.5a3.85,3.85,0,0,0-1.1-1.06,17.66,17.66,0,0,1-2.11-1.7,5.83,5.83,0,0,1-.6-.71,3,3,0,0,1-.62-1.63,2.56,2.56,0,0,1,.5-1.64,2.78,2.78,0,0,1,1-.81,4,4,0,0,1,1.19-.4,16,16,0,0,1,2.86-.18c1.69,0,3.29.14,4.88.27,3.17.2,6.28.54,9.38.61a42.67,42.67,0,0,0,9.19-.59A18.72,18.72,0,0,0,153,120.85Z"/></g></g></svg>