<svg xmlns="http://www.w3.org/2000/svg" viewBox="0 0 219.54 117.35"><defs><style>.cls-1{fill:#fff;}.cls-2,.cls-3{fill:none;stroke:#fff;stroke-miterlimit:10;}.cls-3{stroke-width:0.5px;}.cls-4{font-size:9.51px;letter-spacing:0.11em;}.cls-4,.cls-5{fill:#f9f9f9;font-family:UDDigiKyokashoN-B, UD Digi Kyokasho N-B;}.cls-5{font-size:8px;letter-spacing:0.11em;}</style></defs><g id="レイヤー_2" data-name="レイヤー 2"><g id="レイヤー_1-2" data-name="レイヤー 1"><g id="レイヤー_4" data-name="レイヤー 4"><circle class="cls-1" cx="121.8" cy="66.43" r="2.86"/><circle class="cls-1" cx="89.72" cy="65.75" r="2.86"/><path class="cls-1" d="M71.59,61.06c2,.11,3.93,0,5.89,0A33.34,33.34,0,0,0,82.67,61a51.64,51.64,0,0,0,11-2.87c6-2.26,12.18-5.47,15.18-11.44.66-1.3-1.32-2.44-1.94-1.14-2.76,5.84-8.79,9-14.59,11.14a58.94,58.94,0,0,1-10.1,2.67c-1.72.32-3.45.83-5.19,1a38,38,0,0,1-5.44,0,.36.36,0,0,0,0,.72Z" transform="translate(0 -0.42)"/><path class="cls-1" d="M143.28,63.3a45.26,45.26,0,0,1-5.21-.08,52.7,52.7,0,0,1-5.41-1,58.5,58.5,0,0,1-10.08-2.76c-5.78-2.2-11.78-5.41-14.49-11.27-.61-1.3-2.59-.17-1.94,1.13,2.94,6,9.1,9.26,15.09,11.58a51.27,51.27,0,0,0,11,3,33.19,33.19,0,0,0,5.18.18c2,0,3.91.11,5.89,0,.46,0,.46-.74,0-.72Z" transform="translate(0 -0.42)"/><path class="cls-1" d="M69,74.23c-3.83-7.74.67-15.9,6.55-21.13,6.06-5.39,14.06-8.44,22.07-9.33,9.35-1.05,18.78.76,27.6,3.84,7.61,2.65,16.39,6.07,21.37,12.77,4.19,5.64,4.84,15.61-2.26,19.34-1.57.83-.17,3.23,1.4,2.39,6.76-3.59,8.15-12.64,5.39-19.23-3.5-8.39-12.49-12.8-20.44-16C121,43,110.53,40.44,100,41.12a42.94,42.94,0,0,0-24.6,9.37A27.7,27.7,0,0,0,66.85,62c-1.51,4.16-1.81,9.37,1.67,12.62a.33.33,0,0,0,.52-.4Z" transform="translate(0 -0.42)"/><path class="cls-1" d="M154,67.58A7.71,7.71,0,0,0,155.57,63a16.23,16.23,0,0,0-1.06-5.1,38.12,38.12,0,0,0-5.59-10.47c-5.14-6.71-12.86-10.53-20.71-13.21-15.86-5.41-33.56-4.91-48.52,3a52.91,52.91,0,0,0-5.45,3.29c-.82.57-1.64,1.16-2.41,1.8s-1.41,1.63-2.2,2.41a68.15,68.15,0,0,0-8.11,9.66c-.31.45.44.89.74.43a34.37,34.37,0,0,1,7.1-7.92,11,11,0,0,1,2.12-1.62,13.67,13.67,0,0,0,2.26-1.43c1.4-1,2.83-2,4.31-2.92a54,54,0,0,1,20.1-7.3,61.58,61.58,0,0,1,24.1,1.3c7.57,1.9,15.76,5,21.6,10.32a33.86,33.86,0,0,1,7.3,9.9,30.48,30.48,0,0,1,2.33,5.79c.46,1.73.86,4.45-.59,5.78-.75.68.53,1.78,1.12.87Z" transform="translate(0 -0.42)"/><path class="cls-1" d="M77,81.59c-1.37,4.16-4.5,7.15-7,10.66-2,2.9-3.39,6.48-2.23,10a6.32,6.32,0,0,0,7.46,4.44,5.5,5.5,0,0,0,3.89-3,2.43,2.43,0,0,0-2.24-3.47c-1.42.09-1.42,2.32,0,2.22.84-.07-.85,1.61-1,1.69a4.12,4.12,0,0,1-1.59.58A3.94,3.94,0,0,1,71,103.55c-1.76-1.79-1.79-4.67-1-6.91,1.91-5.42,7.82-8.85,8.18-14.89,0-.69-1-.77-1.16-.16Z" transform="translate(0 -0.42)"/><path class="cls-1" d="M73.62,77.79a7.17,7.17,0,0,1-1.87,2.13,15.84,15.84,0,0,1-2.29,1.87,11.34,11.34,0,0,1-5.26,1.89,14.1,14.1,0,0,0-8.72,3.81,8.12,8.12,0,0,0-2.21,7.75,6.25,6.25,0,0,0,5.61,5A4.21,4.21,0,0,0,63,97.9c.59-1.38.31-3.39-1.17-4.1a1,1,0,0,0-1.16,1.51c1.24,1.37.08,2.86-1.59,2.9a3.71,3.71,0,0,1-3.17-1.85,6.18,6.18,0,0,1,1.27-7.86c2.61-2.48,6.11-2.89,9.43-3.75a9.94,9.94,0,0,0,4.3-2.21,18.44,18.44,0,0,0,1.86-1.89,9.74,9.74,0,0,1,1.9-2.09c1-.6-.53-2-1-.77Z" transform="translate(0 -0.42)"/><path class="cls-1" d="M129.54,86.55c.46,2.27,2.79,3.43,4.63,4.49a13.82,13.82,0,0,1,5.66,6c1.24,2.58,1.81,6,.67,8.69a5.29,5.29,0,0,1-6.32,2.81,4.21,4.21,0,0,1-3.19-3,1.66,1.66,0,0,1,.72-1.69,1.86,1.86,0,0,1,1.7-.11c.69.16,1.49-.64,1-1.3a2.78,2.78,0,0,0-3.88-.35,3.78,3.78,0,0,0-1.6,4c.74,3.49,4.76,5.12,8,4.6,3.74-.6,5.81-3.63,6.07-7.25a14.1,14.1,0,0,0-3.35-9.94,13.17,13.17,0,0,0-4.8-3.56c-1.81-.79-4.05-1.43-4.65-3.55a.33.33,0,0,0-.64.18Z" transform="translate(0 -0.42)"/><path class="cls-1" d="M134.12,80.34c1,2.55,3.79,3,6.19,3.21a14.87,14.87,0,0,1,8.3,4.16,16.73,16.73,0,0,1,4.94,7.9,15.52,15.52,0,0,1,.47,4.89,22.59,22.59,0,0,1-.84,5.85c-.36,1.07-1.29,2.35-2.57,2-.92-.23-1.7-1.32-2.18-2.07s-1-1.89-.62-2.79c.27-.57,1.21-1.1,1.74-.6a1,1,0,0,0,1.47-1.46,3,3,0,0,0-4.26,0c-1.56,1.35-1.44,3.5-.58,5.22s2.46,3.7,4.5,3.82c2.2.14,3.81-1.7,4.43-3.63a25,25,0,0,0,.88-7.3,16.93,16.93,0,0,0-1.16-6.13,18.21,18.21,0,0,0-7.29-8.92,19.54,19.54,0,0,0-6.16-2.39c-1.66-.36-5.32-.13-5.8-2.22-.23-1-1.81-.5-1.46.41Z" transform="translate(0 -0.42)"/><path class="cls-1" d="M13.64,49.94c1.12,4.63,2.81,9.17,4.31,13.69s3,9.08,4.53,13.63q4.5,13.65,8.8,27.35c.53,1.69,3.2,1,2.66-.73q-4.44-13.8-9-27.54-2.28-6.82-4.63-13.61c-1.56-4.51-3-9.13-5-13.47-.43-.93-1.83-.25-1.61.68Z" transform="translate(0 -0.42)"/><path class="cls-1" d="M4.72,36.93a1,1,0,0,0,.75.44L5,37.07c0,.07.07.15.1.23l.06.15q0-.09,0,.06c.06.22.12.44.2.65.13.37.27.74.37,1.12,0,.19.09.38.13.58l.06.33c0-.15,0,.08,0,.11A3.55,3.55,0,0,0,6,41l.06.15c0-.07,0-.06,0,0a.82.82,0,0,0,.28.62.76.76,0,0,0,1.08,0,.92.92,0,0,0,.28-.62c0-.12,0-.22,0-.34l-.12.42a1.39,1.39,0,0,0,.09-1c0-.2-.07-.39-.11-.58a9.9,9.9,0,0,0-.34-1.18,6.6,6.6,0,0,0-.52-1.19,9.29,9.29,0,0,0-.77-1l.16.59A1,1,0,0,0,5.88,36a.74.74,0,1,0-1.16.89Z" transform="translate(0 -0.42)"/><path class="cls-1" d="M2.91,36.81a2.14,2.14,0,0,0,2.56-.55c.81-.78,1.23-1.86,2.41-2.16A21.39,21.39,0,0,1,10.54,34a2.77,2.77,0,0,0,2.15-1.17L11,32.66a25.94,25.94,0,0,0,3,6.94c.71,1.19,2.61.06,1.84-1.07a28.55,28.55,0,0,1-3.11-6.35.9.9,0,0,0-1.77.24c-.07.5-1,.53-1.34.59a15.2,15.2,0,0,0-2.11.44,3.41,3.41,0,0,0-1.75,1.31c-.56.72-1.48,2.12-2.57,1.48a.33.33,0,0,0-.33.57Z" transform="translate(0 -0.42)"/><path class="cls-1" d="M4,36.52c-3.26-2.25-2-6.73-1-9.78a20,20,0,0,0,1.31-5.8,13.57,13.57,0,0,0-1.26-6l-1.72,1A30.47,30.47,0,0,0,8,24.47c2.55,2.47,5,5.47,3.3,9.13-.43.91.75,2,1.51,1.16,2.59-3,.52-7.46-1.76-10-1.36-1.5-2.94-2.78-4.28-4.3a25.35,25.35,0,0,1-3.66-5.56c-.57-1.16-2.24-.14-1.72,1a11.18,11.18,0,0,1,.82,6.82C1.76,24.94.8,27,.3,29.15c-.71,3.09-.33,7.24,3,8.69A.76.76,0,0,0,4,36.52Z" transform="translate(0 -0.42)"/><path class="cls-1" d="M24.81,89.05c-.95-2-3.87-.9-4.54.74-1,2.49,1.06,4.92,3.22,5.91a22.33,22.33,0,0,0,2.29.84l1.14.37a5.62,5.62,0,0,0,1.26.35.69.69,0,0,0,.48-1.16,4.89,4.89,0,0,0-1.73-.72c-.58-.17-1.16-.33-1.73-.51a7.44,7.44,0,0,1-2.87-1.49,3.31,3.31,0,0,1-1.24-2.46,1.88,1.88,0,0,1,1.18-1.62,1.8,1.8,0,0,1,2,.15.33.33,0,0,0,.52-.4Z" transform="translate(0 -0.42)"/><path class="cls-1" d="M32.82,91.79a.33.33,0,0,0,0-.66.33.33,0,0,0,0,.66Z" transform="translate(0 -0.42)"/><path class="cls-1" d="M33.48,92.26c.41.21.82.43,1.21.67a5,5,0,0,1,1.06.89A4.27,4.27,0,0,1,37.06,96a2.34,2.34,0,0,1-.5,1.78,2.71,2.71,0,0,1-.34.35c.1-.09-.07.05-.1.07l-.18.1-.2.06c-.16,0,.09,0-.09,0s-.24,0-.09,0l-.34-.06a.83.83,0,0,0-.63,1.51,2.57,2.57,0,0,0,3-.69,3.81,3.81,0,0,0,1-2.94,4.39,4.39,0,0,0-1.78-2.86,12.4,12.4,0,0,0-1.47-.81c-.5-.28-1-.56-1.5-.81s-.71.37-.34.57Z" transform="translate(0 -0.42)"/><path class="cls-1" d="M40.84,100a4.75,4.75,0,0,1,.63.23l.66.26-.2-.19a.71.71,0,0,0,.38.3l.24.08.43.11.43.09.25.06.12,0c-.05,0-.05,0,0,0a.65.65,0,1,0,.33-1.22H44c.05,0,.05,0,0,0l-.24-.06-.43-.1a3.43,3.43,0,0,0-.44-.09l-.25,0a.7.7,0,0,0-.49.08l.27-.07c-.23,0-.47,0-.71-.06a5.2,5.2,0,0,1-.68-.06.33.33,0,0,0-.17.64Z" transform="translate(0 -0.42)"/><path class="cls-1" d="M40.52,100.9l.45,0a.31.31,0,0,0,.22-.09.17.17,0,0,0,.07-.1.28.28,0,0,0,0-.13.3.3,0,0,0-.1-.23.36.36,0,0,0-.22-.09l-.45,0a.37.37,0,0,0-.23.1.23.23,0,0,0-.07.1.27.27,0,0,0,0,.12.34.34,0,0,0,.33.33Z" transform="translate(0 -0.42)"/><path class="cls-1" d="M40.92,100.46c0-.21-.06-.35-.08-.55l-.12.29a.79.79,0,0,0,.23-.43,1.07,1.07,0,0,0,0-.25l-.18.44.09-.07a.84.84,0,0,0,.21-.8l-.12-.52V99a1.63,1.63,0,0,0,0-.44,2.06,2.06,0,0,1,0-.26.93.93,0,1,0-1.73.47,2.44,2.44,0,0,1,.1.24,1.56,1.56,0,0,0,.23.36L39.33,99l.15.51a.82.82,0,0,0,.57.57l.11,0-.36-.28a1.06,1.06,0,0,0,.11.21.81.81,0,0,0,.41.26l-.25-.19c.08.18.14.32.21.52a.34.34,0,0,0,.41.23.35.35,0,0,0,.23-.41Z" transform="translate(0 -0.42)"/><path class="cls-1" d="M36.74,100.67c1.16,2.85,2,5.81,3,8.7.5,1.4,1,2.8,1.47,4.22.22.71.45,1.42.69,2.12A3.16,3.16,0,0,0,43,117.65a.82.82,0,0,0,1.19-.48A3.07,3.07,0,0,0,43.8,115c-.28-.75-.59-1.49-.9-2.23-.57-1.38-1.11-2.77-1.69-4.15-1.17-2.8-2.62-5.47-3.86-8.24-.15-.33-.75-.09-.61.26Z" transform="translate(0 -0.42)"/><path class="cls-1" d="M176.91,90.33a7.31,7.31,0,0,1,1.9,2,9.53,9.53,0,0,1,1.34,2.34,26.58,26.58,0,0,1,1.41,5.48c.41,2.44.72,4.9.92,7.36q.15,1.88.21,3.75a18.11,18.11,0,0,0,.23,3.61,1.19,1.19,0,0,0,2.28,0,15,15,0,0,0,0-4.07c-.08-1.41-.2-2.82-.35-4.22-.29-2.76-.69-5.51-1.25-8.22a17.73,17.73,0,0,0-2-5.62,7.67,7.67,0,0,0-1.85-2.2,6.16,6.16,0,0,0-2.65-.91.36.36,0,0,0-.27.65Z" transform="translate(0 -0.42)"/><path class="cls-1" d="M176,89.27c-2.4,1.21-4.21,3.85-5.28,6.26-.52,1.16-.85,2.37-1.33,3.55a6.88,6.88,0,0,1-.75,1.42c-.35.49-.85.82-1.17,1.34a.88.88,0,0,0,.76,1.32c1.32-.14,2.16-1.38,2.69-2.5a37.26,37.26,0,0,0,1.29-3.53,14.63,14.63,0,0,1,1.89-3.53,42.09,42.09,0,0,1,2.81-3.15.75.75,0,0,0-.91-1.18Z" transform="translate(0 -0.42)"/><path class="cls-2" d="M99.05,74.58s6.39,11.3,12,.74" transform="translate(0 -0.42)"/><path class="cls-2" d="M107.52,69.27s-1.42-2.51-2.66-.16" transform="translate(0 -0.42)"/><path class="cls-1" d="M178.94,90.36A13.57,13.57,0,0,0,180.11,88a20.73,20.73,0,0,1,1.37-2.43,21.15,21.15,0,0,1,3.44-4.05A13.17,13.17,0,0,1,187,80c.26-.16.08,0,0-.08a.78.78,0,0,1,.09.21,7.09,7.09,0,0,1,.11,1.13,12.62,12.62,0,0,1-1,4.92,13.2,13.2,0,0,1-3.48,4.78c-1.16,1,.54,2.71,1.7,1.7a15,15,0,0,0,5.05-11.7,3.58,3.58,0,0,0-1.1-2.82c-1.07-.85-2.19-.3-3.11.46a27.69,27.69,0,0,0-4.62,4.75,20.44,20.44,0,0,0-1.94,3.16A8.39,8.39,0,0,0,177.59,90a.73.73,0,0,0,1.35.37Z" transform="translate(0 -0.42)"/><path class="cls-1" d="M79.88,73.71a12.77,12.77,0,0,0,5.89,9.92C89.62,86.31,94.43,87.18,99,88a42.66,42.66,0,0,0,14.34.5,33.81,33.81,0,0,0,12.77-4.91c3.77-2.42,8-6.16,7.1-11.13-.23-1.21-2.06-.7-1.84.5.76,4-3.42,7.21-6.4,9.1a32.29,32.29,0,0,1-11.1,4.41,36.07,36.07,0,0,1-12.69,0c-4-.65-8.33-1.31-12.06-3.1s-7.17-5.2-7.3-9.63c0-1.22-1.94-1.23-1.9,0Z" transform="translate(0 -0.42)"/><path class="cls-1" d="M104,41.38l.11-5.27a.69.69,0,0,1,.1-.42.72.72,0,0,1,.61-.18l3.3.07a1,1,0,0,1,.51.1c.29.17.33.57.35.91l.14,4.37a.8.8,0,0,1-1.07,1,29.42,29.42,0,0,0-3.75-.27" transform="translate(0 -0.42)"/><path class="cls-1" d="M113.09,42l1.11-5.16a.77.77,0,0,1,.17-.39.75.75,0,0,1,.64-.07l3.23.7a1,1,0,0,1,.48.19,1.06,1.06,0,0,1,.17,1l-.69,4.32a.8.8,0,0,1-1.24.79,27,27,0,0,0-3.63-1" transform="translate(0 -0.42)"/><path class="cls-1" d="M99.84,41.56l-1.11-5.15a.7.7,0,0,0-.18-.39.72.72,0,0,0-.63-.07l-3.23.7a1.13,1.13,0,0,0-.48.19,1.07,1.07,0,0,0-.17,1l.69,4.32a1.08,1.08,0,0,0,.43.85,1.12,1.12,0,0,0,.82-.06,26.63,26.63,0,0,1,3.63-1" transform="translate(0 -0.42)"/><path class="cls-1" d="M121.51,44l1.41-5.09a.66.66,0,0,1,.19-.38.72.72,0,0,1,.64,0l3.18.88a1,1,0,0,1,.47.22,1,1,0,0,1,.12,1l-.93,4.28c-.07.32-.18.69-.48.82a1.1,1.1,0,0,1-.81-.1,26.64,26.64,0,0,0-3.57-1.18" transform="translate(0 -0.42)"/><path class="cls-1" d="M90.52,43.72l-1.87-4.93a.68.68,0,0,0-.23-.36.72.72,0,0,0-.64,0l-3.09,1.17a1.13,1.13,0,0,0-.45.26,1.07,1.07,0,0,0,0,1L85.54,45c.1.31.24.67.56.77a1,1,0,0,0,.79-.18,27.74,27.74,0,0,1,3.45-1.51" transform="translate(0 -0.42)"/><path class="cls-1" d="M128.82,46.48,131,41.67a.65.65,0,0,1,.25-.35.74.74,0,0,1,.64.07l3,1.35a.92.92,0,0,1,.43.29,1,1,0,0,1,0,1l-1.56,4.09c-.12.3-.28.65-.6.73a1.08,1.08,0,0,1-.78-.22A27.08,27.08,0,0,0,129,46.89" transform="translate(0 -0.42)"/><path class="cls-1" d="M82.26,46.37,80,42.45a.53.53,0,0,0-.25-.26c-.19-.08-.41,0-.6.15l-2.74,1.6a1.12,1.12,0,0,0-.39.32.85.85,0,0,0,.09.84l1.7,3.36c.12.26.29.54.59.57a1.19,1.19,0,0,0,.73-.31,28.69,28.69,0,0,1,3-2" transform="translate(0 -0.42)"/><path class="cls-1" d="M136.27,50.23l2.48-4.65a.7.7,0,0,1,.28-.33.73.73,0,0,1,.63.11l2.91,1.55a.94.94,0,0,1,.41.32,1.06,1.06,0,0,1-.1,1l-1.84,4c-.14.3-.32.63-.64.69a1,1,0,0,1-.77-.28,28.4,28.4,0,0,0-3.23-1.93" transform="translate(0 -0.42)"/><path class="cls-1" d="M76,50.5,72.79,47a.65.65,0,0,0-.3-.22c-.19-.05-.37.09-.51.21l-2.06,1.89a.92.92,0,0,0-.27.35c-.08.28.13.57.32.81l2.48,3c.19.23.42.48.7.47a.89.89,0,0,0,.58-.39A21.85,21.85,0,0,1,76,50.88" transform="translate(0 -0.42)"/><path class="cls-1" d="M143.76,54.74l2.52-3.08a.55.55,0,0,1,.25-.2c.16-.05.32.07.45.17l1.92,1.58a.72.72,0,0,1,.26.29.79.79,0,0,1-.22.7L147,56.87c-.15.2-.33.42-.58.42a.83.83,0,0,1-.53-.32,19.9,19.9,0,0,0-2.1-1.9" transform="translate(0 -0.42)"/><path class="cls-1" d="M61.61,54.5a4.34,4.34,0,0,0-.11,2.93,27,27,0,0,0,1,3.19,30.46,30.46,0,0,0,3.12,5.89c.42.61,1.41,0,1-.57a29,29,0,0,1-2.85-5.25c-.36-.88-.68-1.78-.95-2.69a4.35,4.35,0,0,1-.25-2.92c.3-.67-.68-1.25-1-.58Z" transform="translate(0 -0.42)"/><path class="cls-1" d="M121.19,74.48a1.26,1.26,0,0,0,0,.58,4.72,4.72,0,0,0,.24.56l-.08-.21v0l0-.23a.83.83,0,0,0,.12.46,1.24,1.24,0,0,0,.17.23l.08.09c0,.06.11.11.17.17a2.26,2.26,0,0,0,.36.27l.11,0a1.19,1.19,0,0,0,.26.11.91.91,0,0,0,.49,0,.61.61,0,0,0,.3-.15.78.78,0,0,0,.23-.25.87.87,0,0,0,.08-.67,1.57,1.57,0,0,0-.09-.23,1,1,0,0,0-.32-.32l-.06,0,.18.14-.42-.32.18.15-.19-.17-.08-.09a1.73,1.73,0,0,0-.21-.17,1,1,0,0,0-.48-.14l.45.12h0l.17.13a2.33,2.33,0,0,1-.26-.28l.13.16a3.5,3.5,0,0,0-.24-.3.8.8,0,0,1-.13-.13l-.14-.11-.16-.06a.66.66,0,0,0-.44,0,.68.68,0,0,0-.27.21.28.28,0,0,0-.08.15.44.44,0,0,0-.06.25Z" transform="translate(0 -0.42)"/><path class="cls-1" d="M124.93,74.72l.07.09-.13-.17a1.65,1.65,0,0,1,.22.36l-.1-.23a2.21,2.21,0,0,0,.12.27.43.43,0,0,0,0,.07l.06.12a.81.81,0,0,0,.25.27.75.75,0,0,0,.33.17.65.65,0,0,0,.39,0,.66.66,0,0,0,.36-.11l.2-.15A1.1,1.1,0,0,0,127,75l0-.26a.92.92,0,0,0-.13-.49,1.08,1.08,0,0,0-.11-.18v0l-.15-.19,0,0,0,0-.27-.21a1.47,1.47,0,0,0-.28-.14,1.15,1.15,0,0,0-.29-.11l-.22,0a.6.6,0,0,0-.32.07.34.34,0,0,0-.18.11.52.52,0,0,0-.21.23l-.08.19,0,.22a.6.6,0,0,0,.07.32.62.62,0,0,0,.17.26Z" transform="translate(0 -0.42)"/><path class="cls-1" d="M84.87,77.21a.13.13,0,0,0,0,.06l0-.23a3.19,3.19,0,0,0,.08.61l.07.19a.76.76,0,0,0,.22.34l0,0a1.29,1.29,0,0,0,.58.33,1.07,1.07,0,0,0,.76-.1.65.65,0,0,0,.27-.25.75.75,0,0,0,.18-.34l0-.26a1,1,0,0,0-.14-.5l-.15-.2a1,1,0,0,0-.44-.25h0l.24.1-.08,0,.2.15a.94.94,0,0,1-.1-.1l-.1-.1.15.19a1.3,1.3,0,0,1-.1-.15c-.08-.12-.16-.22-.24-.32l-.18-.14a.58.58,0,0,0-.32-.1.45.45,0,0,0-.23,0,.63.63,0,0,0-.32.1,1.14,1.14,0,0,0-.31.31.75.75,0,0,0-.1.32.6.6,0,0,0,0,.35Z" transform="translate(0 -0.42)"/><path class="cls-1" d="M88.35,75.61v0l.18-.31a.8.8,0,0,0-.24.58V76l0-.22a1.05,1.05,0,0,0,0,.31.49.49,0,0,0,0,.12v.12a2,2,0,0,0,0,.36l.09.22.1.24a.89.89,0,0,0,.27.37l.19.15.22.1.26,0a.64.64,0,0,0,.36-.08.45.45,0,0,0,.21-.12.55.55,0,0,0,.17-.17.72.72,0,0,0,.12-.21.73.73,0,0,0,.08-.36,1,1,0,0,0,0-.35,1.63,1.63,0,0,0-.14-.34c0-.08-.07-.16-.11-.23a1.3,1.3,0,0,0-.18-.23l0,0-.08-.09-.08-.1a1.64,1.64,0,0,0-.25-.19l.17.13-.08-.08a.78.78,0,0,0-.59-.24l.19,0h0a.5.5,0,0,0-.27,0,.43.43,0,0,0-.24.08l-.14.1a.66.66,0,0,0-.17.29Z" transform="translate(0 -0.42)"/><path class="cls-1" d="M97.23,32.6A156.48,156.48,0,0,0,108.92,1.08h-1l9.31,31a.54.54,0,0,0,1-.29L108.92.8a.54.54,0,0,0-1,0A155.29,155.29,0,0,1,96.3,32.06c-.31.62.62,1.16.93.54Z" transform="translate(0 -0.42)"/><path class="cls-1" d="M129.39,34.52a25.55,25.55,0,0,1,3.45-5.42,45.63,45.63,0,0,0,3.67-4.31c2.17-3.15,3.6-6.74,5.86-9.83l-1-.27q.94,13.65,1.71,27.33c0,.69,1.12.69,1.08,0q-.76-13.67-1.72-27.33a.54.54,0,0,0-1-.27c-2.26,3.09-3.69,6.67-5.85,9.82-1.2,1.75-2.77,3.16-4.1,4.79a27.19,27.19,0,0,0-3,4.95c-.32.61.61,1.15.92.54Z" transform="translate(0 -0.42)"/><path class="cls-1" d="M150.9,50.76a94.18,94.18,0,0,1,6-8.64l6.46-8.88-1-.41-8.06,26.49c-.21.66.83,1,1,.29l8.06-26.5c.19-.61-.64-.87-1-.41L156,41.57a94.87,94.87,0,0,0-6,8.64c-.34.61.58,1.15.92.55Z" transform="translate(0 -0.42)"/><path class="cls-1" d="M89.1,33.76C82,27.26,73.09,23,66.5,15.92a.55.55,0,0,0-.92.38c-.41,4,1.67,7.92,3.12,11.56l4.93,12.32c.26.64,1.29.36,1-.28L69.91,28c-1.46-3.66-3.67-7.66-3.25-11.72l-.92.38c6.59,7.1,15.5,11.34,22.6,17.84.51.47,1.27-.29.76-.76Z" transform="translate(0 -0.42)"/><path class="cls-1" d="M66.82,46.77c-5-4.07-10.08-8.15-15.07-12.28a.54.54,0,0,0-.76.76c4.36,5.6,5.29,13,9.23,18.85.38.57,1.31,0,.92-.54-4-5.93-5-13.38-9.39-19.07l-.76.76c5,4.13,10,8.2,15.07,12.28.53.43,1.3-.33.76-.76Z" transform="translate(0 -0.42)"/><path class="cls-1" d="M192.59,107.89c8.42-2.74,17.33-2.71,26-3.82,1.2-.15,1.22-2.07,0-1.92-8.88,1.14-18,1.1-26.55,3.89-1.17.38-.67,2.23.51,1.85Z" transform="translate(0 -0.42)"/><path class="cls-1" d="M186.8,84.72c.84,6.91,1.72,13.82,2.7,20.71.17,1.22,2,.7,1.85-.51-.95-6.72-1.81-13.46-2.64-20.2-.14-1.21-2.06-1.22-1.91,0Z" transform="translate(0 -0.42)"/><path class="cls-1" d="M184.84,68.41q.61,5.2,1.24,10.39a1,1,0,0,0,1,1,1,1,0,0,0,1-1c-.42-3.46-.83-6.92-1.25-10.39a1,1,0,0,0-.95-1,1,1,0,0,0-1,1Z" transform="translate(0 -0.42)"/><path class="cls-1" d="M210.39,60.22c-.43-.8-1.42-.6-2.2-.58-1.13,0-2.26.15-3.38.27A41.05,41.05,0,0,0,198,61.15a24.15,24.15,0,0,0-6.11,2.57c-1.89,1.15-3.59,2.66-5.85,3-1.72.25-1,2.89.73,2.63,2.22-.33,4-1.68,5.83-2.88a24.08,24.08,0,0,1,6.45-3A51.11,51.11,0,0,1,205.9,62c.66-.11,5.29-.32,4.49-1.79Z" transform="translate(0 -0.42)"/><path class="cls-1" d="M210.64,60.44c.36,1.62-.1,3.4.07,5s.47,3.33.79,5c.69,3.57,1.55,7.09,2.22,10.66s1.25,7.1,1.79,10.67.84,7.34,1.49,11c.24,1.34,2.43,1,2.37-.32A99.15,99.15,0,0,0,218,91.87q-.83-5.34-1.92-10.64c-.72-3.48-1.5-6.94-2.27-10.41-.36-1.63-.68-3.26-1-4.9s-1.27-3.85-1-5.63c.11-.78-1.35-.75-1.14.15Z" transform="translate(0 -0.42)"/><path class="cls-1" d="M186.36,67.16c-.36-.13-.75-.14-1.12-.27a6.76,6.76,0,0,0-1.09-.3,5.11,5.11,0,0,1-1-.23,3.32,3.32,0,0,1-.41-.22s-.18-.15,0,0l-.17-.15c-.43-.41-.77-.89-1.22-1.29a2.87,2.87,0,0,0-2-.9,1.12,1.12,0,0,0-1.08,1,1.1,1.1,0,0,0,.79,1.21,3.28,3.28,0,0,1,.41.08s.24.11.1,0l.09,0,.14.1c.22.13-.09-.1,0,0l.33.3a8.4,8.4,0,0,0,1.5,1.23,3.58,3.58,0,0,0,2.36.36,7,7,0,0,0,1.11-.3,1.81,1.81,0,0,1,.51-.12,2.88,2.88,0,0,1,.65.13c.41.12.57-.5.17-.64Z" transform="translate(0 -0.42)"/><path class="cls-1" d="M180.8,62.23a6.61,6.61,0,0,0-1,.63l.67.17,0-.05c-.73-1.56-2.66,1-1,1.29,2,.33,3.88-1.36,5.45-2.39,1.93-1.26,3.79-2.72,5.83-3.81a46.31,46.31,0,0,1,6.29-2.4l3.22-1.16c1.06-.39,2.24-.54,2.59-1.75a1,1,0,0,0-.44-1.1c-1-.63-1.89,0-2.85.31l-3.22,1.18c-2.06.77-4.2,1.45-6.19,2.41-3.91,1.87-7.05,5.11-10.89,7.11l1.28.52v0l-.34.6a7.3,7.3,0,0,0,1.13-.23.7.7,0,1,0-.55-1.29Z" transform="translate(0 -0.42)"/><path class="cls-1" d="M202.59,52.44c0,.19-.1.25-.2.42a1.45,1.45,0,0,0-.16.51,3.07,3.07,0,0,0,0,1.35A4.89,4.89,0,0,0,203.34,57c.48.55,1.06,1,1.55,1.56a3.53,3.53,0,0,1,.48.75,1.15,1.15,0,0,1,.08.8,1.07,1.07,0,1,0,2.07.57c.52-1.88-.78-3.36-2-4.54a5.63,5.63,0,0,1-1.35-1.65c-.17-.34-.27-.72-.43-1.07-.07-.16-.13-.35-.21-.5s-.23-.24-.24-.47a.33.33,0,0,0-.66,0Z" transform="translate(0 -0.42)"/><path class="cls-1" d="M182.09,92.24a87.28,87.28,0,0,1,1.6,9.23,1,1,0,0,0,1,1,1,1,0,0,0,1-1,91.74,91.74,0,0,0-1.67-9.74c-.27-1.2-2.12-.69-1.85.51Z" transform="translate(0 -0.42)"/><path class="cls-1" d="M178,66.93a72.34,72.34,0,0,0,2.34,17.55c.28,1.2,2.13.69,1.85-.51a70.18,70.18,0,0,1-2.27-17,1,1,0,0,0-1.92,0Z" transform="translate(0 -0.42)"/><path class="cls-1" d="M183.88,101.37a1.57,1.57,0,0,1,.51.23,2.58,2.58,0,0,1,.33.41,3.87,3.87,0,0,0,1,.67,17.73,17.73,0,0,1,1.89,1.2,11,11,0,0,1,1.51,1.36A6.87,6.87,0,0,0,191,107a1.07,1.07,0,0,0,1.3-1.68c-.32-.31-.61-.49-.93-.81s-.54-.57-.82-.85a13,13,0,0,0-1.92-1.62,9.4,9.4,0,0,0-2.16-1.11,2.7,2.7,0,0,0-1.18-.23c-.21,0-.39.11-.59.14a2.25,2.25,0,0,1-.63-.06.33.33,0,0,0-.18.63Z" transform="translate(0 -0.42)"/><ellipse class="cls-3" cx="12.44" cy="45.7" rx="8.95" ry="5.25" transform="translate(-16.05 7.45) rotate(-21.75)"/><path class="cls-3" d="M1.24,28.8s.54-3,4.51-1.69,4.5-1.68,4.5-1.68" transform="translate(0 -0.42)"/><text class="cls-4" transform="translate(191.83 87.43) rotate(-11.67)">Book</text><text class="cls-5" transform="translate(6.58 49.28) rotate(-15)">Art</text></g></g></g></svg>