<svg xmlns="http://www.w3.org/2000/svg" viewBox="0 0 219.54 117.32"><defs><style>.cls-1{fill:#fff;}.cls-2,.cls-3{fill:none;stroke:#fff;stroke-miterlimit:10;}.cls-3{stroke-width:0.5px;}.cls-4{fill:#f9f9f9;}</style></defs><g id="レイヤー_2" data-name="レイヤー 2"><g id="レイヤー_1-2" data-name="レイヤー 1"><g id="レイヤー_4" data-name="レイヤー 4"><circle class="cls-1" cx="121.8" cy="66.43" r="2.86"/><circle class="cls-1" cx="89.72" cy="65.75" r="2.86"/><path class="cls-1" d="M71.59,61.06c2,.11,3.93,0,5.89,0A33.18,33.18,0,0,0,82.66,61a51.48,51.48,0,0,0,11-2.87c6-2.26,12.16-5.51,15.15-11.47.63-1.24-1.27-2.33-1.86-1.09-2.77,5.86-8.82,9-14.63,11.12a58.81,58.81,0,0,1-10.11,2.67c-1.71.32-3.44.83-5.18,1a38,38,0,0,1-5.44,0,.36.36,0,0,0,0,.72Z" transform="translate(0 -0.42)"/><path class="cls-1" d="M143.27,63.3a45.33,45.33,0,0,1-5.21-.08,53,53,0,0,1-5.4-1,58.86,58.86,0,0,1-10.09-2.76c-5.78-2.21-11.81-5.37-14.52-11.25-.58-1.25-2.48-.16-1.87,1.09,2.94,6,9.08,9.29,15,11.6a51.52,51.52,0,0,0,11,3,33.11,33.11,0,0,0,5.17.18c2,0,3.92.11,5.89,0,.46,0,.47-.74,0-.72Z" transform="translate(0 -0.42)"/><path class="cls-1" d="M69,74.23c-3.83-7.74.67-15.9,6.53-21.14,6.06-5.42,14.06-8.47,22.08-9.37,9.37-1,18.8.76,27.62,3.84,7.63,2.66,16.41,6.09,21.4,12.8,4.21,5.65,4.84,15.65-2.27,19.4-1.53.8-.18,3.13,1.35,2.31,6.74-3.58,8.11-12.61,5.37-19.18-3.5-8.37-12.49-12.77-20.41-16C121,43.05,110.53,40.48,100,41.16a43,43,0,0,0-24.58,9.35A27.54,27.54,0,0,0,66.85,62c-1.52,4.16-1.81,9.37,1.67,12.62a.33.33,0,0,0,.52-.4Z" transform="translate(0 -0.42)"/><path class="cls-1" d="M154,67.58A7.71,7.71,0,0,0,155.57,63a15.66,15.66,0,0,0-1.08-5.1,39.76,39.76,0,0,0-5.61-10.45C143.74,40.79,136,37,128.2,34.3c-15.86-5.4-33.54-4.9-48.49,3a52.91,52.91,0,0,0-5.45,3.29c-.82.56-1.63,1.16-2.4,1.79S70.42,44,69.63,44.72a65.78,65.78,0,0,0-8.11,9.66c-.31.45.44.89.74.43a34.15,34.15,0,0,1,7.1-7.92,12.43,12.43,0,0,1,2.11-1.64,17.23,17.23,0,0,0,2.25-1.45c1.4-1,2.83-2,4.31-2.92a54,54,0,0,1,20.11-7.3,61.31,61.31,0,0,1,24.12,1.3c7.58,1.9,15.78,5,21.62,10.33a34,34,0,0,1,7.31,9.91,31.47,31.47,0,0,1,2.29,5.81c.46,1.73.86,4.45-.6,5.78-.74.68.54,1.78,1.13.87Z" transform="translate(0 -0.42)"/><path class="cls-1" d="M77,81.59c-1.37,4.15-4.48,7.17-6.91,10.68-2,2.9-3.39,6.46-2.22,10a6.26,6.26,0,0,0,7.4,4.4,5.47,5.47,0,0,0,3.86-3,2.39,2.39,0,0,0-2.2-3.42c-1.36.09-1.37,2.23,0,2.13,1-.07-.82,1.7-.94,1.77a4,4,0,0,1-1.6.59,4,4,0,0,1-3.43-1.12c-1.78-1.81-1.82-4.69-1-7,1.91-5.43,7.85-8.83,8.22-14.88,0-.69-1-.77-1.16-.16Z" transform="translate(0 -0.42)"/><path class="cls-1" d="M73.62,77.79a7.17,7.17,0,0,1-1.87,2.13,15.84,15.84,0,0,1-2.29,1.87,11.34,11.34,0,0,1-5.26,1.89,14.1,14.1,0,0,0-8.72,3.81,8.09,8.09,0,0,0-2.2,7.75,6.22,6.22,0,0,0,5.6,5,4.17,4.17,0,0,0,4-2.32,3.26,3.26,0,0,0-1.13-4.08c-.91-.57-2,.77-1.16,1.51,1.45,1.3,0,2.9-1.59,2.93a3.74,3.74,0,0,1-3.18-1.87,6.2,6.2,0,0,1,1.28-7.87c2.61-2.48,6.11-2.89,9.43-3.75a9.94,9.94,0,0,0,4.3-2.21,18.44,18.44,0,0,0,1.86-1.89,9.49,9.49,0,0,1,1.9-2.09c1-.6-.53-2-1-.77Z" transform="translate(0 -0.42)"/><path class="cls-1" d="M129.54,86.55c.46,2.27,2.79,3.43,4.63,4.49a13.82,13.82,0,0,1,5.66,6c1.24,2.58,1.82,6,.69,8.7a5.31,5.31,0,0,1-6.35,2.84,4.22,4.22,0,0,1-3.23-3.08c-.23-1.55,1.17-2.27,2.47-1.81.89.31,1.41-.87.86-1.48-1-1.15-2.81-.83-3.93,0a3.74,3.74,0,0,0-1.29,4.14c1,3.38,4.91,4.83,8.14,4.21,3.66-.7,5.57-3.8,5.78-7.34a14,14,0,0,0-3.34-9.76,13.12,13.12,0,0,0-4.81-3.56c-1.8-.79-4-1.43-4.64-3.55a.33.33,0,0,0-.64.18Z" transform="translate(0 -0.42)"/><path class="cls-1" d="M134.11,80.34c1,2.55,3.8,3,6.2,3.21a14.87,14.87,0,0,1,8.3,4.16,16.8,16.8,0,0,1,4.94,7.9,15.81,15.81,0,0,1,.49,4.89,22.66,22.66,0,0,1-.83,5.86c-.36,1.1-1.3,2.38-2.61,2.07-.93-.22-1.73-1.33-2.21-2.09s-1.06-1.91-.62-2.83c.29-.6,1.26-1.14,1.81-.61a1,1,0,0,0,1.4-1.4,3,3,0,0,0-4.19,0c-1.55,1.34-1.42,3.46-.58,5.17s2.44,3.67,4.47,3.8c2.18.13,3.77-1.69,4.39-3.6a24.55,24.55,0,0,0,.9-7.29,16.51,16.51,0,0,0-1.15-6.13,18.14,18.14,0,0,0-7.28-8.92,19.63,19.63,0,0,0-6.16-2.39c-1.66-.36-5.33-.13-5.81-2.22-.22-1-1.8-.5-1.46.41Z" transform="translate(0 -0.42)"/><path class="cls-1" d="M13.64,49.94c1.24,4.61,2.84,9.14,4.36,13.67s3,9.09,4.52,13.64q4.5,13.64,8.8,27.35c.51,1.63,3.1.93,2.57-.71q-4.44-13.8-9-27.54c-3-9-5.84-18.31-9.61-27.09-.39-.93-1.85-.26-1.6.68Z" transform="translate(0 -0.42)"/><path class="cls-1" d="M4.72,36.93a1,1,0,0,0,.75.44L5,37.07c0,.07.07.15.1.23l.06.15q0-.09,0,.06c.06.22.12.44.2.65.13.37.27.74.37,1.12,0,.19.09.38.13.58l.06.33c0-.15,0,.08,0,.11A3.54,3.54,0,0,0,6,41c.1.23.12.28.07.15s0-.06,0,0a.83.83,0,0,0,.29.62.76.76,0,0,0,1.08,0,.92.92,0,0,0,.28-.62c0-.12,0-.22,0-.34l-.12.42a1.44,1.44,0,0,0,.09-1c0-.2-.07-.39-.11-.58a9.9,9.9,0,0,0-.34-1.18,6.6,6.6,0,0,0-.52-1.19,9.29,9.29,0,0,0-.77-1l.16.59A1.08,1.08,0,0,0,5.87,36a.73.73,0,0,0-1.08-.21.74.74,0,0,0-.07,1.1Z" transform="translate(0 -0.42)"/><path class="cls-1" d="M2.91,36.81a2.14,2.14,0,0,0,2.56-.55c.81-.78,1.23-1.86,2.41-2.16A21.39,21.39,0,0,1,10.54,34a2.78,2.78,0,0,0,2.15-1.17L11,32.66a26.25,26.25,0,0,0,3.05,6.92c.68,1.14,2.5.05,1.76-1a27.51,27.51,0,0,1-3.07-6.37.91.91,0,0,0-1.78.24c-.06.5-1,.53-1.33.59a15.2,15.2,0,0,0-2.11.44,3.41,3.41,0,0,0-1.75,1.31c-.56.72-1.48,2.12-2.57,1.48a.33.33,0,0,0-.33.57Z" transform="translate(0 -0.42)"/><path class="cls-1" d="M4,36.52c-3.26-2.24-2-6.73-1-9.78a20.31,20.31,0,0,0,1.29-5.8,13.63,13.63,0,0,0-1.27-6l-1.66,1A30.46,30.46,0,0,0,8,24.46c2.39,2.29,5.37,5.69,3.3,9.14-.65,1.07,1,2,1.66,1,2.25-3.25.3-7.35-2-9.91C9.52,23.16,8,21.88,6.61,20.35a24.3,24.3,0,0,1-3.55-5.41c-.55-1.12-2.16-.14-1.66,1a11.17,11.17,0,0,1,.8,6.84C1.76,24.94.81,27,.3,29.15c-.71,3.1-.33,7.24,3,8.69A.76.76,0,0,0,4,36.52Z" transform="translate(0 -0.42)"/><path class="cls-1" d="M24.81,89.05c-.95-2-3.88-.9-4.55.74-1,2.49,1.07,4.92,3.23,5.91a23.05,23.05,0,0,0,2.28.84l1.15.37a5.48,5.48,0,0,0,1.26.35.69.69,0,0,0,.48-1.16,4.86,4.86,0,0,0-1.74-.72c-.57-.17-1.15-.33-1.72-.51a7.44,7.44,0,0,1-2.87-1.49,3.31,3.31,0,0,1-1.24-2.46,1.88,1.88,0,0,1,1.18-1.62,1.8,1.8,0,0,1,2,.15.33.33,0,0,0,.52-.4Z" transform="translate(0 -0.42)"/><path class="cls-1" d="M32.82,91.79a.33.33,0,0,0,0-.66.33.33,0,0,0,0,.66Z" transform="translate(0 -0.42)"/><path class="cls-1" d="M33.48,92.26c.41.21.81.43,1.21.67a4.72,4.72,0,0,1,1.05.89A4.22,4.22,0,0,1,37.06,96a2.38,2.38,0,0,1-.5,1.78,2.71,2.71,0,0,1-.34.35c.1-.09-.07.05-.1.07l-.18.1-.2.06c-.16,0,.09,0-.09,0s-.24,0-.09,0l-.34-.06a.83.83,0,0,0-1,.48.82.82,0,0,0,.34,1,2.57,2.57,0,0,0,3-.69,3.85,3.85,0,0,0,1-2.94,4.39,4.39,0,0,0-1.78-2.86,13.25,13.25,0,0,0-1.47-.81c-.5-.28-1-.56-1.51-.81s-.71.37-.33.57Z" transform="translate(0 -0.42)"/><path class="cls-1" d="M40.83,100a4.88,4.88,0,0,1,.64.23l.66.26-.2-.19a.71.71,0,0,0,.38.3l.24.08.43.11.43.09.25.06.12,0c-.05,0-.05,0,0,0a.65.65,0,1,0,.33-1.22H44c.06,0,0,0,0,0l-.25-.06-.43-.1a3,3,0,0,0-.43-.09l-.25,0a.7.7,0,0,0-.49.08l.27-.07c-.23,0-.47,0-.71-.06a5.2,5.2,0,0,1-.68-.06.33.33,0,1,0-.18.64Z" transform="translate(0 -0.42)"/><path class="cls-1" d="M40.51,100.9l.46,0a.31.31,0,0,0,.22-.09.23.23,0,0,0,.07-.1.28.28,0,0,0,0-.13.34.34,0,0,0-.1-.23.36.36,0,0,0-.22-.09l-.46,0a.37.37,0,0,0-.22.1.17.17,0,0,0-.07.1.27.27,0,0,0,0,.12.33.33,0,0,0,.1.23.32.32,0,0,0,.22.1Z" transform="translate(0 -0.42)"/><path class="cls-1" d="M40.91,100.46c0-.21,0-.35-.07-.55l-.12.29a.72.72,0,0,0,.22-.43,1,1,0,0,0,0-.25l-.18.44.09-.07a.84.84,0,0,0,.21-.8l-.12-.52V99a1.3,1.3,0,0,0,0-.44,2.11,2.11,0,0,1,0-.26.93.93,0,1,0-1.73.47,2.44,2.44,0,0,1,.1.24,1.56,1.56,0,0,0,.23.36L39.33,99l.15.51a.82.82,0,0,0,.57.57l.11,0-.37-.28a2.25,2.25,0,0,0,.12.21.81.81,0,0,0,.41.26l-.25-.19c.08.18.13.32.21.52a.33.33,0,0,0,.4.23.34.34,0,0,0,.23-.41Z" transform="translate(0 -0.42)"/><path class="cls-1" d="M36.74,100.67c1.14,2.81,1.95,5.7,3,8.55.5,1.4,1,2.8,1.47,4.22.23.71.47,1.41.71,2.11a4.24,4.24,0,0,0,1,2,.82.82,0,0,0,1.35-.35,3.88,3.88,0,0,0-.43-2.13c-.28-.76-.58-1.5-.88-2.24-.57-1.38-1.11-2.77-1.69-4.15-1.17-2.8-2.63-5.47-3.87-8.24-.15-.33-.74-.09-.6.26Z" transform="translate(0 -0.42)"/><path class="cls-1" d="M176.91,90.33a8.06,8.06,0,0,1,1.89,2,8.91,8.91,0,0,1,1.39,2.41,26.58,26.58,0,0,1,1.41,5.48c.42,2.44.72,4.9.92,7.37.1,1.25.17,2.5.22,3.75a17.3,17.3,0,0,0,.22,3.6,1.15,1.15,0,0,0,2.2,0,14.92,14.92,0,0,0,0-4.06c-.08-1.41-.2-2.82-.34-4.22-.3-2.75-.7-5.5-1.25-8.21a18,18,0,0,0-2-5.61,8.09,8.09,0,0,0-1.82-2.21,5.84,5.84,0,0,0-2.64-.92.36.36,0,0,0-.27.65Z" transform="translate(0 -0.42)"/><path class="cls-1" d="M176,89.27c-2.38,1.2-4.16,3.8-5.23,6.18-.5,1.13-.84,2.32-1.28,3.47a7.83,7.83,0,0,1-.77,1.53,15.91,15.91,0,0,1-1.11,1.21.89.89,0,0,0,.85,1.47,4.44,4.44,0,0,0,2.5-2.64c.51-1.12.83-2.31,1.26-3.46a14.89,14.89,0,0,1,1.93-3.52c.82-1.11,1.85-2,2.76-3.06a.75.75,0,0,0-.91-1.18Z" transform="translate(0 -0.42)"/><path class="cls-2" d="M99.05,74.58s6.38,11.3,12,.74" transform="translate(0 -0.42)"/><path class="cls-2" d="M107.52,69.27s-1.42-2.51-2.66-.16" transform="translate(0 -0.42)"/><path class="cls-1" d="M178.94,90.36A13.57,13.57,0,0,0,180.11,88a22.2,22.2,0,0,1,1.36-2.43,21.58,21.58,0,0,1,3.43-4.07,11,11,0,0,1,2.1-1.56c.24-.13.13,0,.09-.08a1.15,1.15,0,0,1,.1.23,3.44,3.44,0,0,1,.12,1.15,12.87,12.87,0,0,1-1,4.94,13.18,13.18,0,0,1-3.49,4.79c-1.12,1,.52,2.61,1.63,1.64a15,15,0,0,0,5.05-11.67,3.59,3.59,0,0,0-1.09-2.79c-1.05-.83-2.15-.28-3.05.46a28.07,28.07,0,0,0-4.65,4.72,20.44,20.44,0,0,0-1.94,3.16A8.4,8.4,0,0,0,177.58,90a.74.74,0,0,0,1.36.37Z" transform="translate(0 -0.42)"/><path class="cls-1" d="M79.88,73.71c.11,4.11,2.58,7.63,5.88,9.92C89.62,86.31,94.43,87.18,99,88a42.65,42.65,0,0,0,14.34.5,33.88,33.88,0,0,0,12.77-4.91c3.77-2.42,8-6.16,7.1-11.13-.23-1.21-2.07-.7-1.84.5.76,4-3.42,7.21-6.4,9.1a32.29,32.29,0,0,1-11.1,4.41,36.07,36.07,0,0,1-12.69,0c-4-.65-8.33-1.31-12.06-3.1s-7.17-5.2-7.3-9.63c0-1.22-1.94-1.23-1.9,0Z" transform="translate(0 -0.42)"/><path class="cls-1" d="M104,41.38l.12-5.27a.69.69,0,0,1,.1-.42.72.72,0,0,1,.61-.18l3.3.07a1,1,0,0,1,.51.1c.29.17.33.57.34.91l.15,4.37a1.06,1.06,0,0,1-.26.91,1,1,0,0,1-.81.1,29.55,29.55,0,0,0-3.75-.27" transform="translate(0 -0.42)"/><path class="cls-1" d="M113.09,42l1.11-5.16a.77.77,0,0,1,.17-.39.75.75,0,0,1,.64-.07l3.23.7a1,1,0,0,1,.48.19,1,1,0,0,1,.16,1l-.68,4.32a1,1,0,0,1-.43.85,1.07,1.07,0,0,1-.82-.06,26.6,26.6,0,0,0-3.63-1" transform="translate(0 -0.42)"/><path class="cls-1" d="M99.84,41.56l-1.11-5.15a.7.7,0,0,0-.18-.39.74.74,0,0,0-.64-.07l-3.22.7a1.13,1.13,0,0,0-.48.19,1.07,1.07,0,0,0-.17,1l.69,4.32a1,1,0,0,0,.43.85,1.09,1.09,0,0,0,.81-.06,27,27,0,0,1,3.63-1" transform="translate(0 -0.42)"/><path class="cls-1" d="M121.51,44l1.4-5.09a.74.74,0,0,1,.2-.38.72.72,0,0,1,.64,0l3.18.88a1,1,0,0,1,.47.22,1,1,0,0,1,.11,1l-.92,4.28c-.07.32-.18.69-.48.82a1.1,1.1,0,0,1-.81-.1,27.12,27.12,0,0,0-3.57-1.18" transform="translate(0 -0.42)"/><path class="cls-1" d="M90.52,43.72l-1.87-4.93a.54.54,0,0,0-.88-.33l-3.08,1.17a.77.77,0,0,0-.47,1.23L85.54,45c.1.31.24.67.55.77a1.06,1.06,0,0,0,.8-.18,27.1,27.1,0,0,1,3.45-1.51" transform="translate(0 -0.42)"/><path class="cls-1" d="M128.82,46.48,131,41.67a.65.65,0,0,1,.25-.35.74.74,0,0,1,.64.07l3,1.35a1,1,0,0,1,.43.29c.2.27.08.65,0,1l-1.56,4.09c-.12.3-.28.65-.6.73a1.12,1.12,0,0,1-.79-.22A26.27,26.27,0,0,0,129,46.89" transform="translate(0 -0.42)"/><path class="cls-1" d="M82.26,46.37,80,42.45a.51.51,0,0,0-.26-.26c-.18-.08-.4,0-.59.15l-2.74,1.6a1.12,1.12,0,0,0-.39.32.85.85,0,0,0,.09.84l1.69,3.36c.13.26.3.54.6.57a1.19,1.19,0,0,0,.73-.31,27.71,27.71,0,0,1,3-2" transform="translate(0 -0.42)"/><path class="cls-1" d="M136.27,50.23l2.48-4.65a.7.7,0,0,1,.28-.33c.19-.1.43,0,.63.11l2.91,1.55a1,1,0,0,1,.41.32,1.06,1.06,0,0,1-.1,1l-1.84,4c-.14.3-.32.63-.64.69a1.08,1.08,0,0,1-.78-.28,27.43,27.43,0,0,0-3.22-1.93" transform="translate(0 -0.42)"/><path class="cls-1" d="M76,50.5,72.79,47a.68.68,0,0,0-.31-.22c-.19-.05-.36.09-.5.21l-2.06,1.89a.92.92,0,0,0-.27.35,1,1,0,0,0,.32.81l2.48,3c.18.23.42.48.7.47a.91.91,0,0,0,.58-.39A20.89,20.89,0,0,1,76,50.88" transform="translate(0 -0.42)"/><path class="cls-1" d="M143.76,54.74l2.52-3.08a.5.5,0,0,1,.25-.2c.16-.05.32.07.45.17l1.92,1.58a.8.8,0,0,1,.26.29.79.79,0,0,1-.22.7L147,56.87c-.15.2-.33.42-.58.42a.83.83,0,0,1-.53-.32,20.94,20.94,0,0,0-2.1-1.9" transform="translate(0 -0.42)"/><path class="cls-1" d="M61.61,54.5a4.34,4.34,0,0,0-.11,2.93,25.28,25.28,0,0,0,1,3.19,29.92,29.92,0,0,0,3.12,5.89c.41.61,1.4,0,1-.57a27.78,27.78,0,0,1-2.85-5.25c-.37-.88-.68-1.78-1-2.69a4.4,4.4,0,0,1-.24-2.92c.3-.67-.68-1.25-1-.58Z" transform="translate(0 -0.42)"/><path class="cls-1" d="M121.19,74.48a1,1,0,0,0,0,.58,4.49,4.49,0,0,0,.26.54l-.08-.2v0l0-.22a.86.86,0,0,0,.12.44,1.06,1.06,0,0,0,.16.21l.07.09.18.17a1.82,1.82,0,0,0,.35.27l.11.06.14.06.12,0,.25,0,.22,0,.2-.08.17-.14a.56.56,0,0,0,.18-.27.37.37,0,0,0,.06-.21.41.41,0,0,0,0-.22.43.43,0,0,0-.06-.22.68.68,0,0,0-.18-.27,1.08,1.08,0,0,0-.2-.16l0,0,.17.13-.41-.31.17.13-.19-.17-.08-.08a.87.87,0,0,0-.66-.3l.42.12h0l.17.13-.16-.18.13.17c-.08-.1-.14-.21-.22-.31a3,3,0,0,0-.24-.26l-.13-.11-.16-.06a.66.66,0,0,0-.44,0,.62.62,0,0,0-.27.21.38.38,0,0,0-.09.15.43.43,0,0,0,0,.25Z" transform="translate(0 -0.42)"/><path class="cls-1" d="M124.93,74.71a1.37,1.37,0,0,1,.17.17l-.13-.17a1.17,1.17,0,0,1,.15.27l-.09-.22a1.53,1.53,0,0,0,.11.27l0,.06a.67.67,0,0,1,.06.12.67.67,0,0,0,.24.26.76.76,0,0,0,.32.17.67.67,0,0,0,.37,0,.63.63,0,0,0,.35-.11l.19-.14A1.06,1.06,0,0,0,127,75l0-.25a.85.85,0,0,0-.13-.47,1.74,1.74,0,0,0-.1-.19h0l-.14-.18,0,0s0,0,0,0l-.26-.2a2.41,2.41,0,0,0-.56-.27l-.21,0a.58.58,0,0,0-.32.07.4.4,0,0,0-.18.1.78.78,0,0,0-.21.23l-.08.19,0,.22a.64.64,0,0,0,.07.31.65.65,0,0,0,.17.26Z" transform="translate(0 -0.42)"/><path class="cls-1" d="M85.38,76.84c0,.08,0,0,0,0v.08s0,.08,0,0,0,0,0,0l0,0-.47-.27a.87.87,0,0,0,0,.28l0,.23v.05l0-.22c0,.2,0,.4.08.6s.05.12.08.19a.76.76,0,0,0,.21.33l0,0a1.47,1.47,0,0,0,.55.33.7.7,0,0,0,.38,0,.66.66,0,0,0,.36-.11.67.67,0,0,0,.26-.24.7.7,0,0,0,.17-.33l0-.25a1,1,0,0,0-.13-.48l-.15-.19a1,1,0,0,0-.42-.25h0l.22.09-.07,0,.19.15s-.06-.07-.1-.1a.52.52,0,0,1-.1-.11l.15.19-.11-.15c-.07-.11-.15-.21-.23-.32a.82.82,0,0,0-.36-.21.74.74,0,0,0-.33,0,.71.71,0,0,0-.31.1,1.07,1.07,0,0,0-.3.3,0,0,0,0,1,0,0h0l-.06.08a.33.33,0,0,0,0,.12.49.49,0,0,0,0,.31.27.27,0,0,0,.47-.27Z" transform="translate(0 -0.42)"/><path class="cls-1" d="M88.35,75.61v0l.18-.31a.8.8,0,0,0-.24.63,2,2,0,0,0,.06.35l0-.21,0,.21v.1a1.86,1.86,0,0,0,.06.34l.09.21a2.22,2.22,0,0,0,.13.31,1.09,1.09,0,0,0,.21.26l.19.14.21.09.24,0a.6.6,0,0,0,.35-.08.43.43,0,0,0,.2-.11.49.49,0,0,0,.16-.16.47.47,0,0,0,.12-.2.72.72,0,0,0,.08-.35v-.06a.34.34,0,0,0,0-.14.58.58,0,0,0,0-.14,1.69,1.69,0,0,0-.13-.31L90.12,76a1.7,1.7,0,0,0-.26-.34l-.15-.17.13.16a1.86,1.86,0,0,0-.21-.28.78.78,0,0,0-.62-.27l.19,0h0a.5.5,0,0,0-.27,0,.41.41,0,0,0-.24.08l-.14.1a.66.66,0,0,0-.17.29Z" transform="translate(0 -0.42)"/><path class="cls-1" d="M97.22,32.6a156.51,156.51,0,0,0,11.7-31.52h-1l9.31,31a.54.54,0,0,0,1-.29L108.92.8a.54.54,0,0,0-1,0A155.29,155.29,0,0,1,96.3,32.06c-.31.62.62,1.16.92.54Z" transform="translate(0 -0.42)"/><path class="cls-1" d="M129.39,34.52a25.55,25.55,0,0,1,3.45-5.42,45.63,45.63,0,0,0,3.67-4.31c2.17-3.15,3.6-6.74,5.86-9.83l-1-.27q.94,13.65,1.71,27.33c0,.69,1.11.69,1.08,0q-.78-13.67-1.72-27.33a.54.54,0,0,0-1-.27c-2.26,3.09-3.69,6.67-5.86,9.82-1.2,1.75-2.76,3.16-4.09,4.79a27.81,27.81,0,0,0-3,4.95c-.31.61.61,1.15.93.54Z" transform="translate(0 -0.42)"/><path class="cls-1" d="M150.9,50.76a94.18,94.18,0,0,1,6-8.64l6.46-8.88-1-.41-8.07,26.49a.54.54,0,0,0,1,.29l8.06-26.5c.19-.61-.64-.87-1-.41L156,41.57a94.87,94.87,0,0,0-6,8.64.54.54,0,0,0,.92.55Z" transform="translate(0 -0.42)"/><path class="cls-1" d="M89.1,33.76C82,27.26,73.08,23,66.5,15.92a.55.55,0,0,0-.92.38c-.42,4,1.67,7.92,3.12,11.56l4.93,12.32c.25.64,1.29.36,1-.28L69.91,28c-1.46-3.66-3.67-7.66-3.25-11.72l-.92.38c6.59,7.1,15.5,11.34,22.6,17.84.51.47,1.27-.29.76-.76Z" transform="translate(0 -0.42)"/><path class="cls-1" d="M66.82,46.77c-5-4.07-10.08-8.15-15.07-12.28a.54.54,0,0,0-.76.76c4.36,5.6,5.28,13,9.22,18.85.39.57,1.32,0,.93-.54-4-5.93-5-13.38-9.39-19.07l-.76.76c5,4.13,10,8.2,15.07,12.28.53.43,1.29-.33.76-.76Z" transform="translate(0 -0.42)"/><path class="cls-1" d="M192.58,107.89c8.43-2.74,17.33-2.71,26-3.82,1.21-.15,1.23-2.07,0-1.92-8.87,1.14-18,1.1-26.55,3.89-1.16.38-.66,2.23.51,1.85Z" transform="translate(0 -0.42)"/><path class="cls-1" d="M186.79,84.72c.85,6.91,1.73,13.82,2.71,20.71.17,1.22,2,.7,1.85-.51-1-6.72-1.81-13.46-2.64-20.2-.15-1.21-2.07-1.22-1.92,0Z" transform="translate(0 -0.42)"/><path class="cls-1" d="M184.83,68.41c.42,3.47.83,6.93,1.25,10.39a1,1,0,0,0,1,1,1,1,0,0,0,1-1c-.42-3.46-.83-6.92-1.25-10.39a1,1,0,0,0-1-1,1,1,0,0,0-1,1Z" transform="translate(0 -0.42)"/><path class="cls-1" d="M210.39,60.22c-.43-.8-1.42-.61-2.2-.56q-1.69.11-3.39.3A41.86,41.86,0,0,0,198,61.19a24.61,24.61,0,0,0-6.1,2.57c-1.89,1.15-3.59,2.67-5.85,3-1.67.25-1,2.8.7,2.55,2.22-.34,4-1.68,5.82-2.88a24.48,24.48,0,0,1,6.46-3A52.55,52.55,0,0,1,205.88,62c.67-.11,5.32-.26,4.51-1.75Z" transform="translate(0 -0.42)"/><path class="cls-1" d="M210.63,60.44c.37,1.62-.11,3.39.1,5s.5,3.32.82,5c.69,3.56,1.54,7.09,2.21,10.65s1.25,7.11,1.79,10.68.84,7.34,1.49,11c.23,1.29,2.34,1,2.28-.31A101.58,101.58,0,0,0,218,91.88q-.84-5.34-1.93-10.64c-.72-3.47-1.49-6.94-2.27-10.41-.36-1.62-.69-3.26-1-4.9s-1.24-3.87-1-5.64c.1-.78-1.35-.75-1.15.15Z" transform="translate(0 -0.42)"/><path class="cls-1" d="M186.36,67.16c-.37-.13-.75-.14-1.12-.27a6.76,6.76,0,0,0-1.09-.3,6,6,0,0,1-1-.23,3.29,3.29,0,0,1-.42-.21l-.18-.12-.05,0c-.43-.4-.78-.89-1.22-1.28a2.81,2.81,0,0,0-2-.89,1.06,1.06,0,0,0-1,.91,1,1,0,0,0,.76,1.16l.41.09s.24.09.1,0,.09,0,.1.06l.14.09c.22.13-.08-.09,0,0l.33.3a10.43,10.43,0,0,0,1.49,1.24,3.34,3.34,0,0,0,2.34.38,7,7,0,0,0,1.11-.3,1.73,1.73,0,0,1,.51-.12,2.88,2.88,0,0,1,.65.13c.41.12.57-.5.17-.64Z" transform="translate(0 -0.42)"/><path class="cls-1" d="M180.8,62.23a6.61,6.61,0,0,0-1,.63l.67.17,0-.05c-.71-1.53-2.79,1.13-.75,1.32s3.86-1.59,5.37-2.57c1.88-1.23,3.68-2.64,5.66-3.7a45.23,45.23,0,0,1,6.09-2.33l3.22-1.16c1-.35,2.26-.53,2.7-1.55a1,1,0,0,0-.34-1.31c-1-.53-1.83,0-2.83.33l-3.22,1.18c-2.06.77-4.19,1.45-6.18,2.4-3.91,1.88-6.92,5.39-10.91,7.08l1.28.52,0,0-.34.6a7.43,7.43,0,0,0,1.14-.23.7.7,0,1,0-.55-1.29Z" transform="translate(0 -0.42)"/><path class="cls-1" d="M202.59,52.44c0,.19-.1.25-.2.42a1.45,1.45,0,0,0-.16.51,3.07,3.07,0,0,0,0,1.35A4.8,4.8,0,0,0,203.37,57c.48.56,1.06,1,1.55,1.57a1.87,1.87,0,0,1,.57,1.59,1,1,0,0,0,2,.55c.52-1.86-.77-3.33-2-4.5a5.34,5.34,0,0,1-1.32-1.67c-.15-.36-.26-.73-.42-1.08a4.46,4.46,0,0,0-.22-.5c-.11-.2-.23-.24-.23-.47a.33.33,0,0,0-.66,0Z" transform="translate(0 -0.42)"/><path class="cls-1" d="M182.09,92.24a87.28,87.28,0,0,1,1.6,9.23,1,1,0,0,0,1,1,1,1,0,0,0,1-1,91.74,91.74,0,0,0-1.67-9.74c-.27-1.2-2.12-.69-1.85.51Z" transform="translate(0 -0.42)"/><path class="cls-1" d="M178,66.93c-.12,5.93,1,11.79,2.34,17.55.27,1.2,2.12.69,1.85-.51a69.7,69.7,0,0,1-2.27-17,1,1,0,0,0-1.92,0Z" transform="translate(0 -0.42)"/><path class="cls-1" d="M183.88,101.37a1.57,1.57,0,0,1,.51.23,4.54,4.54,0,0,1,.33.41,3.47,3.47,0,0,0,1,.65,15.44,15.44,0,0,1,1.9,1.18,11.4,11.4,0,0,1,1.52,1.37,7.11,7.11,0,0,0,1.88,1.71,1,1,0,0,0,1.24-1.61c-.3-.3-.62-.51-.93-.81l-.81-.85a13.5,13.5,0,0,0-1.92-1.62,10.37,10.37,0,0,0-2.14-1.12,2.62,2.62,0,0,0-1.17-.25c-.21,0-.39.11-.59.14a2.25,2.25,0,0,1-.63-.06.33.33,0,0,0-.18.63Z" transform="translate(0 -0.42)"/><ellipse class="cls-3" cx="12.44" cy="45.7" rx="8.95" ry="5.25" transform="translate(-16.05 7.45) rotate(-21.75)"/><path class="cls-3" d="M1.24,28.8s.54-3,4.5-1.69,4.51-1.68,4.51-1.68" transform="translate(0 -0.42)"/><path class="cls-4" d="M194,83.54A1.61,1.61,0,0,1,195.63,85a1.84,1.84,0,0,1-.32,1.56,1.93,1.93,0,0,1-1.18.68l-.93.18a.79.79,0,0,1-1.08-.65l-1.06-5.11a.76.76,0,0,1,.67-1l.83-.17a1.93,1.93,0,0,1,1.39.18,1.66,1.66,0,0,1,.81,1.16A1.49,1.49,0,0,1,194,83.54Zm-1.48-.18.53-.11a.89.89,0,0,0,.55-.29.94.94,0,0,0,.16-.83.89.89,0,0,0-.45-.67.83.83,0,0,0-.59-.07l-.41.08a.17.17,0,0,0-.14.22Zm.19.93.39,1.88a.18.18,0,0,0,.23.15l.46-.1c.63-.13.87-.53.73-1.2a1,1,0,0,0-1.25-.84Z" transform="translate(0 -0.42)"/><path class="cls-4" d="M198.74,81.06a1.67,1.67,0,0,1,1.56.43,3.19,3.19,0,0,1,.87,1.74,3.76,3.76,0,0,1,0,1.6,1.79,1.79,0,0,1-3,.87,3.38,3.38,0,0,1-.79-1.68,3.17,3.17,0,0,1,.15-2A1.69,1.69,0,0,1,198.74,81.06Zm.19.94a.69.69,0,0,0-.52.52,2.45,2.45,0,0,0,0,1.27,2.83,2.83,0,0,0,.43,1.1.73.73,0,0,0,.76.35.71.71,0,0,0,.54-.55,2.56,2.56,0,0,0,0-1.26,2.32,2.32,0,0,0-.53-1.19A.69.69,0,0,0,198.93,82Z" transform="translate(0 -0.42)"/><path class="cls-4" d="M204.4,79.89a1.67,1.67,0,0,1,1.56.44,3.15,3.15,0,0,1,.86,1.73,3.67,3.67,0,0,1,0,1.61,1.7,1.7,0,0,1-1.4,1.37,1.68,1.68,0,0,1-1.64-.51,3.3,3.3,0,0,1-.79-1.68,3,3,0,0,1,.15-2A1.66,1.66,0,0,1,204.4,79.89Zm.18.94a.68.68,0,0,0-.51.52,2.45,2.45,0,0,0,0,1.27,2.83,2.83,0,0,0,.43,1.1.73.73,0,0,0,.76.35.71.71,0,0,0,.54-.55,2.83,2.83,0,0,0,0-1.26,2.45,2.45,0,0,0-.53-1.19A.71.71,0,0,0,204.58,80.83Z" transform="translate(0 -0.42)"/><path class="cls-4" d="M210,82.26l.26,1.26a.44.44,0,0,1-.05.3.53.53,0,0,1-.39.24.5.5,0,0,1-.51-.13.34.34,0,0,1-.09-.2L208,77.6a.42.42,0,0,1,0-.31.53.53,0,0,1,.38-.23.48.48,0,0,1,.51.13.44.44,0,0,1,.1.19l.71,3.43,1.12-1.94a.65.65,0,0,1,.4-.32.51.51,0,0,1,.34,0,.52.52,0,0,1,.33.37.46.46,0,0,1-.08.36L211,80.74l1.79,1.86a.51.51,0,0,1,.15.28.5.5,0,0,1-.15.49.62.62,0,0,1-.3.16.57.57,0,0,1-.57-.18l-1.52-1.73Z" transform="translate(0 -0.42)"/><path class="cls-4" d="M7.55,47.71l.06,1.36a.42.42,0,0,1-.34.48.55.55,0,0,1-.36,0,.38.38,0,0,1-.19-.25.55.55,0,0,1,0-.18L6.55,44A.57.57,0,0,1,7,43.37a.58.58,0,0,1,.71.33l2.43,4.5a.38.38,0,0,1,.06.16.35.35,0,0,1-.16.42.66.66,0,0,1-.19.09.43.43,0,0,1-.53-.25l-.64-1.2ZM7.3,44.56l.18,2.31.82-.23Z" transform="translate(0 -0.42)"/><path class="cls-4" d="M12.37,45.6l.53,2a.34.34,0,0,1,0,.28.5.5,0,0,1-.31.23.45.45,0,0,1-.47-.1.39.39,0,0,1-.09-.17l-.91-3.38a.39.39,0,0,1,0-.3.45.45,0,0,1,.29-.21.4.4,0,0,1,.43.11.56.56,0,0,1,.09.17l.09.33a1.25,1.25,0,0,1,.84-1,.81.81,0,0,1,.64,0,.55.55,0,0,1,.25.33.5.5,0,0,1,0,.34.39.39,0,0,1-.29.28.38.38,0,0,1-.26,0,.48.48,0,0,0-.29,0,.71.71,0,0,0-.43.42A1.35,1.35,0,0,0,12.37,45.6Z" transform="translate(0 -0.42)"/><path class="cls-4" d="M16.39,42.73l-.23-.86a.39.39,0,0,1,0-.26.49.49,0,0,1,.33-.25.44.44,0,0,1,.46.1.39.39,0,0,1,.09.17l.23.86.61-.16a.36.36,0,0,1,.25,0,.42.42,0,0,1,.22.3.4.4,0,0,1-.08.4.32.32,0,0,1-.17.1l-.61.16.77,2.88a.36.36,0,0,1,0,.25.49.49,0,0,1-.33.25.44.44,0,0,1-.45-.09.37.37,0,0,1-.1-.17l-.77-2.88-.6.17a.36.36,0,0,1-.25,0,.42.42,0,0,1-.22-.29.44.44,0,0,1,.08-.41.35.35,0,0,1,.17-.09Z" transform="translate(0 -0.42)"/></g></g></g></svg>