<svg xmlns="http://www.w3.org/2000/svg" viewBox="0 0 427.02 516.26"><defs><style>.cls-1{font-size:50px;font-family:ComicSansMS, Comic Sans MS;}.cls-1,.cls-2{fill:#fff;}.cls-3,.cls-4,.cls-5{fill:none;stroke:#fff;stroke-miterlimit:10;}.cls-3{stroke-width:1.5px;}.cls-4{stroke-width:0.5px;}.cls-6{font-size:8.41px;letter-spacing:0.11em;}.cls-6,.cls-7{fill:#f9f9f9;font-family:UDDigiKyokashoN-B, UD Digi Kyokasho N-B;}.cls-7{font-size:7.07px;letter-spacing:0.11em;}</style></defs><g id="レイヤー_2" data-name="レイヤー 2"><g id="レイヤー_1-2" data-name="レイヤー 1"><g id="レイヤー_4" data-name="レイヤー 4"><text class="cls-1" transform="translate(47.83 176.37) rotate(-46.35)">p</text><text class="cls-1" transform="matrix(0.83, -0.56, 0.56, 0.83, 80.84, 144.82)">o</text><text class="cls-1" transform="translate(119.61 121.46) rotate(-21.62)">r</text><text class="cls-1" transform="translate(160.34 107.46) rotate(-9.77)">t</text><text class="cls-1" transform="translate(202.54 102.14) rotate(2.35)">f</text><text class="cls-1" transform="matrix(0.97, 0.25, -0.25, 0.97, 246.72, 105.97)">o</text><text class="cls-1" transform="translate(290.03 119.85) rotate(25.51)">l</text><text class="cls-1" transform="translate(319.2 135.49) rotate(34.78)">i</text><text class="cls-1" transform="translate(345.74 155.45) rotate(45.74)">o</text><circle class="cls-2" cx="215.61" cy="172.63" r="2.52"/><circle class="cls-2" cx="187.27" cy="172.69" r="2.52"/><path class="cls-2" d="M171.14,168.46a52.61,52.61,0,0,0,9.72-.46,46,46,0,0,0,9.7-2.79c5.18-2.11,10.45-5,12.93-10.3.37-.8-.83-1.49-1.19-.69-2.38,5.28-7.72,8.2-12.87,10.25A47.88,47.88,0,0,1,171.14,168a.22.22,0,0,0,0,.44Z"/><path class="cls-2" d="M234.52,169.16A48.06,48.06,0,0,1,216,166.25c-5.18-1.84-10.56-4.55-13.12-9.68-.39-.79-1.59-.1-1.18.69,2.65,5.12,7.93,7.84,13.14,9.75a46.33,46.33,0,0,0,9.77,2.46,50.68,50.68,0,0,0,9.93.12c.27,0,.28-.45,0-.43Z"/><path class="cls-2" d="M169.09,180.3c-3.94-6.61.11-14.22,5.09-18.93a35.68,35.68,0,0,1,19.2-8.9c8.32-1.25,16.85.16,24.8,2.7,6.89,2.2,14.67,5.05,19.38,10.84,4.09,5,4.91,14.24-1.53,17.84-.95.53-.09,2,.86,1.46,5.71-3.22,6.72-10.92,4.28-16.54-3.11-7.2-11-10.9-17.94-13.51-15.78-6-35.22-7.72-48.82,4.17a24.11,24.11,0,0,0-7.16,10.1c-1.25,3.68-1.38,8.08,1.52,11,.16.15.43,0,.32-.24Z"/><path class="cls-2" d="M243.9,172.53c1.76-2.63,1.27-5.39.21-8.22a33.12,33.12,0,0,0-5-8.92c-4.64-5.89-11.55-9.14-18.55-11.35-14.06-4.44-29.65-3.67-42.63,3.58a48,48,0,0,0-4.7,3c-.73.53-1.45,1.07-2.12,1.66s-1.2,1.32-1.83,2a56,56,0,0,0-7.07,8.67c-.19.28.26.54.44.26a34.09,34.09,0,0,1,6.12-7.27,61.53,61.53,0,0,1,7.59-5.62,48.13,48.13,0,0,1,17.24-6.76,54.56,54.56,0,0,1,21.82.6c6.7,1.52,14,4,19.24,8.59a29.91,29.91,0,0,1,6.81,8.75c1.38,2.61,4.28,7.88,1.73,10.55a.43.43,0,1,0,.68.52Z"/><path class="cls-2" d="M176.49,186.61c-1,3.78-3.75,6.48-5.84,9.64-1.67,2.54-2.81,5.66-1.73,8.67a5.28,5.28,0,0,0,6.31,3.58,4.62,4.62,0,0,0,3.18-2.55,1.86,1.86,0,0,0-1.74-2.66c-.86.08-.87,1.44,0,1.36,1.15-.11.27,1.22.13,1.4a3.58,3.58,0,0,1-.75.65,3.93,3.93,0,0,1-1.46.58,3.78,3.78,0,0,1-3.31-1c-1.67-1.61-1.79-4.27-1.11-6.36,1.58-4.83,6.6-8,7-13.25,0-.41-.6-.48-.7-.1Z"/><path class="cls-2" d="M173.51,183.23a11.59,11.59,0,0,1-3.43,3.65,10.55,10.55,0,0,1-5.08,2,12.22,12.22,0,0,0-7.48,3.64,6.87,6.87,0,0,0-1.53,6.69,5.18,5.18,0,0,0,4.85,3.89,3.46,3.46,0,0,0,3.15-1.93,2.59,2.59,0,0,0-1-3.3c-.57-.29-1.21.44-.71.92,1.38,1.32.18,3-1.49,3.08a3.6,3.6,0,0,1-3.09-1.69,5.71,5.71,0,0,1,.85-7.17c2.35-2.44,5.53-2.81,8.61-3.69a8.91,8.91,0,0,0,3.67-2,17.37,17.37,0,0,0,1.67-1.76,11.36,11.36,0,0,1,1.61-1.84c.46-.37-.38-1.06-.65-.5Z"/><path class="cls-2" d="M223,189.85c.47,2,2.52,2.87,4.17,3.73a12.2,12.2,0,0,1,5.25,5.2,10,10,0,0,1,.84,7.82,5,5,0,0,1-5.86,2.87,4,4,0,0,1-3.11-2.84,1.76,1.76,0,0,1,2.44-1.95.53.53,0,0,0,.51-.89,2.32,2.32,0,0,0-3.11.08,3.06,3.06,0,0,0-1,3.44c.91,2.83,4.24,4,7,3.41,6.93-1.48,5.21-10.76,1.73-14.74a11.82,11.82,0,0,0-4.24-3.07c-1.62-.7-3.63-1.28-4.18-3.17a.2.2,0,0,0-.38.11Z"/><path class="cls-2" d="M227,184.22c1.1,2.84,4.72,2.24,7.1,2.86a15.37,15.37,0,0,1,8.5,6.21c2.33,3.42,2.67,7.07,2.25,11.11a8.3,8.3,0,0,1-.78,3.41,2,2,0,0,1-3.28.55,5.69,5.69,0,0,1-1.77-2.81c-.19-1,.91-2.86,2.06-1.83.6.55,1.48-.31.9-.89a2.37,2.37,0,0,0-3.26,0,3.27,3.27,0,0,0-.64,4c.66,1.44,2.08,3.29,3.78,3.47a3.66,3.66,0,0,0,3.6-2.6,18.77,18.77,0,0,0,.79-6.75,14.55,14.55,0,0,0-1.06-5.21,16,16,0,0,0-6.41-7.71A16.18,16.18,0,0,0,233.3,186c-1.64-.31-4.88,0-5.45-2-.16-.57-1.09-.3-.88.24Z"/><path class="cls-2" d="M119.21,160.05a41.19,41.19,0,0,0,1.76,6.13c.66,2,1.4,4,2.12,6l4.2,11.84q4.23,12,8.28,24c.86,2.55,5,1.44,4.06-1.12q-4.24-12.1-8.61-24.16-2.19-6-4.45-12c-.75-2-1.48-4-2.32-6a40.86,40.86,0,0,0-2.64-5.74,1.32,1.32,0,0,0-2.4,1Z"/><path class="cls-2" d="M111.72,148.45a.88.88,0,0,0,.42.34l-.21-.16a11,11,0,0,1,.78,1.92,6.9,6.9,0,0,1,.23,1c0,.17,0,.35.07.51a1.55,1.55,0,0,0,.06.23.79.79,0,0,0,.1.37.46.46,0,0,0,.79,0,1.68,1.68,0,0,0,.09-.67,2.84,2.84,0,0,0-.1-.64,9.77,9.77,0,0,0-.29-1.06,8.16,8.16,0,0,0-.44-1.06,8.27,8.27,0,0,0-.66-1l0,.18a.91.91,0,0,0-.2-.52c-.32-.54-1.11,0-.69.53Z"/><path class="cls-2" d="M110,148.46a1.8,1.8,0,0,0,2.14-.51c.71-.73,1.07-1.7,2.13-2,1.31-.36,3.22.3,4-1.2l-1-.13a23,23,0,0,0,2.8,6c.46.71,1.61,0,1.13-.66a24.73,24.73,0,0,1-2.88-5.63c-.17-.44-1-.57-1.05,0s-.7.75-1.27.84a15.86,15.86,0,0,0-1.94.39,3,3,0,0,0-1.52,1.16c-.52.69-1.33,2-2.37,1.4-.22-.12-.42.22-.2.34Z"/><path class="cls-2" d="M110.87,148.46c-3.11-1.91-2.12-6-1.23-8.86a17.73,17.73,0,0,0,1-5.09,11.83,11.83,0,0,0-1.2-5.15l-1,.62a26.62,26.62,0,0,0,6,7.36c2.39,2.2,4.72,4.94,3.18,8.32-.25.54.46,1.25.9.7,2.1-2.64.25-6.32-1.72-8.41-1.23-1.3-2.66-2.4-3.87-3.71a22,22,0,0,1-3.4-4.88c-.36-.7-1.39-.09-1,.62a10.31,10.31,0,0,1,.9,6.21c-.33,1.94-1.14,3.77-1.54,5.69-.54,2.66-.15,6.13,2.63,7.37.53.24,1-.48.46-.79Z"/><path class="cls-2" d="M130.32,194.29c-.88-1.52-3.19-.67-3.76.69-.86,2.08,1,4.11,2.75,4.91a14.35,14.35,0,0,0,2,.71l1,.29a8.48,8.48,0,0,0,1.09.32.41.41,0,0,0,.32-.74,6.24,6.24,0,0,0-1.47-.51c-.51-.13-1-.26-1.52-.41a6.64,6.64,0,0,1-2.59-1.32,3.06,3.06,0,0,1-1.16-2.29,1.83,1.83,0,0,1,1.1-1.58,1.62,1.62,0,0,1,1.91.17.2.2,0,0,0,.31-.24Z"/><path class="cls-2" d="M137.52,196.4a.2.2,0,0,0,0-.4.2.2,0,0,0,0,.4Z"/><path class="cls-2" d="M138.17,196.81a8.2,8.2,0,0,1,2.11,1.34,3.9,3.9,0,0,1,1.28,1.87c.25,1.09-.56,2.67-1.82,2.4a.49.49,0,0,0-.26,1c1.36.57,2.61-.81,2.93-2a3.46,3.46,0,0,0-1.72-3.68,22.27,22.27,0,0,0-2.32-1.22c-.23-.11-.43.22-.2.34Z"/><path class="cls-2" d="M144.8,203.45l.69.21.35.11.34.13c.23.07.47.11.71.16a4.2,4.2,0,0,1,.7.17.39.39,0,0,0,.49-.33.39.39,0,0,0-.38-.44,3.05,3.05,0,0,1-.67-.13l-.69-.12c-.13,0-.26,0-.39,0l-.33,0c-.24,0-.48,0-.72-.08s-.35.32-.1.38Z"/><path class="cls-2" d="M144.51,204.29l.4,0a.2.2,0,0,0,.13-.06.18.18,0,0,0,.06-.13.18.18,0,0,0-.06-.14.2.2,0,0,0-.13-.06l-.4,0a.2.2,0,0,0-.14.06.17.17,0,0,0-.05.13.17.17,0,0,0,.05.14.25.25,0,0,0,.14.06Z"/><path class="cls-2" d="M144.77,204l-.06-.3a.88.88,0,0,1,0-.27l0,.13a.5.5,0,0,0,.07-.36l0-.21-.1.37c.28-.23.16-.55.09-.84,0,0,0-.08,0-.11s0,.08,0-.08v-.08l-.05-.26,0,.14v0a.57.57,0,0,0-.28-.48.58.58,0,0,0-.43-.06.57.57,0,0,0-.33.26.56.56,0,0,0,0,.56c-.07-.15,0,0,0,0l0,.11.07.17s0,0,0,0l0,.07c.09.29.15.62.5.68l-.22-.18.07.18a.41.41,0,0,0,.22.19l-.1-.09a2.18,2.18,0,0,1,.22.55.2.2,0,0,0,.38-.11Z"/><path class="cls-2" d="M141.29,204.27c1.09,2.47,2,5,3,7.53.47,1.2.95,2.4,1.39,3.61.22.61.42,1.22.64,1.83a3.67,3.67,0,0,0,.8,1.6.49.49,0,0,0,.83-.34,4,4,0,0,0-.55-1.85c-.26-.64-.55-1.27-.82-1.91-.48-1.15-1-2.3-1.46-3.44-1.07-2.45-2.32-4.81-3.45-7.23-.11-.23-.44,0-.34.2Z"/><path class="cls-2" d="M264.82,192.15a7.57,7.57,0,0,1,3.07,3.54,20,20,0,0,1,1.46,4.86q.67,3.36,1,6.78c.22,2.1.1,4.33.5,6.4.17.87,1.33.54,1.42-.19a18.64,18.64,0,0,0-.14-3.73c-.11-1.25-.24-2.49-.4-3.72-.31-2.36-.71-4.71-1.25-7a15.26,15.26,0,0,0-1.8-4.7,6.33,6.33,0,0,0-1.59-1.79,6,6,0,0,0-2.15-.82c-.22,0-.39.28-.16.39Z"/><path class="cls-2" d="M264,191.5a11.92,11.92,0,0,0-4.41,5.56c-.43,1-.69,2.07-1.07,3.1a6.11,6.11,0,0,1-.68,1.38c-.29.44-.71.75-1,1.17s.19.87.6.78c1-.23,1.6-1.33,2-2.18.44-1,.7-2.07,1.05-3.1a16.45,16.45,0,0,1,4.09-6,.45.45,0,0,0-.54-.71Z"/><path class="cls-3" d="M195.68,179.93s5.87,9.85,10.61.41"/><path class="cls-4" d="M203.05,175.07s-1.3-2.19-2.36-.09"/><path class="cls-2" d="M266.38,192.14c.39-.68.61-1.46.93-2.16a21,21,0,0,1,1.11-2.1,19.09,19.09,0,0,1,3-3.72,9.38,9.38,0,0,1,1.87-1.51c.34-.19.45-.19.6.17a2.62,2.62,0,0,1,.16,1,11.66,11.66,0,0,1-.8,4.71,11.86,11.86,0,0,1-3,4.36c-.7.64.34,1.67,1,1a13,13,0,0,0,4.16-10.29,2.81,2.81,0,0,0-1-2.21c-.86-.58-1.67,0-2.35.52a22,22,0,0,0-3.9,4.16,18.61,18.61,0,0,0-1.65,2.84,9,9,0,0,0-1,3,.44.44,0,0,0,.81.22Z"/><path class="cls-2" d="M179,179.54a10.92,10.92,0,0,0,5,8.27c3.45,2.37,7.74,3.06,11.78,3.68a37.42,37.42,0,0,0,12.49.21,29.8,29.8,0,0,0,11.21-4.55c3.19-2.15,6.89-5.44,6-9.71-.15-.72-1.25-.42-1.1.3,1,4.67-4.72,8.22-8.19,10A28.47,28.47,0,0,1,202.87,191a51,51,0,0,1-7.7-.79,40.8,40.8,0,0,1-6.57-1.47c-4.13-1.4-8.21-4.54-8.46-9.23,0-.73-1.18-.74-1.14,0Z"/><path class="cls-2" d="M199.39,150.51v-4.66a.65.65,0,0,1,.08-.37.64.64,0,0,1,.54-.18h2.91a1,1,0,0,1,.46.07c.26.15.3.5.32.8l.22,3.86a.92.92,0,0,1-.21.81.93.93,0,0,1-.72.1,24.53,24.53,0,0,0-3.32-.16"/><path class="cls-2" d="M207.41,150.88l.87-4.58a.73.73,0,0,1,.15-.35.67.67,0,0,1,.56-.07l2.87.55a.86.86,0,0,1,.42.16.92.92,0,0,1,.17.84l-.51,3.84c0,.29-.11.62-.36.75a1,1,0,0,1-.73,0,23.64,23.64,0,0,0-3.22-.79"/><path class="cls-2" d="M195.7,150.75l-1.09-4.53a.67.67,0,0,0-.16-.34.63.63,0,0,0-.57,0l-2.83.68a.8.8,0,0,0-.42.18c-.22.2-.18.55-.13.85l.69,3.8c.06.29.14.62.4.74a.91.91,0,0,0,.72-.07,25.35,25.35,0,0,1,3.19-.94"/><path class="cls-2" d="M214.89,152.41l1.13-4.52a.69.69,0,0,1,.17-.34.61.61,0,0,1,.56,0l2.83.71a.9.9,0,0,1,.42.19c.22.2.18.55.12.85l-.73,3.8c-.06.28-.14.61-.41.73a1,1,0,0,1-.72-.08,24.7,24.7,0,0,0-3.17-1"/><path class="cls-2" d="M187.51,152.85l-1.76-4.32a.56.56,0,0,0-.21-.31.59.59,0,0,0-.56,0l-2.7,1.09a.88.88,0,0,0-.39.25c-.19.23-.1.57,0,.86l1.25,3.66c.1.27.23.58.5.66a.93.93,0,0,0,.71-.17,22.22,22.22,0,0,1,3-1.4"/><path class="cls-2" d="M221.4,154.5l1.8-4.3a.63.63,0,0,1,.22-.31.62.62,0,0,1,.56.05l2.69,1.13a1,1,0,0,1,.39.24.93.93,0,0,1,0,.86l-1.3,3.65c-.1.27-.23.58-.51.66a.94.94,0,0,1-.7-.18,24.28,24.28,0,0,0-3-1.44"/><path class="cls-2" d="M180.27,155.36,178.16,152a.4.4,0,0,0-.23-.23.65.65,0,0,0-.52.14L175,153.33a1,1,0,0,0-.33.29.76.76,0,0,0,.09.75l1.57,2.93c.12.22.27.47.54.49a1.08,1.08,0,0,0,.63-.29,24.71,24.71,0,0,1,2.65-1.8"/><path class="cls-2" d="M228.06,157.66l2.09-4.16a.6.6,0,0,1,.24-.3.64.64,0,0,1,.56.09l2.6,1.31a.69.69,0,0,1,.3,1.13l-1.54,3.54c-.12.27-.27.57-.56.63a.93.93,0,0,1-.68-.23,25,25,0,0,0-2.89-1.64"/><path class="cls-2" d="M174.8,159.14l-2.88-3a.59.59,0,0,0-.28-.19c-.17,0-.31.08-.44.2l-1.78,1.71a.87.87,0,0,0-.23.31c-.07.25.12.5.3.71l2.25,2.61c.17.19.38.41.63.39a.77.77,0,0,0,.5-.35,19.77,19.77,0,0,1,1.93-2.06"/><path class="cls-2" d="M234.76,161.49l2.16-2.77a.5.5,0,0,1,.22-.19c.14,0,.28.06.4.15l1.73,1.35a.67.67,0,0,1,.24.26.72.72,0,0,1-.18.62l-1.67,2.39c-.12.18-.28.38-.5.39a.75.75,0,0,1-.47-.28,18.26,18.26,0,0,0-1.89-1.63"/><path class="cls-2" d="M162.15,162.92a3.92,3.92,0,0,0-.06,2.64,22.87,22.87,0,0,0,1,2.81,26.24,26.24,0,0,0,2.87,5.15c.42.59,1.41,0,1-.58a25.27,25.27,0,0,1-2.6-4.51,23.66,23.66,0,0,1-.93-2.42,3.84,3.84,0,0,1-.29-2.51c.29-.67-.7-1.25-1-.58Z"/><path class="cls-2" d="M215,179.14c0,.05,0,.1-.05.14a1.86,1.86,0,0,0,0,.34,2.45,2.45,0,0,0,0,.35,1.26,1.26,0,0,0,.1.33l.12-.91c0,.1-.09.2-.13.3l0,.32a1.34,1.34,0,0,0,.17.62.71.71,0,0,0,.1.14l.16.19.15.15.08.07.32.25a1.92,1.92,0,0,0,.33.14l0,0,.11,0,.33,0a.92.92,0,0,0,.46-.11.61.61,0,0,0,.27-.15,1,1,0,0,0,.31-.34l.12-.29.05-.32a1,1,0,0,0-.11-.47.9.9,0,0,0-.25-.39c-.13-.1-.25-.22-.39-.31l-.17-.12.25.2-.15-.14-.08-.07-.24-.19a.56.56,0,0,0-.16-.07,1,1,0,0,0-.47-.11,1.27,1.27,0,0,0-.34.05l.91.12-.13-.09.23.18-.19-.18a1.48,1.48,0,0,0-.3-.21l-.09-.06a.9.9,0,0,0-.46-.12.68.68,0,0,0-.34.08.79.79,0,0,0-.29.18,1,1,0,0,0-.23.4Z"/><path class="cls-2" d="M218.07,179.56a2.38,2.38,0,0,1,.17.31l-.13-.3a3,3,0,0,0,.19.46,1.19,1.19,0,0,1,.09.15.94.94,0,0,0,.34.37,1,1,0,0,0,.45.24,1.06,1.06,0,0,0,.53,0,1.12,1.12,0,0,0,.49-.15l.26-.21a1.23,1.23,0,0,0,.34-.58l0-.35a1.32,1.32,0,0,0-.18-.67.86.86,0,0,0-.1-.16l-.21-.27h0l-.27-.2h0l0,0-.08-.05-.37-.16-.08,0h-.09l-.39-.05a1.12,1.12,0,0,0-.56.15,1.1,1.1,0,0,0-.4.4,1.13,1.13,0,0,0-.15.57,1.09,1.09,0,0,0,.15.56Z"/><path class="cls-2" d="M182.76,182.32v.17a1.87,1.87,0,0,0,0,.34,2.34,2.34,0,0,0,0,.26,1.31,1.31,0,0,0,.38.65,1.69,1.69,0,0,0,.72.42,1,1,0,0,0,.54,0,.93.93,0,0,0,.5-.16,1,1,0,0,0,.38-.34,1.07,1.07,0,0,0,.24-.46l0-.36a1.32,1.32,0,0,0-.18-.67l-.21-.28a1.35,1.35,0,0,0-.59-.34h0l.32.14-.07,0,.27.21-.06-.07a1.84,1.84,0,0,0-.34-.25l.27.21a3.31,3.31,0,0,1-.26-.27l-.24-.18-.28-.12-.32-.05a.88.88,0,0,0-.45.11.46.46,0,0,0-.26.15.53.53,0,0,0-.21.21.61.61,0,0,0-.15.26.79.79,0,0,0-.1.45Z"/><path class="cls-2" d="M185.88,181a.36.36,0,0,1,0,.09l.12-.26,0,0a.84.84,0,0,0-.14.43.55.55,0,0,0,0,.18.34.34,0,0,1,0,.1,1.77,1.77,0,0,0,0,.56c0,.12.1.24.15.36l0,0,0,.11a.9.9,0,0,0,.25.37,1.42,1.42,0,0,0,.6.36h0a1,1,0,0,0,.51,0,1,1,0,0,0,.48-.16l.26-.2a1.51,1.51,0,0,0,.33-.56s0,0,0-.05l0-.35,0-.2a.93.93,0,0,0-.16-.5h0l0-.06-.11-.21-.2-.27,0,0,0,0-.09-.08-.08-.06a1.65,1.65,0,0,0-.27-.21l-.28-.12-.31,0,.3,0-.11,0a.68.68,0,0,0-.4,0,.66.66,0,0,0-.38.12l-.21.16a1,1,0,0,0-.26.45Z"/><path class="cls-2" d="M193.48,143.07a139,139,0,0,0,9.72-28.16h-1.55l8.86,27.2c.32,1,1.87.56,1.55-.43l-8.86-27.2a.81.81,0,0,0-1.55,0,137.2,137.2,0,0,1-9.56,27.78c-.43.93.95,1.75,1.39.81Z"/><path class="cls-2" d="M221.94,144.1a22.48,22.48,0,0,1,2.88-4.8,42.61,42.61,0,0,0,3.08-3.75c1.92-2.87,3.12-6.15,5.1-9l-1.5-.4q1.11,12,2.07,24.11c.08,1,1.69,1,1.61,0q-1-12.06-2.07-24.11a.81.81,0,0,0-1.5-.41c-2,2.84-3.18,6.13-5.1,9-1,1.46-2.26,2.67-3.34,4a24.61,24.61,0,0,0-2.62,4.49c-.46.93.93,1.75,1.39.82Z"/><path class="cls-2" d="M241.27,158a83,83,0,0,1,5.21-7.82l5.48-7.91-1.48-.62-6.57,23.57a.8.8,0,0,0,1.55.43L252,142.08a.81.81,0,0,0-1.47-.62l-5.48,7.9a84.43,84.43,0,0,0-5.21,7.83c-.49.91.9,1.72,1.39.81Z"/><path class="cls-2" d="M186.29,143.86c-6.4-5.6-14.37-9.17-20.33-15.3a.81.81,0,0,0-1.37.57c-.29,3.65,1.66,7.1,3,10.35l4.64,10.86c.41.95,1.79.13,1.39-.81l-4.32-10.12c-1.37-3.19-3.44-6.69-3.15-10.28l-1.37.57c6,6.14,13.92,9.7,20.32,15.29.78.68,1.92-.45,1.14-1.13Z"/><path class="cls-2" d="M166.72,155.68c-4.48-3.46-9-6.91-13.4-10.41a.81.81,0,0,0-1.14,1.14c3.95,4.83,4.9,11.33,8.48,16.39.6.84,2,0,1.39-.81-3.67-5.18-4.68-11.76-8.73-16.72l-1.14,1.14c4.55,3.58,9.14,7.12,13.72,10.66.82.63,1.63-.77.82-1.39Z"/><path class="cls-2" d="M278.89,207.18c7.45-2.62,15.4-2.78,23.15-4,.73-.11.42-1.22-.31-1.11-7.74,1.17-15.69,1.33-23.15,3.95-.69.24-.39,1.35.31,1.11Z"/><path class="cls-2" d="M273.68,187.22c.88,6,1.79,12,2.78,18,.12.73,1.23.42,1.11-.31-1-6-1.9-12-2.78-18-.1-.73-1.21-.42-1.11.3Z"/><path class="cls-2" d="M271.62,172.86q.64,4.57,1.31,9.15a.58.58,0,0,0,.71.4.6.6,0,0,0,.4-.71q-.66-4.57-1.31-9.15a.58.58,0,1,0-1.11.31Z"/><path class="cls-2" d="M293.51,164.93a4,4,0,0,0-2.42-.11c-.88.09-1.76.21-2.64.34a34.25,34.25,0,0,0-5.84,1.31,20.64,20.64,0,0,0-5.06,2.36c-1.61,1.06-3.08,2.38-5,2.71-1.05.18-.61,1.79.44,1.61a11.93,11.93,0,0,0,4.73-2.43,21.65,21.65,0,0,1,5.18-2.7,37.83,37.83,0,0,1,5.44-1.42c1-.19,2-.34,3-.51a4,4,0,0,0,2.31-.71.29.29,0,0,0-.06-.45Z"/><path class="cls-2" d="M294.11,165.1c.29,1.56.11,3.21.33,4.79s.53,3,.86,4.46c.7,3.06,1.49,6.1,2.15,9.17,1.33,6.22,2.17,12.51,3.3,18.77a.74.74,0,0,0,1.44-.2,142.8,142.8,0,0,0-3.26-18.47c-.68-3-1.42-6-2.15-8.94-.38-1.54-.72-3.09-1.06-4.65a20.36,20.36,0,0,1-.93-5c0-.48-.79-.43-.68.1Z"/><path class="cls-2" d="M272.63,171.68a8.8,8.8,0,0,0-1-.19,7.67,7.67,0,0,0-1-.15,2.68,2.68,0,0,1-1.58-.51c-.8-.69-1.55-1.88-2.76-1.79a.67.67,0,0,0,0,1.34,1.27,1.27,0,0,1,.48.17,2.48,2.48,0,0,1,.51.41,6,6,0,0,0,1.29,1,3.06,3.06,0,0,0,1.86.27c.33-.05.64-.13,1-.21a2,2,0,0,1,1.09,0,.2.2,0,0,0,.11-.38Z"/><path class="cls-2" d="M267.75,167.51c-.17.09-.69.48-.9.4-.68-.24-1,1-.14,1,1.67.11,3.28-1.48,4.55-2.36,1.62-1.14,3.19-2.42,4.91-3.4a39.82,39.82,0,0,1,5.4-2.23l2.82-1.1a4.42,4.42,0,0,0,2.24-1.23.61.61,0,0,0-.36-.88,4.47,4.47,0,0,0-2.49.63L281,159.48a55,55,0,0,0-5.14,2.13c-3.35,1.76-5.93,4.81-9.38,6.36l.71.71c.11-.23.72-.32.92-.4a.42.42,0,1,0-.33-.77Z"/><path class="cls-2" d="M286.77,158.24c0,.34-.17.65-.2,1a3,3,0,0,0,.11,1.07,4,4,0,0,0,1,1.81c.7.74,2.25,1.68,1.95,2.9a.65.65,0,0,0,1.26.35c.39-1.51-.67-2.69-1.71-3.62a5.3,5.3,0,0,1-1.28-1.47,6.37,6.37,0,0,1-.38-.94c-.06-.16-.11-.33-.17-.49a1.42,1.42,0,0,1-.2-.6.2.2,0,0,0-.4,0Z"/><path class="cls-2" d="M269.65,193.73a76.44,76.44,0,0,1,1.61,8.19.6.6,0,0,0,.58.58c.28,0,.62-.27.57-.58a81.56,81.56,0,0,0-1.65-8.49.58.58,0,0,0-1.11.3Z"/><path class="cls-2" d="M265.48,171.53a63.71,63.71,0,0,0,2.41,15.38.58.58,0,0,0,1.11-.3,62.8,62.8,0,0,1-2.37-15.08.58.58,0,0,0-1.15,0Z"/><path class="cls-2" d="M271.18,201.76a2.52,2.52,0,0,1,.9.48,4.76,4.76,0,0,0,.82.48,16.69,16.69,0,0,1,1.73,1,10.78,10.78,0,0,1,1.45,1.24,6.66,6.66,0,0,0,1.6,1.4.65.65,0,0,0,.84-.17.64.64,0,0,0,0-.86c-.26-.22-.54-.42-.8-.65s-.51-.52-.77-.78a12.64,12.64,0,0,0-1.66-1.34,8.79,8.79,0,0,0-1.83-.94,3.13,3.13,0,0,0-1.05-.22c-.16,0-.32,0-.48,0a4.11,4.11,0,0,1-.6-.08.2.2,0,0,0-.1.38Z"/><ellipse class="cls-5" cx="118.58" cy="156.2" rx="7.91" ry="4.63" transform="translate(-51.75 59.01) rotate(-23.09)"/><path class="cls-5" d="M108.34,141.5s.42-2.67,4-1.58,3.94-1.58,3.94-1.58"/><text class="cls-6" transform="translate(277.87 189.69) rotate(-13)">Book</text><text class="cls-7" transform="translate(113.5 159.87) rotate(-16.33)">Art</text></g></g></g></svg>