<svg xmlns="http://www.w3.org/2000/svg" viewBox="0 0 1148 821"><defs><style>.cls-1{fill:#56a5ed;}.cls-14,.cls-2,.cls-20,.cls-23,.cls-27,.cls-29,.cls-7{fill:none;}.cls-17,.cls-2,.cls-24,.cls-27,.cls-9{stroke:#000;}.cls-14,.cls-17,.cls-2,.cls-20,.cls-21,.cls-23,.cls-24,.cls-27,.cls-29,.cls-7,.cls-9{stroke-miterlimit:10;}.cls-3{fill:#77776d;}.cls-4{fill:#f9f9f9;}.cls-5{fill:#406639;}.cls-6{fill:#dddbdb;}.cls-7{stroke:#dddbdb;stroke-width:7px;}.cls-8{fill:#adadad;}.cls-9{stroke-width:5px;}.cls-10,.cls-25{fill:#f49a9a;}.cls-10{opacity:0.69;}.cls-11{fill:#f2d7c2;}.cls-12{fill:#f90613;}.cls-13{fill:#b0deed;}.cls-14{stroke:#7ca8d8;stroke-width:6px;}.cls-15,.cls-26{fill:#020202;}.cls-16{fill:#506493;}.cls-18{fill:#5973e2;}.cls-19,.cls-21{fill:#dbd007;}.cls-20,.cls-21{stroke:#515050;}.cls-22{fill:#fff;}.cls-23{stroke:#adbfe2;stroke-width:3px;}.cls-24{fill:#fcfafa;}.cls-24,.cls-29{stroke-width:2px;}.cls-26{opacity:0.4;}.cls-27{stroke-width:4px;}.cls-28{fill:#fcfcfc;}.cls-29{stroke:#fff;}.cls-30{fill:#515050;}</style></defs><g id="レイヤー_2" data-name="レイヤー 2"><g id="レイヤー_2-2" data-name="レイヤー 2"><rect class="cls-1" x="0.5" y="0.5" width="1147" height="820" rx="72.89"/><rect class="cls-2" x="0.5" y="0.5" width="1147" height="820" rx="72.89"/><path class="cls-3" d="M836.17,487.84S852.35,454.4,848,453.32s10.79-3.24,10.79-3.24V489.5Z"/><polygon class="cls-3" points="816 489 774 489 774 502 803 511 816 489"/><path class="cls-4" d="M205.6,657.59c1.35-4.63-.08-9.38-3.26-11.59-4.32-3-11.93-1.35-15.32,5.11h0L169.68,627l45-4.72-.36-29.9s-81.66,2.17-86.12,13.48,8.61,31.5,34.61,53.41c-4.6,10.14-5.26,20.49-.42,25.06,7,6.59,23-.61,31.54-8.14A40.6,40.6,0,0,0,205.6,657.59Z"/><path class="cls-5" d="M861,470s110-57,87,74a89.27,89.27,0,0,0-9.5,4.55L872,527l-19-33Z"/><path class="cls-6" d="M230.5,752.5a12.37,12.37,0,0,1-12-11l-34.92-367.1a9.84,9.84,0,0,1,10-10.95h424a9.69,9.69,0,0,1,9.82,10.94L587.68,741.56A12.56,12.56,0,0,1,575.5,752.5Z"/><path class="cls-7" d="M230.5,752.5a12.37,12.37,0,0,1-12-11l-34.92-367.1a9.84,9.84,0,0,1,10-10.95h424a9.69,9.69,0,0,1,9.82,10.94L587.68,741.56A12.56,12.56,0,0,1,575.5,752.5Z"/><polygon points="455.12 402.1 505 395 456.88 409.9 455.12 402.1"/><path class="cls-8" d="M195,535.21a9.12,9.12,0,0,0-9.2,10l3,37a11.07,11.07,0,0,0,10.8,10l409,.65a11.67,11.67,0,0,0,11.27-9.9l4.88-38.24a8.59,8.59,0,0,0-8.73-9.91Z"/><polygon points="331.94 409.46 296.81 395.61 297.19 394.39 334.06 402.54 331.94 409.46"/><circle class="cls-9" cx="847.5" cy="593.5" r="3.5"/><circle class="cls-10" cx="495.5" cy="479.5" r="20"/><circle class="cls-11" cx="791" cy="609" r="14.5"/><circle class="cls-10" cx="310.5" cy="480.5" r="20"/><circle class="cls-11" cx="914.5" cy="601.5" r="14.5"/><path class="cls-12" d="M205,547c0-6.6,3.15-12,7-12s7,5.4,7,12v33.5c0,6.6-3.15,12-7,12s-7-5.4-7-12Z"/><path class="cls-12" d="M590,547c0-6.6,3.15-12,7-12s7,5.4,7,12v33.5c0,6.6-3.15,12-7,12s-7-5.4-7-12Z"/><path class="cls-13" d="M449.36,612.21a5.23,5.23,0,0,0-5.18,5l-2.64,73a4.8,4.8,0,0,0,4.82,5h108a5.81,5.81,0,0,0,5.6-5l8.8-73.07a4.33,4.33,0,0,0-4.4-5Z"/><path class="cls-14" d="M449.36,612.21a5.23,5.23,0,0,0-5.18,5l-2.64,73a4.8,4.8,0,0,0,4.82,5h108a5.81,5.81,0,0,0,5.6-5l8.8-73.07a4.33,4.33,0,0,0-4.4-5Z"/><path class="cls-13" d="M247.76,614a4.54,4.54,0,0,0-4.59,5l10.18,124a5.54,5.54,0,0,0,5.41,5h114a5,5,0,0,0,5-5V619a5,5,0,0,0-5-5Z"/><path class="cls-14" d="M247.76,614a4.54,4.54,0,0,0-4.59,5l10.18,124a5.54,5.54,0,0,0,5.41,5h114a5,5,0,0,0,5-5V619a5,5,0,0,0-5-5Z"/><path class="cls-15" d="M358.54,499.47a185.67,185.67,0,0,1,22.73-4.39,198.22,198.22,0,0,1,23.13-1.78c3.88-.05,7.78,0,11.67.24a102.65,102.65,0,0,1,11.67,1.32,69.34,69.34,0,0,1,11.5,2.95,34.75,34.75,0,0,1,10.57,5.85l-2,2.65a37.61,37.61,0,0,0-10-4.13,78.89,78.89,0,0,0-10.89-2c-3.69-.45-7.43-.72-11.17-.84s-7.52-.18-11.29-.09-7.55.18-11.32.42-7.56.45-11.35.74c-7.56.6-15.16,1.32-22.71,2.1Z"/><path class="cls-15" d="M348.49,372.66a80,80,0,0,1,7.91,6.49c2.47,2.25,4.81,4.57,7.09,6.9a119.93,119.93,0,0,0,14,13,36.82,36.82,0,0,0,3.65,2.44,16.74,16.74,0,0,0,3.45,1.59,4.87,4.87,0,0,0,2.28.25,2.23,2.23,0,0,0,1.31-.93,10,10,0,0,0,1.53-3,25.87,25.87,0,0,0,1.11-4.11A85.55,85.55,0,0,0,392,386l.59-6.75,5.07,3.11h0c3.54,1.88,7.34,3.68,11.11,5.28a100.68,100.68,0,0,0,11.58,4.16,47.66,47.66,0,0,0,5.91,1.29,20.37,20.37,0,0,0,5.82.13,6,6,0,0,0,4.45-2.53,8.75,8.75,0,0,0,.88-5.58l1.18-.22a10.43,10.43,0,0,1-.25,6.76,7,7,0,0,1-2.36,2.84,10.78,10.78,0,0,1-3.25,1.55,23.66,23.66,0,0,1-6.74.79,51.06,51.06,0,0,1-6.57-.53,105.7,105.7,0,0,1-12.7-2.7c-4.18-1.15-8.22-2.42-12.38-4h0L400,386a55.29,55.29,0,0,1-.11,10.67,34.18,34.18,0,0,1-1.08,5.65,18.84,18.84,0,0,1-2.82,6,13,13,0,0,1-1.26,1.48,11.47,11.47,0,0,1-1.56,1.35,11.14,11.14,0,0,1-3.93,1.83,13.93,13.93,0,0,1-7.59-.35A24.41,24.41,0,0,1,376,410a40.6,40.6,0,0,1-4.58-3.24,73.7,73.7,0,0,1-7.74-7.29c-2.36-2.55-4.6-5.16-6.69-7.88a64.89,64.89,0,0,1-5.55-8.62,45.47,45.47,0,0,1-4-9.63Z"/><path class="cls-16" d="M304.44,336.71c-28.09-8.34-58.35-21.52-61.16-42-5-36.36,77.38-92,158.22-92.24,86.21-.31,170.66,62.27,164,96-3.86,19.58-38.12,27.86-76,37C415.07,353.47,349.41,346.35,304.44,336.71Z"/><path class="cls-11" d="M745.89,573.63a5.47,5.47,0,0,0-6.64-3.08l-42.5,13.9a5.08,5.08,0,0,0-3.25,6.32l8,25.46a5.59,5.59,0,0,0,6.38,3.7l31.24-6.86a5.18,5.18,0,0,1,6.09,3.78l1.58,6.3a4.85,4.85,0,0,0,6,3.51l8.36-2.32a4.36,4.36,0,0,0,2.93-6Z"/><path class="cls-11" d="M943,545.26a5.24,5.24,0,0,0-5.43,4.72l-4.12,46a4.51,4.51,0,0,0,4.56,5h9a5,5,0,0,0,5-5v-7a4.73,4.73,0,0,1,5-4.76l31,1.52a5.2,5.2,0,0,0,5.38-4.74l2.22-28a4.86,4.86,0,0,0-4.6-5.24Z"/><polygon class="cls-3" points="744 569 759.24 606.39 813 545 810 531 744 569"/><polygon class="cls-3" points="880 528 938 545 933 584 880 545 880 528"/><path class="cls-3" d="M880,545s21-56-49-62c-40-4-37,61.46-18,70.23S880,545,880,545Z"/><path class="cls-3" d="M819,643c-5.52,5.08-12.62,13.23-11,21,2.9,13.9,32.14,19.23,53,17,23.65-2.53,50.1-16.24,49.21-28.38-.45-6-7.5-10.45-13.37-13.26Z"/><path class="cls-4" d="M800,681s-51,8-39,22S800,681,800,681Z"/><path class="cls-4" d="M818.6,685.45S776,714.59,792.83,722.07,818.6,685.45,818.6,685.45Z"/><ellipse class="cls-3" cx="768.5" cy="497.5" rx="6.5" ry="16.5"/><path class="cls-3" d="M868.29,444.83s-22,17-36-2c-2-2,21-4.69,21-4.69l-1,6.69S860.29,436.83,868.29,444.83Z"/><circle class="cls-17" cx="328" cy="446" r="20"/><circle class="cls-17" cx="480" cy="446" r="20"/><path class="cls-18" d="M308.5,344.5l-12-23s96-108,209-3l-18,26S399.5,313.5,308.5,344.5Z"/><path class="cls-19" d="M398.9,280.08a2.94,2.94,0,0,0-3.24,0L375.19,295a3,3,0,0,0-1,3.08L382,322.1a2.94,2.94,0,0,0,2.61,1.9h25.31a3,3,0,0,0,2.62-1.9L420.37,298a3,3,0,0,0-1-3.08Z"/><path class="cls-20" d="M398.9,280.08a2.94,2.94,0,0,0-3.24,0L375.19,295a3,3,0,0,0-1,3.08L382,322.1a2.94,2.94,0,0,0,2.61,1.9h25.31a3,3,0,0,0,2.62-1.9L420.37,298a3,3,0,0,0-1-3.08Z"/><circle class="cls-21" cx="397" cy="304" r="6"/><line class="cls-21" x1="397.5" y1="279.5" x2="397.5" y2="298"/><line class="cls-21" x1="420.88" y1="296.46" x2="402.5" y2="301.79"/><line class="cls-21" x1="400.79" y1="308.5" x2="411.5" y2="323.5"/><line class="cls-21" x1="393.5" y1="309.5" x2="382.5" y2="323.5"/><line class="cls-21" x1="391.5" y1="301.83" x2="374.5" y2="296.17"/><line class="cls-14" x1="245.36" y1="645.58" x2="377.76" y2="645.58"/><path class="cls-22" d="M277,637c-6.6,0-12-3.15-12-7s5.4-7,12-7h69c6.6,0,12,3.15,12,7s-5.4,7-12,7Z"/><path class="cls-23" d="M277,637c-6.6,0-12-3.15-12-7s5.4-7,12-7h69c6.6,0,12,3.15,12,7s-5.4,7-12,7Z"/><path class="cls-22" d="M469.86,638.71c-6.6,0-12-3.15-12-7s5.4-7,12-7h69c6.6,0,12,3.15,12,7s-5.4,7-12,7Z"/><path class="cls-23" d="M469.86,638.71c-6.6,0-12-3.15-12-7s5.4-7,12-7h69c6.6,0,12,3.15,12,7s-5.4,7-12,7Z"/><ellipse class="cls-11" cx="853" cy="594" rx="61" ry="54"/><ellipse class="cls-11" cx="848" cy="566" rx="29" ry="22"/><path d="M878.51,566a19.25,19.25,0,0,1-3.38,10.13,24.84,24.84,0,0,1-7.61,7.09,33,33,0,0,1-9.44,3.95A41.82,41.82,0,0,1,848,588.51a38.78,38.78,0,0,1-10.11-1.24,33.26,33.26,0,0,1-9.44-4,25.48,25.48,0,0,1-7.57-7.14A19.26,19.26,0,0,1,817.49,566a19.66,19.66,0,0,1,2.83-10.48,25.8,25.8,0,0,1,7.42-7.86A36.57,36.57,0,0,1,848,541.5,38,38,0,0,1,858.59,543a33.73,33.73,0,0,1,9.7,4.64,26.19,26.19,0,0,1,7.38,7.91A19.7,19.7,0,0,1,878.51,566Zm-3,0a16.28,16.28,0,0,0-2.9-8.52,21.83,21.83,0,0,0-6.74-6.19,30.13,30.13,0,0,0-8.57-3.56A39.12,39.12,0,0,0,848,546.5a35.89,35.89,0,0,0-9.3,1.13,30.65,30.65,0,0,0-8.58,3.61,22.46,22.46,0,0,0-6.7,6.24,16.29,16.29,0,0,0-2.91,8.52,16.55,16.55,0,0,0,2.36,8.87,22.59,22.59,0,0,0,6.54,7,30.8,30.8,0,0,0,8.83,4.2,37.79,37.79,0,0,0,9.76,1.46,35.18,35.18,0,0,0,9.79-1.37,30.54,30.54,0,0,0,8.83-4.25,23,23,0,0,0,6.5-7A16.42,16.42,0,0,0,875.49,566Z"/><polygon points="831.72 606.57 824.28 606.85 816.83 607.12 820.31 600.53 823.79 593.94 827.76 600.25 831.72 606.57"/><polygon points="878.72 606.57 871.28 606.85 863.83 607.12 867.31 600.53 870.79 593.94 874.76 600.25 878.72 606.57"/><rect class="cls-24" x="831.5" y="558.5" width="32" height="21" rx="8.89"/><circle class="cls-25" cx="881" cy="585" r="8.5"/><circle class="cls-25" cx="816" cy="586" r="8.5"/><circle class="cls-17" cx="848" cy="597" r="2"/><ellipse class="cls-26" cx="855.25" cy="627.25" rx="38.25" ry="11.75"/><path class="cls-15" d="M828.5,636.5c-10.82-4.42-12.86-7.59-12.72-9.67.4-5.82,18.63-12.74,31-6.66,7.76,3.81,12.85,12.55,12.41,13l-.69.32h0Z"/><path class="cls-22" d="M882.24,488.58a9.57,9.57,0,0,1-5.72-6.59,13.45,13.45,0,0,1-.51-4.56,12.16,12.16,0,0,1,1.24-4.53,9.61,9.61,0,0,1,3.16-3.67,10.15,10.15,0,0,1,4.59-1.68,15,15,0,0,1,4.73.24,15.3,15.3,0,0,1,4.45,1.61,8.8,8.8,0,0,1,4.69,8.48,10.82,10.82,0,0,1-1.23,4.75,8.43,8.43,0,0,1-3.53,3.67,6.73,6.73,0,0,1-2.55.74,8.08,8.08,0,0,1-2.51-.18,6.65,6.65,0,0,1-4.27-2.71,4.34,4.34,0,0,1-.67-2.6,5,5,0,0,1,.8-2.36,6.59,6.59,0,0,1,3.58-2.72l0,.06a7.49,7.49,0,0,0-2.45,3.23,4.15,4.15,0,0,0-.23,1.78,2.71,2.71,0,0,0,.63,1.42,5.74,5.74,0,0,0,6.35.91,5.52,5.52,0,0,0,2.2-2.56,8.88,8.88,0,0,0,.84-3.52,6.22,6.22,0,0,0-3.18-5.81,13.67,13.67,0,0,0-3.58-1.38,12.38,12.38,0,0,0-3.81-.35,7.41,7.41,0,0,0-6,3.75,11.35,11.35,0,0,0-1.25,7.63,9.31,9.31,0,0,0,4.37,6.6Z"/><path class="cls-22" d="M927,464.17a6.41,6.41,0,0,1,3.81,4.48,8.48,8.48,0,0,1-.68,6.18,6.76,6.76,0,0,1-2.29,2.47,7,7,0,0,1-3.24,1.07,10.63,10.63,0,0,1-3.25-.28,10.4,10.4,0,0,1-3-1.23,6.24,6.24,0,0,1-3.07-6.15,7.6,7.6,0,0,1,1-3.28,6,6,0,0,1,2.65-2.48,4.82,4.82,0,0,1,1.86-.44,5.67,5.67,0,0,1,1.76.22,4.69,4.69,0,0,1,2.92,2.13,3.18,3.18,0,0,1,.36,1.92,3.55,3.55,0,0,1-.69,1.62,4.2,4.2,0,0,1-2.61,1.57l0-.05a5,5,0,0,0,1.51-2.15,2.3,2.3,0,0,0,.1-1,1.38,1.38,0,0,0-.38-.74,3.5,3.5,0,0,0-3.61-.55,4.45,4.45,0,0,0-1.84,3.5,3.55,3.55,0,0,0,1.66,3.41,8.49,8.49,0,0,0,2.15,1,7.6,7.6,0,0,0,2.32.35,4.43,4.43,0,0,0,3.72-2,7.15,7.15,0,0,0,1.1-4.69,6,6,0,0,0-2.42-4.44Z"/><path class="cls-22" d="M920.85,484.36a8.86,8.86,0,0,1,3.64,7.23,11.67,11.67,0,0,1-2.79,8,9,9,0,0,1-3.72,2.57,9.34,9.34,0,0,1-4.53.44,13.9,13.9,0,0,1-4.21-1.33,14.37,14.37,0,0,1-3.63-2.5,8.78,8.78,0,0,1-2.43-4.06,9,9,0,0,1,.19-4.72,10.18,10.18,0,0,1,2.25-4,7.83,7.83,0,0,1,4.07-2.48,6.34,6.34,0,0,1,2.49-.06,7.68,7.68,0,0,1,2.22.76,6.21,6.21,0,0,1,3.22,3.48,4,4,0,0,1,0,2.53,4.7,4.7,0,0,1-1.29,1.93,6,6,0,0,1-3.87,1.56v-.06a6.93,6.93,0,0,0,2.91-2.35,3.77,3.77,0,0,0,.6-1.51,2.41,2.41,0,0,0-.25-1.37,5.24,5.24,0,0,0-5.35-2.23,5.16,5.16,0,0,0-2.51,1.74,8.2,8.2,0,0,0-1.54,2.92,5.59,5.59,0,0,0,1.45,5.8,11.91,11.91,0,0,0,2.84,2.06,11.35,11.35,0,0,0,3.29,1.2A6.73,6.73,0,0,0,920,498a10.41,10.41,0,0,0,2.9-6.46,8.51,8.51,0,0,0-2.3-6.91Z"/><path class="cls-22" d="M901.74,525.23a7.65,7.65,0,0,0,2-6.22,9.32,9.32,0,0,0-2.62-5.76,6,6,0,0,0-5.46-1.66,10,10,0,0,0-2.93,1.08,11.25,11.25,0,0,0-2.53,1.83,4.93,4.93,0,0,0-1.26,5.1,7.11,7.11,0,0,0,1.36,2.58,4.47,4.47,0,0,0,2.18,1.54,4.66,4.66,0,0,0,4.72-1.92,2.11,2.11,0,0,0,.23-1.18,3.31,3.31,0,0,0-.51-1.35,6.24,6.24,0,0,0-2.58-2.16l0-.05a5.38,5.38,0,0,1,3.53,1.36,4.4,4.4,0,0,1,1.21,1.77,3.81,3.81,0,0,1,0,2.34,5.72,5.72,0,0,1-2.95,3.22,7,7,0,0,1-2,.7,5.76,5.76,0,0,1-2.3-.05,7.2,7.2,0,0,1-3.75-2.28,9.31,9.31,0,0,1-2.06-3.66,7.58,7.58,0,0,1,2.06-8.08,13.52,13.52,0,0,1,7.16-3.48,8.53,8.53,0,0,1,4.15.41,8.19,8.19,0,0,1,3.4,2.36,10.57,10.57,0,0,1,2.52,7.31,8.06,8.06,0,0,1-3.35,6.55Z"/><path class="cls-22" d="M926.47,512.8a9.55,9.55,0,0,1,8.69-.86,13.75,13.75,0,0,1,4,2.23,12.26,12.26,0,0,1,3,3.63,9.71,9.71,0,0,1,1.16,4.7,10.16,10.16,0,0,1-1.28,4.72,16,16,0,0,1-6.83,6.41,9.3,9.3,0,0,1-5,.9,9.5,9.5,0,0,1-4.65-2,10.9,10.9,0,0,1-3.16-3.75,8.43,8.43,0,0,1-.95-5,6.55,6.55,0,0,1,.88-2.5,8.38,8.38,0,0,1,1.59-1.95,6.67,6.67,0,0,1,4.68-1.91,4.38,4.38,0,0,1,2.52,1,5.18,5.18,0,0,1,1.46,2,6.59,6.59,0,0,1,.14,4.48h-.06a7.52,7.52,0,0,0-1.22-3.88,4.31,4.31,0,0,0-1.31-1.22,2.77,2.77,0,0,0-1.53-.3,5.75,5.75,0,0,0-4.42,4.65,5.64,5.64,0,0,0,.82,3.28,8.89,8.89,0,0,0,2.39,2.72,6.21,6.21,0,0,0,6.57.77,13.88,13.88,0,0,0,3.2-2.12,12.45,12.45,0,0,0,2.49-2.91,7.38,7.38,0,0,0,.41-7.06,11.34,11.34,0,0,0-5.49-5.44,9.31,9.31,0,0,0-7.91-.25Z"/><ellipse class="cls-3" cx="857" cy="638.25" rx="41" ry="11.25" transform="translate(-30.66 43.39) rotate(-2.85)"/><line class="cls-14" x1="505.36" y1="612.21" x2="500.36" y2="695.21"/><line class="cls-14" x1="309.76" y1="610.98" x2="314.26" y2="747.98"/><line class="cls-27" x1="309.76" y1="585.5" x2="309.76" y2="593.49"/><rect class="cls-12" x="302.26" y="593.49" width="15.01" height="15.01" rx="7.5"/><path class="cls-22" d="M306.8,595.06s-4.23,2.26-3,6,3.86-.26,1.74-2.25c0,0,.37-2,1.75-1S311.17,595,306.8,595.06Z"/><path d="M300,550.37l-8.24,29.44h-3.26l-6.72-24.46-6.66,24.46h-3.16l-8.34-29.44h3.73L273.76,574l6.39-23.62h3.42L290,574.2l6.45-23.83Z"/><path d="M328,579.81H308.88V550.37H328v3.17H312.51v8.57h15.14v3.17H312.51v11.36H328Z"/><path d="M337.07,579.81V550.37h8.67c1.33,0,2.46,0,3.39.08A12.48,12.48,0,0,1,352,551a7.05,7.05,0,0,1,2.53,1.3,5.47,5.47,0,0,1,1.56,2,6.62,6.62,0,0,1,.51,2.67c0,2.61-1.32,4.61-4,6v.16a8,8,0,0,1,4.67,2.62,7.48,7.48,0,0,1,1.68,5,8.07,8.07,0,0,1-3,6.64q-3,2.43-8.6,2.43Zm3.63-26.35v8.94H346q3.8,0,5.33-1.23a4.59,4.59,0,0,0,1.52-3.79,3.62,3.62,0,0,0-1.21-2.85q-1.22-1.06-6.09-1.07Zm0,11.95v11.31H346q5.61,0,7.42-1.55a5.25,5.25,0,0,0,1.8-4.19,6.08,6.08,0,0,0-.66-2.94,4.59,4.59,0,0,0-2.08-1.92q-1.43-.71-5.5-.71Z"/><path d="M388.17,568.69v11.12h-3.63V550.37h8.12q5.68,0,8.41,2.4a8.11,8.11,0,0,1,2.72,6.43,8.76,8.76,0,0,1-3,6.85q-3,2.64-8.33,2.64Zm0-15.23v12.17h3.63c3,0,5.1-.58,6.34-1.73a6,6,0,0,0,1.87-4.6,5.3,5.3,0,0,0-1.82-4.36c-1.21-1-3.15-1.48-5.8-1.48Z"/><path d="M423.47,580.41q-6.27,0-9.85-4t-3.57-11.26q0-7.19,3.58-11.26t9.84-4.07q6.27,0,9.85,4.07t3.58,11.26q0,7.17-3.58,11.24T423.47,580.41Zm0-27.54a8.54,8.54,0,0,0-7.11,3.21c-1.7,2.13-2.54,5.14-2.54,9s.84,6.88,2.54,9a9.48,9.48,0,0,0,14.2,0q2.54-3.2,2.53-9t-2.53-9A8.56,8.56,0,0,0,423.49,552.87Z"/><path d="M464.15,579.81H445.81V550.37h3.64v26.27h14.7Z"/><path d="M481.68,579.81H470.33v-2.72h3.87v-24h-3.87v-2.72h11.35v2.72h-3.85v24h3.85Z"/><path d="M503.46,580.33q-6.6,0-10.35-4t-3.74-11.23q0-7.11,3.8-11.19t10.31-4.08a21,21,0,0,1,9.72,2.63v4.28h-.27a14.86,14.86,0,0,0-9.69-3.85,9.12,9.12,0,0,0-7.36,3.23q-2.72,3.24-2.72,9t2.77,8.92a9.21,9.21,0,0,0,7.35,3.21,14.36,14.36,0,0,0,4.73-.79,16.07,16.07,0,0,0,4.92-3.1h.27v4.3a29.64,29.64,0,0,1-5.83,2.22A18.49,18.49,0,0,1,503.46,580.33Z"/><path d="M540.71,579.81H521.55V550.37h19.16v3.17H525.18v8.57h15.14v3.17H525.18v11.36h15.53Z"/><path class="cls-28" d="M267.57,56.93l-17.52,62.55h-6.93l-14.28-52-14.15,52H208L190.24,56.93h7.93l13.74,50.18,13.57-50.18h7.26l13.58,50.63L260,56.93Z"/><path class="cls-28" d="M307.08,120.56q-11.7,0-18.15-6.33t-6.46-17.91q0-11.5,6.19-18.29t16.39-6.78q9.3,0,14.42,5.56t5.13,15.85v4H289.94q0,8.46,4.59,13t12.68,4.55q8.06,0,16.1-5.61h.34v7.93Q313.65,120.56,307.08,120.56ZM289.94,91.17h27.52q-.33-14-12.82-14a14.14,14.14,0,0,0-10.21,3.74Q290.53,84.66,289.94,91.17Z"/><path class="cls-28" d="M349.72,117l-.63,2.49h-6.72V54.15h7.31V77.72q8-6.47,15.56-6.47a15.68,15.68,0,0,1,13.18,6.51q4.92,6.52,4.91,17.85t-5.93,18.18a18.54,18.54,0,0,1-14.69,7A24.44,24.44,0,0,1,349.72,117Zm0-33.33v27.81a28.52,28.52,0,0,0,11.53,2.78q6.9,0,10.73-4.82t3.84-13.61q0-17.68-12.66-17.68Q356.4,78.14,349.68,83.66Z"/><path class="cls-28" d="M446.1,95.86v23.62h-7.72V56.93h17.27q12.08,0,17.87,5.08t5.79,13.68A18.56,18.56,0,0,1,473,90.24q-6.33,5.63-17.7,5.62Zm0-32.37V89.34h7.72q9.51,0,13.47-3.67a12.7,12.7,0,0,0,4-9.77q0-6.11-3.85-9.26t-12.33-3.15Z"/><path class="cls-28" d="M514,120.76q-10,0-15.81-6.62t-5.81-18.07q0-11.46,5.85-18.14T514,71.25q9.91,0,15.77,6.64t5.85,18.18q0,11.54-5.83,18.11T514,120.76Zm0-43.29q-6.77,0-10.42,4.78T499.9,96.07q0,8.93,3.65,13.69T514,114.54q6.76,0,10.42-4.78T528,96.07Q528,77.47,514,77.47Z"/><path class="cls-28" d="M561,119.48h-7.3V54.15H561Z"/><path class="cls-28" d="M590.48,63.2h-8.26V55.6h8.26ZM590,119.48h-7.31V72.58H590Z"/><path class="cls-28" d="M645.68,116.61q-8.41,3.94-14.69,4-10.83,0-16.83-6.35t-6-18.1q0-11.49,6.18-18.1T631,71.41a32.86,32.86,0,0,1,14.65,3.86v8.14h-.33q-7.76-5.68-14.48-5.69-7.18,0-11.17,4.78t-4,13.61q0,8.83,4,13.49t11.19,4.65q6.93,0,14.48-5.61h.33Z"/><path class="cls-28" d="M683.25,120.56q-11.7,0-18.16-6.33t-6.45-17.91q0-11.5,6.18-18.29t16.4-6.78q9.3,0,14.42,5.56t5.13,15.85v4H666.11q0,8.46,4.59,13t12.68,4.55q8,0,16.1-5.61h.33v7.93Q689.81,120.56,683.25,120.56ZM666.11,91.17h27.52q-.33-14-12.83-14a14.16,14.16,0,0,0-10.21,3.74Q666.69,84.66,666.11,91.17Z"/><path class="cls-28" d="M682.07,231.83h-2.58v-7.74a19.87,19.87,0,0,1-4.51,5.29L673,227.06a22.78,22.78,0,0,0,6.06-6.45h-5.41v-2.45h5.8v-2.83h-6.57v-2.45h9l1.42-4.65h-9.54v-2.44h5.67v-3.61h2.45c.69.08.73.34.13.77v2.84h5.67v2.44h-1.67l-1.81,4.65h4.13v2.45h-6.32v2.83h5.67v2.45h-5.67v1.16a20.11,20.11,0,0,1,5,2.71l-1.55,2.58a19.77,19.77,0,0,0-3.48-2.84Zm-6.58-22.69,2.45-.78a13.8,13.8,0,0,1,1.55,3.48l-2.58.78A17.43,17.43,0,0,0,675.49,209.14Zm9,20.24q5.28-2.83,5.28-9.67V204.88l2.71.52,7-2.19,1.94,2.58c.17.51-.13.6-.91.25l-8.12,1.55v5.54h10.19v2.45H698.7V231.7h-2.58V215.58h-3.74v4.9a12.29,12.29,0,0,1-6.44,11.35Z"/><path class="cls-28" d="M719,230.28q-4.63,0-6.83-2.19-1.68-1.68-1.68-6.45V204.37h2.71c.77.17.86.51.26,1v16.24c0,2.15.39,3.61,1.16,4.38a5.74,5.74,0,0,0,4.25,1.42q5,0,10.19-5.67l1.93,2.45Q725.41,230.28,719,230.28Z"/><path class="cls-28" d="M747.11,226.93c-1.2,1.46-2.41,2.19-3.61,2.19q-3.22,0-4.77-3.74-.9-2.19-.9-9.41,0-5.16.51-10.44l2.71.64c1,.26,1.08.69.13,1.29a82.15,82.15,0,0,0-.52,8.64,29.84,29.84,0,0,0,.65,7.48c.43,1.46,1.07,2.19,1.93,2.19s1.76-.69,2.45-2.07a27.6,27.6,0,0,0,1.29-3.09l2.58,1.81A16.52,16.52,0,0,1,747.11,226.93Zm17.14-4.9-3.48.9q-1.54-9-6.31-14.05l2.71-1.55A26.37,26.37,0,0,1,764.25,222Z"/><path class="cls-28" d="M790.33,222.29l-2.45-1.68a86.75,86.75,0,0,0,5.29-7.22l-10.7,1.94v9.53a1.59,1.59,0,0,0,1.8,1.81h11.86l-.39,2.84H783.5q-4,0-4-4.13v-9.54l-7.73,1.55-1-3,8.76-1.54v-8.51h2.71c.77.17.86.51.26,1v7.09l11.6-1.93,1-.65,2.32,2.32c.34.43.17.69-.52.77C794.33,216.79,792.13,219.88,790.33,222.29Z"/><path class="cls-28" d="M832.26,218.81l-12,1.28,2.45,10.45-2.83.64-2.45-10.7L804.29,222l-.39-2.71,12.89-1.42-1.29-6.06-8.76,1-.52-2.71,8.51-.9-1.29-5.93,2.71-.52c.77-.08.9.22.38.9l1,5.16,9.41-1.29.51,2.71-9.15,1.16,1.29,6.06,12.12-1.42Z"/><path class="cls-28" d="M861.69,227.83H838.48v-2.45h13.93l.25-9.67H842.09v-2.45h13.15L855,225.38h6.71Z"/><path class="cls-28" d="M873.2,220.35h-3V205.79h2.84c.85.08.9.43.13,1Zm13.27-2.83q0,9.66-9,13.92l-2.58-2.19q8.5-3.87,8.64-11.86V204.5h2.71c.85.17.94.51.25,1Z"/><path class="cls-28" d="M907.78,216H894.89v-2.84h26.42V216H910.74v1.68a17.32,17.32,0,0,1-5.8,13.4l-2.58-1.93a13.83,13.83,0,0,0,5.42-11.47Zm-8.25-7.86v-2.84h17.14v2.84Z"/><path class="cls-28" d="M939.53,231.44H937v-12a54.1,54.1,0,0,1-8.51,5l-1.81-2.19q12.25-5.94,16.76-13l2.19,1.67q.78.65-.51.9a41.92,41.92,0,0,1-5.54,5.55Z"/><path class="cls-28" d="M796.69,87.63a5.89,5.89,0,0,1-3.05,5q-3.39,2.22-5.51,3.86a20.33,20.33,0,0,0-3.28,3.4h12.43v2.58H781.57v-2.46A11.9,11.9,0,0,1,784,96.77a60.37,60.37,0,0,1,7.5-5.86c1.49-1,2.23-2.07,2.23-3.17a2.7,2.7,0,0,0-.82-2,4.22,4.22,0,0,0-3.05-.94,4.69,4.69,0,0,0-3.4,1.06,5.64,5.64,0,0,0-1.4,3.87h-3.17A8.1,8.1,0,0,1,784,84.35a7.76,7.76,0,0,1,5.75-2.11,7.3,7.3,0,0,1,5.39,1.87A4.86,4.86,0,0,1,796.69,87.63Z"/><path class="cls-28" d="M814.3,97.59H804V95.36l9.26-12.89H817V95.36h3.75v2.23H817v4.92h-2.7Zm0-2.23V85.28h-.23L806.8,95.36Z"/><path class="cls-28" d="M846.67,103.1a.41.41,0,0,0,.47-.47V95.71H837.3V93.49h9.84v-3H836v11.13h-2v-.94h-4v2.11h-2V81.18h8v7h7.15v-3.4h-5V82.59h5v-4h2.23c.62.08.66.32.11.71v3.28h6v2.22h-6v3.4h8.21v2.23h-4.22v3H853v2.22h-3.51v7.74a1.66,1.66,0,0,1-1.88,1.87h-2.46l-.47-2.22ZM830,89.38h4v-6h-4Zm0,9h4v-6.8h-4Zm9.73-.47,2-1.41a30.05,30.05,0,0,1,2.46,3.4l-2.11,1.52A21.92,21.92,0,0,0,839.76,97.94Z"/><path class="cls-28" d="M871.2,89h-8.32v16.29h-2.34V79.66H871.2Zm-2.34-5.62V81.53h-6v1.88Zm0,1.87h-6v1.88h6ZM878.35,91v11.49H876v-.94h-6.21v1.88h-2.34V91ZM876,92.9h-6.21v2.58H876Zm0,4.45h-6.21V99.7H876Zm6.68,5.16V89h-8.43V79.66H885v23.67a1.66,1.66,0,0,1-1.88,1.87h-2.34l-.24-2.22h1.64A.41.41,0,0,0,882.68,102.51Zm0-19.1V81.53h-6.09v1.88Zm0,1.87h-6.09v1.88h6.09Z"/><path class="cls-28" d="M895.72,95.6A5.16,5.16,0,0,0,897,99.11a5.56,5.56,0,0,0,4.1,1.41,4.78,4.78,0,0,0,3.52-1.17,3.41,3.41,0,0,0,1-2.47,4,4,0,0,0-1-2.93q-1.05-1-5.16-.82V90.56q3.87-.12,4.93-1.18a2.9,2.9,0,0,0,.93-2.11,2.82,2.82,0,0,0-.93-2,4.62,4.62,0,0,0-3.29-.93,5.06,5.06,0,0,0-3.75,1.4,4.4,4.4,0,0,0-1.05,2.58h-3.16A7.5,7.5,0,0,1,895.37,84a7.8,7.8,0,0,1,5.74-2c2.43,0,4.18.55,5.28,1.64a5,5,0,0,1,1.52,3.63,4.5,4.5,0,0,1-1.41,3.29,5.5,5.5,0,0,1-1.87,1.17,4.62,4.62,0,0,1,2.23,1.17,5.28,5.28,0,0,1,1.52,3.87,5.78,5.78,0,0,1-1.76,4.22,7.46,7.46,0,0,1-5.51,1.87q-4.22,0-6.21-2a8.39,8.39,0,0,1-2.22-5.27Z"/><path class="cls-28" d="M927.51,85.28a4,4,0,0,0-2.93-1,5.24,5.24,0,0,0-3.86,1.52q-2,2-1.88,6a7.91,7.91,0,0,1,6.09-2.7,6.81,6.81,0,0,1,5,1.88,7,7,0,0,1,1.88,5.15,6.36,6.36,0,0,1-1.88,4.69,7.59,7.59,0,0,1-5.62,2,8.11,8.11,0,0,1-6-2.22q-2.46-2.46-2.46-8c0-3.67.9-6.41,2.7-8.2a7.88,7.88,0,0,1,5.86-2.23q3.51,0,5.15,1.64a9.38,9.38,0,0,1,1.88,2.93h-3A4.35,4.35,0,0,0,927.51,85.28Zm-6.91,7.5a4.63,4.63,0,0,0-1.41,3.4,4.13,4.13,0,0,0,1.17,3,5.43,5.43,0,0,0,4,1.52,5,5,0,0,0,3.63-1.4,4.47,4.47,0,0,0,1.17-3.29,4.64,4.64,0,0,0-1.4-3.39,4.77,4.77,0,0,0-3.52-1.29A5,5,0,0,0,920.6,92.78Z"/><path class="cls-28" d="M939.5,93.13l1-10.66H954v2.58H943l-.7,6a7.47,7.47,0,0,1,5.51-2.1,7.13,7.13,0,0,1,5.27,2A6.36,6.36,0,0,1,955,95.6a6.8,6.8,0,0,1-2,5,8.2,8.2,0,0,1-6.09,2.23,7.27,7.27,0,0,1-5.39-2A9.61,9.61,0,0,1,939,96.42h3.05a6.14,6.14,0,0,0,1.52,2.81,4.49,4.49,0,0,0,3.28,1A5.26,5.26,0,0,0,950.75,99a4.6,4.6,0,0,0,1.4-3.39A4.29,4.29,0,0,0,951,92.43a4.74,4.74,0,0,0-3.51-1.29,5.7,5.7,0,0,0-4.81,2Z"/><path class="cls-28" d="M968.47,103.92h-2.69V81.3h18.4v22.15h-2.7v-1.64h-13Zm13-13.72V83.52h-13V90.2Zm0,9.38V92.43h-13v7.15Z"/><path class="cls-28" d="M999.91,85.75c.63.24.63.51,0,.82v19h-2.34V90.91a10.52,10.52,0,0,1-2.11,3l-1.64-2.1a32.57,32.57,0,0,0,5.51-13.36l2.58.93c.38.32.27.51-.36.59A31.85,31.85,0,0,1,999.91,85.75Zm9.14.94h-7.38V84.46h8V78.6h2.23c.62.08.66.32.11.71v5.15h8.44v2.23h-7.73q1.88,5.63,8.43,11.72l-1.64,2.34a37.55,37.55,0,0,1-7.5-10.19v6.79h3.4v2.23H1012v5.74h-2.34V99.58h-3V97.35h3V90.56a28.82,28.82,0,0,1-7.27,10.07l-1.75-2.22A33.4,33.4,0,0,0,1009.05,86.69Z"/><path class="cls-28" d="M1031.47,82.94h2.69v-4.1h2.23c.62.08.66.31.12.7v3.4h5.27v2.23h-5.27v3h7.26v2.23h-7.26v2.23H1042v8.67a1.45,1.45,0,0,1-1.64,1.64h-1.76l-.47-2.23h1a.41.41,0,0,0,.47-.47V94.89h-3.16v10.43h-2.35V94.89h-2.81V103H1029V92.67h5.15V90.44h-7.38V88.21h7.38v-3h-3.63a27.45,27.45,0,0,1-1.52,2.46l-1.88-1.29a32.28,32.28,0,0,0,3.4-6.45l2.11.71c.31.31.19.5-.35.58Zm13.36,16.29V81.77h2.22c.63.08.67.31.12.7V99.23Zm4.57,3.75a.42.42,0,0,0,.47-.47V79.66h2.22c.63.08.67.31.12.7v23.2a1.45,1.45,0,0,1-1.64,1.64h-2.69l-.59-2.22Z"/><ellipse class="cls-4" cx="122.5" cy="218.5" rx="69" ry="64"/><path class="cls-4" d="M168.5,179.5c-1,4,37,1,36-14,0,0-7,29-22,32S168.5,179.5,168.5,179.5Z"/><path d="M68.44,204.82H96.6v29.26H93.87v-1.23H71.17v1.78H68.44Zm25.43,2.6H71.17v22.83h22.7Zm-3.56,11.76H83.75v5.33h8.34v2.6H72.81v-2.6H81v-5.33H74.86v-2.6H81v-4H73.63V210H91.4v2.6H83.75v4h6.56Zm-3.69.27A27.74,27.74,0,0,1,90,222.6l-1.78,1.77A19.2,19.2,0,0,0,85,221.09Z"/><path d="M120.56,218.5a17.66,17.66,0,0,1-7.65,9.43L111,225.19a14.69,14.69,0,0,0,7.66-13.53h-8.48v22H107V209.06h11.76v-4.78h3c.91.18,1,.54.14,1.09v3.69h12.3v21.6c0,1.83-.86,2.74-2.59,2.74h-3.28l-.55-3h2.73a.48.48,0,0,0,.55-.55V211.66h-9.3a20.36,20.36,0,0,1-.41,4.1,51.13,51.13,0,0,1,9.16,7.66l-2,3A107.21,107.21,0,0,0,120.56,218.5Z"/><path d="M155.46,221a29,29,0,0,1,2.74,2.18l-1.92,2.6a54.92,54.92,0,0,0-4.64-4.65v13.68H148.9V221.09a49,49,0,0,1-4.51,4L143,222.19a39.67,39.67,0,0,0,9.71-10.26h-8.61v-2.59h4.78v-6.43h2.6c.73.09.77.36.14.82v5.61h2.59l.82-.82,1.78,1.77c.36.64.18,1-.55,1a31.45,31.45,0,0,1-4.78,7.11l2.05,1.23a26.33,26.33,0,0,0,2.73-3.15l2.46,1.92c.09.46-.13.59-.68.41C157.24,219.5,156.37,220.23,155.46,221Zm14.77-11.21h-5.47v8.06q0,10.8-9.43,16.27l-1.78-2.6q8.47-4.23,8.48-13.26v-8.47h-4.24v-2.6H173V224.1q0,10-4.92,10h-4l-.41-2.6h3.69q2.87,0,2.87-7.38Z"/><path class="cls-28" d="M686.65,296.29q0,7.86-10.57,9.15l-.65-2.71c5.76-.51,8.64-2.71,8.64-6.57v-3.74h2.45c.86.17.9.51.13,1Zm-7.87-1.68h-3v-5.93H703v5.93h-3v-3.48H678.78ZM702.89,279v2.45h-12v2.71h9.54v2.45h-22v-2.45h9.54v-2.71H676V279h12v-3.09h2.83c.86.17.9.51.13,1V279ZM695,302.47h5q1.17,0,1.29-3.09l2.58.9c-.17,3.1-1.12,4.64-2.84,4.64H694a2.06,2.06,0,0,1-2.33-2.32V292.42h2.45c.86.17.91.51.13,1v8.12Q694.25,302.47,695,302.47Z"/><path class="cls-28" d="M729.09,285.72q-2.19,0-8.51,6.31v12.89H718V294.35l-5.68,7.09-2.06-2.06,5.16-6.06a37.68,37.68,0,0,0,2.58-3.74v-3.09l-5.68,1.93-.77-2.7L718,284v-7.61h2.32c.77.18.86.52.25,1v5.8L722,284c.78.34.69.73-.25,1.16l-1.17,2.45v.9q6.06-5.67,9.16-5.67,3.87,0,3.48,5.16l-.65,9.92c-.08,1.38.43,2.06,1.55,2.06a3.07,3.07,0,0,0,2.45-.9,12.52,12.52,0,0,0,1.93-3.35l2.2,1.81a15.88,15.88,0,0,1-2.45,3.61,5.35,5.35,0,0,1-3.87,1.67c-3.18,0-4.69-1.63-4.51-4.9l.64-9.79C730.6,286.53,730.13,285.72,729.09,285.72Z"/><path class="cls-28" d="M772.7,282.62a22.26,22.26,0,0,0-7.09.9,14.52,14.52,0,0,0-5.28,3.48,8.54,8.54,0,0,0-2.45,6.32,6.81,6.81,0,0,0,1.93,5q2.58,2.58,9.93,2.84l-1,2.83q-7.61-.39-10.57-3.35a9.85,9.85,0,0,1-3-7.22,11.17,11.17,0,0,1,4.77-9.54q-6.06.9-12.38,1.81l-.77-3q12.63-.9,25.39-3.09Z"/><path class="cls-28" d="M799.16,300.54a5.57,5.57,0,0,0,1.55-4.12A6.11,6.11,0,0,0,799,291.9c-1.11-1.11-2.88-1.67-5.28-1.67a11.16,11.16,0,0,0-6.58,1.67,35.88,35.88,0,0,0-5.67,5.55l-2.19-1.94A168.67,168.67,0,0,0,793.36,280q-4.25.52-8.51.91l-.9-3a87,87,0,0,0,11.22-.64l1.16-.52,1.41,1.42c1,.86.73,1.42-.64,1.67q-3.87,4.39-7.74,8.64a20.16,20.16,0,0,1,4.52-.64q4.89,0,7.22,2.32a8,8,0,0,1,2.32,5.93,7.84,7.84,0,0,1-2.07,5.8,10.65,10.65,0,0,1-7.86,3.09q-4.51,0-6.57-2.06a5.46,5.46,0,0,1-1.68-4,3.7,3.7,0,0,1,1.16-2.7,4.08,4.08,0,0,1,3-1.29,5.25,5.25,0,0,1,3.87,1.54,10.31,10.31,0,0,1,2.45,5.68A5.85,5.85,0,0,0,799.16,300.54Zm-7.6-2.45a2.63,2.63,0,0,0-1.81-.9,2.13,2.13,0,0,0-1.55.51,2,2,0,0,0-.64,1.42,3,3,0,0,0,1,2.19,4.54,4.54,0,0,0,3.35,1.29h1.16C792.85,300.37,792.33,298.86,791.56,298.09Z"/><path class="cls-28" d="M825.88,287.78h-2.45q-.12,5.54-7.22,7l-.77-2.45c3.44-.77,5.2-2.28,5.28-4.51h-5.54V305.7H812.6V285.33h7L818,282H810.8v-2.45h12.89v-3.35h2.84c.68.08.72.34.13.77v2.58h12.76V282h-6.58l-2.32,3.35H838v18.3c0,1.21-.56,1.81-1.68,1.81H833l-.51-2.45h2.45a.45.45,0,0,0,.51-.52V287.78h-7v1.93c0,.69.3,1,.9,1h2.32c.35,0,.6-.51.78-1.54l2.45.77c-.18,2.15-.87,3.22-2.07,3.22h-4.77a1.94,1.94,0,0,1-2.19-2.19Zm-7,7h12.63V302H821.11v1.16h-2.19ZM829.49,282H821l1.68,3.35h4.64Zm-8.38,14.82v3.1h8.25v-3.1Z"/><path class="cls-28" d="M857,303.25H850.8v2.32h-2.58V291.9h11.34v13.28H857Zm-6.18-8.9v6.45H857v-6.45Zm15.85-5.67H855.31v.9h-2.58v-12h16.5v11.74h-2.58Zm-11.34-2.45h11.34V280H855.31Zm16.37,17h-6.19v2.32h-2.58V291.9h11.35v13.28h-2.58Zm-6.19-8.9v6.45h6.19v-6.45Z"/><path class="cls-28" d="M898.27,302.22a4.12,4.12,0,0,1-3,1.29q-2.46,0-4.9-2.84l1.67-2.32c1.38,1.37,2.41,2.06,3.1,2.06a1.62,1.62,0,0,0,1.16-.51q1.41-1.42,1.41-7.87c0-2.4-.25-3.86-.77-4.38a2.23,2.23,0,0,0-1.55-.39,28.16,28.16,0,0,0-3.22.26,79,79,0,0,1-6.44,16.37l-3-1a61.27,61.27,0,0,0,6.58-15.08c-1.9.26-3.74.47-5.55.64l-.26-2.83q2.32,0,6.45-.39c.77-2.66,1.42-5.37,1.93-8.12l2.71.9c1,.43,1,.82-.13,1.16q-.76,2.72-1.55,5.8a19.93,19.93,0,0,1,3.23-.26,3.71,3.71,0,0,1,2.71.91q1.55,1.55,1.54,7C900.46,297.53,899.73,300.76,898.27,302.22Zm6.06-20a28.34,28.34,0,0,1,7.22,13l-2.84,1.17Q906.4,288,902,283.91Zm4.25,1.55a49.84,49.84,0,0,0-5-3.74l1.54-1.54a35.52,35.52,0,0,1,5.16,3.61Zm-.9-8.25a35.52,35.52,0,0,1,5.16,3.61l-1.55,1.55a59.05,59.05,0,0,0-5.16-3.61Z"/><path class="cls-28" d="M934.14,285.33h8.64v2.45h-8.64v1.93h9.54v2.45h-9.54v2.06h13.28v2.45h-12.5q2.82,3.87,12.5,5.93l-.9,3q-10.18-2.46-13.28-7.74-3.09,6.59-13.54,8.12l-1-2.7q9.68-1.42,12.12-6.58H918.54v-2.45h13v-2.06h-9.15v-2.45h9.15v-1.93h-8.5v-2.45h8.5v-2.58H934c.69.09.73.35.13.77Zm-14.82-6.06h12.24v-3h2.84c.86.17.9.51.13,1v1.93h12.12v7h-2.58v-4.51H921.9v4.51h-2.58Z"/><path class="cls-28" d="M956.61,303.63a58.8,58.8,0,0,1-.52-8.38,73,73,0,0,1,1.55-16.75l2.83.51c.61.26.56.56-.12.9q-1.43,4.51-1.42,15.34a38.53,38.53,0,0,0,.64,7.87Zm19.46-17.27a94.22,94.22,0,0,1,0,9.8,31.68,31.68,0,0,1,7.48,4L982,302.6a34.09,34.09,0,0,0-5.93-3.61,5.06,5.06,0,0,1-1.41,3.74,7.35,7.35,0,0,1-9,0,4.52,4.52,0,0,1-1.29-3.35,3.84,3.84,0,0,1,1-2.84A6.32,6.32,0,0,1,970,295a15.39,15.39,0,0,1,3.36.38,77.54,77.54,0,0,0,0-8.89l-9.54.64v-2.7l9.28-.52q-.14-3.6-.52-6.44h2.71c.94.17,1,.51.26,1,.08,1.8.17,3.56.26,5.28l7-.38v2.7Zm-6.06,11a3.56,3.56,0,0,0-2.57.77,1.83,1.83,0,0,0-.65,1.29,2.09,2.09,0,0,0,.52,1.55,3.67,3.67,0,0,0,2.7.9,3.23,3.23,0,0,0,2.58-.9,4,4,0,0,0,.78-3A13,13,0,0,0,970,297.32Z"/><path class="cls-28" d="M1008,284.3h10.31v2.45H997.12v6.44q0,8.13-5.29,12.12L989.9,303q4.65-2.83,4.64-10.18v-6.06a15,15,0,0,1-3.74,2.45l-1-2.58a16.57,16.57,0,0,0,8.77-10.31l2.84.38q.51.39-.39.9l-.52.91h9.41l.52-.52,1.93,1.42c.34.43.17.69-.51.77Zm-11,0h8l2.84-3.35h-8.38A28.17,28.17,0,0,1,997,284.3Zm7,18.17h10.44a1.65,1.65,0,0,0,1.81-1.54l.26-1.94,3,.65-.51,2.71a2.88,2.88,0,0,1-3.1,2.57h-12.63c-1.8,0-2.71-.94-2.71-2.83V289.33h13v7.73a1.82,1.82,0,0,1-2.06,2.06h-3.09l-.26-2.45h2.32a.45.45,0,0,0,.51-.51v-4.39h-7.86v9.54C1003.05,302.09,1003.35,302.47,1004,302.47Z"/><path class="cls-28" d="M1026.16,285.46l-.39-2.71c2.15,0,4.3-.08,6.45-.26.43-1.54.94-3.61,1.55-6.18l2.32.77c.85.34.85.69,0,1l-1.16,4.12a29.73,29.73,0,0,0,4.51-.9l.64,2.71a38.56,38.56,0,0,1-5.93.9,89.62,89.62,0,0,1-6.06,14.31l-2.57-1.29a70.08,70.08,0,0,0,5.8-12.76A43.24,43.24,0,0,1,1026.16,285.46Zm18.95,2.83c.94.18,1,.52.26,1v7.47a43.8,43.8,0,0,1,6.7,2.84l-1.55,2.45a26.71,26.71,0,0,0-5.15-2.45,6.87,6.87,0,0,1-1.68,4,5.71,5.71,0,0,1-4.25,1.55c-2.41,0-4.08-.47-5-1.42a4.52,4.52,0,0,1-1.29-3.35,4.08,4.08,0,0,1,1.29-3,6.63,6.63,0,0,1,4.9-1.68,12.45,12.45,0,0,1,3.48.39v-7.87Zm-5.8,9.8a4,4,0,0,0-2.84.77,2.13,2.13,0,0,0-.64,1.55,1.93,1.93,0,0,0,.51,1.42,3.77,3.77,0,0,0,2.71.77,3.55,3.55,0,0,0,2.58-.77,4.37,4.37,0,0,0,1.16-3.22A10.78,10.78,0,0,0,1039.31,298.09Zm4.38-16.76q3.61,1.17,8.64,3.1l-1.16,2.7a81.73,81.73,0,0,0-8.51-3.22Z"/><path class="cls-28" d="M1068.74,300.93c-1.21,1.46-2.41,2.19-3.61,2.19q-3.23,0-4.77-3.74-.91-2.19-.91-9.41c0-3.44.18-6.92.52-10.44l2.71.64c1,.26,1.07.69.13,1.29a79.53,79.53,0,0,0-.52,8.64,30,30,0,0,0,.64,7.48c.43,1.46,1.08,2.19,1.94,2.19s1.76-.69,2.45-2.07a27.6,27.6,0,0,0,1.29-3.09l2.58,1.81A17.08,17.08,0,0,1,1068.74,300.93Zm17.14-4.9-3.48.9q-1.55-9-6.32-14.05l2.71-1.55A26.32,26.32,0,0,1,1085.88,296Z"/><rect class="cls-29" x="756.5" y="64.5" width="321" height="60"/><path class="cls-30" d="M400.61,372.49c40.49.32,100.2-5.67,100.88-17.3.66-11.07-52-27.18-102-27.69-49.57-.5-102.42,14.31-102,25.38C297.94,364.62,358.27,372.15,400.61,372.49Z"/><path class="cls-4" d="M617,483.14l145.7-83a3.54,3.54,0,0,0,.54-.39c4.9-4.3,73.17-50.92,109.25-26.28,12,8.2,24.36,24.62,21,42s-20.33,26.12-23.23,27.57a32.4,32.4,0,0,1-14.48-2.71,3.11,3.11,0,0,1-1.61-1.5c-1.78-3.9,6.07-8.08,8.86-9.42a5,5,0,0,0,1.16-.9,7.13,7.13,0,0,0,1.83-3.1,3.42,3.42,0,0,0-1.83-4.94c-6.61-2.32-21.1-6.16-37.2-2.5-8,3,8,8,18,13s1,13-24,12c-18.63-.75-27.27-4.82-30.46-6.85a3.4,3.4,0,0,0-3.46-.1L616,529.84a3.43,3.43,0,0,1-5.06-3.38l4.39-40.7Z"/></g></g></svg>