<svg xmlns="http://www.w3.org/2000/svg" viewBox="0 0 1148 821"><defs><style>.cls-1{fill:#56a5ed;}.cls-13,.cls-15,.cls-2,.cls-21,.cls-22,.cls-24,.cls-30,.cls-37,.cls-7{fill:none;}.cls-11,.cls-16,.cls-17,.cls-18,.cls-19,.cls-2,.cls-20,.cls-21,.cls-26,.cls-3,.cls-30,.cls-4,.cls-5,.cls-6,.cls-7,.cls-8,.cls-9{stroke:#000;}.cls-11,.cls-13,.cls-14,.cls-15,.cls-16,.cls-17,.cls-18,.cls-19,.cls-2,.cls-20,.cls-21,.cls-22,.cls-24,.cls-26,.cls-3,.cls-30,.cls-37,.cls-4,.cls-5,.cls-6,.cls-7,.cls-8,.cls-9{stroke-miterlimit:10;}.cls-3{fill:#77776d;}.cls-11,.cls-17,.cls-24,.cls-26,.cls-3,.cls-4,.cls-5,.cls-9{stroke-width:5px;}.cls-35,.cls-4{fill:#f9f9f9;}.cls-5{fill:#406639;}.cls-6{fill:#dddbdb;}.cls-14,.cls-16,.cls-19,.cls-22,.cls-6,.cls-8{stroke-width:10px;}.cls-15,.cls-7{stroke-width:13px;}.cls-8{fill:#adadad;}.cls-10,.cls-27{fill:#f49a9a;}.cls-10{opacity:0.69;}.cls-11,.cls-25{fill:#f2d7c2;}.cls-12{fill:#f90613;}.cls-13,.cls-15{stroke:#020202;}.cls-13,.cls-20,.cls-21{stroke-width:3px;}.cls-14{fill:#b0deed;}.cls-14,.cls-22{stroke:#7ca8d8;}.cls-16{fill:#515050;}.cls-17{fill:#506493;}.cls-19{fill:#5973e2;}.cls-20{fill:#dbd007;}.cls-23{fill:#fff;}.cls-24{stroke:#adbfe2;}.cls-26{fill:#fcfafa;}.cls-28,.cls-29{fill:#020202;}.cls-28{opacity:0.4;}.cls-30{stroke-width:4px;}.cls-31{font-size:41px;font-family:FranklinGothic-Medium, Franklin Gothic Medium;font-weight:500;letter-spacing:0.09em;}.cls-32{font-size:72px;letter-spacing:0.09em;}.cls-32,.cls-33,.cls-34{fill:#fcfcfc;}.cls-32,.cls-33,.cls-34,.cls-36{font-family:MS-PGothic, MS PGothic;}.cls-33{font-size:33px;letter-spacing:0.09em;}.cls-34{font-size:30px;letter-spacing:0.09em;}.cls-36{font-size:37px;letter-spacing:0.09em;}.cls-37{stroke:#fff;stroke-width:2px;}</style></defs><g id="レイヤー_2" data-name="レイヤー 2"><g id="レイヤー_2-2" data-name="レイヤー 2"><rect class="cls-1" x="0.5" y="0.5" width="1147" height="820" rx="163.87"/><rect class="cls-2" x="0.5" y="0.5" width="1147" height="820" rx="163.87"/><path class="cls-3" d="M826,497.08s15-31,11-32,10-3,10-3v36.54Z"/><polygon class="cls-3" points="808 501 766 501 766 514 795 523 808 501"/><path class="cls-4" d="M193.41,605.83S114,625,112,637s15,29,45,45c3,0-10,44,29,17,4-1,24.33-39.76,12.67-37.88A48.75,48.75,0,0,0,179,669l-22-20,43-14Z"/><path class="cls-5" d="M850,482s110-57,87,74a89.27,89.27,0,0,0-9.5,4.55L861,539l-19-33Z"/><polygon class="cls-6" points="208.5 764.5 171.5 375.5 617.5 375.5 575.5 764.5 208.5 764.5"/><line class="cls-7" x1="445" y1="418" x2="494" y2="407"/><polygon class="cls-8" points="171.7 547.22 176.27 604.18 605.3 604.86 612.72 546.78 171.7 547.22"/><line class="cls-7" x1="322" y1="418" x2="286" y2="407"/><circle class="cls-9" cx="836.5" cy="605.5" r="3.5"/><circle class="cls-10" cx="469.5" cy="492.5" r="20"/><circle class="cls-11" cx="780" cy="621" r="14.5"/><circle class="cls-10" cx="299.5" cy="492.5" r="20"/><circle class="cls-11" cx="903.5" cy="613.5" r="14.5"/><path class="cls-12" d="M193,559c0-6.6,3.15-12,7-12s7,5.4,7,12v31c0,6.6-3.15,12-7,12s-7-5.4-7-12Z"/><path class="cls-13" d="M193,559c0-6.6,3.15-12,7-12s7,5.4,7,12v31c0,6.6-3.15,12-7,12s-7-5.4-7-12Z"/><polygon class="cls-14" points="433.36 624.21 430.36 707.21 548.36 707.21 558.36 624.21 433.36 624.21"/><path class="cls-12" d="M574.06,558.58c.23-6.6,3-11.9,6.18-11.79s5.57,5.61,5.33,12.2l-1.18,32.71c-.23,6.59-3,11.9-6.18,11.78s-5.57-5.6-5.33-12.2Z"/><path class="cls-13" d="M574.06,558.58c.23-6.6,3-11.9,6.18-11.79s5.57,5.61,5.33,12.2l-1.18,32.71c-.23,6.59-3,11.9-6.18,11.78s-5.57-5.6-5.33-12.2Z"/><polygon class="cls-14" points="231.76 625.98 242.76 759.98 366.76 759.98 366.76 625.98 231.76 625.98"/><path class="cls-15" d="M347.83,513s67-13,90,4"/><path class="cls-15" d="M337,385s48,70,48,13c0,0,46,21,42-1"/><path class="cls-16" d="M293.44,364.39s59.62-49.06,197,0C518.44,374.39,308.44,382.39,293.44,364.39Z"/><path class="cls-17" d="M385,342.73l-91.56,6S154,320,295,234c82-33,167-23,222,19s74,74-25,96l-16,7Z"/><path class="cls-4" d="M604.49,496,752,412s88-75,130-5c7,17-3,38-3,38s-14,17-35,7c-5-5,9-11,9-11l4-7s-19-9-41-4c-8,3,8,8,18,13s1,13-24,12-32-8-32-8L599.2,545Z"/><polygon class="cls-11" points="733 581 681 598 692 633 733 624 737 640 755 635 733 581"/><polygon class="cls-11" points="927 557 922 613 941 613 941 596 982 598 985 560 927 557"/><polygon class="cls-3" points="733 581 748.24 618.39 802 557 799 543 733 581"/><polygon class="cls-3" points="869 540 927 557 922 596 869 557 869 540"/><path class="cls-3" d="M869,557s21-56-49-62c-40-4-37,61.46-18,70.23S869,557,869,557Z"/><path class="cls-3" d="M808,655s-51,37,42,38c7,0,42-16,48-25s-12.16-16.64-12.16-16.64Z"/><path class="cls-4" d="M789,693s-51,8-39,22S789,693,789,693Z"/><path class="cls-4" d="M807.6,697.45S765,726.59,781.83,734.07,807.6,697.45,807.6,697.45Z"/><ellipse class="cls-3" cx="757.5" cy="509.5" rx="6.5" ry="16.5"/><path class="cls-3" d="M857.29,456.83s-22,17-36-2c-2-2,21-4.69,21-4.69l-1,6.69S849.29,448.83,857.29,456.83Z"/><circle class="cls-18" cx="317" cy="458" r="20"/><circle class="cls-18" cx="469" cy="458" r="20"/><path class="cls-19" d="M297.5,356.5l-12-23s96-108,209-3l-18,26S388.5,325.5,297.5,356.5Z"/><polygon class="cls-20" points="386.28 290.9 362.57 308.13 371.63 336 400.93 336 409.99 308.13 386.28 290.9"/><circle class="cls-20" cx="386" cy="316" r="6"/><line class="cls-21" x1="386.5" y1="290.5" x2="386.5" y2="310"/><line class="cls-21" x1="409.88" y1="308.46" x2="392.5" y2="313.5"/><line class="cls-21" x1="390.5" y1="321.5" x2="400.5" y2="335.5"/><line class="cls-21" x1="382.5" y1="321.5" x2="372.5" y2="334.5"/><line class="cls-21" x1="379.5" y1="313.5" x2="364.5" y2="308.5"/><line class="cls-22" x1="234.36" y1="657.58" x2="366.76" y2="657.58"/><path class="cls-23" d="M264,649c-6.6,0-12-3.15-12-7s5.4-7,12-7h69c6.6,0,12,3.15,12,7s-5.4,7-12,7Z"/><path class="cls-24" d="M264,649c-6.6,0-12-3.15-12-7s5.4-7,12-7h69c6.6,0,12,3.15,12,7s-5.4,7-12,7Z"/><path class="cls-23" d="M458.86,650.71c-6.6,0-12-3.15-12-7s5.4-7,12-7h69c6.6,0,12,3.15,12,7s-5.4,7-12,7Z"/><path class="cls-24" d="M458.86,650.71c-6.6,0-12-3.15-12-7s5.4-7,12-7h69c6.6,0,12,3.15,12,7s-5.4,7-12,7Z"/><ellipse class="cls-11" cx="842" cy="606" rx="61" ry="54"/><ellipse class="cls-25" cx="837" cy="578" rx="29" ry="22"/><path d="M867.51,578a19.25,19.25,0,0,1-3.38,10.13,24.84,24.84,0,0,1-7.61,7.09,33,33,0,0,1-9.44,3.95A41.82,41.82,0,0,1,837,600.51a38.78,38.78,0,0,1-10.11-1.24,33.26,33.26,0,0,1-9.44-4,25.48,25.48,0,0,1-7.57-7.14A19.26,19.26,0,0,1,806.49,578a19.66,19.66,0,0,1,2.83-10.48,25.8,25.8,0,0,1,7.42-7.86A36.57,36.57,0,0,1,837,553.5,38,38,0,0,1,847.59,555a33.73,33.73,0,0,1,9.7,4.64,26.19,26.19,0,0,1,7.38,7.91A19.7,19.7,0,0,1,867.51,578Zm-3,0a16.28,16.28,0,0,0-2.9-8.52,21.83,21.83,0,0,0-6.74-6.19,30.13,30.13,0,0,0-8.57-3.56A39.12,39.12,0,0,0,837,558.5a35.89,35.89,0,0,0-9.3,1.13,30.65,30.65,0,0,0-8.58,3.61,22.46,22.46,0,0,0-6.7,6.24,16.29,16.29,0,0,0-2.91,8.52,16.55,16.55,0,0,0,2.36,8.87,22.59,22.59,0,0,0,6.54,7,30.8,30.8,0,0,0,8.83,4.2,37.79,37.79,0,0,0,9.76,1.46,35.18,35.18,0,0,0,9.79-1.37,30.54,30.54,0,0,0,8.83-4.25,23,23,0,0,0,6.5-7A16.42,16.42,0,0,0,864.49,578Z"/><polygon points="820.72 618.57 813.28 618.85 805.83 619.12 809.31 612.53 812.79 605.94 816.76 612.25 820.72 618.57"/><polygon points="867.72 618.57 860.28 618.85 852.83 619.12 856.31 612.53 859.79 605.94 863.76 612.25 867.72 618.57"/><rect class="cls-26" x="820.5" y="570.5" width="32" height="21"/><circle class="cls-27" cx="869" cy="598" r="8.5"/><circle class="cls-27" cx="805" cy="598" r="8.5"/><circle class="cls-18" cx="837" cy="609" r="2"/><ellipse class="cls-28" cx="844.25" cy="639.25" rx="38.25" ry="11.75"/><path class="cls-29" d="M813.5,642.91s-20.65-8.23-1.83-9.82,20.83-8.59,29.83.41,5,9,5,9Z"/><path class="cls-23" d="M871.24,500.58a9.57,9.57,0,0,1-5.72-6.59,13.45,13.45,0,0,1-.51-4.56,12.16,12.16,0,0,1,1.24-4.53,9.61,9.61,0,0,1,3.16-3.67,10.15,10.15,0,0,1,4.59-1.68,15,15,0,0,1,4.73.24,15.3,15.3,0,0,1,4.45,1.61,8.8,8.8,0,0,1,4.69,8.48,10.82,10.82,0,0,1-1.23,4.75,8.43,8.43,0,0,1-3.53,3.67,6.73,6.73,0,0,1-2.55.74,8.08,8.08,0,0,1-2.51-.18,6.65,6.65,0,0,1-4.27-2.71,4.34,4.34,0,0,1-.67-2.6,5,5,0,0,1,.8-2.36,6.59,6.59,0,0,1,3.58-2.72l0,.06a7.49,7.49,0,0,0-2.45,3.23,4.15,4.15,0,0,0-.23,1.78,2.71,2.71,0,0,0,.63,1.42,5.74,5.74,0,0,0,6.35.91,5.52,5.52,0,0,0,2.2-2.56,8.88,8.88,0,0,0,.84-3.52,6.22,6.22,0,0,0-3.18-5.81,13.67,13.67,0,0,0-3.58-1.38,12.38,12.38,0,0,0-3.81-.35,7.41,7.41,0,0,0-6,3.75,11.35,11.35,0,0,0-1.25,7.63,9.31,9.31,0,0,0,4.37,6.6Z"/><path class="cls-23" d="M916,476.17a6.41,6.41,0,0,1,3.81,4.48,8.48,8.48,0,0,1-.68,6.18,6.76,6.76,0,0,1-2.29,2.47,7,7,0,0,1-3.24,1.07,10.63,10.63,0,0,1-3.25-.28,10.4,10.4,0,0,1-3-1.23,6.24,6.24,0,0,1-3.07-6.15,7.6,7.6,0,0,1,1-3.28,6,6,0,0,1,2.65-2.48,4.82,4.82,0,0,1,1.86-.44,5.67,5.67,0,0,1,1.76.22,4.69,4.69,0,0,1,2.92,2.13,3.18,3.18,0,0,1,.36,1.92,3.55,3.55,0,0,1-.69,1.62,4.2,4.2,0,0,1-2.61,1.57l0-.05a5,5,0,0,0,1.51-2.15,2.3,2.3,0,0,0,.1-1,1.38,1.38,0,0,0-.38-.74,3.5,3.5,0,0,0-3.61-.55,4.45,4.45,0,0,0-1.84,3.5,3.55,3.55,0,0,0,1.66,3.41,8.49,8.49,0,0,0,2.15,1,7.6,7.6,0,0,0,2.32.35,4.43,4.43,0,0,0,3.72-2,7.15,7.15,0,0,0,1.1-4.69,6,6,0,0,0-2.42-4.44Z"/><path class="cls-23" d="M909.85,496.36a8.86,8.86,0,0,1,3.64,7.23,11.67,11.67,0,0,1-2.79,8,9,9,0,0,1-3.72,2.57,9.34,9.34,0,0,1-4.53.44,13.9,13.9,0,0,1-4.21-1.33,14.37,14.37,0,0,1-3.63-2.5,8.78,8.78,0,0,1-2.43-4.06,9,9,0,0,1,.19-4.72,10.18,10.18,0,0,1,2.25-4,7.83,7.83,0,0,1,4.07-2.48,6.34,6.34,0,0,1,2.49-.06,7.68,7.68,0,0,1,2.22.76,6.21,6.21,0,0,1,3.22,3.48,4,4,0,0,1,0,2.53,4.7,4.7,0,0,1-1.29,1.93,6,6,0,0,1-3.87,1.56v-.06a6.93,6.93,0,0,0,2.91-2.35,3.77,3.77,0,0,0,.6-1.51,2.41,2.41,0,0,0-.25-1.37,5.24,5.24,0,0,0-5.35-2.23,5.16,5.16,0,0,0-2.51,1.74,8.2,8.2,0,0,0-1.54,2.92,5.59,5.59,0,0,0,1.45,5.8,11.91,11.91,0,0,0,2.84,2.06,11.35,11.35,0,0,0,3.29,1.2A6.73,6.73,0,0,0,909,510a10.41,10.41,0,0,0,2.9-6.46,8.51,8.51,0,0,0-2.3-6.91Z"/><path class="cls-23" d="M890.74,537.23a7.65,7.65,0,0,0,2-6.22,9.32,9.32,0,0,0-2.62-5.76,6,6,0,0,0-5.46-1.66,10,10,0,0,0-2.93,1.08,11.25,11.25,0,0,0-2.53,1.83,4.93,4.93,0,0,0-1.26,5.1,7.11,7.11,0,0,0,1.36,2.58,4.47,4.47,0,0,0,2.18,1.54,4.66,4.66,0,0,0,4.72-1.92,2.11,2.11,0,0,0,.23-1.18,3.31,3.31,0,0,0-.51-1.35,6.24,6.24,0,0,0-2.58-2.16l0-.05a5.38,5.38,0,0,1,3.53,1.36,4.4,4.4,0,0,1,1.21,1.77,3.81,3.81,0,0,1,0,2.34,5.72,5.72,0,0,1-2.95,3.22,7,7,0,0,1-2,.7,5.76,5.76,0,0,1-2.3-.05,7.2,7.2,0,0,1-3.75-2.28,9.31,9.31,0,0,1-2.06-3.66,7.58,7.58,0,0,1,2.06-8.08,13.52,13.52,0,0,1,7.16-3.48,8.53,8.53,0,0,1,4.15.41,8.19,8.19,0,0,1,3.4,2.36,10.57,10.57,0,0,1,2.52,7.31,8.06,8.06,0,0,1-3.35,6.55Z"/><path class="cls-23" d="M915.47,524.8a9.55,9.55,0,0,1,8.69-.86,13.75,13.75,0,0,1,4,2.23,12.26,12.26,0,0,1,3,3.63,9.71,9.71,0,0,1,1.16,4.7,10.16,10.16,0,0,1-1.28,4.72,16,16,0,0,1-6.83,6.41,9.3,9.3,0,0,1-5,.9,9.5,9.5,0,0,1-4.65-2,10.9,10.9,0,0,1-3.16-3.75,8.43,8.43,0,0,1-.95-5,6.55,6.55,0,0,1,.88-2.5,8.38,8.38,0,0,1,1.59-1.95,6.67,6.67,0,0,1,4.68-1.91,4.38,4.38,0,0,1,2.52,1,5.18,5.18,0,0,1,1.46,2,6.59,6.59,0,0,1,.14,4.48h-.06a7.52,7.52,0,0,0-1.22-3.88,4.31,4.31,0,0,0-1.31-1.22,2.77,2.77,0,0,0-1.53-.3,5.75,5.75,0,0,0-4.42,4.65,5.64,5.64,0,0,0,.82,3.28,8.89,8.89,0,0,0,2.39,2.72,6.21,6.21,0,0,0,6.57.77,13.88,13.88,0,0,0,3.2-2.12,12.45,12.45,0,0,0,2.49-2.91,7.38,7.38,0,0,0,.41-7.06,11.34,11.34,0,0,0-5.49-5.44,9.31,9.31,0,0,0-7.91-.25Z"/><ellipse class="cls-3" cx="846" cy="649" rx="41" ry="10"/><line class="cls-30" x1="298.5" y1="591.5" x2="298.5" y2="603.48"/><line class="cls-22" x1="494.36" y1="624.21" x2="489.36" y2="707.21"/><line class="cls-22" x1="298.76" y1="622.98" x2="303.26" y2="759.98"/><circle class="cls-12" cx="298.51" cy="614.73" r="11.25"/><circle class="cls-13" cx="298.51" cy="614.73" r="11.25"/><path class="cls-23" d="M295.07,605.83s-6.35,3.39-4.47,9,5.79-.4,2.61-3.38c0,0,.56-3,2.61-1.51S301.61,605.81,295.07,605.83Z"/><text class="cls-31" transform="translate(271.63 587.31)">WEB POLICE</text><text class="cls-32" transform="translate(207.34 117.48)">Web Police</text><text class="cls-33" transform="translate(626.11 205.86)">新しいセキュリティ</text><text class="cls-33" transform="translate(628.11 267.86)">売れてる商品が実は危ない</text><text class="cls-34" transform="translate(680.11 106.86)">２４時間３６５日体制</text><ellipse class="cls-35" cx="111.5" cy="181.5" rx="69" ry="64"/><path class="cls-35" d="M157.5,142.5c-1,4,37,1,36-14,0,0-7,29-22,32S157.5,142.5,157.5,142.5Z"/><text class="cls-36" transform="translate(48.02 194.62)">国内初</text><ellipse class="cls-37" cx="824" cy="96" rx="174" ry="40"/></g></g></svg>