<svg xmlns="http://www.w3.org/2000/svg" viewBox="0 0 454.21 288.3"><defs><style>.cls-1{font-size:8.77px;letter-spacing:0.09em;}.cls-1,.cls-5,.cls-6{fill:#f9f9f9;font-family:UDDigiKyokashoN-B, UD Digi Kyokasho N-B;}.cls-2,.cls-7{fill:#fff;}.cls-3,.cls-4{fill:none;stroke:#fff;stroke-miterlimit:10;}.cls-3{stroke-width:2px;}.cls-4{stroke-width:0.75px;}.cls-5{font-size:9.51px;letter-spacing:0.11em;}.cls-6{font-size:8px;letter-spacing:0.11em;}.cls-7{font-size:50px;font-family:SegoePrint, Segoe Print;}</style></defs><g id="レイヤー_2" data-name="レイヤー 2"><g id="レイヤー_1-2" data-name="レイヤー 1"><g id="レイヤー_4" data-name="レイヤー 4"><text class="cls-1" transform="translate(291.64 114.97) rotate(12.11)">the statue of liberty</text><circle class="cls-2" cx="362.95" cy="72.3" r="2.86"/><circle class="cls-2" cx="331.44" cy="66.22" r="2.86"/><path class="cls-2" d="M314.35,58.3c1.86.43,3.76.63,5.61,1a30.87,30.87,0,0,0,5.72,1,53.11,53.11,0,0,0,11.39-1c6.5-1.25,13-3.5,17.12-9,1.28-1.72-1.67-3.49-2.91-1.7-3.47,5-9.72,7-15.41,8.12a56.13,56.13,0,0,1-10.43,1c-1.72,0-3.43.28-5.15.33a24.67,24.67,0,0,1-5.65-.85c-.68-.14-1,.89-.29,1Z"/><path class="cls-2" d="M384.79,72.27a46.2,46.2,0,0,1-5.07-1,42.57,42.57,0,0,1-4.8-2A70.49,70.49,0,0,1,365.63,65c-5.3-3.11-10.83-7.23-12.47-13.47-.56-2.1-3.88-1.19-3.25.9,2,6.76,7.9,11.21,13.78,14.6a48.51,48.51,0,0,0,10.16,4.56c1.82.55,3.72.51,5.56.89s3.47.66,5.24.88c.6.07.75-1,.14-1.06Z"/><path class="cls-2" d="M309.86,70.67a15.55,15.55,0,0,1,1.65-10.94,23.83,23.83,0,0,1,8.45-8.3c7-4.33,15.48-5.85,23.66-5.3,8.92.61,17.52,3.87,25.3,8.16,7,3.87,14.92,8.57,18.84,15.86a14.52,14.52,0,0,1,1.4,10.58C388.31,84,386.27,87,383,88.1c-2.54.82-1.44,4.85,1.1,4,7.78-2.58,10.91-11.67,9.1-19.17-2.18-9-10.61-15.06-18.1-19.6-8.68-5.26-18.23-9.31-28.37-10.57a43.22,43.22,0,0,0-26.8,5c-4.28,2.48-8.35,5.92-10.75,10.31-2.19,4-3.49,9.35-.1,13,.35.39.91,0,.82-.48Z"/><path class="cls-2" d="M394.79,78.77c1.08-1.32,2.12-2.39,2.45-4.14a15.59,15.59,0,0,0,0-5.1,37.92,37.92,0,0,0-3.64-11.7c-3.86-7.64-10.89-12.87-18.25-16.9-14.73-8.08-32.23-10.76-48.41-5.72a60.52,60.52,0,0,0-6.26,2.37c-1,.44-1.94.9-2.87,1.43a10,10,0,0,0-2.39,2.11c-.66.69-1.66,1-2.34,1.76s-1.67,1.49-2.5,2.25c-1.69,1.53-3.45,2.92-5.07,4.54-.58.59.35,1.51.91.91a41.73,41.73,0,0,1,3.88-3.76,32,32,0,0,1,4.81-2.92,6.35,6.35,0,0,1,2.26-.92,10.77,10.77,0,0,0,2.62-1c1.6-.79,3.21-1.54,4.88-2.19a53.39,53.39,0,0,1,21.66-3.54A61.22,61.22,0,0,1,369,41.62c6.94,3.13,14.26,7.42,19,13.52a33.67,33.67,0,0,1,5.61,11.33,27.15,27.15,0,0,1,1.22,5.9c.08,1.4.06,4-1.28,4.7s.33,2.89,1.31,1.7Z"/><path class="cls-2" d="M316.05,79.08A31.58,31.58,0,0,1,309.72,86c-2.35,2-4.69,4.26-5.88,7.22a9,9,0,0,0,.42,7.9A6.76,6.76,0,0,0,311.9,104a5.23,5.23,0,0,0,3.68-3.24A2.94,2.94,0,0,0,312.89,97c-2.13-.17-2.13,3.18,0,3.32-.27-.53-.45-.64-.56-.32l-.23.25a2.51,2.51,0,0,1-.73.46,3.57,3.57,0,0,1-1.62.3,3.34,3.34,0,0,1-2.72-1.5c-1.28-2-.77-4.6.33-6.49,2.82-4.83,9.34-7.36,10.31-13.26a.89.89,0,0,0-1.62-.69Z"/><path class="cls-2" d="M313.24,75c-.11.31-.87.75-1.1.91s-.69.48-1,.7a14.73,14.73,0,0,1-2.58,1.35,11.19,11.19,0,0,1-5.63.81,13.36,13.36,0,0,0-9.44,2.63,8.44,8.44,0,0,0-3.28,7.77c.35,2.77,2.16,5.41,5,5.94a4.74,4.74,0,0,0,5-1.91c1-1.55.86-4-.84-4.94a1.45,1.45,0,0,0-2,2c.23.46.5.94.15,1.44a1.76,1.76,0,0,1-1.61.5,3.27,3.27,0,0,1-2.49-2,5.65,5.65,0,0,1,2-6.71c2.77-2.1,6.4-2.14,9.7-2.38a12.87,12.87,0,0,0,2.56-.28,9.88,9.88,0,0,0,2.48-1.17,19.49,19.49,0,0,0,1.93-1.41c.65-.52,1.58-1.77,2.42-1.92a1,1,0,0,0,.45-1.71,1,1,0,0,0-1.71.45Z"/><path class="cls-2" d="M367.09,93c0,3.26,3.64,5,5.51,7.22a13.12,13.12,0,0,1,3,9.75c-.2,1.69-.78,3.65-2.21,4.7a5,5,0,0,1-4.23.63c-1.39-.39-2.93-1.52-3.1-3.07a1.24,1.24,0,0,1,.77-1.41c.49-.18.93.12,1.41.23a1.34,1.34,0,0,0,1.63-1.64c-.51-1.84-2.71-2.12-4.27-1.5a4.26,4.26,0,0,0-2.74,4c0,3.88,3.8,6.52,7.37,6.66,4,.17,7-2.62,7.9-6.41a14.49,14.49,0,0,0-1.57-10.6,13.27,13.27,0,0,0-4.06-4.34c-1.66-1.1-4.1-2-4.38-4.21-.08-.61-1-.66-1,0Z"/><path class="cls-2" d="M372.47,87.91c.64,2.79,3.6,3.79,6.06,4.43,3,.78,5.39,3.23,7.18,5.64a15.05,15.05,0,0,1,2.71,13.37c-.45,1.74-.89,4.19-2.07,5.6a1.56,1.56,0,0,1-2,.6,4.82,4.82,0,0,1-1.38-2.09c-.26-.63-.65-1.76-.11-2.36a.65.65,0,0,1,1.06,0c1.1,1.39,3.33-.4,2.44-1.88a3.55,3.55,0,0,0-5-1c-1.9,1.15-2.27,3.54-1.68,5.54s2,4.47,4.25,5,4.21-.9,5.26-2.66a22.7,22.7,0,0,0,2.36-7.51,17.93,17.93,0,0,0,0-6.07,18.15,18.15,0,0,0-5.72-10.58A21.76,21.76,0,0,0,380,90.41c-1-.43-2.06-.75-3.12-1.09-.84-.27-2.13-.67-2.15-1.72a1.13,1.13,0,1,0-2.23.31Z"/><path class="cls-2" d="M258.75,37.31a64.41,64.41,0,0,0,.74,7.31c.29,2.3.66,4.59,1,6.87l2.13,14.22q2.12,14.19,4,28.41a2.06,2.06,0,1,0,4.07-.55q-2.07-14.2-4.27-28.4c-.73-4.73-1.5-9.46-2.28-14.18-.39-2.27-.76-4.55-1.19-6.82A60.73,60.73,0,0,0,261.33,37a1.32,1.32,0,0,0-2.58.35Z"/><path class="cls-2" d="M252.24,23.19a4.15,4.15,0,0,0,.24.34.84.84,0,0,0,.29.27c.29.12.34.14.14.05l-.42-.55c0,.09,0,.18,0,.27l0,.18v-.29c0,.15,0,.31,0,.47l0,.26c0,.26.07.51.11.76l0,.19,0-.14a3.16,3.16,0,0,1,0,.32,7.94,7.94,0,0,1,0,1.09,4.89,4.89,0,0,1-.05.55c0,.1,0,.06,0-.12a1.06,1.06,0,0,0,0,.53,1,1,0,0,0,.16.49q0-1-.09-.54a1.25,1.25,0,0,0,.56,1.39,1.23,1.23,0,0,0,1.86-1.06c0-.22,0-.13-.1.28a.51.51,0,0,0,.12-.23,1.62,1.62,0,0,0,.11-.69,4.93,4.93,0,0,0,0-.55,12.26,12.26,0,0,0-.17-1.47,6.19,6.19,0,0,0-.37-1.34,4.44,4.44,0,0,0-.38-.67c.13.2,0,0,0-.07l-.18-.31.09.7c-.08.21-.06.16.06-.13a.86.86,0,0,0,0-.42,2.59,2.59,0,0,0-.09-.4,1.1,1.1,0,1,0-2,.84Z"/><path class="cls-2" d="M250.69,22.74a2.2,2.2,0,0,0,2.63.07c.93-.53,1.53-1.63,2.65-1.8a2.8,2.8,0,0,1,1.31.17,7.33,7.33,0,0,0,1.39.3,3.42,3.42,0,0,0,2.73-.69l-2.32-1a25.25,25.25,0,0,0,1.72,7.5,1.59,1.59,0,1,0,2.91-1.23,29.39,29.39,0,0,1-2-6.63,1.37,1.37,0,0,0-2.62,0,2,2,0,0,1-.05.24c.05-.12.05-.12,0,0,.07-.08.06-.08,0,0,.19-.08.2-.09,0,0s-.62.06-.95.07a9.24,9.24,0,0,0-1.16.1c-.37.05-.75,0-1.13.1a4,4,0,0,0-2.15,1.25c-.51.48-1.54,1.47-2.28.83-.49-.41-1.19.28-.7.7Z"/><path class="cls-2" d="M252.3,22.32c-2.58-2.77-.66-6.68.82-9.43a19.45,19.45,0,0,0,2.29-5.61,14.24,14.24,0,0,0-.2-6.23l-2.88.8c1.1,3.82,3.15,6.91,5.43,10.1a12.29,12.29,0,0,1,2.35,4.57,5.37,5.37,0,0,1-1,4.26c-.71,1.17.77,2.84,2,2,3.34-2.42,2.27-7.46.44-10.46-1.08-1.78-2.48-3.35-3.59-5.11a24.56,24.56,0,0,1-2.72-6.13,1.5,1.5,0,0,0-2.88.8,10.94,10.94,0,0,1-.23,6.48c-.74,2.1-2,4-2.93,6-1.38,3.24-1.7,7.74,1.74,9.79a1.15,1.15,0,0,0,1.39-1.8Z"/><path class="cls-2" d="M263.77,77.81a2.2,2.2,0,0,0-2.26-1.67,3.21,3.21,0,0,0-2.73,1.47,4.08,4.08,0,0,0-.33,3.57,6.72,6.72,0,0,0,1,1.88,7.21,7.21,0,0,0,1.59,1.43,18.57,18.57,0,0,0,2.12,1.23,7.32,7.32,0,0,0,2.47,1.11,1,1,0,0,0,.87-1.52,3.82,3.82,0,0,0-1.63-1.16c-.56-.26-1.12-.52-1.67-.8a7.34,7.34,0,0,1-2.57-1.89A2.89,2.89,0,0,1,259.9,79a1,1,0,0,1,.15-.42c0,.07.1-.09.13-.12s.21-.18.12-.11a2.14,2.14,0,0,1,.86-.45l.33-.07.12,0c.14,0-.12,0,0,0H262c.08,0-.08,0,.06,0a1.41,1.41,0,0,1,.84.44c.37.39.91,0,.83-.48Z"/><path class="cls-2" d="M271.09,82.05a.5.5,0,0,0,0-1,.5.5,0,0,0,0,1Z"/><path class="cls-2" d="M271.47,82.55c.38.3.75.59,1.11.91a3.78,3.78,0,0,1,.76,1,11,11,0,0,1,.65,1.22,2.61,2.61,0,0,1,.16,1s0,.33,0,.18,0,.18-.05.21a2.76,2.76,0,0,1-.08.27c-.07.23.1-.15,0,.07s-.31.4-.3.48a.42.42,0,0,1,.19-.16l-.25.19a2.5,2.5,0,0,0-.23.23l-.1.09c.12-.09.15-.11.07-.06s-.17.11-.26.16l-.08,0c-.12.06-.1.05.07,0,0,0-.23.06-.24.07-.25.07.26,0,0,0s0,0,0,0-.55-.16-.59-.17a1.24,1.24,0,0,0-1.2,2.07,2.87,2.87,0,0,0,3.58,0,3.63,3.63,0,0,0,.84-.82,1,1,0,0,0,.17-.37c-.05.15-.05.17,0,0a2.07,2.07,0,0,0,.19-.32,4.31,4.31,0,0,0,.47-1.75,3.78,3.78,0,0,0-.45-1.77,5,5,0,0,0-1-1.48,14,14,0,0,0-1.37-.95c-.48-.35-.94-.75-1.42-1.1s-1,.43-.6.78Z"/><path class="cls-2" d="M277.45,91.41l.15.09.09,0a2.56,2.56,0,0,1,.26.2l.67.49-.37-.48a1.13,1.13,0,0,0,.44.59,1.32,1.32,0,0,0,.2.12,5.94,5.94,0,0,0,.57.27l.86.34-.4-.24L280,93a1,1,0,1,0,.69-1.67h-.17l.46.12L280.2,91a1.92,1.92,0,0,0-1.39-.26h.42a7.39,7.39,0,0,0-.82-.14l-.33,0c.07,0,0,0-.05,0l-.2-.06a.49.49,0,0,0-.38.9Z"/><path class="cls-2" d="M277.14,92.32l.44.05a.31.31,0,0,0,.19,0,.39.39,0,0,0,.16-.1.4.4,0,0,0,.1-.15.41.41,0,0,0,0-.19l0-.13a.45.45,0,0,0-.12-.21l-.1-.08a.54.54,0,0,0-.25-.06l-.44-.06a.41.41,0,0,0-.19.05.39.39,0,0,0-.16.1.4.4,0,0,0-.1.15.41.41,0,0,0,0,.19l0,.13a.45.45,0,0,0,.12.21l.1.07a.45.45,0,0,0,.25.07Z"/><path class="cls-2" d="M277.71,91.83l0-.27s0-.17,0,0c0,0,0-.08,0-.12l-.42.42a1.22,1.22,0,0,0,.43-.24.86.86,0,0,0,.23-.43l-.41.53.15-.06a1.32,1.32,0,0,0,.44-.44,1.22,1.22,0,0,0,.16-.62c0-.18,0-.36,0-.54l-.05.33v0l-.12.31a2.69,2.69,0,0,0,.24-1l0,.37v0a1.4,1.4,0,0,0-.36-1.36,1.46,1.46,0,0,0-.61-.36,1,1,0,0,0-.56,0,1,1,0,0,0-.52.16,1.49,1.49,0,0,0-.5.5,1.4,1.4,0,0,0,0,1.41l0,0-.14-.33.08.23,0,.11a1.57,1.57,0,0,0,.36.59l-.2-.25,0,0-.13-.3c0,.18,0,.36.08.54a1.19,1.19,0,0,0,.85.85l.13,0-.62-.62a1.14,1.14,0,0,0,.24.43,1,1,0,0,0,.48.24l-.42-.42a4.94,4.94,0,0,1,.15.55.5.5,0,0,0,.55.36.5.5,0,0,0,.42-.49Z"/><path class="cls-2" d="M273.25,91.39c.68,3.23.86,6.51,1.39,9.77.27,1.68.49,3.36.72,5,.17,1.19.25,4,2.21,3.44s.91-3,.62-4.22c-.37-1.64-.78-3.28-1.17-4.92-.76-3.19-2-6.21-2.81-9.37a.5.5,0,0,0-1,.26Z"/><path class="cls-2" d="M413.16,104.85a8.7,8.7,0,0,1,1.18,2.36,10.18,10.18,0,0,1,.83,2.42,24.62,24.62,0,0,1,.44,5.55q0,3.75-.35,7.5c-.12,1.27-.26,2.55-.44,3.82a11.64,11.64,0,0,0-.28,3.85,1.8,1.8,0,0,0,3.25.43,11.33,11.33,0,0,0,.88-4.25c.16-1.44.29-2.89.38-4.34a81.46,81.46,0,0,0,.12-8.56,17.57,17.57,0,0,0-1.16-6,7.88,7.88,0,0,0-1.63-2.55c-.77-.76-1.75-.74-2.71-1.06a.53.53,0,0,0-.51.88Z"/><path class="cls-2" d="M412.5,103.16a8.75,8.75,0,0,0-3.83,2.2,16.94,16.94,0,0,0-2.85,3.24c-.72,1.05-1.25,2.21-1.93,3.28-.08.13-.16.26-.25.39s-.28.38-.12.17a6.09,6.09,0,0,1-.54.6s-.34.29-.23.21-.22.14-.26.16a2.55,2.55,0,0,0-.95,1,1.34,1.34,0,0,0,.79,1.93c1.57.57,3-1.12,3.8-2.25s1.23-2.21,1.87-3.31a12.91,12.91,0,0,1,2.42-3.05c1-1,2.13-1.64,3.18-2.67a1.14,1.14,0,0,0-1.1-1.88Z"/><path class="cls-3" d="M339.21,76.09s4.39,12.22,11.71,2.75"/><path class="cls-3" d="M348.46,72.29s-1-2.71-2.6-.61"/><path class="cls-2" d="M415.29,105.6a8.32,8.32,0,0,0,1.9-2.3,18.66,18.66,0,0,1,1.64-2,20.57,20.57,0,0,1,4.11-3.45,14.48,14.48,0,0,1,2.26-1.08c0,.24-.6-.3-.64-.35s0-.25,0,0c0,0,.06.27,0,.07s0,0,0,.07,0,.2,0,.3a2.64,2.64,0,0,1,0,.29c0-.18,0,0,0,.1a12.56,12.56,0,0,1-1.82,4.7l-.42.61-.22.3c.11-.15,0,0-.06.07-.32.38-.65.75-1,1.09a10,10,0,0,1-2.23,1.77,1.8,1.8,0,0,0,1.81,3.11,15.59,15.59,0,0,0,7.26-10.93,4.61,4.61,0,0,0-.45-3.34,2.59,2.59,0,0,0-1.78-1.14,3.22,3.22,0,0,0-2.29.67,31.18,31.18,0,0,0-5.47,4,22.74,22.74,0,0,0-2.49,2.89,12,12,0,0,0-1.05,1.61,4.52,4.52,0,0,0-.67,2,1.1,1.1,0,0,0,1.64.95Z"/><path class="cls-2" d="M320.49,71.91A12.8,12.8,0,0,0,324.8,83c3.34,3.11,7.72,4.75,11.94,6.28a42.22,42.22,0,0,0,14.41,3,34.18,34.18,0,0,0,13.48-2.82c3.95-1.71,8.67-4.68,8.58-9.55a1,1,0,0,0-1.9,0c.07,3.9-3.94,6.23-7.05,7.64a31.64,31.64,0,0,1-12,2.8,35.42,35.42,0,0,1-12.37-2,49.28,49.28,0,0,1-11.27-4.82c-3.68-2.36-6.92-6.46-6.27-11.09.17-1.19-1.66-1.71-1.83-.5Z"/><path class="cls-2" d="M349.72,44.21l1-5.18a.69.69,0,0,1,.17-.39.74.74,0,0,1,.64-.08l3.24.63a1,1,0,0,1,.48.18c.26.22.23.62.19,1l-.59,4.34a1.08,1.08,0,0,1-.42.86,1,1,0,0,1-.81-.05,27.34,27.34,0,0,0-3.65-.89"/><path class="cls-2" d="M358.55,46.36l2-4.89a.76.76,0,0,1,.24-.36.7.7,0,0,1,.64,0l3.06,1.22a1.07,1.07,0,0,1,.44.28,1,1,0,0,1,0,1l-1.41,4.15c-.1.31-.25.66-.56.76a1.12,1.12,0,0,1-.8-.2,26.94,26.94,0,0,0-3.41-1.57"/><path class="cls-2" d="M345.57,43.68l-.23-5.27a.72.72,0,0,0-.11-.41c-.13-.18-.39-.18-.61-.17l-3.3.14a1.09,1.09,0,0,0-.51.11,1,1,0,0,0-.32.91l-.06,4.38a1.11,1.11,0,0,0,.28.91,1.15,1.15,0,0,0,.82.08,26.14,26.14,0,0,1,3.74-.35"/><path class="cls-2" d="M366.53,49.69l2.24-4.78a.72.72,0,0,1,.25-.34.7.7,0,0,1,.64.08l3,1.4a.91.91,0,0,1,.42.3,1,1,0,0,1-.05,1l-1.64,4.06c-.12.3-.29.65-.6.72a1.06,1.06,0,0,1-.79-.24,27,27,0,0,0-3.32-1.76"/><path class="cls-2" d="M336,44.24l-1-5.18a.72.72,0,0,0-.17-.4.69.69,0,0,0-.63-.07l-3.24.63a1,1,0,0,0-.48.18,1,1,0,0,0-.19,1l.6,4.33a.79.79,0,0,0,1.23.81,28.19,28.19,0,0,1,3.65-.9"/><path class="cls-2" d="M373.3,53.42,376.24,49a.64.64,0,0,1,.31-.3.71.71,0,0,1,.61.17l2.74,1.84a1,1,0,0,1,.38.36,1.05,1.05,0,0,1-.2,1l-2.23,3.76c-.17.29-.38.6-.71.63a1.07,1.07,0,0,1-.74-.36,27.31,27.31,0,0,0-3-2.24"/><path class="cls-2" d="M327.43,45.45l-1.6-4.24a.51.51,0,0,0-.21-.31A.74.74,0,0,0,325,41l-3,1.12a1.07,1.07,0,0,0-.43.24.83.83,0,0,0-.06.85l1.1,3.6c.09.27.2.58.5.66a1.19,1.19,0,0,0,.76-.19,28.71,28.71,0,0,1,3.33-1.42"/><path class="cls-2" d="M380,58.37l3.23-4.17a.72.72,0,0,1,.33-.27c.21-.07.43.08.6.21l2.61,2a.78.78,0,0,1,.09,1.32l-2.48,3.61c-.19.27-.43.57-.76.57a1.08,1.08,0,0,1-.71-.4,27.68,27.68,0,0,0-2.85-2.45"/><path class="cls-2" d="M320.53,48.46l-2.55-4a.64.64,0,0,0-.26-.28.62.62,0,0,0-.53.13l-2.36,1.52a.84.84,0,0,0-.32.3c-.13.26,0,.58.18.84l1.93,3.39c.15.26.34.54.62.58a.85.85,0,0,0,.63-.29,22.63,22.63,0,0,1,2.59-1.86"/><path class="cls-2" d="M386.63,64.08l3-2.61a.62.62,0,0,1,.28-.16c.17,0,.31.12.42.25L392,63.44a.67.67,0,0,1,.2.33c0,.25-.15.48-.33.65l-2.37,2.3a.78.78,0,0,1-.64.32c-.21,0-.34-.23-.46-.41a22,22,0,0,0-1.75-2.23"/><path class="cls-2" d="M305.65,50.06a4.3,4.3,0,0,0-.54,2.84,29.58,29.58,0,0,0,.47,3.25,30.49,30.49,0,0,0,2.13,6.45c.31.66,1.29.08,1-.58a27.75,27.75,0,0,1-1.92-5.75,24.85,24.85,0,0,1-.49-3,3.82,3.82,0,0,1,.35-2.66c.41-.61-.58-1.18-1-.58Z"/><path class="cls-2" d="M360.94,79.39a1.53,1.53,0,0,0-.21.83,4.18,4.18,0,0,0,.11.68l0-.31v0L361,80a.26.26,0,0,0-.07.15.8.8,0,0,0-.1.46l0,.31a.49.49,0,0,0,.06.17,1.79,1.79,0,0,0,.12.24c.1.15.21.3.32.44l.17.19a1.9,1.9,0,0,0,.7.41l.32,0,.31,0,.28-.12a1,1,0,0,0,.33-.3.68.68,0,0,0,.15-.26.64.64,0,0,0,.08-.3.54.54,0,0,0,0-.31.85.85,0,0,0-.14-.44,1.57,1.57,0,0,0-.19-.26l0,0-.07-.08.19.24a3.5,3.5,0,0,0-.24-.3l-.07-.08L363,80l.19.24-.11-.15a2.17,2.17,0,0,0-.23-.3,1.14,1.14,0,0,0-.85-.34l.83.34a1.31,1.31,0,0,1-.11-.12l.18.23a2.11,2.11,0,0,1-.18-.27,2.25,2.25,0,0,0-.34-.41A.84.84,0,0,0,362,79a.6.6,0,0,0-.35,0,.7.7,0,0,0-.34.1,1,1,0,0,0-.32.32Z"/><path class="cls-2" d="M364.42,80.66a.69.69,0,0,1,0,.1l-.11-.27.09.23,0,.13a.13.13,0,0,0,0,.06v0l.13.31,0,0L364.5,81l.06.18a.94.94,0,0,0,.23.44,1,1,0,0,0,.36.33.93.93,0,0,0,.48.15,1,1,0,0,0,.52,0l.31-.13a1.35,1.35,0,0,0,.46-.46l.13-.31a1.35,1.35,0,0,0,0-.69,4.34,4.34,0,0,0-.2-.5.92.92,0,0,0-.11-.15l-.11-.15,0,0a.6.6,0,0,0-.08-.08,3.81,3.81,0,0,0-.32-.24l-.08-.06c-.12-.06-.24-.1-.36-.15l-.1,0-.29,0-.29,0-.26.11a.9.9,0,0,0-.3.28.49.49,0,0,0-.14.24.57.57,0,0,0-.08.28.71.71,0,0,0,0,.29.82.82,0,0,0,.13.4Z"/><path class="cls-2" d="M324.5,76.2s0,.06,0,.09l0-.31a1.11,1.11,0,0,0,0,.17,2.73,2.73,0,0,0-.06.5,1.45,1.45,0,0,0,.22.79,2.33,2.33,0,0,0,.26.33l.15.11.14.11,0,0a1,1,0,0,0,.49.16,1,1,0,0,0,.52,0,1.07,1.07,0,0,0,.45-.23,1.09,1.09,0,0,0,.34-.37l.13-.32a1.19,1.19,0,0,0,0-.7l-.13-.31a1.44,1.44,0,0,0-.47-.48l0,0,.27.21-.06-.07.2.27a1.84,1.84,0,0,0-.25-.34l-.06-.07.2.26c-.09-.11-.14-.25-.22-.37l-.18-.23a.85.85,0,0,0-.37-.24.57.57,0,0,0-.29-.07.77.77,0,0,0-.45,0l-.28.11-.23.18a1,1,0,0,0-.24.37.87.87,0,0,0-.1.45Z"/><path class="cls-2" d="M328.15,75.42a.74.74,0,0,1,0,.14l.11-.26a1.06,1.06,0,0,0-.16.45,2.9,2.9,0,0,0-.08.57,2.65,2.65,0,0,0,0,.38l0,.06,0,.13,0,.13a3.09,3.09,0,0,0,.14.32l.2.27.06,0a1.27,1.27,0,0,0,.55.32,1,1,0,0,0,.5,0,.86.86,0,0,0,.47-.14,1.32,1.32,0,0,0,.45-.46l0,0,.13-.31.05-.35a1.85,1.85,0,0,0-.08-.46,2,2,0,0,0-.07-.26,1.57,1.57,0,0,0-.19-.39l-.08-.1-.08-.12a1.64,1.64,0,0,0-.21-.25l-.22-.18,0,0,.22.18-.09-.1a1,1,0,0,0-.44-.27,1.23,1.23,0,0,0-.54,0,1,1,0,0,0-.71.71Z"/><path class="cls-2" d="M345,34.61a156,156,0,0,0,16.76-29l-2-.54,4,32.13c.17,1.36,2.31,1.37,2.15,0L361.93,5.09c-.11-.91-1.51-1.65-2-.55a155.19,155.19,0,0,1-16.77,29c-.81,1.12,1,2.19,1.86,1.09Z"/><path class="cls-2" d="M376.4,41.92a24.32,24.32,0,0,1,4.25-4.64A44.08,44.08,0,0,0,385,33.6c2.59-2.72,4.58-5.94,7.28-8.55l-1.83-.76q-1.37,13.62-2.92,27.23c-.16,1.37,2,1.36,2.14,0q1.56-13.6,2.93-27.23c.09-1-1.22-1.36-1.84-.76-2.8,2.71-4.83,6.08-7.57,8.85-1.47,1.48-3.24,2.6-4.8,4a29.15,29.15,0,0,0-3.89,4.48c-.83,1.11,1,2.18,1.86,1.09Z"/><path class="cls-2" d="M394.69,61.77a95.47,95.47,0,0,1,7.42-7.5L410,46.62l-1.68-1.3L395.87,70.07c-.61,1.23,1.24,2.32,1.86,1.08L410.14,46.4a1.08,1.08,0,0,0-1.68-1.3l-7.87,7.66a93.5,93.5,0,0,0-7.41,7.49c-.87,1.06.64,2.59,1.51,1.52Z"/><path class="cls-2" d="M336.61,33.73c-5.84-7.53-13.85-13.16-19.09-21.18a1.09,1.09,0,0,0-2,.26c-1.12,4,.25,8.27,1.1,12.21l2.81,13.11c.29,1.35,2.35.78,2.07-.57l-2.61-12.15c-.81-3.81-2.38-8.15-1.3-12l-2,.26c5.35,8.18,13.48,13.93,19.44,21.61.84,1.09,2.35-.44,1.51-1.52Z"/><path class="cls-2" d="M312.46,42.79c-4.28-4.86-8.56-9.73-12.78-14.64-.82-.95-2.24.26-1.68,1.3,3.36,6.29,3.06,13.78,6,20.26.56,1.26,2.41.17,1.85-1.08-2.91-6.48-2.59-13.93-6-20.26l-1.69,1.3c4.23,4.91,8.5,9.77,12.78,14.64.92,1,2.43-.48,1.52-1.52Z"/><path class="cls-2" d="M426.08,125.14c8.7-1.27,17.48.32,26.18.69,1.86.08,1.85-2.8,0-2.88-9-.38-17.95-1.9-26.95-.59-1.82.27-1.05,3,.77,2.78Z"/><path class="cls-2" d="M423.5,101.06c-.33,6.86-.62,13.73-.82,20.6-.05,1.85,2.83,1.85,2.88,0,.19-6.87.49-13.74.82-20.6.09-1.86-2.79-1.85-2.88,0Z"/><path class="cls-2" d="M424.32,84.65c-.18,3.48-.35,7-.53,10.45a1.44,1.44,0,0,0,2.88,0q.25-5.23.53-10.45a1.44,1.44,0,0,0-2.88,0Z"/><path class="cls-2" d="M450.84,79.62c-1.93-.74-4.43-.71-6.48-.82a34.36,34.36,0,0,0-6.08.21,24.29,24.29,0,0,0-5.94,1.43c-1.9.76-3.77,1.94-5.88,1.89-2.64-.06-2.64,4,0,4.09a14.55,14.55,0,0,0,6.26-1.77,24.93,24.93,0,0,1,5.65-1.79,40.17,40.17,0,0,1,6-.54c2.11-.07,4.43.25,6.48-.22a1.3,1.3,0,0,0,0-2.48Z"/><path class="cls-2" d="M451.32,81.16c.14.93-.5,2.18-.73,3.08a13.73,13.73,0,0,0-.35,2.55c-.12,1.71-.07,3.45,0,5.16.09,3.52.31,7,.34,10.56s0,6.89-.09,10.33-.51,7.23-.36,10.81c.08,1.92,3.22,2.59,3.55.48a74.93,74.93,0,0,0,.53-10.8c.06-3.61,0-7.21-.14-10.82s-.32-7.21-.51-10.81c-.1-1.72-.12-3.44-.22-5.15a24,24,0,0,0-.24-2.54,5.22,5.22,0,0,1-.06-2.85c.47-1.16-1.93-1.65-1.7,0Z"/><path class="cls-2" d="M426.64,83.38a9,9,0,0,0-1-.42l.24.14a7.21,7.21,0,0,0-.81-.62,7.66,7.66,0,0,0-.86-.43c-.14-.07-.27-.15-.4-.23s.36.27-.08-.07.15.16-.07-.06-.18-.21-.27-.29c.25.22.14.2.05,0a1,1,0,0,1-.11-.17c-.8-1.26-1.67-2.87-3.4-2.87a1.65,1.65,0,0,0-.83,3.08,5.48,5.48,0,0,0,.54.23c.21.08.12.12-.13-.06l.17.09c.28.16-.22-.2-.1-.09l.3.3.15.18c.17.2-.2-.27-.08-.11a7.29,7.29,0,0,0,1.68,1.78,3.63,3.63,0,0,0,2.42.6,5.68,5.68,0,0,0,1.17-.26.91.91,0,0,1,.42-.09,1.64,1.64,0,0,1,.51.18c.57.27,1.06-.53.5-.86Z"/><path class="cls-2" d="M421.85,77.36a3,3,0,0,0-.91.43l.67-.09-.64-.26c-1.37-.56-2.34,1.74-1,2.4,1.88.92,3.88-.22,5.63-1,2-.85,4-1.81,6-2.63a29.19,29.19,0,0,1,6.07-1.38q3.36-.57,6.72-1.19a2,2,0,0,0,1.38-2.43,2,2,0,0,0-2.43-1.38l-6.47,1.21A32.65,32.65,0,0,0,431,72.47c-1.9.74-3.75,1.67-5.58,2.56l-2.88,1.44c-.86.42-1.76.69-2.62,1.1l1.59,2.06.44-.48-.85.23a3.3,3.3,0,0,0,1,.05c1.59-.16,1.12-2.56-.28-2.07Z"/><path class="cls-2" d="M444.86,71.66l-.09.27.37-.37c-1,.22-1.36,1.49-1.34,2.37a5.16,5.16,0,0,0,.7,2.66c.4.64.92,1.21,1.29,1.87,0,.06.28.58.14.24a4.48,4.48,0,0,1,.16.52q.06.28,0,0a1.22,1.22,0,0,1,0,.27c0-.21,0-.22,0,0s0,.17,0,0a1.64,1.64,0,0,0,.57,2.2,1.63,1.63,0,0,0,2.2-.58,4,4,0,0,0,.23-3,7.47,7.47,0,0,0-1.33-2.3,10.37,10.37,0,0,1-.66-.93c-.09-.16-.2-.32-.29-.48s-.11-.21-.16-.31c.06.14,0,0,0,0-.25-.83-.33-1.9-1.13-2.35l.27.45a1.32,1.32,0,0,1,0-.28c.07-.57-.82-.65-1-.13Z"/><path class="cls-2" d="M417.6,107.41a85.94,85.94,0,0,1,0,9.63,1.46,1.46,0,0,0,1.44,1.44,1.48,1.48,0,0,0,1.44-1.44,88.39,88.39,0,0,0,0-9.63,1.44,1.44,0,0,0-2.88,0Z"/><path class="cls-2" d="M417.83,81.64a72.78,72.78,0,0,0-.69,17.82c.1,1.84,3,1.85,2.87,0-.32-5.69-.47-11.44.6-17.06.34-1.81-2.43-2.58-2.78-.76Z"/><path class="cls-2" d="M418.2,116.94a1.46,1.46,0,0,1,.45.37l-.17-.3c0-.07,0,0,0,0a1.37,1.37,0,0,0,.05.4q.18.47.09.21c0-.09,0-.1,0,0a1.33,1.33,0,0,0,.37.65c.23.24.53.45.79.68.52.47,1,1,1.52,1.48l.35.4.13.16c.07.08.23.36,0,0,.19.29.41.56.6.85s.41.64.63,1a4.1,4.1,0,0,0,1.23,1.29,1.61,1.61,0,0,0,2.2-2.2,3.94,3.94,0,0,0-.54-.68,2.75,2.75,0,0,0-.22-.26c.13.1.16.21,0,0l-.68-1a14.54,14.54,0,0,0-1.57-1.93,9.22,9.22,0,0,0-1.95-1.52,6.42,6.42,0,0,0-1.18-.57,1.85,1.85,0,0,0-.81,0l.17,0a.89.89,0,0,0-.46.1c-.15.06-.29.14-.44.21l.34-.1a2.35,2.35,0,0,1-.54-.11.5.5,0,0,0-.39.9Z"/><ellipse class="cls-4" cx="258.72" cy="33.01" rx="8.95" ry="5.25" transform="translate(-1.19 54.7) rotate(-12.04)"/><path class="cls-4" d="M250.53,14.47s1.05-2.88,4.73-.91,4.72-.9,4.72-.9"/><text class="cls-5" transform="translate(428.43 104.82) rotate(-1.96)">Book</text><text class="cls-6" transform="translate(252.27 35.97) rotate(-5.29)">Art</text></g><text class="cls-7" transform="matrix(0.98, -0.19, 0.19, 0.98, 58.13, 168.56)">portfolio</text><text class="cls-7" transform="translate(8.03 264) rotate(-11.02)">yoshimi ogata</text></g></g></svg>