<svg xmlns="http://www.w3.org/2000/svg" viewBox="0 0 444.92 276.68"><defs><style>.cls-1{fill:#f9f9f9;}.cls-2{fill:#fff;}.cls-3,.cls-4{fill:none;stroke:#fff;stroke-miterlimit:10;}.cls-3{stroke-width:2px;}.cls-4{stroke-width:0.75px;}</style></defs><g id="レイヤー_2" data-name="レイヤー 2"><g id="レイヤー_1-2" data-name="レイヤー 1"><g id="レイヤー_4" data-name="レイヤー 4"><path class="cls-1" d="M285,110.68l.21-1a.42.42,0,0,1,.14-.24.53.53,0,0,1,.45-.08.49.49,0,0,1,.4.32.5.5,0,0,1,0,.21l-.21,1,.68.14a.43.43,0,0,1,.23.14.45.45,0,0,1,.06.4.43.43,0,0,1-.28.36.37.37,0,0,1-.21,0l-.67-.15-.69,3.19a.42.42,0,0,1-.14.24.56.56,0,0,1-.45.08.5.5,0,0,1-.4-.32.38.38,0,0,1,0-.21l.68-3.19-.67-.14a.39.39,0,0,1-.23-.15.47.47,0,0,1-.07-.39.44.44,0,0,1,.29-.36.37.37,0,0,1,.21,0Z"/><path class="cls-1" d="M289.84,112.31a1.24,1.24,0,0,1,1.25-.43,1,1,0,0,1,.88,1,2.72,2.72,0,0,1-.05.92l-.56,2.6a.36.36,0,0,1-.16.24.57.57,0,0,1-.78-.23.41.41,0,0,1,0-.22l.52-2.4a1.33,1.33,0,0,0,0-.63.42.42,0,0,0-.33-.3.73.73,0,0,0-.6.19,1.67,1.67,0,0,0-.31.34,1.89,1.89,0,0,0-.11.23l-.49,2.29a.4.4,0,0,1-.16.24.48.48,0,0,1-.41.06.46.46,0,0,1-.37-.28.37.37,0,0,1,0-.23l1.21-5.64a.34.34,0,0,1,.15-.23.49.49,0,0,1,.42-.07.46.46,0,0,1,.38.3.34.34,0,0,1,0,.2Z"/><path class="cls-1" d="M294.44,115.25a1.65,1.65,0,0,0,0,.83.78.78,0,0,0,.61.59,1,1,0,0,0,.78-.22.51.51,0,0,1,.39-.1.47.47,0,0,1,.28.2.49.49,0,0,1,.06.33.83.83,0,0,1-.3.43,1.62,1.62,0,0,1-1.4.26,1.71,1.71,0,0,1-1.22-.91,2.82,2.82,0,0,1-.15-1.85,2.92,2.92,0,0,1,.81-1.56,1.58,1.58,0,0,1,1.46-.43,1.49,1.49,0,0,1,1,.78,2.6,2.6,0,0,1,.2,1.62.59.59,0,0,1-.22.41.63.63,0,0,1-.44,0Zm.18-.78,1.32.28a.11.11,0,0,0,.15-.09,1,1,0,0,0,0-.55.61.61,0,0,0-.48-.45.67.67,0,0,0-.7.27A1.36,1.36,0,0,0,294.62,114.47Z"/><path class="cls-1" d="M306,115a1.78,1.78,0,0,1,1.11.66.67.67,0,0,1,.17.51.42.42,0,0,1-.17.25.45.45,0,0,1-.39.09.43.43,0,0,1-.28-.21,1,1,0,0,0-.62-.46.85.85,0,0,0-.39,0,.38.38,0,0,0-.31.3.43.43,0,0,0,.13.43,2,2,0,0,0,.3.21,4.38,4.38,0,0,1,1.16.89,1.34,1.34,0,0,1-.52,2,2,2,0,0,1-1.2.08,2,2,0,0,1-1.3-.8.81.81,0,0,1-.18-.6.44.44,0,0,1,.16-.26A.39.39,0,0,1,304,118a.52.52,0,0,1,.35.3,1.19,1.19,0,0,0,.78.57c.42.1.67,0,.73-.32a.54.54,0,0,0-.19-.53c-.11-.1-.41-.31-.9-.65a1.63,1.63,0,0,1-.5-.47,1.15,1.15,0,0,1-.14-.92,1.21,1.21,0,0,1,.57-.81A1.68,1.68,0,0,1,306,115Z"/><path class="cls-1" d="M310.49,116.15l.2-1a.38.38,0,0,1,.15-.24.51.51,0,0,1,.44-.08.47.47,0,0,1,.4.32.41.41,0,0,1,0,.22l-.21,1,.68.14a.36.36,0,0,1,.23.15.47.47,0,0,1,.07.39.45.45,0,0,1-.28.36.38.38,0,0,1-.21,0l-.68-.14-.69,3.18a.37.37,0,0,1-.14.24.51.51,0,0,1-.44.08.47.47,0,0,1-.4-.32.3.3,0,0,1,0-.21l.68-3.19-.67-.14a.34.34,0,0,1-.22-.15.52.52,0,0,1,.21-.75.49.49,0,0,1,.21,0Z"/><path class="cls-1" d="M316.75,117.89l.07-.16a.4.4,0,0,1,.51-.25.41.41,0,0,1,.34.3.34.34,0,0,1,0,.2l-.82,3.83a.43.43,0,0,1-.18.28.41.41,0,0,1-.31,0,.36.36,0,0,1-.31-.41l0-.28a1.16,1.16,0,0,1-1.23.39,1.27,1.27,0,0,1-.92-.83,3.52,3.52,0,0,1,.71-3.38,1.39,1.39,0,0,1,1.28-.45A1,1,0,0,1,316.75,117.89Zm-.45,2,.08-.37a1.49,1.49,0,0,0-.07-1,.61.61,0,0,0-.42-.37.59.59,0,0,0-.52.19,2.07,2.07,0,0,0-.55,1.13,2.59,2.59,0,0,0,0,1.1.63.63,0,0,0,.46.51.66.66,0,0,0,.71-.34A2,2,0,0,0,316.3,119.84Z"/><path class="cls-1" d="M320.67,118.33l.21-1a.42.42,0,0,1,.14-.24.53.53,0,0,1,.45-.08.48.48,0,0,1,.4.32.37.37,0,0,1,0,.21l-.2,1,.68.15a.37.37,0,0,1,.22.14.46.46,0,0,1,.07.4.46.46,0,0,1-.28.36.48.48,0,0,1-.21,0l-.68-.15-.68,3.19a.36.36,0,0,1-.14.23.5.5,0,0,1-.45.08.48.48,0,0,1-.4-.31.54.54,0,0,1,0-.22l.69-3.18-.67-.15a.35.35,0,0,1-.23-.14.49.49,0,0,1-.07-.4.48.48,0,0,1,.28-.36.37.37,0,0,1,.21,0Z"/><path class="cls-1" d="M326.24,123.63a1.33,1.33,0,0,1-1.3.37,1.13,1.13,0,0,1-.86-.7,2.06,2.06,0,0,1-.06-1.22l.56-2.59a.37.37,0,0,1,.12-.22.48.48,0,0,1,.44-.09.49.49,0,0,1,.38.29.33.33,0,0,1,0,.22l-.54,2.54a1.19,1.19,0,0,0,0,.49.47.47,0,0,0,.37.44.8.8,0,0,0,.65-.23,1,1,0,0,0,.35-.56l.52-2.39a.38.38,0,0,1,.15-.24.54.54,0,0,1,.42-.07.45.45,0,0,1,.38.31.27.27,0,0,1,0,.2L327,124a.33.33,0,0,1-.44.31c-.2,0-.31-.19-.32-.45Z"/><path class="cls-1" d="M330.08,122.9a1.76,1.76,0,0,0,0,.83.77.77,0,0,0,.6.59,1,1,0,0,0,.79-.22.43.43,0,0,1,.66.1.4.4,0,0,1,.06.33.75.75,0,0,1-.29.42,1.59,1.59,0,0,1-1.4.27,1.7,1.7,0,0,1-1.22-.92,2.67,2.67,0,0,1-.15-1.84,2.91,2.91,0,0,1,.8-1.56,1.57,1.57,0,0,1,1.47-.43,1.49,1.49,0,0,1,1,.78,2,2,0,0,1,.24.79,2.84,2.84,0,0,1,0,.83.47.47,0,0,1-.66.44Zm.18-.78,1.32.28c.09,0,.14,0,.16-.09a1,1,0,0,0,0-.55.65.65,0,0,0-.49-.46.69.69,0,0,0-.69.28A1.37,1.37,0,0,0,330.26,122.12Z"/><path class="cls-1" d="M341.58,122.65a1.52,1.52,0,0,1,1.15.94,2.91,2.91,0,0,1,.09,1.78,3.46,3.46,0,0,1-.58,1.37,1.55,1.55,0,0,1-1.68.64,1.53,1.53,0,0,1-1.2-1,3,3,0,0,1,0-1.71,2.84,2.84,0,0,1,.87-1.65A1.56,1.56,0,0,1,341.58,122.65Zm-.2.86a.63.63,0,0,0-.62.24,2.27,2.27,0,0,0-.47,1.07,2.64,2.64,0,0,0-.05,1.1.66.66,0,0,0,.51.57.65.65,0,0,0,.66-.26,2.38,2.38,0,0,0,.45-1.07,2.19,2.19,0,0,0,0-1.2A.67.67,0,0,0,341.38,123.51Z"/><path class="cls-1" d="M345.89,123.74l.12-.54a1.6,1.6,0,0,1,.48-.9,1.19,1.19,0,0,1,1.09-.25,1.32,1.32,0,0,1,.73.38.78.78,0,0,1,.26.69.41.41,0,0,1-.21.27.45.45,0,0,1-.34,0,.38.38,0,0,1-.3-.26.34.34,0,0,0-.25-.24c-.23,0-.39.11-.47.48l-.11.53.79.17a.41.41,0,0,1,.25.17.47.47,0,0,1,0,.33.41.41,0,0,1-.26.33.34.34,0,0,1-.2,0l-.8-.17-.7,3.28a.41.41,0,0,1-.17.25.56.56,0,0,1-.41.06.5.5,0,0,1-.41-.32.44.44,0,0,1,0-.2l.71-3.28-.56-.12a.31.31,0,0,1-.21-.13.42.42,0,0,1-.07-.37.42.42,0,0,1,.23-.31.35.35,0,0,1,.23,0Z"/><path class="cls-1" d="M357.65,124.68l-1.2,5.61a.39.39,0,0,1-.16.25.55.55,0,0,1-.44.06.49.49,0,0,1-.41-.32.38.38,0,0,1,0-.21l1.2-5.61a.37.37,0,0,1,.29-.3.65.65,0,0,1,.31,0,.6.6,0,0,1,.38.24A.36.36,0,0,1,357.65,124.68Z"/><path class="cls-1" d="M362.35,127.61l-.81,3.77a.39.39,0,0,1-.16.25.55.55,0,0,1-.44.06.47.47,0,0,1-.41-.32.48.48,0,0,1,0-.21l.81-3.77a.39.39,0,0,1,.27-.31.73.73,0,0,1,.33,0,.62.62,0,0,1,.37.23A.37.37,0,0,1,362.35,127.61Zm0-2.4a.61.61,0,0,1,.3.15.66.66,0,0,1,.08.93.62.62,0,0,1-.67.24.61.61,0,0,1-.3-.15.64.64,0,0,1-.21-.66.62.62,0,0,1,.36-.46A.61.61,0,0,1,362.33,125.21Z"/><path class="cls-1" d="M365.39,132l-.13.29a.37.37,0,0,1-.46.22.34.34,0,0,1-.29-.46l1.22-5.67a.33.33,0,0,1,.17-.24.51.51,0,0,1,.39-.05.47.47,0,0,1,.38.27.35.35,0,0,1,0,.23l-.42,2a1,1,0,0,1,1.05-.35,1.25,1.25,0,0,1,.85.68,2.86,2.86,0,0,1,.14,2,3.09,3.09,0,0,1-.79,1.61,1.3,1.3,0,0,1-1.22.42A1.12,1.12,0,0,1,365.39,132Zm.51-1.95-.09.38a2,2,0,0,0,0,1.05.64.64,0,0,0,.47.47.57.57,0,0,0,.56-.24,2.88,2.88,0,0,0,.47-2.25.57.57,0,0,0-.42-.45.63.63,0,0,0-.6.23A1.55,1.55,0,0,0,365.9,130.06Z"/><path class="cls-1" d="M370.82,131.64a1.92,1.92,0,0,0,0,.83.77.77,0,0,0,.61.58.94.94,0,0,0,.79-.21.42.42,0,0,1,.38-.1.41.41,0,0,1,.28.2.48.48,0,0,1,.06.33.75.75,0,0,1-.29.42,1.61,1.61,0,0,1-1.41.27A1.69,1.69,0,0,1,370,133a2.67,2.67,0,0,1-.15-1.84,2.91,2.91,0,0,1,.8-1.56,1.57,1.57,0,0,1,1.47-.43,1.49,1.49,0,0,1,1,.78,2.43,2.43,0,0,1,.24.79,2.52,2.52,0,0,1,0,.83.59.59,0,0,1-.22.41.62.62,0,0,1-.44,0Zm.18-.78,1.32.28c.08,0,.14,0,.15-.09a1,1,0,0,0,0-.55A.63.63,0,0,0,372,130a.7.7,0,0,0-.7.28A1.36,1.36,0,0,0,371,130.86Z"/><path class="cls-1" d="M376.53,132.25l-.48,2.23a.37.37,0,0,1-.17.25.55.55,0,0,1-.42.07.48.48,0,0,1-.4-.33.3.3,0,0,1,0-.21l.8-3.75a.41.41,0,0,1,.19-.28.51.51,0,0,1,.38-.06.44.44,0,0,1,.37.33.37.37,0,0,1,0,.21l-.08.37a1.38,1.38,0,0,1,1.34-.61.89.89,0,0,1,.6.38.58.58,0,0,1,.09.44.59.59,0,0,1-.19.32.43.43,0,0,1-.43.13.39.39,0,0,1-.25-.14.57.57,0,0,0-.28-.14.74.74,0,0,0-.62.19A1.56,1.56,0,0,0,376.53,132.25Z"/><path class="cls-1" d="M381.78,131.44l.2-1a.36.36,0,0,1,.15-.24.48.48,0,0,1,.44-.08.46.46,0,0,1,.4.32.37.37,0,0,1,0,.21l-.21,1,.68.15a.39.39,0,0,1,.23.14.49.49,0,0,1,.07.4.47.47,0,0,1-.29.36.44.44,0,0,1-.2,0l-.68-.15-.69,3.19a.33.33,0,0,1-.14.23.48.48,0,0,1-.44.08.46.46,0,0,1-.4-.31.33.33,0,0,1,0-.22l.68-3.18-.67-.15a.33.33,0,0,1-.22-.14.46.46,0,0,1-.07-.4.46.46,0,0,1,.28-.36.37.37,0,0,1,.21,0Z"/><path class="cls-1" d="M386.06,136.19l-.65-3.34a.65.65,0,0,1,0-.24.45.45,0,0,1,.31-.34.7.7,0,0,1,.32,0,.48.48,0,0,1,.39.43l.41,2.56,1.35-2.14a.5.5,0,0,1,.55-.27.68.68,0,0,1,.24.12.46.46,0,0,1,.2.48.85.85,0,0,1-.14.29l-3,4.13a.49.49,0,0,1-.52.23.61.61,0,0,1-.27-.15.42.42,0,0,1-.14-.43.64.64,0,0,1,.11-.24Z"/><circle class="cls-2" cx="353.71" cy="72.25" r="2.86"/><circle class="cls-2" cx="322.2" cy="66.17" r="2.86"/><path class="cls-2" d="M305.11,58.25c1.86.43,3.76.63,5.61,1a30.87,30.87,0,0,0,5.72,1,52.49,52.49,0,0,0,11.39-1c6.48-1.24,13-3.54,17.07-9,1.24-1.66-1.62-3.38-2.81-1.64-3.48,5-9.75,6.94-15.46,8.09a57,57,0,0,1-10.43,1c-1.72,0-3.43.28-5.15.33a24.67,24.67,0,0,1-5.65-.85c-.68-.14-1,.89-.29,1Z"/><path class="cls-2" d="M375.55,72.22a46.2,46.2,0,0,1-5.07-1,42.57,42.57,0,0,1-4.8-2,70.49,70.49,0,0,1-9.29-4.31c-5.32-3.11-10.88-7.2-12.53-13.45-.53-2-3.75-1.15-3.14.86,2,6.74,7.86,11.24,13.73,14.62a48.51,48.51,0,0,0,10.16,4.56c1.82.55,3.71.51,5.56.89s3.47.66,5.24.88c.6.07.75-1,.14-1.06Z"/><path class="cls-2" d="M300.62,70.62a15.55,15.55,0,0,1,1.65-10.94,24.1,24.1,0,0,1,8.43-8.33c7-4.35,15.49-5.88,23.67-5.32,8.94.61,17.55,3.87,25.34,8.16,7,3.87,14.94,8.58,18.86,15.89A14.55,14.55,0,0,1,380,80.7c-.85,3.27-2.9,6.32-6.24,7.4-2.47.8-1.4,4.72,1.08,3.9,7.75-2.56,10.86-11.63,9.06-19.09-2.18-9-10.6-15-18.08-19.57-8.67-5.26-18.21-9.31-28.34-10.57a43.48,43.48,0,0,0-26.79,5c-4.28,2.46-8.36,5.89-10.76,10.28-2.19,4-3.49,9.35-.1,13,.35.39.91,0,.82-.48Z"/><path class="cls-2" d="M385.55,78.72c1.08-1.32,2.12-2.39,2.45-4.14a15.06,15.06,0,0,0,0-5.1,39.59,39.59,0,0,0-3.68-11.67c-3.85-7.64-10.88-12.86-18.23-16.89-14.72-8.06-32.2-10.75-48.37-5.71a61.06,61.06,0,0,0-6.24,2.37A30.68,30.68,0,0,0,308.6,39a11.89,11.89,0,0,0-2.41,2.06c-.7.69-1.66,1-2.35,1.76s-1.67,1.49-2.51,2.25c-1.68,1.53-3.44,2.92-5.06,4.54-.58.59.35,1.51.91.91a41.73,41.73,0,0,1,3.88-3.76,32,32,0,0,1,4.81-2.92,6.91,6.91,0,0,1,2.24-1,11.59,11.59,0,0,0,2.61-1c1.6-.79,3.22-1.55,4.89-2.19a53.49,53.49,0,0,1,21.68-3.54,61.17,61.17,0,0,1,22.45,5.41c6.94,3.13,14.27,7.43,19,13.54a33.67,33.67,0,0,1,5.61,11.35,27,27,0,0,1,1.17,5.91c.08,1.4.06,4-1.28,4.7s.33,2.89,1.31,1.7Z"/><path class="cls-2" d="M306.81,79a31.82,31.82,0,0,1-6.31,7c-2.33,2.06-4.67,4.27-5.85,7.21a9,9,0,0,0,.42,7.87,6.73,6.73,0,0,0,7.58,2.84,5.24,5.24,0,0,0,3.64-3.2A2.9,2.9,0,0,0,303.65,97c-2.06-.16-2.06,3.08,0,3.22-.25-.47-.42-.54-.52-.23l-.23.25a3,3,0,0,1-.74.47,3.71,3.71,0,0,1-1.65.31,3.42,3.42,0,0,1-2.77-1.54c-1.29-2-.78-4.63.33-6.54,2.83-4.84,9.38-7.32,10.36-13.23a.89.89,0,0,0-1.62-.69Z"/><path class="cls-2" d="M304,74.93c-.11.31-.87.75-1.1.91s-.69.47-1,.7a16.9,16.9,0,0,1-2.41,1.29,11.33,11.33,0,0,1-5.8.87,13.36,13.36,0,0,0-9.44,2.63,8.39,8.39,0,0,0-3.3,7.52c.31,2.78,2,5.53,4.92,6.13a4.76,4.76,0,0,0,4.89-1.61c1-1.41,1.18-3.79-.32-5a1.47,1.47,0,0,0-1.89-.12,1.44,1.44,0,0,0-.37,1.86c.82,1.2-.14,2.15-1.46,2a3.3,3.3,0,0,1-2.51-2.07,5.67,5.67,0,0,1,2-6.72c2.76-2.1,6.4-2.14,9.7-2.38a12.87,12.87,0,0,0,2.56-.28,9.57,9.57,0,0,0,2.48-1.18,19,19,0,0,0,1.93-1.4c.64-.52,1.58-1.77,2.42-1.92A1,1,0,1,0,304,74.93Z"/><path class="cls-2" d="M357.85,93c0,3.26,3.64,5,5.51,7.22a13.2,13.2,0,0,1,3,9.75c-.19,1.7-.76,3.69-2.21,4.74a5,5,0,0,1-4.26.64c-1.42-.39-3-1.54-3.15-3.13a1.29,1.29,0,0,1,.8-1.45c.51-.19,1,.1,1.44.28,1.22.44,1.91-1,1.5-2-.71-1.63-2.89-1.68-4.31-1a4.22,4.22,0,0,0-2.51,4.17c.25,3.8,4.05,6.3,7.61,6.3,8.69,0,9.44-11.37,5.95-17.11a13.42,13.42,0,0,0-4-4.2c-1.66-1.09-4.1-2-4.38-4.21-.08-.61-1-.66-1,0Z"/><path class="cls-2" d="M363.23,87.86c.64,2.79,3.6,3.79,6.06,4.43,3,.78,5.39,3.23,7.18,5.64a16.24,16.24,0,0,1,3.24,8.46,15.68,15.68,0,0,1-.51,4.92c-.44,1.75-.87,4.21-2.05,5.62a1.6,1.6,0,0,1-2,.62,4.93,4.93,0,0,1-1.4-2.12c-.27-.65-.66-1.81-.1-2.42a.71.71,0,0,1,1.14,0c1.06,1.34,3.21-.39,2.35-1.82a3.49,3.49,0,0,0-4.94-.94c-1.88,1.14-2.24,3.5-1.65,5.48s2,4.44,4.2,5,4.16-.9,5.21-2.63a22.84,22.84,0,0,0,2.38-7.5,17.87,17.87,0,0,0,0-6.06,18.12,18.12,0,0,0-5.72-10.58,21.67,21.67,0,0,0-5.88-3.52c-1-.43-2.05-.75-3.11-1.09-.84-.27-2.13-.67-2.15-1.72a1.13,1.13,0,1,0-2.23.31Z"/><path class="cls-2" d="M249.51,37.26c.27,4.73,1.1,9.48,1.8,14.17s1.43,9.48,2.13,14.22q2.13,14.19,4,28.42a2,2,0,1,0,3.95-.53q-2.06-14.22-4.26-28.41Q256.05,58,254.87,51a133.69,133.69,0,0,0-2.78-14.05c-.39-1.4-2.67-1.17-2.58.35Z"/><path class="cls-2" d="M243,23.14a4.15,4.15,0,0,0,.24.34.84.84,0,0,0,.29.27c.29.12.34.14.14.05l-.42-.55c0,.09,0,.18.05.27l0,.18v-.29c0,.15,0,.31,0,.47s0,.17,0,.26c0,.26.08.51.12.76l0,.19,0-.14a3.16,3.16,0,0,1,0,.32,7.94,7.94,0,0,1,0,1.09c0,.19,0,.37-.05.55s0,.06,0-.12a1.06,1.06,0,0,0,0,.53,1.08,1.08,0,0,0,.15.49c0-.65,0-.83-.08-.54a1.25,1.25,0,0,0,.56,1.39A1.23,1.23,0,0,0,246,27.6c0-.22,0-.13-.1.28a.51.51,0,0,0,.12-.23,1.62,1.62,0,0,0,.11-.69,4.93,4.93,0,0,0,0-.55,12.26,12.26,0,0,0-.17-1.47,5.56,5.56,0,0,0-.38-1.34,4,4,0,0,0-.37-.67c.13.2,0,0,0-.08l-.18-.3.09.7c-.08.2-.06.16.06-.13a.86.86,0,0,0,0-.42,3,3,0,0,0-.09-.41,1.1,1.1,0,1,0-2,.85Z"/><path class="cls-2" d="M241.45,22.69a2.2,2.2,0,0,0,2.63.07c.92-.53,1.53-1.63,2.65-1.8a2.8,2.8,0,0,1,1.31.17,7.33,7.33,0,0,0,1.39.3,3.42,3.42,0,0,0,2.73-.69l-2.32-1a25.83,25.83,0,0,0,1.77,7.48,1.54,1.54,0,1,0,2.81-1.19,28,28,0,0,1-1.91-6.65,1.37,1.37,0,0,0-2.62,0,2,2,0,0,1,0,.24c0-.12,0-.12,0,0,.07-.08.06-.08,0,0,.19-.08.2-.1,0,0s-.62.06-.95.07a9.24,9.24,0,0,0-1.16.1c-.37.05-.75,0-1.13.1a4,4,0,0,0-2.15,1.25c-.51.48-1.54,1.47-2.29.83-.48-.41-1.18.28-.69.7Z"/><path class="cls-2" d="M243.06,22.27c-2.58-2.77-.67-6.68.82-9.43a19.55,19.55,0,0,0,2.26-5.62,14.11,14.11,0,0,0-.23-6.2l-2.77.76a31.94,31.94,0,0,0,5.29,10c1.75,2.4,3.9,5.9,1.67,8.7a1.44,1.44,0,0,0,2,2c2.93-2.73,1.89-7.38,0-10.38-1.1-1.77-2.49-3.34-3.6-5.11a24.14,24.14,0,0,1-2.66-6,1.44,1.44,0,0,0-2.77.76,11,11,0,0,1-.26,6.5c-.75,2.11-2.06,4-2.94,6-1.39,3.23-1.71,7.73,1.73,9.78a1.15,1.15,0,0,0,1.39-1.8Z"/><path class="cls-2" d="M254.53,77.76a2.21,2.21,0,0,0-2.26-1.67,3.21,3.21,0,0,0-2.73,1.47,4.08,4.08,0,0,0-.33,3.57,6.72,6.72,0,0,0,1,1.88,7.21,7.21,0,0,0,1.59,1.43,18.57,18.57,0,0,0,2.12,1.23,7.32,7.32,0,0,0,2.47,1.11,1,1,0,0,0,.87-1.52,3.74,3.74,0,0,0-1.63-1.16c-.56-.26-1.12-.52-1.67-.8a7.34,7.34,0,0,1-2.57-1.89,2.89,2.89,0,0,1-.75-2.44,1,1,0,0,1,.15-.42c0,.07.1-.09.13-.12s.21-.18.12-.11a2.08,2.08,0,0,1,.86-.45l.33-.07.12,0c.14,0-.12,0,0,0h.47a1.48,1.48,0,0,1,.84.45c.37.39.91,0,.83-.48Z"/><path class="cls-2" d="M261.85,82a.5.5,0,0,0,0-1,.5.5,0,0,0,0,1Z"/><path class="cls-2" d="M262.23,82.5c.37.29.75.59,1.11.91a3.55,3.55,0,0,1,.75,1,9.58,9.58,0,0,1,.66,1.22,2.42,2.42,0,0,1,.15,1s0,.33,0,.18,0,.18,0,.21a2.76,2.76,0,0,1-.08.27c-.07.23.1-.15,0,.07s-.31.4-.3.48a.42.42,0,0,1,.19-.16l-.25.19-.23.23-.1.09c.12-.09.14-.11.07-.06s-.17.11-.26.16l-.08,0c-.12.06-.1,0,.07,0,0,0-.23.06-.24.07-.25.07.26,0,0,0s0,0,0,0a5.83,5.83,0,0,0-.58-.17,1.24,1.24,0,0,0-1.2,2.07,2.87,2.87,0,0,0,3.58,0,3.27,3.27,0,0,0,.83-.83.77.77,0,0,0,.18-.36c-.05.15-.05.17,0,0a2.07,2.07,0,0,0,.19-.32,4.31,4.31,0,0,0,.47-1.75,3.91,3.91,0,0,0-.45-1.77,4.83,4.83,0,0,0-1-1.48,14,14,0,0,0-1.37-1c-.48-.35-.94-.75-1.42-1.1s-1.05.43-.6.78Z"/><path class="cls-2" d="M268.21,91.36l.15.09a.41.41,0,0,1,.09,0,2.56,2.56,0,0,1,.26.2l.67.49L269,91.7a1.13,1.13,0,0,0,.44.59,1.32,1.32,0,0,0,.2.12,5.94,5.94,0,0,0,.57.27l.86.34-.4-.24.12.12a1,1,0,1,0,.69-1.67h-.17l.46.12L271,91a1.92,1.92,0,0,0-1.39-.26H270a7.39,7.39,0,0,0-.82-.14,3.26,3.26,0,0,1-.33,0l-.06,0-.19-.06a.49.49,0,0,0-.38.9Z"/><path class="cls-2" d="M267.89,92.27l.45,0a.31.31,0,0,0,.19,0,.39.39,0,0,0,.16-.1.4.4,0,0,0,.1-.15.41.41,0,0,0,0-.19l0-.13a.45.45,0,0,0-.12-.21l-.1-.08a.54.54,0,0,0-.25-.06l-.45-.06a.41.41,0,0,0-.18,0,.31.31,0,0,0-.16.1.4.4,0,0,0-.1.15.41.41,0,0,0,0,.19l0,.13a.45.45,0,0,0,.12.21l.1.07a.44.44,0,0,0,.24.07Z"/><path class="cls-2" d="M268.47,91.78l0-.27s0-.17,0,0c0,0,0-.08,0-.12l-.42.42a1.22,1.22,0,0,0,.43-.24.86.86,0,0,0,.23-.43l-.41.53.15-.06a1.32,1.32,0,0,0,.44-.44,1.22,1.22,0,0,0,.16-.62c0-.18,0-.36,0-.54l-.05.33v0l-.12.31a2.69,2.69,0,0,0,.24-1l-.05.37v0a1.4,1.4,0,0,0-.36-1.36,1.46,1.46,0,0,0-.61-.36,1,1,0,0,0-.56,0,1,1,0,0,0-.52.16,1.49,1.49,0,0,0-.5.5,1.4,1.4,0,0,0,0,1.41l0,0-.14-.33.08.23,0,.11a1.57,1.57,0,0,0,.36.59l-.2-.25,0,0-.13-.3c0,.18.05.36.08.54a1.19,1.19,0,0,0,.85.85l.13,0-.62-.62a1,1,0,0,0,.24.43,1,1,0,0,0,.48.24l-.42-.42c.06.18.1.36.15.55a.5.5,0,0,0,.55.36.5.5,0,0,0,.42-.49Z"/><path class="cls-2" d="M264,91.34c.65,3.07.8,6.17,1.31,9.27.24,1.49.49,3,.67,4.48.1.8.24,1.59.37,2.39a2.45,2.45,0,0,0,1,2,1.24,1.24,0,0,0,1.66-.44,2.71,2.71,0,0,0,.14-2.33c-.15-.78-.3-1.55-.49-2.31-.36-1.47-.68-3-1-4.43-.72-3-1.89-5.88-2.69-8.88a.5.5,0,0,0-1,.26Z"/><path class="cls-2" d="M403.92,104.8a9.75,9.75,0,0,1,1.2,2.34,8.8,8.8,0,0,1,.86,2.43,24.67,24.67,0,0,1,.45,5.56q0,3.75-.36,7.5c-.12,1.28-.26,2.56-.44,3.83a11.54,11.54,0,0,0-.27,3.83,1.73,1.73,0,0,0,3.14.41,11.17,11.17,0,0,0,.87-4.22c.16-1.44.29-2.89.38-4.34a81.46,81.46,0,0,0,.12-8.56,17.23,17.23,0,0,0-1.16-6,8.06,8.06,0,0,0-1.57-2.54c-.75-.8-1.74-.77-2.71-1.09a.53.53,0,0,0-.51.88Z"/><path class="cls-2" d="M403.26,103.11a8.66,8.66,0,0,0-3.82,2.2,17.25,17.25,0,0,0-2.79,3.18c-.71,1-1.23,2.17-1.88,3.23a5.24,5.24,0,0,1-.94,1.26c-.11.1-.21.2-.33.29.16-.13,0,0-.1.06s-.25.16-.36.25l-.36.27-.17.23a1.33,1.33,0,0,0,.93,2.24c1.49.17,2.74-1.35,3.49-2.45s1.21-2.18,1.84-3.25a13.73,13.73,0,0,1,2.46-3c1-1,2.1-1.59,3.13-2.6a1.14,1.14,0,0,0-1.1-1.88Z"/><path class="cls-3" d="M330,76s4.39,12.22,11.71,2.75"/><path class="cls-3" d="M339.22,72.24s-1-2.72-2.6-.61"/><path class="cls-2" d="M406.05,105.55a8.11,8.11,0,0,0,1.89-2.3,20,20,0,0,1,1.65-2,21,21,0,0,1,4.09-3.49A13.54,13.54,0,0,1,416,96.64c.05.23-.55-.3-.58-.33-.21-.2.14,0,0,0s.06.27,0,.07,0,.05,0,.08v.3a1.4,1.4,0,0,1-.05.4,12.41,12.41,0,0,1-1.83,4.72,10.55,10.55,0,0,1-1.7,2.08,14.45,14.45,0,0,1-1.16,1.05c-.16.12,0,0,0,0l-.38.27c-.23.16-.46.3-.7.45a1.74,1.74,0,0,0,1.76,3,15.54,15.54,0,0,0,7.24-10.89,4.6,4.6,0,0,0-.45-3.3,2.52,2.52,0,0,0-1.74-1.12,3.21,3.21,0,0,0-2.25.66,31.76,31.76,0,0,0-5.5,4,22,22,0,0,0-2.49,2.88,11.41,11.41,0,0,0-1.05,1.61,4.48,4.48,0,0,0-.67,2,1.1,1.1,0,0,0,1.64,1Z"/><path class="cls-2" d="M311.25,71.86a12.77,12.77,0,0,0,4.31,11.06c3.34,3.11,7.72,4.75,11.94,6.28a42.46,42.46,0,0,0,14.41,3,34.18,34.18,0,0,0,13.48-2.82c3.95-1.71,8.67-4.68,8.58-9.55a1,1,0,0,0-1.91,0c.08,3.9-3.94,6.23-7,7.64a31.64,31.64,0,0,1-12,2.8,35.42,35.42,0,0,1-12.37-2,49.28,49.28,0,0,1-11.27-4.82c-3.68-2.36-6.92-6.46-6.27-11.09.17-1.19-1.66-1.71-1.83-.5Z"/><path class="cls-2" d="M340.48,44.16l1-5.18a.69.69,0,0,1,.17-.39.71.71,0,0,1,.64-.08l3.24.63a1,1,0,0,1,.48.18c.26.22.23.62.19,1l-.59,4.34a1.07,1.07,0,0,1-.42.85,1,1,0,0,1-.81,0,27.34,27.34,0,0,0-3.65-.89"/><path class="cls-2" d="M349.31,46.31l2-4.89a.76.76,0,0,1,.24-.36.73.73,0,0,1,.64,0l3.06,1.23a1.07,1.07,0,0,1,.44.28,1,1,0,0,1,0,1l-1.41,4.15c-.1.31-.25.66-.56.76a1.12,1.12,0,0,1-.8-.2,26.94,26.94,0,0,0-3.41-1.57"/><path class="cls-2" d="M336.33,43.63l-.23-5.27A.72.72,0,0,0,336,38c-.13-.18-.39-.18-.61-.17l-3.3.14a1,1,0,0,0-.51.11,1,1,0,0,0-.32.91l-.06,4.38a1.11,1.11,0,0,0,.28.91,1.15,1.15,0,0,0,.82.08A26.14,26.14,0,0,1,336,44"/><path class="cls-2" d="M357.28,49.63l2.25-4.77a.72.72,0,0,1,.25-.34.7.7,0,0,1,.64.08l3,1.4a1,1,0,0,1,.42.3,1,1,0,0,1-.05,1l-1.64,4.07c-.12.3-.29.65-.61.72a1.05,1.05,0,0,1-.78-.24,27,27,0,0,0-3.32-1.76"/><path class="cls-2" d="M326.77,44.19l-1-5.18a.72.72,0,0,0-.17-.4.69.69,0,0,0-.63-.07l-3.24.63a1.08,1.08,0,0,0-.49.18,1.06,1.06,0,0,0-.18,1l.6,4.33a.79.79,0,0,0,1.23.81,28.19,28.19,0,0,1,3.65-.9"/><path class="cls-2" d="M364.06,53.37,367,49a.67.67,0,0,1,.31-.29.71.71,0,0,1,.61.17l2.74,1.84a.94.94,0,0,1,.38.36,1.05,1.05,0,0,1-.2.95l-2.23,3.76c-.17.29-.39.6-.71.63a1.07,1.07,0,0,1-.74-.36,27.31,27.31,0,0,0-3-2.24"/><path class="cls-2" d="M318.19,45.4l-1.6-4.24a.51.51,0,0,0-.21-.31.74.74,0,0,0-.61,0l-3,1.12a1.18,1.18,0,0,0-.44.24.86.86,0,0,0-.05.85l1.1,3.6c.08.27.2.58.5.66a1.19,1.19,0,0,0,.76-.19A28.71,28.71,0,0,1,318,45.76"/><path class="cls-2" d="M370.77,58.32,374,54.15a.72.72,0,0,1,.33-.27c.21-.07.43.08.6.21l2.61,2a.78.78,0,0,1,.09,1.32L375.15,61c-.19.27-.43.57-.76.57a1.05,1.05,0,0,1-.71-.41,27.58,27.58,0,0,0-2.85-2.44"/><path class="cls-2" d="M311.29,48.41l-2.55-3.95a.71.71,0,0,0-.26-.28.62.62,0,0,0-.53.13l-2.36,1.52a.84.84,0,0,0-.32.3c-.13.26,0,.58.18.84l1.93,3.39c.15.26.34.54.62.58a.89.89,0,0,0,.63-.29,22.63,22.63,0,0,1,2.59-1.86"/><path class="cls-2" d="M377.39,64l3-2.6a.62.62,0,0,1,.28-.16c.17,0,.31.12.42.25l1.63,1.88a.67.67,0,0,1,.2.33c.05.25-.15.48-.33.65l-2.37,2.3a.78.78,0,0,1-.64.32c-.21,0-.34-.23-.46-.41a22,22,0,0,0-1.75-2.23"/><path class="cls-2" d="M296.41,50a4.25,4.25,0,0,0-.54,2.84,25.44,25.44,0,0,0,.47,3.25,30.41,30.41,0,0,0,2.13,6.44c.31.67,1.29.09,1-.57a28.39,28.39,0,0,1-1.93-5.75,27,27,0,0,1-.48-3,3.86,3.86,0,0,1,.34-2.66c.42-.61-.57-1.18-1-.58Z"/><path class="cls-2" d="M351.7,79.34c-.06.13-.11.25-.16.38a1.35,1.35,0,0,0,0,.72c0,.06,0,.13,0,.2a1.42,1.42,0,0,1,.07.22l.11-.87a.35.35,0,0,0-.06.14.79.79,0,0,0-.1.45l0,.3a.44.44,0,0,0,.06.16,1.79,1.79,0,0,0,.12.24,4.25,4.25,0,0,0,.31.43l.17.19a2,2,0,0,0,.68.4l.31,0,.3,0,.27-.12a.89.89,0,0,0,.32-.29.48.48,0,0,0,.14-.25.49.49,0,0,0,.08-.29.51.51,0,0,0,0-.3.9.9,0,0,0-.13-.42c-.09-.13-.2-.25-.3-.37l.18.23a1.63,1.63,0,0,0-.23-.29l-.08-.08L353.7,80l.18.23-.11-.15a1.48,1.48,0,0,0-.22-.29,1.06,1.06,0,0,0-.82-.33l.8.33,0,0,.17.23a1.68,1.68,0,0,1-.2-.34,1.48,1.48,0,0,0-.25-.35l-.12-.12a.84.84,0,0,0-.4-.23.7.7,0,0,0-.35,0A.85.85,0,0,0,352,79a1,1,0,0,0-.32.32Z"/><path class="cls-2" d="M355.19,80.61l.12.2-.12-.27a.64.64,0,0,1,.06.18.44.44,0,0,1,0,.1,1.85,1.85,0,0,0,.15.39l-.12-.3.06.18a1,1,0,0,0,.22.42,1.13,1.13,0,0,0,.82.47,1,1,0,0,0,.5,0l.29-.13a1.21,1.21,0,0,0,.45-.45l.13-.29a1.27,1.27,0,0,0,0-.67,4.14,4.14,0,0,0-.19-.49v0l-.2-.25h0l0,0-.09-.07a2.88,2.88,0,0,0-.39-.3l-.18-.11-.26-.11a.9.9,0,0,0-.43,0,.5.5,0,0,0-.27.08.68.68,0,0,0-.35.22l-.17.22-.11.26a.78.78,0,0,0,0,.43.82.82,0,0,0,.13.4Z"/><path class="cls-2" d="M315.3,76.14a.31.31,0,0,1,0,.1l0-.3a1.1,1.1,0,0,0,0,.18,2.52,2.52,0,0,0-.06.48,1.41,1.41,0,0,0,.22.77,2.16,2.16,0,0,0,.25.32,2.92,2.92,0,0,0,.28.21l.05,0a.8.8,0,0,0,.47.15,1,1,0,0,0,.51,0,.86.86,0,0,0,.43-.23,1,1,0,0,0,.33-.36l.13-.3a1.31,1.31,0,0,0,0-.68l-.13-.3a1.13,1.13,0,0,0-.46-.46l0,0,.26.2-.06-.07.2.26a3.19,3.19,0,0,0-.25-.33l-.06-.07.19.25c-.08-.11-.14-.25-.21-.36l-.18-.23a.89.89,0,0,0-.35-.23.55.55,0,0,0-.28-.07.73.73,0,0,0-.44,0l-.27.11-.22.17a.77.77,0,0,0-.23.36.87.87,0,0,0-.1.42Z"/><path class="cls-2" d="M318.91,75.37a2.15,2.15,0,0,0-.07.5l0-.29,0,.2,0,.12a2.11,2.11,0,0,0-.05.35,1.14,1.14,0,0,0,.05.37c0,.08,0,.16.05.23l0,.12.13.3.19.26.06,0a1.24,1.24,0,0,0,.53.31.91.91,0,0,0,.49,0,.82.82,0,0,0,.45-.14,1.24,1.24,0,0,0,.44-.44l0,0a1,1,0,0,0,.15-.47.94.94,0,0,0,0-.5c0-.06,0-.11,0-.16a1.74,1.74,0,0,0-.21-.55l-.18-.23-.08-.13a1.72,1.72,0,0,0-.24-.31,1,1,0,0,0-.44-.26,1.23,1.23,0,0,0-.54,0,1,1,0,0,0-.71.71Z"/><path class="cls-2" d="M335.77,34.56a155.51,155.51,0,0,0,16.77-29l-2-.55,3.95,32.14c.16,1.36,2.31,1.37,2.15,0L352.69,5c-.11-.9-1.51-1.64-2-.54a155.75,155.75,0,0,1-16.77,29c-.82,1.12,1.05,2.19,1.85,1.09Z"/><path class="cls-2" d="M367.16,41.87a24.32,24.32,0,0,1,4.25-4.64,44.08,44.08,0,0,0,4.39-3.68c2.59-2.72,4.58-5.94,7.28-8.56l-1.83-.75q-1.37,13.62-2.92,27.23c-.16,1.37,2,1.36,2.14,0Q382,37.86,383.4,24.24c.09-1-1.22-1.36-1.84-.76-2.8,2.71-4.83,6.08-7.57,8.84-1.47,1.49-3.24,2.6-4.8,4a28.62,28.62,0,0,0-3.89,4.48c-.83,1.11,1,2.18,1.86,1.09Z"/><path class="cls-2" d="M385.45,61.72a95.47,95.47,0,0,1,7.42-7.5l7.86-7.65-1.68-1.3L386.63,70c-.62,1.23,1.24,2.32,1.86,1.08L400.9,46.35a1.08,1.08,0,0,0-1.68-1.3l-7.87,7.66a91.87,91.87,0,0,0-7.41,7.49c-.87,1.06.64,2.59,1.51,1.52Z"/><path class="cls-2" d="M327.37,33.68c-5.84-7.53-13.85-13.16-19.09-21.18a1.09,1.09,0,0,0-2,.26c-1.12,4,.25,8.27,1.1,12.21l2.81,13.11c.28,1.35,2.35.78,2.06-.57l-2.6-12.15c-.81-3.81-2.38-8.15-1.3-12l-2,.26c5.35,8.18,13.48,13.93,19.44,21.61.84,1.09,2.35-.44,1.51-1.52Z"/><path class="cls-2" d="M303.22,42.74c-4.28-4.86-8.56-9.73-12.78-14.64-.82-1-2.24.26-1.69,1.3,3.37,6.29,3.07,13.78,6,20.26.56,1.26,2.41.17,1.85-1.08-2.91-6.49-2.59-13.93-6-20.26l-1.69,1.3c4.23,4.91,8.5,9.77,12.78,14.64.91,1,2.43-.49,1.52-1.52Z"/><path class="cls-2" d="M416.84,125.09c8.7-1.27,17.48.32,26.18.69,1.85.08,1.85-2.8,0-2.88-9-.39-17.95-1.9-26.95-.59-1.82.27-1.05,3,.77,2.78Z"/><path class="cls-2" d="M414.26,101c-.33,6.86-.62,13.73-.82,20.6-.05,1.85,2.83,1.85,2.88,0,.19-6.87.49-13.74.82-20.6.08-1.86-2.79-1.85-2.88,0Z"/><path class="cls-2" d="M415.08,84.6c-.18,3.48-.35,7-.53,10.45a1.44,1.44,0,0,0,2.88,0q.26-5.23.53-10.45a1.44,1.44,0,0,0-2.88,0Z"/><path class="cls-2" d="M441.6,79.57c-1.89-.73-4.47-.66-6.48-.76A34.32,34.32,0,0,0,429,79a23.79,23.79,0,0,0-5.93,1.44c-1.9.76-3.78,1.93-5.89,1.88-2.56,0-2.57,4,0,4a14.41,14.41,0,0,0,6.23-1.76,25.09,25.09,0,0,1,5.67-1.79,38.8,38.8,0,0,1,6-.55c2.09-.06,4.45.31,6.48-.17,1.34-.31,1.09-2.05,0-2.47Z"/><path class="cls-2" d="M442.08,81.11c.14.93-.5,2.18-.73,3.08a12.1,12.1,0,0,0-.31,2.55c-.08,1.72-.05,3.44,0,5.16.09,3.52.32,7,.34,10.56s0,6.89-.09,10.33-.5,7.23-.36,10.81c.08,1.86,3.12,2.51,3.45.46a77.54,77.54,0,0,0,.53-10.78c.05-3.61,0-7.21-.15-10.82s-.32-7.21-.51-10.81c-.1-1.72-.15-3.43-.19-5.15a21.39,21.39,0,0,0-.21-2.54,5.32,5.32,0,0,1-.07-2.85c.48-1.16-1.92-1.65-1.69,0Z"/><path class="cls-2" d="M417.4,83.33a9,9,0,0,0-1-.42l.24.14a7,7,0,0,0-.81-.62A7.66,7.66,0,0,0,415,82c-.14-.07-.27-.15-.4-.23s.36.27-.08-.07l-.22-.16.14.11c0-.09-.22-.19-.29-.27l-.08-.09c-.07-.09,0,0,.11.14a1,1,0,0,0-.11-.17c-.79-1.25-1.65-2.85-3.35-2.85a1.6,1.6,0,0,0-.8,3,5.06,5.06,0,0,0,.52.23c.22.07.11.11-.11-.06l.16.09c.29.15-.2-.19-.08-.08l.3.3.15.18c.17.2-.19-.26-.08-.1a8,8,0,0,0,1.42,1.6,3,3,0,0,0,1.35.71,4.66,4.66,0,0,0,1.29.1A5.82,5.82,0,0,0,416,84.1a.91.91,0,0,1,.42-.1,2,2,0,0,1,.51.19c.56.27,1.05-.54.5-.86Z"/><path class="cls-2" d="M412.61,77.3a3.33,3.33,0,0,0-.91.44l.67-.09-.64-.26c-1.55-.63-2.29,1.94-.7,2.53,1.88.69,4-.61,5.73-1.32,1.94-.82,3.85-1.78,5.82-2.54a31.6,31.6,0,0,1,6.1-1.33c2.16-.37,4.33-.76,6.49-1.15,2.42-.44,1.4-4.16-1-3.71-2.16.4-4.32.8-6.48,1.22a34.38,34.38,0,0,0-5.66,1.3c-3.77,1.41-7.2,3.65-11,5l1.28,2.19.44-.48-.85.23a3.3,3.3,0,0,0,1,0c1.59-.16,1.12-2.56-.28-2.08Z"/><path class="cls-2" d="M435.62,71.61l-.09.27.37-.37c-1,.22-1.36,1.49-1.34,2.37a5.18,5.18,0,0,0,.75,2.63c.4.65.91,1.21,1.29,1.87,0,.06.27.57.14.25a4.68,4.68,0,0,1,.17.53c0,.18,0,.18,0,0v.27c0-.2,0-.2,0,0s-.05.16,0,0a1.59,1.59,0,0,0,.56,2.12A1.56,1.56,0,0,0,439.6,81a3.92,3.92,0,0,0,.22-3,7.48,7.48,0,0,0-1.32-2.29,8.6,8.6,0,0,1-.65-.93c-.1-.16-.2-.32-.29-.49s-.11-.3,0-.1a1.43,1.43,0,0,1-.09-.27c-.25-.83-.33-1.9-1.13-2.35l.26.45a2.66,2.66,0,0,1,0-.28c.07-.57-.82-.65-1-.13Z"/><path class="cls-2" d="M408.36,107.36a85.94,85.94,0,0,1,0,9.63,1.46,1.46,0,0,0,1.44,1.44,1.48,1.48,0,0,0,1.44-1.44,88.39,88.39,0,0,0,0-9.63,1.44,1.44,0,1,0-2.88,0Z"/><path class="cls-2" d="M408.59,81.59a72.78,72.78,0,0,0-.69,17.82c.1,1.84,3,1.85,2.87,0-.32-5.69-.48-11.44.6-17.06.34-1.81-2.43-2.58-2.78-.76Z"/><path class="cls-2" d="M409,116.89a1.74,1.74,0,0,1,.45.36l-.17-.29c0-.07,0,0,0,0a1.37,1.37,0,0,0,.05.4q.18.46.09.21c0-.09,0-.1,0,0a1.3,1.3,0,0,0,.37.65l.28.21c.1.08.11.09,0,0s.07.06.1.09l.41.33a21.09,21.09,0,0,1,1.52,1.47l.36.4.13.16c.08.09.2.34,0,0,.17.3.41.57.6.86s.41.63.63.94A4,4,0,0,0,415,124a1.55,1.55,0,0,0,2.12-2.13,3.74,3.74,0,0,0-.53-.66s-.18-.25-.22-.26l.11.14-.1-.14c-.23-.32-.45-.65-.68-1a14.47,14.47,0,0,0-1.56-1.93,10.18,10.18,0,0,0-1.93-1.52,5.76,5.76,0,0,0-1.16-.59,1.71,1.71,0,0,0-.81,0l.17,0a.89.89,0,0,0-.46.1l-.44.2.34-.09a2.55,2.55,0,0,1-.55-.11.5.5,0,0,0-.38.9Z"/><ellipse class="cls-4" cx="249.48" cy="32.96" rx="8.95" ry="5.25" transform="translate(-1.39 52.77) rotate(-12.04)"/><path class="cls-4" d="M241.29,14.41s1.05-2.87,4.73-.9,4.72-.9,4.72-.9"/><path class="cls-1" d="M422.09,101a1.62,1.62,0,0,1,1.39,1.7,1.84,1.84,0,0,1-.58,1.48,1.93,1.93,0,0,1-1.28.46l-.94,0c-.62,0-.94-.25-1-.83l-.18-5.21a.77.77,0,0,1,.84-.9l.84,0a1.93,1.93,0,0,1,1.34.42,1.63,1.63,0,0,1,.6,1.27A1.48,1.48,0,0,1,422.09,101Zm-1.44-.42.55,0a.94.94,0,0,0,.58-.2,1.07,1.07,0,0,0,0-1.53.85.85,0,0,0-.57-.16h-.42c-.12,0-.18.07-.17.19Zm0,1,.06,1.91a.18.18,0,0,0,.2.19l.47,0c.64,0,.95-.37.93-1.06a1,1,0,0,0-.51-.9,1,1,0,0,0-.58-.14Z"/><path class="cls-1" d="M427.21,99.31a1.68,1.68,0,0,1,1.46.69,3.21,3.21,0,0,1,.56,1.86,3.7,3.7,0,0,1-.25,1.59,1.79,1.79,0,0,1-3.14.34,3.36,3.36,0,0,1-.49-1.79,3.09,3.09,0,0,1,.48-2A1.71,1.71,0,0,1,427.21,99.31Zm0,1a.71.71,0,0,0-.6.42,2.49,2.49,0,0,0-.21,1.25,3,3,0,0,0,.24,1.17.72.72,0,0,0,.69.47.7.7,0,0,0,.62-.45,2.72,2.72,0,0,0,.2-1.25,2.32,2.32,0,0,0-.33-1.26A.69.69,0,0,0,427.23,100.27Z"/><path class="cls-1" d="M433,99.11a1.67,1.67,0,0,1,1.46.7,3.08,3.08,0,0,1,.56,1.85,3.64,3.64,0,0,1-.25,1.59,1.79,1.79,0,0,1-3.14.34,3.42,3.42,0,0,1-.49-1.79,3,3,0,0,1,.49-2A1.67,1.67,0,0,1,433,99.11Zm0,1a.7.7,0,0,0-.6.43,2.45,2.45,0,0,0-.21,1.25,3,3,0,0,0,.24,1.16.72.72,0,0,0,.69.47.7.7,0,0,0,.62-.45,2.72,2.72,0,0,0,.2-1.25,2.37,2.37,0,0,0-.33-1.26A.71.71,0,0,0,433,100.07Z"/><path class="cls-1" d="M438.14,102.4l0,1.28a.44.44,0,0,1-.1.3.58.58,0,0,1-.42.17.48.48,0,0,1-.48-.22.37.37,0,0,1-.06-.21l-.22-6.26a.43.43,0,0,1,.1-.29.58.58,0,0,1,.42-.17.49.49,0,0,1,.48.21.57.57,0,0,1,.07.22l.12,3.5,1.43-1.73A.61.61,0,0,1,440,99a.62.62,0,0,1,.59.53.52.52,0,0,1-.14.34l-1.08,1.25,1.44,2.13a.47.47,0,0,1,.1.3.52.52,0,0,1-.23.46.58.58,0,0,1-.32.1.56.56,0,0,1-.53-.26l-1.21-2Z"/><path class="cls-1" d="M244.28,34.05l-.18,1.35a.42.42,0,0,1-.42.41.52.52,0,0,1-.34-.07.37.37,0,0,1-.15-.28.54.54,0,0,1,0-.18l.72-5.06a.57.57,0,0,1,.54-.55.58.58,0,0,1,.64.45L246.72,35a.94.94,0,0,1,0,.16.37.37,0,0,1-.23.39.83.83,0,0,1-.21.06.42.42,0,0,1-.47-.33l-.43-1.3Zm.28-3.16-.22,2.31.85-.08Z"/><path class="cls-1" d="M249.38,32.78l.19,2.07a.38.38,0,0,1-.08.27.47.47,0,0,1-.35.17.44.44,0,0,1-.44-.17.36.36,0,0,1-.07-.18l-.32-3.49a.4.4,0,0,1,.09-.3.46.46,0,0,1,.32-.15.38.38,0,0,1,.4.19.48.48,0,0,1,.06.18l0,.34a1.26,1.26,0,0,1,1-.89.79.79,0,0,1,.62.16.5.5,0,0,1,.19.36.51.51,0,0,1-.07.34.43.43,0,0,1-.34.23.39.39,0,0,1-.26-.06.47.47,0,0,0-.28-.05.69.69,0,0,0-.49.34A1.47,1.47,0,0,0,249.38,32.78Z"/><path class="cls-1" d="M253.83,30.63l-.09-.89a.49.49,0,0,1,.06-.25.47.47,0,0,1,.37-.19.45.45,0,0,1,.44.17.48.48,0,0,1,.06.18l.08.9.63-.06a.34.34,0,0,1,.24.06.44.44,0,0,1,.17.33.39.39,0,0,1-.15.39.35.35,0,0,1-.18.06l-.63.06.28,3a.49.49,0,0,1-.06.25.5.5,0,0,1-.37.19.45.45,0,0,1-.44-.17.48.48,0,0,1-.06-.18l-.28-3-.62.06a.35.35,0,0,1-.23-.07.41.41,0,0,1-.17-.33.39.39,0,0,1,.15-.39.49.49,0,0,1,.17-.06Z"/></g><path class="cls-2" d="M56.19,164.24a98.37,98.37,0,0,0,.15,12.53l.21,4.66a4.5,4.5,0,0,1-.52,2.08c-.35.72-.73,1.13-1.13,1.2a2.88,2.88,0,0,1-1.84-.42c-.73-.38-1.12-.73-1.18-1a15.87,15.87,0,0,1-.11-3.76q.94-18.56-1.67-32l-.41-2a5.9,5.9,0,0,1,.17-3.94,2.87,2.87,0,0,1,2-1.61c.38-.07.81.16,1.28.69a5.19,5.19,0,0,1,1,2.44,41.46,41.46,0,0,1,.62,5.73c.12,2.86.22,4.5.28,4.92a38.61,38.61,0,0,1,5.68-11.2q3.33-4.29,6.75-4.95a5.46,5.46,0,0,1,4.44,1,6.53,6.53,0,0,1,2.54,4.17q1.51,7.81-3.23,15.36T60.79,166.8a3.33,3.33,0,0,1-2.38-.28A8.13,8.13,0,0,1,56.19,164.24Zm11.12-22.19q-3.37.66-7.13,8t-3.07,10.82a2.31,2.31,0,0,0,1.31,1.48,3.81,3.81,0,0,0,2.65.33Q64.51,162,68,156t2.52-10.83a4.56,4.56,0,0,0-1.23-2.55A2.19,2.19,0,0,0,67.31,142.05Z"/><path class="cls-2" d="M91.06,161.58a6.92,6.92,0,0,1-5.9-1.44,9.35,9.35,0,0,1-3.33-5.74,21.67,21.67,0,0,1,1.78-13q3-6.81,8.79-7.94a7.76,7.76,0,0,1,6.8,1.74,11,11,0,0,1,3.75,6.56q1.22,6.23-2.68,12.51T91.06,161.58ZM85.93,153a7.17,7.17,0,0,0,1.78,3.75,3.17,3.17,0,0,0,3,1c2.38-.46,4.51-2.24,6.4-5.31A12.83,12.83,0,0,0,99,143a7.89,7.89,0,0,0-2.31-4.52,4.49,4.49,0,0,0-4.06-1.11q-3.86.75-5.7,6A18.29,18.29,0,0,0,85.93,153Z"/><path class="cls-2" d="M114.57,145.88c.1-.31.22-.75.34-1.31a42.7,42.7,0,0,1,1.86-6.44,39.48,39.48,0,0,1,2.21-4.65,19.55,19.55,0,0,1,2.43-3.53,10.32,10.32,0,0,1,2.18-1.88,6.69,6.69,0,0,1,2.06-.81,4.79,4.79,0,0,1,3.64.6,4,4,0,0,1,1.89,2.68A2.16,2.16,0,0,1,131,132a1.76,1.76,0,0,1-1.31.88,2.57,2.57,0,0,1-2-.53,2.57,2.57,0,0,0-2-.54q-2.49.5-5.73,7.38a29.13,29.13,0,0,0-2.77,14.35,4.23,4.23,0,0,1-.43,2.65,2.81,2.81,0,0,1-1.78,1c-.78.16-1.46-.32-2-1.41a23.32,23.32,0,0,1-1.68-5.8c-.14-.75-.43-2.41-.84-5a61.46,61.46,0,0,1-.85-7.42c0-.31-.07-1-.18-2.18a12.64,12.64,0,0,1-.08-2.65,3.16,3.16,0,0,1,.77-1.54,2.69,2.69,0,0,1,1.57-.95,1.63,1.63,0,0,1,1.44.3,2,2,0,0,1,.68,1.13,10.74,10.74,0,0,1,0,2.73,22.09,22.09,0,0,0-.14,2.73,14.3,14.3,0,0,1,.07,1.76,45.66,45.66,0,0,0,.58,5.51l.14.89Z"/><path class="cls-2" d="M141.62,125.4c1.62-.45,3.14-.9,4.56-1.36a32.7,32.7,0,0,1,3.55-.94,5,5,0,0,1,2.37-.12,1.35,1.35,0,0,1,.7,1.08c.26,1.3-.51,2.18-2.29,2.64-2.29.59-4.39,1.21-6.28,1.84a11.34,11.34,0,0,0-3,1.25,45,45,0,0,0-.34,6,42.54,42.54,0,0,0,.16,7.32c.34,1.76.8,2.88,1.37,3.37a2.54,2.54,0,0,0,2.26.47c1.37-.26,3.08-1.67,5.12-4.2.78-1,1.43-1.6,1.94-1.7.69-.13,1.1.17,1.24.9q.35,1.73-2.45,5.12a10.76,10.76,0,0,1-6.26,4.06q-5.79,1.14-7.12-5.69a38.51,38.51,0,0,1-.29-7.88,47.81,47.81,0,0,0,0-6.41c-.05-.24-.27-.33-.65-.25l-2.45.7c-2,.4-3.23-.22-3.54-1.85a1.26,1.26,0,0,1,1.14-1.66l4.94-1a1.17,1.17,0,0,0,.79-.63,11.9,11.9,0,0,0,.54-3.28c.15-1.83.26-3.63.31-5.39s.65-2.74,1.77-3a2,2,0,0,1,1.74.41,2.21,2.21,0,0,1,.84,1.23,32.31,32.31,0,0,1-.2,3.59Z"/><path class="cls-2" d="M164.57,147.17a1.79,1.79,0,0,1-.72,1.18,3.12,3.12,0,0,1-1.41.7c-1.62.32-2.67-.72-3.13-3.09-.23-1.14-.47-4.42-.75-9.86a57.09,57.09,0,0,0-.75-7.51c-.05-.29-.46-.6-1.22-.93s-1.2-.69-1.29-1.12a3.23,3.23,0,0,1,1.13-2.53,3.89,3.89,0,0,0,1.06-2.38c0-.8,0-1.9,0-3.31q-.22-7.66,1.73-11.45a8.28,8.28,0,0,1,6-4.58,5.13,5.13,0,0,1,3.9.75,4.92,4.92,0,0,1,2.19,3.32,11.69,11.69,0,0,1,0,4.12c-.27,1.59-.75,2.45-1.45,2.59a.72.72,0,0,1-.95-.64l-.28-2.36c-.6-3.08-1.77-4.45-3.49-4.12-1.87.37-3.07,2.5-3.58,6.41a30,30,0,0,0-.1,9.31c.14.73.69,1,1.65.82,4.17-.81,6.62-1.31,7.36-1.48s1.17.06,1.3.71a1.69,1.69,0,0,1-.92,1.74,23.08,23.08,0,0,1-5.11,2,20.4,20.4,0,0,0-3.81,1.36,92.26,92.26,0,0,0,1.49,16.2,18.47,18.47,0,0,0,.79,3.06C164.4,146.63,164.53,147,164.57,147.17Z"/><path class="cls-2" d="M185.1,143.27a6.91,6.91,0,0,1-5.9-1.44,9.31,9.31,0,0,1-3.34-5.74,21.68,21.68,0,0,1,1.79-13q3-6.81,8.79-7.94a7.74,7.74,0,0,1,6.79,1.74,11,11,0,0,1,3.75,6.56q1.22,6.22-2.67,12.51C191.71,140.14,188.65,142.58,185.1,143.27ZM180,134.65a7.17,7.17,0,0,0,1.79,3.75,3.16,3.16,0,0,0,3,1q3.57-.69,6.41-5.31a12.88,12.88,0,0,0,1.9-9.41,8,8,0,0,0-2.31-4.52,4.49,4.49,0,0,0-4.06-1.11c-2.57.5-4.48,2.51-5.71,6A18.29,18.29,0,0,0,180,134.65Z"/><path class="cls-2" d="M206.11,95.83c1.15-.23,1.86.4,2.15,1.87q.39,2-.26,9.75a71,71,0,0,0,0,10.65,74.34,74.34,0,0,0,1,8.94,62.77,62.77,0,0,0,2,7.76,8.73,8.73,0,0,1,.31,1.06,2.94,2.94,0,0,1-.42,2.22,2.43,2.43,0,0,1-1.55,1.2c-.85.16-1.54-.25-2.07-1.24a19.44,19.44,0,0,1-1.49-5,130,130,0,0,1-1.94-20.27q-.37-12.24.37-14.47T206.11,95.83Z"/><path class="cls-2" d="M223.2,129.09a20.06,20.06,0,0,0,1.3,4,3.43,3.43,0,0,1,.24.7c0,.28-.14.71-.57,1.27a2.59,2.59,0,0,1-1.55,1q-2.33.47-3.15-3.81a85,85,0,0,1-.9-14.3,35.22,35.22,0,0,0-.17-4.22,5.58,5.58,0,0,1,0-2.68,1.72,1.72,0,0,1,1.35-1.37,3,3,0,0,1,2,.21,1.7,1.7,0,0,1,1,1.17,7.21,7.21,0,0,1,0,2,91.59,91.59,0,0,0-.46,9.49A43.21,43.21,0,0,0,223.2,129.09Zm-2.07-27.38c-.34.06-.66-.25-1-.93a5.39,5.39,0,0,0-.41-.69,7.49,7.49,0,0,1-1.17-2.59,2.79,2.79,0,0,1,.76-2.17,3.84,3.84,0,0,1,2.33-1.49,3.08,3.08,0,0,1,1.67.24c.64.25,1,.54,1.06.87a11.23,11.23,0,0,1-.06,2.8,4.12,4.12,0,0,1-1.38,2.92A5,5,0,0,1,221.13,101.71Z"/><path class="cls-2" d="M241.08,132.37a6.91,6.91,0,0,1-5.9-1.44,9.25,9.25,0,0,1-3.33-5.74,21.6,21.6,0,0,1,1.78-13q3-6.81,8.79-7.94a7.74,7.74,0,0,1,6.79,1.74,11,11,0,0,1,3.75,6.56q1.22,6.23-2.67,12.51C247.69,129.24,244.63,131.68,241.08,132.37Zm-5.14-8.62a7.17,7.17,0,0,0,1.79,3.75,3.16,3.16,0,0,0,3,1c2.39-.46,4.52-2.23,6.41-5.31a12.78,12.78,0,0,0,1.89-9.41,7.94,7.94,0,0,0-2.3-4.52,4.49,4.49,0,0,0-4.06-1.11c-2.57.5-4.48,2.51-5.71,6A18.39,18.39,0,0,0,235.94,123.75Z"/><path class="cls-2" d="M18.06,251.46a42.49,42.49,0,0,1-6.66,7.08,12.81,12.81,0,0,1-4.78,2.73,4.12,4.12,0,0,1-4-1.27,8.56,8.56,0,0,1-2.15-4.37,35.77,35.77,0,0,1-.28-9.41c.29-3.81.62-6.1,1-6.88a2.75,2.75,0,0,1,2.14-1.47,1.27,1.27,0,0,1,1.26.58,3.74,3.74,0,0,1,.78,1.71,3.44,3.44,0,0,1-.25,1.66,27.83,27.83,0,0,0-.87,2.76c0,.17-.13,1.19-.36,3.07A16.19,16.19,0,0,0,4,252.79a12.52,12.52,0,0,0,.89,2.46c.48,1.1,1.14,1.57,2,1.41a8.86,8.86,0,0,0,3.09-1.44,20.4,20.4,0,0,0,3.84-3.47,17.37,17.37,0,0,0,2.69-3.58,7.08,7.08,0,0,0,.68-2.8,38.49,38.49,0,0,0-.72-6.32q-.78-4.83,1.39-5.25a1.8,1.8,0,0,1,1.82.36,6,6,0,0,1,.88,2.52c.21,1.06.39,2.39.56,4,.21,2,.38,3.47.49,4.33a88.24,88.24,0,0,1,.87,13.57,37.19,37.19,0,0,1-1.85,11.91q-1.77,5-6.39,5.88a14.92,14.92,0,0,1-8.83-.83c-2.76-1.17-4.24-2.31-4.47-3.45a3.62,3.62,0,0,1,.07-1.63c.15-.56.42-.87.8-.95.19,0,.43.07.71.33q4.08,4.21,10.81,2.9,3.48-.67,4.65-7.24a36.87,36.87,0,0,0,.37-11.94Q18.12,252.51,18.06,251.46Z"/><path class="cls-2" d="M38.23,257.55a6.94,6.94,0,0,1-5.9-1.43A9.28,9.28,0,0,1,29,250.37a21.56,21.56,0,0,1,1.78-13q3-6.81,8.79-7.94a7.77,7.77,0,0,1,6.79,1.73,11,11,0,0,1,3.75,6.56q1.22,6.22-2.67,12.51T38.23,257.55Zm-5.14-8.62a7.17,7.17,0,0,0,1.79,3.75,3.14,3.14,0,0,0,3,1q3.57-.69,6.41-5.31a12.88,12.88,0,0,0,1.9-9.41,8,8,0,0,0-2.31-4.51,4.47,4.47,0,0,0-4.06-1.12q-3.87.75-5.71,6A18.24,18.24,0,0,0,33.09,248.93Z"/><path class="cls-2" d="M69.73,244.48q-.3-1.56-4.52-2.8A36.71,36.71,0,0,1,57.85,239a4.47,4.47,0,0,1-2.36-3q-.93-4.77,3.24-8.84t7.19-4.66a4.73,4.73,0,0,1,3,.13,2.78,2.78,0,0,1,1.32,2.15,1.64,1.64,0,0,1-.38,1.4,2,2,0,0,1-.9.72,3.42,3.42,0,0,1-1.1-.16,3.33,3.33,0,0,0-1.07-.14c-.8.15-2.3,1.05-4.52,2.69s-3.19,3.2-2.9,4.67a3.18,3.18,0,0,0,1.77,2.18,23.51,23.51,0,0,0,5.17,1.77,17.88,17.88,0,0,1,4.86,1.93,4.6,4.6,0,0,1,2.29,3.14q.72,3.67-3.93,6.73a26,26,0,0,1-9.26,4c-2.59.5-4-.12-4.39-1.88a1.42,1.42,0,0,1,.61-1.51,4.09,4.09,0,0,1,1.68-.78,8.16,8.16,0,0,1,1.41,0,6.43,6.43,0,0,0,1.34,0,20.82,20.82,0,0,0,5.53-2C68.31,246.43,69.43,245.45,69.73,244.48Z"/><path class="cls-2" d="M82.1,240.31Q87.82,222.1,93.59,221a2.89,2.89,0,0,1,2.83,1.27q1.31,1.56,3.07,7.46,1.85,6.27,4.51,8.72a4.57,4.57,0,0,1,1.5,1.95,1.51,1.51,0,0,1-.5,1.29,2.58,2.58,0,0,1-1.43.82A4.09,4.09,0,0,1,99.86,241q-1.86-1.81-3.28-7a40,40,0,0,0-2.14-6.35c-.5-1-1.1-1.38-1.8-1.24q-2.52.5-7.58,15.13a37.49,37.49,0,0,1-2.35,5.79c-.57.95-1.14,1.48-1.73,1.6a2.72,2.72,0,0,1-1.9-.28,2,2,0,0,1-1-1.39,18.76,18.76,0,0,1-.12-2.67q0-15.78-1.21-31c-.19-2.37-.08-4,.34-4.87s.81-1.35,1.2-1.42a2.61,2.61,0,0,1,2,.47A3.18,3.18,0,0,1,81.59,210a49,49,0,0,1,.2,12.52q-.32,4-.34,10.12a56.25,56.25,0,0,0,.24,7.49.25.25,0,0,0,.32.24Z"/><path class="cls-2" d="M113.84,236.07a19.24,19.24,0,0,0,1.3,4,3,3,0,0,1,.23.7c.06.29-.13.71-.57,1.27a2.63,2.63,0,0,1-1.55,1q-2.32.45-3.15-3.82a86,86,0,0,1-.9-14.3,33.06,33.06,0,0,0-.17-4.22,5.58,5.58,0,0,1,0-2.68,1.74,1.74,0,0,1,1.35-1.37,3,3,0,0,1,2,.21,1.75,1.75,0,0,1,1,1.17,7.64,7.64,0,0,1,0,2,92.39,92.39,0,0,0-.47,9.49A43.35,43.35,0,0,0,113.84,236.07Zm-2.08-27.38c-.33.06-.66-.25-1-.93-.11-.21-.25-.44-.41-.69a7.4,7.4,0,0,1-1.18-2.58,2.8,2.8,0,0,1,.76-2.18,3.83,3.83,0,0,1,2.34-1.49,3.06,3.06,0,0,1,1.66.24c.64.25,1,.54,1.06.87a10.31,10.31,0,0,1-.06,2.8,4.07,4.07,0,0,1-1.37,2.92A5,5,0,0,1,111.76,208.69Z"/><path class="cls-2" d="M138.88,217q-2.22.48-7,15.06a45.29,45.29,0,0,1-1.94,5.39,3.78,3.78,0,0,1-1.36,1,6.7,6.7,0,0,1-1.75.66q-1.61.32-2.82-5.94a95.79,95.79,0,0,1-1-13.05,37.68,37.68,0,0,0-.42-5.46q-.31-1.57,1.11-1.86c1.77-.34,2.9.76,3.4,3.32a54,54,0,0,1,.49,7.22c.09,4.13.21,6.62.36,7.49a35.64,35.64,0,0,0,3.14-7.15q2.78-7.46,4.35-9.62a6,6,0,0,1,3.65-2.56c1-.2,2,.33,2.88,1.6s1.9,4.51,3.05,9.73a11.48,11.48,0,0,0,.93,2.85c.33.6.55.89.64.87.75-.14,1.89-3,3.4-8.62a28.23,28.23,0,0,1,2.72-6.92,5.72,5.72,0,0,1,3.82-2.93,3,3,0,0,1,3.21,1.45,20.41,20.41,0,0,1,2.43,5.68,57.18,57.18,0,0,0,2.53,7.07q1.39,3.17,3.6,3.7c1,.26,1.54.67,1.66,1.25a2.44,2.44,0,0,1-.82,1.94,3.56,3.56,0,0,1-1.94,1.3c-1.27.25-2.57-.31-3.88-1.68s-2.73-4.61-4.25-9.72a43.37,43.37,0,0,0-1.52-4.33c-.38-.84-.79-1.21-1.24-1.12-.67.13-1.34.92-2,2.38a77.24,77.24,0,0,0-2.93,8.65A43.91,43.91,0,0,1,149,231.5c-.63,1.17-1.32,1.83-2.09,2a2.54,2.54,0,0,1-2-.47,3.76,3.76,0,0,1-1.41-1.78q-.45-1.12-1.57-5.63C140.7,220.6,139.68,217.74,138.88,217Z"/><path class="cls-2" d="M178.47,223.48a19.05,19.05,0,0,0,1.3,4,3.12,3.12,0,0,1,.23.7c.06.29-.13.71-.57,1.27a2.55,2.55,0,0,1-1.54,1c-1.55.3-2.61-1-3.16-3.81a85.23,85.23,0,0,1-.89-14.3,34.28,34.28,0,0,0-.18-4.22,5.75,5.75,0,0,1,.05-2.69,1.76,1.76,0,0,1,1.35-1.37,3,3,0,0,1,2.05.22,1.74,1.74,0,0,1,1,1.16,7.66,7.66,0,0,1,0,2,92.55,92.55,0,0,0-.47,9.5A43.24,43.24,0,0,0,178.47,223.48Zm-2.08-27.38c-.33.07-.66-.24-1-.93-.11-.21-.25-.44-.41-.69a7.2,7.2,0,0,1-1.17-2.58,2.73,2.73,0,0,1,.75-2.17,3.83,3.83,0,0,1,2.34-1.49,3.06,3.06,0,0,1,1.66.24c.65.24,1,.53,1.07.87a10.89,10.89,0,0,1-.07,2.8,4,4,0,0,1-1.37,2.91A4.76,4.76,0,0,1,176.39,196.1Z"/><path class="cls-2" d="M216,223a7,7,0,0,1-5.9-1.44,9.28,9.28,0,0,1-3.33-5.74,21.58,21.58,0,0,1,1.78-13q3-6.81,8.79-7.94a7.76,7.76,0,0,1,6.79,1.73,11,11,0,0,1,3.75,6.56q1.22,6.24-2.67,12.51C222.59,219.82,219.52,222.25,216,223Zm-5.14-8.63a7.17,7.17,0,0,0,1.79,3.76,3.16,3.16,0,0,0,3,1q3.57-.69,6.4-5.31a12.82,12.82,0,0,0,1.9-9.41,7.92,7.92,0,0,0-2.31-4.51,4.47,4.47,0,0,0-4.06-1.11c-2.57.5-4.48,2.51-5.71,6A18.35,18.35,0,0,0,210.83,214.32Z"/><path class="cls-2" d="M251.74,205.73c-.22-.1-.66.45-1.34,1.66a21.86,21.86,0,0,1-4.69,5.64,12.9,12.9,0,0,1-5.9,3.21,4.37,4.37,0,0,1-3.64-.7,5.47,5.47,0,0,1-1.95-3.51,16.35,16.35,0,0,1,1.19-8.82,26.56,26.56,0,0,1,6.29-9.5q4.38-4.38,8.17-5.12a5.73,5.73,0,0,1,3.73.47l.71.35a3,3,0,0,1,1.06,1.1,4.4,4.4,0,0,1,.68,1.45,3.71,3.71,0,0,1-.05,1.16,46.88,46.88,0,0,0-.7,7q0,2.72.56,9a79.46,79.46,0,0,1,.42,8.8,19.08,19.08,0,0,1-1.29,6.27,12.31,12.31,0,0,1-3.38,5,10.13,10.13,0,0,1-4.76,2.38,15.41,15.41,0,0,1-9.44-1.37q-5-2.24-5.33-4.11c-.15-.78.07-1.23.66-1.34a8.81,8.81,0,0,1,2.84.91q6.36,2.67,10.87,1.79,3.93-.77,5.16-5.36T252,209C251.83,207.74,251.75,206.64,251.74,205.73Zm-2.61-13.14q-2,.39-4.68,3.1a25.29,25.29,0,0,0-4.73,7.33c-1.38,3.09-1.9,5.56-1.54,7.39a2,2,0,0,0,2.28,1.65c1.43-.28,3.14-1.37,5.15-3.29a19.87,19.87,0,0,0,4.72-7.28q1.72-4.4,1.29-6.63C251.27,193.09,250.44,192.33,249.13,192.59Z"/><path class="cls-2" d="M279.12,200.35a29.62,29.62,0,0,1-5.32,8.05,11.11,11.11,0,0,1-5.57,3.43,4.17,4.17,0,0,1-3.49-.94,6,6,0,0,1-2.13-3.74q-1.22-6.3,3-14.67t9.78-9.46a3.27,3.27,0,0,1,3.44,1.72,1.08,1.08,0,0,0,1.13.58c1.28-.25,2,.12,2.21,1.11a11.92,11.92,0,0,1,.16,2.08,66.31,66.31,0,0,0,.64,10.22c.76,3.87,1.94,6,3.56,6.52.78.25,1.22.65,1.33,1.21a2,2,0,0,1-.74,1.7,3.4,3.4,0,0,1-1.84,1.14q-1.84.36-3.54-1.94A17.79,17.79,0,0,1,279.12,200.35ZM275,187.15q-3.17.61-6.21,7.36t-2.27,10.65c.35,1.84,1.14,2.64,2.35,2.4q2.64-.51,6.28-6.74T278,190.13C277.51,187.85,276.54,186.85,275,187.15Z"/><path class="cls-2" d="M298.52,180.53c1.62-.45,3.14-.9,4.56-1.36a35.2,35.2,0,0,1,3.55-.94,5,5,0,0,1,2.37-.11,1.33,1.33,0,0,1,.7,1.08c.26,1.3-.51,2.17-2.29,2.64-2.29.59-4.39,1.21-6.29,1.84a11,11,0,0,0-3,1.25,42.83,42.83,0,0,0-.34,6,44.08,44.08,0,0,0,.15,7.32,6.31,6.31,0,0,0,1.38,3.37,2.57,2.57,0,0,0,2.26.47q2.06-.41,5.12-4.21c.78-1,1.43-1.59,1.94-1.69.68-.14,1.1.17,1.24.9q.34,1.72-2.45,5.12a10.76,10.76,0,0,1-6.26,4.06q-5.79,1.14-7.12-5.7a38.26,38.26,0,0,1-.3-7.88,44.42,44.42,0,0,0,0-6.41c0-.24-.26-.32-.64-.24l-2.45.7c-2.05.39-3.23-.22-3.54-1.85a1.27,1.27,0,0,1,1.14-1.67l4.94-1a1.11,1.11,0,0,0,.79-.63,11.7,11.7,0,0,0,.54-3.27c.15-1.83.26-3.63.31-5.4s.65-2.73,1.76-2.95a2,2,0,0,1,1.75.41,2.22,2.22,0,0,1,.84,1.22,32.34,32.34,0,0,1-.2,3.6Z"/><path class="cls-2" d="M330.94,190.26a29.86,29.86,0,0,1-5.33,8.05,11.11,11.11,0,0,1-5.57,3.43,4.13,4.13,0,0,1-3.49-.94,6,6,0,0,1-2.12-3.74q-1.23-6.3,3-14.67t9.78-9.45a3.26,3.26,0,0,1,3.44,1.71,1.06,1.06,0,0,0,1.13.58c1.28-.25,2,.12,2.21,1.11a12,12,0,0,1,.16,2.09,66.41,66.41,0,0,0,.64,10.22c.76,3.86,1.94,6,3.56,6.52a1.68,1.68,0,0,1,1.33,1.21,2,2,0,0,1-.74,1.69,3.49,3.49,0,0,1-1.84,1.15q-1.84.36-3.54-1.95A17.74,17.74,0,0,1,330.94,190.26Zm-4.09-13.2q-3.17.62-6.21,7.36t-2.27,10.65c.35,1.84,1.14,2.64,2.35,2.41,1.76-.35,3.85-2.59,6.28-6.75s3.35-7.71,2.77-10.68C329.32,177.76,328.35,176.77,326.85,177.06Z"/></g></g></svg>