<svg xmlns="http://www.w3.org/2000/svg" viewBox="0 0 427.02 516.26"><defs><style>.cls-1{font-size:35px;letter-spacing:0.09em;}.cls-1,.cls-2{fill:#f9f7f7;}.cls-1,.cls-2,.cls-3{font-family:ComicSansMS, Comic Sans MS;}.cls-2{font-size:40px;letter-spacing:0.13em;}.cls-3{font-size:50px;}.cls-3,.cls-5{fill:#fff;}.cls-4{font-size:8.77px;letter-spacing:0.09em;}.cls-10,.cls-4,.cls-9{fill:#f9f9f9;font-family:UDDigiKyokashoN-B, UD Digi Kyokasho N-B;}.cls-6,.cls-7,.cls-8{fill:none;stroke:#fff;stroke-miterlimit:10;}.cls-6{stroke-width:1.5px;}.cls-7{stroke-width:0.5px;}.cls-9{font-size:9.7px;letter-spacing:0.11em;}.cls-10{font-size:8.16px;letter-spacing:0.11em;}</style></defs><g id="レイヤー_2" data-name="レイヤー 2"><g id="レイヤー_1-2" data-name="レイヤー 1"><g id="レイヤー_4" data-name="レイヤー 4"><text class="cls-1" transform="translate(26.85 290.05)">yoshimi</text><text class="cls-2" transform="translate(241.85 290.05)">ogata</text><text class="cls-3" transform="translate(47.83 176.37) rotate(-46.35)">p</text><text class="cls-3" transform="matrix(0.83, -0.56, 0.56, 0.83, 80.84, 144.82)">o</text><text class="cls-3" transform="translate(119.61 121.46) rotate(-21.62)">r</text><text class="cls-3" transform="translate(160.34 107.46) rotate(-9.77)">t</text><text class="cls-3" transform="translate(202.54 102.14) rotate(2.35)">f</text><text class="cls-3" transform="matrix(0.97, 0.25, -0.25, 0.97, 246.72, 105.97)">o</text><text class="cls-3" transform="translate(290.03 119.85) rotate(25.51)">l</text><text class="cls-3" transform="translate(319.2 135.49) rotate(34.78)">i</text><text class="cls-3" transform="translate(345.74 155.45) rotate(45.74)">o</text><text class="cls-4" transform="translate(154.98 250.12)">the statue of liberty</text><circle class="cls-5" cx="223.18" cy="189.56" r="2.91"/><circle class="cls-5" cx="190.46" cy="189.63" r="2.91"/><path class="cls-5" d="M171.85,184.71a60.09,60.09,0,0,0,11.22-.57,53.42,53.42,0,0,0,11.16-3.23c5.94-2.42,12-5.79,14.86-11.85.38-.8-.82-1.5-1.18-.7-2.74,6.08-8.9,9.46-14.83,11.82a55.44,55.44,0,0,1-21.23,4.1c-.27,0-.27.42,0,.43Z"/><path class="cls-5" d="M245,185.59a55.36,55.36,0,0,1-21.36-3.29c-6-2.12-12.3-5.26-15.27-11.23-.39-.79-1.59-.09-1.18.7,3.05,5.94,9.25,9.11,15.29,11.3a55.54,55.54,0,0,0,11.05,2.77A57.09,57.09,0,0,0,245,186c.27,0,.28-.45,0-.43Z"/><path class="cls-5" d="M169.45,198.42c-4.71-7.57.14-16.54,5.87-22a41.24,41.24,0,0,1,22.34-10.3c9.67-1.42,19.57.24,28.8,3.22,8,2.59,17.18,6,22.48,12.89,4.49,5.86,5.17,16.29-2.13,20.36-.95.52-.1,2,.86,1.45,6.53-3.65,7.67-12.48,4.91-18.89-3.57-8.3-12.7-12.56-20.65-15.57-10.07-3.8-20.94-6.25-31.76-5.25a43.43,43.43,0,0,0-24.32,9.89,27.88,27.88,0,0,0-8.37,11.64c-1.47,4.25-1.65,9.34,1.66,12.76a.2.2,0,0,0,.31-.24Z"/><path class="cls-5" d="M255.77,189.41c2.13-3.07,1.36-6.47.09-9.75a38.16,38.16,0,0,0-5.81-10.17c-5.39-6.72-13.42-10.42-21.48-12.92-16.06-5-33.83-4.08-48.66,4.15a54.48,54.48,0,0,0-5.54,3.52c-.83.6-1.65,1.22-2.43,1.89s-1.48,1.59-2.27,2.35a56.81,56.81,0,0,0-8.07,9.89c-.18.27.26.53.44.25a39.87,39.87,0,0,1,7-8.34,66.93,66.93,0,0,1,8.65-6.5,55.27,55.27,0,0,1,20.39-8,63,63,0,0,1,24.76.7c7.83,1.75,16.3,4.68,22.46,10a34.31,34.31,0,0,1,7.84,10.1,31.7,31.7,0,0,1,2.53,5.87c.59,2,1,4.76-.56,6.41a.43.43,0,1,0,.68.52Z"/><path class="cls-5" d="M178.08,205.71c-1.08,4.38-4.3,7.5-6.71,11.16-1.92,2.92-3.23,6.47-2,9.93a6,6,0,0,0,7.16,4.06,5.24,5.24,0,0,0,3.6-2.87,2,2,0,0,0-1.9-2.94c-.87.08-.87,1.44,0,1.36.68.31.88.7.61,1.14a1.76,1.76,0,0,1-.4.65,4,4,0,0,1-.88.77,4.69,4.69,0,0,1-1.71.68,4.42,4.42,0,0,1-3.91-1.14c-2-1.88-2.11-5-1.31-7.43,1.82-5.57,7.58-9.19,8.14-15.28,0-.4-.6-.47-.7-.09Z"/><path class="cls-5" d="M174.65,201.83a14.7,14.7,0,0,1-4,4.23,12.13,12.13,0,0,1-5.62,2.34c-3.28.52-6.58,1.65-8.85,4.22a7.82,7.82,0,0,0-1.75,7.64c.77,2.41,2.84,4.5,5.51,4.42a3.91,3.91,0,0,0,3.55-2.16,2.93,2.93,0,0,0-1-3.71c-.57-.3-1.22.46-.71.92,1.69,1.56.2,3.63-1.79,3.71a4.23,4.23,0,0,1-3.64-2,6.65,6.65,0,0,1,1-8.37c2.73-2.83,6.4-3.24,10-4.26a10.3,10.3,0,0,0,4.2-2.33c1.4-1.25,2.37-3,3.79-4.16.45-.38-.36-1-.64-.49Z"/><path class="cls-5" d="M231.67,209.42c.56,2.28,2.92,3.29,4.82,4.27a14,14,0,0,1,6.1,6c1.39,2.66,2.08,6.2,1,9.09a5.79,5.79,0,0,1-6.88,3.38,4.68,4.68,0,0,1-3.66-3.36,2.11,2.11,0,0,1,2.93-2.34c.52.18.87-.53.52-.89a2.62,2.62,0,0,0-3.47.1,3.45,3.45,0,0,0-1.14,3.88c1,3.21,4.83,4.53,7.9,3.87,7.93-1.69,5.93-12.32,2-16.87a13.56,13.56,0,0,0-4.87-3.54c-1.87-.82-4.19-1.52-4.83-3.7a.2.2,0,0,0-.38.1Z"/><path class="cls-5" d="M236.36,202.92c.91,2.46,3.8,2.69,6.07,2.89a15.93,15.93,0,0,1,9,4.22,17.46,17.46,0,0,1,5.2,8,16.37,16.37,0,0,1,.59,5.26,20.92,20.92,0,0,1-.77,6.06c-.4,1.11-1.32,2.38-2.65,2.34-1.15-.05-2.07-1.19-2.69-2s-1.47-2.35-.92-3.53c.38-.85,1.66-1.49,2.43-.77a.63.63,0,0,0,.89-.9,2.7,2.7,0,0,0-3.84.18c-1.38,1.34-1.08,3.35-.22,4.89s2.42,3.43,4.35,3.44,3.28-1.61,3.83-3.28a23.41,23.41,0,0,0,.79-7.55,16.6,16.6,0,0,0-1.28-6A18,18,0,0,0,243.42,205c-1.9-.34-5.53,0-6.19-2.33-.16-.57-1.08-.3-.87.24Z"/><path class="cls-5" d="M112.11,175a53.39,53.39,0,0,0,2.1,7.06c.77,2.33,1.63,4.64,2.46,7l4.86,13.68q4.91,13.8,9.58,27.68c.87,2.56,4.95,1.44,4.06-1.12q-4.87-14-9.91-27.84-2.51-7-5.11-13.87c-.86-2.31-1.7-4.64-2.65-6.91a55.11,55.11,0,0,0-3-6.65,1.32,1.32,0,0,0-2.4,1Z"/><path class="cls-5" d="M103.32,161.61a2.62,2.62,0,0,0,.22.25c.08.08.11.09.06,0l.08.15c.11.2.19.41.28.62.17.39.33.78.47,1.19a10.72,10.72,0,0,1,.32,1.27c0,.22,0,.45.09.67a2.19,2.19,0,0,0,.17.68.46.46,0,0,0,.83-.11.78.78,0,0,0,0-.37c0-.12,0-.23,0-.34s-.07-.43-.11-.64a9,9,0,0,0-.35-1.26,8.1,8.1,0,0,0-1.23-2.3l0,.18a1.13,1.13,0,0,0-.23-.57c-.32-.53-1.1,0-.69.54Z"/><path class="cls-5" d="M101.33,161.64a2,2,0,0,0,2.43-.59c.82-.84,1.23-2,2.47-2.31,1.48-.41,3.71.32,4.58-1.4l-1-.13a26.06,26.06,0,0,0,3.24,6.9c.45.7,1.6,0,1.12-.66a29,29,0,0,1-3.32-6.52c-.17-.46-.93-.58-1,0-.16.76-.86.89-1.54,1a17.34,17.34,0,0,0-2.24.43,3.35,3.35,0,0,0-1.74,1.32c-.61.81-1.55,2.31-2.77,1.63-.22-.12-.42.22-.2.34Z"/><path class="cls-5" d="M102.26,161.72c-3.66-2.19-2.51-7-1.48-10.31a20.24,20.24,0,0,0,1.19-5.84,13.54,13.54,0,0,0-1.37-5.9l-1.06.61a30.55,30.55,0,0,0,6.86,8.48c2.77,2.54,5.54,5.81,3.68,9.72a.58.58,0,0,0,1,.58c2.33-3,0-7.28-2.21-9.59-1.44-1.49-3.07-2.76-4.47-4.29a25.39,25.39,0,0,1-3.8-5.51c-.37-.7-1.39-.09-1.06.61a12,12,0,0,1,1,7.25c-.38,2.24-1.32,4.34-1.77,6.57-.62,3-.18,7,3,8.41a.46.46,0,0,0,.46-.79Z"/><path class="cls-5" d="M124.72,214.57c-1-1.69-3.62-.74-4.27.8-1,2.38,1.11,4.7,3.15,5.6a17.85,17.85,0,0,0,2.33.81c.79.23,1.6.56,2.41.71a.41.41,0,0,0,.31-.74,6.69,6.69,0,0,0-1.68-.58c-.58-.16-1.17-.31-1.75-.48a7.7,7.7,0,0,1-3-1.54,3.62,3.62,0,0,1-1.36-2.69,2.18,2.18,0,0,1,1.3-1.86,1.88,1.88,0,0,1,2.26.21.2.2,0,0,0,.31-.24Z"/><path class="cls-5" d="M133.05,217a.19.19,0,1,0,0-.39.19.19,0,0,0,0,.39Z"/><path class="cls-5" d="M133.81,217.44a9.79,9.79,0,0,1,2.46,1.54,4.5,4.5,0,0,1,1.51,2.18c.31,1.3-.67,3.2-2.19,2.85a.5.5,0,0,0-.26,1c1.54.62,2.93-.91,3.29-2.26a3.91,3.91,0,0,0-1.94-4.18A22.05,22.05,0,0,0,134,217.1c-.23-.11-.43.23-.2.34Z"/><path class="cls-5" d="M141.46,225.1c.27.07.53.15.8.24l.4.12c.14,0,.26.1.4.13s.54.13.81.19a4.45,4.45,0,0,1,.82.19.39.39,0,0,0,.49-.32.4.4,0,0,0-.39-.45,4.29,4.29,0,0,1-.78-.15l-.8-.15c-.14,0-.29,0-.44,0l-.38-.05c-.27,0-.55,0-.83-.1s-.35.32-.1.38Z"/><path class="cls-5" d="M141.12,226.07l.46,0a.21.21,0,0,0,.13-.05.19.19,0,0,0,0-.28.15.15,0,0,0-.13,0l-.46,0a.18.18,0,0,0-.14.06.22.22,0,0,0-.06.13.18.18,0,0,0,.06.14.25.25,0,0,0,.14.06Z"/><path class="cls-5" d="M141.39,225.8c0-.12,0-.23-.08-.35a1.77,1.77,0,0,1-.05-.32l0,.13a.63.63,0,0,0,.07-.38c0-.08,0-.16,0-.24l0,.29a.61.61,0,0,0,.07-.57l-.08-.3v0c0-.09,0-.18-.05-.27a2.87,2.87,0,0,1,0-.31.54.54,0,0,0-.26-.33.58.58,0,0,0-.5,0,.56.56,0,0,0-.26.79c-.06-.13,0,0,0,.08l0,.12s.11.28.08.19,0,0,0,0l0,.08.09.3a1.21,1.21,0,0,0,.09.2.6.6,0,0,0,.35.25l-.26-.27.09.23a.57.57,0,0,0,.25.28l-.1-.09a3.54,3.54,0,0,1,.25.64.2.2,0,0,0,.38-.1Z"/><path class="cls-5" d="M137.42,226.06c1.27,2.86,2.31,5.79,3.47,8.69.55,1.38,1.1,2.77,1.61,4.17.26.7.5,1.4.76,2.1a4.8,4.8,0,0,0,.87,1.82.49.49,0,0,0,.83-.34,5.22,5.22,0,0,0-.64-2.11c-.3-.74-.63-1.47-.94-2.21-.55-1.32-1.1-2.64-1.67-4-1.22-2.83-2.64-5.57-3.94-8.36-.11-.23-.45,0-.35.2Z"/><path class="cls-5" d="M280,212.06a8.59,8.59,0,0,1,3.63,4.06,23.46,23.46,0,0,1,1.7,5.63q.78,3.9,1.2,7.85c.26,2.43.17,5,.57,7.36.15.87,1.35.56,1.43-.19.29-2.77-.28-5.84-.64-8.59a81.79,81.79,0,0,0-1.43-8.08,17.55,17.55,0,0,0-2.06-5.39,6.47,6.47,0,0,0-4.23-3c-.23-.06-.39.29-.17.39Z"/><path class="cls-5" d="M279.09,211.4a14,14,0,0,0-5,6.31c-.48,1.14-.79,2.32-1.2,3.48a8.73,8.73,0,0,1-.76,1.64,16,16,0,0,1-1.2,1.38.53.53,0,0,0,.51.88,4.1,4.1,0,0,0,2.23-2.48c.5-1.15.79-2.37,1.2-3.55a18.7,18.7,0,0,1,4.76-6.95c.36-.36-.1-1-.54-.71Z"/><path class="cls-6" d="M200.17,198s6.78,11.38,12.25.47"/><path class="cls-7" d="M208.68,192.38s-1.5-2.53-2.72-.11"/><path class="cls-5" d="M281.72,212c.42-.8.68-1.68,1-2.5a23.24,23.24,0,0,1,1.28-2.42,22.13,22.13,0,0,1,3.45-4.32,11.15,11.15,0,0,1,2.17-1.76c.45-.25.65-.23.85.24a3.19,3.19,0,0,1,.19,1.15,13.44,13.44,0,0,1-.93,5.46,13.66,13.66,0,0,1-3.5,5.09c-.69.64.34,1.67,1,1a14.92,14.92,0,0,0,4.77-11.79,3.1,3.1,0,0,0-1-2.46c-1-.64-1.83,0-2.59.58a25.07,25.07,0,0,0-4.49,4.77,23.3,23.3,0,0,0-1.9,3.28,11,11,0,0,0-1.16,3.43c0,.43.62.58.82.22Z"/><path class="cls-5" d="M181,197.53a12.58,12.58,0,0,0,6,9.66c3.94,2.59,8.79,3.36,13.37,4.07a43.06,43.06,0,0,0,14.37.21,34.19,34.19,0,0,0,13-5.31c3.59-2.44,7.8-6.21,6.77-11-.15-.72-1.25-.41-1.1.3.92,4.31-3.26,7.75-6.42,9.86a33.25,33.25,0,0,1-11.27,4.82,37.37,37.37,0,0,1-13.38.28c-4.16-.57-8.52-1.17-12.38-2.91s-7.59-5.34-7.82-9.95c0-.73-1.18-.73-1.14,0Z"/><path class="cls-5" d="M204.46,164v-5.38a.7.7,0,0,1,.09-.43.74.74,0,0,1,.62-.2h3.36a1.19,1.19,0,0,1,.53.09c.3.17.35.58.37.92l.25,4.46a1.08,1.08,0,0,1-.24.93,1.12,1.12,0,0,1-.83.12,27.22,27.22,0,0,0-3.83-.18"/><path class="cls-5" d="M213.71,164.46l1-5.28a.72.72,0,0,1,.17-.41.77.77,0,0,1,.65-.08l3.3.63a1.09,1.09,0,0,1,.5.19,1.05,1.05,0,0,1,.19,1l-.59,4.43c-.05.33-.12.71-.42.87a1.17,1.17,0,0,1-.84,0,26.22,26.22,0,0,0-3.72-.91"/><path class="cls-5" d="M200.2,164.31l-1.26-5.23a.76.76,0,0,0-.19-.39.7.7,0,0,0-.65-.05l-3.27.78a1.08,1.08,0,0,0-.49.21,1,1,0,0,0-.14,1L195,165c.06.33.15.71.45.85a1.08,1.08,0,0,0,.84-.08,29.64,29.64,0,0,1,3.67-1.08"/><path class="cls-5" d="M222.34,166.22l1.31-5.21a.79.79,0,0,1,.19-.4.76.76,0,0,1,.66,0l3.26.82a.79.79,0,0,1,.62,1.19l-.84,4.39c-.07.33-.17.7-.47.84a1.1,1.1,0,0,1-.83-.08,27.73,27.73,0,0,0-3.67-1.12"/><path class="cls-5" d="M190.74,166.73l-2-5a.67.67,0,0,0-.25-.36.72.72,0,0,0-.65,0l-3.12,1.27a1,1,0,0,0-.44.28,1,1,0,0,0,0,1l1.44,4.22c.11.32.26.68.58.77a1,1,0,0,0,.81-.2,27.5,27.5,0,0,1,3.48-1.62"/><path class="cls-5" d="M229.86,168.63l2.08-4.95a.67.67,0,0,1,.25-.36.72.72,0,0,1,.65.05l3.1,1.3a.79.79,0,0,1,.43,1.28l-1.49,4.21c-.12.31-.27.67-.59.76a1.1,1.1,0,0,1-.81-.21,27.48,27.48,0,0,0-3.46-1.66"/><path class="cls-5" d="M182.39,169.63,180,165.69a.59.59,0,0,0-.27-.27.74.74,0,0,0-.6.17l-2.76,1.7a1.11,1.11,0,0,0-.38.33.87.87,0,0,0,.11.86l1.8,3.39c.14.25.32.54.63.56a1.18,1.18,0,0,0,.73-.34,30.26,30.26,0,0,1,3.05-2.07"/><path class="cls-5" d="M237.54,172.28l2.42-4.8a.7.7,0,0,1,.27-.34c.2-.11.44,0,.65.1l3,1.51a1,1,0,0,1,.43.31,1.07,1.07,0,0,1-.08,1l-1.78,4.09c-.14.31-.32.66-.64.73a1.11,1.11,0,0,1-.8-.27,26.66,26.66,0,0,0-3.33-1.89"/><path class="cls-5" d="M176.07,174l-3.32-3.46a.66.66,0,0,0-.32-.23.59.59,0,0,0-.5.24l-2.06,2a.89.89,0,0,0-.27.37c-.07.28.14.57.34.81l2.6,3c.2.23.44.48.73.46a.89.89,0,0,0,.58-.41,21.69,21.69,0,0,1,2.22-2.37"/><path class="cls-5" d="M245.28,176.7l2.49-3.2a.56.56,0,0,1,.25-.21.55.55,0,0,1,.47.17l2,1.56a.8.8,0,0,1,.26.29.79.79,0,0,1-.2.72l-1.92,2.77c-.14.2-.33.43-.58.44a.87.87,0,0,1-.55-.32,20.65,20.65,0,0,0-2.18-1.89"/><path class="cls-5" d="M161.55,178.4a4.36,4.36,0,0,0-.05,3,26.34,26.34,0,0,0,1.14,3.23,29.46,29.46,0,0,0,3.31,5.93c.42.59,1.41,0,1-.58a29.88,29.88,0,0,1-3-5.2,28.18,28.18,0,0,1-1.07-2.82,4.42,4.42,0,0,1-.32-3c.28-.67-.7-1.26-1-.58Z"/><path class="cls-5" d="M222.56,197.11a1,1,0,0,0,0,.17c0,.1,0,.24,0,.31a1.54,1.54,0,0,0,0,.3.43.43,0,0,0,0,.11,4,4,0,0,0,.25.65l-.16-.6v0l.17-.61c0,.1-.09.2-.13.3l0,.32a1.23,1.23,0,0,0,.17.62.45.45,0,0,0,.1.14l.17.21.17.17c.14.11.28.23.43.33a2.21,2.21,0,0,0,.5.21.91.91,0,0,0,.49,0,.82.82,0,0,0,.45-.14l.24-.19a.9.9,0,0,0,.25-.39.54.54,0,0,0,.08-.3.9.9,0,0,0,0-.49l-.12-.29a1.26,1.26,0,0,0-.43-.43l0,0,.25.19c-.13-.1-.25-.21-.39-.3a.91.91,0,0,1-.16-.11l.25.19-.19-.16-.08-.08a1,1,0,0,0-.42-.27.84.84,0,0,0-.47-.11,1.26,1.26,0,0,0-.33,0h.62l.29.12-.09-.06.23.18a1.7,1.7,0,0,1-.24-.22,4.35,4.35,0,0,0-.42-.33l.18.15,0,0a1.07,1.07,0,0,0-.4-.23,1,1,0,0,0-.48,0,.93.93,0,0,0-.62.63Z"/><path class="cls-5" d="M226.34,197.7l0,0-.18-.23a1.9,1.9,0,0,1,.23.39l-.13-.31a2,2,0,0,0,.2.45,1.09,1.09,0,0,1,.08.15,1,1,0,0,0,.34.37,1,1,0,0,0,.45.24,1,1,0,0,0,.53,0,1,1,0,0,0,.49-.15l.26-.21a1.23,1.23,0,0,0,.34-.58l.05-.35a1.32,1.32,0,0,0-.18-.67l-.11-.19-.21-.26h0l-.27-.21h0l0,0-.09,0L228,196l-.19-.08-.18-.08a4.71,4.71,0,0,0-.5-.08l-.3,0-.27.11-.22.18a.77.77,0,0,0-.23.36.54.54,0,0,0-.08.28.51.51,0,0,0,0,.3.57.57,0,0,0,.08.28.77.77,0,0,0,.23.36Z"/><path class="cls-5" d="M185.44,200.75a1.21,1.21,0,0,1,0,.19,5,5,0,0,0,.07.54,1.6,1.6,0,0,0,1.15,1.19,1.1,1.1,0,0,0,.54,0,1.19,1.19,0,0,0,.87-.5,1.15,1.15,0,0,0,.25-.46l0-.36a1.36,1.36,0,0,0-.18-.68l-.21-.27a1.41,1.41,0,0,0-.59-.34h0l.32.14-.08-.05.28.21a.17.17,0,0,1-.06-.06,2.69,2.69,0,0,0-.33-.26l.27.21a2.15,2.15,0,0,1-.32-.35l-.24-.18-.28-.12-.31,0a.91.91,0,0,0-.46.1.68.68,0,0,0-.26.15.7.7,0,0,0-.21.21.68.68,0,0,0-.15.26.89.89,0,0,0-.1.46Z"/><path class="cls-5" d="M189,199.3a.35.35,0,0,1,0,.11.94.94,0,0,0,0,.2.9.9,0,0,0,0,.22,2.72,2.72,0,0,0,0,.28,1.48,1.48,0,0,0,.05.39c0,.1.1.25.15.37l.06.13.06.14a1,1,0,0,0,.37.41.72.72,0,0,0,.19.13,1.22,1.22,0,0,0,.65.18.93.93,0,0,0,.49-.11.87.87,0,0,0,.41-.27,1.23,1.23,0,0,0,.33-.56v-.06a1,1,0,0,0,0-.53l0-.2-.13-.32,0,0,0-.06-.06-.13,0-.05a1.07,1.07,0,0,0-.13-.19,1.37,1.37,0,0,0-.19-.22l-.09-.08-.1-.09a.69.69,0,0,0-.13-.11,1,1,0,0,0-.4-.21h0l.26.11-.11-.05a.94.94,0,0,0-.51-.14.8.8,0,0,0-.4.08.85.85,0,0,0-.32.21,1,1,0,0,0-.27.46Z"/><path class="cls-5" d="M197.53,155.38a159.27,159.27,0,0,0,11.2-32.47h-1.55l10.23,31.39c.32,1,1.87.56,1.55-.43l-10.23-31.39a.81.81,0,0,0-1.55,0,157.7,157.7,0,0,1-11,32.09c-.44.93,1,1.75,1.39.81Z"/><path class="cls-5" d="M230.37,156.57a25.65,25.65,0,0,1,3.27-5.47,53.48,53.48,0,0,0,3.64-4.45c2.21-3.3,3.58-7.07,5.86-10.33l-1.5-.41q1.29,13.91,2.39,27.83c.08,1,1.69,1,1.61,0q-1.11-13.92-2.39-27.83a.81.81,0,0,0-1.5-.4c-2.28,3.26-3.65,7-5.86,10.33-1.15,1.73-2.65,3.16-3.93,4.78a28.57,28.57,0,0,0-3,5.13c-.45.93.94,1.75,1.39.82Z"/><path class="cls-5" d="M252.68,172.61a98.63,98.63,0,0,1,6-9l6.38-9.2-1.47-.62L256,181a.81.81,0,0,0,1.56.43l7.59-27.2a.81.81,0,0,0-1.47-.62l-6.38,9.2a97.25,97.25,0,0,0-6,9c-.49.91.9,1.72,1.39.81Z"/><path class="cls-5" d="M189.25,156.44c-7.39-6.46-16.58-10.58-23.46-17.65a.81.81,0,0,0-1.37.57c-.34,4.18,1.9,8.15,3.5,11.87l5.35,12.54c.41.95,1.8.13,1.39-.81l-5-11.67c-1.59-3.71-4-7.77-3.65-11.93l-1.38.57c6.89,7.08,16.07,11.19,23.46,17.65.78.67,1.92-.46,1.14-1.14Z"/><path class="cls-5" d="M166.68,170.1c-5.18-4-10.35-8-15.48-12a.81.81,0,0,0-1.14,1.14c4.56,5.58,5.67,13.09,9.81,18.94.59.84,2,0,1.39-.81-4.23-6-5.4-13.56-10.06-19.27l-1.14,1.14q7.86,6.19,15.81,12.28c.82.63,1.62-.77.81-1.39Z"/><path class="cls-5" d="M296.19,229.34c8.6-3,17.77-3.19,26.71-4.55.73-.11.42-1.22-.31-1.11-8.93,1.36-18.1,1.53-26.71,4.55-.69.25-.4,1.36.31,1.11Z"/><path class="cls-5" d="M290.28,206.38c1,6.93,2.07,13.87,3.21,20.78.12.73,1.23.42,1.11-.31-1.14-6.91-2.19-13.84-3.21-20.78-.1-.73-1.21-.42-1.11.31Z"/><path class="cls-5" d="M287.9,189.8q.77,5.28,1.51,10.56c.11.73,1.22.42,1.11-.31q-.75-5.28-1.51-10.56c-.1-.73-1.21-.42-1.11.31Z"/><path class="cls-5" d="M313.06,180.71a5.2,5.2,0,0,0-2.77-.06c-1,.1-2,.24-3,.39a40.71,40.71,0,0,0-6.73,1.52,24.51,24.51,0,0,0-5.82,2.72c-1.86,1.23-3.57,2.76-5.84,3.15-1.05.18-.61,1.79.44,1.61a13.79,13.79,0,0,0,5.43-2.79,24.88,24.88,0,0,1,6-3.12A42.6,42.6,0,0,1,307,182.5c1.14-.22,2.28-.39,3.42-.58a5.35,5.35,0,0,0,2.66-.76.28.28,0,0,0-.06-.45Z"/><path class="cls-5" d="M313.82,180.85c.31,1.78.16,3.65.41,5.45s.65,3.56,1,5.33c.8,3.49,1.7,7,2.45,10.47,1.54,7.18,2.55,14.43,3.81,21.66.15.81,1.53.63,1.45-.2a170.4,170.4,0,0,0-3.78-21.37c-.79-3.5-1.66-7-2.51-10.46-.41-1.68-.78-3.37-1.14-5.07-.4-1.89-1.11-4-1.05-5.9,0-.49-.78-.43-.69.09Z"/><path class="cls-5" d="M289,188.49a8.64,8.64,0,0,0-1.15-.21,8.13,8.13,0,0,0-1.09-.14,3.17,3.17,0,0,1-1.9-.59c-.93-.77-1.74-2.11-3.11-2a.67.67,0,0,0,0,1.34,2.22,2.22,0,0,1,1.21.7,7.1,7.1,0,0,0,1.46,1.16,3.52,3.52,0,0,0,2.1.32c.37,0,.73-.14,1.1-.21a2.52,2.52,0,0,1,1.28,0,.2.2,0,0,0,.1-.38Z"/><path class="cls-5" d="M283.38,183.71c-.23.11-.81.55-1.09.48a.52.52,0,1,0-.14,1c1.92.07,3.72-1.71,5.2-2.75,1.82-1.27,3.58-2.7,5.49-3.82a42,42,0,0,1,6.23-2.61l3.25-1.27a6.3,6.3,0,0,0,2.64-1.3.61.61,0,0,0-.42-1c-1-.11-2.12.57-3.06.94l-3.24,1.28a56.38,56.38,0,0,0-5.5,2.29,41.29,41.29,0,0,0-5.06,3.48c-1.82,1.32-3.57,2.91-5.67,3.76l.6.77c.15-.26.84-.38,1.1-.48a.42.42,0,1,0-.33-.77Z"/><path class="cls-5" d="M305.34,173c0,.39-.18.75-.2,1.15a3.73,3.73,0,0,0,.14,1.2,4.76,4.76,0,0,0,1.16,2c.85.89,2.65,2,2.28,3.44a.66.66,0,0,0,1.27.35c.43-1.7-.78-3-1.95-4.07a6.27,6.27,0,0,1-1.49-1.72,8,8,0,0,1-.44-1.11,5.13,5.13,0,0,1-.38-1.29.2.2,0,0,0-.39,0Z"/><path class="cls-5" d="M285.63,213.89a92.86,92.86,0,0,1,1.87,9.48.6.6,0,0,0,.57.58.59.59,0,0,0,.58-.58,92.8,92.8,0,0,0-1.91-9.78.58.58,0,0,0-1.11.3Z"/><path class="cls-5" d="M280.82,188.29c0,6,1.31,11.92,2.78,17.73a.58.58,0,0,0,1.11-.31A72.48,72.48,0,0,1,282,188.29a.58.58,0,0,0-1.15,0Z"/><path class="cls-5" d="M287.32,223.15a3.25,3.25,0,0,1,1.07.53,8,8,0,0,0,.95.53,16.59,16.59,0,0,1,2,1.17,11.23,11.23,0,0,1,1.7,1.45,7.93,7.93,0,0,0,1.82,1.6c.62.32,1.4-.54.8-1s-1.23-1.07-1.82-1.65a14,14,0,0,0-1.89-1.54,10.05,10.05,0,0,0-2.09-1.07,3.76,3.76,0,0,0-1.18-.28c-.19,0-.37,0-.56,0a5.65,5.65,0,0,1-.7-.11.2.2,0,0,0-.1.38Z"/><ellipse class="cls-8" cx="111.19" cy="170.6" rx="9.12" ry="5.35" transform="translate(-57.99 57.26) rotate(-23.09)"/><path class="cls-8" d="M99.38,153.64s.48-3.09,4.55-1.83,4.55-1.82,4.55-1.82"/><text class="cls-9" transform="matrix(0.97, -0.23, 0.23, 0.97, 295.04, 209.25)">Book</text><text class="cls-10" transform="translate(105.32 174.83) rotate(-16.33)">Art</text></g></g></g></svg>